  0
SECTION
  2
HEADER
  9
$ACADVER
  1
AC1014
  9
$HANDSEED
  5
FFFF
  9
$MEASUREMENT
 70
     1
  0
ENDSEC
  0
SECTION
  2
TABLES
  0
TABLE
  2
VPORT
  5
8
330
0
100
AcDbSymbolTable
 70
     4
  0
VPORT
  5
2E
330
8
100
AcDbSymbolTableRecord
100
AcDbViewportTableRecord
  2
*ACTIVE
 70
     0
 10
0.0
 20
0.0
 11
1.0
 21
1.0
 12
210.0
 22
148.5
 13
0.0
 23
0.0
 14
10.0
 24
10.0
 15
10.0
 25
10.0
 16
0.0
 26
0.0
 36
1.0
 17
0.0
 27
0.0
 37
0.0
 40
341.0
 41
1.24
 42
50.0
 43
0.0
 44
0.0
 50
0.0
 51
0.0
 71
     0
 72
   100
 73
     1
 74
     3
 75
     0
 76
     0
 77
     0
 78
     0
  0
ENDTAB
  0
TABLE
  2
LTYPE
  5
5
330
0
100
AcDbSymbolTable
 70
     1
  0
LTYPE
  5
14
330
5
100
AcDbSymbolTableRecord
100
AcDbLinetypeTableRecord
  2
BYBLOCK
 70
     0
  3

 72
    65
 73
     0
 40
0.0
  0
LTYPE
  5
15
330
5
100
AcDbSymbolTableRecord
100
AcDbLinetypeTableRecord
  2
BYLAYER
 70
     0
  3

 72
    65
 73
     0
 40
0.0
  0
LTYPE
  5
16
330
5
100
AcDbSymbolTableRecord
100
AcDbLinetypeTableRecord
  2
CONTINUOUS
 70
     0
  3
Solid line
 72
    65
 73
     0
 40
0.0
  0
ENDTAB
  0
TABLE
  2
LAYER
  5
2
100
AcDbSymbolTable
 70
2
  0
LAYER
  5
50
100
AcDbSymbolTableRecord
100
AcDbLayerTableRecord
  2
0
 70
0
  6
CONTINUOUS
  0
LAYER
  5
51
100
AcDbSymbolTableRecord
100
AcDbLayerTableRecord
  2
Ebene_1
 70
0
  6
CONTINUOUS
  0
ENDTAB
  0
TABLE
  2
STYLE
  5
3
330
0
100
AcDbSymbolTable
 70
     1
  0
STYLE
  5
11
330
3
100
AcDbSymbolTableRecord
100
AcDbTextStyleTableRecord
  2
STANDARD
 70
     0
 40
0.0
 41
1.0
 50
0.0
 71
     0
 42
2.5
  3
txt
  4

  0
ENDTAB
  0
TABLE
  2
VIEW
  5
6
330
0
100
AcDbSymbolTable
 70
     0
  0
ENDTAB
  0
TABLE
  2
UCS
  5
7
330
0
100
AcDbSymbolTable
 70
     0
  0
ENDTAB
  0
TABLE
  2
APPID
  5
9
330
0
100
AcDbSymbolTable
 70
     2
  0
APPID
  5
12
330
9
100
AcDbSymbolTableRecord
100
AcDbRegAppTableRecord
  2
ACAD
 70
     0
  0
ENDTAB
  0
TABLE
  2
DIMSTYLE
  5
A
330
0
100
AcDbSymbolTable
 70
     1
  0
DIMSTYLE
105
27
330
A
100
AcDbSymbolTableRecord
100
AcDbDimStyleTableRecord
  2
ISO-25
 70
     0
  3

  4

  5

  6

  7

 40
1.0
 41
2.5
 42
0.625
 43
3.75
 44
1.25
 45
0.0
 46
0.0
 47
0.0
 48
0.0
140
2.5
141
2.5
142
0.0
143
0.03937007874016
144
1.0
145
0.0
146
1.0
147
0.625
 71
     0
 72
     0
 73
     0
 74
     0
 75
     0
 76
     0
 77
     1
 78
     8
170
     0
171
     3
172
     1
173
     0
174
     0
175
     0
176
     0
177
     0
178
     0
270
     2
271
     2
272
     2
273
     2
274
     3
340
11
275
     0
280
     0
281
     0
282
     0
283
     0
284
     8
285
     0
286
     0
287
     3
288
     0
  0
ENDTAB
  0
TABLE
  2
BLOCK_RECORD
  5
1
330
0
100
AcDbSymbolTable
 70
     1
  0
BLOCK_RECORD
  5
1F
330
1
100
AcDbSymbolTableRecord
100
AcDbBlockTableRecord
  2
*MODEL_SPACE
  0
BLOCK_RECORD
  5
1B
330
1
100
AcDbSymbolTableRecord
100
AcDbBlockTableRecord
  2
*PAPER_SPACE
  0
ENDTAB
  0
ENDSEC
  0
SECTION
  2
BLOCKS
  0
BLOCK
  5
20
330
1F
100
AcDbEntity
  8
0
100
AcDbBlockBegin
  2
*MODEL_SPACE
 70
     0
 10
0.0
 20
0.0
 30
0.0
  3
*MODEL_SPACE
  1

  0
ENDBLK
  5
21
330
1F
100
AcDbEntity
  8
0
100
AcDbBlockEnd
  0
BLOCK
  5
1C
330
1B
100
AcDbEntity
 67
     1
  8
0
100
AcDbBlockBegin
  2
*PAPER_SPACE
  1

  0
ENDBLK
  5
1D
330
1B
100
AcDbEntity
 67
     1
  8
0
100
AcDbBlockEnd
  0
ENDSEC
  0
SECTION
  2
ENTITIES
  0
SPLINE
  5
100
100
AcDbEntity
  8
Ebene_1
 62
7
100
AcDbSpline
 70
8
 71
3
 72
8
 73
4
 74
0
 40
0
 40
0
 40
0
 40
0
 40
1
 40
1
 40
1
 40
1
 10
2.875139
 20
56.243148
 30
0.0
 10
1.283772
 20
56.243148
 30
0.0
 10
0.000000
 20
54.959178
 30
0.0
 10
0.000000
 20
53.368037
 30
0.0
  0
LINE
  5
101
100
AcDbEntity
  8
Ebene_1
 62
7
100
AcDbLine
 10
0.000000
 20
53.368037
 30
0.0
 11
0.000000
 21
24.766565
 31
0.0
  0
LINE
  5
102
100
AcDbEntity
  8
Ebene_1
 62
7
100
AcDbLine
 10
0.000000
 20
24.766565
 30
0.0
 11
0.000000
 21
2.876692
 31
0.0
  0
SPLINE
  5
103
100
AcDbEntity
  8
Ebene_1
 62
7
100
AcDbSpline
 70
8
 71
3
 72
8
 73
4
 74
0
 40
0
 40
0
 40
0
 40
0
 40
1
 40
1
 40
1
 40
1
 10
0.000000
 20
2.876692
 30
0.0
 10
-0.000028
 20
1.285524
 30
0.0
 10
1.284676
 20
-0.052069
 30
0.0
 10
2.875139
 20
0.001554
 30
0.0
  0
LINE
  5
104
100
AcDbEntity
  8
Ebene_1
 62
7
100
AcDbLine
 10
2.875139
 20
0.001554
 30
0.0
 11
4.974167
 21
0.001554
 31
0.0
  0
LINE
  5
105
100
AcDbEntity
  8
Ebene_1
 62
7
100
AcDbLine
 10
4.974167
 20
0.001554
 30
0.0
 11
7.134916
 21
0.001554
 31
0.0
  0
SPLINE
  5
106
100
AcDbEntity
  8
Ebene_1
 62
7
100
AcDbSpline
 70
8
 71
3
 72
8
 73
4
 74
0
 40
0
 40
0
 40
0
 40
0
 40
1
 40
1
 40
1
 40
1
 10
7.134916
 20
0.001554
 30
0.0
 10
8.726226
 20
0.001554
 30
0.0
 10
10.010112
 20
1.285524
 30
0.0
 10
10.010055
 20
2.876692
 30
0.0
  0
LINE
  5
107
100
AcDbEntity
  8
Ebene_1
 62
7
100
AcDbLine
 10
10.010055
 20
2.876692
 30
0.0
 11
10.010055
 21
6.695526
 31
0.0
  0
LINE
  5
108
100
AcDbEntity
  8
Ebene_1
 62
7
100
AcDbLine
 10
10.010055
 20
6.695526
 30
0.0
 11
37.412083
 21
6.695526
 31
0.0
  0
LINE
  5
109
100
AcDbEntity
  8
Ebene_1
 62
7
100
AcDbLine
 10
37.412083
 20
6.695526
 30
0.0
 11
38.399861
 21
6.695526
 31
0.0
  0
SPLINE
  5
10a
100
AcDbEntity
  8
Ebene_1
 62
7
100
AcDbSpline
 70
8
 71
3
 72
8
 73
4
 74
0
 40
0
 40
0
 40
0
 40
0
 40
1
 40
1
 40
1
 40
1
 10
38.399861
 20
6.695526
 30
0.0
 10
40.643217
 20
6.695526
 30
0.0
 10
42.403889
 20
8.464777
 30
0.0
 10
42.403889
 20
10.505526
 30
0.0
  0
LINE
  5
10b
100
AcDbEntity
  8
Ebene_1
 62
7
100
AcDbLine
 10
42.403889
 20
10.505526
 30
0.0
 11
42.403889
 21
24.766565
 31
0.0
  0
LINE
  5
10c
100
AcDbEntity
  8
Ebene_1
 62
7
100
AcDbLine
 10
42.403889
 20
24.766565
 30
0.0
 11
42.403889
 21
53.368037
 31
0.0
  0
SPLINE
  5
10d
100
AcDbEntity
  8
Ebene_1
 62
7
100
AcDbSpline
 70
8
 71
3
 72
8
 73
4
 74
0
 40
0
 40
0
 40
0
 40
0
 40
1
 40
1
 40
1
 40
1
 10
42.403889
 20
53.368037
 30
0.0
 10
42.403889
 20
54.959178
 30
0.0
 10
41.120145
 20
56.243176
 30
0.0
 10
39.528750
 20
56.243148
 30
0.0
  0
LINE
  5
10e
100
AcDbEntity
  8
Ebene_1
 62
7
100
AcDbLine
 10
39.528750
 20
56.243148
 30
0.0
 11
2.875139
 21
56.243148
 31
0.0
  0
LINE
  5
10f
100
AcDbEntity
  8
Ebene_1
 62
7
100
AcDbLine
 10
2.875139
 20
56.243148
 30
0.0
 11
2.875139
 21
56.243148
 31
0.0
  0
SPLINE
  5
110
100
AcDbEntity
  8
Ebene_1
 62
7
100
AcDbSpline
 70
8
 71
3
 72
8
 73
4
 74
0
 40
0
 40
0
 40
0
 40
0
 40
1
 40
1
 40
1
 40
1
 10
5.229916
 20
53.976565
 30
0.0
 10
5.336145
 20
53.980234
 30
0.0
 10
5.447369
 20
53.976565
 30
0.0
 10
5.556250
 20
53.959067
 30
0.0
  0
SPLINE
  5
111
100
AcDbEntity
  8
Ebene_1
 62
7
100
AcDbSpline
 70
8
 71
3
 72
8
 73
4
 74
0
 40
0
 40
0
 40
0
 40
0
 40
1
 40
1
 40
1
 40
1
 10
5.556250
 20
53.959067
 30
0.0
 10
6.427301
 20
53.811183
 30
0.0
 10
7.009356
 20
52.986755
 30
0.0
 10
6.861528
 20
52.115789
 30
0.0
  0
SPLINE
  5
112
100
AcDbEntity
  8
Ebene_1
 62
7
100
AcDbSpline
 70
8
 71
3
 72
8
 73
4
 74
0
 40
0
 40
0
 40
0
 40
0
 40
1
 40
1
 40
1
 40
1
 10
6.861528
 20
52.115789
 30
0.0
 10
6.713700
 20
51.244569
 30
0.0
 10
5.889329
 20
50.653822
 30
0.0
 10
5.018250
 20
50.801706
 30
0.0
  0
SPLINE
  5
113
100
AcDbEntity
  8
Ebene_1
 62
7
100
AcDbSpline
 70
8
 71
3
 72
8
 73
4
 74
0
 40
0
 40
0
 40
0
 40
0
 40
1
 40
1
 40
1
 40
1
 10
5.018250
 20
50.801706
 30
0.0
 10
4.147227
 20
50.949590
 30
0.0
 10
3.565144
 20
51.773764
 30
0.0
 10
3.712972
 20
52.644956
 30
0.0
  0
SPLINE
  5
114
100
AcDbEntity
  8
Ebene_1
 62
7
100
AcDbSpline
 70
8
 71
3
 72
8
 73
4
 74
0
 40
0
 40
0
 40
0
 40
0
 40
1
 40
1
 40
1
 40
1
 10
3.712972
 20
52.644956
 30
0.0
 10
3.842314
 20
53.407040
 30
0.0
 10
4.486261
 20
53.951475
 30
0.0
 10
5.229916
 20
53.976706
 30
0.0
  0
LINE
  5
115
100
AcDbEntity
  8
Ebene_1
 62
7
100
AcDbLine
 10
5.229916
 20
53.976706
 30
0.0
 11
5.229916
 21
53.976565
 31
0.0
  0
SPLINE
  5
116
100
AcDbEntity
  8
Ebene_1
 62
7
100
AcDbSpline
 70
8
 71
3
 72
8
 73
4
 74
0
 40
0
 40
0
 40
0
 40
0
 40
1
 40
1
 40
1
 40
1
 10
36.697694
 20
53.976565
 30
0.0
 10
36.803923
 20
53.980234
 30
0.0
 10
36.915146
 20
53.976565
 30
0.0
 10
37.024028
 20
53.959067
 30
0.0
  0
SPLINE
  5
117
100
AcDbEntity
  8
Ebene_1
 62
7
100
AcDbSpline
 70
8
 71
3
 72
8
 73
4
 74
0
 40
0
 40
0
 40
0
 40
0
 40
1
 40
1
 40
1
 40
1
 10
37.024028
 20
53.959067
 30
0.0
 10
37.895078
 20
53.811183
 30
0.0
 10
38.477134
 20
52.986755
 30
0.0
 10
38.329306
 20
52.115789
 30
0.0
  0
SPLINE
  5
118
100
AcDbEntity
  8
Ebene_1
 62
7
100
AcDbSpline
 70
8
 71
3
 72
8
 73
4
 74
0
 40
0
 40
0
 40
0
 40
0
 40
1
 40
1
 40
1
 40
1
 10
38.329306
 20
52.115789
 30
0.0
 10
38.181478
 20
51.244569
 30
0.0
 10
37.357106
 20
50.653822
 30
0.0
 10
36.486028
 20
50.801706
 30
0.0
  0
SPLINE
  5
119
100
AcDbEntity
  8
Ebene_1
 62
7
100
AcDbSpline
 70
8
 71
3
 72
8
 73
4
 74
0
 40
0
 40
0
 40
0
 40
0
 40
1
 40
1
 40
1
 40
1
 10
36.486028
 20
50.801706
 30
0.0
 10
35.615005
 20
50.949590
 30
0.0
 10
35.032922
 20
51.773764
 30
0.0
 10
35.180750
 20
52.644956
 30
0.0
  0
SPLINE
  5
11a
100
AcDbEntity
  8
Ebene_1
 62
7
100
AcDbSpline
 70
8
 71
3
 72
8
 73
4
 74
0
 40
0
 40
0
 40
0
 40
0
 40
1
 40
1
 40
1
 40
1
 10
35.180750
 20
52.644956
 30
0.0
 10
35.310092
 20
53.407040
 30
0.0
 10
35.954039
 20
53.951475
 30
0.0
 10
36.697694
 20
53.976706
 30
0.0
  0
LINE
  5
11b
100
AcDbEntity
  8
Ebene_1
 62
7
100
AcDbLine
 10
36.697694
 20
53.976706
 30
0.0
 11
36.697694
 21
53.976565
 31
0.0
  0
SPLINE
  5
11c
100
AcDbEntity
  8
Ebene_1
 62
7
100
AcDbSpline
 70
8
 71
3
 72
8
 73
4
 74
0
 40
0
 40
0
 40
0
 40
0
 40
1
 40
1
 40
1
 40
1
 10
5.556250
 20
45.351148
 30
0.0
 10
6.550378
 20
45.351148
 30
0.0
 10
7.355417
 20
44.537163
 30
0.0
 10
7.355417
 20
43.543148
 30
0.0
  0
SPLINE
  5
11d
100
AcDbEntity
  8
Ebene_1
 62
7
100
AcDbSpline
 70
8
 71
3
 72
8
 73
4
 74
0
 40
0
 40
0
 40
0
 40
0
 40
1
 40
1
 40
1
 40
1
 10
7.355417
 20
43.543148
 30
0.0
 10
7.355417
 20
42.548879
 30
0.0
 10
6.550378
 20
41.743981
 30
0.0
 10
5.556250
 20
41.743981
 30
0.0
  0
SPLINE
  5
11e
100
AcDbEntity
  8
Ebene_1
 62
7
100
AcDbSpline
 70
8
 71
3
 72
8
 73
4
 74
0
 40
0
 40
0
 40
0
 40
0
 40
1
 40
1
 40
1
 40
1
 10
5.556250
 20
41.743981
 30
0.0
 10
4.562150
 20
41.743981
 30
0.0
 10
3.757083
 20
42.548936
 30
0.0
 10
3.757083
 20
43.543148
 30
0.0
  0
SPLINE
  5
11f
100
AcDbEntity
  8
Ebene_1
 62
7
100
AcDbSpline
 70
8
 71
3
 72
8
 73
4
 74
0
 40
0
 40
0
 40
0
 40
0
 40
1
 40
1
 40
1
 40
1
 10
3.757083
 20
43.543148
 30
0.0
 10
3.757083
 20
44.537135
 30
0.0
 10
4.562150
 20
45.351148
 30
0.0
 10
5.556250
 20
45.351148
 30
0.0
  0
LINE
  5
120
100
AcDbEntity
  8
Ebene_1
 62
7
100
AcDbLine
 10
5.556250
 20
45.351148
 30
0.0
 11
5.556250
 21
45.351148
 31
0.0
  0
SPLINE
  5
121
100
AcDbEntity
  8
Ebene_1
 62
7
100
AcDbSpline
 70
8
 71
3
 72
8
 73
4
 74
0
 40
0
 40
0
 40
0
 40
0
 40
1
 40
1
 40
1
 40
1
 10
36.838805
 20
45.333650
 30
0.0
 10
37.025213
 20
45.333650
 30
0.0
 10
37.198893
 20
45.306839
 30
0.0
 10
37.367972
 20
45.254290
 30
0.0
  0
LINE
  5
122
100
AcDbEntity
  8
Ebene_1
 62
7
100
AcDbLine
 10
37.367972
 20
45.254290
 30
0.0
 11
37.376721
 21
45.254290
 31
0.0
  0
SPLINE
  5
123
100
AcDbEntity
  8
Ebene_1
 62
7
100
AcDbSpline
 70
8
 71
3
 72
8
 73
4
 74
0
 40
0
 40
0
 40
0
 40
0
 40
1
 40
1
 40
1
 40
1
 10
37.376721
 20
45.254290
 30
0.0
 10
37.430371
 20
45.237356
 30
0.0
 10
37.484135
 20
45.215117
 30
0.0
 10
37.535471
 20
45.192539
 30
0.0
  0
LINE
  5
124
100
AcDbEntity
  8
Ebene_1
 62
7
100
AcDbLine
 10
37.535471
 20
45.192539
 30
0.0
 11
37.544220
 21
45.192539
 31
0.0
  0
SPLINE
  5
125
100
AcDbEntity
  8
Ebene_1
 62
7
100
AcDbSpline
 70
8
 71
3
 72
8
 73
4
 74
0
 40
0
 40
0
 40
0
 40
0
 40
1
 40
1
 40
1
 40
1
 10
37.544220
 20
45.192539
 30
0.0
 10
37.757664
 20
45.102228
 30
0.0
 10
37.946697
 20
44.965350
 30
0.0
 10
38.108664
 20
44.804484
 30
0.0
  0
SPLINE
  5
126
100
AcDbEntity
  8
Ebene_1
 62
7
100
AcDbSpline
 70
8
 71
3
 72
8
 73
4
 74
0
 40
0
 40
0
 40
0
 40
0
 40
1
 40
1
 40
1
 40
1
 10
38.108664
 20
44.804484
 30
0.0
 10
38.111486
 20
44.801662
 30
0.0
 10
38.114591
 20
44.807306
 30
0.0
 10
38.117413
 20
44.804484
 30
0.0
  0
SPLINE
  5
127
100
AcDbEntity
  8
Ebene_1
 62
7
100
AcDbSpline
 70
8
 71
3
 72
8
 73
4
 74
0
 40
0
 40
0
 40
0
 40
0
 40
1
 40
1
 40
1
 40
1
 10
38.117413
 20
44.804484
 30
0.0
 10
38.280284
 20
44.641642
 30
0.0
 10
38.405562
 20
44.455375
 30
0.0
 10
38.496663
 20
44.240039
 30
0.0
  0
SPLINE
  5
128
100
AcDbEntity
  8
Ebene_1
 62
7
100
AcDbSpline
 70
8
 71
3
 72
8
 73
4
 74
0
 40
0
 40
0
 40
0
 40
0
 40
1
 40
1
 40
1
 40
1
 10
38.496663
 20
44.240039
 30
0.0
 10
38.589656
 20
44.022728
 30
0.0
 10
38.637774
 20
43.785662
 30
0.0
 10
38.637774
 20
43.534484
 30
0.0
  0
SPLINE
  5
129
100
AcDbEntity
  8
Ebene_1
 62
7
100
AcDbSpline
 70
8
 71
3
 72
8
 73
4
 74
0
 40
0
 40
0
 40
0
 40
0
 40
1
 40
1
 40
1
 40
1
 10
38.637774
 20
43.534484
 30
0.0
 10
38.637774
 20
43.285846
 30
0.0
 10
38.587736
 20
43.053097
 30
0.0
 10
38.496663
 20
42.837734
 30
0.0
  0
SPLINE
  5
12a
100
AcDbEntity
  8
Ebene_1
 62
7
100
AcDbSpline
 70
8
 71
3
 72
8
 73
4
 74
0
 40
0
 40
0
 40
0
 40
0
 40
1
 40
1
 40
1
 40
1
 10
38.496663
 20
42.837734
 30
0.0
 10
38.405562
 20
42.622398
 30
0.0
 10
38.280284
 20
42.427326
 30
0.0
 10
38.117413
 20
42.264484
 30
0.0
  0
SPLINE
  5
12b
100
AcDbEntity
  8
Ebene_1
 62
7
100
AcDbSpline
 70
8
 71
3
 72
8
 73
4
 74
0
 40
0
 40
0
 40
0
 40
0
 40
1
 40
1
 40
1
 40
1
 10
38.117413
 20
42.264484
 30
0.0
 10
38.114591
 20
42.261662
 30
0.0
 10
38.111486
 20
42.267306
 30
0.0
 10
38.108664
 20
42.264484
 30
0.0
  0
SPLINE
  5
12c
100
AcDbEntity
  8
Ebene_1
 62
7
100
AcDbSpline
 70
8
 71
3
 72
8
 73
4
 74
0
 40
0
 40
0
 40
0
 40
0
 40
1
 40
1
 40
1
 40
1
 10
38.108664
 20
42.264484
 30
0.0
 10
38.073556
 20
42.229488
 30
0.0
 10
38.031928
 20
42.190824
 30
0.0
 10
37.994026
 20
42.158650
 30
0.0
  0
SPLINE
  5
12d
100
AcDbEntity
  8
Ebene_1
 62
7
100
AcDbSpline
 70
8
 71
3
 72
8
 73
4
 74
0
 40
0
 40
0
 40
0
 40
0
 40
1
 40
1
 40
1
 40
1
 10
37.994026
 20
42.158650
 30
0.0
 10
37.990921
 20
42.155828
 30
0.0
 10
37.988381
 20
42.152724
 30
0.0
 10
37.985277
 20
42.149902
 30
0.0
  0
SPLINE
  5
12e
100
AcDbEntity
  8
Ebene_1
 62
7
100
AcDbSpline
 70
8
 71
3
 72
8
 73
4
 74
0
 40
0
 40
0
 40
0
 40
0
 40
1
 40
1
 40
1
 40
1
 10
37.985277
 20
42.149902
 30
0.0
 10
37.982454
 20
42.147079
 30
0.0
 10
37.979632
 20
42.143975
 30
0.0
 10
37.976528
 20
42.141153
 30
0.0
  0
SPLINE
  5
12f
100
AcDbEntity
  8
Ebene_1
 62
7
100
AcDbSpline
 70
8
 71
3
 72
8
 73
4
 74
0
 40
0
 40
0
 40
0
 40
0
 40
1
 40
1
 40
1
 40
1
 10
37.976528
 20
42.141153
 30
0.0
 10
37.888277
 20
42.069186
 30
0.0
 10
37.795285
 20
42.010145
 30
0.0
 10
37.694306
 20
41.955930
 30
0.0
  0
SPLINE
  5
130
100
AcDbEntity
  8
Ebene_1
 62
7
100
AcDbSpline
 70
8
 71
3
 72
8
 73
4
 74
0
 40
0
 40
0
 40
0
 40
0
 40
1
 40
1
 40
1
 40
1
 10
37.694306
 20
41.955930
 30
0.0
 10
37.645566
 20
41.929401
 30
0.0
 10
37.595697
 20
41.899147
 30
0.0
 10
37.544361
 20
41.876569
 30
0.0
  0
LINE
  5
131
100
AcDbEntity
  8
Ebene_1
 62
7
100
AcDbLine
 10
37.544361
 20
41.876569
 30
0.0
 11
37.535612
 21
41.876569
 31
0.0
  0
SPLINE
  5
132
100
AcDbEntity
  8
Ebene_1
 62
7
100
AcDbSpline
 70
8
 71
3
 72
8
 73
4
 74
0
 40
0
 40
0
 40
0
 40
0
 40
1
 40
1
 40
1
 40
1
 10
37.535612
 20
41.876569
 30
0.0
 10
37.484276
 20
41.854838
 30
0.0
 10
37.430512
 20
41.831781
 30
0.0
 10
37.376862
 20
41.814819
 30
0.0
  0
LINE
  5
133
100
AcDbEntity
  8
Ebene_1
 62
7
100
AcDbLine
 10
37.376862
 20
41.814819
 30
0.0
 11
37.368113
 21
41.814819
 31
0.0
  0
SPLINE
  5
134
100
AcDbEntity
  8
Ebene_1
 62
7
100
AcDbSpline
 70
8
 71
3
 72
8
 73
4
 74
0
 40
0
 40
0
 40
0
 40
0
 40
1
 40
1
 40
1
 40
1
 10
37.368113
 20
41.814819
 30
0.0
 10
37.199034
 20
41.763455
 30
0.0
 10
37.025354
 20
41.735458
 30
0.0
 10
36.838946
 20
41.735458
 30
0.0
  0
SPLINE
  5
135
100
AcDbEntity
  8
Ebene_1
 62
7
100
AcDbSpline
 70
8
 71
3
 72
8
 73
4
 74
0
 40
0
 40
0
 40
0
 40
0
 40
1
 40
1
 40
1
 40
1
 10
36.838946
 20
41.735458
 30
0.0
 10
36.655474
 20
41.735458
 30
0.0
 10
36.476545
 20
41.763765
 30
0.0
 10
36.309780
 20
41.814819
 30
0.0
  0
LINE
  5
136
100
AcDbEntity
  8
Ebene_1
 62
7
100
AcDbLine
 10
36.309780
 20
41.814819
 30
0.0
 11
36.301031
 21
41.814819
 31
0.0
  0
SPLINE
  5
137
100
AcDbEntity
  8
Ebene_1
 62
7
100
AcDbSpline
 70
8
 71
3
 72
8
 73
4
 74
0
 40
0
 40
0
 40
0
 40
0
 40
1
 40
1
 40
1
 40
1
 10
36.301031
 20
41.814819
 30
0.0
 10
36.247296
 20
41.831470
 30
0.0
 10
36.193758
 20
41.853992
 30
0.0
 10
36.142281
 20
41.876569
 30
0.0
  0
LINE
  5
138
100
AcDbEntity
  8
Ebene_1
 62
7
100
AcDbLine
 10
36.142281
 20
41.876569
 30
0.0
 11
36.133532
 21
41.876569
 31
0.0
  0
SPLINE
  5
139
100
AcDbEntity
  8
Ebene_1
 62
7
100
AcDbSpline
 70
8
 71
3
 72
8
 73
4
 74
0
 40
0
 40
0
 40
0
 40
0
 40
1
 40
1
 40
1
 40
1
 10
36.133532
 20
41.876569
 30
0.0
 10
36.082083
 20
41.898300
 30
0.0
 10
36.032468
 20
41.930530
 30
0.0
 10
35.983616
 20
41.955930
 30
0.0
  0
LINE
  5
13a
100
AcDbEntity
  8
Ebene_1
 62
7
100
AcDbLine
 10
35.983616
 20
41.955930
 30
0.0
 11
35.974867
 21
41.955930
 31
0.0
  0
SPLINE
  5
13b
100
AcDbEntity
  8
Ebene_1
 62
7
100
AcDbSpline
 70
8
 71
3
 72
8
 73
4
 74
0
 40
0
 40
0
 40
0
 40
0
 40
1
 40
1
 40
1
 40
1
 10
35.974867
 20
41.955930
 30
0.0
 10
35.923841
 20
41.983588
 30
0.0
 10
35.881620
 20
42.011951
 30
0.0
 10
35.833756
 20
42.044153
 30
0.0
  0
SPLINE
  5
13c
100
AcDbEntity
  8
Ebene_1
 62
7
100
AcDbSpline
 70
8
 71
3
 72
8
 73
4
 74
0
 40
0
 40
0
 40
0
 40
0
 40
1
 40
1
 40
1
 40
1
 10
35.833756
 20
42.044153
 30
0.0
 10
35.739691
 20
42.107653
 30
0.0
 10
35.649408
 20
42.185038
 30
0.0
 10
35.569172
 20
42.264625
 30
0.0
  0
SPLINE
  5
13d
100
AcDbEntity
  8
Ebene_1
 62
7
100
AcDbSpline
 70
8
 71
3
 72
8
 73
4
 74
0
 40
0
 40
0
 40
0
 40
0
 40
1
 40
1
 40
1
 40
1
 10
35.569172
 20
42.264625
 30
0.0
 10
35.404298
 20
42.428596
 30
0.0
 10
35.273008
 20
42.620592
 30
0.0
 10
35.181117
 20
42.837875
 30
0.0
  0
SPLINE
  5
13e
100
AcDbEntity
  8
Ebene_1
 62
7
100
AcDbSpline
 70
8
 71
3
 72
8
 73
4
 74
0
 40
0
 40
0
 40
0
 40
0
 40
1
 40
1
 40
1
 40
1
 10
35.181117
 20
42.837875
 30
0.0
 10
35.090015
 20
43.053210
 30
0.0
 10
35.040006
 20
43.286269
 30
0.0
 10
35.040006
 20
43.534625
 30
0.0
  0
SPLINE
  5
13f
100
AcDbEntity
  8
Ebene_1
 62
7
100
AcDbSpline
 70
8
 71
3
 72
8
 73
4
 74
0
 40
0
 40
0
 40
0
 40
0
 40
1
 40
1
 40
1
 40
1
 10
35.040006
 20
43.534625
 30
0.0
 10
35.040006
 20
43.786085
 30
0.0
 10
35.088012
 20
44.022869
 30
0.0
 10
35.181117
 20
44.240180
 30
0.0
  0
SPLINE
  5
140
100
AcDbEntity
  8
Ebene_1
 62
7
100
AcDbSpline
 70
8
 71
3
 72
8
 73
4
 74
0
 40
0
 40
0
 40
0
 40
0
 40
1
 40
1
 40
1
 40
1
 10
35.181117
 20
44.240180
 30
0.0
 10
35.188172
 20
44.256267
 30
0.0
 10
35.200308
 20
44.267274
 30
0.0
 10
35.207646
 20
44.284264
 30
0.0
  0
SPLINE
  5
141
100
AcDbEntity
  8
Ebene_1
 62
7
100
AcDbSpline
 70
8
 71
3
 72
8
 73
4
 74
0
 40
0
 40
0
 40
0
 40
0
 40
1
 40
1
 40
1
 40
1
 10
35.207646
 20
44.284264
 30
0.0
 10
35.211597
 20
44.292730
 30
0.0
 10
35.212443
 20
44.302326
 30
0.0
 10
35.216394
 20
44.310792
 30
0.0
  0
SPLINE
  5
142
100
AcDbEntity
  8
Ebene_1
 62
7
100
AcDbSpline
 70
8
 71
3
 72
8
 73
4
 74
0
 40
0
 40
0
 40
0
 40
0
 40
1
 40
1
 40
1
 40
1
 10
35.216394
 20
44.310792
 30
0.0
 10
35.305831
 20
44.496212
 30
0.0
 10
35.424590
 20
44.661030
 30
0.0
 10
35.569172
 20
44.804681
 30
0.0
  0
SPLINE
  5
143
100
AcDbEntity
  8
Ebene_1
 62
7
100
AcDbSpline
 70
8
 71
3
 72
8
 73
4
 74
0
 40
0
 40
0
 40
0
 40
0
 40
1
 40
1
 40
1
 40
1
 10
35.569172
 20
44.804681
 30
0.0
 10
35.604281
 20
44.839677
 30
0.0
 10
35.645908
 20
44.878341
 30
0.0
 10
35.683811
 20
44.910515
 30
0.0
  0
SPLINE
  5
144
100
AcDbEntity
  8
Ebene_1
 62
7
100
AcDbSpline
 70
8
 71
3
 72
8
 73
4
 74
0
 40
0
 40
0
 40
0
 40
0
 40
1
 40
1
 40
1
 40
1
 10
35.683811
 20
44.910515
 30
0.0
 10
35.686633
 20
44.913337
 30
0.0
 10
35.689455
 20
44.907692
 30
0.0
 10
35.692560
 20
44.910515
 30
0.0
  0
SPLINE
  5
145
100
AcDbEntity
  8
Ebene_1
 62
7
100
AcDbSpline
 70
8
 71
3
 72
8
 73
4
 74
0
 40
0
 40
0
 40
0
 40
0
 40
1
 40
1
 40
1
 40
1
 10
35.692560
 20
44.910515
 30
0.0
 10
35.695664
 20
44.913337
 30
0.0
 10
35.698204
 20
44.916441
 30
0.0
 10
35.701309
 20
44.919264
 30
0.0
  0
SPLINE
  5
146
100
AcDbEntity
  8
Ebene_1
 62
7
100
AcDbSpline
 70
8
 71
3
 72
8
 73
4
 74
0
 40
0
 40
0
 40
0
 40
0
 40
1
 40
1
 40
1
 40
1
 10
35.701309
 20
44.919264
 30
0.0
 10
35.745759
 20
44.956009
 30
0.0
 10
35.785721
 20
44.984118
 30
0.0
 10
35.833614
 20
45.016292
 30
0.0
  0
SPLINE
  5
147
100
AcDbEntity
  8
Ebene_1
 62
7
100
AcDbSpline
 70
8
 71
3
 72
8
 73
4
 74
0
 40
0
 40
0
 40
0
 40
0
 40
1
 40
1
 40
1
 40
1
 10
35.833614
 20
45.016292
 30
0.0
 10
35.884668
 20
45.051005
 30
0.0
 10
35.928921
 20
45.084194
 30
0.0
 10
35.983531
 20
45.113320
 30
0.0
  0
SPLINE
  5
148
100
AcDbEntity
  8
Ebene_1
 62
7
100
AcDbSpline
 70
8
 71
3
 72
8
 73
4
 74
0
 40
0
 40
0
 40
0
 40
0
 40
1
 40
1
 40
1
 40
1
 10
35.983531
 20
45.113320
 30
0.0
 10
36.008931
 20
45.126020
 30
0.0
 10
36.036673
 20
45.134486
 30
0.0
 10
36.062920
 20
45.148597
 30
0.0
  0
SPLINE
  5
149
100
AcDbEntity
  8
Ebene_1
 62
7
100
AcDbSpline
 70
8
 71
3
 72
8
 73
4
 74
0
 40
0
 40
0
 40
0
 40
0
 40
1
 40
1
 40
1
 40
1
 10
36.062920
 20
45.148597
 30
0.0
 10
36.141406
 20
45.185822
 30
0.0
 10
36.225621
 20
45.220197
 30
0.0
 10
36.309864
 20
45.245597
 30
0.0
  0
SPLINE
  5
14a
100
AcDbEntity
  8
Ebene_1
 62
7
100
AcDbSpline
 70
8
 71
3
 72
8
 73
4
 74
0
 40
0
 40
0
 40
0
 40
0
 40
1
 40
1
 40
1
 40
1
 10
36.309864
 20
45.245597
 30
0.0
 10
36.366224
 20
45.264224
 30
0.0
 10
36.418830
 20
45.278363
 30
0.0
 10
36.477420
 20
45.289708
 30
0.0
  0
SPLINE
  5
14b
100
AcDbEntity
  8
Ebene_1
 62
7
100
AcDbSpline
 70
8
 71
3
 72
8
 73
4
 74
0
 40
0
 40
0
 40
0
 40
0
 40
1
 40
1
 40
1
 40
1
 10
36.477420
 20
45.289708
 30
0.0
 10
36.594598
 20
45.313697
 30
0.0
 10
36.714769
 20
45.324986
 30
0.0
 10
36.839031
 20
45.324986
 30
0.0
  0
LINE
  5
14c
100
AcDbEntity
  8
Ebene_1
 62
7
100
AcDbLine
 10
36.839031
 20
45.324986
 30
0.0
 11
36.839031
 21
45.333735
 31
0.0
  0
LINE
  5
14d
100
AcDbEntity
  8
Ebene_1
 62
7
100
AcDbLine
 10
36.839031
 20
45.333735
 30
0.0
 11
36.838805
 21
45.333650
 31
0.0
  0
LINE
  5
14e
100
AcDbEntity
  8
Ebene_1
 62
7
100
AcDbLine
 10
1.702139
 20
41.347262
 30
0.0
 11
4.004028
 21
41.347262
 31
0.0
  0
LINE
  5
14f
100
AcDbEntity
  8
Ebene_1
 62
7
100
AcDbLine
 10
4.004028
 20
41.347262
 30
0.0
 11
4.004028
 21
34.353456
 31
0.0
  0
LINE
  5
150
100
AcDbEntity
  8
Ebene_1
 62
7
100
AcDbLine
 10
4.004028
 20
34.353456
 30
0.0
 11
1.702139
 21
34.353456
 31
0.0
  0
LINE
  5
151
100
AcDbEntity
  8
Ebene_1
 62
7
100
AcDbLine
 10
1.702139
 20
34.353456
 30
0.0
 11
1.702139
 21
41.347262
 31
0.0
  0
LINE
  5
152
100
AcDbEntity
  8
Ebene_1
 62
7
100
AcDbLine
 10
1.702139
 20
41.347262
 30
0.0
 11
1.702139
 21
41.347262
 31
0.0
  0
SPLINE
  5
153
100
AcDbEntity
  8
Ebene_1
 62
7
100
AcDbSpline
 70
8
 71
3
 72
8
 73
4
 74
0
 40
0
 40
0
 40
0
 40
0
 40
1
 40
1
 40
1
 40
1
 10
21.201944
 20
39.318789
 30
0.0
 10
27.510881
 20
39.318789
 30
0.0
 10
32.623111
 20
34.206531
 30
0.0
 10
32.623111
 20
27.897623
 30
0.0
  0
SPLINE
  5
154
100
AcDbEntity
  8
Ebene_1
 62
7
100
AcDbSpline
 70
8
 71
3
 72
8
 73
4
 74
0
 40
0
 40
0
 40
0
 40
0
 40
1
 40
1
 40
1
 40
1
 10
32.623111
 20
27.897623
 30
0.0
 10
32.623111
 20
21.588686
 30
0.0
 10
27.510881
 20
16.476428
 30
0.0
 10
21.201944
 20
16.476428
 30
0.0
  0
SPLINE
  5
155
100
AcDbEntity
  8
Ebene_1
 62
7
100
AcDbSpline
 70
8
 71
3
 72
8
 73
4
 74
0
 40
0
 40
0
 40
0
 40
0
 40
1
 40
1
 40
1
 40
1
 10
21.201944
 20
16.476428
 30
0.0
 10
14.893008
 20
16.476428
 30
0.0
 10
9.780750
 20
21.588658
 30
0.0
 10
9.780750
 20
27.897623
 30
0.0
  0
SPLINE
  5
156
100
AcDbEntity
  8
Ebene_1
 62
7
100
AcDbSpline
 70
8
 71
3
 72
8
 73
4
 74
0
 40
0
 40
0
 40
0
 40
0
 40
1
 40
1
 40
1
 40
1
 10
9.780750
 20
27.897623
 30
0.0
 10
9.780750
 20
34.206531
 30
0.0
 10
14.893008
 20
39.318789
 30
0.0
 10
21.201944
 20
39.318789
 30
0.0
  0
LINE
  5
157
100
AcDbEntity
  8
Ebene_1
 62
7
100
AcDbLine
 10
21.201944
 20
39.318789
 30
0.0
 11
21.201944
 21
39.318789
 31
0.0
  0
LINE
  5
158
100
AcDbEntity
  8
Ebene_1
 62
7
100
AcDbLine
 10
1.702139
 20
27.333178
 30
0.0
 11
4.004028
 21
27.333178
 31
0.0
  0
LINE
  5
159
100
AcDbEntity
  8
Ebene_1
 62
7
100
AcDbLine
 10
4.004028
 20
27.333178
 30
0.0
 11
4.004028
 21
20.339345
 31
0.0
  0
LINE
  5
15a
100
AcDbEntity
  8
Ebene_1
 62
7
100
AcDbLine
 10
4.004028
 20
20.339345
 30
0.0
 11
1.702139
 21
20.339345
 31
0.0
  0
LINE
  5
15b
100
AcDbEntity
  8
Ebene_1
 62
7
100
AcDbLine
 10
1.702139
 20
20.339345
 30
0.0
 11
1.702139
 21
27.333178
 31
0.0
  0
LINE
  5
15c
100
AcDbEntity
  8
Ebene_1
 62
7
100
AcDbLine
 10
1.702139
 20
27.333178
 30
0.0
 11
1.702139
 21
27.333178
 31
0.0
  0
LINE
  5
15d
100
AcDbEntity
  8
Ebene_1
 62
7
100
AcDbLine
 10
4.586111
 20
21.459400
 30
0.0
 11
10.592139
 21
21.459400
 31
0.0
  0
LINE
  5
15e
100
AcDbEntity
  8
Ebene_1
 62
7
100
AcDbLine
 10
10.592139
 20
21.459400
 30
0.0
 11
10.592139
 21
16.061900
 31
0.0
  0
LINE
  5
15f
100
AcDbEntity
  8
Ebene_1
 62
7
100
AcDbLine
 10
10.592139
 20
16.061900
 30
0.0
 11
4.586111
 21
16.061900
 31
0.0
  0
LINE
  5
160
100
AcDbEntity
  8
Ebene_1
 62
7
100
AcDbLine
 10
4.586111
 20
16.061900
 30
0.0
 11
4.586111
 21
21.459400
 31
0.0
  0
LINE
  5
161
100
AcDbEntity
  8
Ebene_1
 62
7
100
AcDbLine
 10
4.586111
 20
21.459400
 30
0.0
 11
4.586111
 21
21.459400
 31
0.0
  0
LINE
  5
162
100
AcDbEntity
  8
Ebene_1
 62
7
100
AcDbLine
 10
31.820556
 20
21.459400
 30
0.0
 11
37.817778
 21
21.459400
 31
0.0
  0
LINE
  5
163
100
AcDbEntity
  8
Ebene_1
 62
7
100
AcDbLine
 10
37.817778
 20
21.459400
 30
0.0
 11
37.817778
 21
16.061900
 31
0.0
  0
LINE
  5
164
100
AcDbEntity
  8
Ebene_1
 62
7
100
AcDbLine
 10
37.817778
 20
16.061900
 30
0.0
 11
31.820556
 21
16.061900
 31
0.0
  0
LINE
  5
165
100
AcDbEntity
  8
Ebene_1
 62
7
100
AcDbLine
 10
31.820556
 20
16.061900
 30
0.0
 11
31.820556
 21
21.459400
 31
0.0
  0
LINE
  5
166
100
AcDbEntity
  8
Ebene_1
 62
7
100
AcDbLine
 10
31.820556
 20
21.459400
 30
0.0
 11
31.820556
 21
21.459400
 31
0.0
  0
SPLINE
  5
167
100
AcDbEntity
  8
Ebene_1
 62
7
100
AcDbSpline
 70
8
 71
3
 72
8
 73
4
 74
0
 40
0
 40
0
 40
0
 40
0
 40
1
 40
1
 40
1
 40
1
 10
5.556250
 20
14.042250
 30
0.0
 10
6.550378
 20
14.042250
 30
0.0
 10
7.355417
 20
13.237070
 30
0.0
 10
7.355417
 20
12.243084
 30
0.0
  0
SPLINE
  5
168
100
AcDbEntity
  8
Ebene_1
 62
7
100
AcDbSpline
 70
8
 71
3
 72
8
 73
4
 74
0
 40
0
 40
0
 40
0
 40
0
 40
1
 40
1
 40
1
 40
1
 10
7.355417
 20
12.243084
 30
0.0
 10
7.355417
 20
11.248815
 30
0.0
 10
6.550378
 20
10.443917
 30
0.0
 10
5.556250
 20
10.443917
 30
0.0
  0
SPLINE
  5
169
100
AcDbEntity
  8
Ebene_1
 62
7
100
AcDbSpline
 70
8
 71
3
 72
8
 73
4
 74
0
 40
0
 40
0
 40
0
 40
0
 40
1
 40
1
 40
1
 40
1
 10
5.556250
 20
10.443917
 30
0.0
 10
4.562150
 20
10.443917
 30
0.0
 10
3.757083
 20
11.248815
 30
0.0
 10
3.757083
 20
12.243084
 30
0.0
  0
SPLINE
  5
16a
100
AcDbEntity
  8
Ebene_1
 62
7
100
AcDbSpline
 70
8
 71
3
 72
8
 73
4
 74
0
 40
0
 40
0
 40
0
 40
0
 40
1
 40
1
 40
1
 40
1
 10
3.757083
 20
12.243084
 30
0.0
 10
3.757083
 20
13.237070
 30
0.0
 10
4.562150
 20
14.042250
 30
0.0
 10
5.556250
 20
14.042250
 30
0.0
  0
LINE
  5
16b
100
AcDbEntity
  8
Ebene_1
 62
7
100
AcDbLine
 10
5.556250
 20
14.042250
 30
0.0
 11
5.556250
 21
14.042250
 31
0.0
  0
SPLINE
  5
16c
100
AcDbEntity
  8
Ebene_1
 62
7
100
AcDbSpline
 70
8
 71
3
 72
8
 73
4
 74
0
 40
0
 40
0
 40
0
 40
0
 40
1
 40
1
 40
1
 40
1
 10
36.847639
 20
14.042250
 30
0.0
 10
37.841767
 20
14.042250
 30
0.0
 10
38.646806
 20
13.237352
 30
0.0
 10
38.646806
 20
12.243084
 30
0.0
  0
SPLINE
  5
16d
100
AcDbEntity
  8
Ebene_1
 62
7
100
AcDbSpline
 70
8
 71
3
 72
8
 73
4
 74
0
 40
0
 40
0
 40
0
 40
0
 40
1
 40
1
 40
1
 40
1
 10
38.646806
 20
12.243084
 30
0.0
 10
38.646806
 20
11.249097
 30
0.0
 10
37.841767
 20
10.443917
 30
0.0
 10
36.847639
 20
10.443917
 30
0.0
  0
SPLINE
  5
16e
100
AcDbEntity
  8
Ebene_1
 62
7
100
AcDbSpline
 70
8
 71
3
 72
8
 73
4
 74
0
 40
0
 40
0
 40
0
 40
0
 40
1
 40
1
 40
1
 40
1
 10
36.847639
 20
10.443917
 30
0.0
 10
36.785522
 20
10.443917
 30
0.0
 10
36.722925
 20
10.438272
 30
0.0
 10
36.662416
 20
10.443917
 30
0.0
  0
SPLINE
  5
16f
100
AcDbEntity
  8
Ebene_1
 62
7
100
AcDbSpline
 70
8
 71
3
 72
8
 73
4
 74
0
 40
0
 40
0
 40
0
 40
0
 40
1
 40
1
 40
1
 40
1
 10
36.662416
 20
10.443917
 30
0.0
 10
36.601908
 20
10.449561
 30
0.0
 10
36.544617
 20
10.459157
 30
0.0
 10
36.486028
 20
10.470446
 30
0.0
  0
SPLINE
  5
170
100
AcDbEntity
  8
Ebene_1
 62
7
100
AcDbSpline
 70
8
 71
3
 72
8
 73
4
 74
0
 40
0
 40
0
 40
0
 40
0
 40
1
 40
1
 40
1
 40
1
 10
36.486028
 20
10.470446
 30
0.0
 10
35.665777
 20
10.638368
 30
0.0
 10
35.048472
 20
11.364469
 30
0.0
 10
35.048472
 20
12.234335
 30
0.0
  0
SPLINE
  5
171
100
AcDbEntity
  8
Ebene_1
 62
7
100
AcDbSpline
 70
8
 71
3
 72
8
 73
4
 74
0
 40
0
 40
0
 40
0
 40
0
 40
1
 40
1
 40
1
 40
1
 10
35.048472
 20
12.234335
 30
0.0
 10
35.048472
 20
13.228604
 30
0.0
 10
35.853539
 20
14.033501
 30
0.0
 10
36.847639
 20
14.033501
 30
0.0
  0
LINE
  5
172
100
AcDbEntity
  8
Ebene_1
 62
7
100
AcDbLine
 10
36.847639
 20
14.033501
 30
0.0
 11
36.847639
 21
14.042250
 31
0.0
  0
LINE
  5
173
100
AcDbEntity
  8
Ebene_1
 62
7
100
AcDbLine
 10
36.847639
 20
14.042250
 30
0.0
 11
36.847639
 21
14.042250
 31
0.0
  0
LINE
  5
174
100
AcDbEntity
  8
Ebene_1
 62
7
100
AcDbLine
 10
3.139722
 20
9.341500
 30
0.0
 11
9.136944
 21
9.341500
 31
0.0
  0
LINE
  5
175
100
AcDbEntity
  8
Ebene_1
 62
7
100
AcDbLine
 10
9.136944
 20
9.341500
 30
0.0
 11
9.136944
 21
7.048445
 31
0.0
  0
LINE
  5
176
100
AcDbEntity
  8
Ebene_1
 62
7
100
AcDbLine
 10
9.136944
 20
7.048445
 30
0.0
 11
3.139722
 21
7.048445
 31
0.0
  0
LINE
  5
177
100
AcDbEntity
  8
Ebene_1
 62
7
100
AcDbLine
 10
3.139722
 20
7.048445
 30
0.0
 11
3.139722
 21
9.341500
 31
0.0
  0
LINE
  5
178
100
AcDbEntity
  8
Ebene_1
 62
7
100
AcDbLine
 10
3.139722
 20
9.341500
 30
0.0
 11
3.139722
 21
9.341500
 31
0.0
  0
SPLINE
  5
179
100
AcDbEntity
  8
Ebene_1
 62
7
100
AcDbSpline
 70
8
 71
3
 72
8
 73
4
 74
0
 40
0
 40
0
 40
0
 40
0
 40
1
 40
1
 40
1
 40
1
 10
5.229916
 20
5.434472
 30
0.0
 10
5.336145
 20
5.438141
 30
0.0
 10
5.447369
 20
5.434472
 30
0.0
 10
5.556250
 20
5.416975
 30
0.0
  0
SPLINE
  5
17a
100
AcDbEntity
  8
Ebene_1
 62
7
100
AcDbSpline
 70
8
 71
3
 72
8
 73
4
 74
0
 40
0
 40
0
 40
0
 40
0
 40
1
 40
1
 40
1
 40
1
 10
5.556250
 20
5.416975
 30
0.0
 10
6.427301
 20
5.269090
 30
0.0
 10
7.009356
 20
4.444663
 30
0.0
 10
6.861528
 20
3.573697
 30
0.0
  0
SPLINE
  5
17b
100
AcDbEntity
  8
Ebene_1
 62
7
100
AcDbSpline
 70
8
 71
3
 72
8
 73
4
 74
0
 40
0
 40
0
 40
0
 40
0
 40
1
 40
1
 40
1
 40
1
 10
6.861528
 20
3.573697
 30
0.0
 10
6.713700
 20
2.702477
 30
0.0
 10
5.889329
 20
2.111729
 30
0.0
 10
5.018250
 20
2.259614
 30
0.0
  0
SPLINE
  5
17c
100
AcDbEntity
  8
Ebene_1
 62
7
100
AcDbSpline
 70
8
 71
3
 72
8
 73
4
 74
0
 40
0
 40
0
 40
0
 40
0
 40
1
 40
1
 40
1
 40
1
 10
5.018250
 20
2.259614
 30
0.0
 10
4.147227
 20
2.407498
 30
0.0
 10
3.565144
 20
3.231672
 30
0.0
 10
3.712972
 20
4.102863
 30
0.0
  0
SPLINE
  5
17d
100
AcDbEntity
  8
Ebene_1
 62
7
100
AcDbSpline
 70
8
 71
3
 72
8
 73
4
 74
0
 40
0
 40
0
 40
0
 40
0
 40
1
 40
1
 40
1
 40
1
 10
3.712972
 20
4.102863
 30
0.0
 10
3.842314
 20
4.864948
 30
0.0
 10
4.486261
 20
5.409383
 30
0.0
 10
5.229916
 20
5.434614
 30
0.0
  0
LINE
  5
17e
100
AcDbEntity
  8
Ebene_1
 62
7
100
AcDbLine
 10
5.229916
 20
5.434614
 30
0.0
 11
5.229916
 21
5.434472
 31
0.0
  0
ENDSEC
  0
SECTION
  2
OBJECTS
  0
DICTIONARY
  5
C
330
0
100
AcDbDictionary
  3
ACAD_GROUP
350
D
  3
ACAD_MLINESTYLE
350
17
  0
DICTIONARY
  5
D
330
C
100
AcDbDictionary
  0
DICTIONARY
  5
1A
330
C
100
AcDbDictionary
  0
DICTIONARY
  5
17
330
C
100
AcDbDictionary
  3
STANDARD
350
18
  0
DICTIONARY
  5
19
330
C
100
AcDbDictionary
  0
ENDSEC
  0
EOF
