  0
SECTION
  2
BLOCKS
  0
ENDSEC
  0
SECTION
  2
ENTITIES
  0
LINE
  8
0
 10
465.002
 20
270.005
 11
310.002
 21
270.005
  0
LINE
  8
0
 10
310.002
 20
270.005
 11
310.002
 21
225.005
  0
LINE
  8
0
 10
310.002
 20
225.005
 11
465.002
 21
225.005
  0
LINE
  8
0
 10
465.002
 20
225.005
 11
465.002
 21
270.005
  0
LINE
  8
0
 10
310.001
 20
270.005
 11
155.001
 21
270.005
  0
LINE
  8
0
 10
155.001
 20
270.005
 11
155.001
 21
225.005
  0
LINE
  8
0
 10
155.001
 20
225.005
 11
310.001
 21
225.005
  0
LINE
  8
0
 10
310.001
 20
225.005
 11
310.001
 21
270.005
  0
LINE
  8
0
 10
155
 20
270.005
 11
0
 21
270.005
  0
LINE
  8
0
 10
0
 20
270.005
 11
0
 21
225.005
  0
LINE
  8
0
 10
0
 20
225.005
 11
155
 21
225.005
  0
LINE
  8
0
 10
155
 20
225.005
 11
155
 21
270.005
  0
LINE
  8
0
 10
465.002
 20
225.004
 11
310.002
 21
225.004
  0
LINE
  8
0
 10
310.002
 20
225.004
 11
310.002
 21
180.004
  0
LINE
  8
0
 10
310.002
 20
180.004
 11
465.002
 21
180.004
  0
LINE
  8
0
 10
465.002
 20
180.004
 11
465.002
 21
225.004
  0
LINE
  8
0
 10
310.001
 20
225.004
 11
155.001
 21
225.004
  0
LINE
  8
0
 10
155.001
 20
225.004
 11
155.001
 21
180.004
  0
LINE
  8
0
 10
155.001
 20
180.004
 11
310.001
 21
180.004
  0
LINE
  8
0
 10
310.001
 20
180.004
 11
310.001
 21
225.004
  0
LINE
  8
0
 10
155
 20
225.004
 11
0
 21
225.004
  0
LINE
  8
0
 10
0
 20
225.004
 11
0
 21
180.004
  0
LINE
  8
0
 10
0
 20
180.004
 11
155
 21
180.004
  0
LINE
  8
0
 10
155
 20
180.004
 11
155
 21
225.004
  0
LINE
  8
0
 10
155
 20
180.003
 11
0
 21
180.003
  0
LINE
  8
0
 10
0
 20
180.003
 11
0
 21
135.003
  0
LINE
  8
0
 10
0
 20
135.003
 11
155
 21
135.003
  0
LINE
  8
0
 10
155
 20
135.003
 11
155
 21
180.003
  0
LINE
  8
0
 10
465.002
 20
180.003
 11
310.002
 21
180.003
  0
LINE
  8
0
 10
310.002
 20
180.003
 11
310.002
 21
135.003
  0
LINE
  8
0
 10
310.002
 20
135.003
 11
465.002
 21
135.003
  0
LINE
  8
0
 10
465.002
 20
135.003
 11
465.002
 21
180.003
  0
LINE
  8
0
 10
310.001
 20
180.003
 11
155.001
 21
180.003
  0
LINE
  8
0
 10
155.001
 20
180.003
 11
155.001
 21
135.003
  0
LINE
  8
0
 10
155.001
 20
135.003
 11
310.001
 21
135.003
  0
LINE
  8
0
 10
310.001
 20
135.003
 11
310.001
 21
180.003
  0
LINE
  8
0
 10
465.002
 20
135.002
 11
310.002
 21
135.002
  0
LINE
  8
0
 10
310.002
 20
135.002
 11
310.002
 21
90.002
  0
LINE
  8
0
 10
310.002
 20
90.002
 11
465.002
 21
90.002
  0
LINE
  8
0
 10
465.002
 20
90.002
 11
465.002
 21
135.002
  0
LINE
  8
0
 10
310.001
 20
135.002
 11
155.001
 21
135.002
  0
LINE
  8
0
 10
155.001
 20
135.002
 11
155.001
 21
90.002
  0
LINE
  8
0
 10
155.001
 20
90.002
 11
310.001
 21
90.002
  0
LINE
  8
0
 10
310.001
 20
90.002
 11
310.001
 21
135.002
  0
LINE
  8
0
 10
155
 20
135.002
 11
0
 21
135.002
  0
LINE
  8
0
 10
0
 20
135.002
 11
0
 21
90.002
  0
LINE
  8
0
 10
0
 20
90.002
 11
155
 21
90.002
  0
LINE
  8
0
 10
155
 20
90.002
 11
155
 21
135.002
  0
LINE
  8
0
 10
465.002
 20
90.001
 11
310.002
 21
90.001
  0
LINE
  8
0
 10
310.002
 20
90.001
 11
310.002
 21
45.001
  0
LINE
  8
0
 10
310.002
 20
45.001
 11
465.002
 21
45.001
  0
LINE
  8
0
 10
465.002
 20
45.001
 11
465.002
 21
90.001
  0
LINE
  8
0
 10
310.001
 20
90.001
 11
155.001
 21
90.001
  0
LINE
  8
0
 10
155.001
 20
90.001
 11
155.001
 21
45.001
  0
LINE
  8
0
 10
155.001
 20
45.001
 11
310.001
 21
45.001
  0
LINE
  8
0
 10
310.001
 20
45.001
 11
310.001
 21
90.001
  0
LINE
  8
0
 10
155
 20
90.001
 11
0
 21
90.001
  0
LINE
  8
0
 10
0
 20
90.001
 11
0
 21
45.001
  0
LINE
  8
0
 10
0
 20
45.001
 11
155
 21
45.001
  0
LINE
  8
0
 10
155
 20
45.001
 11
155
 21
90.001
  0
LINE
  8
0
 10
155
 20
45
 11
0
 21
45
  0
LINE
  8
0
 10
0
 20
45
 11
0
 21
0
  0
LINE
  8
0
 10
0
 20
0
 11
155
 21
0
  0
LINE
  8
0
 10
155
 20
0
 11
155
 21
45
  0
LINE
  8
0
 10
465.002
 20
45
 11
310.002
 21
45
  0
LINE
  8
0
 10
310.002
 20
45
 11
310.002
 21
0
  0
LINE
  8
0
 10
310.002
 20
0
 11
465.002
 21
0
  0
LINE
  8
0
 10
465.002
 20
0
 11
465.002
 21
45
  0
LINE
  8
0
 10
310.001
 20
45
 11
155.001
 21
45
  0
LINE
  8
0
 10
155.001
 20
45
 11
155.001
 21
0
  0
LINE
  8
0
 10
155.001
 20
0
 11
310.001
 21
0
  0
LINE
  8
0
 10
310.001
 20
0
 11
310.001
 21
45
  0
ENDSEC
  0
SECTION
  2
OBJECTS
  0
DICTIONARY
  0
ENDSEC
  0
EOF
