  0
SECTION
  2
BLOCKS
  0
ENDSEC
  0
SECTION
  2
ENTITIES
  0
LINE
  8
0
 10
50
 20
-44.9
 11
44
 21
-44.9
  0
LINE
  8
0
 10
44
 20
-44.9
 11
44
 21
-39.1
  0
LINE
  8
0
 10
44
 20
-39.1
 11
50
 21
-39.1
  0
LINE
  8
0
 10
50
 20
-39.1
 11
50
 21
-32.9
  0
LINE
  8
0
 10
50
 20
-32.9
 11
44
 21
-32.9
  0
LINE
  8
0
 10
44
 20
-32.9
 11
44
 21
-27.1
  0
LINE
  8
0
 10
44
 20
-27.1
 11
50
 21
-27.1
  0
LINE
  8
0
 10
50
 20
-27.1
 11
50
 21
-20
  0
LINE
  8
0
 10
50
 20
-20
 11
38
 21
-20
  0
LINE
  8
0
 10
38
 20
-20
 11
38
 21
50
  0
LINE
  8
0
 10
38
 20
50
 11
-15
 21
50
  0
LINE
  8
0
 10
-15
 20
50
 11
-15
 21
9
  0
LINE
  8
0
 10
-15
 20
9
 11
-50
 21
9
  0
LINE
  8
0
 10
-50
 20
9
 11
-50
 21
-50
  0
LINE
  8
0
 10
-50
 20
-50
 11
50
 21
-50
  0
LINE
  8
0
 10
50
 20
-50
 11
50
 21
-44.9
  0
LINE
  8
0
 10
7.57295
 20
39.1468
 11
6.07295
 21
40.2366
  0
LINE
  8
0
 10
6.07295
 20
40.2366
 11
5.5
 21
42
  0
LINE
  8
0
 10
5.5
 20
42
 11
6.07295
 21
43.7634
  0
LINE
  8
0
 10
6.07295
 20
43.7634
 11
7.57295
 21
44.8532
  0
LINE
  8
0
 10
7.57295
 20
44.8532
 11
9.42706
 21
44.8532
  0
LINE
  8
0
 10
9.42706
 20
44.8532
 11
10.9271
 21
43.7634
  0
LINE
  8
0
 10
10.9271
 20
43.7634
 11
11.5
 21
42
  0
LINE
  8
0
 10
11.5
 20
42
 11
10.9271
 21
40.2366
  0
LINE
  8
0
 10
10.9271
 20
40.2366
 11
9.42706
 21
39.1468
  0
LINE
  8
0
 10
9.42706
 20
39.1468
 11
7.57295
 21
39.1468
  0
LINE
  8
0
 10
30.5729
 20
39.1468
 11
29.0729
 21
40.2366
  0
LINE
  8
0
 10
29.0729
 20
40.2366
 11
28.5
 21
42
  0
LINE
  8
0
 10
28.5
 20
42
 11
29.0729
 21
43.7634
  0
LINE
  8
0
 10
29.0729
 20
43.7634
 11
30.5729
 21
44.8532
  0
LINE
  8
0
 10
30.5729
 20
44.8532
 11
32.427
 21
44.8532
  0
LINE
  8
0
 10
32.427
 20
44.8532
 11
33.927
 21
43.7634
  0
LINE
  8
0
 10
33.927
 20
43.7634
 11
34.5
 21
42
  0
LINE
  8
0
 10
34.5
 20
42
 11
33.927
 21
40.2366
  0
LINE
  8
0
 10
33.927
 20
40.2366
 11
32.427
 21
39.1468
  0
LINE
  8
0
 10
32.427
 20
39.1468
 11
30.5729
 21
39.1468
  0
LINE
  8
0
 10
7.57295
 20
-18.8532
 11
6.07295
 21
-17.7634
  0
LINE
  8
0
 10
6.07295
 20
-17.7634
 11
5.5
 21
-16
  0
LINE
  8
0
 10
5.5
 20
-16
 11
6.07295
 21
-14.2366
  0
LINE
  8
0
 10
6.07295
 20
-14.2366
 11
7.57295
 21
-13.1468
  0
LINE
  8
0
 10
7.57295
 20
-13.1468
 11
9.42706
 21
-13.1468
  0
LINE
  8
0
 10
9.42706
 20
-13.1468
 11
10.9271
 21
-14.2366
  0
LINE
  8
0
 10
10.9271
 20
-14.2366
 11
11.5
 21
-16
  0
LINE
  8
0
 10
11.5
 20
-16
 11
10.9271
 21
-17.7634
  0
LINE
  8
0
 10
10.9271
 20
-17.7634
 11
9.42706
 21
-18.8532
  0
LINE
  8
0
 10
9.42706
 20
-18.8532
 11
7.57295
 21
-18.8532
  0
LINE
  8
0
 10
30.5729
 20
-18.8532
 11
29.0729
 21
-17.7634
  0
LINE
  8
0
 10
29.0729
 20
-17.7634
 11
28.5
 21
-16
  0
LINE
  8
0
 10
28.5
 20
-16
 11
29.0729
 21
-14.2366
  0
LINE
  8
0
 10
29.0729
 20
-14.2366
 11
30.5729
 21
-13.1468
  0
LINE
  8
0
 10
30.5729
 20
-13.1468
 11
32.427
 21
-13.1468
  0
LINE
  8
0
 10
32.427
 20
-13.1468
 11
33.927
 21
-14.2366
  0
LINE
  8
0
 10
33.927
 20
-14.2366
 11
34.5
 21
-16
  0
LINE
  8
0
 10
34.5
 20
-16
 11
33.927
 21
-17.7634
  0
LINE
  8
0
 10
33.927
 20
-17.7634
 11
32.427
 21
-18.8532
  0
LINE
  8
0
 10
32.427
 20
-18.8532
 11
30.5729
 21
-18.8532
  0
LINE
  8
0
 10
29.0729
 20
-37.8532
 11
27.5729
 21
-36.7634
  0
LINE
  8
0
 10
27.5729
 20
-36.7634
 11
27
 21
-35
  0
LINE
  8
0
 10
27
 20
-35
 11
27.5729
 21
-33.2366
  0
LINE
  8
0
 10
27.5729
 20
-33.2366
 11
29.0729
 21
-32.1468
  0
LINE
  8
0
 10
29.0729
 20
-32.1468
 11
30.927
 21
-32.1468
  0
LINE
  8
0
 10
30.927
 20
-32.1468
 11
32.427
 21
-33.2366
  0
LINE
  8
0
 10
32.427
 20
-33.2366
 11
33
 21
-35
  0
LINE
  8
0
 10
33
 20
-35
 11
32.427
 21
-36.7634
  0
LINE
  8
0
 10
32.427
 20
-36.7634
 11
30.927
 21
-37.8532
  0
LINE
  8
0
 10
30.927
 20
-37.8532
 11
29.0729
 21
-37.8532
  0
LINE
  8
0
 10
-17.427
 20
-41.3532
 11
-18.927
 21
-40.2634
  0
LINE
  8
0
 10
-18.927
 20
-40.2634
 11
-19.5
 21
-38.5
  0
LINE
  8
0
 10
-19.5
 20
-38.5
 11
-18.927
 21
-36.7366
  0
LINE
  8
0
 10
-18.927
 20
-36.7366
 11
-17.427
 21
-35.6468
  0
LINE
  8
0
 10
-17.427
 20
-35.6468
 11
-15.5729
 21
-35.6468
  0
LINE
  8
0
 10
-15.5729
 20
-35.6468
 11
-14.0729
 21
-36.7366
  0
LINE
  8
0
 10
-14.0729
 20
-36.7366
 11
-13.5
 21
-38.5
  0
LINE
  8
0
 10
-13.5
 20
-38.5
 11
-14.0729
 21
-40.2634
  0
LINE
  8
0
 10
-14.0729
 20
-40.2634
 11
-15.5729
 21
-41.3532
  0
LINE
  8
0
 10
-15.5729
 20
-41.3532
 11
-17.427
 21
-41.3532
  0
LINE
  8
0
 10
5.57294
 20
-41.3532
 11
4.07294
 21
-40.2634
  0
LINE
  8
0
 10
4.07294
 20
-40.2634
 11
3.5
 21
-38.5
  0
LINE
  8
0
 10
3.5
 20
-38.5
 11
4.07294
 21
-36.7366
  0
LINE
  8
0
 10
4.07294
 20
-36.7366
 11
5.57294
 21
-35.6468
  0
LINE
  8
0
 10
5.57294
 20
-35.6468
 11
7.42705
 21
-35.6468
  0
LINE
  8
0
 10
7.42705
 20
-35.6468
 11
8.92705
 21
-36.7366
  0
LINE
  8
0
 10
8.92705
 20
-36.7366
 11
9.5
 21
-38.5
  0
LINE
  8
0
 10
9.5
 20
-38.5
 11
8.92705
 21
-40.2634
  0
LINE
  8
0
 10
8.92705
 20
-40.2634
 11
7.42705
 21
-41.3532
  0
LINE
  8
0
 10
7.42705
 20
-41.3532
 11
5.57294
 21
-41.3532
  0
LINE
  8
0
 10
-35.9
 20
36
 11
-30.1
 21
36
  0
LINE
  8
0
 10
-30.1
 20
36
 11
-30.1
 21
30
  0
LINE
  8
0
 10
-30.1
 20
30
 11
-15.5
 21
30
  0
LINE
  8
0
 10
-15.5
 20
30
 11
-15.5
 21
50
  0
LINE
  8
0
 10
-15.5
 20
50
 11
-20.5
 21
50
  0
LINE
  8
0
 10
-20.5
 20
50
 11
-20.5
 21
45
  0
LINE
  8
0
 10
-20.5
 20
45
 11
-45.5
 21
45
  0
LINE
  8
0
 10
-45.5
 20
45
 11
-45.5
 21
50
  0
LINE
  8
0
 10
-45.5
 20
50
 11
-50.5
 21
50
  0
LINE
  8
0
 10
-50.5
 20
50
 11
-50.5
 21
30
  0
LINE
  8
0
 10
-50.5
 20
30
 11
-35.9
 21
30
  0
LINE
  8
0
 10
-35.9
 20
30
 11
-35.9
 21
36
  0
LINE
  8
0
 10
-35.9
 20
15.5
 11
-30.1
 21
15.5
  0
LINE
  8
0
 10
-30.1
 20
15.5
 11
-30.1
 21
9.5
  0
LINE
  8
0
 10
-30.1
 20
9.5
 11
-15.5
 21
9.5
  0
LINE
  8
0
 10
-15.5
 20
9.5
 11
-15.5
 21
29.5
  0
LINE
  8
0
 10
-15.5
 20
29.5
 11
-20.5
 21
29.5
  0
LINE
  8
0
 10
-20.5
 20
29.5
 11
-20.5
 21
24.5
  0
LINE
  8
0
 10
-20.5
 20
24.5
 11
-45.5
 21
24.5
  0
LINE
  8
0
 10
-45.5
 20
24.5
 11
-45.5
 21
29.5
  0
LINE
  8
0
 10
-45.5
 20
29.5
 11
-50.5
 21
29.5
  0
LINE
  8
0
 10
-50.5
 20
29.5
 11
-50.5
 21
9.5
  0
LINE
  8
0
 10
-50.5
 20
9.5
 11
-35.9
 21
9.5
  0
LINE
  8
0
 10
-35.9
 20
9.5
 11
-35.9
 21
15.5
  0
ENDSEC
  0
SECTION
  2
OBJECTS
  0
DICTIONARY
  0
ENDSEC
  0
EOF
