  0
SECTION
  2
BLOCKS
  0
ENDSEC
  0
SECTION
  2
ENTITIES
  0
LINE
  8
0
 10
150.5
 20
558.1
 11
144.5
 21
558.1
  0
LINE
  8
0
 10
144.5
 20
558.1
 11
144.5
 21
563.9
  0
LINE
  8
0
 10
144.5
 20
563.9
 11
150.5
 21
563.9
  0
LINE
  8
0
 10
150.5
 20
563.9
 11
150.5
 21
570.1
  0
LINE
  8
0
 10
150.5
 20
570.1
 11
144.5
 21
570.1
  0
LINE
  8
0
 10
144.5
 20
570.1
 11
144.5
 21
575.9
  0
LINE
  8
0
 10
144.5
 20
575.9
 11
150.5
 21
575.9
  0
LINE
  8
0
 10
150.5
 20
575.9
 11
150.5
 21
583
  0
LINE
  8
0
 10
150.5
 20
583
 11
138.5
 21
583
  0
LINE
  8
0
 10
138.5
 20
583
 11
138.5
 21
653
  0
LINE
  8
0
 10
138.5
 20
653
 11
86.75
 21
653
  0
LINE
  8
0
 10
86.75
 20
653
 11
86.75
 21
612
  0
LINE
  8
0
 10
86.75
 20
612
 11
50.5
 21
612
  0
LINE
  8
0
 10
50.5
 20
612
 11
50.5
 21
553
  0
LINE
  8
0
 10
50.5
 20
553
 11
150.5
 21
553
  0
LINE
  8
0
 10
150.5
 20
553
 11
150.5
 21
558.1
  0
LINE
  8
0
 10
131.073
 20
642.147
 11
129.573
 21
643.237
  0
LINE
  8
0
 10
129.573
 20
643.237
 11
129
 21
645
  0
LINE
  8
0
 10
129
 20
645
 11
129.573
 21
646.763
  0
LINE
  8
0
 10
129.573
 20
646.763
 11
131.073
 21
647.853
  0
LINE
  8
0
 10
131.073
 20
647.853
 11
132.927
 21
647.853
  0
LINE
  8
0
 10
132.927
 20
647.853
 11
134.427
 21
646.763
  0
LINE
  8
0
 10
134.427
 20
646.763
 11
135
 21
645
  0
LINE
  8
0
 10
135
 20
645
 11
134.427
 21
643.237
  0
LINE
  8
0
 10
134.427
 20
643.237
 11
132.927
 21
642.147
  0
LINE
  8
0
 10
132.927
 20
642.147
 11
131.073
 21
642.147
  0
LINE
  8
0
 10
108.073
 20
642.147
 11
106.573
 21
643.237
  0
LINE
  8
0
 10
106.573
 20
643.237
 11
106
 21
645
  0
LINE
  8
0
 10
106
 20
645
 11
106.573
 21
646.763
  0
LINE
  8
0
 10
106.573
 20
646.763
 11
108.073
 21
647.853
  0
LINE
  8
0
 10
108.073
 20
647.853
 11
109.927
 21
647.853
  0
LINE
  8
0
 10
109.927
 20
647.853
 11
111.427
 21
646.763
  0
LINE
  8
0
 10
111.427
 20
646.763
 11
112
 21
645
  0
LINE
  8
0
 10
112
 20
645
 11
111.427
 21
643.237
  0
LINE
  8
0
 10
111.427
 20
643.237
 11
109.927
 21
642.147
  0
LINE
  8
0
 10
109.927
 20
642.147
 11
108.073
 21
642.147
  0
LINE
  8
0
 10
131.073
 20
584.147
 11
129.573
 21
585.237
  0
LINE
  8
0
 10
129.573
 20
585.237
 11
129
 21
587
  0
LINE
  8
0
 10
129
 20
587
 11
129.573
 21
588.763
  0
LINE
  8
0
 10
129.573
 20
588.763
 11
131.073
 21
589.853
  0
LINE
  8
0
 10
131.073
 20
589.853
 11
132.927
 21
589.853
  0
LINE
  8
0
 10
132.927
 20
589.853
 11
134.427
 21
588.763
  0
LINE
  8
0
 10
134.427
 20
588.763
 11
135
 21
587
  0
LINE
  8
0
 10
135
 20
587
 11
134.427
 21
585.237
  0
LINE
  8
0
 10
134.427
 20
585.237
 11
132.927
 21
584.147
  0
LINE
  8
0
 10
132.927
 20
584.147
 11
131.073
 21
584.147
  0
LINE
  8
0
 10
108.073
 20
584.147
 11
106.573
 21
585.237
  0
LINE
  8
0
 10
106.573
 20
585.237
 11
106
 21
587
  0
LINE
  8
0
 10
106
 20
587
 11
106.573
 21
588.763
  0
LINE
  8
0
 10
106.573
 20
588.763
 11
108.073
 21
589.853
  0
LINE
  8
0
 10
108.073
 20
589.853
 11
109.927
 21
589.853
  0
LINE
  8
0
 10
109.927
 20
589.853
 11
111.427
 21
588.763
  0
LINE
  8
0
 10
111.427
 20
588.763
 11
112
 21
587
  0
LINE
  8
0
 10
112
 20
587
 11
111.427
 21
585.237
  0
LINE
  8
0
 10
111.427
 20
585.237
 11
109.927
 21
584.147
  0
LINE
  8
0
 10
109.927
 20
584.147
 11
108.073
 21
584.147
  0
LINE
  8
0
 10
129.573
 20
565.147
 11
128.073
 21
566.237
  0
LINE
  8
0
 10
128.073
 20
566.237
 11
127.5
 21
568
  0
LINE
  8
0
 10
127.5
 20
568
 11
128.073
 21
569.763
  0
LINE
  8
0
 10
128.073
 20
569.763
 11
129.573
 21
570.853
  0
LINE
  8
0
 10
129.573
 20
570.853
 11
131.427
 21
570.853
  0
LINE
  8
0
 10
131.427
 20
570.853
 11
132.927
 21
569.763
  0
LINE
  8
0
 10
132.927
 20
569.763
 11
133.5
 21
568
  0
LINE
  8
0
 10
133.5
 20
568
 11
132.927
 21
566.237
  0
LINE
  8
0
 10
132.927
 20
566.237
 11
131.427
 21
565.147
  0
LINE
  8
0
 10
131.427
 20
565.147
 11
129.573
 21
565.147
  0
LINE
  8
0
 10
83.073
 20
561.647
 11
81.573
 21
562.737
  0
LINE
  8
0
 10
81.573
 20
562.737
 11
81
 21
564.5
  0
LINE
  8
0
 10
81
 20
564.5
 11
81.573
 21
566.263
  0
LINE
  8
0
 10
81.573
 20
566.263
 11
83.073
 21
567.353
  0
LINE
  8
0
 10
83.073
 20
567.353
 11
84.9271
 21
567.353
  0
LINE
  8
0
 10
84.9271
 20
567.353
 11
86.4271
 21
566.263
  0
LINE
  8
0
 10
86.4271
 20
566.263
 11
87
 21
564.5
  0
LINE
  8
0
 10
87
 20
564.5
 11
86.4271
 21
562.737
  0
LINE
  8
0
 10
86.4271
 20
562.737
 11
84.9271
 21
561.647
  0
LINE
  8
0
 10
84.9271
 20
561.647
 11
83.073
 21
561.647
  0
LINE
  8
0
 10
106.073
 20
561.647
 11
104.573
 21
562.737
  0
LINE
  8
0
 10
104.573
 20
562.737
 11
104
 21
564.5
  0
LINE
  8
0
 10
104
 20
564.5
 11
104.573
 21
566.263
  0
LINE
  8
0
 10
104.573
 20
566.263
 11
106.073
 21
567.353
  0
LINE
  8
0
 10
106.073
 20
567.353
 11
107.927
 21
567.353
  0
LINE
  8
0
 10
107.927
 20
567.353
 11
109.427
 21
566.263
  0
LINE
  8
0
 10
109.427
 20
566.263
 11
110
 21
564.5
  0
LINE
  8
0
 10
110
 20
564.5
 11
109.427
 21
562.737
  0
LINE
  8
0
 10
109.427
 20
562.737
 11
107.927
 21
561.647
  0
LINE
  8
0
 10
107.927
 20
561.647
 11
106.073
 21
561.647
  0
LINE
  8
0
 10
65.6
 20
639
 11
71.4
 21
639
  0
LINE
  8
0
 10
71.4
 20
639
 11
71.4
 21
633
  0
LINE
  8
0
 10
71.4
 20
633
 11
86
 21
633
  0
LINE
  8
0
 10
86
 20
633
 11
86
 21
653
  0
LINE
  8
0
 10
86
 20
653
 11
81
 21
653
  0
LINE
  8
0
 10
81
 20
653
 11
81
 21
648
  0
LINE
  8
0
 10
81
 20
648
 11
56
 21
648
  0
LINE
  8
0
 10
56
 20
648
 11
56
 21
653
  0
LINE
  8
0
 10
56
 20
653
 11
51
 21
653
  0
LINE
  8
0
 10
51
 20
653
 11
51
 21
633
  0
LINE
  8
0
 10
51
 20
633
 11
65.6
 21
633
  0
LINE
  8
0
 10
65.6
 20
633
 11
65.6
 21
639
  0
LINE
  8
0
 10
266.6
 20
639
 11
272.4
 21
639
  0
LINE
  8
0
 10
272.4
 20
639
 11
272.4
 21
633
  0
LINE
  8
0
 10
272.4
 20
633
 11
287
 21
633
  0
LINE
  8
0
 10
287
 20
633
 11
287
 21
653
  0
LINE
  8
0
 10
287
 20
653
 11
282
 21
653
  0
LINE
  8
0
 10
282
 20
653
 11
282
 21
648
  0
LINE
  8
0
 10
282
 20
648
 11
257
 21
648
  0
LINE
  8
0
 10
257
 20
648
 11
257
 21
653
  0
LINE
  8
0
 10
257
 20
653
 11
252
 21
653
  0
LINE
  8
0
 10
252
 20
653
 11
252
 21
633
  0
LINE
  8
0
 10
252
 20
633
 11
266.6
 21
633
  0
LINE
  8
0
 10
266.6
 20
633
 11
266.6
 21
639
  0
LINE
  8
0
 10
50
 20
558.1
 11
44
 21
558.1
  0
LINE
  8
0
 10
44
 20
558.1
 11
44
 21
563.9
  0
LINE
  8
0
 10
44
 20
563.9
 11
50
 21
563.9
  0
LINE
  8
0
 10
50
 20
563.9
 11
50
 21
570.1
  0
LINE
  8
0
 10
50
 20
570.1
 11
44
 21
570.1
  0
LINE
  8
0
 10
44
 20
570.1
 11
44
 21
575.9
  0
LINE
  8
0
 10
44
 20
575.9
 11
50
 21
575.9
  0
LINE
  8
0
 10
50
 20
575.9
 11
50
 21
583
  0
LINE
  8
0
 10
50
 20
583
 11
38
 21
583
  0
LINE
  8
0
 10
38
 20
583
 11
38
 21
653
  0
LINE
  8
0
 10
38
 20
653
 11
-13.75
 21
653
  0
LINE
  8
0
 10
-13.75
 20
653
 11
-13.75
 21
612
  0
LINE
  8
0
 10
-13.75
 20
612
 11
-50
 21
612
  0
LINE
  8
0
 10
-50
 20
612
 11
-50
 21
553
  0
LINE
  8
0
 10
-50
 20
553
 11
50
 21
553
  0
LINE
  8
0
 10
50
 20
553
 11
50
 21
558.1
  0
LINE
  8
0
 10
7.57295
 20
642.147
 11
6.07295
 21
643.237
  0
LINE
  8
0
 10
6.07295
 20
643.237
 11
5.5
 21
645
  0
LINE
  8
0
 10
5.5
 20
645
 11
6.07295
 21
646.763
  0
LINE
  8
0
 10
6.07295
 20
646.763
 11
7.57295
 21
647.853
  0
LINE
  8
0
 10
7.57295
 20
647.853
 11
9.42706
 21
647.853
  0
LINE
  8
0
 10
9.42706
 20
647.853
 11
10.9271
 21
646.763
  0
LINE
  8
0
 10
10.9271
 20
646.763
 11
11.5
 21
645
  0
LINE
  8
0
 10
11.5
 20
645
 11
10.9271
 21
643.237
  0
LINE
  8
0
 10
10.9271
 20
643.237
 11
9.42706
 21
642.147
  0
LINE
  8
0
 10
9.42706
 20
642.147
 11
7.57295
 21
642.147
  0
LINE
  8
0
 10
30.5729
 20
642.147
 11
29.0729
 21
643.237
  0
LINE
  8
0
 10
29.0729
 20
643.237
 11
28.5
 21
645
  0
LINE
  8
0
 10
28.5
 20
645
 11
29.0729
 21
646.763
  0
LINE
  8
0
 10
29.0729
 20
646.763
 11
30.5729
 21
647.853
  0
LINE
  8
0
 10
30.5729
 20
647.853
 11
32.427
 21
647.853
  0
LINE
  8
0
 10
32.427
 20
647.853
 11
33.927
 21
646.763
  0
LINE
  8
0
 10
33.927
 20
646.763
 11
34.5
 21
645
  0
LINE
  8
0
 10
34.5
 20
645
 11
33.927
 21
643.237
  0
LINE
  8
0
 10
33.927
 20
643.237
 11
32.427
 21
642.147
  0
LINE
  8
0
 10
32.427
 20
642.147
 11
30.5729
 21
642.147
  0
LINE
  8
0
 10
30.5729
 20
584.147
 11
29.0729
 21
585.237
  0
LINE
  8
0
 10
29.0729
 20
585.237
 11
28.5
 21
587
  0
LINE
  8
0
 10
28.5
 20
587
 11
29.0729
 21
588.763
  0
LINE
  8
0
 10
29.0729
 20
588.763
 11
30.5729
 21
589.853
  0
LINE
  8
0
 10
30.5729
 20
589.853
 11
32.427
 21
589.853
  0
LINE
  8
0
 10
32.427
 20
589.853
 11
33.927
 21
588.763
  0
LINE
  8
0
 10
33.927
 20
588.763
 11
34.5
 21
587
  0
LINE
  8
0
 10
34.5
 20
587
 11
33.927
 21
585.237
  0
LINE
  8
0
 10
33.927
 20
585.237
 11
32.427
 21
584.147
  0
LINE
  8
0
 10
32.427
 20
584.147
 11
30.5729
 21
584.147
  0
LINE
  8
0
 10
7.57295
 20
584.147
 11
6.07295
 21
585.237
  0
LINE
  8
0
 10
6.07295
 20
585.237
 11
5.5
 21
587
  0
LINE
  8
0
 10
5.5
 20
587
 11
6.07295
 21
588.763
  0
LINE
  8
0
 10
6.07295
 20
588.763
 11
7.57295
 21
589.853
  0
LINE
  8
0
 10
7.57295
 20
589.853
 11
9.42706
 21
589.853
  0
LINE
  8
0
 10
9.42706
 20
589.853
 11
10.9271
 21
588.763
  0
LINE
  8
0
 10
10.9271
 20
588.763
 11
11.5
 21
587
  0
LINE
  8
0
 10
11.5
 20
587
 11
10.9271
 21
585.237
  0
LINE
  8
0
 10
10.9271
 20
585.237
 11
9.42706
 21
584.147
  0
LINE
  8
0
 10
9.42706
 20
584.147
 11
7.57295
 21
584.147
  0
LINE
  8
0
 10
29.0729
 20
565.147
 11
27.5729
 21
566.237
  0
LINE
  8
0
 10
27.5729
 20
566.237
 11
27
 21
568
  0
LINE
  8
0
 10
27
 20
568
 11
27.5729
 21
569.763
  0
LINE
  8
0
 10
27.5729
 20
569.763
 11
29.0729
 21
570.853
  0
LINE
  8
0
 10
29.0729
 20
570.853
 11
30.927
 21
570.853
  0
LINE
  8
0
 10
30.927
 20
570.853
 11
32.427
 21
569.763
  0
LINE
  8
0
 10
32.427
 20
569.763
 11
33
 21
568
  0
LINE
  8
0
 10
33
 20
568
 11
32.427
 21
566.237
  0
LINE
  8
0
 10
32.427
 20
566.237
 11
30.927
 21
565.147
  0
LINE
  8
0
 10
30.927
 20
565.147
 11
29.0729
 21
565.147
  0
LINE
  8
0
 10
-17.427
 20
561.647
 11
-18.927
 21
562.737
  0
LINE
  8
0
 10
-18.927
 20
562.737
 11
-19.5
 21
564.5
  0
LINE
  8
0
 10
-19.5
 20
564.5
 11
-18.927
 21
566.263
  0
LINE
  8
0
 10
-18.927
 20
566.263
 11
-17.427
 21
567.353
  0
LINE
  8
0
 10
-17.427
 20
567.353
 11
-15.5729
 21
567.353
  0
LINE
  8
0
 10
-15.5729
 20
567.353
 11
-14.0729
 21
566.263
  0
LINE
  8
0
 10
-14.0729
 20
566.263
 11
-13.5
 21
564.5
  0
LINE
  8
0
 10
-13.5
 20
564.5
 11
-14.0729
 21
562.737
  0
LINE
  8
0
 10
-14.0729
 20
562.737
 11
-15.5729
 21
561.647
  0
LINE
  8
0
 10
-15.5729
 20
561.647
 11
-17.427
 21
561.647
  0
LINE
  8
0
 10
5.57294
 20
561.647
 11
4.07294
 21
562.737
  0
LINE
  8
0
 10
4.07294
 20
562.737
 11
3.5
 21
564.5
  0
LINE
  8
0
 10
3.5
 20
564.5
 11
4.07294
 21
566.263
  0
LINE
  8
0
 10
4.07294
 20
566.263
 11
5.57294
 21
567.353
  0
LINE
  8
0
 10
5.57294
 20
567.353
 11
7.42705
 21
567.353
  0
LINE
  8
0
 10
7.42705
 20
567.353
 11
8.92705
 21
566.263
  0
LINE
  8
0
 10
8.92705
 20
566.263
 11
9.5
 21
564.5
  0
LINE
  8
0
 10
9.5
 20
564.5
 11
8.92705
 21
562.737
  0
LINE
  8
0
 10
8.92705
 20
562.737
 11
7.42705
 21
561.647
  0
LINE
  8
0
 10
7.42705
 20
561.647
 11
5.57294
 21
561.647
  0
LINE
  8
0
 10
166.1
 20
639
 11
171.9
 21
639
  0
LINE
  8
0
 10
171.9
 20
639
 11
171.9
 21
633
  0
LINE
  8
0
 10
171.9
 20
633
 11
186.5
 21
633
  0
LINE
  8
0
 10
186.5
 20
633
 11
186.5
 21
653
  0
LINE
  8
0
 10
186.5
 20
653
 11
181.5
 21
653
  0
LINE
  8
0
 10
181.5
 20
653
 11
181.5
 21
648
  0
LINE
  8
0
 10
181.5
 20
648
 11
156.5
 21
648
  0
LINE
  8
0
 10
156.5
 20
648
 11
156.5
 21
653
  0
LINE
  8
0
 10
156.5
 20
653
 11
151.5
 21
653
  0
LINE
  8
0
 10
151.5
 20
653
 11
151.5
 21
633
  0
LINE
  8
0
 10
151.5
 20
633
 11
166.1
 21
633
  0
LINE
  8
0
 10
166.1
 20
633
 11
166.1
 21
639
  0
LINE
  8
0
 10
251
 20
558.1
 11
245
 21
558.1
  0
LINE
  8
0
 10
245
 20
558.1
 11
245
 21
563.9
  0
LINE
  8
0
 10
245
 20
563.9
 11
251
 21
563.9
  0
LINE
  8
0
 10
251
 20
563.9
 11
251
 21
570.1
  0
LINE
  8
0
 10
251
 20
570.1
 11
245
 21
570.1
  0
LINE
  8
0
 10
245
 20
570.1
 11
245
 21
575.9
  0
LINE
  8
0
 10
245
 20
575.9
 11
251
 21
575.9
  0
LINE
  8
0
 10
251
 20
575.9
 11
251
 21
583
  0
LINE
  8
0
 10
251
 20
583
 11
239
 21
583
  0
LINE
  8
0
 10
239
 20
583
 11
239
 21
653
  0
LINE
  8
0
 10
239
 20
653
 11
187.25
 21
653
  0
LINE
  8
0
 10
187.25
 20
653
 11
187.25
 21
612
  0
LINE
  8
0
 10
187.25
 20
612
 11
151
 21
612
  0
LINE
  8
0
 10
151
 20
612
 11
151
 21
553
  0
LINE
  8
0
 10
151
 20
553
 11
251
 21
553
  0
LINE
  8
0
 10
251
 20
553
 11
251
 21
558.1
  0
LINE
  8
0
 10
208.573
 20
642.147
 11
207.073
 21
643.237
  0
LINE
  8
0
 10
207.073
 20
643.237
 11
206.5
 21
645
  0
LINE
  8
0
 10
206.5
 20
645
 11
207.073
 21
646.763
  0
LINE
  8
0
 10
207.073
 20
646.763
 11
208.573
 21
647.853
  0
LINE
  8
0
 10
208.573
 20
647.853
 11
210.427
 21
647.853
  0
LINE
  8
0
 10
210.427
 20
647.853
 11
211.927
 21
646.763
  0
LINE
  8
0
 10
211.927
 20
646.763
 11
212.5
 21
645
  0
LINE
  8
0
 10
212.5
 20
645
 11
211.927
 21
643.237
  0
LINE
  8
0
 10
211.927
 20
643.237
 11
210.427
 21
642.147
  0
LINE
  8
0
 10
210.427
 20
642.147
 11
208.573
 21
642.147
  0
LINE
  8
0
 10
231.573
 20
642.147
 11
230.073
 21
643.237
  0
LINE
  8
0
 10
230.073
 20
643.237
 11
229.5
 21
645
  0
LINE
  8
0
 10
229.5
 20
645
 11
230.073
 21
646.763
  0
LINE
  8
0
 10
230.073
 20
646.763
 11
231.573
 21
647.853
  0
LINE
  8
0
 10
231.573
 20
647.853
 11
233.427
 21
647.853
  0
LINE
  8
0
 10
233.427
 20
647.853
 11
234.927
 21
646.763
  0
LINE
  8
0
 10
234.927
 20
646.763
 11
235.5
 21
645
  0
LINE
  8
0
 10
235.5
 20
645
 11
234.927
 21
643.237
  0
LINE
  8
0
 10
234.927
 20
643.237
 11
233.427
 21
642.147
  0
LINE
  8
0
 10
233.427
 20
642.147
 11
231.573
 21
642.147
  0
LINE
  8
0
 10
231.573
 20
584.147
 11
230.073
 21
585.237
  0
LINE
  8
0
 10
230.073
 20
585.237
 11
229.5
 21
587
  0
LINE
  8
0
 10
229.5
 20
587
 11
230.073
 21
588.763
  0
LINE
  8
0
 10
230.073
 20
588.763
 11
231.573
 21
589.853
  0
LINE
  8
0
 10
231.573
 20
589.853
 11
233.427
 21
589.853
  0
LINE
  8
0
 10
233.427
 20
589.853
 11
234.927
 21
588.763
  0
LINE
  8
0
 10
234.927
 20
588.763
 11
235.5
 21
587
  0
LINE
  8
0
 10
235.5
 20
587
 11
234.927
 21
585.237
  0
LINE
  8
0
 10
234.927
 20
585.237
 11
233.427
 21
584.147
  0
LINE
  8
0
 10
233.427
 20
584.147
 11
231.573
 21
584.147
  0
LINE
  8
0
 10
208.573
 20
584.147
 11
207.073
 21
585.237
  0
LINE
  8
0
 10
207.073
 20
585.237
 11
206.5
 21
587
  0
LINE
  8
0
 10
206.5
 20
587
 11
207.073
 21
588.763
  0
LINE
  8
0
 10
207.073
 20
588.763
 11
208.573
 21
589.853
  0
LINE
  8
0
 10
208.573
 20
589.853
 11
210.427
 21
589.853
  0
LINE
  8
0
 10
210.427
 20
589.853
 11
211.927
 21
588.763
  0
LINE
  8
0
 10
211.927
 20
588.763
 11
212.5
 21
587
  0
LINE
  8
0
 10
212.5
 20
587
 11
211.927
 21
585.237
  0
LINE
  8
0
 10
211.927
 20
585.237
 11
210.427
 21
584.147
  0
LINE
  8
0
 10
210.427
 20
584.147
 11
208.573
 21
584.147
  0
LINE
  8
0
 10
230.073
 20
565.147
 11
228.573
 21
566.237
  0
LINE
  8
0
 10
228.573
 20
566.237
 11
228
 21
568
  0
LINE
  8
0
 10
228
 20
568
 11
228.573
 21
569.763
  0
LINE
  8
0
 10
228.573
 20
569.763
 11
230.073
 21
570.853
  0
LINE
  8
0
 10
230.073
 20
570.853
 11
231.927
 21
570.853
  0
LINE
  8
0
 10
231.927
 20
570.853
 11
233.427
 21
569.763
  0
LINE
  8
0
 10
233.427
 20
569.763
 11
234
 21
568
  0
LINE
  8
0
 10
234
 20
568
 11
233.427
 21
566.237
  0
LINE
  8
0
 10
233.427
 20
566.237
 11
231.927
 21
565.147
  0
LINE
  8
0
 10
231.927
 20
565.147
 11
230.073
 21
565.147
  0
LINE
  8
0
 10
206.573
 20
561.647
 11
205.073
 21
562.737
  0
LINE
  8
0
 10
205.073
 20
562.737
 11
204.5
 21
564.5
  0
LINE
  8
0
 10
204.5
 20
564.5
 11
205.073
 21
566.263
  0
LINE
  8
0
 10
205.073
 20
566.263
 11
206.573
 21
567.353
  0
LINE
  8
0
 10
206.573
 20
567.353
 11
208.427
 21
567.353
  0
LINE
  8
0
 10
208.427
 20
567.353
 11
209.927
 21
566.263
  0
LINE
  8
0
 10
209.927
 20
566.263
 11
210.5
 21
564.5
  0
LINE
  8
0
 10
210.5
 20
564.5
 11
209.927
 21
562.737
  0
LINE
  8
0
 10
209.927
 20
562.737
 11
208.427
 21
561.647
  0
LINE
  8
0
 10
208.427
 20
561.647
 11
206.573
 21
561.647
  0
LINE
  8
0
 10
183.573
 20
561.647
 11
182.073
 21
562.737
  0
LINE
  8
0
 10
182.073
 20
562.737
 11
181.5
 21
564.5
  0
LINE
  8
0
 10
181.5
 20
564.5
 11
182.073
 21
566.263
  0
LINE
  8
0
 10
182.073
 20
566.263
 11
183.573
 21
567.353
  0
LINE
  8
0
 10
183.573
 20
567.353
 11
185.427
 21
567.353
  0
LINE
  8
0
 10
185.427
 20
567.353
 11
186.927
 21
566.263
  0
LINE
  8
0
 10
186.927
 20
566.263
 11
187.5
 21
564.5
  0
LINE
  8
0
 10
187.5
 20
564.5
 11
186.927
 21
562.737
  0
LINE
  8
0
 10
186.927
 20
562.737
 11
185.427
 21
561.647
  0
LINE
  8
0
 10
185.427
 20
561.647
 11
183.573
 21
561.647
  0
LINE
  8
0
 10
351.5
 20
558.1
 11
345.5
 21
558.1
  0
LINE
  8
0
 10
345.5
 20
558.1
 11
345.5
 21
563.9
  0
LINE
  8
0
 10
345.5
 20
563.9
 11
351.5
 21
563.9
  0
LINE
  8
0
 10
351.5
 20
563.9
 11
351.5
 21
570.1
  0
LINE
  8
0
 10
351.5
 20
570.1
 11
345.5
 21
570.1
  0
LINE
  8
0
 10
345.5
 20
570.1
 11
345.5
 21
575.9
  0
LINE
  8
0
 10
345.5
 20
575.9
 11
351.5
 21
575.9
  0
LINE
  8
0
 10
351.5
 20
575.9
 11
351.5
 21
583
  0
LINE
  8
0
 10
351.5
 20
583
 11
339.5
 21
583
  0
LINE
  8
0
 10
339.5
 20
583
 11
339.5
 21
653
  0
LINE
  8
0
 10
339.5
 20
653
 11
287.75
 21
653
  0
LINE
  8
0
 10
287.75
 20
653
 11
287.75
 21
612
  0
LINE
  8
0
 10
287.75
 20
612
 11
251.5
 21
612
  0
LINE
  8
0
 10
251.5
 20
612
 11
251.5
 21
553
  0
LINE
  8
0
 10
251.5
 20
553
 11
351.5
 21
553
  0
LINE
  8
0
 10
351.5
 20
553
 11
351.5
 21
558.1
  0
LINE
  8
0
 10
332.073
 20
642.147
 11
330.573
 21
643.237
  0
LINE
  8
0
 10
330.573
 20
643.237
 11
330
 21
645
  0
LINE
  8
0
 10
330
 20
645
 11
330.573
 21
646.763
  0
LINE
  8
0
 10
330.573
 20
646.763
 11
332.073
 21
647.853
  0
LINE
  8
0
 10
332.073
 20
647.853
 11
333.927
 21
647.853
  0
LINE
  8
0
 10
333.927
 20
647.853
 11
335.427
 21
646.763
  0
LINE
  8
0
 10
335.427
 20
646.763
 11
336
 21
645
  0
LINE
  8
0
 10
336
 20
645
 11
335.427
 21
643.237
  0
LINE
  8
0
 10
335.427
 20
643.237
 11
333.927
 21
642.147
  0
LINE
  8
0
 10
333.927
 20
642.147
 11
332.073
 21
642.147
  0
LINE
  8
0
 10
309.073
 20
642.147
 11
307.573
 21
643.237
  0
LINE
  8
0
 10
307.573
 20
643.237
 11
307
 21
645
  0
LINE
  8
0
 10
307
 20
645
 11
307.573
 21
646.763
  0
LINE
  8
0
 10
307.573
 20
646.763
 11
309.073
 21
647.853
  0
LINE
  8
0
 10
309.073
 20
647.853
 11
310.927
 21
647.853
  0
LINE
  8
0
 10
310.927
 20
647.853
 11
312.427
 21
646.763
  0
LINE
  8
0
 10
312.427
 20
646.763
 11
313
 21
645
  0
LINE
  8
0
 10
313
 20
645
 11
312.427
 21
643.237
  0
LINE
  8
0
 10
312.427
 20
643.237
 11
310.927
 21
642.147
  0
LINE
  8
0
 10
310.927
 20
642.147
 11
309.073
 21
642.147
  0
LINE
  8
0
 10
309.073
 20
584.147
 11
307.573
 21
585.237
  0
LINE
  8
0
 10
307.573
 20
585.237
 11
307
 21
587
  0
LINE
  8
0
 10
307
 20
587
 11
307.573
 21
588.763
  0
LINE
  8
0
 10
307.573
 20
588.763
 11
309.073
 21
589.853
  0
LINE
  8
0
 10
309.073
 20
589.853
 11
310.927
 21
589.853
  0
LINE
  8
0
 10
310.927
 20
589.853
 11
312.427
 21
588.763
  0
LINE
  8
0
 10
312.427
 20
588.763
 11
313
 21
587
  0
LINE
  8
0
 10
313
 20
587
 11
312.427
 21
585.237
  0
LINE
  8
0
 10
312.427
 20
585.237
 11
310.927
 21
584.147
  0
LINE
  8
0
 10
310.927
 20
584.147
 11
309.073
 21
584.147
  0
LINE
  8
0
 10
332.073
 20
584.147
 11
330.573
 21
585.237
  0
LINE
  8
0
 10
330.573
 20
585.237
 11
330
 21
587
  0
LINE
  8
0
 10
330
 20
587
 11
330.573
 21
588.763
  0
LINE
  8
0
 10
330.573
 20
588.763
 11
332.073
 21
589.853
  0
LINE
  8
0
 10
332.073
 20
589.853
 11
333.927
 21
589.853
  0
LINE
  8
0
 10
333.927
 20
589.853
 11
335.427
 21
588.763
  0
LINE
  8
0
 10
335.427
 20
588.763
 11
336
 21
587
  0
LINE
  8
0
 10
336
 20
587
 11
335.427
 21
585.237
  0
LINE
  8
0
 10
335.427
 20
585.237
 11
333.927
 21
584.147
  0
LINE
  8
0
 10
333.927
 20
584.147
 11
332.073
 21
584.147
  0
LINE
  8
0
 10
330.573
 20
565.147
 11
329.073
 21
566.237
  0
LINE
  8
0
 10
329.073
 20
566.237
 11
328.5
 21
568
  0
LINE
  8
0
 10
328.5
 20
568
 11
329.073
 21
569.763
  0
LINE
  8
0
 10
329.073
 20
569.763
 11
330.573
 21
570.853
  0
LINE
  8
0
 10
330.573
 20
570.853
 11
332.427
 21
570.853
  0
LINE
  8
0
 10
332.427
 20
570.853
 11
333.927
 21
569.763
  0
LINE
  8
0
 10
333.927
 20
569.763
 11
334.5
 21
568
  0
LINE
  8
0
 10
334.5
 20
568
 11
333.927
 21
566.237
  0
LINE
  8
0
 10
333.927
 20
566.237
 11
332.427
 21
565.147
  0
LINE
  8
0
 10
332.427
 20
565.147
 11
330.573
 21
565.147
  0
LINE
  8
0
 10
307.073
 20
561.647
 11
305.573
 21
562.737
  0
LINE
  8
0
 10
305.573
 20
562.737
 11
305
 21
564.5
  0
LINE
  8
0
 10
305
 20
564.5
 11
305.573
 21
566.263
  0
LINE
  8
0
 10
305.573
 20
566.263
 11
307.073
 21
567.353
  0
LINE
  8
0
 10
307.073
 20
567.353
 11
308.927
 21
567.353
  0
LINE
  8
0
 10
308.927
 20
567.353
 11
310.427
 21
566.263
  0
LINE
  8
0
 10
310.427
 20
566.263
 11
311
 21
564.5
  0
LINE
  8
0
 10
311
 20
564.5
 11
310.427
 21
562.737
  0
LINE
  8
0
 10
310.427
 20
562.737
 11
308.927
 21
561.647
  0
LINE
  8
0
 10
308.927
 20
561.647
 11
307.073
 21
561.647
  0
LINE
  8
0
 10
284.073
 20
561.647
 11
282.573
 21
562.737
  0
LINE
  8
0
 10
282.573
 20
562.737
 11
282
 21
564.5
  0
LINE
  8
0
 10
282
 20
564.5
 11
282.573
 21
566.263
  0
LINE
  8
0
 10
282.573
 20
566.263
 11
284.073
 21
567.353
  0
LINE
  8
0
 10
284.073
 20
567.353
 11
285.927
 21
567.353
  0
LINE
  8
0
 10
285.927
 20
567.353
 11
287.427
 21
566.263
  0
LINE
  8
0
 10
287.427
 20
566.263
 11
288
 21
564.5
  0
LINE
  8
0
 10
288
 20
564.5
 11
287.427
 21
562.737
  0
LINE
  8
0
 10
287.427
 20
562.737
 11
285.927
 21
561.647
  0
LINE
  8
0
 10
285.927
 20
561.647
 11
284.073
 21
561.647
  0
LINE
  8
0
 10
-34.9
 20
639
 11
-29.1
 21
639
  0
LINE
  8
0
 10
-29.1
 20
639
 11
-29.1
 21
633
  0
LINE
  8
0
 10
-29.1
 20
633
 11
-14.5
 21
633
  0
LINE
  8
0
 10
-14.5
 20
633
 11
-14.5
 21
653
  0
LINE
  8
0
 10
-14.5
 20
653
 11
-19.5
 21
653
  0
LINE
  8
0
 10
-19.5
 20
653
 11
-19.5
 21
648
  0
LINE
  8
0
 10
-19.5
 20
648
 11
-44.5
 21
648
  0
LINE
  8
0
 10
-44.5
 20
648
 11
-44.5
 21
653
  0
LINE
  8
0
 10
-44.5
 20
653
 11
-49.5
 21
653
  0
LINE
  8
0
 10
-49.5
 20
653
 11
-49.5
 21
633
  0
LINE
  8
0
 10
-49.5
 20
633
 11
-34.9
 21
633
  0
LINE
  8
0
 10
-34.9
 20
633
 11
-34.9
 21
639
  0
LINE
  8
0
 10
65.6
 20
618.5
 11
71.4
 21
618.5
  0
LINE
  8
0
 10
71.4
 20
618.5
 11
71.4
 21
612.5
  0
LINE
  8
0
 10
71.4
 20
612.5
 11
86
 21
612.5
  0
LINE
  8
0
 10
86
 20
612.5
 11
86
 21
632.5
  0
LINE
  8
0
 10
86
 20
632.5
 11
81
 21
632.5
  0
LINE
  8
0
 10
81
 20
632.5
 11
81
 21
627.5
  0
LINE
  8
0
 10
81
 20
627.5
 11
56
 21
627.5
  0
LINE
  8
0
 10
56
 20
627.5
 11
56
 21
632.5
  0
LINE
  8
0
 10
56
 20
632.5
 11
51
 21
632.5
  0
LINE
  8
0
 10
51
 20
632.5
 11
51
 21
612.5
  0
LINE
  8
0
 10
51
 20
612.5
 11
65.6
 21
612.5
  0
LINE
  8
0
 10
65.6
 20
612.5
 11
65.6
 21
618.5
  0
LINE
  8
0
 10
266.6
 20
618.5
 11
272.4
 21
618.5
  0
LINE
  8
0
 10
272.4
 20
618.5
 11
272.4
 21
612.5
  0
LINE
  8
0
 10
272.4
 20
612.5
 11
287
 21
612.5
  0
LINE
  8
0
 10
287
 20
612.5
 11
287
 21
632.5
  0
LINE
  8
0
 10
287
 20
632.5
 11
282
 21
632.5
  0
LINE
  8
0
 10
282
 20
632.5
 11
282
 21
627.5
  0
LINE
  8
0
 10
282
 20
627.5
 11
257
 21
627.5
  0
LINE
  8
0
 10
257
 20
627.5
 11
257
 21
632.5
  0
LINE
  8
0
 10
257
 20
632.5
 11
252
 21
632.5
  0
LINE
  8
0
 10
252
 20
632.5
 11
252
 21
612.5
  0
LINE
  8
0
 10
252
 20
612.5
 11
266.6
 21
612.5
  0
LINE
  8
0
 10
266.6
 20
612.5
 11
266.6
 21
618.5
  0
LINE
  8
0
 10
166.1
 20
618.5
 11
171.9
 21
618.5
  0
LINE
  8
0
 10
171.9
 20
618.5
 11
171.9
 21
612.5
  0
LINE
  8
0
 10
171.9
 20
612.5
 11
186.5
 21
612.5
  0
LINE
  8
0
 10
186.5
 20
612.5
 11
186.5
 21
632.5
  0
LINE
  8
0
 10
186.5
 20
632.5
 11
181.5
 21
632.5
  0
LINE
  8
0
 10
181.5
 20
632.5
 11
181.5
 21
627.5
  0
LINE
  8
0
 10
181.5
 20
627.5
 11
156.5
 21
627.5
  0
LINE
  8
0
 10
156.5
 20
627.5
 11
156.5
 21
632.5
  0
LINE
  8
0
 10
156.5
 20
632.5
 11
151.5
 21
632.5
  0
LINE
  8
0
 10
151.5
 20
632.5
 11
151.5
 21
612.5
  0
LINE
  8
0
 10
151.5
 20
612.5
 11
166.1
 21
612.5
  0
LINE
  8
0
 10
166.1
 20
612.5
 11
166.1
 21
618.5
  0
LINE
  8
0
 10
-34.9
 20
618.5
 11
-29.1
 21
618.5
  0
LINE
  8
0
 10
-29.1
 20
618.5
 11
-29.1
 21
612.5
  0
LINE
  8
0
 10
-29.1
 20
612.5
 11
-14.5
 21
612.5
  0
LINE
  8
0
 10
-14.5
 20
612.5
 11
-14.5
 21
632.5
  0
LINE
  8
0
 10
-14.5
 20
632.5
 11
-19.5
 21
632.5
  0
LINE
  8
0
 10
-19.5
 20
632.5
 11
-19.5
 21
627.5
  0
LINE
  8
0
 10
-19.5
 20
627.5
 11
-44.5
 21
627.5
  0
LINE
  8
0
 10
-44.5
 20
627.5
 11
-44.5
 21
632.5
  0
LINE
  8
0
 10
-44.5
 20
632.5
 11
-49.5
 21
632.5
  0
LINE
  8
0
 10
-49.5
 20
632.5
 11
-49.5
 21
612.5
  0
LINE
  8
0
 10
-49.5
 20
612.5
 11
-34.9
 21
612.5
  0
LINE
  8
0
 10
-34.9
 20
612.5
 11
-34.9
 21
618.5
  0
LINE
  8
0
 10
266.6
 20
538.5
 11
272.4
 21
538.5
  0
LINE
  8
0
 10
272.4
 20
538.5
 11
272.4
 21
532.5
  0
LINE
  8
0
 10
272.4
 20
532.5
 11
287
 21
532.5
  0
LINE
  8
0
 10
287
 20
532.5
 11
287
 21
552.5
  0
LINE
  8
0
 10
287
 20
552.5
 11
282
 21
552.5
  0
LINE
  8
0
 10
282
 20
552.5
 11
282
 21
547.5
  0
LINE
  8
0
 10
282
 20
547.5
 11
257
 21
547.5
  0
LINE
  8
0
 10
257
 20
547.5
 11
257
 21
552.5
  0
LINE
  8
0
 10
257
 20
552.5
 11
252
 21
552.5
  0
LINE
  8
0
 10
252
 20
552.5
 11
252
 21
532.5
  0
LINE
  8
0
 10
252
 20
532.5
 11
266.6
 21
532.5
  0
LINE
  8
0
 10
266.6
 20
532.5
 11
266.6
 21
538.5
  0
LINE
  8
0
 10
50
 20
457.6
 11
44
 21
457.6
  0
LINE
  8
0
 10
44
 20
457.6
 11
44
 21
463.4
  0
LINE
  8
0
 10
44
 20
463.4
 11
50
 21
463.4
  0
LINE
  8
0
 10
50
 20
463.4
 11
50
 21
469.6
  0
LINE
  8
0
 10
50
 20
469.6
 11
44
 21
469.6
  0
LINE
  8
0
 10
44
 20
469.6
 11
44
 21
475.4
  0
LINE
  8
0
 10
44
 20
475.4
 11
50
 21
475.4
  0
LINE
  8
0
 10
50
 20
475.4
 11
50
 21
482.5
  0
LINE
  8
0
 10
50
 20
482.5
 11
38
 21
482.5
  0
LINE
  8
0
 10
38
 20
482.5
 11
38
 21
552.5
  0
LINE
  8
0
 10
38
 20
552.5
 11
-13.75
 21
552.5
  0
LINE
  8
0
 10
-13.75
 20
552.5
 11
-13.75
 21
511.5
  0
LINE
  8
0
 10
-13.75
 20
511.5
 11
-50
 21
511.5
  0
LINE
  8
0
 10
-50
 20
511.5
 11
-50
 21
452.5
  0
LINE
  8
0
 10
-50
 20
452.5
 11
50
 21
452.5
  0
LINE
  8
0
 10
50
 20
452.5
 11
50
 21
457.6
  0
LINE
  8
0
 10
30.5729
 20
541.647
 11
29.0729
 21
542.737
  0
LINE
  8
0
 10
29.0729
 20
542.737
 11
28.5
 21
544.5
  0
LINE
  8
0
 10
28.5
 20
544.5
 11
29.0729
 21
546.263
  0
LINE
  8
0
 10
29.0729
 20
546.263
 11
30.5729
 21
547.353
  0
LINE
  8
0
 10
30.5729
 20
547.353
 11
32.427
 21
547.353
  0
LINE
  8
0
 10
32.427
 20
547.353
 11
33.927
 21
546.263
  0
LINE
  8
0
 10
33.927
 20
546.263
 11
34.5
 21
544.5
  0
LINE
  8
0
 10
34.5
 20
544.5
 11
33.927
 21
542.737
  0
LINE
  8
0
 10
33.927
 20
542.737
 11
32.427
 21
541.647
  0
LINE
  8
0
 10
32.427
 20
541.647
 11
30.5729
 21
541.647
  0
LINE
  8
0
 10
7.57295
 20
541.647
 11
6.07295
 21
542.737
  0
LINE
  8
0
 10
6.07295
 20
542.737
 11
5.5
 21
544.5
  0
LINE
  8
0
 10
5.5
 20
544.5
 11
6.07295
 21
546.263
  0
LINE
  8
0
 10
6.07295
 20
546.263
 11
7.57295
 21
547.353
  0
LINE
  8
0
 10
7.57295
 20
547.353
 11
9.42706
 21
547.353
  0
LINE
  8
0
 10
9.42706
 20
547.353
 11
10.9271
 21
546.263
  0
LINE
  8
0
 10
10.9271
 20
546.263
 11
11.5
 21
544.5
  0
LINE
  8
0
 10
11.5
 20
544.5
 11
10.9271
 21
542.737
  0
LINE
  8
0
 10
10.9271
 20
542.737
 11
9.42706
 21
541.647
  0
LINE
  8
0
 10
9.42706
 20
541.647
 11
7.57295
 21
541.647
  0
LINE
  8
0
 10
30.5729
 20
483.647
 11
29.0729
 21
484.737
  0
LINE
  8
0
 10
29.0729
 20
484.737
 11
28.5
 21
486.5
  0
LINE
  8
0
 10
28.5
 20
486.5
 11
29.0729
 21
488.263
  0
LINE
  8
0
 10
29.0729
 20
488.263
 11
30.5729
 21
489.353
  0
LINE
  8
0
 10
30.5729
 20
489.353
 11
32.427
 21
489.353
  0
LINE
  8
0
 10
32.427
 20
489.353
 11
33.927
 21
488.263
  0
LINE
  8
0
 10
33.927
 20
488.263
 11
34.5
 21
486.5
  0
LINE
  8
0
 10
34.5
 20
486.5
 11
33.927
 21
484.737
  0
LINE
  8
0
 10
33.927
 20
484.737
 11
32.427
 21
483.647
  0
LINE
  8
0
 10
32.427
 20
483.647
 11
30.5729
 21
483.647
  0
LINE
  8
0
 10
7.57295
 20
483.647
 11
6.07295
 21
484.737
  0
LINE
  8
0
 10
6.07295
 20
484.737
 11
5.5
 21
486.5
  0
LINE
  8
0
 10
5.5
 20
486.5
 11
6.07295
 21
488.263
  0
LINE
  8
0
 10
6.07295
 20
488.263
 11
7.57295
 21
489.353
  0
LINE
  8
0
 10
7.57295
 20
489.353
 11
9.42706
 21
489.353
  0
LINE
  8
0
 10
9.42706
 20
489.353
 11
10.9271
 21
488.263
  0
LINE
  8
0
 10
10.9271
 20
488.263
 11
11.5
 21
486.5
  0
LINE
  8
0
 10
11.5
 20
486.5
 11
10.9271
 21
484.737
  0
LINE
  8
0
 10
10.9271
 20
484.737
 11
9.42706
 21
483.647
  0
LINE
  8
0
 10
9.42706
 20
483.647
 11
7.57295
 21
483.647
  0
LINE
  8
0
 10
29.0729
 20
464.647
 11
27.5729
 21
465.737
  0
LINE
  8
0
 10
27.5729
 20
465.737
 11
27
 21
467.5
  0
LINE
  8
0
 10
27
 20
467.5
 11
27.5729
 21
469.263
  0
LINE
  8
0
 10
27.5729
 20
469.263
 11
29.0729
 21
470.353
  0
LINE
  8
0
 10
29.0729
 20
470.353
 11
30.927
 21
470.353
  0
LINE
  8
0
 10
30.927
 20
470.353
 11
32.427
 21
469.263
  0
LINE
  8
0
 10
32.427
 20
469.263
 11
33
 21
467.5
  0
LINE
  8
0
 10
33
 20
467.5
 11
32.427
 21
465.737
  0
LINE
  8
0
 10
32.427
 20
465.737
 11
30.927
 21
464.647
  0
LINE
  8
0
 10
30.927
 20
464.647
 11
29.0729
 21
464.647
  0
LINE
  8
0
 10
-17.427
 20
461.147
 11
-18.927
 21
462.237
  0
LINE
  8
0
 10
-18.927
 20
462.237
 11
-19.5
 21
464
  0
LINE
  8
0
 10
-19.5
 20
464
 11
-18.927
 21
465.763
  0
LINE
  8
0
 10
-18.927
 20
465.763
 11
-17.427
 21
466.853
  0
LINE
  8
0
 10
-17.427
 20
466.853
 11
-15.5729
 21
466.853
  0
LINE
  8
0
 10
-15.5729
 20
466.853
 11
-14.0729
 21
465.763
  0
LINE
  8
0
 10
-14.0729
 20
465.763
 11
-13.5
 21
464
  0
LINE
  8
0
 10
-13.5
 20
464
 11
-14.0729
 21
462.237
  0
LINE
  8
0
 10
-14.0729
 20
462.237
 11
-15.5729
 21
461.147
  0
LINE
  8
0
 10
-15.5729
 20
461.147
 11
-17.427
 21
461.147
  0
LINE
  8
0
 10
5.57294
 20
461.147
 11
4.07294
 21
462.237
  0
LINE
  8
0
 10
4.07294
 20
462.237
 11
3.5
 21
464
  0
LINE
  8
0
 10
3.5
 20
464
 11
4.07294
 21
465.763
  0
LINE
  8
0
 10
4.07294
 20
465.763
 11
5.57294
 21
466.853
  0
LINE
  8
0
 10
5.57294
 20
466.853
 11
7.42705
 21
466.853
  0
LINE
  8
0
 10
7.42705
 20
466.853
 11
8.92705
 21
465.763
  0
LINE
  8
0
 10
8.92705
 20
465.763
 11
9.5
 21
464
  0
LINE
  8
0
 10
9.5
 20
464
 11
8.92705
 21
462.237
  0
LINE
  8
0
 10
8.92705
 20
462.237
 11
7.42705
 21
461.147
  0
LINE
  8
0
 10
7.42705
 20
461.147
 11
5.57294
 21
461.147
  0
LINE
  8
0
 10
65.6
 20
538.5
 11
71.4
 21
538.5
  0
LINE
  8
0
 10
71.4
 20
538.5
 11
71.4
 21
532.5
  0
LINE
  8
0
 10
71.4
 20
532.5
 11
86
 21
532.5
  0
LINE
  8
0
 10
86
 20
532.5
 11
86
 21
552.5
  0
LINE
  8
0
 10
86
 20
552.5
 11
81
 21
552.5
  0
LINE
  8
0
 10
81
 20
552.5
 11
81
 21
547.5
  0
LINE
  8
0
 10
81
 20
547.5
 11
56
 21
547.5
  0
LINE
  8
0
 10
56
 20
547.5
 11
56
 21
552.5
  0
LINE
  8
0
 10
56
 20
552.5
 11
51
 21
552.5
  0
LINE
  8
0
 10
51
 20
552.5
 11
51
 21
532.5
  0
LINE
  8
0
 10
51
 20
532.5
 11
65.6
 21
532.5
  0
LINE
  8
0
 10
65.6
 20
532.5
 11
65.6
 21
538.5
  0
LINE
  8
0
 10
166.1
 20
538.5
 11
171.9
 21
538.5
  0
LINE
  8
0
 10
171.9
 20
538.5
 11
171.9
 21
532.5
  0
LINE
  8
0
 10
171.9
 20
532.5
 11
186.5
 21
532.5
  0
LINE
  8
0
 10
186.5
 20
532.5
 11
186.5
 21
552.5
  0
LINE
  8
0
 10
186.5
 20
552.5
 11
181.5
 21
552.5
  0
LINE
  8
0
 10
181.5
 20
552.5
 11
181.5
 21
547.5
  0
LINE
  8
0
 10
181.5
 20
547.5
 11
156.5
 21
547.5
  0
LINE
  8
0
 10
156.5
 20
547.5
 11
156.5
 21
552.5
  0
LINE
  8
0
 10
156.5
 20
552.5
 11
151.5
 21
552.5
  0
LINE
  8
0
 10
151.5
 20
552.5
 11
151.5
 21
532.5
  0
LINE
  8
0
 10
151.5
 20
532.5
 11
166.1
 21
532.5
  0
LINE
  8
0
 10
166.1
 20
532.5
 11
166.1
 21
538.5
  0
LINE
  8
0
 10
150.5
 20
457.6
 11
144.5
 21
457.6
  0
LINE
  8
0
 10
144.5
 20
457.6
 11
144.5
 21
463.4
  0
LINE
  8
0
 10
144.5
 20
463.4
 11
150.5
 21
463.4
  0
LINE
  8
0
 10
150.5
 20
463.4
 11
150.5
 21
469.6
  0
LINE
  8
0
 10
150.5
 20
469.6
 11
144.5
 21
469.6
  0
LINE
  8
0
 10
144.5
 20
469.6
 11
144.5
 21
475.4
  0
LINE
  8
0
 10
144.5
 20
475.4
 11
150.5
 21
475.4
  0
LINE
  8
0
 10
150.5
 20
475.4
 11
150.5
 21
482.5
  0
LINE
  8
0
 10
150.5
 20
482.5
 11
138.5
 21
482.5
  0
LINE
  8
0
 10
138.5
 20
482.5
 11
138.5
 21
552.5
  0
LINE
  8
0
 10
138.5
 20
552.5
 11
86.75
 21
552.5
  0
LINE
  8
0
 10
86.75
 20
552.5
 11
86.75
 21
511.5
  0
LINE
  8
0
 10
86.75
 20
511.5
 11
50.5
 21
511.5
  0
LINE
  8
0
 10
50.5
 20
511.5
 11
50.5
 21
452.5
  0
LINE
  8
0
 10
50.5
 20
452.5
 11
150.5
 21
452.5
  0
LINE
  8
0
 10
150.5
 20
452.5
 11
150.5
 21
457.6
  0
LINE
  8
0
 10
108.073
 20
541.647
 11
106.573
 21
542.737
  0
LINE
  8
0
 10
106.573
 20
542.737
 11
106
 21
544.5
  0
LINE
  8
0
 10
106
 20
544.5
 11
106.573
 21
546.263
  0
LINE
  8
0
 10
106.573
 20
546.263
 11
108.073
 21
547.353
  0
LINE
  8
0
 10
108.073
 20
547.353
 11
109.927
 21
547.353
  0
LINE
  8
0
 10
109.927
 20
547.353
 11
111.427
 21
546.263
  0
LINE
  8
0
 10
111.427
 20
546.263
 11
112
 21
544.5
  0
LINE
  8
0
 10
112
 20
544.5
 11
111.427
 21
542.737
  0
LINE
  8
0
 10
111.427
 20
542.737
 11
109.927
 21
541.647
  0
LINE
  8
0
 10
109.927
 20
541.647
 11
108.073
 21
541.647
  0
LINE
  8
0
 10
131.073
 20
541.647
 11
129.573
 21
542.737
  0
LINE
  8
0
 10
129.573
 20
542.737
 11
129
 21
544.5
  0
LINE
  8
0
 10
129
 20
544.5
 11
129.573
 21
546.263
  0
LINE
  8
0
 10
129.573
 20
546.263
 11
131.073
 21
547.353
  0
LINE
  8
0
 10
131.073
 20
547.353
 11
132.927
 21
547.353
  0
LINE
  8
0
 10
132.927
 20
547.353
 11
134.427
 21
546.263
  0
LINE
  8
0
 10
134.427
 20
546.263
 11
135
 21
544.5
  0
LINE
  8
0
 10
135
 20
544.5
 11
134.427
 21
542.737
  0
LINE
  8
0
 10
134.427
 20
542.737
 11
132.927
 21
541.647
  0
LINE
  8
0
 10
132.927
 20
541.647
 11
131.073
 21
541.647
  0
LINE
  8
0
 10
131.073
 20
483.647
 11
129.573
 21
484.737
  0
LINE
  8
0
 10
129.573
 20
484.737
 11
129
 21
486.5
  0
LINE
  8
0
 10
129
 20
486.5
 11
129.573
 21
488.263
  0
LINE
  8
0
 10
129.573
 20
488.263
 11
131.073
 21
489.353
  0
LINE
  8
0
 10
131.073
 20
489.353
 11
132.927
 21
489.353
  0
LINE
  8
0
 10
132.927
 20
489.353
 11
134.427
 21
488.263
  0
LINE
  8
0
 10
134.427
 20
488.263
 11
135
 21
486.5
  0
LINE
  8
0
 10
135
 20
486.5
 11
134.427
 21
484.737
  0
LINE
  8
0
 10
134.427
 20
484.737
 11
132.927
 21
483.647
  0
LINE
  8
0
 10
132.927
 20
483.647
 11
131.073
 21
483.647
  0
LINE
  8
0
 10
108.073
 20
483.647
 11
106.573
 21
484.737
  0
LINE
  8
0
 10
106.573
 20
484.737
 11
106
 21
486.5
  0
LINE
  8
0
 10
106
 20
486.5
 11
106.573
 21
488.263
  0
LINE
  8
0
 10
106.573
 20
488.263
 11
108.073
 21
489.353
  0
LINE
  8
0
 10
108.073
 20
489.353
 11
109.927
 21
489.353
  0
LINE
  8
0
 10
109.927
 20
489.353
 11
111.427
 21
488.263
  0
LINE
  8
0
 10
111.427
 20
488.263
 11
112
 21
486.5
  0
LINE
  8
0
 10
112
 20
486.5
 11
111.427
 21
484.737
  0
LINE
  8
0
 10
111.427
 20
484.737
 11
109.927
 21
483.647
  0
LINE
  8
0
 10
109.927
 20
483.647
 11
108.073
 21
483.647
  0
LINE
  8
0
 10
129.573
 20
464.647
 11
128.073
 21
465.737
  0
LINE
  8
0
 10
128.073
 20
465.737
 11
127.5
 21
467.5
  0
LINE
  8
0
 10
127.5
 20
467.5
 11
128.073
 21
469.263
  0
LINE
  8
0
 10
128.073
 20
469.263
 11
129.573
 21
470.353
  0
LINE
  8
0
 10
129.573
 20
470.353
 11
131.427
 21
470.353
  0
LINE
  8
0
 10
131.427
 20
470.353
 11
132.927
 21
469.263
  0
LINE
  8
0
 10
132.927
 20
469.263
 11
133.5
 21
467.5
  0
LINE
  8
0
 10
133.5
 20
467.5
 11
132.927
 21
465.737
  0
LINE
  8
0
 10
132.927
 20
465.737
 11
131.427
 21
464.647
  0
LINE
  8
0
 10
131.427
 20
464.647
 11
129.573
 21
464.647
  0
LINE
  8
0
 10
83.073
 20
461.147
 11
81.573
 21
462.237
  0
LINE
  8
0
 10
81.573
 20
462.237
 11
81
 21
464
  0
LINE
  8
0
 10
81
 20
464
 11
81.573
 21
465.763
  0
LINE
  8
0
 10
81.573
 20
465.763
 11
83.073
 21
466.853
  0
LINE
  8
0
 10
83.073
 20
466.853
 11
84.9271
 21
466.853
  0
LINE
  8
0
 10
84.9271
 20
466.853
 11
86.4271
 21
465.763
  0
LINE
  8
0
 10
86.4271
 20
465.763
 11
87
 21
464
  0
LINE
  8
0
 10
87
 20
464
 11
86.4271
 21
462.237
  0
LINE
  8
0
 10
86.4271
 20
462.237
 11
84.9271
 21
461.147
  0
LINE
  8
0
 10
84.9271
 20
461.147
 11
83.073
 21
461.147
  0
LINE
  8
0
 10
106.073
 20
461.147
 11
104.573
 21
462.237
  0
LINE
  8
0
 10
104.573
 20
462.237
 11
104
 21
464
  0
LINE
  8
0
 10
104
 20
464
 11
104.573
 21
465.763
  0
LINE
  8
0
 10
104.573
 20
465.763
 11
106.073
 21
466.853
  0
LINE
  8
0
 10
106.073
 20
466.853
 11
107.927
 21
466.853
  0
LINE
  8
0
 10
107.927
 20
466.853
 11
109.427
 21
465.763
  0
LINE
  8
0
 10
109.427
 20
465.763
 11
110
 21
464
  0
LINE
  8
0
 10
110
 20
464
 11
109.427
 21
462.237
  0
LINE
  8
0
 10
109.427
 20
462.237
 11
107.927
 21
461.147
  0
LINE
  8
0
 10
107.927
 20
461.147
 11
106.073
 21
461.147
  0
LINE
  8
0
 10
351.5
 20
457.6
 11
345.5
 21
457.6
  0
LINE
  8
0
 10
345.5
 20
457.6
 11
345.5
 21
463.4
  0
LINE
  8
0
 10
345.5
 20
463.4
 11
351.5
 21
463.4
  0
LINE
  8
0
 10
351.5
 20
463.4
 11
351.5
 21
469.6
  0
LINE
  8
0
 10
351.5
 20
469.6
 11
345.5
 21
469.6
  0
LINE
  8
0
 10
345.5
 20
469.6
 11
345.5
 21
475.4
  0
LINE
  8
0
 10
345.5
 20
475.4
 11
351.5
 21
475.4
  0
LINE
  8
0
 10
351.5
 20
475.4
 11
351.5
 21
482.5
  0
LINE
  8
0
 10
351.5
 20
482.5
 11
339.5
 21
482.5
  0
LINE
  8
0
 10
339.5
 20
482.5
 11
339.5
 21
552.5
  0
LINE
  8
0
 10
339.5
 20
552.5
 11
287.75
 21
552.5
  0
LINE
  8
0
 10
287.75
 20
552.5
 11
287.75
 21
511.5
  0
LINE
  8
0
 10
287.75
 20
511.5
 11
251.5
 21
511.5
  0
LINE
  8
0
 10
251.5
 20
511.5
 11
251.5
 21
452.5
  0
LINE
  8
0
 10
251.5
 20
452.5
 11
351.5
 21
452.5
  0
LINE
  8
0
 10
351.5
 20
452.5
 11
351.5
 21
457.6
  0
LINE
  8
0
 10
309.073
 20
541.647
 11
307.573
 21
542.737
  0
LINE
  8
0
 10
307.573
 20
542.737
 11
307
 21
544.5
  0
LINE
  8
0
 10
307
 20
544.5
 11
307.573
 21
546.263
  0
LINE
  8
0
 10
307.573
 20
546.263
 11
309.073
 21
547.353
  0
LINE
  8
0
 10
309.073
 20
547.353
 11
310.927
 21
547.353
  0
LINE
  8
0
 10
310.927
 20
547.353
 11
312.427
 21
546.263
  0
LINE
  8
0
 10
312.427
 20
546.263
 11
313
 21
544.5
  0
LINE
  8
0
 10
313
 20
544.5
 11
312.427
 21
542.737
  0
LINE
  8
0
 10
312.427
 20
542.737
 11
310.927
 21
541.647
  0
LINE
  8
0
 10
310.927
 20
541.647
 11
309.073
 21
541.647
  0
LINE
  8
0
 10
332.073
 20
541.647
 11
330.573
 21
542.737
  0
LINE
  8
0
 10
330.573
 20
542.737
 11
330
 21
544.5
  0
LINE
  8
0
 10
330
 20
544.5
 11
330.573
 21
546.263
  0
LINE
  8
0
 10
330.573
 20
546.263
 11
332.073
 21
547.353
  0
LINE
  8
0
 10
332.073
 20
547.353
 11
333.927
 21
547.353
  0
LINE
  8
0
 10
333.927
 20
547.353
 11
335.427
 21
546.263
  0
LINE
  8
0
 10
335.427
 20
546.263
 11
336
 21
544.5
  0
LINE
  8
0
 10
336
 20
544.5
 11
335.427
 21
542.737
  0
LINE
  8
0
 10
335.427
 20
542.737
 11
333.927
 21
541.647
  0
LINE
  8
0
 10
333.927
 20
541.647
 11
332.073
 21
541.647
  0
LINE
  8
0
 10
309.073
 20
483.647
 11
307.573
 21
484.737
  0
LINE
  8
0
 10
307.573
 20
484.737
 11
307
 21
486.5
  0
LINE
  8
0
 10
307
 20
486.5
 11
307.573
 21
488.263
  0
LINE
  8
0
 10
307.573
 20
488.263
 11
309.073
 21
489.353
  0
LINE
  8
0
 10
309.073
 20
489.353
 11
310.927
 21
489.353
  0
LINE
  8
0
 10
310.927
 20
489.353
 11
312.427
 21
488.263
  0
LINE
  8
0
 10
312.427
 20
488.263
 11
313
 21
486.5
  0
LINE
  8
0
 10
313
 20
486.5
 11
312.427
 21
484.737
  0
LINE
  8
0
 10
312.427
 20
484.737
 11
310.927
 21
483.647
  0
LINE
  8
0
 10
310.927
 20
483.647
 11
309.073
 21
483.647
  0
LINE
  8
0
 10
332.073
 20
483.647
 11
330.573
 21
484.737
  0
LINE
  8
0
 10
330.573
 20
484.737
 11
330
 21
486.5
  0
LINE
  8
0
 10
330
 20
486.5
 11
330.573
 21
488.263
  0
LINE
  8
0
 10
330.573
 20
488.263
 11
332.073
 21
489.353
  0
LINE
  8
0
 10
332.073
 20
489.353
 11
333.927
 21
489.353
  0
LINE
  8
0
 10
333.927
 20
489.353
 11
335.427
 21
488.263
  0
LINE
  8
0
 10
335.427
 20
488.263
 11
336
 21
486.5
  0
LINE
  8
0
 10
336
 20
486.5
 11
335.427
 21
484.737
  0
LINE
  8
0
 10
335.427
 20
484.737
 11
333.927
 21
483.647
  0
LINE
  8
0
 10
333.927
 20
483.647
 11
332.073
 21
483.647
  0
LINE
  8
0
 10
330.573
 20
464.647
 11
329.073
 21
465.737
  0
LINE
  8
0
 10
329.073
 20
465.737
 11
328.5
 21
467.5
  0
LINE
  8
0
 10
328.5
 20
467.5
 11
329.073
 21
469.263
  0
LINE
  8
0
 10
329.073
 20
469.263
 11
330.573
 21
470.353
  0
LINE
  8
0
 10
330.573
 20
470.353
 11
332.427
 21
470.353
  0
LINE
  8
0
 10
332.427
 20
470.353
 11
333.927
 21
469.263
  0
LINE
  8
0
 10
333.927
 20
469.263
 11
334.5
 21
467.5
  0
LINE
  8
0
 10
334.5
 20
467.5
 11
333.927
 21
465.737
  0
LINE
  8
0
 10
333.927
 20
465.737
 11
332.427
 21
464.647
  0
LINE
  8
0
 10
332.427
 20
464.647
 11
330.573
 21
464.647
  0
LINE
  8
0
 10
307.073
 20
461.147
 11
305.573
 21
462.237
  0
LINE
  8
0
 10
305.573
 20
462.237
 11
305
 21
464
  0
LINE
  8
0
 10
305
 20
464
 11
305.573
 21
465.763
  0
LINE
  8
0
 10
305.573
 20
465.763
 11
307.073
 21
466.853
  0
LINE
  8
0
 10
307.073
 20
466.853
 11
308.927
 21
466.853
  0
LINE
  8
0
 10
308.927
 20
466.853
 11
310.427
 21
465.763
  0
LINE
  8
0
 10
310.427
 20
465.763
 11
311
 21
464
  0
LINE
  8
0
 10
311
 20
464
 11
310.427
 21
462.237
  0
LINE
  8
0
 10
310.427
 20
462.237
 11
308.927
 21
461.147
  0
LINE
  8
0
 10
308.927
 20
461.147
 11
307.073
 21
461.147
  0
LINE
  8
0
 10
284.073
 20
461.147
 11
282.573
 21
462.237
  0
LINE
  8
0
 10
282.573
 20
462.237
 11
282
 21
464
  0
LINE
  8
0
 10
282
 20
464
 11
282.573
 21
465.763
  0
LINE
  8
0
 10
282.573
 20
465.763
 11
284.073
 21
466.853
  0
LINE
  8
0
 10
284.073
 20
466.853
 11
285.927
 21
466.853
  0
LINE
  8
0
 10
285.927
 20
466.853
 11
287.427
 21
465.763
  0
LINE
  8
0
 10
287.427
 20
465.763
 11
288
 21
464
  0
LINE
  8
0
 10
288
 20
464
 11
287.427
 21
462.237
  0
LINE
  8
0
 10
287.427
 20
462.237
 11
285.927
 21
461.147
  0
LINE
  8
0
 10
285.927
 20
461.147
 11
284.073
 21
461.147
  0
LINE
  8
0
 10
-34.9
 20
538.5
 11
-29.1
 21
538.5
  0
LINE
  8
0
 10
-29.1
 20
538.5
 11
-29.1
 21
532.5
  0
LINE
  8
0
 10
-29.1
 20
532.5
 11
-14.5
 21
532.5
  0
LINE
  8
0
 10
-14.5
 20
532.5
 11
-14.5
 21
552.5
  0
LINE
  8
0
 10
-14.5
 20
552.5
 11
-19.5
 21
552.5
  0
LINE
  8
0
 10
-19.5
 20
552.5
 11
-19.5
 21
547.5
  0
LINE
  8
0
 10
-19.5
 20
547.5
 11
-44.5
 21
547.5
  0
LINE
  8
0
 10
-44.5
 20
547.5
 11
-44.5
 21
552.5
  0
LINE
  8
0
 10
-44.5
 20
552.5
 11
-49.5
 21
552.5
  0
LINE
  8
0
 10
-49.5
 20
552.5
 11
-49.5
 21
532.5
  0
LINE
  8
0
 10
-49.5
 20
532.5
 11
-34.9
 21
532.5
  0
LINE
  8
0
 10
-34.9
 20
532.5
 11
-34.9
 21
538.5
  0
LINE
  8
0
 10
251
 20
457.6
 11
245
 21
457.6
  0
LINE
  8
0
 10
245
 20
457.6
 11
245
 21
463.4
  0
LINE
  8
0
 10
245
 20
463.4
 11
251
 21
463.4
  0
LINE
  8
0
 10
251
 20
463.4
 11
251
 21
469.6
  0
LINE
  8
0
 10
251
 20
469.6
 11
245
 21
469.6
  0
LINE
  8
0
 10
245
 20
469.6
 11
245
 21
475.4
  0
LINE
  8
0
 10
245
 20
475.4
 11
251
 21
475.4
  0
LINE
  8
0
 10
251
 20
475.4
 11
251
 21
482.5
  0
LINE
  8
0
 10
251
 20
482.5
 11
239
 21
482.5
  0
LINE
  8
0
 10
239
 20
482.5
 11
239
 21
552.5
  0
LINE
  8
0
 10
239
 20
552.5
 11
187.25
 21
552.5
  0
LINE
  8
0
 10
187.25
 20
552.5
 11
187.25
 21
511.5
  0
LINE
  8
0
 10
187.25
 20
511.5
 11
151
 21
511.5
  0
LINE
  8
0
 10
151
 20
511.5
 11
151
 21
452.5
  0
LINE
  8
0
 10
151
 20
452.5
 11
251
 21
452.5
  0
LINE
  8
0
 10
251
 20
452.5
 11
251
 21
457.6
  0
LINE
  8
0
 10
208.573
 20
541.647
 11
207.073
 21
542.737
  0
LINE
  8
0
 10
207.073
 20
542.737
 11
206.5
 21
544.5
  0
LINE
  8
0
 10
206.5
 20
544.5
 11
207.073
 21
546.263
  0
LINE
  8
0
 10
207.073
 20
546.263
 11
208.573
 21
547.353
  0
LINE
  8
0
 10
208.573
 20
547.353
 11
210.427
 21
547.353
  0
LINE
  8
0
 10
210.427
 20
547.353
 11
211.927
 21
546.263
  0
LINE
  8
0
 10
211.927
 20
546.263
 11
212.5
 21
544.5
  0
LINE
  8
0
 10
212.5
 20
544.5
 11
211.927
 21
542.737
  0
LINE
  8
0
 10
211.927
 20
542.737
 11
210.427
 21
541.647
  0
LINE
  8
0
 10
210.427
 20
541.647
 11
208.573
 21
541.647
  0
LINE
  8
0
 10
231.573
 20
541.647
 11
230.073
 21
542.737
  0
LINE
  8
0
 10
230.073
 20
542.737
 11
229.5
 21
544.5
  0
LINE
  8
0
 10
229.5
 20
544.5
 11
230.073
 21
546.263
  0
LINE
  8
0
 10
230.073
 20
546.263
 11
231.573
 21
547.353
  0
LINE
  8
0
 10
231.573
 20
547.353
 11
233.427
 21
547.353
  0
LINE
  8
0
 10
233.427
 20
547.353
 11
234.927
 21
546.263
  0
LINE
  8
0
 10
234.927
 20
546.263
 11
235.5
 21
544.5
  0
LINE
  8
0
 10
235.5
 20
544.5
 11
234.927
 21
542.737
  0
LINE
  8
0
 10
234.927
 20
542.737
 11
233.427
 21
541.647
  0
LINE
  8
0
 10
233.427
 20
541.647
 11
231.573
 21
541.647
  0
LINE
  8
0
 10
231.573
 20
483.647
 11
230.073
 21
484.737
  0
LINE
  8
0
 10
230.073
 20
484.737
 11
229.5
 21
486.5
  0
LINE
  8
0
 10
229.5
 20
486.5
 11
230.073
 21
488.263
  0
LINE
  8
0
 10
230.073
 20
488.263
 11
231.573
 21
489.353
  0
LINE
  8
0
 10
231.573
 20
489.353
 11
233.427
 21
489.353
  0
LINE
  8
0
 10
233.427
 20
489.353
 11
234.927
 21
488.263
  0
LINE
  8
0
 10
234.927
 20
488.263
 11
235.5
 21
486.5
  0
LINE
  8
0
 10
235.5
 20
486.5
 11
234.927
 21
484.737
  0
LINE
  8
0
 10
234.927
 20
484.737
 11
233.427
 21
483.647
  0
LINE
  8
0
 10
233.427
 20
483.647
 11
231.573
 21
483.647
  0
LINE
  8
0
 10
208.573
 20
483.647
 11
207.073
 21
484.737
  0
LINE
  8
0
 10
207.073
 20
484.737
 11
206.5
 21
486.5
  0
LINE
  8
0
 10
206.5
 20
486.5
 11
207.073
 21
488.263
  0
LINE
  8
0
 10
207.073
 20
488.263
 11
208.573
 21
489.353
  0
LINE
  8
0
 10
208.573
 20
489.353
 11
210.427
 21
489.353
  0
LINE
  8
0
 10
210.427
 20
489.353
 11
211.927
 21
488.263
  0
LINE
  8
0
 10
211.927
 20
488.263
 11
212.5
 21
486.5
  0
LINE
  8
0
 10
212.5
 20
486.5
 11
211.927
 21
484.737
  0
LINE
  8
0
 10
211.927
 20
484.737
 11
210.427
 21
483.647
  0
LINE
  8
0
 10
210.427
 20
483.647
 11
208.573
 21
483.647
  0
LINE
  8
0
 10
230.073
 20
464.647
 11
228.573
 21
465.737
  0
LINE
  8
0
 10
228.573
 20
465.737
 11
228
 21
467.5
  0
LINE
  8
0
 10
228
 20
467.5
 11
228.573
 21
469.263
  0
LINE
  8
0
 10
228.573
 20
469.263
 11
230.073
 21
470.353
  0
LINE
  8
0
 10
230.073
 20
470.353
 11
231.927
 21
470.353
  0
LINE
  8
0
 10
231.927
 20
470.353
 11
233.427
 21
469.263
  0
LINE
  8
0
 10
233.427
 20
469.263
 11
234
 21
467.5
  0
LINE
  8
0
 10
234
 20
467.5
 11
233.427
 21
465.737
  0
LINE
  8
0
 10
233.427
 20
465.737
 11
231.927
 21
464.647
  0
LINE
  8
0
 10
231.927
 20
464.647
 11
230.073
 21
464.647
  0
LINE
  8
0
 10
206.573
 20
461.147
 11
205.073
 21
462.237
  0
LINE
  8
0
 10
205.073
 20
462.237
 11
204.5
 21
464
  0
LINE
  8
0
 10
204.5
 20
464
 11
205.073
 21
465.763
  0
LINE
  8
0
 10
205.073
 20
465.763
 11
206.573
 21
466.853
  0
LINE
  8
0
 10
206.573
 20
466.853
 11
208.427
 21
466.853
  0
LINE
  8
0
 10
208.427
 20
466.853
 11
209.927
 21
465.763
  0
LINE
  8
0
 10
209.927
 20
465.763
 11
210.5
 21
464
  0
LINE
  8
0
 10
210.5
 20
464
 11
209.927
 21
462.237
  0
LINE
  8
0
 10
209.927
 20
462.237
 11
208.427
 21
461.147
  0
LINE
  8
0
 10
208.427
 20
461.147
 11
206.573
 21
461.147
  0
LINE
  8
0
 10
183.573
 20
461.147
 11
182.073
 21
462.237
  0
LINE
  8
0
 10
182.073
 20
462.237
 11
181.5
 21
464
  0
LINE
  8
0
 10
181.5
 20
464
 11
182.073
 21
465.763
  0
LINE
  8
0
 10
182.073
 20
465.763
 11
183.573
 21
466.853
  0
LINE
  8
0
 10
183.573
 20
466.853
 11
185.427
 21
466.853
  0
LINE
  8
0
 10
185.427
 20
466.853
 11
186.927
 21
465.763
  0
LINE
  8
0
 10
186.927
 20
465.763
 11
187.5
 21
464
  0
LINE
  8
0
 10
187.5
 20
464
 11
186.927
 21
462.237
  0
LINE
  8
0
 10
186.927
 20
462.237
 11
185.427
 21
461.147
  0
LINE
  8
0
 10
185.427
 20
461.147
 11
183.573
 21
461.147
  0
LINE
  8
0
 10
266.6
 20
518
 11
272.4
 21
518
  0
LINE
  8
0
 10
272.4
 20
518
 11
272.4
 21
512
  0
LINE
  8
0
 10
272.4
 20
512
 11
287
 21
512
  0
LINE
  8
0
 10
287
 20
512
 11
287
 21
532
  0
LINE
  8
0
 10
287
 20
532
 11
282
 21
532
  0
LINE
  8
0
 10
282
 20
532
 11
282
 21
527
  0
LINE
  8
0
 10
282
 20
527
 11
257
 21
527
  0
LINE
  8
0
 10
257
 20
527
 11
257
 21
532
  0
LINE
  8
0
 10
257
 20
532
 11
252
 21
532
  0
LINE
  8
0
 10
252
 20
532
 11
252
 21
512
  0
LINE
  8
0
 10
252
 20
512
 11
266.6
 21
512
  0
LINE
  8
0
 10
266.6
 20
512
 11
266.6
 21
518
  0
LINE
  8
0
 10
166.1
 20
518
 11
171.9
 21
518
  0
LINE
  8
0
 10
171.9
 20
518
 11
171.9
 21
512
  0
LINE
  8
0
 10
171.9
 20
512
 11
186.5
 21
512
  0
LINE
  8
0
 10
186.5
 20
512
 11
186.5
 21
532
  0
LINE
  8
0
 10
186.5
 20
532
 11
181.5
 21
532
  0
LINE
  8
0
 10
181.5
 20
532
 11
181.5
 21
527
  0
LINE
  8
0
 10
181.5
 20
527
 11
156.5
 21
527
  0
LINE
  8
0
 10
156.5
 20
527
 11
156.5
 21
532
  0
LINE
  8
0
 10
156.5
 20
532
 11
151.5
 21
532
  0
LINE
  8
0
 10
151.5
 20
532
 11
151.5
 21
512
  0
LINE
  8
0
 10
151.5
 20
512
 11
166.1
 21
512
  0
LINE
  8
0
 10
166.1
 20
512
 11
166.1
 21
518
  0
LINE
  8
0
 10
-34.9
 20
518
 11
-29.1
 21
518
  0
LINE
  8
0
 10
-29.1
 20
518
 11
-29.1
 21
512
  0
LINE
  8
0
 10
-29.1
 20
512
 11
-14.5
 21
512
  0
LINE
  8
0
 10
-14.5
 20
512
 11
-14.5
 21
532
  0
LINE
  8
0
 10
-14.5
 20
532
 11
-19.5
 21
532
  0
LINE
  8
0
 10
-19.5
 20
532
 11
-19.5
 21
527
  0
LINE
  8
0
 10
-19.5
 20
527
 11
-44.5
 21
527
  0
LINE
  8
0
 10
-44.5
 20
527
 11
-44.5
 21
532
  0
LINE
  8
0
 10
-44.5
 20
532
 11
-49.5
 21
532
  0
LINE
  8
0
 10
-49.5
 20
532
 11
-49.5
 21
512
  0
LINE
  8
0
 10
-49.5
 20
512
 11
-34.9
 21
512
  0
LINE
  8
0
 10
-34.9
 20
512
 11
-34.9
 21
518
  0
LINE
  8
0
 10
65.6
 20
518
 11
71.4
 21
518
  0
LINE
  8
0
 10
71.4
 20
518
 11
71.4
 21
512
  0
LINE
  8
0
 10
71.4
 20
512
 11
86
 21
512
  0
LINE
  8
0
 10
86
 20
512
 11
86
 21
532
  0
LINE
  8
0
 10
86
 20
532
 11
81
 21
532
  0
LINE
  8
0
 10
81
 20
532
 11
81
 21
527
  0
LINE
  8
0
 10
81
 20
527
 11
56
 21
527
  0
LINE
  8
0
 10
56
 20
527
 11
56
 21
532
  0
LINE
  8
0
 10
56
 20
532
 11
51
 21
532
  0
LINE
  8
0
 10
51
 20
532
 11
51
 21
512
  0
LINE
  8
0
 10
51
 20
512
 11
65.6
 21
512
  0
LINE
  8
0
 10
65.6
 20
512
 11
65.6
 21
518
  0
LINE
  8
0
 10
266.6
 20
438
 11
272.4
 21
438
  0
LINE
  8
0
 10
272.4
 20
438
 11
272.4
 21
432
  0
LINE
  8
0
 10
272.4
 20
432
 11
287
 21
432
  0
LINE
  8
0
 10
287
 20
432
 11
287
 21
452
  0
LINE
  8
0
 10
287
 20
452
 11
282
 21
452
  0
LINE
  8
0
 10
282
 20
452
 11
282
 21
447
  0
LINE
  8
0
 10
282
 20
447
 11
257
 21
447
  0
LINE
  8
0
 10
257
 20
447
 11
257
 21
452
  0
LINE
  8
0
 10
257
 20
452
 11
252
 21
452
  0
LINE
  8
0
 10
252
 20
452
 11
252
 21
432
  0
LINE
  8
0
 10
252
 20
432
 11
266.6
 21
432
  0
LINE
  8
0
 10
266.6
 20
432
 11
266.6
 21
438
  0
LINE
  8
0
 10
50
 20
357.1
 11
44
 21
357.1
  0
LINE
  8
0
 10
44
 20
357.1
 11
44
 21
362.9
  0
LINE
  8
0
 10
44
 20
362.9
 11
50
 21
362.9
  0
LINE
  8
0
 10
50
 20
362.9
 11
50
 21
369.1
  0
LINE
  8
0
 10
50
 20
369.1
 11
44
 21
369.1
  0
LINE
  8
0
 10
44
 20
369.1
 11
44
 21
374.9
  0
LINE
  8
0
 10
44
 20
374.9
 11
50
 21
374.9
  0
LINE
  8
0
 10
50
 20
374.9
 11
50
 21
382
  0
LINE
  8
0
 10
50
 20
382
 11
38
 21
382
  0
LINE
  8
0
 10
38
 20
382
 11
38
 21
452
  0
LINE
  8
0
 10
38
 20
452
 11
-13.75
 21
452
  0
LINE
  8
0
 10
-13.75
 20
452
 11
-13.75
 21
411
  0
LINE
  8
0
 10
-13.75
 20
411
 11
-50
 21
411
  0
LINE
  8
0
 10
-50
 20
411
 11
-50
 21
352
  0
LINE
  8
0
 10
-50
 20
352
 11
50
 21
352
  0
LINE
  8
0
 10
50
 20
352
 11
50
 21
357.1
  0
LINE
  8
0
 10
30.5729
 20
441.147
 11
29.0729
 21
442.237
  0
LINE
  8
0
 10
29.0729
 20
442.237
 11
28.5
 21
444
  0
LINE
  8
0
 10
28.5
 20
444
 11
29.0729
 21
445.763
  0
LINE
  8
0
 10
29.0729
 20
445.763
 11
30.5729
 21
446.853
  0
LINE
  8
0
 10
30.5729
 20
446.853
 11
32.427
 21
446.853
  0
LINE
  8
0
 10
32.427
 20
446.853
 11
33.927
 21
445.763
  0
LINE
  8
0
 10
33.927
 20
445.763
 11
34.5
 21
444
  0
LINE
  8
0
 10
34.5
 20
444
 11
33.927
 21
442.237
  0
LINE
  8
0
 10
33.927
 20
442.237
 11
32.427
 21
441.147
  0
LINE
  8
0
 10
32.427
 20
441.147
 11
30.5729
 21
441.147
  0
LINE
  8
0
 10
7.57295
 20
441.147
 11
6.07295
 21
442.237
  0
LINE
  8
0
 10
6.07295
 20
442.237
 11
5.5
 21
444
  0
LINE
  8
0
 10
5.5
 20
444
 11
6.07295
 21
445.763
  0
LINE
  8
0
 10
6.07295
 20
445.763
 11
7.57295
 21
446.853
  0
LINE
  8
0
 10
7.57295
 20
446.853
 11
9.42706
 21
446.853
  0
LINE
  8
0
 10
9.42706
 20
446.853
 11
10.9271
 21
445.763
  0
LINE
  8
0
 10
10.9271
 20
445.763
 11
11.5
 21
444
  0
LINE
  8
0
 10
11.5
 20
444
 11
10.9271
 21
442.237
  0
LINE
  8
0
 10
10.9271
 20
442.237
 11
9.42706
 21
441.147
  0
LINE
  8
0
 10
9.42706
 20
441.147
 11
7.57295
 21
441.147
  0
LINE
  8
0
 10
30.5729
 20
383.147
 11
29.0729
 21
384.237
  0
LINE
  8
0
 10
29.0729
 20
384.237
 11
28.5
 21
386
  0
LINE
  8
0
 10
28.5
 20
386
 11
29.0729
 21
387.763
  0
LINE
  8
0
 10
29.0729
 20
387.763
 11
30.5729
 21
388.853
  0
LINE
  8
0
 10
30.5729
 20
388.853
 11
32.427
 21
388.853
  0
LINE
  8
0
 10
32.427
 20
388.853
 11
33.927
 21
387.763
  0
LINE
  8
0
 10
33.927
 20
387.763
 11
34.5
 21
386
  0
LINE
  8
0
 10
34.5
 20
386
 11
33.927
 21
384.237
  0
LINE
  8
0
 10
33.927
 20
384.237
 11
32.427
 21
383.147
  0
LINE
  8
0
 10
32.427
 20
383.147
 11
30.5729
 21
383.147
  0
LINE
  8
0
 10
7.57295
 20
383.147
 11
6.07295
 21
384.237
  0
LINE
  8
0
 10
6.07295
 20
384.237
 11
5.5
 21
386
  0
LINE
  8
0
 10
5.5
 20
386
 11
6.07295
 21
387.763
  0
LINE
  8
0
 10
6.07295
 20
387.763
 11
7.57295
 21
388.853
  0
LINE
  8
0
 10
7.57295
 20
388.853
 11
9.42706
 21
388.853
  0
LINE
  8
0
 10
9.42706
 20
388.853
 11
10.9271
 21
387.763
  0
LINE
  8
0
 10
10.9271
 20
387.763
 11
11.5
 21
386
  0
LINE
  8
0
 10
11.5
 20
386
 11
10.9271
 21
384.237
  0
LINE
  8
0
 10
10.9271
 20
384.237
 11
9.42706
 21
383.147
  0
LINE
  8
0
 10
9.42706
 20
383.147
 11
7.57295
 21
383.147
  0
LINE
  8
0
 10
29.0729
 20
364.147
 11
27.5729
 21
365.237
  0
LINE
  8
0
 10
27.5729
 20
365.237
 11
27
 21
367
  0
LINE
  8
0
 10
27
 20
367
 11
27.5729
 21
368.763
  0
LINE
  8
0
 10
27.5729
 20
368.763
 11
29.0729
 21
369.853
  0
LINE
  8
0
 10
29.0729
 20
369.853
 11
30.927
 21
369.853
  0
LINE
  8
0
 10
30.927
 20
369.853
 11
32.427
 21
368.763
  0
LINE
  8
0
 10
32.427
 20
368.763
 11
33
 21
367
  0
LINE
  8
0
 10
33
 20
367
 11
32.427
 21
365.237
  0
LINE
  8
0
 10
32.427
 20
365.237
 11
30.927
 21
364.147
  0
LINE
  8
0
 10
30.927
 20
364.147
 11
29.0729
 21
364.147
  0
LINE
  8
0
 10
5.57294
 20
360.647
 11
4.07294
 21
361.737
  0
LINE
  8
0
 10
4.07294
 20
361.737
 11
3.5
 21
363.5
  0
LINE
  8
0
 10
3.5
 20
363.5
 11
4.07294
 21
365.263
  0
LINE
  8
0
 10
4.07294
 20
365.263
 11
5.57294
 21
366.353
  0
LINE
  8
0
 10
5.57294
 20
366.353
 11
7.42705
 21
366.353
  0
LINE
  8
0
 10
7.42705
 20
366.353
 11
8.92705
 21
365.263
  0
LINE
  8
0
 10
8.92705
 20
365.263
 11
9.5
 21
363.5
  0
LINE
  8
0
 10
9.5
 20
363.5
 11
8.92705
 21
361.737
  0
LINE
  8
0
 10
8.92705
 20
361.737
 11
7.42705
 21
360.647
  0
LINE
  8
0
 10
7.42705
 20
360.647
 11
5.57294
 21
360.647
  0
LINE
  8
0
 10
-17.427
 20
360.647
 11
-18.927
 21
361.737
  0
LINE
  8
0
 10
-18.927
 20
361.737
 11
-19.5
 21
363.5
  0
LINE
  8
0
 10
-19.5
 20
363.5
 11
-18.927
 21
365.263
  0
LINE
  8
0
 10
-18.927
 20
365.263
 11
-17.427
 21
366.353
  0
LINE
  8
0
 10
-17.427
 20
366.353
 11
-15.5729
 21
366.353
  0
LINE
  8
0
 10
-15.5729
 20
366.353
 11
-14.0729
 21
365.263
  0
LINE
  8
0
 10
-14.0729
 20
365.263
 11
-13.5
 21
363.5
  0
LINE
  8
0
 10
-13.5
 20
363.5
 11
-14.0729
 21
361.737
  0
LINE
  8
0
 10
-14.0729
 20
361.737
 11
-15.5729
 21
360.647
  0
LINE
  8
0
 10
-15.5729
 20
360.647
 11
-17.427
 21
360.647
  0
LINE
  8
0
 10
65.6
 20
438
 11
71.4
 21
438
  0
LINE
  8
0
 10
71.4
 20
438
 11
71.4
 21
432
  0
LINE
  8
0
 10
71.4
 20
432
 11
86
 21
432
  0
LINE
  8
0
 10
86
 20
432
 11
86
 21
452
  0
LINE
  8
0
 10
86
 20
452
 11
81
 21
452
  0
LINE
  8
0
 10
81
 20
452
 11
81
 21
447
  0
LINE
  8
0
 10
81
 20
447
 11
56
 21
447
  0
LINE
  8
0
 10
56
 20
447
 11
56
 21
452
  0
LINE
  8
0
 10
56
 20
452
 11
51
 21
452
  0
LINE
  8
0
 10
51
 20
452
 11
51
 21
432
  0
LINE
  8
0
 10
51
 20
432
 11
65.6
 21
432
  0
LINE
  8
0
 10
65.6
 20
432
 11
65.6
 21
438
  0
LINE
  8
0
 10
166.1
 20
438
 11
171.9
 21
438
  0
LINE
  8
0
 10
171.9
 20
438
 11
171.9
 21
432
  0
LINE
  8
0
 10
171.9
 20
432
 11
186.5
 21
432
  0
LINE
  8
0
 10
186.5
 20
432
 11
186.5
 21
452
  0
LINE
  8
0
 10
186.5
 20
452
 11
181.5
 21
452
  0
LINE
  8
0
 10
181.5
 20
452
 11
181.5
 21
447
  0
LINE
  8
0
 10
181.5
 20
447
 11
156.5
 21
447
  0
LINE
  8
0
 10
156.5
 20
447
 11
156.5
 21
452
  0
LINE
  8
0
 10
156.5
 20
452
 11
151.5
 21
452
  0
LINE
  8
0
 10
151.5
 20
452
 11
151.5
 21
432
  0
LINE
  8
0
 10
151.5
 20
432
 11
166.1
 21
432
  0
LINE
  8
0
 10
166.1
 20
432
 11
166.1
 21
438
  0
LINE
  8
0
 10
150.5
 20
357.1
 11
144.5
 21
357.1
  0
LINE
  8
0
 10
144.5
 20
357.1
 11
144.5
 21
362.9
  0
LINE
  8
0
 10
144.5
 20
362.9
 11
150.5
 21
362.9
  0
LINE
  8
0
 10
150.5
 20
362.9
 11
150.5
 21
369.1
  0
LINE
  8
0
 10
150.5
 20
369.1
 11
144.5
 21
369.1
  0
LINE
  8
0
 10
144.5
 20
369.1
 11
144.5
 21
374.9
  0
LINE
  8
0
 10
144.5
 20
374.9
 11
150.5
 21
374.9
  0
LINE
  8
0
 10
150.5
 20
374.9
 11
150.5
 21
382
  0
LINE
  8
0
 10
150.5
 20
382
 11
138.5
 21
382
  0
LINE
  8
0
 10
138.5
 20
382
 11
138.5
 21
452
  0
LINE
  8
0
 10
138.5
 20
452
 11
86.75
 21
452
  0
LINE
  8
0
 10
86.75
 20
452
 11
86.75
 21
411
  0
LINE
  8
0
 10
86.75
 20
411
 11
50.5
 21
411
  0
LINE
  8
0
 10
50.5
 20
411
 11
50.5
 21
352
  0
LINE
  8
0
 10
50.5
 20
352
 11
150.5
 21
352
  0
LINE
  8
0
 10
150.5
 20
352
 11
150.5
 21
357.1
  0
LINE
  8
0
 10
108.073
 20
441.147
 11
106.573
 21
442.237
  0
LINE
  8
0
 10
106.573
 20
442.237
 11
106
 21
444
  0
LINE
  8
0
 10
106
 20
444
 11
106.573
 21
445.763
  0
LINE
  8
0
 10
106.573
 20
445.763
 11
108.073
 21
446.853
  0
LINE
  8
0
 10
108.073
 20
446.853
 11
109.927
 21
446.853
  0
LINE
  8
0
 10
109.927
 20
446.853
 11
111.427
 21
445.763
  0
LINE
  8
0
 10
111.427
 20
445.763
 11
112
 21
444
  0
LINE
  8
0
 10
112
 20
444
 11
111.427
 21
442.237
  0
LINE
  8
0
 10
111.427
 20
442.237
 11
109.927
 21
441.147
  0
LINE
  8
0
 10
109.927
 20
441.147
 11
108.073
 21
441.147
  0
LINE
  8
0
 10
131.073
 20
441.147
 11
129.573
 21
442.237
  0
LINE
  8
0
 10
129.573
 20
442.237
 11
129
 21
444
  0
LINE
  8
0
 10
129
 20
444
 11
129.573
 21
445.763
  0
LINE
  8
0
 10
129.573
 20
445.763
 11
131.073
 21
446.853
  0
LINE
  8
0
 10
131.073
 20
446.853
 11
132.927
 21
446.853
  0
LINE
  8
0
 10
132.927
 20
446.853
 11
134.427
 21
445.763
  0
LINE
  8
0
 10
134.427
 20
445.763
 11
135
 21
444
  0
LINE
  8
0
 10
135
 20
444
 11
134.427
 21
442.237
  0
LINE
  8
0
 10
134.427
 20
442.237
 11
132.927
 21
441.147
  0
LINE
  8
0
 10
132.927
 20
441.147
 11
131.073
 21
441.147
  0
LINE
  8
0
 10
108.073
 20
383.147
 11
106.573
 21
384.237
  0
LINE
  8
0
 10
106.573
 20
384.237
 11
106
 21
386
  0
LINE
  8
0
 10
106
 20
386
 11
106.573
 21
387.763
  0
LINE
  8
0
 10
106.573
 20
387.763
 11
108.073
 21
388.853
  0
LINE
  8
0
 10
108.073
 20
388.853
 11
109.927
 21
388.853
  0
LINE
  8
0
 10
109.927
 20
388.853
 11
111.427
 21
387.763
  0
LINE
  8
0
 10
111.427
 20
387.763
 11
112
 21
386
  0
LINE
  8
0
 10
112
 20
386
 11
111.427
 21
384.237
  0
LINE
  8
0
 10
111.427
 20
384.237
 11
109.927
 21
383.147
  0
LINE
  8
0
 10
109.927
 20
383.147
 11
108.073
 21
383.147
  0
LINE
  8
0
 10
131.073
 20
383.147
 11
129.573
 21
384.237
  0
LINE
  8
0
 10
129.573
 20
384.237
 11
129
 21
386
  0
LINE
  8
0
 10
129
 20
386
 11
129.573
 21
387.763
  0
LINE
  8
0
 10
129.573
 20
387.763
 11
131.073
 21
388.853
  0
LINE
  8
0
 10
131.073
 20
388.853
 11
132.927
 21
388.853
  0
LINE
  8
0
 10
132.927
 20
388.853
 11
134.427
 21
387.763
  0
LINE
  8
0
 10
134.427
 20
387.763
 11
135
 21
386
  0
LINE
  8
0
 10
135
 20
386
 11
134.427
 21
384.237
  0
LINE
  8
0
 10
134.427
 20
384.237
 11
132.927
 21
383.147
  0
LINE
  8
0
 10
132.927
 20
383.147
 11
131.073
 21
383.147
  0
LINE
  8
0
 10
129.573
 20
364.147
 11
128.073
 21
365.237
  0
LINE
  8
0
 10
128.073
 20
365.237
 11
127.5
 21
367
  0
LINE
  8
0
 10
127.5
 20
367
 11
128.073
 21
368.763
  0
LINE
  8
0
 10
128.073
 20
368.763
 11
129.573
 21
369.853
  0
LINE
  8
0
 10
129.573
 20
369.853
 11
131.427
 21
369.853
  0
LINE
  8
0
 10
131.427
 20
369.853
 11
132.927
 21
368.763
  0
LINE
  8
0
 10
132.927
 20
368.763
 11
133.5
 21
367
  0
LINE
  8
0
 10
133.5
 20
367
 11
132.927
 21
365.237
  0
LINE
  8
0
 10
132.927
 20
365.237
 11
131.427
 21
364.147
  0
LINE
  8
0
 10
131.427
 20
364.147
 11
129.573
 21
364.147
  0
LINE
  8
0
 10
106.073
 20
360.647
 11
104.573
 21
361.737
  0
LINE
  8
0
 10
104.573
 20
361.737
 11
104
 21
363.5
  0
LINE
  8
0
 10
104
 20
363.5
 11
104.573
 21
365.263
  0
LINE
  8
0
 10
104.573
 20
365.263
 11
106.073
 21
366.353
  0
LINE
  8
0
 10
106.073
 20
366.353
 11
107.927
 21
366.353
  0
LINE
  8
0
 10
107.927
 20
366.353
 11
109.427
 21
365.263
  0
LINE
  8
0
 10
109.427
 20
365.263
 11
110
 21
363.5
  0
LINE
  8
0
 10
110
 20
363.5
 11
109.427
 21
361.737
  0
LINE
  8
0
 10
109.427
 20
361.737
 11
107.927
 21
360.647
  0
LINE
  8
0
 10
107.927
 20
360.647
 11
106.073
 21
360.647
  0
LINE
  8
0
 10
83.073
 20
360.647
 11
81.573
 21
361.737
  0
LINE
  8
0
 10
81.573
 20
361.737
 11
81
 21
363.5
  0
LINE
  8
0
 10
81
 20
363.5
 11
81.573
 21
365.263
  0
LINE
  8
0
 10
81.573
 20
365.263
 11
83.073
 21
366.353
  0
LINE
  8
0
 10
83.073
 20
366.353
 11
84.9271
 21
366.353
  0
LINE
  8
0
 10
84.9271
 20
366.353
 11
86.4271
 21
365.263
  0
LINE
  8
0
 10
86.4271
 20
365.263
 11
87
 21
363.5
  0
LINE
  8
0
 10
87
 20
363.5
 11
86.4271
 21
361.737
  0
LINE
  8
0
 10
86.4271
 20
361.737
 11
84.9271
 21
360.647
  0
LINE
  8
0
 10
84.9271
 20
360.647
 11
83.073
 21
360.647
  0
LINE
  8
0
 10
351.5
 20
357.1
 11
345.5
 21
357.1
  0
LINE
  8
0
 10
345.5
 20
357.1
 11
345.5
 21
362.9
  0
LINE
  8
0
 10
345.5
 20
362.9
 11
351.5
 21
362.9
  0
LINE
  8
0
 10
351.5
 20
362.9
 11
351.5
 21
369.1
  0
LINE
  8
0
 10
351.5
 20
369.1
 11
345.5
 21
369.1
  0
LINE
  8
0
 10
345.5
 20
369.1
 11
345.5
 21
374.9
  0
LINE
  8
0
 10
345.5
 20
374.9
 11
351.5
 21
374.9
  0
LINE
  8
0
 10
351.5
 20
374.9
 11
351.5
 21
382
  0
LINE
  8
0
 10
351.5
 20
382
 11
339.5
 21
382
  0
LINE
  8
0
 10
339.5
 20
382
 11
339.5
 21
452
  0
LINE
  8
0
 10
339.5
 20
452
 11
287.75
 21
452
  0
LINE
  8
0
 10
287.75
 20
452
 11
287.75
 21
411
  0
LINE
  8
0
 10
287.75
 20
411
 11
251.5
 21
411
  0
LINE
  8
0
 10
251.5
 20
411
 11
251.5
 21
352
  0
LINE
  8
0
 10
251.5
 20
352
 11
351.5
 21
352
  0
LINE
  8
0
 10
351.5
 20
352
 11
351.5
 21
357.1
  0
LINE
  8
0
 10
309.073
 20
441.147
 11
307.573
 21
442.237
  0
LINE
  8
0
 10
307.573
 20
442.237
 11
307
 21
444
  0
LINE
  8
0
 10
307
 20
444
 11
307.573
 21
445.763
  0
LINE
  8
0
 10
307.573
 20
445.763
 11
309.073
 21
446.853
  0
LINE
  8
0
 10
309.073
 20
446.853
 11
310.927
 21
446.853
  0
LINE
  8
0
 10
310.927
 20
446.853
 11
312.427
 21
445.763
  0
LINE
  8
0
 10
312.427
 20
445.763
 11
313
 21
444
  0
LINE
  8
0
 10
313
 20
444
 11
312.427
 21
442.237
  0
LINE
  8
0
 10
312.427
 20
442.237
 11
310.927
 21
441.147
  0
LINE
  8
0
 10
310.927
 20
441.147
 11
309.073
 21
441.147
  0
LINE
  8
0
 10
332.073
 20
441.147
 11
330.573
 21
442.237
  0
LINE
  8
0
 10
330.573
 20
442.237
 11
330
 21
444
  0
LINE
  8
0
 10
330
 20
444
 11
330.573
 21
445.763
  0
LINE
  8
0
 10
330.573
 20
445.763
 11
332.073
 21
446.853
  0
LINE
  8
0
 10
332.073
 20
446.853
 11
333.927
 21
446.853
  0
LINE
  8
0
 10
333.927
 20
446.853
 11
335.427
 21
445.763
  0
LINE
  8
0
 10
335.427
 20
445.763
 11
336
 21
444
  0
LINE
  8
0
 10
336
 20
444
 11
335.427
 21
442.237
  0
LINE
  8
0
 10
335.427
 20
442.237
 11
333.927
 21
441.147
  0
LINE
  8
0
 10
333.927
 20
441.147
 11
332.073
 21
441.147
  0
LINE
  8
0
 10
332.073
 20
383.147
 11
330.573
 21
384.237
  0
LINE
  8
0
 10
330.573
 20
384.237
 11
330
 21
386
  0
LINE
  8
0
 10
330
 20
386
 11
330.573
 21
387.763
  0
LINE
  8
0
 10
330.573
 20
387.763
 11
332.073
 21
388.853
  0
LINE
  8
0
 10
332.073
 20
388.853
 11
333.927
 21
388.853
  0
LINE
  8
0
 10
333.927
 20
388.853
 11
335.427
 21
387.763
  0
LINE
  8
0
 10
335.427
 20
387.763
 11
336
 21
386
  0
LINE
  8
0
 10
336
 20
386
 11
335.427
 21
384.237
  0
LINE
  8
0
 10
335.427
 20
384.237
 11
333.927
 21
383.147
  0
LINE
  8
0
 10
333.927
 20
383.147
 11
332.073
 21
383.147
  0
LINE
  8
0
 10
309.073
 20
383.147
 11
307.573
 21
384.237
  0
LINE
  8
0
 10
307.573
 20
384.237
 11
307
 21
386
  0
LINE
  8
0
 10
307
 20
386
 11
307.573
 21
387.763
  0
LINE
  8
0
 10
307.573
 20
387.763
 11
309.073
 21
388.853
  0
LINE
  8
0
 10
309.073
 20
388.853
 11
310.927
 21
388.853
  0
LINE
  8
0
 10
310.927
 20
388.853
 11
312.427
 21
387.763
  0
LINE
  8
0
 10
312.427
 20
387.763
 11
313
 21
386
  0
LINE
  8
0
 10
313
 20
386
 11
312.427
 21
384.237
  0
LINE
  8
0
 10
312.427
 20
384.237
 11
310.927
 21
383.147
  0
LINE
  8
0
 10
310.927
 20
383.147
 11
309.073
 21
383.147
  0
LINE
  8
0
 10
330.573
 20
364.147
 11
329.073
 21
365.237
  0
LINE
  8
0
 10
329.073
 20
365.237
 11
328.5
 21
367
  0
LINE
  8
0
 10
328.5
 20
367
 11
329.073
 21
368.763
  0
LINE
  8
0
 10
329.073
 20
368.763
 11
330.573
 21
369.853
  0
LINE
  8
0
 10
330.573
 20
369.853
 11
332.427
 21
369.853
  0
LINE
  8
0
 10
332.427
 20
369.853
 11
333.927
 21
368.763
  0
LINE
  8
0
 10
333.927
 20
368.763
 11
334.5
 21
367
  0
LINE
  8
0
 10
334.5
 20
367
 11
333.927
 21
365.237
  0
LINE
  8
0
 10
333.927
 20
365.237
 11
332.427
 21
364.147
  0
LINE
  8
0
 10
332.427
 20
364.147
 11
330.573
 21
364.147
  0
LINE
  8
0
 10
284.073
 20
360.647
 11
282.573
 21
361.737
  0
LINE
  8
0
 10
282.573
 20
361.737
 11
282
 21
363.5
  0
LINE
  8
0
 10
282
 20
363.5
 11
282.573
 21
365.263
  0
LINE
  8
0
 10
282.573
 20
365.263
 11
284.073
 21
366.353
  0
LINE
  8
0
 10
284.073
 20
366.353
 11
285.927
 21
366.353
  0
LINE
  8
0
 10
285.927
 20
366.353
 11
287.427
 21
365.263
  0
LINE
  8
0
 10
287.427
 20
365.263
 11
288
 21
363.5
  0
LINE
  8
0
 10
288
 20
363.5
 11
287.427
 21
361.737
  0
LINE
  8
0
 10
287.427
 20
361.737
 11
285.927
 21
360.647
  0
LINE
  8
0
 10
285.927
 20
360.647
 11
284.073
 21
360.647
  0
LINE
  8
0
 10
307.073
 20
360.647
 11
305.573
 21
361.737
  0
LINE
  8
0
 10
305.573
 20
361.737
 11
305
 21
363.5
  0
LINE
  8
0
 10
305
 20
363.5
 11
305.573
 21
365.263
  0
LINE
  8
0
 10
305.573
 20
365.263
 11
307.073
 21
366.353
  0
LINE
  8
0
 10
307.073
 20
366.353
 11
308.927
 21
366.353
  0
LINE
  8
0
 10
308.927
 20
366.353
 11
310.427
 21
365.263
  0
LINE
  8
0
 10
310.427
 20
365.263
 11
311
 21
363.5
  0
LINE
  8
0
 10
311
 20
363.5
 11
310.427
 21
361.737
  0
LINE
  8
0
 10
310.427
 20
361.737
 11
308.927
 21
360.647
  0
LINE
  8
0
 10
308.927
 20
360.647
 11
307.073
 21
360.647
  0
LINE
  8
0
 10
-34.9
 20
438
 11
-29.1
 21
438
  0
LINE
  8
0
 10
-29.1
 20
438
 11
-29.1
 21
432
  0
LINE
  8
0
 10
-29.1
 20
432
 11
-14.5
 21
432
  0
LINE
  8
0
 10
-14.5
 20
432
 11
-14.5
 21
452
  0
LINE
  8
0
 10
-14.5
 20
452
 11
-19.5
 21
452
  0
LINE
  8
0
 10
-19.5
 20
452
 11
-19.5
 21
447
  0
LINE
  8
0
 10
-19.5
 20
447
 11
-44.5
 21
447
  0
LINE
  8
0
 10
-44.5
 20
447
 11
-44.5
 21
452
  0
LINE
  8
0
 10
-44.5
 20
452
 11
-49.5
 21
452
  0
LINE
  8
0
 10
-49.5
 20
452
 11
-49.5
 21
432
  0
LINE
  8
0
 10
-49.5
 20
432
 11
-34.9
 21
432
  0
LINE
  8
0
 10
-34.9
 20
432
 11
-34.9
 21
438
  0
LINE
  8
0
 10
251
 20
357.1
 11
245
 21
357.1
  0
LINE
  8
0
 10
245
 20
357.1
 11
245
 21
362.9
  0
LINE
  8
0
 10
245
 20
362.9
 11
251
 21
362.9
  0
LINE
  8
0
 10
251
 20
362.9
 11
251
 21
369.1
  0
LINE
  8
0
 10
251
 20
369.1
 11
245
 21
369.1
  0
LINE
  8
0
 10
245
 20
369.1
 11
245
 21
374.9
  0
LINE
  8
0
 10
245
 20
374.9
 11
251
 21
374.9
  0
LINE
  8
0
 10
251
 20
374.9
 11
251
 21
382
  0
LINE
  8
0
 10
251
 20
382
 11
239
 21
382
  0
LINE
  8
0
 10
239
 20
382
 11
239
 21
452
  0
LINE
  8
0
 10
239
 20
452
 11
187.25
 21
452
  0
LINE
  8
0
 10
187.25
 20
452
 11
187.25
 21
411
  0
LINE
  8
0
 10
187.25
 20
411
 11
151
 21
411
  0
LINE
  8
0
 10
151
 20
411
 11
151
 21
352
  0
LINE
  8
0
 10
151
 20
352
 11
251
 21
352
  0
LINE
  8
0
 10
251
 20
352
 11
251
 21
357.1
  0
LINE
  8
0
 10
231.573
 20
441.147
 11
230.073
 21
442.237
  0
LINE
  8
0
 10
230.073
 20
442.237
 11
229.5
 21
444
  0
LINE
  8
0
 10
229.5
 20
444
 11
230.073
 21
445.763
  0
LINE
  8
0
 10
230.073
 20
445.763
 11
231.573
 21
446.853
  0
LINE
  8
0
 10
231.573
 20
446.853
 11
233.427
 21
446.853
  0
LINE
  8
0
 10
233.427
 20
446.853
 11
234.927
 21
445.763
  0
LINE
  8
0
 10
234.927
 20
445.763
 11
235.5
 21
444
  0
LINE
  8
0
 10
235.5
 20
444
 11
234.927
 21
442.237
  0
LINE
  8
0
 10
234.927
 20
442.237
 11
233.427
 21
441.147
  0
LINE
  8
0
 10
233.427
 20
441.147
 11
231.573
 21
441.147
  0
LINE
  8
0
 10
208.573
 20
441.147
 11
207.073
 21
442.237
  0
LINE
  8
0
 10
207.073
 20
442.237
 11
206.5
 21
444
  0
LINE
  8
0
 10
206.5
 20
444
 11
207.073
 21
445.763
  0
LINE
  8
0
 10
207.073
 20
445.763
 11
208.573
 21
446.853
  0
LINE
  8
0
 10
208.573
 20
446.853
 11
210.427
 21
446.853
  0
LINE
  8
0
 10
210.427
 20
446.853
 11
211.927
 21
445.763
  0
LINE
  8
0
 10
211.927
 20
445.763
 11
212.5
 21
444
  0
LINE
  8
0
 10
212.5
 20
444
 11
211.927
 21
442.237
  0
LINE
  8
0
 10
211.927
 20
442.237
 11
210.427
 21
441.147
  0
LINE
  8
0
 10
210.427
 20
441.147
 11
208.573
 21
441.147
  0
LINE
  8
0
 10
231.573
 20
383.147
 11
230.073
 21
384.237
  0
LINE
  8
0
 10
230.073
 20
384.237
 11
229.5
 21
386
  0
LINE
  8
0
 10
229.5
 20
386
 11
230.073
 21
387.763
  0
LINE
  8
0
 10
230.073
 20
387.763
 11
231.573
 21
388.853
  0
LINE
  8
0
 10
231.573
 20
388.853
 11
233.427
 21
388.853
  0
LINE
  8
0
 10
233.427
 20
388.853
 11
234.927
 21
387.763
  0
LINE
  8
0
 10
234.927
 20
387.763
 11
235.5
 21
386
  0
LINE
  8
0
 10
235.5
 20
386
 11
234.927
 21
384.237
  0
LINE
  8
0
 10
234.927
 20
384.237
 11
233.427
 21
383.147
  0
LINE
  8
0
 10
233.427
 20
383.147
 11
231.573
 21
383.147
  0
LINE
  8
0
 10
208.573
 20
383.147
 11
207.073
 21
384.237
  0
LINE
  8
0
 10
207.073
 20
384.237
 11
206.5
 21
386
  0
LINE
  8
0
 10
206.5
 20
386
 11
207.073
 21
387.763
  0
LINE
  8
0
 10
207.073
 20
387.763
 11
208.573
 21
388.853
  0
LINE
  8
0
 10
208.573
 20
388.853
 11
210.427
 21
388.853
  0
LINE
  8
0
 10
210.427
 20
388.853
 11
211.927
 21
387.763
  0
LINE
  8
0
 10
211.927
 20
387.763
 11
212.5
 21
386
  0
LINE
  8
0
 10
212.5
 20
386
 11
211.927
 21
384.237
  0
LINE
  8
0
 10
211.927
 20
384.237
 11
210.427
 21
383.147
  0
LINE
  8
0
 10
210.427
 20
383.147
 11
208.573
 21
383.147
  0
LINE
  8
0
 10
230.073
 20
364.147
 11
228.573
 21
365.237
  0
LINE
  8
0
 10
228.573
 20
365.237
 11
228
 21
367
  0
LINE
  8
0
 10
228
 20
367
 11
228.573
 21
368.763
  0
LINE
  8
0
 10
228.573
 20
368.763
 11
230.073
 21
369.853
  0
LINE
  8
0
 10
230.073
 20
369.853
 11
231.927
 21
369.853
  0
LINE
  8
0
 10
231.927
 20
369.853
 11
233.427
 21
368.763
  0
LINE
  8
0
 10
233.427
 20
368.763
 11
234
 21
367
  0
LINE
  8
0
 10
234
 20
367
 11
233.427
 21
365.237
  0
LINE
  8
0
 10
233.427
 20
365.237
 11
231.927
 21
364.147
  0
LINE
  8
0
 10
231.927
 20
364.147
 11
230.073
 21
364.147
  0
LINE
  8
0
 10
183.573
 20
360.647
 11
182.073
 21
361.737
  0
LINE
  8
0
 10
182.073
 20
361.737
 11
181.5
 21
363.5
  0
LINE
  8
0
 10
181.5
 20
363.5
 11
182.073
 21
365.263
  0
LINE
  8
0
 10
182.073
 20
365.263
 11
183.573
 21
366.353
  0
LINE
  8
0
 10
183.573
 20
366.353
 11
185.427
 21
366.353
  0
LINE
  8
0
 10
185.427
 20
366.353
 11
186.927
 21
365.263
  0
LINE
  8
0
 10
186.927
 20
365.263
 11
187.5
 21
363.5
  0
LINE
  8
0
 10
187.5
 20
363.5
 11
186.927
 21
361.737
  0
LINE
  8
0
 10
186.927
 20
361.737
 11
185.427
 21
360.647
  0
LINE
  8
0
 10
185.427
 20
360.647
 11
183.573
 21
360.647
  0
LINE
  8
0
 10
206.573
 20
360.647
 11
205.073
 21
361.737
  0
LINE
  8
0
 10
205.073
 20
361.737
 11
204.5
 21
363.5
  0
LINE
  8
0
 10
204.5
 20
363.5
 11
205.073
 21
365.263
  0
LINE
  8
0
 10
205.073
 20
365.263
 11
206.573
 21
366.353
  0
LINE
  8
0
 10
206.573
 20
366.353
 11
208.427
 21
366.353
  0
LINE
  8
0
 10
208.427
 20
366.353
 11
209.927
 21
365.263
  0
LINE
  8
0
 10
209.927
 20
365.263
 11
210.5
 21
363.5
  0
LINE
  8
0
 10
210.5
 20
363.5
 11
209.927
 21
361.737
  0
LINE
  8
0
 10
209.927
 20
361.737
 11
208.427
 21
360.647
  0
LINE
  8
0
 10
208.427
 20
360.647
 11
206.573
 21
360.647
  0
LINE
  8
0
 10
266.6
 20
417.5
 11
272.4
 21
417.5
  0
LINE
  8
0
 10
272.4
 20
417.5
 11
272.4
 21
411.5
  0
LINE
  8
0
 10
272.4
 20
411.5
 11
287
 21
411.5
  0
LINE
  8
0
 10
287
 20
411.5
 11
287
 21
431.5
  0
LINE
  8
0
 10
287
 20
431.5
 11
282
 21
431.5
  0
LINE
  8
0
 10
282
 20
431.5
 11
282
 21
426.5
  0
LINE
  8
0
 10
282
 20
426.5
 11
257
 21
426.5
  0
LINE
  8
0
 10
257
 20
426.5
 11
257
 21
431.5
  0
LINE
  8
0
 10
257
 20
431.5
 11
252
 21
431.5
  0
LINE
  8
0
 10
252
 20
431.5
 11
252
 21
411.5
  0
LINE
  8
0
 10
252
 20
411.5
 11
266.6
 21
411.5
  0
LINE
  8
0
 10
266.6
 20
411.5
 11
266.6
 21
417.5
  0
LINE
  8
0
 10
166.1
 20
417.5
 11
171.9
 21
417.5
  0
LINE
  8
0
 10
171.9
 20
417.5
 11
171.9
 21
411.5
  0
LINE
  8
0
 10
171.9
 20
411.5
 11
186.5
 21
411.5
  0
LINE
  8
0
 10
186.5
 20
411.5
 11
186.5
 21
431.5
  0
LINE
  8
0
 10
186.5
 20
431.5
 11
181.5
 21
431.5
  0
LINE
  8
0
 10
181.5
 20
431.5
 11
181.5
 21
426.5
  0
LINE
  8
0
 10
181.5
 20
426.5
 11
156.5
 21
426.5
  0
LINE
  8
0
 10
156.5
 20
426.5
 11
156.5
 21
431.5
  0
LINE
  8
0
 10
156.5
 20
431.5
 11
151.5
 21
431.5
  0
LINE
  8
0
 10
151.5
 20
431.5
 11
151.5
 21
411.5
  0
LINE
  8
0
 10
151.5
 20
411.5
 11
166.1
 21
411.5
  0
LINE
  8
0
 10
166.1
 20
411.5
 11
166.1
 21
417.5
  0
LINE
  8
0
 10
-34.9
 20
417.5
 11
-29.1
 21
417.5
  0
LINE
  8
0
 10
-29.1
 20
417.5
 11
-29.1
 21
411.5
  0
LINE
  8
0
 10
-29.1
 20
411.5
 11
-14.5
 21
411.5
  0
LINE
  8
0
 10
-14.5
 20
411.5
 11
-14.5
 21
431.5
  0
LINE
  8
0
 10
-14.5
 20
431.5
 11
-19.5
 21
431.5
  0
LINE
  8
0
 10
-19.5
 20
431.5
 11
-19.5
 21
426.5
  0
LINE
  8
0
 10
-19.5
 20
426.5
 11
-44.5
 21
426.5
  0
LINE
  8
0
 10
-44.5
 20
426.5
 11
-44.5
 21
431.5
  0
LINE
  8
0
 10
-44.5
 20
431.5
 11
-49.5
 21
431.5
  0
LINE
  8
0
 10
-49.5
 20
431.5
 11
-49.5
 21
411.5
  0
LINE
  8
0
 10
-49.5
 20
411.5
 11
-34.9
 21
411.5
  0
LINE
  8
0
 10
-34.9
 20
411.5
 11
-34.9
 21
417.5
  0
LINE
  8
0
 10
65.6
 20
417.5
 11
71.4
 21
417.5
  0
LINE
  8
0
 10
71.4
 20
417.5
 11
71.4
 21
411.5
  0
LINE
  8
0
 10
71.4
 20
411.5
 11
86
 21
411.5
  0
LINE
  8
0
 10
86
 20
411.5
 11
86
 21
431.5
  0
LINE
  8
0
 10
86
 20
431.5
 11
81
 21
431.5
  0
LINE
  8
0
 10
81
 20
431.5
 11
81
 21
426.5
  0
LINE
  8
0
 10
81
 20
426.5
 11
56
 21
426.5
  0
LINE
  8
0
 10
56
 20
426.5
 11
56
 21
431.5
  0
LINE
  8
0
 10
56
 20
431.5
 11
51
 21
431.5
  0
LINE
  8
0
 10
51
 20
431.5
 11
51
 21
411.5
  0
LINE
  8
0
 10
51
 20
411.5
 11
65.6
 21
411.5
  0
LINE
  8
0
 10
65.6
 20
411.5
 11
65.6
 21
417.5
  0
LINE
  8
0
 10
-34.9
 20
337.5
 11
-29.1
 21
337.5
  0
LINE
  8
0
 10
-29.1
 20
337.5
 11
-29.1
 21
331.5
  0
LINE
  8
0
 10
-29.1
 20
331.5
 11
-14.5
 21
331.5
  0
LINE
  8
0
 10
-14.5
 20
331.5
 11
-14.5
 21
351.5
  0
LINE
  8
0
 10
-14.5
 20
351.5
 11
-19.5
 21
351.5
  0
LINE
  8
0
 10
-19.5
 20
351.5
 11
-19.5
 21
346.5
  0
LINE
  8
0
 10
-19.5
 20
346.5
 11
-44.5
 21
346.5
  0
LINE
  8
0
 10
-44.5
 20
346.5
 11
-44.5
 21
351.5
  0
LINE
  8
0
 10
-44.5
 20
351.5
 11
-49.5
 21
351.5
  0
LINE
  8
0
 10
-49.5
 20
351.5
 11
-49.5
 21
331.5
  0
LINE
  8
0
 10
-49.5
 20
331.5
 11
-34.9
 21
331.5
  0
LINE
  8
0
 10
-34.9
 20
331.5
 11
-34.9
 21
337.5
  0
LINE
  8
0
 10
251
 20
256.6
 11
245
 21
256.6
  0
LINE
  8
0
 10
245
 20
256.6
 11
245
 21
262.4
  0
LINE
  8
0
 10
245
 20
262.4
 11
251
 21
262.4
  0
LINE
  8
0
 10
251
 20
262.4
 11
251
 21
268.6
  0
LINE
  8
0
 10
251
 20
268.6
 11
245
 21
268.6
  0
LINE
  8
0
 10
245
 20
268.6
 11
245
 21
274.4
  0
LINE
  8
0
 10
245
 20
274.4
 11
251
 21
274.4
  0
LINE
  8
0
 10
251
 20
274.4
 11
251
 21
281.5
  0
LINE
  8
0
 10
251
 20
281.5
 11
239
 21
281.5
  0
LINE
  8
0
 10
239
 20
281.5
 11
239
 21
351.5
  0
LINE
  8
0
 10
239
 20
351.5
 11
187.25
 21
351.5
  0
LINE
  8
0
 10
187.25
 20
351.5
 11
187.25
 21
310.5
  0
LINE
  8
0
 10
187.25
 20
310.5
 11
151
 21
310.5
  0
LINE
  8
0
 10
151
 20
310.5
 11
151
 21
251.5
  0
LINE
  8
0
 10
151
 20
251.5
 11
251
 21
251.5
  0
LINE
  8
0
 10
251
 20
251.5
 11
251
 21
256.6
  0
LINE
  8
0
 10
231.573
 20
340.647
 11
230.073
 21
341.737
  0
LINE
  8
0
 10
230.073
 20
341.737
 11
229.5
 21
343.5
  0
LINE
  8
0
 10
229.5
 20
343.5
 11
230.073
 21
345.263
  0
LINE
  8
0
 10
230.073
 20
345.263
 11
231.573
 21
346.353
  0
LINE
  8
0
 10
231.573
 20
346.353
 11
233.427
 21
346.353
  0
LINE
  8
0
 10
233.427
 20
346.353
 11
234.927
 21
345.263
  0
LINE
  8
0
 10
234.927
 20
345.263
 11
235.5
 21
343.5
  0
LINE
  8
0
 10
235.5
 20
343.5
 11
234.927
 21
341.737
  0
LINE
  8
0
 10
234.927
 20
341.737
 11
233.427
 21
340.647
  0
LINE
  8
0
 10
233.427
 20
340.647
 11
231.573
 21
340.647
  0
LINE
  8
0
 10
208.573
 20
340.647
 11
207.073
 21
341.737
  0
LINE
  8
0
 10
207.073
 20
341.737
 11
206.5
 21
343.5
  0
LINE
  8
0
 10
206.5
 20
343.5
 11
207.073
 21
345.263
  0
LINE
  8
0
 10
207.073
 20
345.263
 11
208.573
 21
346.353
  0
LINE
  8
0
 10
208.573
 20
346.353
 11
210.427
 21
346.353
  0
LINE
  8
0
 10
210.427
 20
346.353
 11
211.927
 21
345.263
  0
LINE
  8
0
 10
211.927
 20
345.263
 11
212.5
 21
343.5
  0
LINE
  8
0
 10
212.5
 20
343.5
 11
211.927
 21
341.737
  0
LINE
  8
0
 10
211.927
 20
341.737
 11
210.427
 21
340.647
  0
LINE
  8
0
 10
210.427
 20
340.647
 11
208.573
 21
340.647
  0
LINE
  8
0
 10
208.573
 20
282.647
 11
207.073
 21
283.737
  0
LINE
  8
0
 10
207.073
 20
283.737
 11
206.5
 21
285.5
  0
LINE
  8
0
 10
206.5
 20
285.5
 11
207.073
 21
287.263
  0
LINE
  8
0
 10
207.073
 20
287.263
 11
208.573
 21
288.353
  0
LINE
  8
0
 10
208.573
 20
288.353
 11
210.427
 21
288.353
  0
LINE
  8
0
 10
210.427
 20
288.353
 11
211.927
 21
287.263
  0
LINE
  8
0
 10
211.927
 20
287.263
 11
212.5
 21
285.5
  0
LINE
  8
0
 10
212.5
 20
285.5
 11
211.927
 21
283.737
  0
LINE
  8
0
 10
211.927
 20
283.737
 11
210.427
 21
282.647
  0
LINE
  8
0
 10
210.427
 20
282.647
 11
208.573
 21
282.647
  0
LINE
  8
0
 10
231.573
 20
282.647
 11
230.073
 21
283.737
  0
LINE
  8
0
 10
230.073
 20
283.737
 11
229.5
 21
285.5
  0
LINE
  8
0
 10
229.5
 20
285.5
 11
230.073
 21
287.263
  0
LINE
  8
0
 10
230.073
 20
287.263
 11
231.573
 21
288.353
  0
LINE
  8
0
 10
231.573
 20
288.353
 11
233.427
 21
288.353
  0
LINE
  8
0
 10
233.427
 20
288.353
 11
234.927
 21
287.263
  0
LINE
  8
0
 10
234.927
 20
287.263
 11
235.5
 21
285.5
  0
LINE
  8
0
 10
235.5
 20
285.5
 11
234.927
 21
283.737
  0
LINE
  8
0
 10
234.927
 20
283.737
 11
233.427
 21
282.647
  0
LINE
  8
0
 10
233.427
 20
282.647
 11
231.573
 21
282.647
  0
LINE
  8
0
 10
230.073
 20
263.647
 11
228.573
 21
264.737
  0
LINE
  8
0
 10
228.573
 20
264.737
 11
228
 21
266.5
  0
LINE
  8
0
 10
228
 20
266.5
 11
228.573
 21
268.263
  0
LINE
  8
0
 10
228.573
 20
268.263
 11
230.073
 21
269.353
  0
LINE
  8
0
 10
230.073
 20
269.353
 11
231.927
 21
269.353
  0
LINE
  8
0
 10
231.927
 20
269.353
 11
233.427
 21
268.263
  0
LINE
  8
0
 10
233.427
 20
268.263
 11
234
 21
266.5
  0
LINE
  8
0
 10
234
 20
266.5
 11
233.427
 21
264.737
  0
LINE
  8
0
 10
233.427
 20
264.737
 11
231.927
 21
263.647
  0
LINE
  8
0
 10
231.927
 20
263.647
 11
230.073
 21
263.647
  0
LINE
  8
0
 10
183.573
 20
260.147
 11
182.073
 21
261.237
  0
LINE
  8
0
 10
182.073
 20
261.237
 11
181.5
 21
263
  0
LINE
  8
0
 10
181.5
 20
263
 11
182.073
 21
264.763
  0
LINE
  8
0
 10
182.073
 20
264.763
 11
183.573
 21
265.853
  0
LINE
  8
0
 10
183.573
 20
265.853
 11
185.427
 21
265.853
  0
LINE
  8
0
 10
185.427
 20
265.853
 11
186.927
 21
264.763
  0
LINE
  8
0
 10
186.927
 20
264.763
 11
187.5
 21
263
  0
LINE
  8
0
 10
187.5
 20
263
 11
186.927
 21
261.237
  0
LINE
  8
0
 10
186.927
 20
261.237
 11
185.427
 21
260.147
  0
LINE
  8
0
 10
185.427
 20
260.147
 11
183.573
 21
260.147
  0
LINE
  8
0
 10
206.573
 20
260.147
 11
205.073
 21
261.237
  0
LINE
  8
0
 10
205.073
 20
261.237
 11
204.5
 21
263
  0
LINE
  8
0
 10
204.5
 20
263
 11
205.073
 21
264.763
  0
LINE
  8
0
 10
205.073
 20
264.763
 11
206.573
 21
265.853
  0
LINE
  8
0
 10
206.573
 20
265.853
 11
208.427
 21
265.853
  0
LINE
  8
0
 10
208.427
 20
265.853
 11
209.927
 21
264.763
  0
LINE
  8
0
 10
209.927
 20
264.763
 11
210.5
 21
263
  0
LINE
  8
0
 10
210.5
 20
263
 11
209.927
 21
261.237
  0
LINE
  8
0
 10
209.927
 20
261.237
 11
208.427
 21
260.147
  0
LINE
  8
0
 10
208.427
 20
260.147
 11
206.573
 21
260.147
  0
LINE
  8
0
 10
351.5
 20
256.6
 11
345.5
 21
256.6
  0
LINE
  8
0
 10
345.5
 20
256.6
 11
345.5
 21
262.4
  0
LINE
  8
0
 10
345.5
 20
262.4
 11
351.5
 21
262.4
  0
LINE
  8
0
 10
351.5
 20
262.4
 11
351.5
 21
268.6
  0
LINE
  8
0
 10
351.5
 20
268.6
 11
345.5
 21
268.6
  0
LINE
  8
0
 10
345.5
 20
268.6
 11
345.5
 21
274.4
  0
LINE
  8
0
 10
345.5
 20
274.4
 11
351.5
 21
274.4
  0
LINE
  8
0
 10
351.5
 20
274.4
 11
351.5
 21
281.5
  0
LINE
  8
0
 10
351.5
 20
281.5
 11
339.5
 21
281.5
  0
LINE
  8
0
 10
339.5
 20
281.5
 11
339.5
 21
351.5
  0
LINE
  8
0
 10
339.5
 20
351.5
 11
287.75
 21
351.5
  0
LINE
  8
0
 10
287.75
 20
351.5
 11
287.75
 21
310.5
  0
LINE
  8
0
 10
287.75
 20
310.5
 11
251.5
 21
310.5
  0
LINE
  8
0
 10
251.5
 20
310.5
 11
251.5
 21
251.5
  0
LINE
  8
0
 10
251.5
 20
251.5
 11
351.5
 21
251.5
  0
LINE
  8
0
 10
351.5
 20
251.5
 11
351.5
 21
256.6
  0
LINE
  8
0
 10
332.073
 20
340.647
 11
330.573
 21
341.737
  0
LINE
  8
0
 10
330.573
 20
341.737
 11
330
 21
343.5
  0
LINE
  8
0
 10
330
 20
343.5
 11
330.573
 21
345.263
  0
LINE
  8
0
 10
330.573
 20
345.263
 11
332.073
 21
346.353
  0
LINE
  8
0
 10
332.073
 20
346.353
 11
333.927
 21
346.353
  0
LINE
  8
0
 10
333.927
 20
346.353
 11
335.427
 21
345.263
  0
LINE
  8
0
 10
335.427
 20
345.263
 11
336
 21
343.5
  0
LINE
  8
0
 10
336
 20
343.5
 11
335.427
 21
341.737
  0
LINE
  8
0
 10
335.427
 20
341.737
 11
333.927
 21
340.647
  0
LINE
  8
0
 10
333.927
 20
340.647
 11
332.073
 21
340.647
  0
LINE
  8
0
 10
309.073
 20
340.647
 11
307.573
 21
341.737
  0
LINE
  8
0
 10
307.573
 20
341.737
 11
307
 21
343.5
  0
LINE
  8
0
 10
307
 20
343.5
 11
307.573
 21
345.263
  0
LINE
  8
0
 10
307.573
 20
345.263
 11
309.073
 21
346.353
  0
LINE
  8
0
 10
309.073
 20
346.353
 11
310.927
 21
346.353
  0
LINE
  8
0
 10
310.927
 20
346.353
 11
312.427
 21
345.263
  0
LINE
  8
0
 10
312.427
 20
345.263
 11
313
 21
343.5
  0
LINE
  8
0
 10
313
 20
343.5
 11
312.427
 21
341.737
  0
LINE
  8
0
 10
312.427
 20
341.737
 11
310.927
 21
340.647
  0
LINE
  8
0
 10
310.927
 20
340.647
 11
309.073
 21
340.647
  0
LINE
  8
0
 10
332.073
 20
282.647
 11
330.573
 21
283.737
  0
LINE
  8
0
 10
330.573
 20
283.737
 11
330
 21
285.5
  0
LINE
  8
0
 10
330
 20
285.5
 11
330.573
 21
287.263
  0
LINE
  8
0
 10
330.573
 20
287.263
 11
332.073
 21
288.353
  0
LINE
  8
0
 10
332.073
 20
288.353
 11
333.927
 21
288.353
  0
LINE
  8
0
 10
333.927
 20
288.353
 11
335.427
 21
287.263
  0
LINE
  8
0
 10
335.427
 20
287.263
 11
336
 21
285.5
  0
LINE
  8
0
 10
336
 20
285.5
 11
335.427
 21
283.737
  0
LINE
  8
0
 10
335.427
 20
283.737
 11
333.927
 21
282.647
  0
LINE
  8
0
 10
333.927
 20
282.647
 11
332.073
 21
282.647
  0
LINE
  8
0
 10
309.073
 20
282.647
 11
307.573
 21
283.737
  0
LINE
  8
0
 10
307.573
 20
283.737
 11
307
 21
285.5
  0
LINE
  8
0
 10
307
 20
285.5
 11
307.573
 21
287.263
  0
LINE
  8
0
 10
307.573
 20
287.263
 11
309.073
 21
288.353
  0
LINE
  8
0
 10
309.073
 20
288.353
 11
310.927
 21
288.353
  0
LINE
  8
0
 10
310.927
 20
288.353
 11
312.427
 21
287.263
  0
LINE
  8
0
 10
312.427
 20
287.263
 11
313
 21
285.5
  0
LINE
  8
0
 10
313
 20
285.5
 11
312.427
 21
283.737
  0
LINE
  8
0
 10
312.427
 20
283.737
 11
310.927
 21
282.647
  0
LINE
  8
0
 10
310.927
 20
282.647
 11
309.073
 21
282.647
  0
LINE
  8
0
 10
330.573
 20
263.647
 11
329.073
 21
264.737
  0
LINE
  8
0
 10
329.073
 20
264.737
 11
328.5
 21
266.5
  0
LINE
  8
0
 10
328.5
 20
266.5
 11
329.073
 21
268.263
  0
LINE
  8
0
 10
329.073
 20
268.263
 11
330.573
 21
269.353
  0
LINE
  8
0
 10
330.573
 20
269.353
 11
332.427
 21
269.353
  0
LINE
  8
0
 10
332.427
 20
269.353
 11
333.927
 21
268.263
  0
LINE
  8
0
 10
333.927
 20
268.263
 11
334.5
 21
266.5
  0
LINE
  8
0
 10
334.5
 20
266.5
 11
333.927
 21
264.737
  0
LINE
  8
0
 10
333.927
 20
264.737
 11
332.427
 21
263.647
  0
LINE
  8
0
 10
332.427
 20
263.647
 11
330.573
 21
263.647
  0
LINE
  8
0
 10
284.073
 20
260.147
 11
282.573
 21
261.237
  0
LINE
  8
0
 10
282.573
 20
261.237
 11
282
 21
263
  0
LINE
  8
0
 10
282
 20
263
 11
282.573
 21
264.763
  0
LINE
  8
0
 10
282.573
 20
264.763
 11
284.073
 21
265.853
  0
LINE
  8
0
 10
284.073
 20
265.853
 11
285.927
 21
265.853
  0
LINE
  8
0
 10
285.927
 20
265.853
 11
287.427
 21
264.763
  0
LINE
  8
0
 10
287.427
 20
264.763
 11
288
 21
263
  0
LINE
  8
0
 10
288
 20
263
 11
287.427
 21
261.237
  0
LINE
  8
0
 10
287.427
 20
261.237
 11
285.927
 21
260.147
  0
LINE
  8
0
 10
285.927
 20
260.147
 11
284.073
 21
260.147
  0
LINE
  8
0
 10
307.073
 20
260.147
 11
305.573
 21
261.237
  0
LINE
  8
0
 10
305.573
 20
261.237
 11
305
 21
263
  0
LINE
  8
0
 10
305
 20
263
 11
305.573
 21
264.763
  0
LINE
  8
0
 10
305.573
 20
264.763
 11
307.073
 21
265.853
  0
LINE
  8
0
 10
307.073
 20
265.853
 11
308.927
 21
265.853
  0
LINE
  8
0
 10
308.927
 20
265.853
 11
310.427
 21
264.763
  0
LINE
  8
0
 10
310.427
 20
264.763
 11
311
 21
263
  0
LINE
  8
0
 10
311
 20
263
 11
310.427
 21
261.237
  0
LINE
  8
0
 10
310.427
 20
261.237
 11
308.927
 21
260.147
  0
LINE
  8
0
 10
308.927
 20
260.147
 11
307.073
 21
260.147
  0
LINE
  8
0
 10
266.6
 20
337.5
 11
272.4
 21
337.5
  0
LINE
  8
0
 10
272.4
 20
337.5
 11
272.4
 21
331.5
  0
LINE
  8
0
 10
272.4
 20
331.5
 11
287
 21
331.5
  0
LINE
  8
0
 10
287
 20
331.5
 11
287
 21
351.5
  0
LINE
  8
0
 10
287
 20
351.5
 11
282
 21
351.5
  0
LINE
  8
0
 10
282
 20
351.5
 11
282
 21
346.5
  0
LINE
  8
0
 10
282
 20
346.5
 11
257
 21
346.5
  0
LINE
  8
0
 10
257
 20
346.5
 11
257
 21
351.5
  0
LINE
  8
0
 10
257
 20
351.5
 11
252
 21
351.5
  0
LINE
  8
0
 10
252
 20
351.5
 11
252
 21
331.5
  0
LINE
  8
0
 10
252
 20
331.5
 11
266.6
 21
331.5
  0
LINE
  8
0
 10
266.6
 20
331.5
 11
266.6
 21
337.5
  0
LINE
  8
0
 10
50
 20
256.6
 11
44
 21
256.6
  0
LINE
  8
0
 10
44
 20
256.6
 11
44
 21
262.4
  0
LINE
  8
0
 10
44
 20
262.4
 11
50
 21
262.4
  0
LINE
  8
0
 10
50
 20
262.4
 11
50
 21
268.6
  0
LINE
  8
0
 10
50
 20
268.6
 11
44
 21
268.6
  0
LINE
  8
0
 10
44
 20
268.6
 11
44
 21
274.4
  0
LINE
  8
0
 10
44
 20
274.4
 11
50
 21
274.4
  0
LINE
  8
0
 10
50
 20
274.4
 11
50
 21
281.5
  0
LINE
  8
0
 10
50
 20
281.5
 11
38
 21
281.5
  0
LINE
  8
0
 10
38
 20
281.5
 11
38
 21
351.5
  0
LINE
  8
0
 10
38
 20
351.5
 11
-13.75
 21
351.5
  0
LINE
  8
0
 10
-13.75
 20
351.5
 11
-13.75
 21
310.5
  0
LINE
  8
0
 10
-13.75
 20
310.5
 11
-50
 21
310.5
  0
LINE
  8
0
 10
-50
 20
310.5
 11
-50
 21
251.5
  0
LINE
  8
0
 10
-50
 20
251.5
 11
50
 21
251.5
  0
LINE
  8
0
 10
50
 20
251.5
 11
50
 21
256.6
  0
LINE
  8
0
 10
7.57295
 20
340.647
 11
6.07295
 21
341.737
  0
LINE
  8
0
 10
6.07295
 20
341.737
 11
5.5
 21
343.5
  0
LINE
  8
0
 10
5.5
 20
343.5
 11
6.07295
 21
345.263
  0
LINE
  8
0
 10
6.07295
 20
345.263
 11
7.57295
 21
346.353
  0
LINE
  8
0
 10
7.57295
 20
346.353
 11
9.42706
 21
346.353
  0
LINE
  8
0
 10
9.42706
 20
346.353
 11
10.9271
 21
345.263
  0
LINE
  8
0
 10
10.9271
 20
345.263
 11
11.5
 21
343.5
  0
LINE
  8
0
 10
11.5
 20
343.5
 11
10.9271
 21
341.737
  0
LINE
  8
0
 10
10.9271
 20
341.737
 11
9.42706
 21
340.647
  0
LINE
  8
0
 10
9.42706
 20
340.647
 11
7.57295
 21
340.647
  0
LINE
  8
0
 10
30.5729
 20
340.647
 11
29.0729
 21
341.737
  0
LINE
  8
0
 10
29.0729
 20
341.737
 11
28.5
 21
343.5
  0
LINE
  8
0
 10
28.5
 20
343.5
 11
29.0729
 21
345.263
  0
LINE
  8
0
 10
29.0729
 20
345.263
 11
30.5729
 21
346.353
  0
LINE
  8
0
 10
30.5729
 20
346.353
 11
32.427
 21
346.353
  0
LINE
  8
0
 10
32.427
 20
346.353
 11
33.927
 21
345.263
  0
LINE
  8
0
 10
33.927
 20
345.263
 11
34.5
 21
343.5
  0
LINE
  8
0
 10
34.5
 20
343.5
 11
33.927
 21
341.737
  0
LINE
  8
0
 10
33.927
 20
341.737
 11
32.427
 21
340.647
  0
LINE
  8
0
 10
32.427
 20
340.647
 11
30.5729
 21
340.647
  0
LINE
  8
0
 10
30.5729
 20
282.647
 11
29.0729
 21
283.737
  0
LINE
  8
0
 10
29.0729
 20
283.737
 11
28.5
 21
285.5
  0
LINE
  8
0
 10
28.5
 20
285.5
 11
29.0729
 21
287.263
  0
LINE
  8
0
 10
29.0729
 20
287.263
 11
30.5729
 21
288.353
  0
LINE
  8
0
 10
30.5729
 20
288.353
 11
32.427
 21
288.353
  0
LINE
  8
0
 10
32.427
 20
288.353
 11
33.927
 21
287.263
  0
LINE
  8
0
 10
33.927
 20
287.263
 11
34.5
 21
285.5
  0
LINE
  8
0
 10
34.5
 20
285.5
 11
33.927
 21
283.737
  0
LINE
  8
0
 10
33.927
 20
283.737
 11
32.427
 21
282.647
  0
LINE
  8
0
 10
32.427
 20
282.647
 11
30.5729
 21
282.647
  0
LINE
  8
0
 10
7.57295
 20
282.647
 11
6.07295
 21
283.737
  0
LINE
  8
0
 10
6.07295
 20
283.737
 11
5.5
 21
285.5
  0
LINE
  8
0
 10
5.5
 20
285.5
 11
6.07295
 21
287.263
  0
LINE
  8
0
 10
6.07295
 20
287.263
 11
7.57295
 21
288.353
  0
LINE
  8
0
 10
7.57295
 20
288.353
 11
9.42706
 21
288.353
  0
LINE
  8
0
 10
9.42706
 20
288.353
 11
10.9271
 21
287.263
  0
LINE
  8
0
 10
10.9271
 20
287.263
 11
11.5
 21
285.5
  0
LINE
  8
0
 10
11.5
 20
285.5
 11
10.9271
 21
283.737
  0
LINE
  8
0
 10
10.9271
 20
283.737
 11
9.42706
 21
282.647
  0
LINE
  8
0
 10
9.42706
 20
282.647
 11
7.57295
 21
282.647
  0
LINE
  8
0
 10
29.0729
 20
263.647
 11
27.5729
 21
264.737
  0
LINE
  8
0
 10
27.5729
 20
264.737
 11
27
 21
266.5
  0
LINE
  8
0
 10
27
 20
266.5
 11
27.5729
 21
268.263
  0
LINE
  8
0
 10
27.5729
 20
268.263
 11
29.0729
 21
269.353
  0
LINE
  8
0
 10
29.0729
 20
269.353
 11
30.927
 21
269.353
  0
LINE
  8
0
 10
30.927
 20
269.353
 11
32.427
 21
268.263
  0
LINE
  8
0
 10
32.427
 20
268.263
 11
33
 21
266.5
  0
LINE
  8
0
 10
33
 20
266.5
 11
32.427
 21
264.737
  0
LINE
  8
0
 10
32.427
 20
264.737
 11
30.927
 21
263.647
  0
LINE
  8
0
 10
30.927
 20
263.647
 11
29.0729
 21
263.647
  0
LINE
  8
0
 10
5.57294
 20
260.147
 11
4.07294
 21
261.237
  0
LINE
  8
0
 10
4.07294
 20
261.237
 11
3.5
 21
263
  0
LINE
  8
0
 10
3.5
 20
263
 11
4.07294
 21
264.763
  0
LINE
  8
0
 10
4.07294
 20
264.763
 11
5.57294
 21
265.853
  0
LINE
  8
0
 10
5.57294
 20
265.853
 11
7.42705
 21
265.853
  0
LINE
  8
0
 10
7.42705
 20
265.853
 11
8.92705
 21
264.763
  0
LINE
  8
0
 10
8.92705
 20
264.763
 11
9.5
 21
263
  0
LINE
  8
0
 10
9.5
 20
263
 11
8.92705
 21
261.237
  0
LINE
  8
0
 10
8.92705
 20
261.237
 11
7.42705
 21
260.147
  0
LINE
  8
0
 10
7.42705
 20
260.147
 11
5.57294
 21
260.147
  0
LINE
  8
0
 10
-17.427
 20
260.147
 11
-18.927
 21
261.237
  0
LINE
  8
0
 10
-18.927
 20
261.237
 11
-19.5
 21
263
  0
LINE
  8
0
 10
-19.5
 20
263
 11
-18.927
 21
264.763
  0
LINE
  8
0
 10
-18.927
 20
264.763
 11
-17.427
 21
265.853
  0
LINE
  8
0
 10
-17.427
 20
265.853
 11
-15.5729
 21
265.853
  0
LINE
  8
0
 10
-15.5729
 20
265.853
 11
-14.0729
 21
264.763
  0
LINE
  8
0
 10
-14.0729
 20
264.763
 11
-13.5
 21
263
  0
LINE
  8
0
 10
-13.5
 20
263
 11
-14.0729
 21
261.237
  0
LINE
  8
0
 10
-14.0729
 20
261.237
 11
-15.5729
 21
260.147
  0
LINE
  8
0
 10
-15.5729
 20
260.147
 11
-17.427
 21
260.147
  0
LINE
  8
0
 10
150.5
 20
256.6
 11
144.5
 21
256.6
  0
LINE
  8
0
 10
144.5
 20
256.6
 11
144.5
 21
262.4
  0
LINE
  8
0
 10
144.5
 20
262.4
 11
150.5
 21
262.4
  0
LINE
  8
0
 10
150.5
 20
262.4
 11
150.5
 21
268.6
  0
LINE
  8
0
 10
150.5
 20
268.6
 11
144.5
 21
268.6
  0
LINE
  8
0
 10
144.5
 20
268.6
 11
144.5
 21
274.4
  0
LINE
  8
0
 10
144.5
 20
274.4
 11
150.5
 21
274.4
  0
LINE
  8
0
 10
150.5
 20
274.4
 11
150.5
 21
281.5
  0
LINE
  8
0
 10
150.5
 20
281.5
 11
138.5
 21
281.5
  0
LINE
  8
0
 10
138.5
 20
281.5
 11
138.5
 21
351.5
  0
LINE
  8
0
 10
138.5
 20
351.5
 11
86.75
 21
351.5
  0
LINE
  8
0
 10
86.75
 20
351.5
 11
86.75
 21
310.5
  0
LINE
  8
0
 10
86.75
 20
310.5
 11
50.5
 21
310.5
  0
LINE
  8
0
 10
50.5
 20
310.5
 11
50.5
 21
251.5
  0
LINE
  8
0
 10
50.5
 20
251.5
 11
150.5
 21
251.5
  0
LINE
  8
0
 10
150.5
 20
251.5
 11
150.5
 21
256.6
  0
LINE
  8
0
 10
131.073
 20
340.647
 11
129.573
 21
341.737
  0
LINE
  8
0
 10
129.573
 20
341.737
 11
129
 21
343.5
  0
LINE
  8
0
 10
129
 20
343.5
 11
129.573
 21
345.263
  0
LINE
  8
0
 10
129.573
 20
345.263
 11
131.073
 21
346.353
  0
LINE
  8
0
 10
131.073
 20
346.353
 11
132.927
 21
346.353
  0
LINE
  8
0
 10
132.927
 20
346.353
 11
134.427
 21
345.263
  0
LINE
  8
0
 10
134.427
 20
345.263
 11
135
 21
343.5
  0
LINE
  8
0
 10
135
 20
343.5
 11
134.427
 21
341.737
  0
LINE
  8
0
 10
134.427
 20
341.737
 11
132.927
 21
340.647
  0
LINE
  8
0
 10
132.927
 20
340.647
 11
131.073
 21
340.647
  0
LINE
  8
0
 10
108.073
 20
340.647
 11
106.573
 21
341.737
  0
LINE
  8
0
 10
106.573
 20
341.737
 11
106
 21
343.5
  0
LINE
  8
0
 10
106
 20
343.5
 11
106.573
 21
345.263
  0
LINE
  8
0
 10
106.573
 20
345.263
 11
108.073
 21
346.353
  0
LINE
  8
0
 10
108.073
 20
346.353
 11
109.927
 21
346.353
  0
LINE
  8
0
 10
109.927
 20
346.353
 11
111.427
 21
345.263
  0
LINE
  8
0
 10
111.427
 20
345.263
 11
112
 21
343.5
  0
LINE
  8
0
 10
112
 20
343.5
 11
111.427
 21
341.737
  0
LINE
  8
0
 10
111.427
 20
341.737
 11
109.927
 21
340.647
  0
LINE
  8
0
 10
109.927
 20
340.647
 11
108.073
 21
340.647
  0
LINE
  8
0
 10
108.073
 20
282.647
 11
106.573
 21
283.737
  0
LINE
  8
0
 10
106.573
 20
283.737
 11
106
 21
285.5
  0
LINE
  8
0
 10
106
 20
285.5
 11
106.573
 21
287.263
  0
LINE
  8
0
 10
106.573
 20
287.263
 11
108.073
 21
288.353
  0
LINE
  8
0
 10
108.073
 20
288.353
 11
109.927
 21
288.353
  0
LINE
  8
0
 10
109.927
 20
288.353
 11
111.427
 21
287.263
  0
LINE
  8
0
 10
111.427
 20
287.263
 11
112
 21
285.5
  0
LINE
  8
0
 10
112
 20
285.5
 11
111.427
 21
283.737
  0
LINE
  8
0
 10
111.427
 20
283.737
 11
109.927
 21
282.647
  0
LINE
  8
0
 10
109.927
 20
282.647
 11
108.073
 21
282.647
  0
LINE
  8
0
 10
131.073
 20
282.647
 11
129.573
 21
283.737
  0
LINE
  8
0
 10
129.573
 20
283.737
 11
129
 21
285.5
  0
LINE
  8
0
 10
129
 20
285.5
 11
129.573
 21
287.263
  0
LINE
  8
0
 10
129.573
 20
287.263
 11
131.073
 21
288.353
  0
LINE
  8
0
 10
131.073
 20
288.353
 11
132.927
 21
288.353
  0
LINE
  8
0
 10
132.927
 20
288.353
 11
134.427
 21
287.263
  0
LINE
  8
0
 10
134.427
 20
287.263
 11
135
 21
285.5
  0
LINE
  8
0
 10
135
 20
285.5
 11
134.427
 21
283.737
  0
LINE
  8
0
 10
134.427
 20
283.737
 11
132.927
 21
282.647
  0
LINE
  8
0
 10
132.927
 20
282.647
 11
131.073
 21
282.647
  0
LINE
  8
0
 10
129.573
 20
263.647
 11
128.073
 21
264.737
  0
LINE
  8
0
 10
128.073
 20
264.737
 11
127.5
 21
266.5
  0
LINE
  8
0
 10
127.5
 20
266.5
 11
128.073
 21
268.263
  0
LINE
  8
0
 10
128.073
 20
268.263
 11
129.573
 21
269.353
  0
LINE
  8
0
 10
129.573
 20
269.353
 11
131.427
 21
269.353
  0
LINE
  8
0
 10
131.427
 20
269.353
 11
132.927
 21
268.263
  0
LINE
  8
0
 10
132.927
 20
268.263
 11
133.5
 21
266.5
  0
LINE
  8
0
 10
133.5
 20
266.5
 11
132.927
 21
264.737
  0
LINE
  8
0
 10
132.927
 20
264.737
 11
131.427
 21
263.647
  0
LINE
  8
0
 10
131.427
 20
263.647
 11
129.573
 21
263.647
  0
LINE
  8
0
 10
106.073
 20
260.147
 11
104.573
 21
261.237
  0
LINE
  8
0
 10
104.573
 20
261.237
 11
104
 21
263
  0
LINE
  8
0
 10
104
 20
263
 11
104.573
 21
264.763
  0
LINE
  8
0
 10
104.573
 20
264.763
 11
106.073
 21
265.853
  0
LINE
  8
0
 10
106.073
 20
265.853
 11
107.927
 21
265.853
  0
LINE
  8
0
 10
107.927
 20
265.853
 11
109.427
 21
264.763
  0
LINE
  8
0
 10
109.427
 20
264.763
 11
110
 21
263
  0
LINE
  8
0
 10
110
 20
263
 11
109.427
 21
261.237
  0
LINE
  8
0
 10
109.427
 20
261.237
 11
107.927
 21
260.147
  0
LINE
  8
0
 10
107.927
 20
260.147
 11
106.073
 21
260.147
  0
LINE
  8
0
 10
83.073
 20
260.147
 11
81.573
 21
261.237
  0
LINE
  8
0
 10
81.573
 20
261.237
 11
81
 21
263
  0
LINE
  8
0
 10
81
 20
263
 11
81.573
 21
264.763
  0
LINE
  8
0
 10
81.573
 20
264.763
 11
83.073
 21
265.853
  0
LINE
  8
0
 10
83.073
 20
265.853
 11
84.9271
 21
265.853
  0
LINE
  8
0
 10
84.9271
 20
265.853
 11
86.4271
 21
264.763
  0
LINE
  8
0
 10
86.4271
 20
264.763
 11
87
 21
263
  0
LINE
  8
0
 10
87
 20
263
 11
86.4271
 21
261.237
  0
LINE
  8
0
 10
86.4271
 20
261.237
 11
84.9271
 21
260.147
  0
LINE
  8
0
 10
84.9271
 20
260.147
 11
83.073
 21
260.147
  0
LINE
  8
0
 10
65.6
 20
337.5
 11
71.4
 21
337.5
  0
LINE
  8
0
 10
71.4
 20
337.5
 11
71.4
 21
331.5
  0
LINE
  8
0
 10
71.4
 20
331.5
 11
86
 21
331.5
  0
LINE
  8
0
 10
86
 20
331.5
 11
86
 21
351.5
  0
LINE
  8
0
 10
86
 20
351.5
 11
81
 21
351.5
  0
LINE
  8
0
 10
81
 20
351.5
 11
81
 21
346.5
  0
LINE
  8
0
 10
81
 20
346.5
 11
56
 21
346.5
  0
LINE
  8
0
 10
56
 20
346.5
 11
56
 21
351.5
  0
LINE
  8
0
 10
56
 20
351.5
 11
51
 21
351.5
  0
LINE
  8
0
 10
51
 20
351.5
 11
51
 21
331.5
  0
LINE
  8
0
 10
51
 20
331.5
 11
65.6
 21
331.5
  0
LINE
  8
0
 10
65.6
 20
331.5
 11
65.6
 21
337.5
  0
LINE
  8
0
 10
166.1
 20
337.5
 11
171.9
 21
337.5
  0
LINE
  8
0
 10
171.9
 20
337.5
 11
171.9
 21
331.5
  0
LINE
  8
0
 10
171.9
 20
331.5
 11
186.5
 21
331.5
  0
LINE
  8
0
 10
186.5
 20
331.5
 11
186.5
 21
351.5
  0
LINE
  8
0
 10
186.5
 20
351.5
 11
181.5
 21
351.5
  0
LINE
  8
0
 10
181.5
 20
351.5
 11
181.5
 21
346.5
  0
LINE
  8
0
 10
181.5
 20
346.5
 11
156.5
 21
346.5
  0
LINE
  8
0
 10
156.5
 20
346.5
 11
156.5
 21
351.5
  0
LINE
  8
0
 10
156.5
 20
351.5
 11
151.5
 21
351.5
  0
LINE
  8
0
 10
151.5
 20
351.5
 11
151.5
 21
331.5
  0
LINE
  8
0
 10
151.5
 20
331.5
 11
166.1
 21
331.5
  0
LINE
  8
0
 10
166.1
 20
331.5
 11
166.1
 21
337.5
  0
LINE
  8
0
 10
65.6
 20
317
 11
71.4
 21
317
  0
LINE
  8
0
 10
71.4
 20
317
 11
71.4
 21
311
  0
LINE
  8
0
 10
71.4
 20
311
 11
86
 21
311
  0
LINE
  8
0
 10
86
 20
311
 11
86
 21
331
  0
LINE
  8
0
 10
86
 20
331
 11
81
 21
331
  0
LINE
  8
0
 10
81
 20
331
 11
81
 21
326
  0
LINE
  8
0
 10
81
 20
326
 11
56
 21
326
  0
LINE
  8
0
 10
56
 20
326
 11
56
 21
331
  0
LINE
  8
0
 10
56
 20
331
 11
51
 21
331
  0
LINE
  8
0
 10
51
 20
331
 11
51
 21
311
  0
LINE
  8
0
 10
51
 20
311
 11
65.6
 21
311
  0
LINE
  8
0
 10
65.6
 20
311
 11
65.6
 21
317
  0
LINE
  8
0
 10
266.6
 20
317
 11
272.4
 21
317
  0
LINE
  8
0
 10
272.4
 20
317
 11
272.4
 21
311
  0
LINE
  8
0
 10
272.4
 20
311
 11
287
 21
311
  0
LINE
  8
0
 10
287
 20
311
 11
287
 21
331
  0
LINE
  8
0
 10
287
 20
331
 11
282
 21
331
  0
LINE
  8
0
 10
282
 20
331
 11
282
 21
326
  0
LINE
  8
0
 10
282
 20
326
 11
257
 21
326
  0
LINE
  8
0
 10
257
 20
326
 11
257
 21
331
  0
LINE
  8
0
 10
257
 20
331
 11
252
 21
331
  0
LINE
  8
0
 10
252
 20
331
 11
252
 21
311
  0
LINE
  8
0
 10
252
 20
311
 11
266.6
 21
311
  0
LINE
  8
0
 10
266.6
 20
311
 11
266.6
 21
317
  0
LINE
  8
0
 10
-34.9
 20
317
 11
-29.1
 21
317
  0
LINE
  8
0
 10
-29.1
 20
317
 11
-29.1
 21
311
  0
LINE
  8
0
 10
-29.1
 20
311
 11
-14.5
 21
311
  0
LINE
  8
0
 10
-14.5
 20
311
 11
-14.5
 21
331
  0
LINE
  8
0
 10
-14.5
 20
331
 11
-19.5
 21
331
  0
LINE
  8
0
 10
-19.5
 20
331
 11
-19.5
 21
326
  0
LINE
  8
0
 10
-19.5
 20
326
 11
-44.5
 21
326
  0
LINE
  8
0
 10
-44.5
 20
326
 11
-44.5
 21
331
  0
LINE
  8
0
 10
-44.5
 20
331
 11
-49.5
 21
331
  0
LINE
  8
0
 10
-49.5
 20
331
 11
-49.5
 21
311
  0
LINE
  8
0
 10
-49.5
 20
311
 11
-34.9
 21
311
  0
LINE
  8
0
 10
-34.9
 20
311
 11
-34.9
 21
317
  0
LINE
  8
0
 10
166.1
 20
317
 11
171.9
 21
317
  0
LINE
  8
0
 10
171.9
 20
317
 11
171.9
 21
311
  0
LINE
  8
0
 10
171.9
 20
311
 11
186.5
 21
311
  0
LINE
  8
0
 10
186.5
 20
311
 11
186.5
 21
331
  0
LINE
  8
0
 10
186.5
 20
331
 11
181.5
 21
331
  0
LINE
  8
0
 10
181.5
 20
331
 11
181.5
 21
326
  0
LINE
  8
0
 10
181.5
 20
326
 11
156.5
 21
326
  0
LINE
  8
0
 10
156.5
 20
326
 11
156.5
 21
331
  0
LINE
  8
0
 10
156.5
 20
331
 11
151.5
 21
331
  0
LINE
  8
0
 10
151.5
 20
331
 11
151.5
 21
311
  0
LINE
  8
0
 10
151.5
 20
311
 11
166.1
 21
311
  0
LINE
  8
0
 10
166.1
 20
311
 11
166.1
 21
317
  0
LINE
  8
0
 10
266.6
 20
237
 11
272.4
 21
237
  0
LINE
  8
0
 10
272.4
 20
237
 11
272.4
 21
231
  0
LINE
  8
0
 10
272.4
 20
231
 11
287
 21
231
  0
LINE
  8
0
 10
287
 20
231
 11
287
 21
251
  0
LINE
  8
0
 10
287
 20
251
 11
282
 21
251
  0
LINE
  8
0
 10
282
 20
251
 11
282
 21
246
  0
LINE
  8
0
 10
282
 20
246
 11
257
 21
246
  0
LINE
  8
0
 10
257
 20
246
 11
257
 21
251
  0
LINE
  8
0
 10
257
 20
251
 11
252
 21
251
  0
LINE
  8
0
 10
252
 20
251
 11
252
 21
231
  0
LINE
  8
0
 10
252
 20
231
 11
266.6
 21
231
  0
LINE
  8
0
 10
266.6
 20
231
 11
266.6
 21
237
  0
LINE
  8
0
 10
150.5
 20
156.1
 11
144.5
 21
156.1
  0
LINE
  8
0
 10
144.5
 20
156.1
 11
144.5
 21
161.9
  0
LINE
  8
0
 10
144.5
 20
161.9
 11
150.5
 21
161.9
  0
LINE
  8
0
 10
150.5
 20
161.9
 11
150.5
 21
168.1
  0
LINE
  8
0
 10
150.5
 20
168.1
 11
144.5
 21
168.1
  0
LINE
  8
0
 10
144.5
 20
168.1
 11
144.5
 21
173.9
  0
LINE
  8
0
 10
144.5
 20
173.9
 11
150.5
 21
173.9
  0
LINE
  8
0
 10
150.5
 20
173.9
 11
150.5
 21
181
  0
LINE
  8
0
 10
150.5
 20
181
 11
138.5
 21
181
  0
LINE
  8
0
 10
138.5
 20
181
 11
138.5
 21
251
  0
LINE
  8
0
 10
138.5
 20
251
 11
86.75
 21
251
  0
LINE
  8
0
 10
86.75
 20
251
 11
86.75
 21
210
  0
LINE
  8
0
 10
86.75
 20
210
 11
50.5
 21
210
  0
LINE
  8
0
 10
50.5
 20
210
 11
50.5
 21
151
  0
LINE
  8
0
 10
50.5
 20
151
 11
150.5
 21
151
  0
LINE
  8
0
 10
150.5
 20
151
 11
150.5
 21
156.1
  0
LINE
  8
0
 10
108.073
 20
240.147
 11
106.573
 21
241.237
  0
LINE
  8
0
 10
106.573
 20
241.237
 11
106
 21
243
  0
LINE
  8
0
 10
106
 20
243
 11
106.573
 21
244.763
  0
LINE
  8
0
 10
106.573
 20
244.763
 11
108.073
 21
245.853
  0
LINE
  8
0
 10
108.073
 20
245.853
 11
109.927
 21
245.853
  0
LINE
  8
0
 10
109.927
 20
245.853
 11
111.427
 21
244.763
  0
LINE
  8
0
 10
111.427
 20
244.763
 11
112
 21
243
  0
LINE
  8
0
 10
112
 20
243
 11
111.427
 21
241.237
  0
LINE
  8
0
 10
111.427
 20
241.237
 11
109.927
 21
240.147
  0
LINE
  8
0
 10
109.927
 20
240.147
 11
108.073
 21
240.147
  0
LINE
  8
0
 10
131.073
 20
240.147
 11
129.573
 21
241.237
  0
LINE
  8
0
 10
129.573
 20
241.237
 11
129
 21
243
  0
LINE
  8
0
 10
129
 20
243
 11
129.573
 21
244.763
  0
LINE
  8
0
 10
129.573
 20
244.763
 11
131.073
 21
245.853
  0
LINE
  8
0
 10
131.073
 20
245.853
 11
132.927
 21
245.853
  0
LINE
  8
0
 10
132.927
 20
245.853
 11
134.427
 21
244.763
  0
LINE
  8
0
 10
134.427
 20
244.763
 11
135
 21
243
  0
LINE
  8
0
 10
135
 20
243
 11
134.427
 21
241.237
  0
LINE
  8
0
 10
134.427
 20
241.237
 11
132.927
 21
240.147
  0
LINE
  8
0
 10
132.927
 20
240.147
 11
131.073
 21
240.147
  0
LINE
  8
0
 10
131.073
 20
182.147
 11
129.573
 21
183.237
  0
LINE
  8
0
 10
129.573
 20
183.237
 11
129
 21
185
  0
LINE
  8
0
 10
129
 20
185
 11
129.573
 21
186.763
  0
LINE
  8
0
 10
129.573
 20
186.763
 11
131.073
 21
187.853
  0
LINE
  8
0
 10
131.073
 20
187.853
 11
132.927
 21
187.853
  0
LINE
  8
0
 10
132.927
 20
187.853
 11
134.427
 21
186.763
  0
LINE
  8
0
 10
134.427
 20
186.763
 11
135
 21
185
  0
LINE
  8
0
 10
135
 20
185
 11
134.427
 21
183.237
  0
LINE
  8
0
 10
134.427
 20
183.237
 11
132.927
 21
182.147
  0
LINE
  8
0
 10
132.927
 20
182.147
 11
131.073
 21
182.147
  0
LINE
  8
0
 10
108.073
 20
182.147
 11
106.573
 21
183.237
  0
LINE
  8
0
 10
106.573
 20
183.237
 11
106
 21
185
  0
LINE
  8
0
 10
106
 20
185
 11
106.573
 21
186.763
  0
LINE
  8
0
 10
106.573
 20
186.763
 11
108.073
 21
187.853
  0
LINE
  8
0
 10
108.073
 20
187.853
 11
109.927
 21
187.853
  0
LINE
  8
0
 10
109.927
 20
187.853
 11
111.427
 21
186.763
  0
LINE
  8
0
 10
111.427
 20
186.763
 11
112
 21
185
  0
LINE
  8
0
 10
112
 20
185
 11
111.427
 21
183.237
  0
LINE
  8
0
 10
111.427
 20
183.237
 11
109.927
 21
182.147
  0
LINE
  8
0
 10
109.927
 20
182.147
 11
108.073
 21
182.147
  0
LINE
  8
0
 10
129.573
 20
163.147
 11
128.073
 21
164.237
  0
LINE
  8
0
 10
128.073
 20
164.237
 11
127.5
 21
166
  0
LINE
  8
0
 10
127.5
 20
166
 11
128.073
 21
167.763
  0
LINE
  8
0
 10
128.073
 20
167.763
 11
129.573
 21
168.853
  0
LINE
  8
0
 10
129.573
 20
168.853
 11
131.427
 21
168.853
  0
LINE
  8
0
 10
131.427
 20
168.853
 11
132.927
 21
167.763
  0
LINE
  8
0
 10
132.927
 20
167.763
 11
133.5
 21
166
  0
LINE
  8
0
 10
133.5
 20
166
 11
132.927
 21
164.237
  0
LINE
  8
0
 10
132.927
 20
164.237
 11
131.427
 21
163.147
  0
LINE
  8
0
 10
131.427
 20
163.147
 11
129.573
 21
163.147
  0
LINE
  8
0
 10
83.073
 20
159.647
 11
81.573
 21
160.737
  0
LINE
  8
0
 10
81.573
 20
160.737
 11
81
 21
162.5
  0
LINE
  8
0
 10
81
 20
162.5
 11
81.573
 21
164.263
  0
LINE
  8
0
 10
81.573
 20
164.263
 11
83.073
 21
165.353
  0
LINE
  8
0
 10
83.073
 20
165.353
 11
84.9271
 21
165.353
  0
LINE
  8
0
 10
84.9271
 20
165.353
 11
86.4271
 21
164.263
  0
LINE
  8
0
 10
86.4271
 20
164.263
 11
87
 21
162.5
  0
LINE
  8
0
 10
87
 20
162.5
 11
86.4271
 21
160.737
  0
LINE
  8
0
 10
86.4271
 20
160.737
 11
84.9271
 21
159.647
  0
LINE
  8
0
 10
84.9271
 20
159.647
 11
83.073
 21
159.647
  0
LINE
  8
0
 10
106.073
 20
159.647
 11
104.573
 21
160.737
  0
LINE
  8
0
 10
104.573
 20
160.737
 11
104
 21
162.5
  0
LINE
  8
0
 10
104
 20
162.5
 11
104.573
 21
164.263
  0
LINE
  8
0
 10
104.573
 20
164.263
 11
106.073
 21
165.353
  0
LINE
  8
0
 10
106.073
 20
165.353
 11
107.927
 21
165.353
  0
LINE
  8
0
 10
107.927
 20
165.353
 11
109.427
 21
164.263
  0
LINE
  8
0
 10
109.427
 20
164.263
 11
110
 21
162.5
  0
LINE
  8
0
 10
110
 20
162.5
 11
109.427
 21
160.737
  0
LINE
  8
0
 10
109.427
 20
160.737
 11
107.927
 21
159.647
  0
LINE
  8
0
 10
107.927
 20
159.647
 11
106.073
 21
159.647
  0
LINE
  8
0
 10
251
 20
156.1
 11
245
 21
156.1
  0
LINE
  8
0
 10
245
 20
156.1
 11
245
 21
161.9
  0
LINE
  8
0
 10
245
 20
161.9
 11
251
 21
161.9
  0
LINE
  8
0
 10
251
 20
161.9
 11
251
 21
168.1
  0
LINE
  8
0
 10
251
 20
168.1
 11
245
 21
168.1
  0
LINE
  8
0
 10
245
 20
168.1
 11
245
 21
173.9
  0
LINE
  8
0
 10
245
 20
173.9
 11
251
 21
173.9
  0
LINE
  8
0
 10
251
 20
173.9
 11
251
 21
181
  0
LINE
  8
0
 10
251
 20
181
 11
239
 21
181
  0
LINE
  8
0
 10
239
 20
181
 11
239
 21
251
  0
LINE
  8
0
 10
239
 20
251
 11
187.25
 21
251
  0
LINE
  8
0
 10
187.25
 20
251
 11
187.25
 21
210
  0
LINE
  8
0
 10
187.25
 20
210
 11
151
 21
210
  0
LINE
  8
0
 10
151
 20
210
 11
151
 21
151
  0
LINE
  8
0
 10
151
 20
151
 11
251
 21
151
  0
LINE
  8
0
 10
251
 20
151
 11
251
 21
156.1
  0
LINE
  8
0
 10
231.573
 20
240.147
 11
230.073
 21
241.237
  0
LINE
  8
0
 10
230.073
 20
241.237
 11
229.5
 21
243
  0
LINE
  8
0
 10
229.5
 20
243
 11
230.073
 21
244.763
  0
LINE
  8
0
 10
230.073
 20
244.763
 11
231.573
 21
245.853
  0
LINE
  8
0
 10
231.573
 20
245.853
 11
233.427
 21
245.853
  0
LINE
  8
0
 10
233.427
 20
245.853
 11
234.927
 21
244.763
  0
LINE
  8
0
 10
234.927
 20
244.763
 11
235.5
 21
243
  0
LINE
  8
0
 10
235.5
 20
243
 11
234.927
 21
241.237
  0
LINE
  8
0
 10
234.927
 20
241.237
 11
233.427
 21
240.147
  0
LINE
  8
0
 10
233.427
 20
240.147
 11
231.573
 21
240.147
  0
LINE
  8
0
 10
208.573
 20
240.147
 11
207.073
 21
241.237
  0
LINE
  8
0
 10
207.073
 20
241.237
 11
206.5
 21
243
  0
LINE
  8
0
 10
206.5
 20
243
 11
207.073
 21
244.763
  0
LINE
  8
0
 10
207.073
 20
244.763
 11
208.573
 21
245.853
  0
LINE
  8
0
 10
208.573
 20
245.853
 11
210.427
 21
245.853
  0
LINE
  8
0
 10
210.427
 20
245.853
 11
211.927
 21
244.763
  0
LINE
  8
0
 10
211.927
 20
244.763
 11
212.5
 21
243
  0
LINE
  8
0
 10
212.5
 20
243
 11
211.927
 21
241.237
  0
LINE
  8
0
 10
211.927
 20
241.237
 11
210.427
 21
240.147
  0
LINE
  8
0
 10
210.427
 20
240.147
 11
208.573
 21
240.147
  0
LINE
  8
0
 10
208.573
 20
182.147
 11
207.073
 21
183.237
  0
LINE
  8
0
 10
207.073
 20
183.237
 11
206.5
 21
185
  0
LINE
  8
0
 10
206.5
 20
185
 11
207.073
 21
186.763
  0
LINE
  8
0
 10
207.073
 20
186.763
 11
208.573
 21
187.853
  0
LINE
  8
0
 10
208.573
 20
187.853
 11
210.427
 21
187.853
  0
LINE
  8
0
 10
210.427
 20
187.853
 11
211.927
 21
186.763
  0
LINE
  8
0
 10
211.927
 20
186.763
 11
212.5
 21
185
  0
LINE
  8
0
 10
212.5
 20
185
 11
211.927
 21
183.237
  0
LINE
  8
0
 10
211.927
 20
183.237
 11
210.427
 21
182.147
  0
LINE
  8
0
 10
210.427
 20
182.147
 11
208.573
 21
182.147
  0
LINE
  8
0
 10
231.573
 20
182.147
 11
230.073
 21
183.237
  0
LINE
  8
0
 10
230.073
 20
183.237
 11
229.5
 21
185
  0
LINE
  8
0
 10
229.5
 20
185
 11
230.073
 21
186.763
  0
LINE
  8
0
 10
230.073
 20
186.763
 11
231.573
 21
187.853
  0
LINE
  8
0
 10
231.573
 20
187.853
 11
233.427
 21
187.853
  0
LINE
  8
0
 10
233.427
 20
187.853
 11
234.927
 21
186.763
  0
LINE
  8
0
 10
234.927
 20
186.763
 11
235.5
 21
185
  0
LINE
  8
0
 10
235.5
 20
185
 11
234.927
 21
183.237
  0
LINE
  8
0
 10
234.927
 20
183.237
 11
233.427
 21
182.147
  0
LINE
  8
0
 10
233.427
 20
182.147
 11
231.573
 21
182.147
  0
LINE
  8
0
 10
230.073
 20
163.147
 11
228.573
 21
164.237
  0
LINE
  8
0
 10
228.573
 20
164.237
 11
228
 21
166
  0
LINE
  8
0
 10
228
 20
166
 11
228.573
 21
167.763
  0
LINE
  8
0
 10
228.573
 20
167.763
 11
230.073
 21
168.853
  0
LINE
  8
0
 10
230.073
 20
168.853
 11
231.927
 21
168.853
  0
LINE
  8
0
 10
231.927
 20
168.853
 11
233.427
 21
167.763
  0
LINE
  8
0
 10
233.427
 20
167.763
 11
234
 21
166
  0
LINE
  8
0
 10
234
 20
166
 11
233.427
 21
164.237
  0
LINE
  8
0
 10
233.427
 20
164.237
 11
231.927
 21
163.147
  0
LINE
  8
0
 10
231.927
 20
163.147
 11
230.073
 21
163.147
  0
LINE
  8
0
 10
183.573
 20
159.647
 11
182.073
 21
160.737
  0
LINE
  8
0
 10
182.073
 20
160.737
 11
181.5
 21
162.5
  0
LINE
  8
0
 10
181.5
 20
162.5
 11
182.073
 21
164.263
  0
LINE
  8
0
 10
182.073
 20
164.263
 11
183.573
 21
165.353
  0
LINE
  8
0
 10
183.573
 20
165.353
 11
185.427
 21
165.353
  0
LINE
  8
0
 10
185.427
 20
165.353
 11
186.927
 21
164.263
  0
LINE
  8
0
 10
186.927
 20
164.263
 11
187.5
 21
162.5
  0
LINE
  8
0
 10
187.5
 20
162.5
 11
186.927
 21
160.737
  0
LINE
  8
0
 10
186.927
 20
160.737
 11
185.427
 21
159.647
  0
LINE
  8
0
 10
185.427
 20
159.647
 11
183.573
 21
159.647
  0
LINE
  8
0
 10
206.573
 20
159.647
 11
205.073
 21
160.737
  0
LINE
  8
0
 10
205.073
 20
160.737
 11
204.5
 21
162.5
  0
LINE
  8
0
 10
204.5
 20
162.5
 11
205.073
 21
164.263
  0
LINE
  8
0
 10
205.073
 20
164.263
 11
206.573
 21
165.353
  0
LINE
  8
0
 10
206.573
 20
165.353
 11
208.427
 21
165.353
  0
LINE
  8
0
 10
208.427
 20
165.353
 11
209.927
 21
164.263
  0
LINE
  8
0
 10
209.927
 20
164.263
 11
210.5
 21
162.5
  0
LINE
  8
0
 10
210.5
 20
162.5
 11
209.927
 21
160.737
  0
LINE
  8
0
 10
209.927
 20
160.737
 11
208.427
 21
159.647
  0
LINE
  8
0
 10
208.427
 20
159.647
 11
206.573
 21
159.647
  0
LINE
  8
0
 10
65.6
 20
237
 11
71.4
 21
237
  0
LINE
  8
0
 10
71.4
 20
237
 11
71.4
 21
231
  0
LINE
  8
0
 10
71.4
 20
231
 11
86
 21
231
  0
LINE
  8
0
 10
86
 20
231
 11
86
 21
251
  0
LINE
  8
0
 10
86
 20
251
 11
81
 21
251
  0
LINE
  8
0
 10
81
 20
251
 11
81
 21
246
  0
LINE
  8
0
 10
81
 20
246
 11
56
 21
246
  0
LINE
  8
0
 10
56
 20
246
 11
56
 21
251
  0
LINE
  8
0
 10
56
 20
251
 11
51
 21
251
  0
LINE
  8
0
 10
51
 20
251
 11
51
 21
231
  0
LINE
  8
0
 10
51
 20
231
 11
65.6
 21
231
  0
LINE
  8
0
 10
65.6
 20
231
 11
65.6
 21
237
  0
LINE
  8
0
 10
-34.9
 20
237
 11
-29.1
 21
237
  0
LINE
  8
0
 10
-29.1
 20
237
 11
-29.1
 21
231
  0
LINE
  8
0
 10
-29.1
 20
231
 11
-14.5
 21
231
  0
LINE
  8
0
 10
-14.5
 20
231
 11
-14.5
 21
251
  0
LINE
  8
0
 10
-14.5
 20
251
 11
-19.5
 21
251
  0
LINE
  8
0
 10
-19.5
 20
251
 11
-19.5
 21
246
  0
LINE
  8
0
 10
-19.5
 20
246
 11
-44.5
 21
246
  0
LINE
  8
0
 10
-44.5
 20
246
 11
-44.5
 21
251
  0
LINE
  8
0
 10
-44.5
 20
251
 11
-49.5
 21
251
  0
LINE
  8
0
 10
-49.5
 20
251
 11
-49.5
 21
231
  0
LINE
  8
0
 10
-49.5
 20
231
 11
-34.9
 21
231
  0
LINE
  8
0
 10
-34.9
 20
231
 11
-34.9
 21
237
  0
LINE
  8
0
 10
351.5
 20
156.1
 11
345.5
 21
156.1
  0
LINE
  8
0
 10
345.5
 20
156.1
 11
345.5
 21
161.9
  0
LINE
  8
0
 10
345.5
 20
161.9
 11
351.5
 21
161.9
  0
LINE
  8
0
 10
351.5
 20
161.9
 11
351.5
 21
168.1
  0
LINE
  8
0
 10
351.5
 20
168.1
 11
345.5
 21
168.1
  0
LINE
  8
0
 10
345.5
 20
168.1
 11
345.5
 21
173.9
  0
LINE
  8
0
 10
345.5
 20
173.9
 11
351.5
 21
173.9
  0
LINE
  8
0
 10
351.5
 20
173.9
 11
351.5
 21
181
  0
LINE
  8
0
 10
351.5
 20
181
 11
339.5
 21
181
  0
LINE
  8
0
 10
339.5
 20
181
 11
339.5
 21
251
  0
LINE
  8
0
 10
339.5
 20
251
 11
287.75
 21
251
  0
LINE
  8
0
 10
287.75
 20
251
 11
287.75
 21
210
  0
LINE
  8
0
 10
287.75
 20
210
 11
251.5
 21
210
  0
LINE
  8
0
 10
251.5
 20
210
 11
251.5
 21
151
  0
LINE
  8
0
 10
251.5
 20
151
 11
351.5
 21
151
  0
LINE
  8
0
 10
351.5
 20
151
 11
351.5
 21
156.1
  0
LINE
  8
0
 10
309.073
 20
240.147
 11
307.573
 21
241.237
  0
LINE
  8
0
 10
307.573
 20
241.237
 11
307
 21
243
  0
LINE
  8
0
 10
307
 20
243
 11
307.573
 21
244.763
  0
LINE
  8
0
 10
307.573
 20
244.763
 11
309.073
 21
245.853
  0
LINE
  8
0
 10
309.073
 20
245.853
 11
310.927
 21
245.853
  0
LINE
  8
0
 10
310.927
 20
245.853
 11
312.427
 21
244.763
  0
LINE
  8
0
 10
312.427
 20
244.763
 11
313
 21
243
  0
LINE
  8
0
 10
313
 20
243
 11
312.427
 21
241.237
  0
LINE
  8
0
 10
312.427
 20
241.237
 11
310.927
 21
240.147
  0
LINE
  8
0
 10
310.927
 20
240.147
 11
309.073
 21
240.147
  0
LINE
  8
0
 10
332.073
 20
240.147
 11
330.573
 21
241.237
  0
LINE
  8
0
 10
330.573
 20
241.237
 11
330
 21
243
  0
LINE
  8
0
 10
330
 20
243
 11
330.573
 21
244.763
  0
LINE
  8
0
 10
330.573
 20
244.763
 11
332.073
 21
245.853
  0
LINE
  8
0
 10
332.073
 20
245.853
 11
333.927
 21
245.853
  0
LINE
  8
0
 10
333.927
 20
245.853
 11
335.427
 21
244.763
  0
LINE
  8
0
 10
335.427
 20
244.763
 11
336
 21
243
  0
LINE
  8
0
 10
336
 20
243
 11
335.427
 21
241.237
  0
LINE
  8
0
 10
335.427
 20
241.237
 11
333.927
 21
240.147
  0
LINE
  8
0
 10
333.927
 20
240.147
 11
332.073
 21
240.147
  0
LINE
  8
0
 10
309.073
 20
182.147
 11
307.573
 21
183.237
  0
LINE
  8
0
 10
307.573
 20
183.237
 11
307
 21
185
  0
LINE
  8
0
 10
307
 20
185
 11
307.573
 21
186.763
  0
LINE
  8
0
 10
307.573
 20
186.763
 11
309.073
 21
187.853
  0
LINE
  8
0
 10
309.073
 20
187.853
 11
310.927
 21
187.853
  0
LINE
  8
0
 10
310.927
 20
187.853
 11
312.427
 21
186.763
  0
LINE
  8
0
 10
312.427
 20
186.763
 11
313
 21
185
  0
LINE
  8
0
 10
313
 20
185
 11
312.427
 21
183.237
  0
LINE
  8
0
 10
312.427
 20
183.237
 11
310.927
 21
182.147
  0
LINE
  8
0
 10
310.927
 20
182.147
 11
309.073
 21
182.147
  0
LINE
  8
0
 10
332.073
 20
182.147
 11
330.573
 21
183.237
  0
LINE
  8
0
 10
330.573
 20
183.237
 11
330
 21
185
  0
LINE
  8
0
 10
330
 20
185
 11
330.573
 21
186.763
  0
LINE
  8
0
 10
330.573
 20
186.763
 11
332.073
 21
187.853
  0
LINE
  8
0
 10
332.073
 20
187.853
 11
333.927
 21
187.853
  0
LINE
  8
0
 10
333.927
 20
187.853
 11
335.427
 21
186.763
  0
LINE
  8
0
 10
335.427
 20
186.763
 11
336
 21
185
  0
LINE
  8
0
 10
336
 20
185
 11
335.427
 21
183.237
  0
LINE
  8
0
 10
335.427
 20
183.237
 11
333.927
 21
182.147
  0
LINE
  8
0
 10
333.927
 20
182.147
 11
332.073
 21
182.147
  0
LINE
  8
0
 10
330.573
 20
163.147
 11
329.073
 21
164.237
  0
LINE
  8
0
 10
329.073
 20
164.237
 11
328.5
 21
166
  0
LINE
  8
0
 10
328.5
 20
166
 11
329.073
 21
167.763
  0
LINE
  8
0
 10
329.073
 20
167.763
 11
330.573
 21
168.853
  0
LINE
  8
0
 10
330.573
 20
168.853
 11
332.427
 21
168.853
  0
LINE
  8
0
 10
332.427
 20
168.853
 11
333.927
 21
167.763
  0
LINE
  8
0
 10
333.927
 20
167.763
 11
334.5
 21
166
  0
LINE
  8
0
 10
334.5
 20
166
 11
333.927
 21
164.237
  0
LINE
  8
0
 10
333.927
 20
164.237
 11
332.427
 21
163.147
  0
LINE
  8
0
 10
332.427
 20
163.147
 11
330.573
 21
163.147
  0
LINE
  8
0
 10
284.073
 20
159.647
 11
282.573
 21
160.737
  0
LINE
  8
0
 10
282.573
 20
160.737
 11
282
 21
162.5
  0
LINE
  8
0
 10
282
 20
162.5
 11
282.573
 21
164.263
  0
LINE
  8
0
 10
282.573
 20
164.263
 11
284.073
 21
165.353
  0
LINE
  8
0
 10
284.073
 20
165.353
 11
285.927
 21
165.353
  0
LINE
  8
0
 10
285.927
 20
165.353
 11
287.427
 21
164.263
  0
LINE
  8
0
 10
287.427
 20
164.263
 11
288
 21
162.5
  0
LINE
  8
0
 10
288
 20
162.5
 11
287.427
 21
160.737
  0
LINE
  8
0
 10
287.427
 20
160.737
 11
285.927
 21
159.647
  0
LINE
  8
0
 10
285.927
 20
159.647
 11
284.073
 21
159.647
  0
LINE
  8
0
 10
307.073
 20
159.647
 11
305.573
 21
160.737
  0
LINE
  8
0
 10
305.573
 20
160.737
 11
305
 21
162.5
  0
LINE
  8
0
 10
305
 20
162.5
 11
305.573
 21
164.263
  0
LINE
  8
0
 10
305.573
 20
164.263
 11
307.073
 21
165.353
  0
LINE
  8
0
 10
307.073
 20
165.353
 11
308.927
 21
165.353
  0
LINE
  8
0
 10
308.927
 20
165.353
 11
310.427
 21
164.263
  0
LINE
  8
0
 10
310.427
 20
164.263
 11
311
 21
162.5
  0
LINE
  8
0
 10
311
 20
162.5
 11
310.427
 21
160.737
  0
LINE
  8
0
 10
310.427
 20
160.737
 11
308.927
 21
159.647
  0
LINE
  8
0
 10
308.927
 20
159.647
 11
307.073
 21
159.647
  0
LINE
  8
0
 10
50
 20
156.1
 11
44
 21
156.1
  0
LINE
  8
0
 10
44
 20
156.1
 11
44
 21
161.9
  0
LINE
  8
0
 10
44
 20
161.9
 11
50
 21
161.9
  0
LINE
  8
0
 10
50
 20
161.9
 11
50
 21
168.1
  0
LINE
  8
0
 10
50
 20
168.1
 11
44
 21
168.1
  0
LINE
  8
0
 10
44
 20
168.1
 11
44
 21
173.9
  0
LINE
  8
0
 10
44
 20
173.9
 11
50
 21
173.9
  0
LINE
  8
0
 10
50
 20
173.9
 11
50
 21
181
  0
LINE
  8
0
 10
50
 20
181
 11
38
 21
181
  0
LINE
  8
0
 10
38
 20
181
 11
38
 21
251
  0
LINE
  8
0
 10
38
 20
251
 11
-13.75
 21
251
  0
LINE
  8
0
 10
-13.75
 20
251
 11
-13.75
 21
210
  0
LINE
  8
0
 10
-13.75
 20
210
 11
-50
 21
210
  0
LINE
  8
0
 10
-50
 20
210
 11
-50
 21
151
  0
LINE
  8
0
 10
-50
 20
151
 11
50
 21
151
  0
LINE
  8
0
 10
50
 20
151
 11
50
 21
156.1
  0
LINE
  8
0
 10
7.57295
 20
240.147
 11
6.07295
 21
241.237
  0
LINE
  8
0
 10
6.07295
 20
241.237
 11
5.5
 21
243
  0
LINE
  8
0
 10
5.5
 20
243
 11
6.07295
 21
244.763
  0
LINE
  8
0
 10
6.07295
 20
244.763
 11
7.57295
 21
245.853
  0
LINE
  8
0
 10
7.57295
 20
245.853
 11
9.42706
 21
245.853
  0
LINE
  8
0
 10
9.42706
 20
245.853
 11
10.9271
 21
244.763
  0
LINE
  8
0
 10
10.9271
 20
244.763
 11
11.5
 21
243
  0
LINE
  8
0
 10
11.5
 20
243
 11
10.9271
 21
241.237
  0
LINE
  8
0
 10
10.9271
 20
241.237
 11
9.42706
 21
240.147
  0
LINE
  8
0
 10
9.42706
 20
240.147
 11
7.57295
 21
240.147
  0
LINE
  8
0
 10
30.5729
 20
240.147
 11
29.0729
 21
241.237
  0
LINE
  8
0
 10
29.0729
 20
241.237
 11
28.5
 21
243
  0
LINE
  8
0
 10
28.5
 20
243
 11
29.0729
 21
244.763
  0
LINE
  8
0
 10
29.0729
 20
244.763
 11
30.5729
 21
245.853
  0
LINE
  8
0
 10
30.5729
 20
245.853
 11
32.427
 21
245.853
  0
LINE
  8
0
 10
32.427
 20
245.853
 11
33.927
 21
244.763
  0
LINE
  8
0
 10
33.927
 20
244.763
 11
34.5
 21
243
  0
LINE
  8
0
 10
34.5
 20
243
 11
33.927
 21
241.237
  0
LINE
  8
0
 10
33.927
 20
241.237
 11
32.427
 21
240.147
  0
LINE
  8
0
 10
32.427
 20
240.147
 11
30.5729
 21
240.147
  0
LINE
  8
0
 10
30.5729
 20
182.147
 11
29.0729
 21
183.237
  0
LINE
  8
0
 10
29.0729
 20
183.237
 11
28.5
 21
185
  0
LINE
  8
0
 10
28.5
 20
185
 11
29.0729
 21
186.763
  0
LINE
  8
0
 10
29.0729
 20
186.763
 11
30.5729
 21
187.853
  0
LINE
  8
0
 10
30.5729
 20
187.853
 11
32.427
 21
187.853
  0
LINE
  8
0
 10
32.427
 20
187.853
 11
33.927
 21
186.763
  0
LINE
  8
0
 10
33.927
 20
186.763
 11
34.5
 21
185
  0
LINE
  8
0
 10
34.5
 20
185
 11
33.927
 21
183.237
  0
LINE
  8
0
 10
33.927
 20
183.237
 11
32.427
 21
182.147
  0
LINE
  8
0
 10
32.427
 20
182.147
 11
30.5729
 21
182.147
  0
LINE
  8
0
 10
7.57295
 20
182.147
 11
6.07295
 21
183.237
  0
LINE
  8
0
 10
6.07295
 20
183.237
 11
5.5
 21
185
  0
LINE
  8
0
 10
5.5
 20
185
 11
6.07295
 21
186.763
  0
LINE
  8
0
 10
6.07295
 20
186.763
 11
7.57295
 21
187.853
  0
LINE
  8
0
 10
7.57295
 20
187.853
 11
9.42706
 21
187.853
  0
LINE
  8
0
 10
9.42706
 20
187.853
 11
10.9271
 21
186.763
  0
LINE
  8
0
 10
10.9271
 20
186.763
 11
11.5
 21
185
  0
LINE
  8
0
 10
11.5
 20
185
 11
10.9271
 21
183.237
  0
LINE
  8
0
 10
10.9271
 20
183.237
 11
9.42706
 21
182.147
  0
LINE
  8
0
 10
9.42706
 20
182.147
 11
7.57295
 21
182.147
  0
LINE
  8
0
 10
29.0729
 20
163.147
 11
27.5729
 21
164.237
  0
LINE
  8
0
 10
27.5729
 20
164.237
 11
27
 21
166
  0
LINE
  8
0
 10
27
 20
166
 11
27.5729
 21
167.763
  0
LINE
  8
0
 10
27.5729
 20
167.763
 11
29.0729
 21
168.853
  0
LINE
  8
0
 10
29.0729
 20
168.853
 11
30.927
 21
168.853
  0
LINE
  8
0
 10
30.927
 20
168.853
 11
32.427
 21
167.763
  0
LINE
  8
0
 10
32.427
 20
167.763
 11
33
 21
166
  0
LINE
  8
0
 10
33
 20
166
 11
32.427
 21
164.237
  0
LINE
  8
0
 10
32.427
 20
164.237
 11
30.927
 21
163.147
  0
LINE
  8
0
 10
30.927
 20
163.147
 11
29.0729
 21
163.147
  0
LINE
  8
0
 10
-17.427
 20
159.647
 11
-18.927
 21
160.737
  0
LINE
  8
0
 10
-18.927
 20
160.737
 11
-19.5
 21
162.5
  0
LINE
  8
0
 10
-19.5
 20
162.5
 11
-18.927
 21
164.263
  0
LINE
  8
0
 10
-18.927
 20
164.263
 11
-17.427
 21
165.353
  0
LINE
  8
0
 10
-17.427
 20
165.353
 11
-15.5729
 21
165.353
  0
LINE
  8
0
 10
-15.5729
 20
165.353
 11
-14.0729
 21
164.263
  0
LINE
  8
0
 10
-14.0729
 20
164.263
 11
-13.5
 21
162.5
  0
LINE
  8
0
 10
-13.5
 20
162.5
 11
-14.0729
 21
160.737
  0
LINE
  8
0
 10
-14.0729
 20
160.737
 11
-15.5729
 21
159.647
  0
LINE
  8
0
 10
-15.5729
 20
159.647
 11
-17.427
 21
159.647
  0
LINE
  8
0
 10
5.57294
 20
159.647
 11
4.07294
 21
160.737
  0
LINE
  8
0
 10
4.07294
 20
160.737
 11
3.5
 21
162.5
  0
LINE
  8
0
 10
3.5
 20
162.5
 11
4.07294
 21
164.263
  0
LINE
  8
0
 10
4.07294
 20
164.263
 11
5.57294
 21
165.353
  0
LINE
  8
0
 10
5.57294
 20
165.353
 11
7.42705
 21
165.353
  0
LINE
  8
0
 10
7.42705
 20
165.353
 11
8.92705
 21
164.263
  0
LINE
  8
0
 10
8.92705
 20
164.263
 11
9.5
 21
162.5
  0
LINE
  8
0
 10
9.5
 20
162.5
 11
8.92705
 21
160.737
  0
LINE
  8
0
 10
8.92705
 20
160.737
 11
7.42705
 21
159.647
  0
LINE
  8
0
 10
7.42705
 20
159.647
 11
5.57294
 21
159.647
  0
LINE
  8
0
 10
166.1
 20
237
 11
171.9
 21
237
  0
LINE
  8
0
 10
171.9
 20
237
 11
171.9
 21
231
  0
LINE
  8
0
 10
171.9
 20
231
 11
186.5
 21
231
  0
LINE
  8
0
 10
186.5
 20
231
 11
186.5
 21
251
  0
LINE
  8
0
 10
186.5
 20
251
 11
181.5
 21
251
  0
LINE
  8
0
 10
181.5
 20
251
 11
181.5
 21
246
  0
LINE
  8
0
 10
181.5
 20
246
 11
156.5
 21
246
  0
LINE
  8
0
 10
156.5
 20
246
 11
156.5
 21
251
  0
LINE
  8
0
 10
156.5
 20
251
 11
151.5
 21
251
  0
LINE
  8
0
 10
151.5
 20
251
 11
151.5
 21
231
  0
LINE
  8
0
 10
151.5
 20
231
 11
166.1
 21
231
  0
LINE
  8
0
 10
166.1
 20
231
 11
166.1
 21
237
  0
LINE
  8
0
 10
266.6
 20
216.5
 11
272.4
 21
216.5
  0
LINE
  8
0
 10
272.4
 20
216.5
 11
272.4
 21
210.5
  0
LINE
  8
0
 10
272.4
 20
210.5
 11
287
 21
210.5
  0
LINE
  8
0
 10
287
 20
210.5
 11
287
 21
230.5
  0
LINE
  8
0
 10
287
 20
230.5
 11
282
 21
230.5
  0
LINE
  8
0
 10
282
 20
230.5
 11
282
 21
225.5
  0
LINE
  8
0
 10
282
 20
225.5
 11
257
 21
225.5
  0
LINE
  8
0
 10
257
 20
225.5
 11
257
 21
230.5
  0
LINE
  8
0
 10
257
 20
230.5
 11
252
 21
230.5
  0
LINE
  8
0
 10
252
 20
230.5
 11
252
 21
210.5
  0
LINE
  8
0
 10
252
 20
210.5
 11
266.6
 21
210.5
  0
LINE
  8
0
 10
266.6
 20
210.5
 11
266.6
 21
216.5
  0
LINE
  8
0
 10
65.6
 20
216.5
 11
71.4
 21
216.5
  0
LINE
  8
0
 10
71.4
 20
216.5
 11
71.4
 21
210.5
  0
LINE
  8
0
 10
71.4
 20
210.5
 11
86
 21
210.5
  0
LINE
  8
0
 10
86
 20
210.5
 11
86
 21
230.5
  0
LINE
  8
0
 10
86
 20
230.5
 11
81
 21
230.5
  0
LINE
  8
0
 10
81
 20
230.5
 11
81
 21
225.5
  0
LINE
  8
0
 10
81
 20
225.5
 11
56
 21
225.5
  0
LINE
  8
0
 10
56
 20
225.5
 11
56
 21
230.5
  0
LINE
  8
0
 10
56
 20
230.5
 11
51
 21
230.5
  0
LINE
  8
0
 10
51
 20
230.5
 11
51
 21
210.5
  0
LINE
  8
0
 10
51
 20
210.5
 11
65.6
 21
210.5
  0
LINE
  8
0
 10
65.6
 20
210.5
 11
65.6
 21
216.5
  0
LINE
  8
0
 10
-34.9
 20
216.5
 11
-29.1
 21
216.5
  0
LINE
  8
0
 10
-29.1
 20
216.5
 11
-29.1
 21
210.5
  0
LINE
  8
0
 10
-29.1
 20
210.5
 11
-14.5
 21
210.5
  0
LINE
  8
0
 10
-14.5
 20
210.5
 11
-14.5
 21
230.5
  0
LINE
  8
0
 10
-14.5
 20
230.5
 11
-19.5
 21
230.5
  0
LINE
  8
0
 10
-19.5
 20
230.5
 11
-19.5
 21
225.5
  0
LINE
  8
0
 10
-19.5
 20
225.5
 11
-44.5
 21
225.5
  0
LINE
  8
0
 10
-44.5
 20
225.5
 11
-44.5
 21
230.5
  0
LINE
  8
0
 10
-44.5
 20
230.5
 11
-49.5
 21
230.5
  0
LINE
  8
0
 10
-49.5
 20
230.5
 11
-49.5
 21
210.5
  0
LINE
  8
0
 10
-49.5
 20
210.5
 11
-34.9
 21
210.5
  0
LINE
  8
0
 10
-34.9
 20
210.5
 11
-34.9
 21
216.5
  0
LINE
  8
0
 10
166.1
 20
216.5
 11
171.9
 21
216.5
  0
LINE
  8
0
 10
171.9
 20
216.5
 11
171.9
 21
210.5
  0
LINE
  8
0
 10
171.9
 20
210.5
 11
186.5
 21
210.5
  0
LINE
  8
0
 10
186.5
 20
210.5
 11
186.5
 21
230.5
  0
LINE
  8
0
 10
186.5
 20
230.5
 11
181.5
 21
230.5
  0
LINE
  8
0
 10
181.5
 20
230.5
 11
181.5
 21
225.5
  0
LINE
  8
0
 10
181.5
 20
225.5
 11
156.5
 21
225.5
  0
LINE
  8
0
 10
156.5
 20
225.5
 11
156.5
 21
230.5
  0
LINE
  8
0
 10
156.5
 20
230.5
 11
151.5
 21
230.5
  0
LINE
  8
0
 10
151.5
 20
230.5
 11
151.5
 21
210.5
  0
LINE
  8
0
 10
151.5
 20
210.5
 11
166.1
 21
210.5
  0
LINE
  8
0
 10
166.1
 20
210.5
 11
166.1
 21
216.5
  0
LINE
  8
0
 10
65.6
 20
136.5
 11
71.4
 21
136.5
  0
LINE
  8
0
 10
71.4
 20
136.5
 11
71.4
 21
130.5
  0
LINE
  8
0
 10
71.4
 20
130.5
 11
86
 21
130.5
  0
LINE
  8
0
 10
86
 20
130.5
 11
86
 21
150.5
  0
LINE
  8
0
 10
86
 20
150.5
 11
81
 21
150.5
  0
LINE
  8
0
 10
81
 20
150.5
 11
81
 21
145.5
  0
LINE
  8
0
 10
81
 20
145.5
 11
56
 21
145.5
  0
LINE
  8
0
 10
56
 20
145.5
 11
56
 21
150.5
  0
LINE
  8
0
 10
56
 20
150.5
 11
51
 21
150.5
  0
LINE
  8
0
 10
51
 20
150.5
 11
51
 21
130.5
  0
LINE
  8
0
 10
51
 20
130.5
 11
65.6
 21
130.5
  0
LINE
  8
0
 10
65.6
 20
130.5
 11
65.6
 21
136.5
  0
LINE
  8
0
 10
351.5
 20
55.6
 11
345.5
 21
55.6
  0
LINE
  8
0
 10
345.5
 20
55.6
 11
345.5
 21
61.4
  0
LINE
  8
0
 10
345.5
 20
61.4
 11
351.5
 21
61.4
  0
LINE
  8
0
 10
351.5
 20
61.4
 11
351.5
 21
67.6
  0
LINE
  8
0
 10
351.5
 20
67.6
 11
345.5
 21
67.6
  0
LINE
  8
0
 10
345.5
 20
67.6
 11
345.5
 21
73.4
  0
LINE
  8
0
 10
345.5
 20
73.4
 11
351.5
 21
73.4
  0
LINE
  8
0
 10
351.5
 20
73.4
 11
351.5
 21
80.5
  0
LINE
  8
0
 10
351.5
 20
80.5
 11
339.5
 21
80.5
  0
LINE
  8
0
 10
339.5
 20
80.5
 11
339.5
 21
150.5
  0
LINE
  8
0
 10
339.5
 20
150.5
 11
287.75
 21
150.5
  0
LINE
  8
0
 10
287.75
 20
150.5
 11
287.75
 21
109.5
  0
LINE
  8
0
 10
287.75
 20
109.5
 11
251.5
 21
109.5
  0
LINE
  8
0
 10
251.5
 20
109.5
 11
251.5
 21
50.5
  0
LINE
  8
0
 10
251.5
 20
50.5
 11
351.5
 21
50.5
  0
LINE
  8
0
 10
351.5
 20
50.5
 11
351.5
 21
55.6
  0
LINE
  8
0
 10
332.073
 20
139.647
 11
330.573
 21
140.737
  0
LINE
  8
0
 10
330.573
 20
140.737
 11
330
 21
142.5
  0
LINE
  8
0
 10
330
 20
142.5
 11
330.573
 21
144.263
  0
LINE
  8
0
 10
330.573
 20
144.263
 11
332.073
 21
145.353
  0
LINE
  8
0
 10
332.073
 20
145.353
 11
333.927
 21
145.353
  0
LINE
  8
0
 10
333.927
 20
145.353
 11
335.427
 21
144.263
  0
LINE
  8
0
 10
335.427
 20
144.263
 11
336
 21
142.5
  0
LINE
  8
0
 10
336
 20
142.5
 11
335.427
 21
140.737
  0
LINE
  8
0
 10
335.427
 20
140.737
 11
333.927
 21
139.647
  0
LINE
  8
0
 10
333.927
 20
139.647
 11
332.073
 21
139.647
  0
LINE
  8
0
 10
309.073
 20
139.647
 11
307.573
 21
140.737
  0
LINE
  8
0
 10
307.573
 20
140.737
 11
307
 21
142.5
  0
LINE
  8
0
 10
307
 20
142.5
 11
307.573
 21
144.263
  0
LINE
  8
0
 10
307.573
 20
144.263
 11
309.073
 21
145.353
  0
LINE
  8
0
 10
309.073
 20
145.353
 11
310.927
 21
145.353
  0
LINE
  8
0
 10
310.927
 20
145.353
 11
312.427
 21
144.263
  0
LINE
  8
0
 10
312.427
 20
144.263
 11
313
 21
142.5
  0
LINE
  8
0
 10
313
 20
142.5
 11
312.427
 21
140.737
  0
LINE
  8
0
 10
312.427
 20
140.737
 11
310.927
 21
139.647
  0
LINE
  8
0
 10
310.927
 20
139.647
 11
309.073
 21
139.647
  0
LINE
  8
0
 10
332.073
 20
81.6468
 11
330.573
 21
82.7366
  0
LINE
  8
0
 10
330.573
 20
82.7366
 11
330
 21
84.5
  0
LINE
  8
0
 10
330
 20
84.5
 11
330.573
 21
86.2634
  0
LINE
  8
0
 10
330.573
 20
86.2634
 11
332.073
 21
87.3532
  0
LINE
  8
0
 10
332.073
 20
87.3532
 11
333.927
 21
87.3532
  0
LINE
  8
0
 10
333.927
 20
87.3532
 11
335.427
 21
86.2634
  0
LINE
  8
0
 10
335.427
 20
86.2634
 11
336
 21
84.5
  0
LINE
  8
0
 10
336
 20
84.5
 11
335.427
 21
82.7366
  0
LINE
  8
0
 10
335.427
 20
82.7366
 11
333.927
 21
81.6468
  0
LINE
  8
0
 10
333.927
 20
81.6468
 11
332.073
 21
81.6468
  0
LINE
  8
0
 10
309.073
 20
81.6468
 11
307.573
 21
82.7366
  0
LINE
  8
0
 10
307.573
 20
82.7366
 11
307
 21
84.5
  0
LINE
  8
0
 10
307
 20
84.5
 11
307.573
 21
86.2634
  0
LINE
  8
0
 10
307.573
 20
86.2634
 11
309.073
 21
87.3532
  0
LINE
  8
0
 10
309.073
 20
87.3532
 11
310.927
 21
87.3532
  0
LINE
  8
0
 10
310.927
 20
87.3532
 11
312.427
 21
86.2634
  0
LINE
  8
0
 10
312.427
 20
86.2634
 11
313
 21
84.5
  0
LINE
  8
0
 10
313
 20
84.5
 11
312.427
 21
82.7366
  0
LINE
  8
0
 10
312.427
 20
82.7366
 11
310.927
 21
81.6468
  0
LINE
  8
0
 10
310.927
 20
81.6468
 11
309.073
 21
81.6468
  0
LINE
  8
0
 10
330.573
 20
62.6468
 11
329.073
 21
63.7366
  0
LINE
  8
0
 10
329.073
 20
63.7366
 11
328.5
 21
65.5
  0
LINE
  8
0
 10
328.5
 20
65.5
 11
329.073
 21
67.2634
  0
LINE
  8
0
 10
329.073
 20
67.2634
 11
330.573
 21
68.3532
  0
LINE
  8
0
 10
330.573
 20
68.3532
 11
332.427
 21
68.3532
  0
LINE
  8
0
 10
332.427
 20
68.3532
 11
333.927
 21
67.2634
  0
LINE
  8
0
 10
333.927
 20
67.2634
 11
334.5
 21
65.5
  0
LINE
  8
0
 10
334.5
 20
65.5
 11
333.927
 21
63.7366
  0
LINE
  8
0
 10
333.927
 20
63.7366
 11
332.427
 21
62.6468
  0
LINE
  8
0
 10
332.427
 20
62.6468
 11
330.573
 21
62.6468
  0
LINE
  8
0
 10
284.073
 20
59.1468
 11
282.573
 21
60.2366
  0
LINE
  8
0
 10
282.573
 20
60.2366
 11
282
 21
62
  0
LINE
  8
0
 10
282
 20
62
 11
282.573
 21
63.7634
  0
LINE
  8
0
 10
282.573
 20
63.7634
 11
284.073
 21
64.8532
  0
LINE
  8
0
 10
284.073
 20
64.8532
 11
285.927
 21
64.8532
  0
LINE
  8
0
 10
285.927
 20
64.8532
 11
287.427
 21
63.7634
  0
LINE
  8
0
 10
287.427
 20
63.7634
 11
288
 21
62
  0
LINE
  8
0
 10
288
 20
62
 11
287.427
 21
60.2366
  0
LINE
  8
0
 10
287.427
 20
60.2366
 11
285.927
 21
59.1468
  0
LINE
  8
0
 10
285.927
 20
59.1468
 11
284.073
 21
59.1468
  0
LINE
  8
0
 10
307.073
 20
59.1468
 11
305.573
 21
60.2366
  0
LINE
  8
0
 10
305.573
 20
60.2366
 11
305
 21
62
  0
LINE
  8
0
 10
305
 20
62
 11
305.573
 21
63.7634
  0
LINE
  8
0
 10
305.573
 20
63.7634
 11
307.073
 21
64.8532
  0
LINE
  8
0
 10
307.073
 20
64.8532
 11
308.927
 21
64.8532
  0
LINE
  8
0
 10
308.927
 20
64.8532
 11
310.427
 21
63.7634
  0
LINE
  8
0
 10
310.427
 20
63.7634
 11
311
 21
62
  0
LINE
  8
0
 10
311
 20
62
 11
310.427
 21
60.2366
  0
LINE
  8
0
 10
310.427
 20
60.2366
 11
308.927
 21
59.1468
  0
LINE
  8
0
 10
308.927
 20
59.1468
 11
307.073
 21
59.1468
  0
LINE
  8
0
 10
-34.9
 20
136.5
 11
-29.1
 21
136.5
  0
LINE
  8
0
 10
-29.1
 20
136.5
 11
-29.1
 21
130.5
  0
LINE
  8
0
 10
-29.1
 20
130.5
 11
-14.5
 21
130.5
  0
LINE
  8
0
 10
-14.5
 20
130.5
 11
-14.5
 21
150.5
  0
LINE
  8
0
 10
-14.5
 20
150.5
 11
-19.5
 21
150.5
  0
LINE
  8
0
 10
-19.5
 20
150.5
 11
-19.5
 21
145.5
  0
LINE
  8
0
 10
-19.5
 20
145.5
 11
-44.5
 21
145.5
  0
LINE
  8
0
 10
-44.5
 20
145.5
 11
-44.5
 21
150.5
  0
LINE
  8
0
 10
-44.5
 20
150.5
 11
-49.5
 21
150.5
  0
LINE
  8
0
 10
-49.5
 20
150.5
 11
-49.5
 21
130.5
  0
LINE
  8
0
 10
-49.5
 20
130.5
 11
-34.9
 21
130.5
  0
LINE
  8
0
 10
-34.9
 20
130.5
 11
-34.9
 21
136.5
  0
LINE
  8
0
 10
266.6
 20
136.5
 11
272.4
 21
136.5
  0
LINE
  8
0
 10
272.4
 20
136.5
 11
272.4
 21
130.5
  0
LINE
  8
0
 10
272.4
 20
130.5
 11
287
 21
130.5
  0
LINE
  8
0
 10
287
 20
130.5
 11
287
 21
150.5
  0
LINE
  8
0
 10
287
 20
150.5
 11
282
 21
150.5
  0
LINE
  8
0
 10
282
 20
150.5
 11
282
 21
145.5
  0
LINE
  8
0
 10
282
 20
145.5
 11
257
 21
145.5
  0
LINE
  8
0
 10
257
 20
145.5
 11
257
 21
150.5
  0
LINE
  8
0
 10
257
 20
150.5
 11
252
 21
150.5
  0
LINE
  8
0
 10
252
 20
150.5
 11
252
 21
130.5
  0
LINE
  8
0
 10
252
 20
130.5
 11
266.6
 21
130.5
  0
LINE
  8
0
 10
266.6
 20
130.5
 11
266.6
 21
136.5
  0
LINE
  8
0
 10
251
 20
55.6
 11
245
 21
55.6
  0
LINE
  8
0
 10
245
 20
55.6
 11
245
 21
61.4
  0
LINE
  8
0
 10
245
 20
61.4
 11
251
 21
61.4
  0
LINE
  8
0
 10
251
 20
61.4
 11
251
 21
67.6
  0
LINE
  8
0
 10
251
 20
67.6
 11
245
 21
67.6
  0
LINE
  8
0
 10
245
 20
67.6
 11
245
 21
73.4
  0
LINE
  8
0
 10
245
 20
73.4
 11
251
 21
73.4
  0
LINE
  8
0
 10
251
 20
73.4
 11
251
 21
80.5
  0
LINE
  8
0
 10
251
 20
80.5
 11
239
 21
80.5
  0
LINE
  8
0
 10
239
 20
80.5
 11
239
 21
150.5
  0
LINE
  8
0
 10
239
 20
150.5
 11
187.25
 21
150.5
  0
LINE
  8
0
 10
187.25
 20
150.5
 11
187.25
 21
109.5
  0
LINE
  8
0
 10
187.25
 20
109.5
 11
151
 21
109.5
  0
LINE
  8
0
 10
151
 20
109.5
 11
151
 21
50.5
  0
LINE
  8
0
 10
151
 20
50.5
 11
251
 21
50.5
  0
LINE
  8
0
 10
251
 20
50.5
 11
251
 21
55.6
  0
LINE
  8
0
 10
208.573
 20
139.647
 11
207.073
 21
140.737
  0
LINE
  8
0
 10
207.073
 20
140.737
 11
206.5
 21
142.5
  0
LINE
  8
0
 10
206.5
 20
142.5
 11
207.073
 21
144.263
  0
LINE
  8
0
 10
207.073
 20
144.263
 11
208.573
 21
145.353
  0
LINE
  8
0
 10
208.573
 20
145.353
 11
210.427
 21
145.353
  0
LINE
  8
0
 10
210.427
 20
145.353
 11
211.927
 21
144.263
  0
LINE
  8
0
 10
211.927
 20
144.263
 11
212.5
 21
142.5
  0
LINE
  8
0
 10
212.5
 20
142.5
 11
211.927
 21
140.737
  0
LINE
  8
0
 10
211.927
 20
140.737
 11
210.427
 21
139.647
  0
LINE
  8
0
 10
210.427
 20
139.647
 11
208.573
 21
139.647
  0
LINE
  8
0
 10
231.573
 20
139.647
 11
230.073
 21
140.737
  0
LINE
  8
0
 10
230.073
 20
140.737
 11
229.5
 21
142.5
  0
LINE
  8
0
 10
229.5
 20
142.5
 11
230.073
 21
144.263
  0
LINE
  8
0
 10
230.073
 20
144.263
 11
231.573
 21
145.353
  0
LINE
  8
0
 10
231.573
 20
145.353
 11
233.427
 21
145.353
  0
LINE
  8
0
 10
233.427
 20
145.353
 11
234.927
 21
144.263
  0
LINE
  8
0
 10
234.927
 20
144.263
 11
235.5
 21
142.5
  0
LINE
  8
0
 10
235.5
 20
142.5
 11
234.927
 21
140.737
  0
LINE
  8
0
 10
234.927
 20
140.737
 11
233.427
 21
139.647
  0
LINE
  8
0
 10
233.427
 20
139.647
 11
231.573
 21
139.647
  0
LINE
  8
0
 10
208.573
 20
81.6468
 11
207.073
 21
82.7366
  0
LINE
  8
0
 10
207.073
 20
82.7366
 11
206.5
 21
84.5
  0
LINE
  8
0
 10
206.5
 20
84.5
 11
207.073
 21
86.2634
  0
LINE
  8
0
 10
207.073
 20
86.2634
 11
208.573
 21
87.3532
  0
LINE
  8
0
 10
208.573
 20
87.3532
 11
210.427
 21
87.3532
  0
LINE
  8
0
 10
210.427
 20
87.3532
 11
211.927
 21
86.2634
  0
LINE
  8
0
 10
211.927
 20
86.2634
 11
212.5
 21
84.5
  0
LINE
  8
0
 10
212.5
 20
84.5
 11
211.927
 21
82.7366
  0
LINE
  8
0
 10
211.927
 20
82.7366
 11
210.427
 21
81.6468
  0
LINE
  8
0
 10
210.427
 20
81.6468
 11
208.573
 21
81.6468
  0
LINE
  8
0
 10
231.573
 20
81.6468
 11
230.073
 21
82.7366
  0
LINE
  8
0
 10
230.073
 20
82.7366
 11
229.5
 21
84.5
  0
LINE
  8
0
 10
229.5
 20
84.5
 11
230.073
 21
86.2634
  0
LINE
  8
0
 10
230.073
 20
86.2634
 11
231.573
 21
87.3532
  0
LINE
  8
0
 10
231.573
 20
87.3532
 11
233.427
 21
87.3532
  0
LINE
  8
0
 10
233.427
 20
87.3532
 11
234.927
 21
86.2634
  0
LINE
  8
0
 10
234.927
 20
86.2634
 11
235.5
 21
84.5
  0
LINE
  8
0
 10
235.5
 20
84.5
 11
234.927
 21
82.7366
  0
LINE
  8
0
 10
234.927
 20
82.7366
 11
233.427
 21
81.6468
  0
LINE
  8
0
 10
233.427
 20
81.6468
 11
231.573
 21
81.6468
  0
LINE
  8
0
 10
230.073
 20
62.6468
 11
228.573
 21
63.7366
  0
LINE
  8
0
 10
228.573
 20
63.7366
 11
228
 21
65.5
  0
LINE
  8
0
 10
228
 20
65.5
 11
228.573
 21
67.2634
  0
LINE
  8
0
 10
228.573
 20
67.2634
 11
230.073
 21
68.3532
  0
LINE
  8
0
 10
230.073
 20
68.3532
 11
231.927
 21
68.3532
  0
LINE
  8
0
 10
231.927
 20
68.3532
 11
233.427
 21
67.2634
  0
LINE
  8
0
 10
233.427
 20
67.2634
 11
234
 21
65.5
  0
LINE
  8
0
 10
234
 20
65.5
 11
233.427
 21
63.7366
  0
LINE
  8
0
 10
233.427
 20
63.7366
 11
231.927
 21
62.6468
  0
LINE
  8
0
 10
231.927
 20
62.6468
 11
230.073
 21
62.6468
  0
LINE
  8
0
 10
206.573
 20
59.1468
 11
205.073
 21
60.2366
  0
LINE
  8
0
 10
205.073
 20
60.2366
 11
204.5
 21
62
  0
LINE
  8
0
 10
204.5
 20
62
 11
205.073
 21
63.7634
  0
LINE
  8
0
 10
205.073
 20
63.7634
 11
206.573
 21
64.8532
  0
LINE
  8
0
 10
206.573
 20
64.8532
 11
208.427
 21
64.8532
  0
LINE
  8
0
 10
208.427
 20
64.8532
 11
209.927
 21
63.7634
  0
LINE
  8
0
 10
209.927
 20
63.7634
 11
210.5
 21
62
  0
LINE
  8
0
 10
210.5
 20
62
 11
209.927
 21
60.2366
  0
LINE
  8
0
 10
209.927
 20
60.2366
 11
208.427
 21
59.1468
  0
LINE
  8
0
 10
208.427
 20
59.1468
 11
206.573
 21
59.1468
  0
LINE
  8
0
 10
183.573
 20
59.1468
 11
182.073
 21
60.2366
  0
LINE
  8
0
 10
182.073
 20
60.2366
 11
181.5
 21
62
  0
LINE
  8
0
 10
181.5
 20
62
 11
182.073
 21
63.7634
  0
LINE
  8
0
 10
182.073
 20
63.7634
 11
183.573
 21
64.8532
  0
LINE
  8
0
 10
183.573
 20
64.8532
 11
185.427
 21
64.8532
  0
LINE
  8
0
 10
185.427
 20
64.8532
 11
186.927
 21
63.7634
  0
LINE
  8
0
 10
186.927
 20
63.7634
 11
187.5
 21
62
  0
LINE
  8
0
 10
187.5
 20
62
 11
186.927
 21
60.2366
  0
LINE
  8
0
 10
186.927
 20
60.2366
 11
185.427
 21
59.1468
  0
LINE
  8
0
 10
185.427
 20
59.1468
 11
183.573
 21
59.1468
  0
LINE
  8
0
 10
50
 20
55.6
 11
44
 21
55.6
  0
LINE
  8
0
 10
44
 20
55.6
 11
44
 21
61.4
  0
LINE
  8
0
 10
44
 20
61.4
 11
50
 21
61.4
  0
LINE
  8
0
 10
50
 20
61.4
 11
50
 21
67.6
  0
LINE
  8
0
 10
50
 20
67.6
 11
44
 21
67.6
  0
LINE
  8
0
 10
44
 20
67.6
 11
44
 21
73.4
  0
LINE
  8
0
 10
44
 20
73.4
 11
50
 21
73.4
  0
LINE
  8
0
 10
50
 20
73.4
 11
50
 21
80.5
  0
LINE
  8
0
 10
50
 20
80.5
 11
38
 21
80.5
  0
LINE
  8
0
 10
38
 20
80.5
 11
38
 21
150.5
  0
LINE
  8
0
 10
38
 20
150.5
 11
-13.75
 21
150.5
  0
LINE
  8
0
 10
-13.75
 20
150.5
 11
-13.75
 21
109.5
  0
LINE
  8
0
 10
-13.75
 20
109.5
 11
-50
 21
109.5
  0
LINE
  8
0
 10
-50
 20
109.5
 11
-50
 21
50.5
  0
LINE
  8
0
 10
-50
 20
50.5
 11
50
 21
50.5
  0
LINE
  8
0
 10
50
 20
50.5
 11
50
 21
55.6
  0
LINE
  8
0
 10
7.57295
 20
139.647
 11
6.07295
 21
140.737
  0
LINE
  8
0
 10
6.07295
 20
140.737
 11
5.5
 21
142.5
  0
LINE
  8
0
 10
5.5
 20
142.5
 11
6.07295
 21
144.263
  0
LINE
  8
0
 10
6.07295
 20
144.263
 11
7.57295
 21
145.353
  0
LINE
  8
0
 10
7.57295
 20
145.353
 11
9.42706
 21
145.353
  0
LINE
  8
0
 10
9.42706
 20
145.353
 11
10.9271
 21
144.263
  0
LINE
  8
0
 10
10.9271
 20
144.263
 11
11.5
 21
142.5
  0
LINE
  8
0
 10
11.5
 20
142.5
 11
10.9271
 21
140.737
  0
LINE
  8
0
 10
10.9271
 20
140.737
 11
9.42706
 21
139.647
  0
LINE
  8
0
 10
9.42706
 20
139.647
 11
7.57295
 21
139.647
  0
LINE
  8
0
 10
30.5729
 20
139.647
 11
29.0729
 21
140.737
  0
LINE
  8
0
 10
29.0729
 20
140.737
 11
28.5
 21
142.5
  0
LINE
  8
0
 10
28.5
 20
142.5
 11
29.0729
 21
144.263
  0
LINE
  8
0
 10
29.0729
 20
144.263
 11
30.5729
 21
145.353
  0
LINE
  8
0
 10
30.5729
 20
145.353
 11
32.427
 21
145.353
  0
LINE
  8
0
 10
32.427
 20
145.353
 11
33.927
 21
144.263
  0
LINE
  8
0
 10
33.927
 20
144.263
 11
34.5
 21
142.5
  0
LINE
  8
0
 10
34.5
 20
142.5
 11
33.927
 21
140.737
  0
LINE
  8
0
 10
33.927
 20
140.737
 11
32.427
 21
139.647
  0
LINE
  8
0
 10
32.427
 20
139.647
 11
30.5729
 21
139.647
  0
LINE
  8
0
 10
30.5729
 20
81.6468
 11
29.0729
 21
82.7366
  0
LINE
  8
0
 10
29.0729
 20
82.7366
 11
28.5
 21
84.5
  0
LINE
  8
0
 10
28.5
 20
84.5
 11
29.0729
 21
86.2634
  0
LINE
  8
0
 10
29.0729
 20
86.2634
 11
30.5729
 21
87.3532
  0
LINE
  8
0
 10
30.5729
 20
87.3532
 11
32.427
 21
87.3532
  0
LINE
  8
0
 10
32.427
 20
87.3532
 11
33.927
 21
86.2634
  0
LINE
  8
0
 10
33.927
 20
86.2634
 11
34.5
 21
84.5
  0
LINE
  8
0
 10
34.5
 20
84.5
 11
33.927
 21
82.7366
  0
LINE
  8
0
 10
33.927
 20
82.7366
 11
32.427
 21
81.6468
  0
LINE
  8
0
 10
32.427
 20
81.6468
 11
30.5729
 21
81.6468
  0
LINE
  8
0
 10
7.57295
 20
81.6468
 11
6.07295
 21
82.7366
  0
LINE
  8
0
 10
6.07295
 20
82.7366
 11
5.5
 21
84.5
  0
LINE
  8
0
 10
5.5
 20
84.5
 11
6.07295
 21
86.2634
  0
LINE
  8
0
 10
6.07295
 20
86.2634
 11
7.57295
 21
87.3532
  0
LINE
  8
0
 10
7.57295
 20
87.3532
 11
9.42706
 21
87.3532
  0
LINE
  8
0
 10
9.42706
 20
87.3532
 11
10.9271
 21
86.2634
  0
LINE
  8
0
 10
10.9271
 20
86.2634
 11
11.5
 21
84.5
  0
LINE
  8
0
 10
11.5
 20
84.5
 11
10.9271
 21
82.7366
  0
LINE
  8
0
 10
10.9271
 20
82.7366
 11
9.42706
 21
81.6468
  0
LINE
  8
0
 10
9.42706
 20
81.6468
 11
7.57295
 21
81.6468
  0
LINE
  8
0
 10
29.0729
 20
62.6468
 11
27.5729
 21
63.7366
  0
LINE
  8
0
 10
27.5729
 20
63.7366
 11
27
 21
65.5
  0
LINE
  8
0
 10
27
 20
65.5
 11
27.5729
 21
67.2634
  0
LINE
  8
0
 10
27.5729
 20
67.2634
 11
29.0729
 21
68.3532
  0
LINE
  8
0
 10
29.0729
 20
68.3532
 11
30.927
 21
68.3532
  0
LINE
  8
0
 10
30.927
 20
68.3532
 11
32.427
 21
67.2634
  0
LINE
  8
0
 10
32.427
 20
67.2634
 11
33
 21
65.5
  0
LINE
  8
0
 10
33
 20
65.5
 11
32.427
 21
63.7366
  0
LINE
  8
0
 10
32.427
 20
63.7366
 11
30.927
 21
62.6468
  0
LINE
  8
0
 10
30.927
 20
62.6468
 11
29.0729
 21
62.6468
  0
LINE
  8
0
 10
5.57294
 20
59.1468
 11
4.07294
 21
60.2366
  0
LINE
  8
0
 10
4.07294
 20
60.2366
 11
3.5
 21
62
  0
LINE
  8
0
 10
3.5
 20
62
 11
4.07294
 21
63.7634
  0
LINE
  8
0
 10
4.07294
 20
63.7634
 11
5.57294
 21
64.8532
  0
LINE
  8
0
 10
5.57294
 20
64.8532
 11
7.42705
 21
64.8532
  0
LINE
  8
0
 10
7.42705
 20
64.8532
 11
8.92705
 21
63.7634
  0
LINE
  8
0
 10
8.92705
 20
63.7634
 11
9.5
 21
62
  0
LINE
  8
0
 10
9.5
 20
62
 11
8.92705
 21
60.2366
  0
LINE
  8
0
 10
8.92705
 20
60.2366
 11
7.42705
 21
59.1468
  0
LINE
  8
0
 10
7.42705
 20
59.1468
 11
5.57294
 21
59.1468
  0
LINE
  8
0
 10
-17.427
 20
59.1468
 11
-18.927
 21
60.2366
  0
LINE
  8
0
 10
-18.927
 20
60.2366
 11
-19.5
 21
62
  0
LINE
  8
0
 10
-19.5
 20
62
 11
-18.927
 21
63.7634
  0
LINE
  8
0
 10
-18.927
 20
63.7634
 11
-17.427
 21
64.8532
  0
LINE
  8
0
 10
-17.427
 20
64.8532
 11
-15.5729
 21
64.8532
  0
LINE
  8
0
 10
-15.5729
 20
64.8532
 11
-14.0729
 21
63.7634
  0
LINE
  8
0
 10
-14.0729
 20
63.7634
 11
-13.5
 21
62
  0
LINE
  8
0
 10
-13.5
 20
62
 11
-14.0729
 21
60.2366
  0
LINE
  8
0
 10
-14.0729
 20
60.2366
 11
-15.5729
 21
59.1468
  0
LINE
  8
0
 10
-15.5729
 20
59.1468
 11
-17.427
 21
59.1468
  0
LINE
  8
0
 10
150.5
 20
55.6
 11
144.5
 21
55.6
  0
LINE
  8
0
 10
144.5
 20
55.6
 11
144.5
 21
61.4
  0
LINE
  8
0
 10
144.5
 20
61.4
 11
150.5
 21
61.4
  0
LINE
  8
0
 10
150.5
 20
61.4
 11
150.5
 21
67.6
  0
LINE
  8
0
 10
150.5
 20
67.6
 11
144.5
 21
67.6
  0
LINE
  8
0
 10
144.5
 20
67.6
 11
144.5
 21
73.4
  0
LINE
  8
0
 10
144.5
 20
73.4
 11
150.5
 21
73.4
  0
LINE
  8
0
 10
150.5
 20
73.4
 11
150.5
 21
80.5
  0
LINE
  8
0
 10
150.5
 20
80.5
 11
138.5
 21
80.5
  0
LINE
  8
0
 10
138.5
 20
80.5
 11
138.5
 21
150.5
  0
LINE
  8
0
 10
138.5
 20
150.5
 11
86.75
 21
150.5
  0
LINE
  8
0
 10
86.75
 20
150.5
 11
86.75
 21
109.5
  0
LINE
  8
0
 10
86.75
 20
109.5
 11
50.5
 21
109.5
  0
LINE
  8
0
 10
50.5
 20
109.5
 11
50.5
 21
50.5
  0
LINE
  8
0
 10
50.5
 20
50.5
 11
150.5
 21
50.5
  0
LINE
  8
0
 10
150.5
 20
50.5
 11
150.5
 21
55.6
  0
LINE
  8
0
 10
108.073
 20
139.647
 11
106.573
 21
140.737
  0
LINE
  8
0
 10
106.573
 20
140.737
 11
106
 21
142.5
  0
LINE
  8
0
 10
106
 20
142.5
 11
106.573
 21
144.263
  0
LINE
  8
0
 10
106.573
 20
144.263
 11
108.073
 21
145.353
  0
LINE
  8
0
 10
108.073
 20
145.353
 11
109.927
 21
145.353
  0
LINE
  8
0
 10
109.927
 20
145.353
 11
111.427
 21
144.263
  0
LINE
  8
0
 10
111.427
 20
144.263
 11
112
 21
142.5
  0
LINE
  8
0
 10
112
 20
142.5
 11
111.427
 21
140.737
  0
LINE
  8
0
 10
111.427
 20
140.737
 11
109.927
 21
139.647
  0
LINE
  8
0
 10
109.927
 20
139.647
 11
108.073
 21
139.647
  0
LINE
  8
0
 10
131.073
 20
139.647
 11
129.573
 21
140.737
  0
LINE
  8
0
 10
129.573
 20
140.737
 11
129
 21
142.5
  0
LINE
  8
0
 10
129
 20
142.5
 11
129.573
 21
144.263
  0
LINE
  8
0
 10
129.573
 20
144.263
 11
131.073
 21
145.353
  0
LINE
  8
0
 10
131.073
 20
145.353
 11
132.927
 21
145.353
  0
LINE
  8
0
 10
132.927
 20
145.353
 11
134.427
 21
144.263
  0
LINE
  8
0
 10
134.427
 20
144.263
 11
135
 21
142.5
  0
LINE
  8
0
 10
135
 20
142.5
 11
134.427
 21
140.737
  0
LINE
  8
0
 10
134.427
 20
140.737
 11
132.927
 21
139.647
  0
LINE
  8
0
 10
132.927
 20
139.647
 11
131.073
 21
139.647
  0
LINE
  8
0
 10
131.073
 20
81.6468
 11
129.573
 21
82.7366
  0
LINE
  8
0
 10
129.573
 20
82.7366
 11
129
 21
84.5
  0
LINE
  8
0
 10
129
 20
84.5
 11
129.573
 21
86.2634
  0
LINE
  8
0
 10
129.573
 20
86.2634
 11
131.073
 21
87.3532
  0
LINE
  8
0
 10
131.073
 20
87.3532
 11
132.927
 21
87.3532
  0
LINE
  8
0
 10
132.927
 20
87.3532
 11
134.427
 21
86.2634
  0
LINE
  8
0
 10
134.427
 20
86.2634
 11
135
 21
84.5
  0
LINE
  8
0
 10
135
 20
84.5
 11
134.427
 21
82.7366
  0
LINE
  8
0
 10
134.427
 20
82.7366
 11
132.927
 21
81.6468
  0
LINE
  8
0
 10
132.927
 20
81.6468
 11
131.073
 21
81.6468
  0
LINE
  8
0
 10
108.073
 20
81.6468
 11
106.573
 21
82.7366
  0
LINE
  8
0
 10
106.573
 20
82.7366
 11
106
 21
84.5
  0
LINE
  8
0
 10
106
 20
84.5
 11
106.573
 21
86.2634
  0
LINE
  8
0
 10
106.573
 20
86.2634
 11
108.073
 21
87.3532
  0
LINE
  8
0
 10
108.073
 20
87.3532
 11
109.927
 21
87.3532
  0
LINE
  8
0
 10
109.927
 20
87.3532
 11
111.427
 21
86.2634
  0
LINE
  8
0
 10
111.427
 20
86.2634
 11
112
 21
84.5
  0
LINE
  8
0
 10
112
 20
84.5
 11
111.427
 21
82.7366
  0
LINE
  8
0
 10
111.427
 20
82.7366
 11
109.927
 21
81.6468
  0
LINE
  8
0
 10
109.927
 20
81.6468
 11
108.073
 21
81.6468
  0
LINE
  8
0
 10
129.573
 20
62.6468
 11
128.073
 21
63.7366
  0
LINE
  8
0
 10
128.073
 20
63.7366
 11
127.5
 21
65.5
  0
LINE
  8
0
 10
127.5
 20
65.5
 11
128.073
 21
67.2634
  0
LINE
  8
0
 10
128.073
 20
67.2634
 11
129.573
 21
68.3532
  0
LINE
  8
0
 10
129.573
 20
68.3532
 11
131.427
 21
68.3532
  0
LINE
  8
0
 10
131.427
 20
68.3532
 11
132.927
 21
67.2634
  0
LINE
  8
0
 10
132.927
 20
67.2634
 11
133.5
 21
65.5
  0
LINE
  8
0
 10
133.5
 20
65.5
 11
132.927
 21
63.7366
  0
LINE
  8
0
 10
132.927
 20
63.7366
 11
131.427
 21
62.6468
  0
LINE
  8
0
 10
131.427
 20
62.6468
 11
129.573
 21
62.6468
  0
LINE
  8
0
 10
83.073
 20
59.1468
 11
81.573
 21
60.2366
  0
LINE
  8
0
 10
81.573
 20
60.2366
 11
81
 21
62
  0
LINE
  8
0
 10
81
 20
62
 11
81.573
 21
63.7634
  0
LINE
  8
0
 10
81.573
 20
63.7634
 11
83.073
 21
64.8532
  0
LINE
  8
0
 10
83.073
 20
64.8532
 11
84.9271
 21
64.8532
  0
LINE
  8
0
 10
84.9271
 20
64.8532
 11
86.4271
 21
63.7634
  0
LINE
  8
0
 10
86.4271
 20
63.7634
 11
87
 21
62
  0
LINE
  8
0
 10
87
 20
62
 11
86.4271
 21
60.2366
  0
LINE
  8
0
 10
86.4271
 20
60.2366
 11
84.9271
 21
59.1468
  0
LINE
  8
0
 10
84.9271
 20
59.1468
 11
83.073
 21
59.1468
  0
LINE
  8
0
 10
106.073
 20
59.1468
 11
104.573
 21
60.2366
  0
LINE
  8
0
 10
104.573
 20
60.2366
 11
104
 21
62
  0
LINE
  8
0
 10
104
 20
62
 11
104.573
 21
63.7634
  0
LINE
  8
0
 10
104.573
 20
63.7634
 11
106.073
 21
64.8532
  0
LINE
  8
0
 10
106.073
 20
64.8532
 11
107.927
 21
64.8532
  0
LINE
  8
0
 10
107.927
 20
64.8532
 11
109.427
 21
63.7634
  0
LINE
  8
0
 10
109.427
 20
63.7634
 11
110
 21
62
  0
LINE
  8
0
 10
110
 20
62
 11
109.427
 21
60.2366
  0
LINE
  8
0
 10
109.427
 20
60.2366
 11
107.927
 21
59.1468
  0
LINE
  8
0
 10
107.927
 20
59.1468
 11
106.073
 21
59.1468
  0
LINE
  8
0
 10
166.1
 20
136.5
 11
171.9
 21
136.5
  0
LINE
  8
0
 10
171.9
 20
136.5
 11
171.9
 21
130.5
  0
LINE
  8
0
 10
171.9
 20
130.5
 11
186.5
 21
130.5
  0
LINE
  8
0
 10
186.5
 20
130.5
 11
186.5
 21
150.5
  0
LINE
  8
0
 10
186.5
 20
150.5
 11
181.5
 21
150.5
  0
LINE
  8
0
 10
181.5
 20
150.5
 11
181.5
 21
145.5
  0
LINE
  8
0
 10
181.5
 20
145.5
 11
156.5
 21
145.5
  0
LINE
  8
0
 10
156.5
 20
145.5
 11
156.5
 21
150.5
  0
LINE
  8
0
 10
156.5
 20
150.5
 11
151.5
 21
150.5
  0
LINE
  8
0
 10
151.5
 20
150.5
 11
151.5
 21
130.5
  0
LINE
  8
0
 10
151.5
 20
130.5
 11
166.1
 21
130.5
  0
LINE
  8
0
 10
166.1
 20
130.5
 11
166.1
 21
136.5
  0
LINE
  8
0
 10
-34.9
 20
116
 11
-29.1
 21
116
  0
LINE
  8
0
 10
-29.1
 20
116
 11
-29.1
 21
110
  0
LINE
  8
0
 10
-29.1
 20
110
 11
-14.5
 21
110
  0
LINE
  8
0
 10
-14.5
 20
110
 11
-14.5
 21
130
  0
LINE
  8
0
 10
-14.5
 20
130
 11
-19.5
 21
130
  0
LINE
  8
0
 10
-19.5
 20
130
 11
-19.5
 21
125
  0
LINE
  8
0
 10
-19.5
 20
125
 11
-44.5
 21
125
  0
LINE
  8
0
 10
-44.5
 20
125
 11
-44.5
 21
130
  0
LINE
  8
0
 10
-44.5
 20
130
 11
-49.5
 21
130
  0
LINE
  8
0
 10
-49.5
 20
130
 11
-49.5
 21
110
  0
LINE
  8
0
 10
-49.5
 20
110
 11
-34.9
 21
110
  0
LINE
  8
0
 10
-34.9
 20
110
 11
-34.9
 21
116
  0
LINE
  8
0
 10
166.1
 20
116
 11
171.9
 21
116
  0
LINE
  8
0
 10
171.9
 20
116
 11
171.9
 21
110
  0
LINE
  8
0
 10
171.9
 20
110
 11
186.5
 21
110
  0
LINE
  8
0
 10
186.5
 20
110
 11
186.5
 21
130
  0
LINE
  8
0
 10
186.5
 20
130
 11
181.5
 21
130
  0
LINE
  8
0
 10
181.5
 20
130
 11
181.5
 21
125
  0
LINE
  8
0
 10
181.5
 20
125
 11
156.5
 21
125
  0
LINE
  8
0
 10
156.5
 20
125
 11
156.5
 21
130
  0
LINE
  8
0
 10
156.5
 20
130
 11
151.5
 21
130
  0
LINE
  8
0
 10
151.5
 20
130
 11
151.5
 21
110
  0
LINE
  8
0
 10
151.5
 20
110
 11
166.1
 21
110
  0
LINE
  8
0
 10
166.1
 20
110
 11
166.1
 21
116
  0
LINE
  8
0
 10
65.6
 20
116
 11
71.4
 21
116
  0
LINE
  8
0
 10
71.4
 20
116
 11
71.4
 21
110
  0
LINE
  8
0
 10
71.4
 20
110
 11
86
 21
110
  0
LINE
  8
0
 10
86
 20
110
 11
86
 21
130
  0
LINE
  8
0
 10
86
 20
130
 11
81
 21
130
  0
LINE
  8
0
 10
81
 20
130
 11
81
 21
125
  0
LINE
  8
0
 10
81
 20
125
 11
56
 21
125
  0
LINE
  8
0
 10
56
 20
125
 11
56
 21
130
  0
LINE
  8
0
 10
56
 20
130
 11
51
 21
130
  0
LINE
  8
0
 10
51
 20
130
 11
51
 21
110
  0
LINE
  8
0
 10
51
 20
110
 11
65.6
 21
110
  0
LINE
  8
0
 10
65.6
 20
110
 11
65.6
 21
116
  0
LINE
  8
0
 10
266.6
 20
116
 11
272.4
 21
116
  0
LINE
  8
0
 10
272.4
 20
116
 11
272.4
 21
110
  0
LINE
  8
0
 10
272.4
 20
110
 11
287
 21
110
  0
LINE
  8
0
 10
287
 20
110
 11
287
 21
130
  0
LINE
  8
0
 10
287
 20
130
 11
282
 21
130
  0
LINE
  8
0
 10
282
 20
130
 11
282
 21
125
  0
LINE
  8
0
 10
282
 20
125
 11
257
 21
125
  0
LINE
  8
0
 10
257
 20
125
 11
257
 21
130
  0
LINE
  8
0
 10
257
 20
130
 11
252
 21
130
  0
LINE
  8
0
 10
252
 20
130
 11
252
 21
110
  0
LINE
  8
0
 10
252
 20
110
 11
266.6
 21
110
  0
LINE
  8
0
 10
266.6
 20
110
 11
266.6
 21
116
  0
LINE
  8
0
 10
65.6
 20
36
 11
71.4
 21
36
  0
LINE
  8
0
 10
71.4
 20
36
 11
71.4
 21
30
  0
LINE
  8
0
 10
71.4
 20
30
 11
86
 21
30
  0
LINE
  8
0
 10
86
 20
30
 11
86
 21
50
  0
LINE
  8
0
 10
86
 20
50
 11
81
 21
50
  0
LINE
  8
0
 10
81
 20
50
 11
81
 21
45
  0
LINE
  8
0
 10
81
 20
45
 11
56
 21
45
  0
LINE
  8
0
 10
56
 20
45
 11
56
 21
50
  0
LINE
  8
0
 10
56
 20
50
 11
51
 21
50
  0
LINE
  8
0
 10
51
 20
50
 11
51
 21
30
  0
LINE
  8
0
 10
51
 20
30
 11
65.6
 21
30
  0
LINE
  8
0
 10
65.6
 20
30
 11
65.6
 21
36
  0
LINE
  8
0
 10
50
 20
-44.9
 11
44
 21
-44.9
  0
LINE
  8
0
 10
44
 20
-44.9
 11
44
 21
-39.1
  0
LINE
  8
0
 10
44
 20
-39.1
 11
50
 21
-39.1
  0
LINE
  8
0
 10
50
 20
-39.1
 11
50
 21
-32.9
  0
LINE
  8
0
 10
50
 20
-32.9
 11
44
 21
-32.9
  0
LINE
  8
0
 10
44
 20
-32.9
 11
44
 21
-27.1
  0
LINE
  8
0
 10
44
 20
-27.1
 11
50
 21
-27.1
  0
LINE
  8
0
 10
50
 20
-27.1
 11
50
 21
-20
  0
LINE
  8
0
 10
50
 20
-20
 11
38
 21
-20
  0
LINE
  8
0
 10
38
 20
-20
 11
38
 21
50
  0
LINE
  8
0
 10
38
 20
50
 11
-13.75
 21
50
  0
LINE
  8
0
 10
-13.75
 20
50
 11
-13.75
 21
9
  0
LINE
  8
0
 10
-13.75
 20
9
 11
-50
 21
9
  0
LINE
  8
0
 10
-50
 20
9
 11
-50
 21
-50
  0
LINE
  8
0
 10
-50
 20
-50
 11
50
 21
-50
  0
LINE
  8
0
 10
50
 20
-50
 11
50
 21
-44.9
  0
LINE
  8
0
 10
30.5729
 20
39.1468
 11
29.0729
 21
40.2366
  0
LINE
  8
0
 10
29.0729
 20
40.2366
 11
28.5
 21
42
  0
LINE
  8
0
 10
28.5
 20
42
 11
29.0729
 21
43.7634
  0
LINE
  8
0
 10
29.0729
 20
43.7634
 11
30.5729
 21
44.8532
  0
LINE
  8
0
 10
30.5729
 20
44.8532
 11
32.427
 21
44.8532
  0
LINE
  8
0
 10
32.427
 20
44.8532
 11
33.927
 21
43.7634
  0
LINE
  8
0
 10
33.927
 20
43.7634
 11
34.5
 21
42
  0
LINE
  8
0
 10
34.5
 20
42
 11
33.927
 21
40.2366
  0
LINE
  8
0
 10
33.927
 20
40.2366
 11
32.427
 21
39.1468
  0
LINE
  8
0
 10
32.427
 20
39.1468
 11
30.5729
 21
39.1468
  0
LINE
  8
0
 10
7.57295
 20
39.1468
 11
6.07295
 21
40.2366
  0
LINE
  8
0
 10
6.07295
 20
40.2366
 11
5.5
 21
42
  0
LINE
  8
0
 10
5.5
 20
42
 11
6.07295
 21
43.7634
  0
LINE
  8
0
 10
6.07295
 20
43.7634
 11
7.57295
 21
44.8532
  0
LINE
  8
0
 10
7.57295
 20
44.8532
 11
9.42706
 21
44.8532
  0
LINE
  8
0
 10
9.42706
 20
44.8532
 11
10.9271
 21
43.7634
  0
LINE
  8
0
 10
10.9271
 20
43.7634
 11
11.5
 21
42
  0
LINE
  8
0
 10
11.5
 20
42
 11
10.9271
 21
40.2366
  0
LINE
  8
0
 10
10.9271
 20
40.2366
 11
9.42706
 21
39.1468
  0
LINE
  8
0
 10
9.42706
 20
39.1468
 11
7.57295
 21
39.1468
  0
LINE
  8
0
 10
30.5729
 20
-18.8532
 11
29.0729
 21
-17.7634
  0
LINE
  8
0
 10
29.0729
 20
-17.7634
 11
28.5
 21
-16
  0
LINE
  8
0
 10
28.5
 20
-16
 11
29.0729
 21
-14.2366
  0
LINE
  8
0
 10
29.0729
 20
-14.2366
 11
30.5729
 21
-13.1468
  0
LINE
  8
0
 10
30.5729
 20
-13.1468
 11
32.427
 21
-13.1468
  0
LINE
  8
0
 10
32.427
 20
-13.1468
 11
33.927
 21
-14.2366
  0
LINE
  8
0
 10
33.927
 20
-14.2366
 11
34.5
 21
-16
  0
LINE
  8
0
 10
34.5
 20
-16
 11
33.927
 21
-17.7634
  0
LINE
  8
0
 10
33.927
 20
-17.7634
 11
32.427
 21
-18.8532
  0
LINE
  8
0
 10
32.427
 20
-18.8532
 11
30.5729
 21
-18.8532
  0
LINE
  8
0
 10
7.57295
 20
-18.8532
 11
6.07295
 21
-17.7634
  0
LINE
  8
0
 10
6.07295
 20
-17.7634
 11
5.5
 21
-16
  0
LINE
  8
0
 10
5.5
 20
-16
 11
6.07295
 21
-14.2366
  0
LINE
  8
0
 10
6.07295
 20
-14.2366
 11
7.57295
 21
-13.1468
  0
LINE
  8
0
 10
7.57295
 20
-13.1468
 11
9.42706
 21
-13.1468
  0
LINE
  8
0
 10
9.42706
 20
-13.1468
 11
10.9271
 21
-14.2366
  0
LINE
  8
0
 10
10.9271
 20
-14.2366
 11
11.5
 21
-16
  0
LINE
  8
0
 10
11.5
 20
-16
 11
10.9271
 21
-17.7634
  0
LINE
  8
0
 10
10.9271
 20
-17.7634
 11
9.42706
 21
-18.8532
  0
LINE
  8
0
 10
9.42706
 20
-18.8532
 11
7.57295
 21
-18.8532
  0
LINE
  8
0
 10
29.0729
 20
-37.8532
 11
27.5729
 21
-36.7634
  0
LINE
  8
0
 10
27.5729
 20
-36.7634
 11
27
 21
-35
  0
LINE
  8
0
 10
27
 20
-35
 11
27.5729
 21
-33.2366
  0
LINE
  8
0
 10
27.5729
 20
-33.2366
 11
29.0729
 21
-32.1468
  0
LINE
  8
0
 10
29.0729
 20
-32.1468
 11
30.927
 21
-32.1468
  0
LINE
  8
0
 10
30.927
 20
-32.1468
 11
32.427
 21
-33.2366
  0
LINE
  8
0
 10
32.427
 20
-33.2366
 11
33
 21
-35
  0
LINE
  8
0
 10
33
 20
-35
 11
32.427
 21
-36.7634
  0
LINE
  8
0
 10
32.427
 20
-36.7634
 11
30.927
 21
-37.8532
  0
LINE
  8
0
 10
30.927
 20
-37.8532
 11
29.0729
 21
-37.8532
  0
LINE
  8
0
 10
5.57294
 20
-41.3532
 11
4.07294
 21
-40.2634
  0
LINE
  8
0
 10
4.07294
 20
-40.2634
 11
3.5
 21
-38.5
  0
LINE
  8
0
 10
3.5
 20
-38.5
 11
4.07294
 21
-36.7366
  0
LINE
  8
0
 10
4.07294
 20
-36.7366
 11
5.57294
 21
-35.6468
  0
LINE
  8
0
 10
5.57294
 20
-35.6468
 11
7.42705
 21
-35.6468
  0
LINE
  8
0
 10
7.42705
 20
-35.6468
 11
8.92705
 21
-36.7366
  0
LINE
  8
0
 10
8.92705
 20
-36.7366
 11
9.5
 21
-38.5
  0
LINE
  8
0
 10
9.5
 20
-38.5
 11
8.92705
 21
-40.2634
  0
LINE
  8
0
 10
8.92705
 20
-40.2634
 11
7.42705
 21
-41.3532
  0
LINE
  8
0
 10
7.42705
 20
-41.3532
 11
5.57294
 21
-41.3532
  0
LINE
  8
0
 10
-17.427
 20
-41.3532
 11
-18.927
 21
-40.2634
  0
LINE
  8
0
 10
-18.927
 20
-40.2634
 11
-19.5
 21
-38.5
  0
LINE
  8
0
 10
-19.5
 20
-38.5
 11
-18.927
 21
-36.7366
  0
LINE
  8
0
 10
-18.927
 20
-36.7366
 11
-17.427
 21
-35.6468
  0
LINE
  8
0
 10
-17.427
 20
-35.6468
 11
-15.5729
 21
-35.6468
  0
LINE
  8
0
 10
-15.5729
 20
-35.6468
 11
-14.0729
 21
-36.7366
  0
LINE
  8
0
 10
-14.0729
 20
-36.7366
 11
-13.5
 21
-38.5
  0
LINE
  8
0
 10
-13.5
 20
-38.5
 11
-14.0729
 21
-40.2634
  0
LINE
  8
0
 10
-14.0729
 20
-40.2634
 11
-15.5729
 21
-41.3532
  0
LINE
  8
0
 10
-15.5729
 20
-41.3532
 11
-17.427
 21
-41.3532
  0
LINE
  8
0
 10
266.6
 20
36
 11
272.4
 21
36
  0
LINE
  8
0
 10
272.4
 20
36
 11
272.4
 21
30
  0
LINE
  8
0
 10
272.4
 20
30
 11
287
 21
30
  0
LINE
  8
0
 10
287
 20
30
 11
287
 21
50
  0
LINE
  8
0
 10
287
 20
50
 11
282
 21
50
  0
LINE
  8
0
 10
282
 20
50
 11
282
 21
45
  0
LINE
  8
0
 10
282
 20
45
 11
257
 21
45
  0
LINE
  8
0
 10
257
 20
45
 11
257
 21
50
  0
LINE
  8
0
 10
257
 20
50
 11
252
 21
50
  0
LINE
  8
0
 10
252
 20
50
 11
252
 21
30
  0
LINE
  8
0
 10
252
 20
30
 11
266.6
 21
30
  0
LINE
  8
0
 10
266.6
 20
30
 11
266.6
 21
36
  0
LINE
  8
0
 10
351.5
 20
-44.9
 11
345.5
 21
-44.9
  0
LINE
  8
0
 10
345.5
 20
-44.9
 11
345.5
 21
-39.1
  0
LINE
  8
0
 10
345.5
 20
-39.1
 11
351.5
 21
-39.1
  0
LINE
  8
0
 10
351.5
 20
-39.1
 11
351.5
 21
-32.9
  0
LINE
  8
0
 10
351.5
 20
-32.9
 11
345.5
 21
-32.9
  0
LINE
  8
0
 10
345.5
 20
-32.9
 11
345.5
 21
-27.1
  0
LINE
  8
0
 10
345.5
 20
-27.1
 11
351.5
 21
-27.1
  0
LINE
  8
0
 10
351.5
 20
-27.1
 11
351.5
 21
-20
  0
LINE
  8
0
 10
351.5
 20
-20
 11
339.5
 21
-20
  0
LINE
  8
0
 10
339.5
 20
-20
 11
339.5
 21
50
  0
LINE
  8
0
 10
339.5
 20
50
 11
287.75
 21
50
  0
LINE
  8
0
 10
287.75
 20
50
 11
287.75
 21
9
  0
LINE
  8
0
 10
287.75
 20
9
 11
251.5
 21
9
  0
LINE
  8
0
 10
251.5
 20
9
 11
251.5
 21
-50
  0
LINE
  8
0
 10
251.5
 20
-50
 11
351.5
 21
-50
  0
LINE
  8
0
 10
351.5
 20
-50
 11
351.5
 21
-44.9
  0
LINE
  8
0
 10
309.073
 20
39.1468
 11
307.573
 21
40.2366
  0
LINE
  8
0
 10
307.573
 20
40.2366
 11
307
 21
42
  0
LINE
  8
0
 10
307
 20
42
 11
307.573
 21
43.7634
  0
LINE
  8
0
 10
307.573
 20
43.7634
 11
309.073
 21
44.8532
  0
LINE
  8
0
 10
309.073
 20
44.8532
 11
310.927
 21
44.8532
  0
LINE
  8
0
 10
310.927
 20
44.8532
 11
312.427
 21
43.7634
  0
LINE
  8
0
 10
312.427
 20
43.7634
 11
313
 21
42
  0
LINE
  8
0
 10
313
 20
42
 11
312.427
 21
40.2366
  0
LINE
  8
0
 10
312.427
 20
40.2366
 11
310.927
 21
39.1468
  0
LINE
  8
0
 10
310.927
 20
39.1468
 11
309.073
 21
39.1468
  0
LINE
  8
0
 10
332.073
 20
39.1468
 11
330.573
 21
40.2366
  0
LINE
  8
0
 10
330.573
 20
40.2366
 11
330
 21
42
  0
LINE
  8
0
 10
330
 20
42
 11
330.573
 21
43.7634
  0
LINE
  8
0
 10
330.573
 20
43.7634
 11
332.073
 21
44.8532
  0
LINE
  8
0
 10
332.073
 20
44.8532
 11
333.927
 21
44.8532
  0
LINE
  8
0
 10
333.927
 20
44.8532
 11
335.427
 21
43.7634
  0
LINE
  8
0
 10
335.427
 20
43.7634
 11
336
 21
42
  0
LINE
  8
0
 10
336
 20
42
 11
335.427
 21
40.2366
  0
LINE
  8
0
 10
335.427
 20
40.2366
 11
333.927
 21
39.1468
  0
LINE
  8
0
 10
333.927
 20
39.1468
 11
332.073
 21
39.1468
  0
LINE
  8
0
 10
309.073
 20
-18.8532
 11
307.573
 21
-17.7634
  0
LINE
  8
0
 10
307.573
 20
-17.7634
 11
307
 21
-16
  0
LINE
  8
0
 10
307
 20
-16
 11
307.573
 21
-14.2366
  0
LINE
  8
0
 10
307.573
 20
-14.2366
 11
309.073
 21
-13.1468
  0
LINE
  8
0
 10
309.073
 20
-13.1468
 11
310.927
 21
-13.1468
  0
LINE
  8
0
 10
310.927
 20
-13.1468
 11
312.427
 21
-14.2366
  0
LINE
  8
0
 10
312.427
 20
-14.2366
 11
313
 21
-16
  0
LINE
  8
0
 10
313
 20
-16
 11
312.427
 21
-17.7634
  0
LINE
  8
0
 10
312.427
 20
-17.7634
 11
310.927
 21
-18.8532
  0
LINE
  8
0
 10
310.927
 20
-18.8532
 11
309.073
 21
-18.8532
  0
LINE
  8
0
 10
332.073
 20
-18.8532
 11
330.573
 21
-17.7634
  0
LINE
  8
0
 10
330.573
 20
-17.7634
 11
330
 21
-16
  0
LINE
  8
0
 10
330
 20
-16
 11
330.573
 21
-14.2366
  0
LINE
  8
0
 10
330.573
 20
-14.2366
 11
332.073
 21
-13.1468
  0
LINE
  8
0
 10
332.073
 20
-13.1468
 11
333.927
 21
-13.1468
  0
LINE
  8
0
 10
333.927
 20
-13.1468
 11
335.427
 21
-14.2366
  0
LINE
  8
0
 10
335.427
 20
-14.2366
 11
336
 21
-16
  0
LINE
  8
0
 10
336
 20
-16
 11
335.427
 21
-17.7634
  0
LINE
  8
0
 10
335.427
 20
-17.7634
 11
333.927
 21
-18.8532
  0
LINE
  8
0
 10
333.927
 20
-18.8532
 11
332.073
 21
-18.8532
  0
LINE
  8
0
 10
330.573
 20
-37.8532
 11
329.073
 21
-36.7634
  0
LINE
  8
0
 10
329.073
 20
-36.7634
 11
328.5
 21
-35
  0
LINE
  8
0
 10
328.5
 20
-35
 11
329.073
 21
-33.2366
  0
LINE
  8
0
 10
329.073
 20
-33.2366
 11
330.573
 21
-32.1468
  0
LINE
  8
0
 10
330.573
 20
-32.1468
 11
332.427
 21
-32.1468
  0
LINE
  8
0
 10
332.427
 20
-32.1468
 11
333.927
 21
-33.2366
  0
LINE
  8
0
 10
333.927
 20
-33.2366
 11
334.5
 21
-35
  0
LINE
  8
0
 10
334.5
 20
-35
 11
333.927
 21
-36.7634
  0
LINE
  8
0
 10
333.927
 20
-36.7634
 11
332.427
 21
-37.8532
  0
LINE
  8
0
 10
332.427
 20
-37.8532
 11
330.573
 21
-37.8532
  0
LINE
  8
0
 10
284.073
 20
-41.3532
 11
282.573
 21
-40.2634
  0
LINE
  8
0
 10
282.573
 20
-40.2634
 11
282
 21
-38.5
  0
LINE
  8
0
 10
282
 20
-38.5
 11
282.573
 21
-36.7366
  0
LINE
  8
0
 10
282.573
 20
-36.7366
 11
284.073
 21
-35.6468
  0
LINE
  8
0
 10
284.073
 20
-35.6468
 11
285.927
 21
-35.6468
  0
LINE
  8
0
 10
285.927
 20
-35.6468
 11
287.427
 21
-36.7366
  0
LINE
  8
0
 10
287.427
 20
-36.7366
 11
288
 21
-38.5
  0
LINE
  8
0
 10
288
 20
-38.5
 11
287.427
 21
-40.2634
  0
LINE
  8
0
 10
287.427
 20
-40.2634
 11
285.927
 21
-41.3532
  0
LINE
  8
0
 10
285.927
 20
-41.3532
 11
284.073
 21
-41.3532
  0
LINE
  8
0
 10
307.073
 20
-41.3532
 11
305.573
 21
-40.2634
  0
LINE
  8
0
 10
305.573
 20
-40.2634
 11
305
 21
-38.5
  0
LINE
  8
0
 10
305
 20
-38.5
 11
305.573
 21
-36.7366
  0
LINE
  8
0
 10
305.573
 20
-36.7366
 11
307.073
 21
-35.6468
  0
LINE
  8
0
 10
307.073
 20
-35.6468
 11
308.927
 21
-35.6468
  0
LINE
  8
0
 10
308.927
 20
-35.6468
 11
310.427
 21
-36.7366
  0
LINE
  8
0
 10
310.427
 20
-36.7366
 11
311
 21
-38.5
  0
LINE
  8
0
 10
311
 20
-38.5
 11
310.427
 21
-40.2634
  0
LINE
  8
0
 10
310.427
 20
-40.2634
 11
308.927
 21
-41.3532
  0
LINE
  8
0
 10
308.927
 20
-41.3532
 11
307.073
 21
-41.3532
  0
LINE
  8
0
 10
-34.9
 20
36
 11
-29.1
 21
36
  0
LINE
  8
0
 10
-29.1
 20
36
 11
-29.1
 21
30
  0
LINE
  8
0
 10
-29.1
 20
30
 11
-14.5
 21
30
  0
LINE
  8
0
 10
-14.5
 20
30
 11
-14.5
 21
50
  0
LINE
  8
0
 10
-14.5
 20
50
 11
-19.5
 21
50
  0
LINE
  8
0
 10
-19.5
 20
50
 11
-19.5
 21
45
  0
LINE
  8
0
 10
-19.5
 20
45
 11
-44.5
 21
45
  0
LINE
  8
0
 10
-44.5
 20
45
 11
-44.5
 21
50
  0
LINE
  8
0
 10
-44.5
 20
50
 11
-49.5
 21
50
  0
LINE
  8
0
 10
-49.5
 20
50
 11
-49.5
 21
30
  0
LINE
  8
0
 10
-49.5
 20
30
 11
-34.9
 21
30
  0
LINE
  8
0
 10
-34.9
 20
30
 11
-34.9
 21
36
  0
LINE
  8
0
 10
251
 20
-44.9
 11
245
 21
-44.9
  0
LINE
  8
0
 10
245
 20
-44.9
 11
245
 21
-39.1
  0
LINE
  8
0
 10
245
 20
-39.1
 11
251
 21
-39.1
  0
LINE
  8
0
 10
251
 20
-39.1
 11
251
 21
-32.9
  0
LINE
  8
0
 10
251
 20
-32.9
 11
245
 21
-32.9
  0
LINE
  8
0
 10
245
 20
-32.9
 11
245
 21
-27.1
  0
LINE
  8
0
 10
245
 20
-27.1
 11
251
 21
-27.1
  0
LINE
  8
0
 10
251
 20
-27.1
 11
251
 21
-20
  0
LINE
  8
0
 10
251
 20
-20
 11
239
 21
-20
  0
LINE
  8
0
 10
239
 20
-20
 11
239
 21
50
  0
LINE
  8
0
 10
239
 20
50
 11
187.25
 21
50
  0
LINE
  8
0
 10
187.25
 20
50
 11
187.25
 21
9
  0
LINE
  8
0
 10
187.25
 20
9
 11
151
 21
9
  0
LINE
  8
0
 10
151
 20
9
 11
151
 21
-50
  0
LINE
  8
0
 10
151
 20
-50
 11
251
 21
-50
  0
LINE
  8
0
 10
251
 20
-50
 11
251
 21
-44.9
  0
LINE
  8
0
 10
231.573
 20
39.1468
 11
230.073
 21
40.2366
  0
LINE
  8
0
 10
230.073
 20
40.2366
 11
229.5
 21
42
  0
LINE
  8
0
 10
229.5
 20
42
 11
230.073
 21
43.7634
  0
LINE
  8
0
 10
230.073
 20
43.7634
 11
231.573
 21
44.8532
  0
LINE
  8
0
 10
231.573
 20
44.8532
 11
233.427
 21
44.8532
  0
LINE
  8
0
 10
233.427
 20
44.8532
 11
234.927
 21
43.7634
  0
LINE
  8
0
 10
234.927
 20
43.7634
 11
235.5
 21
42
  0
LINE
  8
0
 10
235.5
 20
42
 11
234.927
 21
40.2366
  0
LINE
  8
0
 10
234.927
 20
40.2366
 11
233.427
 21
39.1468
  0
LINE
  8
0
 10
233.427
 20
39.1468
 11
231.573
 21
39.1468
  0
LINE
  8
0
 10
208.573
 20
39.1468
 11
207.073
 21
40.2366
  0
LINE
  8
0
 10
207.073
 20
40.2366
 11
206.5
 21
42
  0
LINE
  8
0
 10
206.5
 20
42
 11
207.073
 21
43.7634
  0
LINE
  8
0
 10
207.073
 20
43.7634
 11
208.573
 21
44.8532
  0
LINE
  8
0
 10
208.573
 20
44.8532
 11
210.427
 21
44.8532
  0
LINE
  8
0
 10
210.427
 20
44.8532
 11
211.927
 21
43.7634
  0
LINE
  8
0
 10
211.927
 20
43.7634
 11
212.5
 21
42
  0
LINE
  8
0
 10
212.5
 20
42
 11
211.927
 21
40.2366
  0
LINE
  8
0
 10
211.927
 20
40.2366
 11
210.427
 21
39.1468
  0
LINE
  8
0
 10
210.427
 20
39.1468
 11
208.573
 21
39.1468
  0
LINE
  8
0
 10
231.573
 20
-18.8532
 11
230.073
 21
-17.7634
  0
LINE
  8
0
 10
230.073
 20
-17.7634
 11
229.5
 21
-16
  0
LINE
  8
0
 10
229.5
 20
-16
 11
230.073
 21
-14.2366
  0
LINE
  8
0
 10
230.073
 20
-14.2366
 11
231.573
 21
-13.1468
  0
LINE
  8
0
 10
231.573
 20
-13.1468
 11
233.427
 21
-13.1468
  0
LINE
  8
0
 10
233.427
 20
-13.1468
 11
234.927
 21
-14.2366
  0
LINE
  8
0
 10
234.927
 20
-14.2366
 11
235.5
 21
-16
  0
LINE
  8
0
 10
235.5
 20
-16
 11
234.927
 21
-17.7634
  0
LINE
  8
0
 10
234.927
 20
-17.7634
 11
233.427
 21
-18.8532
  0
LINE
  8
0
 10
233.427
 20
-18.8532
 11
231.573
 21
-18.8532
  0
LINE
  8
0
 10
208.573
 20
-18.8532
 11
207.073
 21
-17.7634
  0
LINE
  8
0
 10
207.073
 20
-17.7634
 11
206.5
 21
-16
  0
LINE
  8
0
 10
206.5
 20
-16
 11
207.073
 21
-14.2366
  0
LINE
  8
0
 10
207.073
 20
-14.2366
 11
208.573
 21
-13.1468
  0
LINE
  8
0
 10
208.573
 20
-13.1468
 11
210.427
 21
-13.1468
  0
LINE
  8
0
 10
210.427
 20
-13.1468
 11
211.927
 21
-14.2366
  0
LINE
  8
0
 10
211.927
 20
-14.2366
 11
212.5
 21
-16
  0
LINE
  8
0
 10
212.5
 20
-16
 11
211.927
 21
-17.7634
  0
LINE
  8
0
 10
211.927
 20
-17.7634
 11
210.427
 21
-18.8532
  0
LINE
  8
0
 10
210.427
 20
-18.8532
 11
208.573
 21
-18.8532
  0
LINE
  8
0
 10
230.073
 20
-37.8532
 11
228.573
 21
-36.7634
  0
LINE
  8
0
 10
228.573
 20
-36.7634
 11
228
 21
-35
  0
LINE
  8
0
 10
228
 20
-35
 11
228.573
 21
-33.2366
  0
LINE
  8
0
 10
228.573
 20
-33.2366
 11
230.073
 21
-32.1468
  0
LINE
  8
0
 10
230.073
 20
-32.1468
 11
231.927
 21
-32.1468
  0
LINE
  8
0
 10
231.927
 20
-32.1468
 11
233.427
 21
-33.2366
  0
LINE
  8
0
 10
233.427
 20
-33.2366
 11
234
 21
-35
  0
LINE
  8
0
 10
234
 20
-35
 11
233.427
 21
-36.7634
  0
LINE
  8
0
 10
233.427
 20
-36.7634
 11
231.927
 21
-37.8532
  0
LINE
  8
0
 10
231.927
 20
-37.8532
 11
230.073
 21
-37.8532
  0
LINE
  8
0
 10
206.573
 20
-41.3532
 11
205.073
 21
-40.2634
  0
LINE
  8
0
 10
205.073
 20
-40.2634
 11
204.5
 21
-38.5
  0
LINE
  8
0
 10
204.5
 20
-38.5
 11
205.073
 21
-36.7366
  0
LINE
  8
0
 10
205.073
 20
-36.7366
 11
206.573
 21
-35.6468
  0
LINE
  8
0
 10
206.573
 20
-35.6468
 11
208.427
 21
-35.6468
  0
LINE
  8
0
 10
208.427
 20
-35.6468
 11
209.927
 21
-36.7366
  0
LINE
  8
0
 10
209.927
 20
-36.7366
 11
210.5
 21
-38.5
  0
LINE
  8
0
 10
210.5
 20
-38.5
 11
209.927
 21
-40.2634
  0
LINE
  8
0
 10
209.927
 20
-40.2634
 11
208.427
 21
-41.3532
  0
LINE
  8
0
 10
208.427
 20
-41.3532
 11
206.573
 21
-41.3532
  0
LINE
  8
0
 10
183.573
 20
-41.3532
 11
182.073
 21
-40.2634
  0
LINE
  8
0
 10
182.073
 20
-40.2634
 11
181.5
 21
-38.5
  0
LINE
  8
0
 10
181.5
 20
-38.5
 11
182.073
 21
-36.7366
  0
LINE
  8
0
 10
182.073
 20
-36.7366
 11
183.573
 21
-35.6468
  0
LINE
  8
0
 10
183.573
 20
-35.6468
 11
185.427
 21
-35.6468
  0
LINE
  8
0
 10
185.427
 20
-35.6468
 11
186.927
 21
-36.7366
  0
LINE
  8
0
 10
186.927
 20
-36.7366
 11
187.5
 21
-38.5
  0
LINE
  8
0
 10
187.5
 20
-38.5
 11
186.927
 21
-40.2634
  0
LINE
  8
0
 10
186.927
 20
-40.2634
 11
185.427
 21
-41.3532
  0
LINE
  8
0
 10
185.427
 20
-41.3532
 11
183.573
 21
-41.3532
  0
LINE
  8
0
 10
150.5
 20
-44.9
 11
144.5
 21
-44.9
  0
LINE
  8
0
 10
144.5
 20
-44.9
 11
144.5
 21
-39.1
  0
LINE
  8
0
 10
144.5
 20
-39.1
 11
150.5
 21
-39.1
  0
LINE
  8
0
 10
150.5
 20
-39.1
 11
150.5
 21
-32.9
  0
LINE
  8
0
 10
150.5
 20
-32.9
 11
144.5
 21
-32.9
  0
LINE
  8
0
 10
144.5
 20
-32.9
 11
144.5
 21
-27.1
  0
LINE
  8
0
 10
144.5
 20
-27.1
 11
150.5
 21
-27.1
  0
LINE
  8
0
 10
150.5
 20
-27.1
 11
150.5
 21
-20
  0
LINE
  8
0
 10
150.5
 20
-20
 11
138.5
 21
-20
  0
LINE
  8
0
 10
138.5
 20
-20
 11
138.5
 21
50
  0
LINE
  8
0
 10
138.5
 20
50
 11
86.75
 21
50
  0
LINE
  8
0
 10
86.75
 20
50
 11
86.75
 21
9
  0
LINE
  8
0
 10
86.75
 20
9
 11
50.5
 21
9
  0
LINE
  8
0
 10
50.5
 20
9
 11
50.5
 21
-50
  0
LINE
  8
0
 10
50.5
 20
-50
 11
150.5
 21
-50
  0
LINE
  8
0
 10
150.5
 20
-50
 11
150.5
 21
-44.9
  0
LINE
  8
0
 10
131.073
 20
39.1468
 11
129.573
 21
40.2366
  0
LINE
  8
0
 10
129.573
 20
40.2366
 11
129
 21
42
  0
LINE
  8
0
 10
129
 20
42
 11
129.573
 21
43.7634
  0
LINE
  8
0
 10
129.573
 20
43.7634
 11
131.073
 21
44.8532
  0
LINE
  8
0
 10
131.073
 20
44.8532
 11
132.927
 21
44.8532
  0
LINE
  8
0
 10
132.927
 20
44.8532
 11
134.427
 21
43.7634
  0
LINE
  8
0
 10
134.427
 20
43.7634
 11
135
 21
42
  0
LINE
  8
0
 10
135
 20
42
 11
134.427
 21
40.2366
  0
LINE
  8
0
 10
134.427
 20
40.2366
 11
132.927
 21
39.1468
  0
LINE
  8
0
 10
132.927
 20
39.1468
 11
131.073
 21
39.1468
  0
LINE
  8
0
 10
108.073
 20
39.1468
 11
106.573
 21
40.2366
  0
LINE
  8
0
 10
106.573
 20
40.2366
 11
106
 21
42
  0
LINE
  8
0
 10
106
 20
42
 11
106.573
 21
43.7634
  0
LINE
  8
0
 10
106.573
 20
43.7634
 11
108.073
 21
44.8532
  0
LINE
  8
0
 10
108.073
 20
44.8532
 11
109.927
 21
44.8532
  0
LINE
  8
0
 10
109.927
 20
44.8532
 11
111.427
 21
43.7634
  0
LINE
  8
0
 10
111.427
 20
43.7634
 11
112
 21
42
  0
LINE
  8
0
 10
112
 20
42
 11
111.427
 21
40.2366
  0
LINE
  8
0
 10
111.427
 20
40.2366
 11
109.927
 21
39.1468
  0
LINE
  8
0
 10
109.927
 20
39.1468
 11
108.073
 21
39.1468
  0
LINE
  8
0
 10
108.073
 20
-18.8532
 11
106.573
 21
-17.7634
  0
LINE
  8
0
 10
106.573
 20
-17.7634
 11
106
 21
-16
  0
LINE
  8
0
 10
106
 20
-16
 11
106.573
 21
-14.2366
  0
LINE
  8
0
 10
106.573
 20
-14.2366
 11
108.073
 21
-13.1468
  0
LINE
  8
0
 10
108.073
 20
-13.1468
 11
109.927
 21
-13.1468
  0
LINE
  8
0
 10
109.927
 20
-13.1468
 11
111.427
 21
-14.2366
  0
LINE
  8
0
 10
111.427
 20
-14.2366
 11
112
 21
-16
  0
LINE
  8
0
 10
112
 20
-16
 11
111.427
 21
-17.7634
  0
LINE
  8
0
 10
111.427
 20
-17.7634
 11
109.927
 21
-18.8532
  0
LINE
  8
0
 10
109.927
 20
-18.8532
 11
108.073
 21
-18.8532
  0
LINE
  8
0
 10
131.073
 20
-18.8532
 11
129.573
 21
-17.7634
  0
LINE
  8
0
 10
129.573
 20
-17.7634
 11
129
 21
-16
  0
LINE
  8
0
 10
129
 20
-16
 11
129.573
 21
-14.2366
  0
LINE
  8
0
 10
129.573
 20
-14.2366
 11
131.073
 21
-13.1468
  0
LINE
  8
0
 10
131.073
 20
-13.1468
 11
132.927
 21
-13.1468
  0
LINE
  8
0
 10
132.927
 20
-13.1468
 11
134.427
 21
-14.2366
  0
LINE
  8
0
 10
134.427
 20
-14.2366
 11
135
 21
-16
  0
LINE
  8
0
 10
135
 20
-16
 11
134.427
 21
-17.7634
  0
LINE
  8
0
 10
134.427
 20
-17.7634
 11
132.927
 21
-18.8532
  0
LINE
  8
0
 10
132.927
 20
-18.8532
 11
131.073
 21
-18.8532
  0
LINE
  8
0
 10
129.573
 20
-37.8532
 11
128.073
 21
-36.7634
  0
LINE
  8
0
 10
128.073
 20
-36.7634
 11
127.5
 21
-35
  0
LINE
  8
0
 10
127.5
 20
-35
 11
128.073
 21
-33.2366
  0
LINE
  8
0
 10
128.073
 20
-33.2366
 11
129.573
 21
-32.1468
  0
LINE
  8
0
 10
129.573
 20
-32.1468
 11
131.427
 21
-32.1468
  0
LINE
  8
0
 10
131.427
 20
-32.1468
 11
132.927
 21
-33.2366
  0
LINE
  8
0
 10
132.927
 20
-33.2366
 11
133.5
 21
-35
  0
LINE
  8
0
 10
133.5
 20
-35
 11
132.927
 21
-36.7634
  0
LINE
  8
0
 10
132.927
 20
-36.7634
 11
131.427
 21
-37.8532
  0
LINE
  8
0
 10
131.427
 20
-37.8532
 11
129.573
 21
-37.8532
  0
LINE
  8
0
 10
106.073
 20
-41.3532
 11
104.573
 21
-40.2634
  0
LINE
  8
0
 10
104.573
 20
-40.2634
 11
104
 21
-38.5
  0
LINE
  8
0
 10
104
 20
-38.5
 11
104.573
 21
-36.7366
  0
LINE
  8
0
 10
104.573
 20
-36.7366
 11
106.073
 21
-35.6468
  0
LINE
  8
0
 10
106.073
 20
-35.6468
 11
107.927
 21
-35.6468
  0
LINE
  8
0
 10
107.927
 20
-35.6468
 11
109.427
 21
-36.7366
  0
LINE
  8
0
 10
109.427
 20
-36.7366
 11
110
 21
-38.5
  0
LINE
  8
0
 10
110
 20
-38.5
 11
109.427
 21
-40.2634
  0
LINE
  8
0
 10
109.427
 20
-40.2634
 11
107.927
 21
-41.3532
  0
LINE
  8
0
 10
107.927
 20
-41.3532
 11
106.073
 21
-41.3532
  0
LINE
  8
0
 10
83.073
 20
-41.3532
 11
81.573
 21
-40.2634
  0
LINE
  8
0
 10
81.573
 20
-40.2634
 11
81
 21
-38.5
  0
LINE
  8
0
 10
81
 20
-38.5
 11
81.573
 21
-36.7366
  0
LINE
  8
0
 10
81.573
 20
-36.7366
 11
83.073
 21
-35.6468
  0
LINE
  8
0
 10
83.073
 20
-35.6468
 11
84.9271
 21
-35.6468
  0
LINE
  8
0
 10
84.9271
 20
-35.6468
 11
86.4271
 21
-36.7366
  0
LINE
  8
0
 10
86.4271
 20
-36.7366
 11
87
 21
-38.5
  0
LINE
  8
0
 10
87
 20
-38.5
 11
86.4271
 21
-40.2634
  0
LINE
  8
0
 10
86.4271
 20
-40.2634
 11
84.9271
 21
-41.3532
  0
LINE
  8
0
 10
84.9271
 20
-41.3532
 11
83.073
 21
-41.3532
  0
LINE
  8
0
 10
166.1
 20
36
 11
171.9
 21
36
  0
LINE
  8
0
 10
171.9
 20
36
 11
171.9
 21
30
  0
LINE
  8
0
 10
171.9
 20
30
 11
186.5
 21
30
  0
LINE
  8
0
 10
186.5
 20
30
 11
186.5
 21
50
  0
LINE
  8
0
 10
186.5
 20
50
 11
181.5
 21
50
  0
LINE
  8
0
 10
181.5
 20
50
 11
181.5
 21
45
  0
LINE
  8
0
 10
181.5
 20
45
 11
156.5
 21
45
  0
LINE
  8
0
 10
156.5
 20
45
 11
156.5
 21
50
  0
LINE
  8
0
 10
156.5
 20
50
 11
151.5
 21
50
  0
LINE
  8
0
 10
151.5
 20
50
 11
151.5
 21
30
  0
LINE
  8
0
 10
151.5
 20
30
 11
166.1
 21
30
  0
LINE
  8
0
 10
166.1
 20
30
 11
166.1
 21
36
  0
LINE
  8
0
 10
65.6
 20
15.5
 11
71.4
 21
15.5
  0
LINE
  8
0
 10
71.4
 20
15.5
 11
71.4
 21
9.5
  0
LINE
  8
0
 10
71.4
 20
9.5
 11
86
 21
9.5
  0
LINE
  8
0
 10
86
 20
9.5
 11
86
 21
29.5
  0
LINE
  8
0
 10
86
 20
29.5
 11
81
 21
29.5
  0
LINE
  8
0
 10
81
 20
29.5
 11
81
 21
24.5
  0
LINE
  8
0
 10
81
 20
24.5
 11
56
 21
24.5
  0
LINE
  8
0
 10
56
 20
24.5
 11
56
 21
29.5
  0
LINE
  8
0
 10
56
 20
29.5
 11
51
 21
29.5
  0
LINE
  8
0
 10
51
 20
29.5
 11
51
 21
9.5
  0
LINE
  8
0
 10
51
 20
9.5
 11
65.6
 21
9.5
  0
LINE
  8
0
 10
65.6
 20
9.5
 11
65.6
 21
15.5
  0
LINE
  8
0
 10
-34.9
 20
15.5
 11
-29.1
 21
15.5
  0
LINE
  8
0
 10
-29.1
 20
15.5
 11
-29.1
 21
9.5
  0
LINE
  8
0
 10
-29.1
 20
9.5
 11
-14.5
 21
9.5
  0
LINE
  8
0
 10
-14.5
 20
9.5
 11
-14.5
 21
29.5
  0
LINE
  8
0
 10
-14.5
 20
29.5
 11
-19.5
 21
29.5
  0
LINE
  8
0
 10
-19.5
 20
29.5
 11
-19.5
 21
24.5
  0
LINE
  8
0
 10
-19.5
 20
24.5
 11
-44.5
 21
24.5
  0
LINE
  8
0
 10
-44.5
 20
24.5
 11
-44.5
 21
29.5
  0
LINE
  8
0
 10
-44.5
 20
29.5
 11
-49.5
 21
29.5
  0
LINE
  8
0
 10
-49.5
 20
29.5
 11
-49.5
 21
9.5
  0
LINE
  8
0
 10
-49.5
 20
9.5
 11
-34.9
 21
9.5
  0
LINE
  8
0
 10
-34.9
 20
9.5
 11
-34.9
 21
15.5
  0
LINE
  8
0
 10
266.6
 20
15.5
 11
272.4
 21
15.5
  0
LINE
  8
0
 10
272.4
 20
15.5
 11
272.4
 21
9.5
  0
LINE
  8
0
 10
272.4
 20
9.5
 11
287
 21
9.5
  0
LINE
  8
0
 10
287
 20
9.5
 11
287
 21
29.5
  0
LINE
  8
0
 10
287
 20
29.5
 11
282
 21
29.5
  0
LINE
  8
0
 10
282
 20
29.5
 11
282
 21
24.5
  0
LINE
  8
0
 10
282
 20
24.5
 11
257
 21
24.5
  0
LINE
  8
0
 10
257
 20
24.5
 11
257
 21
29.5
  0
LINE
  8
0
 10
257
 20
29.5
 11
252
 21
29.5
  0
LINE
  8
0
 10
252
 20
29.5
 11
252
 21
9.5
  0
LINE
  8
0
 10
252
 20
9.5
 11
266.6
 21
9.5
  0
LINE
  8
0
 10
266.6
 20
9.5
 11
266.6
 21
15.5
  0
LINE
  8
0
 10
166.1
 20
15.5
 11
171.9
 21
15.5
  0
LINE
  8
0
 10
171.9
 20
15.5
 11
171.9
 21
9.5
  0
LINE
  8
0
 10
171.9
 20
9.5
 11
186.5
 21
9.5
  0
LINE
  8
0
 10
186.5
 20
9.5
 11
186.5
 21
29.5
  0
LINE
  8
0
 10
186.5
 20
29.5
 11
181.5
 21
29.5
  0
LINE
  8
0
 10
181.5
 20
29.5
 11
181.5
 21
24.5
  0
LINE
  8
0
 10
181.5
 20
24.5
 11
156.5
 21
24.5
  0
LINE
  8
0
 10
156.5
 20
24.5
 11
156.5
 21
29.5
  0
LINE
  8
0
 10
156.5
 20
29.5
 11
151.5
 21
29.5
  0
LINE
  8
0
 10
151.5
 20
29.5
 11
151.5
 21
9.5
  0
LINE
  8
0
 10
151.5
 20
9.5
 11
166.1
 21
9.5
  0
LINE
  8
0
 10
166.1
 20
9.5
 11
166.1
 21
15.5
  0
ENDSEC
  0
SECTION
  2
OBJECTS
  0
DICTIONARY
  0
ENDSEC
  0
EOF
