  0
SECTION
  2
BLOCKS
  0
ENDSEC
  0
SECTION
  2
ENTITIES
  0
LINE
  8
0
 10
40
 20
425.08
 11
46
 21
425.08
  0
LINE
  8
0
 10
46
 20
425.08
 11
46
 21
400.08
  0
LINE
  8
0
 10
46
 20
400.08
 11
80
 21
400.08
  0
LINE
  8
0
 10
80
 20
400.08
 11
80
 21
425.08
  0
LINE
  8
0
 10
80
 20
425.08
 11
86
 21
425.08
  0
LINE
  8
0
 10
86
 20
425.08
 11
86
 21
400.08
  0
LINE
  8
0
 10
86
 20
400.08
 11
120
 21
400.08
  0
LINE
  8
0
 10
120
 20
400.08
 11
120
 21
425.08
  0
LINE
  8
0
 10
120
 20
425.08
 11
126
 21
425.08
  0
LINE
  8
0
 10
126
 20
425.08
 11
126
 21
400.08
  0
LINE
  8
0
 10
126
 20
400.08
 11
160
 21
400.08
  0
LINE
  8
0
 10
160
 20
400.08
 11
160
 21
425.08
  0
LINE
  8
0
 10
160
 20
425.08
 11
166
 21
425.08
  0
LINE
  8
0
 10
166
 20
425.08
 11
166
 21
400.08
  0
LINE
  8
0
 10
166
 20
400.08
 11
200
 21
400.08
  0
LINE
  8
0
 10
200
 20
400.08
 11
200
 21
425.08
  0
LINE
  8
0
 10
200
 20
425.08
 11
206
 21
425.08
  0
LINE
  8
0
 10
206
 20
425.08
 11
206
 21
400.08
  0
LINE
  8
0
 10
206
 20
400.08
 11
240
 21
400.08
  0
LINE
  8
0
 10
240
 20
400.08
 11
240
 21
425.08
  0
LINE
  8
0
 10
240
 20
425.08
 11
246
 21
425.08
  0
LINE
  8
0
 10
246
 20
425.08
 11
246
 21
400.08
  0
LINE
  8
0
 10
246
 20
400.08
 11
280
 21
400.08
  0
LINE
  8
0
 10
280
 20
400.08
 11
280
 21
425.08
  0
LINE
  8
0
 10
280
 20
425.08
 11
286
 21
425.08
  0
LINE
  8
0
 10
286
 20
425.08
 11
286
 21
400.08
  0
LINE
  8
0
 10
286
 20
400.08
 11
320
 21
400.08
  0
LINE
  8
0
 10
320
 20
400.08
 11
320
 21
425.08
  0
LINE
  8
0
 10
320
 20
425.08
 11
326
 21
425.08
  0
LINE
  8
0
 10
326
 20
425.08
 11
326
 21
400.08
  0
LINE
  8
0
 10
326
 20
400.08
 11
366
 21
400.08
  0
LINE
  8
0
 10
366
 20
400.08
 11
366
 21
450.08
  0
LINE
  8
0
 10
366
 20
450.08
 11
0
 21
450.08
  0
LINE
  8
0
 10
0
 20
450.08
 11
0
 21
400.08
  0
LINE
  8
0
 10
0
 20
400.08
 11
40
 21
400.08
  0
LINE
  8
0
 10
40
 20
400.08
 11
40
 21
425.08
  0
LINE
  8
0
 10
799.01
 20
450.08
 11
751.566
 21
450.08
  0
LINE
  8
0
 10
751.566
 20
450.08
 11
751.566
 21
425.08
  0
LINE
  8
0
 10
751.566
 20
425.08
 11
745.566
 21
425.08
  0
LINE
  8
0
 10
745.566
 20
425.08
 11
745.566
 21
450.08
  0
LINE
  8
0
 10
745.566
 20
450.08
 11
704.121
 21
450.08
  0
LINE
  8
0
 10
704.121
 20
450.08
 11
704.121
 21
425.08
  0
LINE
  8
0
 10
704.121
 20
425.08
 11
698.121
 21
425.08
  0
LINE
  8
0
 10
698.121
 20
425.08
 11
698.121
 21
450.08
  0
LINE
  8
0
 10
698.121
 20
450.08
 11
656.677
 21
450.08
  0
LINE
  8
0
 10
656.677
 20
450.08
 11
656.677
 21
425.08
  0
LINE
  8
0
 10
656.677
 20
425.08
 11
650.677
 21
425.08
  0
LINE
  8
0
 10
650.677
 20
425.08
 11
650.677
 21
450.08
  0
LINE
  8
0
 10
650.677
 20
450.08
 11
609.232
 21
450.08
  0
LINE
  8
0
 10
609.232
 20
450.08
 11
609.232
 21
425.08
  0
LINE
  8
0
 10
609.232
 20
425.08
 11
603.232
 21
425.08
  0
LINE
  8
0
 10
603.232
 20
425.08
 11
603.232
 21
450.08
  0
LINE
  8
0
 10
603.232
 20
450.08
 11
561.788
 21
450.08
  0
LINE
  8
0
 10
561.788
 20
450.08
 11
561.788
 21
425.08
  0
LINE
  8
0
 10
561.788
 20
425.08
 11
555.788
 21
425.08
  0
LINE
  8
0
 10
555.788
 20
425.08
 11
555.788
 21
450.08
  0
LINE
  8
0
 10
555.788
 20
450.08
 11
514.343
 21
450.08
  0
LINE
  8
0
 10
514.343
 20
450.08
 11
514.343
 21
425.08
  0
LINE
  8
0
 10
514.343
 20
425.08
 11
508.343
 21
425.08
  0
LINE
  8
0
 10
508.343
 20
425.08
 11
508.343
 21
450.08
  0
LINE
  8
0
 10
508.343
 20
450.08
 11
466.899
 21
450.08
  0
LINE
  8
0
 10
466.899
 20
450.08
 11
466.899
 21
425.08
  0
LINE
  8
0
 10
466.899
 20
425.08
 11
460.899
 21
425.08
  0
LINE
  8
0
 10
460.899
 20
425.08
 11
460.899
 21
450.08
  0
LINE
  8
0
 10
460.899
 20
450.08
 11
419.454
 21
450.08
  0
LINE
  8
0
 10
419.454
 20
450.08
 11
419.454
 21
425.08
  0
LINE
  8
0
 10
419.454
 20
425.08
 11
413.454
 21
425.08
  0
LINE
  8
0
 10
413.454
 20
425.08
 11
413.454
 21
450.08
  0
LINE
  8
0
 10
413.454
 20
450.08
 11
366.01
 21
450.08
  0
LINE
  8
0
 10
366.01
 20
450.08
 11
366.01
 21
400.08
  0
LINE
  8
0
 10
366.01
 20
400.08
 11
799.01
 21
400.08
  0
LINE
  8
0
 10
799.01
 20
400.08
 11
799.01
 21
450.08
  0
LINE
  8
0
 10
799.01
 20
400.07
 11
751.566
 21
400.07
  0
LINE
  8
0
 10
751.566
 20
400.07
 11
751.566
 21
375.07
  0
LINE
  8
0
 10
751.566
 20
375.07
 11
745.566
 21
375.07
  0
LINE
  8
0
 10
745.566
 20
375.07
 11
745.566
 21
400.07
  0
LINE
  8
0
 10
745.566
 20
400.07
 11
704.121
 21
400.07
  0
LINE
  8
0
 10
704.121
 20
400.07
 11
704.121
 21
375.07
  0
LINE
  8
0
 10
704.121
 20
375.07
 11
698.121
 21
375.07
  0
LINE
  8
0
 10
698.121
 20
375.07
 11
698.121
 21
400.07
  0
LINE
  8
0
 10
698.121
 20
400.07
 11
656.677
 21
400.07
  0
LINE
  8
0
 10
656.677
 20
400.07
 11
656.677
 21
375.07
  0
LINE
  8
0
 10
656.677
 20
375.07
 11
650.677
 21
375.07
  0
LINE
  8
0
 10
650.677
 20
375.07
 11
650.677
 21
400.07
  0
LINE
  8
0
 10
650.677
 20
400.07
 11
609.232
 21
400.07
  0
LINE
  8
0
 10
609.232
 20
400.07
 11
609.232
 21
375.07
  0
LINE
  8
0
 10
609.232
 20
375.07
 11
603.232
 21
375.07
  0
LINE
  8
0
 10
603.232
 20
375.07
 11
603.232
 21
400.07
  0
LINE
  8
0
 10
603.232
 20
400.07
 11
561.788
 21
400.07
  0
LINE
  8
0
 10
561.788
 20
400.07
 11
561.788
 21
375.07
  0
LINE
  8
0
 10
561.788
 20
375.07
 11
555.788
 21
375.07
  0
LINE
  8
0
 10
555.788
 20
375.07
 11
555.788
 21
400.07
  0
LINE
  8
0
 10
555.788
 20
400.07
 11
514.343
 21
400.07
  0
LINE
  8
0
 10
514.343
 20
400.07
 11
514.343
 21
375.07
  0
LINE
  8
0
 10
514.343
 20
375.07
 11
508.343
 21
375.07
  0
LINE
  8
0
 10
508.343
 20
375.07
 11
508.343
 21
400.07
  0
LINE
  8
0
 10
508.343
 20
400.07
 11
466.899
 21
400.07
  0
LINE
  8
0
 10
466.899
 20
400.07
 11
466.899
 21
375.07
  0
LINE
  8
0
 10
466.899
 20
375.07
 11
460.899
 21
375.07
  0
LINE
  8
0
 10
460.899
 20
375.07
 11
460.899
 21
400.07
  0
LINE
  8
0
 10
460.899
 20
400.07
 11
419.454
 21
400.07
  0
LINE
  8
0
 10
419.454
 20
400.07
 11
419.454
 21
375.07
  0
LINE
  8
0
 10
419.454
 20
375.07
 11
413.454
 21
375.07
  0
LINE
  8
0
 10
413.454
 20
375.07
 11
413.454
 21
400.07
  0
LINE
  8
0
 10
413.454
 20
400.07
 11
366.01
 21
400.07
  0
LINE
  8
0
 10
366.01
 20
400.07
 11
366.01
 21
350.07
  0
LINE
  8
0
 10
366.01
 20
350.07
 11
799.01
 21
350.07
  0
LINE
  8
0
 10
799.01
 20
350.07
 11
799.01
 21
400.07
  0
LINE
  8
0
 10
40
 20
375.07
 11
46
 21
375.07
  0
LINE
  8
0
 10
46
 20
375.07
 11
46
 21
350.07
  0
LINE
  8
0
 10
46
 20
350.07
 11
80
 21
350.07
  0
LINE
  8
0
 10
80
 20
350.07
 11
80
 21
375.07
  0
LINE
  8
0
 10
80
 20
375.07
 11
86
 21
375.07
  0
LINE
  8
0
 10
86
 20
375.07
 11
86
 21
350.07
  0
LINE
  8
0
 10
86
 20
350.07
 11
120
 21
350.07
  0
LINE
  8
0
 10
120
 20
350.07
 11
120
 21
375.07
  0
LINE
  8
0
 10
120
 20
375.07
 11
126
 21
375.07
  0
LINE
  8
0
 10
126
 20
375.07
 11
126
 21
350.07
  0
LINE
  8
0
 10
126
 20
350.07
 11
160
 21
350.07
  0
LINE
  8
0
 10
160
 20
350.07
 11
160
 21
375.07
  0
LINE
  8
0
 10
160
 20
375.07
 11
166
 21
375.07
  0
LINE
  8
0
 10
166
 20
375.07
 11
166
 21
350.07
  0
LINE
  8
0
 10
166
 20
350.07
 11
200
 21
350.07
  0
LINE
  8
0
 10
200
 20
350.07
 11
200
 21
375.07
  0
LINE
  8
0
 10
200
 20
375.07
 11
206
 21
375.07
  0
LINE
  8
0
 10
206
 20
375.07
 11
206
 21
350.07
  0
LINE
  8
0
 10
206
 20
350.07
 11
240
 21
350.07
  0
LINE
  8
0
 10
240
 20
350.07
 11
240
 21
375.07
  0
LINE
  8
0
 10
240
 20
375.07
 11
246
 21
375.07
  0
LINE
  8
0
 10
246
 20
375.07
 11
246
 21
350.07
  0
LINE
  8
0
 10
246
 20
350.07
 11
280
 21
350.07
  0
LINE
  8
0
 10
280
 20
350.07
 11
280
 21
375.07
  0
LINE
  8
0
 10
280
 20
375.07
 11
286
 21
375.07
  0
LINE
  8
0
 10
286
 20
375.07
 11
286
 21
350.07
  0
LINE
  8
0
 10
286
 20
350.07
 11
320
 21
350.07
  0
LINE
  8
0
 10
320
 20
350.07
 11
320
 21
375.07
  0
LINE
  8
0
 10
320
 20
375.07
 11
326
 21
375.07
  0
LINE
  8
0
 10
326
 20
375.07
 11
326
 21
350.07
  0
LINE
  8
0
 10
326
 20
350.07
 11
366
 21
350.07
  0
LINE
  8
0
 10
366
 20
350.07
 11
366
 21
400.07
  0
LINE
  8
0
 10
366
 20
400.07
 11
0
 21
400.07
  0
LINE
  8
0
 10
0
 20
400.07
 11
0
 21
350.07
  0
LINE
  8
0
 10
0
 20
350.07
 11
40
 21
350.07
  0
LINE
  8
0
 10
40
 20
350.07
 11
40
 21
375.07
  0
LINE
  8
0
 10
799.01
 20
350.06
 11
751.566
 21
350.06
  0
LINE
  8
0
 10
751.566
 20
350.06
 11
751.566
 21
325.06
  0
LINE
  8
0
 10
751.566
 20
325.06
 11
745.566
 21
325.06
  0
LINE
  8
0
 10
745.566
 20
325.06
 11
745.566
 21
350.06
  0
LINE
  8
0
 10
745.566
 20
350.06
 11
704.121
 21
350.06
  0
LINE
  8
0
 10
704.121
 20
350.06
 11
704.121
 21
325.06
  0
LINE
  8
0
 10
704.121
 20
325.06
 11
698.121
 21
325.06
  0
LINE
  8
0
 10
698.121
 20
325.06
 11
698.121
 21
350.06
  0
LINE
  8
0
 10
698.121
 20
350.06
 11
656.677
 21
350.06
  0
LINE
  8
0
 10
656.677
 20
350.06
 11
656.677
 21
325.06
  0
LINE
  8
0
 10
656.677
 20
325.06
 11
650.677
 21
325.06
  0
LINE
  8
0
 10
650.677
 20
325.06
 11
650.677
 21
350.06
  0
LINE
  8
0
 10
650.677
 20
350.06
 11
609.232
 21
350.06
  0
LINE
  8
0
 10
609.232
 20
350.06
 11
609.232
 21
325.06
  0
LINE
  8
0
 10
609.232
 20
325.06
 11
603.232
 21
325.06
  0
LINE
  8
0
 10
603.232
 20
325.06
 11
603.232
 21
350.06
  0
LINE
  8
0
 10
603.232
 20
350.06
 11
561.788
 21
350.06
  0
LINE
  8
0
 10
561.788
 20
350.06
 11
561.788
 21
325.06
  0
LINE
  8
0
 10
561.788
 20
325.06
 11
555.788
 21
325.06
  0
LINE
  8
0
 10
555.788
 20
325.06
 11
555.788
 21
350.06
  0
LINE
  8
0
 10
555.788
 20
350.06
 11
514.343
 21
350.06
  0
LINE
  8
0
 10
514.343
 20
350.06
 11
514.343
 21
325.06
  0
LINE
  8
0
 10
514.343
 20
325.06
 11
508.343
 21
325.06
  0
LINE
  8
0
 10
508.343
 20
325.06
 11
508.343
 21
350.06
  0
LINE
  8
0
 10
508.343
 20
350.06
 11
466.899
 21
350.06
  0
LINE
  8
0
 10
466.899
 20
350.06
 11
466.899
 21
325.06
  0
LINE
  8
0
 10
466.899
 20
325.06
 11
460.899
 21
325.06
  0
LINE
  8
0
 10
460.899
 20
325.06
 11
460.899
 21
350.06
  0
LINE
  8
0
 10
460.899
 20
350.06
 11
419.454
 21
350.06
  0
LINE
  8
0
 10
419.454
 20
350.06
 11
419.454
 21
325.06
  0
LINE
  8
0
 10
419.454
 20
325.06
 11
413.454
 21
325.06
  0
LINE
  8
0
 10
413.454
 20
325.06
 11
413.454
 21
350.06
  0
LINE
  8
0
 10
413.454
 20
350.06
 11
366.01
 21
350.06
  0
LINE
  8
0
 10
366.01
 20
350.06
 11
366.01
 21
300.06
  0
LINE
  8
0
 10
366.01
 20
300.06
 11
799.01
 21
300.06
  0
LINE
  8
0
 10
799.01
 20
300.06
 11
799.01
 21
350.06
  0
LINE
  8
0
 10
40
 20
325.06
 11
46
 21
325.06
  0
LINE
  8
0
 10
46
 20
325.06
 11
46
 21
300.06
  0
LINE
  8
0
 10
46
 20
300.06
 11
80
 21
300.06
  0
LINE
  8
0
 10
80
 20
300.06
 11
80
 21
325.06
  0
LINE
  8
0
 10
80
 20
325.06
 11
86
 21
325.06
  0
LINE
  8
0
 10
86
 20
325.06
 11
86
 21
300.06
  0
LINE
  8
0
 10
86
 20
300.06
 11
120
 21
300.06
  0
LINE
  8
0
 10
120
 20
300.06
 11
120
 21
325.06
  0
LINE
  8
0
 10
120
 20
325.06
 11
126
 21
325.06
  0
LINE
  8
0
 10
126
 20
325.06
 11
126
 21
300.06
  0
LINE
  8
0
 10
126
 20
300.06
 11
160
 21
300.06
  0
LINE
  8
0
 10
160
 20
300.06
 11
160
 21
325.06
  0
LINE
  8
0
 10
160
 20
325.06
 11
166
 21
325.06
  0
LINE
  8
0
 10
166
 20
325.06
 11
166
 21
300.06
  0
LINE
  8
0
 10
166
 20
300.06
 11
200
 21
300.06
  0
LINE
  8
0
 10
200
 20
300.06
 11
200
 21
325.06
  0
LINE
  8
0
 10
200
 20
325.06
 11
206
 21
325.06
  0
LINE
  8
0
 10
206
 20
325.06
 11
206
 21
300.06
  0
LINE
  8
0
 10
206
 20
300.06
 11
240
 21
300.06
  0
LINE
  8
0
 10
240
 20
300.06
 11
240
 21
325.06
  0
LINE
  8
0
 10
240
 20
325.06
 11
246
 21
325.06
  0
LINE
  8
0
 10
246
 20
325.06
 11
246
 21
300.06
  0
LINE
  8
0
 10
246
 20
300.06
 11
280
 21
300.06
  0
LINE
  8
0
 10
280
 20
300.06
 11
280
 21
325.06
  0
LINE
  8
0
 10
280
 20
325.06
 11
286
 21
325.06
  0
LINE
  8
0
 10
286
 20
325.06
 11
286
 21
300.06
  0
LINE
  8
0
 10
286
 20
300.06
 11
320
 21
300.06
  0
LINE
  8
0
 10
320
 20
300.06
 11
320
 21
325.06
  0
LINE
  8
0
 10
320
 20
325.06
 11
326
 21
325.06
  0
LINE
  8
0
 10
326
 20
325.06
 11
326
 21
300.06
  0
LINE
  8
0
 10
326
 20
300.06
 11
366
 21
300.06
  0
LINE
  8
0
 10
366
 20
300.06
 11
366
 21
350.06
  0
LINE
  8
0
 10
366
 20
350.06
 11
0
 21
350.06
  0
LINE
  8
0
 10
0
 20
350.06
 11
0
 21
300.06
  0
LINE
  8
0
 10
0
 20
300.06
 11
40
 21
300.06
  0
LINE
  8
0
 10
40
 20
300.06
 11
40
 21
325.06
  0
LINE
  8
0
 10
799.01
 20
300.05
 11
751.566
 21
300.05
  0
LINE
  8
0
 10
751.566
 20
300.05
 11
751.566
 21
275.05
  0
LINE
  8
0
 10
751.566
 20
275.05
 11
745.566
 21
275.05
  0
LINE
  8
0
 10
745.566
 20
275.05
 11
745.566
 21
300.05
  0
LINE
  8
0
 10
745.566
 20
300.05
 11
704.121
 21
300.05
  0
LINE
  8
0
 10
704.121
 20
300.05
 11
704.121
 21
275.05
  0
LINE
  8
0
 10
704.121
 20
275.05
 11
698.121
 21
275.05
  0
LINE
  8
0
 10
698.121
 20
275.05
 11
698.121
 21
300.05
  0
LINE
  8
0
 10
698.121
 20
300.05
 11
656.677
 21
300.05
  0
LINE
  8
0
 10
656.677
 20
300.05
 11
656.677
 21
275.05
  0
LINE
  8
0
 10
656.677
 20
275.05
 11
650.677
 21
275.05
  0
LINE
  8
0
 10
650.677
 20
275.05
 11
650.677
 21
300.05
  0
LINE
  8
0
 10
650.677
 20
300.05
 11
609.232
 21
300.05
  0
LINE
  8
0
 10
609.232
 20
300.05
 11
609.232
 21
275.05
  0
LINE
  8
0
 10
609.232
 20
275.05
 11
603.232
 21
275.05
  0
LINE
  8
0
 10
603.232
 20
275.05
 11
603.232
 21
300.05
  0
LINE
  8
0
 10
603.232
 20
300.05
 11
561.788
 21
300.05
  0
LINE
  8
0
 10
561.788
 20
300.05
 11
561.788
 21
275.05
  0
LINE
  8
0
 10
561.788
 20
275.05
 11
555.788
 21
275.05
  0
LINE
  8
0
 10
555.788
 20
275.05
 11
555.788
 21
300.05
  0
LINE
  8
0
 10
555.788
 20
300.05
 11
514.343
 21
300.05
  0
LINE
  8
0
 10
514.343
 20
300.05
 11
514.343
 21
275.05
  0
LINE
  8
0
 10
514.343
 20
275.05
 11
508.343
 21
275.05
  0
LINE
  8
0
 10
508.343
 20
275.05
 11
508.343
 21
300.05
  0
LINE
  8
0
 10
508.343
 20
300.05
 11
466.899
 21
300.05
  0
LINE
  8
0
 10
466.899
 20
300.05
 11
466.899
 21
275.05
  0
LINE
  8
0
 10
466.899
 20
275.05
 11
460.899
 21
275.05
  0
LINE
  8
0
 10
460.899
 20
275.05
 11
460.899
 21
300.05
  0
LINE
  8
0
 10
460.899
 20
300.05
 11
419.454
 21
300.05
  0
LINE
  8
0
 10
419.454
 20
300.05
 11
419.454
 21
275.05
  0
LINE
  8
0
 10
419.454
 20
275.05
 11
413.454
 21
275.05
  0
LINE
  8
0
 10
413.454
 20
275.05
 11
413.454
 21
300.05
  0
LINE
  8
0
 10
413.454
 20
300.05
 11
366.01
 21
300.05
  0
LINE
  8
0
 10
366.01
 20
300.05
 11
366.01
 21
250.05
  0
LINE
  8
0
 10
366.01
 20
250.05
 11
799.01
 21
250.05
  0
LINE
  8
0
 10
799.01
 20
250.05
 11
799.01
 21
300.05
  0
LINE
  8
0
 10
40
 20
275.05
 11
46
 21
275.05
  0
LINE
  8
0
 10
46
 20
275.05
 11
46
 21
250.05
  0
LINE
  8
0
 10
46
 20
250.05
 11
80
 21
250.05
  0
LINE
  8
0
 10
80
 20
250.05
 11
80
 21
275.05
  0
LINE
  8
0
 10
80
 20
275.05
 11
86
 21
275.05
  0
LINE
  8
0
 10
86
 20
275.05
 11
86
 21
250.05
  0
LINE
  8
0
 10
86
 20
250.05
 11
120
 21
250.05
  0
LINE
  8
0
 10
120
 20
250.05
 11
120
 21
275.05
  0
LINE
  8
0
 10
120
 20
275.05
 11
126
 21
275.05
  0
LINE
  8
0
 10
126
 20
275.05
 11
126
 21
250.05
  0
LINE
  8
0
 10
126
 20
250.05
 11
160
 21
250.05
  0
LINE
  8
0
 10
160
 20
250.05
 11
160
 21
275.05
  0
LINE
  8
0
 10
160
 20
275.05
 11
166
 21
275.05
  0
LINE
  8
0
 10
166
 20
275.05
 11
166
 21
250.05
  0
LINE
  8
0
 10
166
 20
250.05
 11
200
 21
250.05
  0
LINE
  8
0
 10
200
 20
250.05
 11
200
 21
275.05
  0
LINE
  8
0
 10
200
 20
275.05
 11
206
 21
275.05
  0
LINE
  8
0
 10
206
 20
275.05
 11
206
 21
250.05
  0
LINE
  8
0
 10
206
 20
250.05
 11
240
 21
250.05
  0
LINE
  8
0
 10
240
 20
250.05
 11
240
 21
275.05
  0
LINE
  8
0
 10
240
 20
275.05
 11
246
 21
275.05
  0
LINE
  8
0
 10
246
 20
275.05
 11
246
 21
250.05
  0
LINE
  8
0
 10
246
 20
250.05
 11
280
 21
250.05
  0
LINE
  8
0
 10
280
 20
250.05
 11
280
 21
275.05
  0
LINE
  8
0
 10
280
 20
275.05
 11
286
 21
275.05
  0
LINE
  8
0
 10
286
 20
275.05
 11
286
 21
250.05
  0
LINE
  8
0
 10
286
 20
250.05
 11
320
 21
250.05
  0
LINE
  8
0
 10
320
 20
250.05
 11
320
 21
275.05
  0
LINE
  8
0
 10
320
 20
275.05
 11
326
 21
275.05
  0
LINE
  8
0
 10
326
 20
275.05
 11
326
 21
250.05
  0
LINE
  8
0
 10
326
 20
250.05
 11
366
 21
250.05
  0
LINE
  8
0
 10
366
 20
250.05
 11
366
 21
300.05
  0
LINE
  8
0
 10
366
 20
300.05
 11
0
 21
300.05
  0
LINE
  8
0
 10
0
 20
300.05
 11
0
 21
250.05
  0
LINE
  8
0
 10
0
 20
250.05
 11
40
 21
250.05
  0
LINE
  8
0
 10
40
 20
250.05
 11
40
 21
275.05
  0
LINE
  8
0
 10
40
 20
225.04
 11
46
 21
225.04
  0
LINE
  8
0
 10
46
 20
225.04
 11
46
 21
200.04
  0
LINE
  8
0
 10
46
 20
200.04
 11
80
 21
200.04
  0
LINE
  8
0
 10
80
 20
200.04
 11
80
 21
225.04
  0
LINE
  8
0
 10
80
 20
225.04
 11
86
 21
225.04
  0
LINE
  8
0
 10
86
 20
225.04
 11
86
 21
200.04
  0
LINE
  8
0
 10
86
 20
200.04
 11
120
 21
200.04
  0
LINE
  8
0
 10
120
 20
200.04
 11
120
 21
225.04
  0
LINE
  8
0
 10
120
 20
225.04
 11
126
 21
225.04
  0
LINE
  8
0
 10
126
 20
225.04
 11
126
 21
200.04
  0
LINE
  8
0
 10
126
 20
200.04
 11
160
 21
200.04
  0
LINE
  8
0
 10
160
 20
200.04
 11
160
 21
225.04
  0
LINE
  8
0
 10
160
 20
225.04
 11
166
 21
225.04
  0
LINE
  8
0
 10
166
 20
225.04
 11
166
 21
200.04
  0
LINE
  8
0
 10
166
 20
200.04
 11
200
 21
200.04
  0
LINE
  8
0
 10
200
 20
200.04
 11
200
 21
225.04
  0
LINE
  8
0
 10
200
 20
225.04
 11
206
 21
225.04
  0
LINE
  8
0
 10
206
 20
225.04
 11
206
 21
200.04
  0
LINE
  8
0
 10
206
 20
200.04
 11
240
 21
200.04
  0
LINE
  8
0
 10
240
 20
200.04
 11
240
 21
225.04
  0
LINE
  8
0
 10
240
 20
225.04
 11
246
 21
225.04
  0
LINE
  8
0
 10
246
 20
225.04
 11
246
 21
200.04
  0
LINE
  8
0
 10
246
 20
200.04
 11
280
 21
200.04
  0
LINE
  8
0
 10
280
 20
200.04
 11
280
 21
225.04
  0
LINE
  8
0
 10
280
 20
225.04
 11
286
 21
225.04
  0
LINE
  8
0
 10
286
 20
225.04
 11
286
 21
200.04
  0
LINE
  8
0
 10
286
 20
200.04
 11
320
 21
200.04
  0
LINE
  8
0
 10
320
 20
200.04
 11
320
 21
225.04
  0
LINE
  8
0
 10
320
 20
225.04
 11
326
 21
225.04
  0
LINE
  8
0
 10
326
 20
225.04
 11
326
 21
200.04
  0
LINE
  8
0
 10
326
 20
200.04
 11
366
 21
200.04
  0
LINE
  8
0
 10
366
 20
200.04
 11
366
 21
250.04
  0
LINE
  8
0
 10
366
 20
250.04
 11
0
 21
250.04
  0
LINE
  8
0
 10
0
 20
250.04
 11
0
 21
200.04
  0
LINE
  8
0
 10
0
 20
200.04
 11
40
 21
200.04
  0
LINE
  8
0
 10
40
 20
200.04
 11
40
 21
225.04
  0
LINE
  8
0
 10
799.01
 20
250.04
 11
751.566
 21
250.04
  0
LINE
  8
0
 10
751.566
 20
250.04
 11
751.566
 21
225.04
  0
LINE
  8
0
 10
751.566
 20
225.04
 11
745.566
 21
225.04
  0
LINE
  8
0
 10
745.566
 20
225.04
 11
745.566
 21
250.04
  0
LINE
  8
0
 10
745.566
 20
250.04
 11
704.121
 21
250.04
  0
LINE
  8
0
 10
704.121
 20
250.04
 11
704.121
 21
225.04
  0
LINE
  8
0
 10
704.121
 20
225.04
 11
698.121
 21
225.04
  0
LINE
  8
0
 10
698.121
 20
225.04
 11
698.121
 21
250.04
  0
LINE
  8
0
 10
698.121
 20
250.04
 11
656.677
 21
250.04
  0
LINE
  8
0
 10
656.677
 20
250.04
 11
656.677
 21
225.04
  0
LINE
  8
0
 10
656.677
 20
225.04
 11
650.677
 21
225.04
  0
LINE
  8
0
 10
650.677
 20
225.04
 11
650.677
 21
250.04
  0
LINE
  8
0
 10
650.677
 20
250.04
 11
609.232
 21
250.04
  0
LINE
  8
0
 10
609.232
 20
250.04
 11
609.232
 21
225.04
  0
LINE
  8
0
 10
609.232
 20
225.04
 11
603.232
 21
225.04
  0
LINE
  8
0
 10
603.232
 20
225.04
 11
603.232
 21
250.04
  0
LINE
  8
0
 10
603.232
 20
250.04
 11
561.788
 21
250.04
  0
LINE
  8
0
 10
561.788
 20
250.04
 11
561.788
 21
225.04
  0
LINE
  8
0
 10
561.788
 20
225.04
 11
555.788
 21
225.04
  0
LINE
  8
0
 10
555.788
 20
225.04
 11
555.788
 21
250.04
  0
LINE
  8
0
 10
555.788
 20
250.04
 11
514.343
 21
250.04
  0
LINE
  8
0
 10
514.343
 20
250.04
 11
514.343
 21
225.04
  0
LINE
  8
0
 10
514.343
 20
225.04
 11
508.343
 21
225.04
  0
LINE
  8
0
 10
508.343
 20
225.04
 11
508.343
 21
250.04
  0
LINE
  8
0
 10
508.343
 20
250.04
 11
466.899
 21
250.04
  0
LINE
  8
0
 10
466.899
 20
250.04
 11
466.899
 21
225.04
  0
LINE
  8
0
 10
466.899
 20
225.04
 11
460.899
 21
225.04
  0
LINE
  8
0
 10
460.899
 20
225.04
 11
460.899
 21
250.04
  0
LINE
  8
0
 10
460.899
 20
250.04
 11
419.454
 21
250.04
  0
LINE
  8
0
 10
419.454
 20
250.04
 11
419.454
 21
225.04
  0
LINE
  8
0
 10
419.454
 20
225.04
 11
413.454
 21
225.04
  0
LINE
  8
0
 10
413.454
 20
225.04
 11
413.454
 21
250.04
  0
LINE
  8
0
 10
413.454
 20
250.04
 11
366.01
 21
250.04
  0
LINE
  8
0
 10
366.01
 20
250.04
 11
366.01
 21
200.04
  0
LINE
  8
0
 10
366.01
 20
200.04
 11
799.01
 21
200.04
  0
LINE
  8
0
 10
799.01
 20
200.04
 11
799.01
 21
250.04
  0
LINE
  8
0
 10
40
 20
175.03
 11
46
 21
175.03
  0
LINE
  8
0
 10
46
 20
175.03
 11
46
 21
150.03
  0
LINE
  8
0
 10
46
 20
150.03
 11
80
 21
150.03
  0
LINE
  8
0
 10
80
 20
150.03
 11
80
 21
175.03
  0
LINE
  8
0
 10
80
 20
175.03
 11
86
 21
175.03
  0
LINE
  8
0
 10
86
 20
175.03
 11
86
 21
150.03
  0
LINE
  8
0
 10
86
 20
150.03
 11
120
 21
150.03
  0
LINE
  8
0
 10
120
 20
150.03
 11
120
 21
175.03
  0
LINE
  8
0
 10
120
 20
175.03
 11
126
 21
175.03
  0
LINE
  8
0
 10
126
 20
175.03
 11
126
 21
150.03
  0
LINE
  8
0
 10
126
 20
150.03
 11
160
 21
150.03
  0
LINE
  8
0
 10
160
 20
150.03
 11
160
 21
175.03
  0
LINE
  8
0
 10
160
 20
175.03
 11
166
 21
175.03
  0
LINE
  8
0
 10
166
 20
175.03
 11
166
 21
150.03
  0
LINE
  8
0
 10
166
 20
150.03
 11
200
 21
150.03
  0
LINE
  8
0
 10
200
 20
150.03
 11
200
 21
175.03
  0
LINE
  8
0
 10
200
 20
175.03
 11
206
 21
175.03
  0
LINE
  8
0
 10
206
 20
175.03
 11
206
 21
150.03
  0
LINE
  8
0
 10
206
 20
150.03
 11
240
 21
150.03
  0
LINE
  8
0
 10
240
 20
150.03
 11
240
 21
175.03
  0
LINE
  8
0
 10
240
 20
175.03
 11
246
 21
175.03
  0
LINE
  8
0
 10
246
 20
175.03
 11
246
 21
150.03
  0
LINE
  8
0
 10
246
 20
150.03
 11
280
 21
150.03
  0
LINE
  8
0
 10
280
 20
150.03
 11
280
 21
175.03
  0
LINE
  8
0
 10
280
 20
175.03
 11
286
 21
175.03
  0
LINE
  8
0
 10
286
 20
175.03
 11
286
 21
150.03
  0
LINE
  8
0
 10
286
 20
150.03
 11
320
 21
150.03
  0
LINE
  8
0
 10
320
 20
150.03
 11
320
 21
175.03
  0
LINE
  8
0
 10
320
 20
175.03
 11
326
 21
175.03
  0
LINE
  8
0
 10
326
 20
175.03
 11
326
 21
150.03
  0
LINE
  8
0
 10
326
 20
150.03
 11
366
 21
150.03
  0
LINE
  8
0
 10
366
 20
150.03
 11
366
 21
200.03
  0
LINE
  8
0
 10
366
 20
200.03
 11
0
 21
200.03
  0
LINE
  8
0
 10
0
 20
200.03
 11
0
 21
150.03
  0
LINE
  8
0
 10
0
 20
150.03
 11
40
 21
150.03
  0
LINE
  8
0
 10
40
 20
150.03
 11
40
 21
175.03
  0
LINE
  8
0
 10
799.01
 20
200.03
 11
751.566
 21
200.03
  0
LINE
  8
0
 10
751.566
 20
200.03
 11
751.566
 21
175.03
  0
LINE
  8
0
 10
751.566
 20
175.03
 11
745.566
 21
175.03
  0
LINE
  8
0
 10
745.566
 20
175.03
 11
745.566
 21
200.03
  0
LINE
  8
0
 10
745.566
 20
200.03
 11
704.121
 21
200.03
  0
LINE
  8
0
 10
704.121
 20
200.03
 11
704.121
 21
175.03
  0
LINE
  8
0
 10
704.121
 20
175.03
 11
698.121
 21
175.03
  0
LINE
  8
0
 10
698.121
 20
175.03
 11
698.121
 21
200.03
  0
LINE
  8
0
 10
698.121
 20
200.03
 11
656.677
 21
200.03
  0
LINE
  8
0
 10
656.677
 20
200.03
 11
656.677
 21
175.03
  0
LINE
  8
0
 10
656.677
 20
175.03
 11
650.677
 21
175.03
  0
LINE
  8
0
 10
650.677
 20
175.03
 11
650.677
 21
200.03
  0
LINE
  8
0
 10
650.677
 20
200.03
 11
609.232
 21
200.03
  0
LINE
  8
0
 10
609.232
 20
200.03
 11
609.232
 21
175.03
  0
LINE
  8
0
 10
609.232
 20
175.03
 11
603.232
 21
175.03
  0
LINE
  8
0
 10
603.232
 20
175.03
 11
603.232
 21
200.03
  0
LINE
  8
0
 10
603.232
 20
200.03
 11
561.788
 21
200.03
  0
LINE
  8
0
 10
561.788
 20
200.03
 11
561.788
 21
175.03
  0
LINE
  8
0
 10
561.788
 20
175.03
 11
555.788
 21
175.03
  0
LINE
  8
0
 10
555.788
 20
175.03
 11
555.788
 21
200.03
  0
LINE
  8
0
 10
555.788
 20
200.03
 11
514.343
 21
200.03
  0
LINE
  8
0
 10
514.343
 20
200.03
 11
514.343
 21
175.03
  0
LINE
  8
0
 10
514.343
 20
175.03
 11
508.343
 21
175.03
  0
LINE
  8
0
 10
508.343
 20
175.03
 11
508.343
 21
200.03
  0
LINE
  8
0
 10
508.343
 20
200.03
 11
466.899
 21
200.03
  0
LINE
  8
0
 10
466.899
 20
200.03
 11
466.899
 21
175.03
  0
LINE
  8
0
 10
466.899
 20
175.03
 11
460.899
 21
175.03
  0
LINE
  8
0
 10
460.899
 20
175.03
 11
460.899
 21
200.03
  0
LINE
  8
0
 10
460.899
 20
200.03
 11
419.454
 21
200.03
  0
LINE
  8
0
 10
419.454
 20
200.03
 11
419.454
 21
175.03
  0
LINE
  8
0
 10
419.454
 20
175.03
 11
413.454
 21
175.03
  0
LINE
  8
0
 10
413.454
 20
175.03
 11
413.454
 21
200.03
  0
LINE
  8
0
 10
413.454
 20
200.03
 11
366.01
 21
200.03
  0
LINE
  8
0
 10
366.01
 20
200.03
 11
366.01
 21
150.03
  0
LINE
  8
0
 10
366.01
 20
150.03
 11
799.01
 21
150.03
  0
LINE
  8
0
 10
799.01
 20
150.03
 11
799.01
 21
200.03
  0
LINE
  8
0
 10
40
 20
125.02
 11
46
 21
125.02
  0
LINE
  8
0
 10
46
 20
125.02
 11
46
 21
100.02
  0
LINE
  8
0
 10
46
 20
100.02
 11
80
 21
100.02
  0
LINE
  8
0
 10
80
 20
100.02
 11
80
 21
125.02
  0
LINE
  8
0
 10
80
 20
125.02
 11
86
 21
125.02
  0
LINE
  8
0
 10
86
 20
125.02
 11
86
 21
100.02
  0
LINE
  8
0
 10
86
 20
100.02
 11
120
 21
100.02
  0
LINE
  8
0
 10
120
 20
100.02
 11
120
 21
125.02
  0
LINE
  8
0
 10
120
 20
125.02
 11
126
 21
125.02
  0
LINE
  8
0
 10
126
 20
125.02
 11
126
 21
100.02
  0
LINE
  8
0
 10
126
 20
100.02
 11
160
 21
100.02
  0
LINE
  8
0
 10
160
 20
100.02
 11
160
 21
125.02
  0
LINE
  8
0
 10
160
 20
125.02
 11
166
 21
125.02
  0
LINE
  8
0
 10
166
 20
125.02
 11
166
 21
100.02
  0
LINE
  8
0
 10
166
 20
100.02
 11
200
 21
100.02
  0
LINE
  8
0
 10
200
 20
100.02
 11
200
 21
125.02
  0
LINE
  8
0
 10
200
 20
125.02
 11
206
 21
125.02
  0
LINE
  8
0
 10
206
 20
125.02
 11
206
 21
100.02
  0
LINE
  8
0
 10
206
 20
100.02
 11
240
 21
100.02
  0
LINE
  8
0
 10
240
 20
100.02
 11
240
 21
125.02
  0
LINE
  8
0
 10
240
 20
125.02
 11
246
 21
125.02
  0
LINE
  8
0
 10
246
 20
125.02
 11
246
 21
100.02
  0
LINE
  8
0
 10
246
 20
100.02
 11
280
 21
100.02
  0
LINE
  8
0
 10
280
 20
100.02
 11
280
 21
125.02
  0
LINE
  8
0
 10
280
 20
125.02
 11
286
 21
125.02
  0
LINE
  8
0
 10
286
 20
125.02
 11
286
 21
100.02
  0
LINE
  8
0
 10
286
 20
100.02
 11
320
 21
100.02
  0
LINE
  8
0
 10
320
 20
100.02
 11
320
 21
125.02
  0
LINE
  8
0
 10
320
 20
125.02
 11
326
 21
125.02
  0
LINE
  8
0
 10
326
 20
125.02
 11
326
 21
100.02
  0
LINE
  8
0
 10
326
 20
100.02
 11
366
 21
100.02
  0
LINE
  8
0
 10
366
 20
100.02
 11
366
 21
150.02
  0
LINE
  8
0
 10
366
 20
150.02
 11
0
 21
150.02
  0
LINE
  8
0
 10
0
 20
150.02
 11
0
 21
100.02
  0
LINE
  8
0
 10
0
 20
100.02
 11
40
 21
100.02
  0
LINE
  8
0
 10
40
 20
100.02
 11
40
 21
125.02
  0
LINE
  8
0
 10
799.01
 20
150.02
 11
751.566
 21
150.02
  0
LINE
  8
0
 10
751.566
 20
150.02
 11
751.566
 21
125.02
  0
LINE
  8
0
 10
751.566
 20
125.02
 11
745.566
 21
125.02
  0
LINE
  8
0
 10
745.566
 20
125.02
 11
745.566
 21
150.02
  0
LINE
  8
0
 10
745.566
 20
150.02
 11
704.121
 21
150.02
  0
LINE
  8
0
 10
704.121
 20
150.02
 11
704.121
 21
125.02
  0
LINE
  8
0
 10
704.121
 20
125.02
 11
698.121
 21
125.02
  0
LINE
  8
0
 10
698.121
 20
125.02
 11
698.121
 21
150.02
  0
LINE
  8
0
 10
698.121
 20
150.02
 11
656.677
 21
150.02
  0
LINE
  8
0
 10
656.677
 20
150.02
 11
656.677
 21
125.02
  0
LINE
  8
0
 10
656.677
 20
125.02
 11
650.677
 21
125.02
  0
LINE
  8
0
 10
650.677
 20
125.02
 11
650.677
 21
150.02
  0
LINE
  8
0
 10
650.677
 20
150.02
 11
609.232
 21
150.02
  0
LINE
  8
0
 10
609.232
 20
150.02
 11
609.232
 21
125.02
  0
LINE
  8
0
 10
609.232
 20
125.02
 11
603.232
 21
125.02
  0
LINE
  8
0
 10
603.232
 20
125.02
 11
603.232
 21
150.02
  0
LINE
  8
0
 10
603.232
 20
150.02
 11
561.788
 21
150.02
  0
LINE
  8
0
 10
561.788
 20
150.02
 11
561.788
 21
125.02
  0
LINE
  8
0
 10
561.788
 20
125.02
 11
555.788
 21
125.02
  0
LINE
  8
0
 10
555.788
 20
125.02
 11
555.788
 21
150.02
  0
LINE
  8
0
 10
555.788
 20
150.02
 11
514.343
 21
150.02
  0
LINE
  8
0
 10
514.343
 20
150.02
 11
514.343
 21
125.02
  0
LINE
  8
0
 10
514.343
 20
125.02
 11
508.343
 21
125.02
  0
LINE
  8
0
 10
508.343
 20
125.02
 11
508.343
 21
150.02
  0
LINE
  8
0
 10
508.343
 20
150.02
 11
466.899
 21
150.02
  0
LINE
  8
0
 10
466.899
 20
150.02
 11
466.899
 21
125.02
  0
LINE
  8
0
 10
466.899
 20
125.02
 11
460.899
 21
125.02
  0
LINE
  8
0
 10
460.899
 20
125.02
 11
460.899
 21
150.02
  0
LINE
  8
0
 10
460.899
 20
150.02
 11
419.454
 21
150.02
  0
LINE
  8
0
 10
419.454
 20
150.02
 11
419.454
 21
125.02
  0
LINE
  8
0
 10
419.454
 20
125.02
 11
413.454
 21
125.02
  0
LINE
  8
0
 10
413.454
 20
125.02
 11
413.454
 21
150.02
  0
LINE
  8
0
 10
413.454
 20
150.02
 11
366.01
 21
150.02
  0
LINE
  8
0
 10
366.01
 20
150.02
 11
366.01
 21
100.02
  0
LINE
  8
0
 10
366.01
 20
100.02
 11
799.01
 21
100.02
  0
LINE
  8
0
 10
799.01
 20
100.02
 11
799.01
 21
150.02
  0
LINE
  8
0
 10
799.01
 20
100.01
 11
751.566
 21
100.01
  0
LINE
  8
0
 10
751.566
 20
100.01
 11
751.566
 21
75.01
  0
LINE
  8
0
 10
751.566
 20
75.01
 11
745.566
 21
75.01
  0
LINE
  8
0
 10
745.566
 20
75.01
 11
745.566
 21
100.01
  0
LINE
  8
0
 10
745.566
 20
100.01
 11
704.121
 21
100.01
  0
LINE
  8
0
 10
704.121
 20
100.01
 11
704.121
 21
75.01
  0
LINE
  8
0
 10
704.121
 20
75.01
 11
698.121
 21
75.01
  0
LINE
  8
0
 10
698.121
 20
75.01
 11
698.121
 21
100.01
  0
LINE
  8
0
 10
698.121
 20
100.01
 11
656.677
 21
100.01
  0
LINE
  8
0
 10
656.677
 20
100.01
 11
656.677
 21
75.01
  0
LINE
  8
0
 10
656.677
 20
75.01
 11
650.677
 21
75.01
  0
LINE
  8
0
 10
650.677
 20
75.01
 11
650.677
 21
100.01
  0
LINE
  8
0
 10
650.677
 20
100.01
 11
609.232
 21
100.01
  0
LINE
  8
0
 10
609.232
 20
100.01
 11
609.232
 21
75.01
  0
LINE
  8
0
 10
609.232
 20
75.01
 11
603.232
 21
75.01
  0
LINE
  8
0
 10
603.232
 20
75.01
 11
603.232
 21
100.01
  0
LINE
  8
0
 10
603.232
 20
100.01
 11
561.788
 21
100.01
  0
LINE
  8
0
 10
561.788
 20
100.01
 11
561.788
 21
75.01
  0
LINE
  8
0
 10
561.788
 20
75.01
 11
555.788
 21
75.01
  0
LINE
  8
0
 10
555.788
 20
75.01
 11
555.788
 21
100.01
  0
LINE
  8
0
 10
555.788
 20
100.01
 11
514.343
 21
100.01
  0
LINE
  8
0
 10
514.343
 20
100.01
 11
514.343
 21
75.01
  0
LINE
  8
0
 10
514.343
 20
75.01
 11
508.343
 21
75.01
  0
LINE
  8
0
 10
508.343
 20
75.01
 11
508.343
 21
100.01
  0
LINE
  8
0
 10
508.343
 20
100.01
 11
466.899
 21
100.01
  0
LINE
  8
0
 10
466.899
 20
100.01
 11
466.899
 21
75.01
  0
LINE
  8
0
 10
466.899
 20
75.01
 11
460.899
 21
75.01
  0
LINE
  8
0
 10
460.899
 20
75.01
 11
460.899
 21
100.01
  0
LINE
  8
0
 10
460.899
 20
100.01
 11
419.454
 21
100.01
  0
LINE
  8
0
 10
419.454
 20
100.01
 11
419.454
 21
75.01
  0
LINE
  8
0
 10
419.454
 20
75.01
 11
413.454
 21
75.01
  0
LINE
  8
0
 10
413.454
 20
75.01
 11
413.454
 21
100.01
  0
LINE
  8
0
 10
413.454
 20
100.01
 11
366.01
 21
100.01
  0
LINE
  8
0
 10
366.01
 20
100.01
 11
366.01
 21
50.01
  0
LINE
  8
0
 10
366.01
 20
50.01
 11
799.01
 21
50.01
  0
LINE
  8
0
 10
799.01
 20
50.01
 11
799.01
 21
100.01
  0
LINE
  8
0
 10
40
 20
75.01
 11
46
 21
75.01
  0
LINE
  8
0
 10
46
 20
75.01
 11
46
 21
50.01
  0
LINE
  8
0
 10
46
 20
50.01
 11
80
 21
50.01
  0
LINE
  8
0
 10
80
 20
50.01
 11
80
 21
75.01
  0
LINE
  8
0
 10
80
 20
75.01
 11
86
 21
75.01
  0
LINE
  8
0
 10
86
 20
75.01
 11
86
 21
50.01
  0
LINE
  8
0
 10
86
 20
50.01
 11
120
 21
50.01
  0
LINE
  8
0
 10
120
 20
50.01
 11
120
 21
75.01
  0
LINE
  8
0
 10
120
 20
75.01
 11
126
 21
75.01
  0
LINE
  8
0
 10
126
 20
75.01
 11
126
 21
50.01
  0
LINE
  8
0
 10
126
 20
50.01
 11
160
 21
50.01
  0
LINE
  8
0
 10
160
 20
50.01
 11
160
 21
75.01
  0
LINE
  8
0
 10
160
 20
75.01
 11
166
 21
75.01
  0
LINE
  8
0
 10
166
 20
75.01
 11
166
 21
50.01
  0
LINE
  8
0
 10
166
 20
50.01
 11
200
 21
50.01
  0
LINE
  8
0
 10
200
 20
50.01
 11
200
 21
75.01
  0
LINE
  8
0
 10
200
 20
75.01
 11
206
 21
75.01
  0
LINE
  8
0
 10
206
 20
75.01
 11
206
 21
50.01
  0
LINE
  8
0
 10
206
 20
50.01
 11
240
 21
50.01
  0
LINE
  8
0
 10
240
 20
50.01
 11
240
 21
75.01
  0
LINE
  8
0
 10
240
 20
75.01
 11
246
 21
75.01
  0
LINE
  8
0
 10
246
 20
75.01
 11
246
 21
50.01
  0
LINE
  8
0
 10
246
 20
50.01
 11
280
 21
50.01
  0
LINE
  8
0
 10
280
 20
50.01
 11
280
 21
75.01
  0
LINE
  8
0
 10
280
 20
75.01
 11
286
 21
75.01
  0
LINE
  8
0
 10
286
 20
75.01
 11
286
 21
50.01
  0
LINE
  8
0
 10
286
 20
50.01
 11
320
 21
50.01
  0
LINE
  8
0
 10
320
 20
50.01
 11
320
 21
75.01
  0
LINE
  8
0
 10
320
 20
75.01
 11
326
 21
75.01
  0
LINE
  8
0
 10
326
 20
75.01
 11
326
 21
50.01
  0
LINE
  8
0
 10
326
 20
50.01
 11
366
 21
50.01
  0
LINE
  8
0
 10
366
 20
50.01
 11
366
 21
100.01
  0
LINE
  8
0
 10
366
 20
100.01
 11
0
 21
100.01
  0
LINE
  8
0
 10
0
 20
100.01
 11
0
 21
50.01
  0
LINE
  8
0
 10
0
 20
50.01
 11
40
 21
50.01
  0
LINE
  8
0
 10
40
 20
50.01
 11
40
 21
75.01
  0
ENDSEC
  0
SECTION
  2
OBJECTS
  0
DICTIONARY
  0
ENDSEC
  0
EOF
