  0
SECTION
  2
BLOCKS
  0
ENDSEC
  0
SECTION
  2
ENTITIES
  0
LINE
  8
0
 10
1180
 20
2100
 11
1115
 21
2100
  0
LINE
  8
0
 10
1115
 20
2100
 11
1115
 21
1925
  0
LINE
  8
0
 10
1115
 20
1925
 11
1110
 21
1925
  0
LINE
  8
0
 10
1110
 20
1925
 11
1110
 21
2100
  0
LINE
  8
0
 10
1110
 20
2100
 11
1050
 21
2100
  0
LINE
  8
0
 10
1050
 20
2100
 11
1050
 21
1925
  0
LINE
  8
0
 10
1050
 20
1925
 11
1045
 21
1925
  0
LINE
  8
0
 10
1045
 20
1925
 11
1045
 21
2100
  0
LINE
  8
0
 10
1045
 20
2100
 11
985.001
 21
2100
  0
LINE
  8
0
 10
985.001
 20
2100
 11
985.001
 21
1925
  0
LINE
  8
0
 10
985.001
 20
1925
 11
980.001
 21
1925
  0
LINE
  8
0
 10
980.001
 20
1925
 11
980.001
 21
2100
  0
LINE
  8
0
 10
980.001
 20
2100
 11
920.001
 21
2100
  0
LINE
  8
0
 10
920.001
 20
2100
 11
920.001
 21
1925
  0
LINE
  8
0
 10
920.001
 20
1925
 11
915.001
 21
1925
  0
LINE
  8
0
 10
915.001
 20
1925
 11
915.001
 21
2100
  0
LINE
  8
0
 10
915.001
 20
2100
 11
850.001
 21
2100
  0
LINE
  8
0
 10
850.001
 20
2100
 11
850.001
 21
1750
  0
LINE
  8
0
 10
850.001
 20
1750
 11
1180
 21
1750
  0
LINE
  8
0
 10
1180
 20
1750
 11
1180
 21
2100
  0
LINE
  8
0
 10
1180
 20
1750
 11
1115
 21
1750
  0
LINE
  8
0
 10
1115
 20
1750
 11
1115
 21
1575
  0
LINE
  8
0
 10
1115
 20
1575
 11
1110
 21
1575
  0
LINE
  8
0
 10
1110
 20
1575
 11
1110
 21
1750
  0
LINE
  8
0
 10
1110
 20
1750
 11
1050
 21
1750
  0
LINE
  8
0
 10
1050
 20
1750
 11
1050
 21
1575
  0
LINE
  8
0
 10
1050
 20
1575
 11
1045
 21
1575
  0
LINE
  8
0
 10
1045
 20
1575
 11
1045
 21
1750
  0
LINE
  8
0
 10
1045
 20
1750
 11
985.001
 21
1750
  0
LINE
  8
0
 10
985.001
 20
1750
 11
985.001
 21
1575
  0
LINE
  8
0
 10
985.001
 20
1575
 11
980.001
 21
1575
  0
LINE
  8
0
 10
980.001
 20
1575
 11
980.001
 21
1750
  0
LINE
  8
0
 10
980.001
 20
1750
 11
920.001
 21
1750
  0
LINE
  8
0
 10
920.001
 20
1750
 11
920.001
 21
1575
  0
LINE
  8
0
 10
920.001
 20
1575
 11
915.001
 21
1575
  0
LINE
  8
0
 10
915.001
 20
1575
 11
915.001
 21
1750
  0
LINE
  8
0
 10
915.001
 20
1750
 11
850.001
 21
1750
  0
LINE
  8
0
 10
850.001
 20
1750
 11
850.001
 21
1400
  0
LINE
  8
0
 10
850.001
 20
1400
 11
1180
 21
1400
  0
LINE
  8
0
 10
1180
 20
1400
 11
1180
 21
1750
  0
LINE
  8
0
 10
140.833
 20
1575
 11
145.833
 21
1575
  0
LINE
  8
0
 10
145.833
 20
1575
 11
145.833
 21
1400
  0
LINE
  8
0
 10
145.833
 20
1400
 11
281.667
 21
1400
  0
LINE
  8
0
 10
281.667
 20
1400
 11
281.667
 21
1575
  0
LINE
  8
0
 10
281.667
 20
1575
 11
286.667
 21
1575
  0
LINE
  8
0
 10
286.667
 20
1575
 11
286.667
 21
1400
  0
LINE
  8
0
 10
286.667
 20
1400
 11
422.5
 21
1400
  0
LINE
  8
0
 10
422.5
 20
1400
 11
422.5
 21
1575
  0
LINE
  8
0
 10
422.5
 20
1575
 11
427.5
 21
1575
  0
LINE
  8
0
 10
427.5
 20
1575
 11
427.5
 21
1400
  0
LINE
  8
0
 10
427.5
 20
1400
 11
563.333
 21
1400
  0
LINE
  8
0
 10
563.333
 20
1400
 11
563.333
 21
1575
  0
LINE
  8
0
 10
563.333
 20
1575
 11
568.333
 21
1575
  0
LINE
  8
0
 10
568.333
 20
1575
 11
568.333
 21
1400
  0
LINE
  8
0
 10
568.333
 20
1400
 11
704.167
 21
1400
  0
LINE
  8
0
 10
704.167
 20
1400
 11
704.167
 21
1575
  0
LINE
  8
0
 10
704.167
 20
1575
 11
709.167
 21
1575
  0
LINE
  8
0
 10
709.167
 20
1575
 11
709.167
 21
1400
  0
LINE
  8
0
 10
709.167
 20
1400
 11
850
 21
1400
  0
LINE
  8
0
 10
850
 20
1400
 11
850
 21
1750
  0
LINE
  8
0
 10
850
 20
1750
 11
0
 21
1750
  0
LINE
  8
0
 10
0
 20
1750
 11
0
 21
1400
  0
LINE
  8
0
 10
0
 20
1400
 11
140.833
 21
1400
  0
LINE
  8
0
 10
140.833
 20
1400
 11
140.833
 21
1575
  0
LINE
  8
0
 10
140.833
 20
1225
 11
145.833
 21
1225
  0
LINE
  8
0
 10
145.833
 20
1225
 11
145.833
 21
1050
  0
LINE
  8
0
 10
145.833
 20
1050
 11
281.667
 21
1050
  0
LINE
  8
0
 10
281.667
 20
1050
 11
281.667
 21
1225
  0
LINE
  8
0
 10
281.667
 20
1225
 11
286.667
 21
1225
  0
LINE
  8
0
 10
286.667
 20
1225
 11
286.667
 21
1050
  0
LINE
  8
0
 10
286.667
 20
1050
 11
422.5
 21
1050
  0
LINE
  8
0
 10
422.5
 20
1050
 11
422.5
 21
1225
  0
LINE
  8
0
 10
422.5
 20
1225
 11
427.5
 21
1225
  0
LINE
  8
0
 10
427.5
 20
1225
 11
427.5
 21
1050
  0
LINE
  8
0
 10
427.5
 20
1050
 11
563.333
 21
1050
  0
LINE
  8
0
 10
563.333
 20
1050
 11
563.333
 21
1225
  0
LINE
  8
0
 10
563.333
 20
1225
 11
568.333
 21
1225
  0
LINE
  8
0
 10
568.333
 20
1225
 11
568.333
 21
1050
  0
LINE
  8
0
 10
568.333
 20
1050
 11
704.167
 21
1050
  0
LINE
  8
0
 10
704.167
 20
1050
 11
704.167
 21
1225
  0
LINE
  8
0
 10
704.167
 20
1225
 11
709.167
 21
1225
  0
LINE
  8
0
 10
709.167
 20
1225
 11
709.167
 21
1050
  0
LINE
  8
0
 10
709.167
 20
1050
 11
850
 21
1050
  0
LINE
  8
0
 10
850
 20
1050
 11
850
 21
1400
  0
LINE
  8
0
 10
850
 20
1400
 11
0
 21
1400
  0
LINE
  8
0
 10
0
 20
1400
 11
0
 21
1050
  0
LINE
  8
0
 10
0
 20
1050
 11
140.833
 21
1050
  0
LINE
  8
0
 10
140.833
 20
1050
 11
140.833
 21
1225
  0
LINE
  8
0
 10
1180
 20
1400
 11
1115
 21
1400
  0
LINE
  8
0
 10
1115
 20
1400
 11
1115
 21
1225
  0
LINE
  8
0
 10
1115
 20
1225
 11
1110
 21
1225
  0
LINE
  8
0
 10
1110
 20
1225
 11
1110
 21
1400
  0
LINE
  8
0
 10
1110
 20
1400
 11
1050
 21
1400
  0
LINE
  8
0
 10
1050
 20
1400
 11
1050
 21
1225
  0
LINE
  8
0
 10
1050
 20
1225
 11
1045
 21
1225
  0
LINE
  8
0
 10
1045
 20
1225
 11
1045
 21
1400
  0
LINE
  8
0
 10
1045
 20
1400
 11
985.001
 21
1400
  0
LINE
  8
0
 10
985.001
 20
1400
 11
985.001
 21
1225
  0
LINE
  8
0
 10
985.001
 20
1225
 11
980.001
 21
1225
  0
LINE
  8
0
 10
980.001
 20
1225
 11
980.001
 21
1400
  0
LINE
  8
0
 10
980.001
 20
1400
 11
920.001
 21
1400
  0
LINE
  8
0
 10
920.001
 20
1400
 11
920.001
 21
1225
  0
LINE
  8
0
 10
920.001
 20
1225
 11
915.001
 21
1225
  0
LINE
  8
0
 10
915.001
 20
1225
 11
915.001
 21
1400
  0
LINE
  8
0
 10
915.001
 20
1400
 11
850.001
 21
1400
  0
LINE
  8
0
 10
850.001
 20
1400
 11
850.001
 21
1050
  0
LINE
  8
0
 10
850.001
 20
1050
 11
1180
 21
1050
  0
LINE
  8
0
 10
1180
 20
1050
 11
1180
 21
1400
  0
LINE
  8
0
 10
1180
 20
1050
 11
1115
 21
1050
  0
LINE
  8
0
 10
1115
 20
1050
 11
1115
 21
875.002
  0
LINE
  8
0
 10
1115
 20
875.002
 11
1110
 21
875.002
  0
LINE
  8
0
 10
1110
 20
875.002
 11
1110
 21
1050
  0
LINE
  8
0
 10
1110
 20
1050
 11
1050
 21
1050
  0
LINE
  8
0
 10
1050
 20
1050
 11
1050
 21
875.002
  0
LINE
  8
0
 10
1050
 20
875.002
 11
1045
 21
875.002
  0
LINE
  8
0
 10
1045
 20
875.002
 11
1045
 21
1050
  0
LINE
  8
0
 10
1045
 20
1050
 11
985.001
 21
1050
  0
LINE
  8
0
 10
985.001
 20
1050
 11
985.001
 21
875.002
  0
LINE
  8
0
 10
985.001
 20
875.002
 11
980.001
 21
875.002
  0
LINE
  8
0
 10
980.001
 20
875.002
 11
980.001
 21
1050
  0
LINE
  8
0
 10
980.001
 20
1050
 11
920.001
 21
1050
  0
LINE
  8
0
 10
920.001
 20
1050
 11
920.001
 21
875.002
  0
LINE
  8
0
 10
920.001
 20
875.002
 11
915.001
 21
875.002
  0
LINE
  8
0
 10
915.001
 20
875.002
 11
915.001
 21
1050
  0
LINE
  8
0
 10
915.001
 20
1050
 11
850.001
 21
1050
  0
LINE
  8
0
 10
850.001
 20
1050
 11
850.001
 21
700.002
  0
LINE
  8
0
 10
850.001
 20
700.002
 11
1180
 21
700.002
  0
LINE
  8
0
 10
1180
 20
700.002
 11
1180
 21
1050
  0
LINE
  8
0
 10
140.833
 20
875.002
 11
145.833
 21
875.002
  0
LINE
  8
0
 10
145.833
 20
875.002
 11
145.833
 21
700.002
  0
LINE
  8
0
 10
145.833
 20
700.002
 11
281.667
 21
700.002
  0
LINE
  8
0
 10
281.667
 20
700.002
 11
281.667
 21
875.002
  0
LINE
  8
0
 10
281.667
 20
875.002
 11
286.667
 21
875.002
  0
LINE
  8
0
 10
286.667
 20
875.002
 11
286.667
 21
700.002
  0
LINE
  8
0
 10
286.667
 20
700.002
 11
422.5
 21
700.002
  0
LINE
  8
0
 10
422.5
 20
700.002
 11
422.5
 21
875.002
  0
LINE
  8
0
 10
422.5
 20
875.002
 11
427.5
 21
875.002
  0
LINE
  8
0
 10
427.5
 20
875.002
 11
427.5
 21
700.002
  0
LINE
  8
0
 10
427.5
 20
700.002
 11
563.333
 21
700.002
  0
LINE
  8
0
 10
563.333
 20
700.002
 11
563.333
 21
875.002
  0
LINE
  8
0
 10
563.333
 20
875.002
 11
568.333
 21
875.002
  0
LINE
  8
0
 10
568.333
 20
875.002
 11
568.333
 21
700.002
  0
LINE
  8
0
 10
568.333
 20
700.002
 11
704.167
 21
700.002
  0
LINE
  8
0
 10
704.167
 20
700.002
 11
704.167
 21
875.002
  0
LINE
  8
0
 10
704.167
 20
875.002
 11
709.167
 21
875.002
  0
LINE
  8
0
 10
709.167
 20
875.002
 11
709.167
 21
700.002
  0
LINE
  8
0
 10
709.167
 20
700.002
 11
850
 21
700.002
  0
LINE
  8
0
 10
850
 20
700.002
 11
850
 21
1050
  0
LINE
  8
0
 10
850
 20
1050
 11
0
 21
1050
  0
LINE
  8
0
 10
0
 20
1050
 11
0
 21
700.002
  0
LINE
  8
0
 10
0
 20
700.002
 11
140.833
 21
700.002
  0
LINE
  8
0
 10
140.833
 20
700.002
 11
140.833
 21
875.002
  0
LINE
  8
0
 10
140.833
 20
525.001
 11
145.833
 21
525.001
  0
LINE
  8
0
 10
145.833
 20
525.001
 11
145.833
 21
350.001
  0
LINE
  8
0
 10
145.833
 20
350.001
 11
281.667
 21
350.001
  0
LINE
  8
0
 10
281.667
 20
350.001
 11
281.667
 21
525.001
  0
LINE
  8
0
 10
281.667
 20
525.001
 11
286.667
 21
525.001
  0
LINE
  8
0
 10
286.667
 20
525.001
 11
286.667
 21
350.001
  0
LINE
  8
0
 10
286.667
 20
350.001
 11
422.5
 21
350.001
  0
LINE
  8
0
 10
422.5
 20
350.001
 11
422.5
 21
525.001
  0
LINE
  8
0
 10
422.5
 20
525.001
 11
427.5
 21
525.001
  0
LINE
  8
0
 10
427.5
 20
525.001
 11
427.5
 21
350.001
  0
LINE
  8
0
 10
427.5
 20
350.001
 11
563.333
 21
350.001
  0
LINE
  8
0
 10
563.333
 20
350.001
 11
563.333
 21
525.001
  0
LINE
  8
0
 10
563.333
 20
525.001
 11
568.333
 21
525.001
  0
LINE
  8
0
 10
568.333
 20
525.001
 11
568.333
 21
350.001
  0
LINE
  8
0
 10
568.333
 20
350.001
 11
704.167
 21
350.001
  0
LINE
  8
0
 10
704.167
 20
350.001
 11
704.167
 21
525.001
  0
LINE
  8
0
 10
704.167
 20
525.001
 11
709.167
 21
525.001
  0
LINE
  8
0
 10
709.167
 20
525.001
 11
709.167
 21
350.001
  0
LINE
  8
0
 10
709.167
 20
350.001
 11
850
 21
350.001
  0
LINE
  8
0
 10
850
 20
350.001
 11
850
 21
700.001
  0
LINE
  8
0
 10
850
 20
700.001
 11
0
 21
700.001
  0
LINE
  8
0
 10
0
 20
700.001
 11
0
 21
350.001
  0
LINE
  8
0
 10
0
 20
350.001
 11
140.833
 21
350.001
  0
LINE
  8
0
 10
140.833
 20
350.001
 11
140.833
 21
525.001
  0
LINE
  8
0
 10
1180
 20
700.001
 11
1115
 21
700.001
  0
LINE
  8
0
 10
1115
 20
700.001
 11
1115
 21
525.001
  0
LINE
  8
0
 10
1115
 20
525.001
 11
1110
 21
525.001
  0
LINE
  8
0
 10
1110
 20
525.001
 11
1110
 21
700.001
  0
LINE
  8
0
 10
1110
 20
700.001
 11
1050
 21
700.001
  0
LINE
  8
0
 10
1050
 20
700.001
 11
1050
 21
525.001
  0
LINE
  8
0
 10
1050
 20
525.001
 11
1045
 21
525.001
  0
LINE
  8
0
 10
1045
 20
525.001
 11
1045
 21
700.001
  0
LINE
  8
0
 10
1045
 20
700.001
 11
985.001
 21
700.001
  0
LINE
  8
0
 10
985.001
 20
700.001
 11
985.001
 21
525.001
  0
LINE
  8
0
 10
985.001
 20
525.001
 11
980.001
 21
525.001
  0
LINE
  8
0
 10
980.001
 20
525.001
 11
980.001
 21
700.001
  0
LINE
  8
0
 10
980.001
 20
700.001
 11
920.001
 21
700.001
  0
LINE
  8
0
 10
920.001
 20
700.001
 11
920.001
 21
525.001
  0
LINE
  8
0
 10
920.001
 20
525.001
 11
915.001
 21
525.001
  0
LINE
  8
0
 10
915.001
 20
525.001
 11
915.001
 21
700.001
  0
LINE
  8
0
 10
915.001
 20
700.001
 11
850.001
 21
700.001
  0
LINE
  8
0
 10
850.001
 20
700.001
 11
850.001
 21
350.001
  0
LINE
  8
0
 10
850.001
 20
350.001
 11
1180
 21
350.001
  0
LINE
  8
0
 10
1180
 20
350.001
 11
1180
 21
700.001
  0
ENDSEC
  0
SECTION
  2
OBJECTS
  0
DICTIONARY
  0
ENDSEC
  0
EOF
