  0
SECTION
  2
BLOCKS
  0
ENDSEC
  0
SECTION
  2
ENTITIES
  0
LINE
  8
0
 10
1079
 20
3500.01
 11
1023
 21
3500.01
  0
LINE
  8
0
 10
1023
 20
3500.01
 11
1023
 21
3325.01
  0
LINE
  8
0
 10
1023
 20
3325.01
 11
1018
 21
3325.01
  0
LINE
  8
0
 10
1018
 20
3325.01
 11
1018
 21
3500.01
  0
LINE
  8
0
 10
1018
 20
3500.01
 11
967.001
 21
3500.01
  0
LINE
  8
0
 10
967.001
 20
3500.01
 11
967.001
 21
3325.01
  0
LINE
  8
0
 10
967.001
 20
3325.01
 11
962.001
 21
3325.01
  0
LINE
  8
0
 10
962.001
 20
3325.01
 11
962.001
 21
3500.01
  0
LINE
  8
0
 10
962.001
 20
3500.01
 11
911.001
 21
3500.01
  0
LINE
  8
0
 10
911.001
 20
3500.01
 11
911.001
 21
3325.01
  0
LINE
  8
0
 10
911.001
 20
3325.01
 11
906.001
 21
3325.01
  0
LINE
  8
0
 10
906.001
 20
3325.01
 11
906.001
 21
3500.01
  0
LINE
  8
0
 10
906.001
 20
3500.01
 11
850.001
 21
3500.01
  0
LINE
  8
0
 10
850.001
 20
3500.01
 11
850.001
 21
3150.01
  0
LINE
  8
0
 10
850.001
 20
3150.01
 11
1079
 21
3150.01
  0
LINE
  8
0
 10
1079
 20
3150.01
 11
1079
 21
3500.01
  0
LINE
  8
0
 10
1079
 20
3150.01
 11
1023
 21
3150.01
  0
LINE
  8
0
 10
1023
 20
3150.01
 11
1023
 21
2975.01
  0
LINE
  8
0
 10
1023
 20
2975.01
 11
1018
 21
2975.01
  0
LINE
  8
0
 10
1018
 20
2975.01
 11
1018
 21
3150.01
  0
LINE
  8
0
 10
1018
 20
3150.01
 11
967.001
 21
3150.01
  0
LINE
  8
0
 10
967.001
 20
3150.01
 11
967.001
 21
2975.01
  0
LINE
  8
0
 10
967.001
 20
2975.01
 11
962.001
 21
2975.01
  0
LINE
  8
0
 10
962.001
 20
2975.01
 11
962.001
 21
3150.01
  0
LINE
  8
0
 10
962.001
 20
3150.01
 11
911.001
 21
3150.01
  0
LINE
  8
0
 10
911.001
 20
3150.01
 11
911.001
 21
2975.01
  0
LINE
  8
0
 10
911.001
 20
2975.01
 11
906.001
 21
2975.01
  0
LINE
  8
0
 10
906.001
 20
2975.01
 11
906.001
 21
3150.01
  0
LINE
  8
0
 10
906.001
 20
3150.01
 11
850.001
 21
3150.01
  0
LINE
  8
0
 10
850.001
 20
3150.01
 11
850.001
 21
2800.01
  0
LINE
  8
0
 10
850.001
 20
2800.01
 11
1079
 21
2800.01
  0
LINE
  8
0
 10
1079
 20
2800.01
 11
1079
 21
3150.01
  0
LINE
  8
0
 10
1079
 20
2800.01
 11
1023
 21
2800.01
  0
LINE
  8
0
 10
1023
 20
2800.01
 11
1023
 21
2625.01
  0
LINE
  8
0
 10
1023
 20
2625.01
 11
1018
 21
2625.01
  0
LINE
  8
0
 10
1018
 20
2625.01
 11
1018
 21
2800.01
  0
LINE
  8
0
 10
1018
 20
2800.01
 11
967.001
 21
2800.01
  0
LINE
  8
0
 10
967.001
 20
2800.01
 11
967.001
 21
2625.01
  0
LINE
  8
0
 10
967.001
 20
2625.01
 11
962.001
 21
2625.01
  0
LINE
  8
0
 10
962.001
 20
2625.01
 11
962.001
 21
2800.01
  0
LINE
  8
0
 10
962.001
 20
2800.01
 11
911.001
 21
2800.01
  0
LINE
  8
0
 10
911.001
 20
2800.01
 11
911.001
 21
2625.01
  0
LINE
  8
0
 10
911.001
 20
2625.01
 11
906.001
 21
2625.01
  0
LINE
  8
0
 10
906.001
 20
2625.01
 11
906.001
 21
2800.01
  0
LINE
  8
0
 10
906.001
 20
2800.01
 11
850.001
 21
2800.01
  0
LINE
  8
0
 10
850.001
 20
2800.01
 11
850.001
 21
2450.01
  0
LINE
  8
0
 10
850.001
 20
2450.01
 11
1079
 21
2450.01
  0
LINE
  8
0
 10
1079
 20
2450.01
 11
1079
 21
2800.01
  0
LINE
  8
0
 10
1079
 20
2450.01
 11
1023
 21
2450.01
  0
LINE
  8
0
 10
1023
 20
2450.01
 11
1023
 21
2275.01
  0
LINE
  8
0
 10
1023
 20
2275.01
 11
1018
 21
2275.01
  0
LINE
  8
0
 10
1018
 20
2275.01
 11
1018
 21
2450.01
  0
LINE
  8
0
 10
1018
 20
2450.01
 11
967.001
 21
2450.01
  0
LINE
  8
0
 10
967.001
 20
2450.01
 11
967.001
 21
2275.01
  0
LINE
  8
0
 10
967.001
 20
2275.01
 11
962.001
 21
2275.01
  0
LINE
  8
0
 10
962.001
 20
2275.01
 11
962.001
 21
2450.01
  0
LINE
  8
0
 10
962.001
 20
2450.01
 11
911.001
 21
2450.01
  0
LINE
  8
0
 10
911.001
 20
2450.01
 11
911.001
 21
2275.01
  0
LINE
  8
0
 10
911.001
 20
2275.01
 11
906.001
 21
2275.01
  0
LINE
  8
0
 10
906.001
 20
2275.01
 11
906.001
 21
2450.01
  0
LINE
  8
0
 10
906.001
 20
2450.01
 11
850.001
 21
2450.01
  0
LINE
  8
0
 10
850.001
 20
2450.01
 11
850.001
 21
2100.01
  0
LINE
  8
0
 10
850.001
 20
2100.01
 11
1079
 21
2100.01
  0
LINE
  8
0
 10
1079
 20
2100.01
 11
1079
 21
2450.01
  0
LINE
  8
0
 10
1079
 20
2100
 11
1023
 21
2100
  0
LINE
  8
0
 10
1023
 20
2100
 11
1023
 21
1925
  0
LINE
  8
0
 10
1023
 20
1925
 11
1018
 21
1925
  0
LINE
  8
0
 10
1018
 20
1925
 11
1018
 21
2100
  0
LINE
  8
0
 10
1018
 20
2100
 11
967.001
 21
2100
  0
LINE
  8
0
 10
967.001
 20
2100
 11
967.001
 21
1925
  0
LINE
  8
0
 10
967.001
 20
1925
 11
962.001
 21
1925
  0
LINE
  8
0
 10
962.001
 20
1925
 11
962.001
 21
2100
  0
LINE
  8
0
 10
962.001
 20
2100
 11
911.001
 21
2100
  0
LINE
  8
0
 10
911.001
 20
2100
 11
911.001
 21
1925
  0
LINE
  8
0
 10
911.001
 20
1925
 11
906.001
 21
1925
  0
LINE
  8
0
 10
906.001
 20
1925
 11
906.001
 21
2100
  0
LINE
  8
0
 10
906.001
 20
2100
 11
850.001
 21
2100
  0
LINE
  8
0
 10
850.001
 20
2100
 11
850.001
 21
1750
  0
LINE
  8
0
 10
850.001
 20
1750
 11
1079
 21
1750
  0
LINE
  8
0
 10
1079
 20
1750
 11
1079
 21
2100
  0
LINE
  8
0
 10
1079
 20
1750
 11
1023
 21
1750
  0
LINE
  8
0
 10
1023
 20
1750
 11
1023
 21
1575
  0
LINE
  8
0
 10
1023
 20
1575
 11
1018
 21
1575
  0
LINE
  8
0
 10
1018
 20
1575
 11
1018
 21
1750
  0
LINE
  8
0
 10
1018
 20
1750
 11
967.001
 21
1750
  0
LINE
  8
0
 10
967.001
 20
1750
 11
967.001
 21
1575
  0
LINE
  8
0
 10
967.001
 20
1575
 11
962.001
 21
1575
  0
LINE
  8
0
 10
962.001
 20
1575
 11
962.001
 21
1750
  0
LINE
  8
0
 10
962.001
 20
1750
 11
911.001
 21
1750
  0
LINE
  8
0
 10
911.001
 20
1750
 11
911.001
 21
1575
  0
LINE
  8
0
 10
911.001
 20
1575
 11
906.001
 21
1575
  0
LINE
  8
0
 10
906.001
 20
1575
 11
906.001
 21
1750
  0
LINE
  8
0
 10
906.001
 20
1750
 11
850.001
 21
1750
  0
LINE
  8
0
 10
850.001
 20
1750
 11
850.001
 21
1400
  0
LINE
  8
0
 10
850.001
 20
1400
 11
1079
 21
1400
  0
LINE
  8
0
 10
1079
 20
1400
 11
1079
 21
1750
  0
LINE
  8
0
 10
1079
 20
1400
 11
1023
 21
1400
  0
LINE
  8
0
 10
1023
 20
1400
 11
1023
 21
1225
  0
LINE
  8
0
 10
1023
 20
1225
 11
1018
 21
1225
  0
LINE
  8
0
 10
1018
 20
1225
 11
1018
 21
1400
  0
LINE
  8
0
 10
1018
 20
1400
 11
967.001
 21
1400
  0
LINE
  8
0
 10
967.001
 20
1400
 11
967.001
 21
1225
  0
LINE
  8
0
 10
967.001
 20
1225
 11
962.001
 21
1225
  0
LINE
  8
0
 10
962.001
 20
1225
 11
962.001
 21
1400
  0
LINE
  8
0
 10
962.001
 20
1400
 11
911.001
 21
1400
  0
LINE
  8
0
 10
911.001
 20
1400
 11
911.001
 21
1225
  0
LINE
  8
0
 10
911.001
 20
1225
 11
906.001
 21
1225
  0
LINE
  8
0
 10
906.001
 20
1225
 11
906.001
 21
1400
  0
LINE
  8
0
 10
906.001
 20
1400
 11
850.001
 21
1400
  0
LINE
  8
0
 10
850.001
 20
1400
 11
850.001
 21
1050
  0
LINE
  8
0
 10
850.001
 20
1050
 11
1079
 21
1050
  0
LINE
  8
0
 10
1079
 20
1050
 11
1079
 21
1400
  0
LINE
  8
0
 10
84.5
 20
1225
 11
89.5
 21
1225
  0
LINE
  8
0
 10
89.5
 20
1225
 11
89.5
 21
1050
  0
LINE
  8
0
 10
89.5
 20
1050
 11
169
 21
1050
  0
LINE
  8
0
 10
169
 20
1050
 11
169
 21
1225
  0
LINE
  8
0
 10
169
 20
1225
 11
174
 21
1225
  0
LINE
  8
0
 10
174
 20
1225
 11
174
 21
1050
  0
LINE
  8
0
 10
174
 20
1050
 11
253.5
 21
1050
  0
LINE
  8
0
 10
253.5
 20
1050
 11
253.5
 21
1225
  0
LINE
  8
0
 10
253.5
 20
1225
 11
258.5
 21
1225
  0
LINE
  8
0
 10
258.5
 20
1225
 11
258.5
 21
1050
  0
LINE
  8
0
 10
258.5
 20
1050
 11
338
 21
1050
  0
LINE
  8
0
 10
338
 20
1050
 11
338
 21
1225
  0
LINE
  8
0
 10
338
 20
1225
 11
343
 21
1225
  0
LINE
  8
0
 10
343
 20
1225
 11
343
 21
1050
  0
LINE
  8
0
 10
343
 20
1050
 11
422.5
 21
1050
  0
LINE
  8
0
 10
422.5
 20
1050
 11
422.5
 21
1225
  0
LINE
  8
0
 10
422.5
 20
1225
 11
427.5
 21
1225
  0
LINE
  8
0
 10
427.5
 20
1225
 11
427.5
 21
1050
  0
LINE
  8
0
 10
427.5
 20
1050
 11
507
 21
1050
  0
LINE
  8
0
 10
507
 20
1050
 11
507
 21
1225
  0
LINE
  8
0
 10
507
 20
1225
 11
512
 21
1225
  0
LINE
  8
0
 10
512
 20
1225
 11
512
 21
1050
  0
LINE
  8
0
 10
512
 20
1050
 11
591.5
 21
1050
  0
LINE
  8
0
 10
591.5
 20
1050
 11
591.5
 21
1225
  0
LINE
  8
0
 10
591.5
 20
1225
 11
596.5
 21
1225
  0
LINE
  8
0
 10
596.5
 20
1225
 11
596.5
 21
1050
  0
LINE
  8
0
 10
596.5
 20
1050
 11
676
 21
1050
  0
LINE
  8
0
 10
676
 20
1050
 11
676
 21
1225
  0
LINE
  8
0
 10
676
 20
1225
 11
681
 21
1225
  0
LINE
  8
0
 10
681
 20
1225
 11
681
 21
1050
  0
LINE
  8
0
 10
681
 20
1050
 11
760.5
 21
1050
  0
LINE
  8
0
 10
760.5
 20
1050
 11
760.5
 21
1225
  0
LINE
  8
0
 10
760.5
 20
1225
 11
765.5
 21
1225
  0
LINE
  8
0
 10
765.5
 20
1225
 11
765.5
 21
1050
  0
LINE
  8
0
 10
765.5
 20
1050
 11
850
 21
1050
  0
LINE
  8
0
 10
850
 20
1050
 11
850
 21
1400
  0
LINE
  8
0
 10
850
 20
1400
 11
0
 21
1400
  0
LINE
  8
0
 10
0
 20
1400
 11
0
 21
1050
  0
LINE
  8
0
 10
0
 20
1050
 11
84.5
 21
1050
  0
LINE
  8
0
 10
84.5
 20
1050
 11
84.5
 21
1225
  0
LINE
  8
0
 10
1079
 20
1050
 11
1023
 21
1050
  0
LINE
  8
0
 10
1023
 20
1050
 11
1023
 21
875.002
  0
LINE
  8
0
 10
1023
 20
875.002
 11
1018
 21
875.002
  0
LINE
  8
0
 10
1018
 20
875.002
 11
1018
 21
1050
  0
LINE
  8
0
 10
1018
 20
1050
 11
967.001
 21
1050
  0
LINE
  8
0
 10
967.001
 20
1050
 11
967.001
 21
875.002
  0
LINE
  8
0
 10
967.001
 20
875.002
 11
962.001
 21
875.002
  0
LINE
  8
0
 10
962.001
 20
875.002
 11
962.001
 21
1050
  0
LINE
  8
0
 10
962.001
 20
1050
 11
911.001
 21
1050
  0
LINE
  8
0
 10
911.001
 20
1050
 11
911.001
 21
875.002
  0
LINE
  8
0
 10
911.001
 20
875.002
 11
906.001
 21
875.002
  0
LINE
  8
0
 10
906.001
 20
875.002
 11
906.001
 21
1050
  0
LINE
  8
0
 10
906.001
 20
1050
 11
850.001
 21
1050
  0
LINE
  8
0
 10
850.001
 20
1050
 11
850.001
 21
700.002
  0
LINE
  8
0
 10
850.001
 20
700.002
 11
1079
 21
700.002
  0
LINE
  8
0
 10
1079
 20
700.002
 11
1079
 21
1050
  0
LINE
  8
0
 10
84.5
 20
875.002
 11
89.5
 21
875.002
  0
LINE
  8
0
 10
89.5
 20
875.002
 11
89.5
 21
700.002
  0
LINE
  8
0
 10
89.5
 20
700.002
 11
169
 21
700.002
  0
LINE
  8
0
 10
169
 20
700.002
 11
169
 21
875.002
  0
LINE
  8
0
 10
169
 20
875.002
 11
174
 21
875.002
  0
LINE
  8
0
 10
174
 20
875.002
 11
174
 21
700.002
  0
LINE
  8
0
 10
174
 20
700.002
 11
253.5
 21
700.002
  0
LINE
  8
0
 10
253.5
 20
700.002
 11
253.5
 21
875.002
  0
LINE
  8
0
 10
253.5
 20
875.002
 11
258.5
 21
875.002
  0
LINE
  8
0
 10
258.5
 20
875.002
 11
258.5
 21
700.002
  0
LINE
  8
0
 10
258.5
 20
700.002
 11
338
 21
700.002
  0
LINE
  8
0
 10
338
 20
700.002
 11
338
 21
875.002
  0
LINE
  8
0
 10
338
 20
875.002
 11
343
 21
875.002
  0
LINE
  8
0
 10
343
 20
875.002
 11
343
 21
700.002
  0
LINE
  8
0
 10
343
 20
700.002
 11
422.5
 21
700.002
  0
LINE
  8
0
 10
422.5
 20
700.002
 11
422.5
 21
875.002
  0
LINE
  8
0
 10
422.5
 20
875.002
 11
427.5
 21
875.002
  0
LINE
  8
0
 10
427.5
 20
875.002
 11
427.5
 21
700.002
  0
LINE
  8
0
 10
427.5
 20
700.002
 11
507
 21
700.002
  0
LINE
  8
0
 10
507
 20
700.002
 11
507
 21
875.002
  0
LINE
  8
0
 10
507
 20
875.002
 11
512
 21
875.002
  0
LINE
  8
0
 10
512
 20
875.002
 11
512
 21
700.002
  0
LINE
  8
0
 10
512
 20
700.002
 11
591.5
 21
700.002
  0
LINE
  8
0
 10
591.5
 20
700.002
 11
591.5
 21
875.002
  0
LINE
  8
0
 10
591.5
 20
875.002
 11
596.5
 21
875.002
  0
LINE
  8
0
 10
596.5
 20
875.002
 11
596.5
 21
700.002
  0
LINE
  8
0
 10
596.5
 20
700.002
 11
676
 21
700.002
  0
LINE
  8
0
 10
676
 20
700.002
 11
676
 21
875.002
  0
LINE
  8
0
 10
676
 20
875.002
 11
681
 21
875.002
  0
LINE
  8
0
 10
681
 20
875.002
 11
681
 21
700.002
  0
LINE
  8
0
 10
681
 20
700.002
 11
760.5
 21
700.002
  0
LINE
  8
0
 10
760.5
 20
700.002
 11
760.5
 21
875.002
  0
LINE
  8
0
 10
760.5
 20
875.002
 11
765.5
 21
875.002
  0
LINE
  8
0
 10
765.5
 20
875.002
 11
765.5
 21
700.002
  0
LINE
  8
0
 10
765.5
 20
700.002
 11
850
 21
700.002
  0
LINE
  8
0
 10
850
 20
700.002
 11
850
 21
1050
  0
LINE
  8
0
 10
850
 20
1050
 11
0
 21
1050
  0
LINE
  8
0
 10
0
 20
1050
 11
0
 21
700.002
  0
LINE
  8
0
 10
0
 20
700.002
 11
84.5
 21
700.002
  0
LINE
  8
0
 10
84.5
 20
700.002
 11
84.5
 21
875.002
  0
LINE
  8
0
 10
84.5
 20
525.001
 11
89.5
 21
525.001
  0
LINE
  8
0
 10
89.5
 20
525.001
 11
89.5
 21
350.001
  0
LINE
  8
0
 10
89.5
 20
350.001
 11
169
 21
350.001
  0
LINE
  8
0
 10
169
 20
350.001
 11
169
 21
525.001
  0
LINE
  8
0
 10
169
 20
525.001
 11
174
 21
525.001
  0
LINE
  8
0
 10
174
 20
525.001
 11
174
 21
350.001
  0
LINE
  8
0
 10
174
 20
350.001
 11
253.5
 21
350.001
  0
LINE
  8
0
 10
253.5
 20
350.001
 11
253.5
 21
525.001
  0
LINE
  8
0
 10
253.5
 20
525.001
 11
258.5
 21
525.001
  0
LINE
  8
0
 10
258.5
 20
525.001
 11
258.5
 21
350.001
  0
LINE
  8
0
 10
258.5
 20
350.001
 11
338
 21
350.001
  0
LINE
  8
0
 10
338
 20
350.001
 11
338
 21
525.001
  0
LINE
  8
0
 10
338
 20
525.001
 11
343
 21
525.001
  0
LINE
  8
0
 10
343
 20
525.001
 11
343
 21
350.001
  0
LINE
  8
0
 10
343
 20
350.001
 11
422.5
 21
350.001
  0
LINE
  8
0
 10
422.5
 20
350.001
 11
422.5
 21
525.001
  0
LINE
  8
0
 10
422.5
 20
525.001
 11
427.5
 21
525.001
  0
LINE
  8
0
 10
427.5
 20
525.001
 11
427.5
 21
350.001
  0
LINE
  8
0
 10
427.5
 20
350.001
 11
507
 21
350.001
  0
LINE
  8
0
 10
507
 20
350.001
 11
507
 21
525.001
  0
LINE
  8
0
 10
507
 20
525.001
 11
512
 21
525.001
  0
LINE
  8
0
 10
512
 20
525.001
 11
512
 21
350.001
  0
LINE
  8
0
 10
512
 20
350.001
 11
591.5
 21
350.001
  0
LINE
  8
0
 10
591.5
 20
350.001
 11
591.5
 21
525.001
  0
LINE
  8
0
 10
591.5
 20
525.001
 11
596.5
 21
525.001
  0
LINE
  8
0
 10
596.5
 20
525.001
 11
596.5
 21
350.001
  0
LINE
  8
0
 10
596.5
 20
350.001
 11
676
 21
350.001
  0
LINE
  8
0
 10
676
 20
350.001
 11
676
 21
525.001
  0
LINE
  8
0
 10
676
 20
525.001
 11
681
 21
525.001
  0
LINE
  8
0
 10
681
 20
525.001
 11
681
 21
350.001
  0
LINE
  8
0
 10
681
 20
350.001
 11
760.5
 21
350.001
  0
LINE
  8
0
 10
760.5
 20
350.001
 11
760.5
 21
525.001
  0
LINE
  8
0
 10
760.5
 20
525.001
 11
765.5
 21
525.001
  0
LINE
  8
0
 10
765.5
 20
525.001
 11
765.5
 21
350.001
  0
LINE
  8
0
 10
765.5
 20
350.001
 11
850
 21
350.001
  0
LINE
  8
0
 10
850
 20
350.001
 11
850
 21
700.001
  0
LINE
  8
0
 10
850
 20
700.001
 11
0
 21
700.001
  0
LINE
  8
0
 10
0
 20
700.001
 11
0
 21
350.001
  0
LINE
  8
0
 10
0
 20
350.001
 11
84.5
 21
350.001
  0
LINE
  8
0
 10
84.5
 20
350.001
 11
84.5
 21
525.001
  0
LINE
  8
0
 10
1079
 20
700.001
 11
1023
 21
700.001
  0
LINE
  8
0
 10
1023
 20
700.001
 11
1023
 21
525.001
  0
LINE
  8
0
 10
1023
 20
525.001
 11
1018
 21
525.001
  0
LINE
  8
0
 10
1018
 20
525.001
 11
1018
 21
700.001
  0
LINE
  8
0
 10
1018
 20
700.001
 11
967.001
 21
700.001
  0
LINE
  8
0
 10
967.001
 20
700.001
 11
967.001
 21
525.001
  0
LINE
  8
0
 10
967.001
 20
525.001
 11
962.001
 21
525.001
  0
LINE
  8
0
 10
962.001
 20
525.001
 11
962.001
 21
700.001
  0
LINE
  8
0
 10
962.001
 20
700.001
 11
911.001
 21
700.001
  0
LINE
  8
0
 10
911.001
 20
700.001
 11
911.001
 21
525.001
  0
LINE
  8
0
 10
911.001
 20
525.001
 11
906.001
 21
525.001
  0
LINE
  8
0
 10
906.001
 20
525.001
 11
906.001
 21
700.001
  0
LINE
  8
0
 10
906.001
 20
700.001
 11
850.001
 21
700.001
  0
LINE
  8
0
 10
850.001
 20
700.001
 11
850.001
 21
350.001
  0
LINE
  8
0
 10
850.001
 20
350.001
 11
1079
 21
350.001
  0
LINE
  8
0
 10
1079
 20
350.001
 11
1079
 21
700.001
  0
ENDSEC
  0
SECTION
  2
OBJECTS
  0
DICTIONARY
  0
ENDSEC
  0
EOF
