  0
SECTION
  2
BLOCKS
  0
ENDSEC
  0
SECTION
  2
ENTITIES
  0
LINE
  8
0
 10
1231
 20
2100
 11
1137.25
 21
2100
  0
LINE
  8
0
 10
1137.25
 20
2100
 11
1137.25
 21
1925
  0
LINE
  8
0
 10
1137.25
 20
1925
 11
1131.25
 21
1925
  0
LINE
  8
0
 10
1131.25
 20
1925
 11
1131.25
 21
2100
  0
LINE
  8
0
 10
1131.25
 20
2100
 11
1043.5
 21
2100
  0
LINE
  8
0
 10
1043.5
 20
2100
 11
1043.5
 21
1925
  0
LINE
  8
0
 10
1043.5
 20
1925
 11
1037.5
 21
1925
  0
LINE
  8
0
 10
1037.5
 20
1925
 11
1037.5
 21
2100
  0
LINE
  8
0
 10
1037.5
 20
2100
 11
949.751
 21
2100
  0
LINE
  8
0
 10
949.751
 20
2100
 11
949.751
 21
1925
  0
LINE
  8
0
 10
949.751
 20
1925
 11
943.751
 21
1925
  0
LINE
  8
0
 10
943.751
 20
1925
 11
943.751
 21
2100
  0
LINE
  8
0
 10
943.751
 20
2100
 11
850.001
 21
2100
  0
LINE
  8
0
 10
850.001
 20
2100
 11
850.001
 21
1750
  0
LINE
  8
0
 10
850.001
 20
1750
 11
1231
 21
1750
  0
LINE
  8
0
 10
1231
 20
1750
 11
1231
 21
2100
  0
LINE
  8
0
 10
1231
 20
1750
 11
1137.25
 21
1750
  0
LINE
  8
0
 10
1137.25
 20
1750
 11
1137.25
 21
1575
  0
LINE
  8
0
 10
1137.25
 20
1575
 11
1131.25
 21
1575
  0
LINE
  8
0
 10
1131.25
 20
1575
 11
1131.25
 21
1750
  0
LINE
  8
0
 10
1131.25
 20
1750
 11
1043.5
 21
1750
  0
LINE
  8
0
 10
1043.5
 20
1750
 11
1043.5
 21
1575
  0
LINE
  8
0
 10
1043.5
 20
1575
 11
1037.5
 21
1575
  0
LINE
  8
0
 10
1037.5
 20
1575
 11
1037.5
 21
1750
  0
LINE
  8
0
 10
1037.5
 20
1750
 11
949.751
 21
1750
  0
LINE
  8
0
 10
949.751
 20
1750
 11
949.751
 21
1575
  0
LINE
  8
0
 10
949.751
 20
1575
 11
943.751
 21
1575
  0
LINE
  8
0
 10
943.751
 20
1575
 11
943.751
 21
1750
  0
LINE
  8
0
 10
943.751
 20
1750
 11
850.001
 21
1750
  0
LINE
  8
0
 10
850.001
 20
1750
 11
850.001
 21
1400
  0
LINE
  8
0
 10
850.001
 20
1400
 11
1231
 21
1400
  0
LINE
  8
0
 10
1231
 20
1400
 11
1231
 21
1750
  0
LINE
  8
0
 10
1231
 20
1400
 11
1137.25
 21
1400
  0
LINE
  8
0
 10
1137.25
 20
1400
 11
1137.25
 21
1225
  0
LINE
  8
0
 10
1137.25
 20
1225
 11
1131.25
 21
1225
  0
LINE
  8
0
 10
1131.25
 20
1225
 11
1131.25
 21
1400
  0
LINE
  8
0
 10
1131.25
 20
1400
 11
1043.5
 21
1400
  0
LINE
  8
0
 10
1043.5
 20
1400
 11
1043.5
 21
1225
  0
LINE
  8
0
 10
1043.5
 20
1225
 11
1037.5
 21
1225
  0
LINE
  8
0
 10
1037.5
 20
1225
 11
1037.5
 21
1400
  0
LINE
  8
0
 10
1037.5
 20
1400
 11
949.751
 21
1400
  0
LINE
  8
0
 10
949.751
 20
1400
 11
949.751
 21
1225
  0
LINE
  8
0
 10
949.751
 20
1225
 11
943.751
 21
1225
  0
LINE
  8
0
 10
943.751
 20
1225
 11
943.751
 21
1400
  0
LINE
  8
0
 10
943.751
 20
1400
 11
850.001
 21
1400
  0
LINE
  8
0
 10
850.001
 20
1400
 11
850.001
 21
1050
  0
LINE
  8
0
 10
850.001
 20
1050
 11
1231
 21
1050
  0
LINE
  8
0
 10
1231
 20
1050
 11
1231
 21
1400
  0
LINE
  8
0
 10
140.667
 20
1225
 11
146.667
 21
1225
  0
LINE
  8
0
 10
146.667
 20
1225
 11
146.667
 21
1050
  0
LINE
  8
0
 10
146.667
 20
1050
 11
281.333
 21
1050
  0
LINE
  8
0
 10
281.333
 20
1050
 11
281.333
 21
1225
  0
LINE
  8
0
 10
281.333
 20
1225
 11
287.333
 21
1225
  0
LINE
  8
0
 10
287.333
 20
1225
 11
287.333
 21
1050
  0
LINE
  8
0
 10
287.333
 20
1050
 11
422
 21
1050
  0
LINE
  8
0
 10
422
 20
1050
 11
422
 21
1225
  0
LINE
  8
0
 10
422
 20
1225
 11
428
 21
1225
  0
LINE
  8
0
 10
428
 20
1225
 11
428
 21
1050
  0
LINE
  8
0
 10
428
 20
1050
 11
562.667
 21
1050
  0
LINE
  8
0
 10
562.667
 20
1050
 11
562.667
 21
1225
  0
LINE
  8
0
 10
562.667
 20
1225
 11
568.667
 21
1225
  0
LINE
  8
0
 10
568.667
 20
1225
 11
568.667
 21
1050
  0
LINE
  8
0
 10
568.667
 20
1050
 11
703.333
 21
1050
  0
LINE
  8
0
 10
703.333
 20
1050
 11
703.333
 21
1225
  0
LINE
  8
0
 10
703.333
 20
1225
 11
709.333
 21
1225
  0
LINE
  8
0
 10
709.333
 20
1225
 11
709.333
 21
1050
  0
LINE
  8
0
 10
709.333
 20
1050
 11
850
 21
1050
  0
LINE
  8
0
 10
850
 20
1050
 11
850
 21
1400
  0
LINE
  8
0
 10
850
 20
1400
 11
0
 21
1400
  0
LINE
  8
0
 10
0
 20
1400
 11
0
 21
1050
  0
LINE
  8
0
 10
0
 20
1050
 11
140.667
 21
1050
  0
LINE
  8
0
 10
140.667
 20
1050
 11
140.667
 21
1225
  0
LINE
  8
0
 10
1231
 20
1050
 11
1137.25
 21
1050
  0
LINE
  8
0
 10
1137.25
 20
1050
 11
1137.25
 21
875.002
  0
LINE
  8
0
 10
1137.25
 20
875.002
 11
1131.25
 21
875.002
  0
LINE
  8
0
 10
1131.25
 20
875.002
 11
1131.25
 21
1050
  0
LINE
  8
0
 10
1131.25
 20
1050
 11
1043.5
 21
1050
  0
LINE
  8
0
 10
1043.5
 20
1050
 11
1043.5
 21
875.002
  0
LINE
  8
0
 10
1043.5
 20
875.002
 11
1037.5
 21
875.002
  0
LINE
  8
0
 10
1037.5
 20
875.002
 11
1037.5
 21
1050
  0
LINE
  8
0
 10
1037.5
 20
1050
 11
949.751
 21
1050
  0
LINE
  8
0
 10
949.751
 20
1050
 11
949.751
 21
875.002
  0
LINE
  8
0
 10
949.751
 20
875.002
 11
943.751
 21
875.002
  0
LINE
  8
0
 10
943.751
 20
875.002
 11
943.751
 21
1050
  0
LINE
  8
0
 10
943.751
 20
1050
 11
850.001
 21
1050
  0
LINE
  8
0
 10
850.001
 20
1050
 11
850.001
 21
700.002
  0
LINE
  8
0
 10
850.001
 20
700.002
 11
1231
 21
700.002
  0
LINE
  8
0
 10
1231
 20
700.002
 11
1231
 21
1050
  0
LINE
  8
0
 10
140.667
 20
875.002
 11
146.667
 21
875.002
  0
LINE
  8
0
 10
146.667
 20
875.002
 11
146.667
 21
700.002
  0
LINE
  8
0
 10
146.667
 20
700.002
 11
281.333
 21
700.002
  0
LINE
  8
0
 10
281.333
 20
700.002
 11
281.333
 21
875.002
  0
LINE
  8
0
 10
281.333
 20
875.002
 11
287.333
 21
875.002
  0
LINE
  8
0
 10
287.333
 20
875.002
 11
287.333
 21
700.002
  0
LINE
  8
0
 10
287.333
 20
700.002
 11
422
 21
700.002
  0
LINE
  8
0
 10
422
 20
700.002
 11
422
 21
875.002
  0
LINE
  8
0
 10
422
 20
875.002
 11
428
 21
875.002
  0
LINE
  8
0
 10
428
 20
875.002
 11
428
 21
700.002
  0
LINE
  8
0
 10
428
 20
700.002
 11
562.667
 21
700.002
  0
LINE
  8
0
 10
562.667
 20
700.002
 11
562.667
 21
875.002
  0
LINE
  8
0
 10
562.667
 20
875.002
 11
568.667
 21
875.002
  0
LINE
  8
0
 10
568.667
 20
875.002
 11
568.667
 21
700.002
  0
LINE
  8
0
 10
568.667
 20
700.002
 11
703.333
 21
700.002
  0
LINE
  8
0
 10
703.333
 20
700.002
 11
703.333
 21
875.002
  0
LINE
  8
0
 10
703.333
 20
875.002
 11
709.333
 21
875.002
  0
LINE
  8
0
 10
709.333
 20
875.002
 11
709.333
 21
700.002
  0
LINE
  8
0
 10
709.333
 20
700.002
 11
850
 21
700.002
  0
LINE
  8
0
 10
850
 20
700.002
 11
850
 21
1050
  0
LINE
  8
0
 10
850
 20
1050
 11
0
 21
1050
  0
LINE
  8
0
 10
0
 20
1050
 11
0
 21
700.002
  0
LINE
  8
0
 10
0
 20
700.002
 11
140.667
 21
700.002
  0
LINE
  8
0
 10
140.667
 20
700.002
 11
140.667
 21
875.002
  0
LINE
  8
0
 10
140.667
 20
525.001
 11
146.667
 21
525.001
  0
LINE
  8
0
 10
146.667
 20
525.001
 11
146.667
 21
350.001
  0
LINE
  8
0
 10
146.667
 20
350.001
 11
281.333
 21
350.001
  0
LINE
  8
0
 10
281.333
 20
350.001
 11
281.333
 21
525.001
  0
LINE
  8
0
 10
281.333
 20
525.001
 11
287.333
 21
525.001
  0
LINE
  8
0
 10
287.333
 20
525.001
 11
287.333
 21
350.001
  0
LINE
  8
0
 10
287.333
 20
350.001
 11
422
 21
350.001
  0
LINE
  8
0
 10
422
 20
350.001
 11
422
 21
525.001
  0
LINE
  8
0
 10
422
 20
525.001
 11
428
 21
525.001
  0
LINE
  8
0
 10
428
 20
525.001
 11
428
 21
350.001
  0
LINE
  8
0
 10
428
 20
350.001
 11
562.667
 21
350.001
  0
LINE
  8
0
 10
562.667
 20
350.001
 11
562.667
 21
525.001
  0
LINE
  8
0
 10
562.667
 20
525.001
 11
568.667
 21
525.001
  0
LINE
  8
0
 10
568.667
 20
525.001
 11
568.667
 21
350.001
  0
LINE
  8
0
 10
568.667
 20
350.001
 11
703.333
 21
350.001
  0
LINE
  8
0
 10
703.333
 20
350.001
 11
703.333
 21
525.001
  0
LINE
  8
0
 10
703.333
 20
525.001
 11
709.333
 21
525.001
  0
LINE
  8
0
 10
709.333
 20
525.001
 11
709.333
 21
350.001
  0
LINE
  8
0
 10
709.333
 20
350.001
 11
850
 21
350.001
  0
LINE
  8
0
 10
850
 20
350.001
 11
850
 21
700.001
  0
LINE
  8
0
 10
850
 20
700.001
 11
0
 21
700.001
  0
LINE
  8
0
 10
0
 20
700.001
 11
0
 21
350.001
  0
LINE
  8
0
 10
0
 20
350.001
 11
140.667
 21
350.001
  0
LINE
  8
0
 10
140.667
 20
350.001
 11
140.667
 21
525.001
  0
LINE
  8
0
 10
1231
 20
700.001
 11
1137.25
 21
700.001
  0
LINE
  8
0
 10
1137.25
 20
700.001
 11
1137.25
 21
525.001
  0
LINE
  8
0
 10
1137.25
 20
525.001
 11
1131.25
 21
525.001
  0
LINE
  8
0
 10
1131.25
 20
525.001
 11
1131.25
 21
700.001
  0
LINE
  8
0
 10
1131.25
 20
700.001
 11
1043.5
 21
700.001
  0
LINE
  8
0
 10
1043.5
 20
700.001
 11
1043.5
 21
525.001
  0
LINE
  8
0
 10
1043.5
 20
525.001
 11
1037.5
 21
525.001
  0
LINE
  8
0
 10
1037.5
 20
525.001
 11
1037.5
 21
700.001
  0
LINE
  8
0
 10
1037.5
 20
700.001
 11
949.751
 21
700.001
  0
LINE
  8
0
 10
949.751
 20
700.001
 11
949.751
 21
525.001
  0
LINE
  8
0
 10
949.751
 20
525.001
 11
943.751
 21
525.001
  0
LINE
  8
0
 10
943.751
 20
525.001
 11
943.751
 21
700.001
  0
LINE
  8
0
 10
943.751
 20
700.001
 11
850.001
 21
700.001
  0
LINE
  8
0
 10
850.001
 20
700.001
 11
850.001
 21
350.001
  0
LINE
  8
0
 10
850.001
 20
350.001
 11
1231
 21
350.001
  0
LINE
  8
0
 10
1231
 20
350.001
 11
1231
 21
700.001
  0
ENDSEC
  0
SECTION
  2
OBJECTS
  0
DICTIONARY
  0
ENDSEC
  0
EOF
