solid OpenSCAD_Model
  facet normal 0 0 -1
    outer loop
      vertex -15.4685 0.5 0
      vertex -15.3778 1.94266 0
      vertex -12.7185 0.5 0
    endloop
  endfacet
  facet normal 0 0 -1
    outer loop
      vertex -12.7185 0.5 0
      vertex -15.3778 1.94266 0
      vertex -15.013 3.85469 0
    endloop
  endfacet
  facet normal 0 0 -1
    outer loop
      vertex -12.7185 0.5 0
      vertex -15.013 3.85469 0
      vertex -14.4115 5.70593 0
    endloop
  endfacet
  facet normal 0 0 -1
    outer loop
      vertex -12.7185 0.5 0
      vertex -14.4115 5.70593 0
      vertex -13.5828 7.46718 0
    endloop
  endfacet
  facet normal 0 0 -1
    outer loop
      vertex -12.7185 0.5 0
      vertex -13.5828 7.46718 0
      vertex -12.5398 9.11067 0
    endloop
  endfacet
  facet normal 0 0 -1
    outer loop
      vertex -12.3494 3.1708 0
      vertex -12.5398 9.11067 0
      vertex -11.299 10.6105 0
    endloop
  endfacet
  facet normal 0 0 -1
    outer loop
      vertex -11.8546 4.69359 0
      vertex -11.299 10.6105 0
      vertex -9.88007 11.943 0
    endloop
  endfacet
  facet normal 0 0 -1
    outer loop
      vertex -10.315 7.49426 0
      vertex -9.88007 11.943 0
      vertex -8.30532 13.0871 0
    endloop
  endfacet
  facet normal 0 0 -1
    outer loop
      vertex -9.29435 8.72798 0
      vertex -8.30532 13.0871 0
      vertex -6.59958 14.0248 0
    endloop
  endfacet
  facet normal 0 0 -1
    outer loop
      vertex -8.12716 9.82404 0
      vertex -6.59958 14.0248 0
      vertex -4.78976 14.7414 0
    endloop
  endfacet
  facet normal 0 0 -1
    outer loop
      vertex -5.42869 11.5365 0
      vertex -4.78976 14.7414 0
      vertex -2.90441 15.2255 0
    endloop
  endfacet
  facet normal 0 0 -1
    outer loop
      vertex -3.93997 12.126 0
      vertex -2.90441 15.2255 0
      vertex -0.973253 15.4694 0
    endloop
  endfacet
  facet normal 0 0 -1
    outer loop
      vertex -2.38911 12.5242 0
      vertex -0.973253 15.4694 0
      vertex 0.973253 15.4694 0
    endloop
  endfacet
  facet normal 0 0 -1
    outer loop
      vertex -0.800579 12.7248 0
      vertex 0.973253 15.4694 0
      vertex 2.90441 15.2255 0
    endloop
  endfacet
  facet normal 0 0 -1
    outer loop
      vertex 0.800579 12.7248 0
      vertex 2.90441 15.2255 0
      vertex 4.78976 14.7414 0
    endloop
  endfacet
  facet normal 0 0 -1
    outer loop
      vertex 2.38911 12.5242 0
      vertex 4.78976 14.7414 0
      vertex 6.59958 14.0248 0
    endloop
  endfacet
  facet normal 0 0 -1
    outer loop
      vertex 5.42869 11.5365 0
      vertex 6.59958 14.0248 0
      vertex 8.30532 13.0871 0
    endloop
  endfacet
  facet normal 0 0 -1
    outer loop
      vertex 6.83179 10.7652 0
      vertex 8.30532 13.0871 0
      vertex 9.88007 11.943 0
    endloop
  endfacet
  facet normal 0 0 -1
    outer loop
      vertex 8.12716 9.82404 0
      vertex 9.88007 11.943 0
      vertex 11.299 10.6105 0
    endloop
  endfacet
  facet normal 0 0 -1
    outer loop
      vertex 9.29435 8.72798 0
      vertex 11.299 10.6105 0
      vertex 12.5398 9.11067 0
    endloop
  endfacet
  facet normal 0 0 -1
    outer loop
      vertex 10.315 7.49426 0
      vertex 12.5398 9.11067 0
      vertex 13.5828 7.46718 0
    endloop
  endfacet
  facet normal 0 0 -1
    outer loop
      vertex 11.1729 6.14236 0
      vertex 13.5828 7.46718 0
      vertex 14.4115 5.70593 0
    endloop
  endfacet
  facet normal 0 0 -1
    outer loop
      vertex 11.8546 4.69359 0
      vertex 14.4115 5.70593 0
      vertex 15.013 3.85469 0
    endloop
  endfacet
  facet normal 0 0 -1
    outer loop
      vertex 12.3494 3.1708 0
      vertex 15.013 3.85469 0
      vertex 15.3778 1.94266 0
    endloop
  endfacet
  facet normal 0 0 -1
    outer loop
      vertex 12.7185 0.5 0
      vertex 15.3778 1.94266 0
      vertex 15.4685 0.5 0
    endloop
  endfacet
  facet normal 0 0 -1
    outer loop
      vertex 12.6495 1.598 0
      vertex 15.3778 1.94266 0
      vertex 12.7185 0.5 0
    endloop
  endfacet
  facet normal 0 0 -1
    outer loop
      vertex 11.8546 4.69359 0
      vertex 15.013 3.85469 0
      vertex 12.3494 3.1708 0
    endloop
  endfacet
  facet normal 0 0 -1
    outer loop
      vertex 11.1729 6.14236 0
      vertex 14.4115 5.70593 0
      vertex 11.8546 4.69359 0
    endloop
  endfacet
  facet normal 0 0 -1
    outer loop
      vertex 10.315 7.49426 0
      vertex 13.5828 7.46718 0
      vertex 11.1729 6.14236 0
    endloop
  endfacet
  facet normal 0 0 -1
    outer loop
      vertex 9.29435 8.72798 0
      vertex 12.5398 9.11067 0
      vertex 10.315 7.49426 0
    endloop
  endfacet
  facet normal 0 0 -1
    outer loop
      vertex 8.12716 9.82404 0
      vertex 11.299 10.6105 0
      vertex 9.29435 8.72798 0
    endloop
  endfacet
  facet normal 0 0 -1
    outer loop
      vertex 6.83179 10.7652 0
      vertex 9.88007 11.943 0
      vertex 8.12716 9.82404 0
    endloop
  endfacet
  facet normal 0 0 -1
    outer loop
      vertex 5.42869 11.5365 0
      vertex 8.30532 13.0871 0
      vertex 6.83179 10.7652 0
    endloop
  endfacet
  facet normal 0 0 -1
    outer loop
      vertex 3.93997 12.126 0
      vertex 6.59958 14.0248 0
      vertex 5.42869 11.5365 0
    endloop
  endfacet
  facet normal 0 0 -1
    outer loop
      vertex 2.38911 12.5242 0
      vertex 6.59958 14.0248 0
      vertex 3.93997 12.126 0
    endloop
  endfacet
  facet normal 0 0 -1
    outer loop
      vertex 0.800579 12.7248 0
      vertex 4.78976 14.7414 0
      vertex 2.38911 12.5242 0
    endloop
  endfacet
  facet normal 0 0 -1
    outer loop
      vertex -0.800579 12.7248 0
      vertex 2.90441 15.2255 0
      vertex 0.800579 12.7248 0
    endloop
  endfacet
  facet normal 0 0 -1
    outer loop
      vertex -2.38911 12.5242 0
      vertex 0.973253 15.4694 0
      vertex -0.800579 12.7248 0
    endloop
  endfacet
  facet normal 0 0 -1
    outer loop
      vertex -3.93997 12.126 0
      vertex -0.973253 15.4694 0
      vertex -2.38911 12.5242 0
    endloop
  endfacet
  facet normal 0 0 -1
    outer loop
      vertex -5.42869 11.5365 0
      vertex -2.90441 15.2255 0
      vertex -3.93997 12.126 0
    endloop
  endfacet
  facet normal 0 0 -1
    outer loop
      vertex -6.83179 10.7652 0
      vertex -4.78976 14.7414 0
      vertex -5.42869 11.5365 0
    endloop
  endfacet
  facet normal 0 0 -1
    outer loop
      vertex -8.12716 9.82404 0
      vertex -4.78976 14.7414 0
      vertex -6.83179 10.7652 0
    endloop
  endfacet
  facet normal 0 0 -1
    outer loop
      vertex -9.29435 8.72798 0
      vertex -6.59958 14.0248 0
      vertex -8.12716 9.82404 0
    endloop
  endfacet
  facet normal 0 0 -1
    outer loop
      vertex -10.315 7.49426 0
      vertex -8.30532 13.0871 0
      vertex -9.29435 8.72798 0
    endloop
  endfacet
  facet normal 0 0 -1
    outer loop
      vertex -11.1729 6.14236 0
      vertex -9.88007 11.943 0
      vertex -10.315 7.49426 0
    endloop
  endfacet
  facet normal 0 0 -1
    outer loop
      vertex -11.8546 4.69359 0
      vertex -9.88007 11.943 0
      vertex -11.1729 6.14236 0
    endloop
  endfacet
  facet normal 0 0 -1
    outer loop
      vertex -12.3494 3.1708 0
      vertex -11.299 10.6105 0
      vertex -11.8546 4.69359 0
    endloop
  endfacet
  facet normal 0 0 -1
    outer loop
      vertex -12.6495 1.598 0
      vertex -12.5398 9.11067 0
      vertex -12.3494 3.1708 0
    endloop
  endfacet
  facet normal 0 0 -1
    outer loop
      vertex -12.7185 0.5 0
      vertex -12.5398 9.11067 0
      vertex -12.6495 1.598 0
    endloop
  endfacet
  facet normal 0 0 -1
    outer loop
      vertex 12.3494 3.1708 0
      vertex 15.3778 1.94266 0
      vertex 12.6495 1.598 0
    endloop
  endfacet
  facet normal -0.998027 0.0627905 0
    outer loop
      vertex -15.4685 0.5 0
      vertex -15.4685 0.5 30
      vertex -15.3778 1.94266 0
    endloop
  endfacet
  facet normal -0.998027 0.0627905 0
    outer loop
      vertex -15.3778 1.94266 0
      vertex -15.4685 0.5 30
      vertex -15.3778 1.94266 30
    endloop
  endfacet
  facet normal 0 -1 0
    outer loop
      vertex -12.7185 0.5 0
      vertex -12.7185 0.5 30
      vertex -15.4685 0.5 30
    endloop
  endfacet
  facet normal 0 -1 0
    outer loop
      vertex -15.4685 0.5 0
      vertex -12.7185 0.5 0
      vertex -15.4685 0.5 30
    endloop
  endfacet
  facet normal 0.998027 -0.0627908 0
    outer loop
      vertex -12.6495 1.598 0
      vertex -12.6495 1.598 30
      vertex -12.7185 0.5 30
    endloop
  endfacet
  facet normal 0.998027 -0.0627908 0
    outer loop
      vertex -12.7185 0.5 0
      vertex -12.6495 1.598 0
      vertex -12.7185 0.5 30
    endloop
  endfacet
  facet normal 0.982287 -0.187381 0
    outer loop
      vertex -12.3494 3.1708 0
      vertex -12.3494 3.1708 30
      vertex -12.6495 1.598 30
    endloop
  endfacet
  facet normal 0.982287 -0.187381 0
    outer loop
      vertex -12.6495 1.598 0
      vertex -12.3494 3.1708 0
      vertex -12.6495 1.598 30
    endloop
  endfacet
  facet normal 0.951057 -0.309017 0
    outer loop
      vertex -11.8546 4.69359 0
      vertex -11.8546 4.69359 30
      vertex -12.3494 3.1708 30
    endloop
  endfacet
  facet normal 0.951057 -0.309017 0
    outer loop
      vertex -12.3494 3.1708 0
      vertex -11.8546 4.69359 0
      vertex -12.3494 3.1708 30
    endloop
  endfacet
  facet normal 0.904827 -0.425779 0
    outer loop
      vertex -11.1729 6.14236 0
      vertex -11.1729 6.14236 30
      vertex -11.8546 4.69359 30
    endloop
  endfacet
  facet normal 0.904827 -0.425779 0
    outer loop
      vertex -11.8546 4.69359 0
      vertex -11.1729 6.14236 0
      vertex -11.8546 4.69359 30
    endloop
  endfacet
  facet normal 0.844328 -0.535826 0
    outer loop
      vertex -10.315 7.49426 0
      vertex -10.315 7.49426 30
      vertex -11.1729 6.14236 30
    endloop
  endfacet
  facet normal 0.844328 -0.535826 0
    outer loop
      vertex -11.1729 6.14236 0
      vertex -10.315 7.49426 0
      vertex -11.1729 6.14236 30
    endloop
  endfacet
  facet normal 0.770513 -0.637424 0
    outer loop
      vertex -9.29435 8.72798 0
      vertex -9.29435 8.72798 30
      vertex -10.315 7.49426 30
    endloop
  endfacet
  facet normal 0.770513 -0.637424 0
    outer loop
      vertex -10.315 7.49426 0
      vertex -9.29435 8.72798 0
      vertex -10.315 7.49426 30
    endloop
  endfacet
  facet normal 0.684547 -0.728969 0
    outer loop
      vertex -8.12716 9.82404 0
      vertex -8.12716 9.82404 30
      vertex -9.29435 8.72798 30
    endloop
  endfacet
  facet normal 0.684547 -0.728969 0
    outer loop
      vertex -9.29435 8.72798 0
      vertex -8.12716 9.82404 0
      vertex -9.29435 8.72798 30
    endloop
  endfacet
  facet normal 0.587785 -0.809017 0
    outer loop
      vertex -6.83179 10.7652 0
      vertex -6.83179 10.7652 30
      vertex -8.12716 9.82404 30
    endloop
  endfacet
  facet normal 0.587785 -0.809017 0
    outer loop
      vertex -8.12716 9.82404 0
      vertex -6.83179 10.7652 0
      vertex -8.12716 9.82404 30
    endloop
  endfacet
  facet normal 0.481754 -0.876307 0
    outer loop
      vertex -5.42869 11.5365 0
      vertex -5.42869 11.5365 30
      vertex -6.83179 10.7652 30
    endloop
  endfacet
  facet normal 0.481754 -0.876307 0
    outer loop
      vertex -6.83179 10.7652 0
      vertex -5.42869 11.5365 0
      vertex -6.83179 10.7652 30
    endloop
  endfacet
  facet normal 0.368125 -0.929776 0
    outer loop
      vertex -3.93997 12.126 0
      vertex -3.93997 12.126 30
      vertex -5.42869 11.5365 30
    endloop
  endfacet
  facet normal 0.368125 -0.929776 0
    outer loop
      vertex -5.42869 11.5365 0
      vertex -3.93997 12.126 0
      vertex -5.42869 11.5365 30
    endloop
  endfacet
  facet normal 0.248689 -0.968583 0
    outer loop
      vertex -2.38911 12.5242 0
      vertex -2.38911 12.5242 30
      vertex -3.93997 12.126 30
    endloop
  endfacet
  facet normal 0.248689 -0.968583 0
    outer loop
      vertex -3.93997 12.126 0
      vertex -2.38911 12.5242 0
      vertex -3.93997 12.126 30
    endloop
  endfacet
  facet normal 0.125334 -0.992115 0
    outer loop
      vertex -0.800579 12.7248 0
      vertex -0.800579 12.7248 30
      vertex -2.38911 12.5242 30
    endloop
  endfacet
  facet normal 0.125334 -0.992115 0
    outer loop
      vertex -2.38911 12.5242 0
      vertex -0.800579 12.7248 0
      vertex -2.38911 12.5242 30
    endloop
  endfacet
  facet normal 0 -1 0
    outer loop
      vertex 0.800579 12.7248 0
      vertex 0.800579 12.7248 30
      vertex -0.800579 12.7248 30
    endloop
  endfacet
  facet normal 0 -1 0
    outer loop
      vertex -0.800579 12.7248 0
      vertex 0.800579 12.7248 0
      vertex -0.800579 12.7248 30
    endloop
  endfacet
  facet normal -0.125334 -0.992115 0
    outer loop
      vertex 2.38911 12.5242 0
      vertex 2.38911 12.5242 30
      vertex 0.800579 12.7248 30
    endloop
  endfacet
  facet normal -0.125334 -0.992115 0
    outer loop
      vertex 0.800579 12.7248 0
      vertex 2.38911 12.5242 0
      vertex 0.800579 12.7248 30
    endloop
  endfacet
  facet normal -0.248689 -0.968583 0
    outer loop
      vertex 3.93997 12.126 0
      vertex 3.93997 12.126 30
      vertex 2.38911 12.5242 30
    endloop
  endfacet
  facet normal -0.248689 -0.968583 0
    outer loop
      vertex 2.38911 12.5242 0
      vertex 3.93997 12.126 0
      vertex 2.38911 12.5242 30
    endloop
  endfacet
  facet normal -0.368125 -0.929776 0
    outer loop
      vertex 5.42869 11.5365 0
      vertex 5.42869 11.5365 30
      vertex 3.93997 12.126 30
    endloop
  endfacet
  facet normal -0.368125 -0.929776 0
    outer loop
      vertex 3.93997 12.126 0
      vertex 5.42869 11.5365 0
      vertex 3.93997 12.126 30
    endloop
  endfacet
  facet normal -0.481754 -0.876307 0
    outer loop
      vertex 6.83179 10.7652 0
      vertex 6.83179 10.7652 30
      vertex 5.42869 11.5365 30
    endloop
  endfacet
  facet normal -0.481754 -0.876307 0
    outer loop
      vertex 5.42869 11.5365 0
      vertex 6.83179 10.7652 0
      vertex 5.42869 11.5365 30
    endloop
  endfacet
  facet normal -0.587785 -0.809017 0
    outer loop
      vertex 8.12716 9.82404 0
      vertex 8.12716 9.82404 30
      vertex 6.83179 10.7652 30
    endloop
  endfacet
  facet normal -0.587785 -0.809017 0
    outer loop
      vertex 6.83179 10.7652 0
      vertex 8.12716 9.82404 0
      vertex 6.83179 10.7652 30
    endloop
  endfacet
  facet normal -0.684547 -0.728969 0
    outer loop
      vertex 9.29435 8.72798 0
      vertex 9.29435 8.72798 30
      vertex 8.12716 9.82404 30
    endloop
  endfacet
  facet normal -0.684547 -0.728969 0
    outer loop
      vertex 8.12716 9.82404 0
      vertex 9.29435 8.72798 0
      vertex 8.12716 9.82404 30
    endloop
  endfacet
  facet normal -0.770513 -0.637424 0
    outer loop
      vertex 10.315 7.49426 30
      vertex 9.29435 8.72798 30
      vertex 10.315 7.49426 0
    endloop
  endfacet
  facet normal -0.770513 -0.637424 0
    outer loop
      vertex 10.315 7.49426 0
      vertex 9.29435 8.72798 30
      vertex 9.29435 8.72798 0
    endloop
  endfacet
  facet normal -0.844328 -0.535826 0
    outer loop
      vertex 11.1729 6.14236 30
      vertex 10.315 7.49426 30
      vertex 11.1729 6.14236 0
    endloop
  endfacet
  facet normal -0.844328 -0.535826 0
    outer loop
      vertex 11.1729 6.14236 0
      vertex 10.315 7.49426 30
      vertex 10.315 7.49426 0
    endloop
  endfacet
  facet normal -0.904827 -0.425779 0
    outer loop
      vertex 11.8546 4.69359 30
      vertex 11.1729 6.14236 30
      vertex 11.8546 4.69359 0
    endloop
  endfacet
  facet normal -0.904827 -0.425779 0
    outer loop
      vertex 11.8546 4.69359 0
      vertex 11.1729 6.14236 30
      vertex 11.1729 6.14236 0
    endloop
  endfacet
  facet normal -0.951057 -0.309017 0
    outer loop
      vertex 12.3494 3.1708 30
      vertex 11.8546 4.69359 30
      vertex 12.3494 3.1708 0
    endloop
  endfacet
  facet normal -0.951057 -0.309017 0
    outer loop
      vertex 12.3494 3.1708 0
      vertex 11.8546 4.69359 30
      vertex 11.8546 4.69359 0
    endloop
  endfacet
  facet normal -0.982287 -0.187381 0
    outer loop
      vertex 12.6495 1.598 30
      vertex 12.3494 3.1708 30
      vertex 12.6495 1.598 0
    endloop
  endfacet
  facet normal -0.982287 -0.187381 0
    outer loop
      vertex 12.6495 1.598 0
      vertex 12.3494 3.1708 30
      vertex 12.3494 3.1708 0
    endloop
  endfacet
  facet normal -0.998027 -0.0627908 0
    outer loop
      vertex 12.7185 0.5 30
      vertex 12.6495 1.598 30
      vertex 12.7185 0.5 0
    endloop
  endfacet
  facet normal -0.998027 -0.0627908 0
    outer loop
      vertex 12.7185 0.5 0
      vertex 12.6495 1.598 30
      vertex 12.6495 1.598 0
    endloop
  endfacet
  facet normal 0 -1 0
    outer loop
      vertex 15.4685 0.5 0
      vertex 15.4685 0.5 30
      vertex 12.7185 0.5 30
    endloop
  endfacet
  facet normal 0 -1 0
    outer loop
      vertex 12.7185 0.5 0
      vertex 15.4685 0.5 0
      vertex 12.7185 0.5 30
    endloop
  endfacet
  facet normal 0.998027 0.0627905 0
    outer loop
      vertex 15.4685 0.5 0
      vertex 15.3778 1.94266 0
      vertex 15.3778 1.94266 30
    endloop
  endfacet
  facet normal 0.998027 0.0627905 0
    outer loop
      vertex 15.4685 0.5 30
      vertex 15.4685 0.5 0
      vertex 15.3778 1.94266 30
    endloop
  endfacet
  facet normal 0.982287 0.187381 0
    outer loop
      vertex 15.3778 1.94266 0
      vertex 15.013 3.85469 0
      vertex 15.013 3.85469 30
    endloop
  endfacet
  facet normal 0.982287 0.187381 0
    outer loop
      vertex 15.3778 1.94266 30
      vertex 15.3778 1.94266 0
      vertex 15.013 3.85469 30
    endloop
  endfacet
  facet normal 0.951057 0.309017 0
    outer loop
      vertex 15.013 3.85469 0
      vertex 14.4115 5.70593 0
      vertex 14.4115 5.70593 30
    endloop
  endfacet
  facet normal 0.951057 0.309017 0
    outer loop
      vertex 15.013 3.85469 30
      vertex 15.013 3.85469 0
      vertex 14.4115 5.70593 30
    endloop
  endfacet
  facet normal 0.904827 0.425779 0
    outer loop
      vertex 14.4115 5.70593 0
      vertex 13.5828 7.46718 0
      vertex 13.5828 7.46718 30
    endloop
  endfacet
  facet normal 0.904827 0.425779 0
    outer loop
      vertex 14.4115 5.70593 30
      vertex 14.4115 5.70593 0
      vertex 13.5828 7.46718 30
    endloop
  endfacet
  facet normal 0.844328 0.535827 0
    outer loop
      vertex 13.5828 7.46718 0
      vertex 12.5398 9.11067 0
      vertex 12.5398 9.11067 30
    endloop
  endfacet
  facet normal 0.844328 0.535827 0
    outer loop
      vertex 13.5828 7.46718 30
      vertex 13.5828 7.46718 0
      vertex 12.5398 9.11067 30
    endloop
  endfacet
  facet normal 0.770513 0.637424 0
    outer loop
      vertex 12.5398 9.11067 0
      vertex 11.299 10.6105 0
      vertex 11.299 10.6105 30
    endloop
  endfacet
  facet normal 0.770513 0.637424 0
    outer loop
      vertex 12.5398 9.11067 30
      vertex 12.5398 9.11067 0
      vertex 11.299 10.6105 30
    endloop
  endfacet
  facet normal 0.684547 0.728969 0
    outer loop
      vertex 9.88007 11.943 0
      vertex 9.88007 11.943 30
      vertex 11.299 10.6105 0
    endloop
  endfacet
  facet normal 0.684547 0.728969 0
    outer loop
      vertex 11.299 10.6105 0
      vertex 9.88007 11.943 30
      vertex 11.299 10.6105 30
    endloop
  endfacet
  facet normal 0.587785 0.809017 0
    outer loop
      vertex 8.30532 13.0871 0
      vertex 8.30532 13.0871 30
      vertex 9.88007 11.943 0
    endloop
  endfacet
  facet normal 0.587785 0.809017 0
    outer loop
      vertex 9.88007 11.943 0
      vertex 8.30532 13.0871 30
      vertex 9.88007 11.943 30
    endloop
  endfacet
  facet normal 0.481754 0.876307 0
    outer loop
      vertex 6.59958 14.0248 0
      vertex 6.59958 14.0248 30
      vertex 8.30532 13.0871 0
    endloop
  endfacet
  facet normal 0.481754 0.876307 0
    outer loop
      vertex 8.30532 13.0871 0
      vertex 6.59958 14.0248 30
      vertex 8.30532 13.0871 30
    endloop
  endfacet
  facet normal 0.368125 0.929776 0
    outer loop
      vertex 4.78976 14.7414 0
      vertex 4.78976 14.7414 30
      vertex 6.59958 14.0248 0
    endloop
  endfacet
  facet normal 0.368125 0.929776 0
    outer loop
      vertex 6.59958 14.0248 0
      vertex 4.78976 14.7414 30
      vertex 6.59958 14.0248 30
    endloop
  endfacet
  facet normal 0.24869 0.968583 0
    outer loop
      vertex 2.90441 15.2255 0
      vertex 2.90441 15.2255 30
      vertex 4.78976 14.7414 0
    endloop
  endfacet
  facet normal 0.24869 0.968583 0
    outer loop
      vertex 4.78976 14.7414 0
      vertex 2.90441 15.2255 30
      vertex 4.78976 14.7414 30
    endloop
  endfacet
  facet normal 0.125333 0.992115 0
    outer loop
      vertex 0.973253 15.4694 0
      vertex 0.973253 15.4694 30
      vertex 2.90441 15.2255 0
    endloop
  endfacet
  facet normal 0.125333 0.992115 0
    outer loop
      vertex 2.90441 15.2255 0
      vertex 0.973253 15.4694 30
      vertex 2.90441 15.2255 30
    endloop
  endfacet
  facet normal 0 1 0
    outer loop
      vertex -0.973253 15.4694 0
      vertex -0.973253 15.4694 30
      vertex 0.973253 15.4694 0
    endloop
  endfacet
  facet normal 0 1 0
    outer loop
      vertex 0.973253 15.4694 0
      vertex -0.973253 15.4694 30
      vertex 0.973253 15.4694 30
    endloop
  endfacet
  facet normal -0.125333 0.992115 0
    outer loop
      vertex -2.90441 15.2255 0
      vertex -2.90441 15.2255 30
      vertex -0.973253 15.4694 0
    endloop
  endfacet
  facet normal -0.125333 0.992115 0
    outer loop
      vertex -0.973253 15.4694 0
      vertex -2.90441 15.2255 30
      vertex -0.973253 15.4694 30
    endloop
  endfacet
  facet normal -0.24869 0.968583 0
    outer loop
      vertex -4.78976 14.7414 0
      vertex -4.78976 14.7414 30
      vertex -2.90441 15.2255 0
    endloop
  endfacet
  facet normal -0.24869 0.968583 0
    outer loop
      vertex -2.90441 15.2255 0
      vertex -4.78976 14.7414 30
      vertex -2.90441 15.2255 30
    endloop
  endfacet
  facet normal -0.368125 0.929776 0
    outer loop
      vertex -6.59958 14.0248 0
      vertex -6.59958 14.0248 30
      vertex -4.78976 14.7414 0
    endloop
  endfacet
  facet normal -0.368125 0.929776 0
    outer loop
      vertex -4.78976 14.7414 0
      vertex -6.59958 14.0248 30
      vertex -4.78976 14.7414 30
    endloop
  endfacet
  facet normal -0.481754 0.876307 0
    outer loop
      vertex -8.30532 13.0871 0
      vertex -8.30532 13.0871 30
      vertex -6.59958 14.0248 0
    endloop
  endfacet
  facet normal -0.481754 0.876307 0
    outer loop
      vertex -6.59958 14.0248 0
      vertex -8.30532 13.0871 30
      vertex -6.59958 14.0248 30
    endloop
  endfacet
  facet normal -0.587785 0.809017 0
    outer loop
      vertex -9.88007 11.943 0
      vertex -9.88007 11.943 30
      vertex -8.30532 13.0871 0
    endloop
  endfacet
  facet normal -0.587785 0.809017 0
    outer loop
      vertex -8.30532 13.0871 0
      vertex -9.88007 11.943 30
      vertex -8.30532 13.0871 30
    endloop
  endfacet
  facet normal -0.684547 0.728969 0
    outer loop
      vertex -11.299 10.6105 0
      vertex -11.299 10.6105 30
      vertex -9.88007 11.943 0
    endloop
  endfacet
  facet normal -0.684547 0.728969 0
    outer loop
      vertex -9.88007 11.943 0
      vertex -11.299 10.6105 30
      vertex -9.88007 11.943 30
    endloop
  endfacet
  facet normal -0.770513 0.637424 0
    outer loop
      vertex -12.5398 9.11067 0
      vertex -12.5398 9.11067 30
      vertex -11.299 10.6105 0
    endloop
  endfacet
  facet normal -0.770513 0.637424 0
    outer loop
      vertex -11.299 10.6105 0
      vertex -12.5398 9.11067 30
      vertex -11.299 10.6105 30
    endloop
  endfacet
  facet normal -0.844328 0.535827 0
    outer loop
      vertex -13.5828 7.46718 0
      vertex -13.5828 7.46718 30
      vertex -12.5398 9.11067 0
    endloop
  endfacet
  facet normal -0.844328 0.535827 0
    outer loop
      vertex -12.5398 9.11067 0
      vertex -13.5828 7.46718 30
      vertex -12.5398 9.11067 30
    endloop
  endfacet
  facet normal -0.904827 0.425779 0
    outer loop
      vertex -14.4115 5.70593 0
      vertex -14.4115 5.70593 30
      vertex -13.5828 7.46718 0
    endloop
  endfacet
  facet normal -0.904827 0.425779 0
    outer loop
      vertex -13.5828 7.46718 0
      vertex -14.4115 5.70593 30
      vertex -13.5828 7.46718 30
    endloop
  endfacet
  facet normal -0.951057 0.309017 0
    outer loop
      vertex -15.013 3.85469 0
      vertex -15.013 3.85469 30
      vertex -14.4115 5.70593 0
    endloop
  endfacet
  facet normal -0.951057 0.309017 0
    outer loop
      vertex -14.4115 5.70593 0
      vertex -15.013 3.85469 30
      vertex -14.4115 5.70593 30
    endloop
  endfacet
  facet normal -0.982287 0.187381 0
    outer loop
      vertex -15.3778 1.94266 0
      vertex -15.3778 1.94266 30
      vertex -15.013 3.85469 0
    endloop
  endfacet
  facet normal -0.982287 0.187381 0
    outer loop
      vertex -15.013 3.85469 0
      vertex -15.3778 1.94266 30
      vertex -15.013 3.85469 30
    endloop
  endfacet
  facet normal 0 0 1
    outer loop
      vertex -15.3778 1.94266 30
      vertex -15.4685 0.5 30
      vertex -12.7185 0.5 30
    endloop
  endfacet
  facet normal 0 0 1
    outer loop
      vertex -12.3494 3.1708 30
      vertex -15.3778 1.94266 30
      vertex -12.6495 1.598 30
    endloop
  endfacet
  facet normal 0 0 1
    outer loop
      vertex -12.6495 1.598 30
      vertex -15.3778 1.94266 30
      vertex -12.7185 0.5 30
    endloop
  endfacet
  facet normal 0 0 1
    outer loop
      vertex -11.8546 4.69359 30
      vertex -15.3778 1.94266 30
      vertex -12.3494 3.1708 30
    endloop
  endfacet
  facet normal 0 0 1
    outer loop
      vertex -11.1729 6.14236 30
      vertex -15.3778 1.94266 30
      vertex -11.8546 4.69359 30
    endloop
  endfacet
  facet normal 0 0 1
    outer loop
      vertex -10.315 7.49426 30
      vertex -15.3778 1.94266 30
      vertex -11.1729 6.14236 30
    endloop
  endfacet
  facet normal 0 0 1
    outer loop
      vertex -9.29435 8.72798 30
      vertex -15.3778 1.94266 30
      vertex -10.315 7.49426 30
    endloop
  endfacet
  facet normal 0 0 1
    outer loop
      vertex -4.78976 14.7414 30
      vertex -15.3778 1.94266 30
      vertex -9.29435 8.72798 30
    endloop
  endfacet
  facet normal 0 0 1
    outer loop
      vertex -2.90441 15.2255 30
      vertex -9.29435 8.72798 30
      vertex -8.12716 9.82404 30
    endloop
  endfacet
  facet normal 0 0 1
    outer loop
      vertex -0.973253 15.4694 30
      vertex -8.12716 9.82404 30
      vertex -6.83179 10.7652 30
    endloop
  endfacet
  facet normal 0 0 1
    outer loop
      vertex 0.973253 15.4694 30
      vertex -6.83179 10.7652 30
      vertex -5.42869 11.5365 30
    endloop
  endfacet
  facet normal 0 0 1
    outer loop
      vertex 2.90441 15.2255 30
      vertex -5.42869 11.5365 30
      vertex -3.93997 12.126 30
    endloop
  endfacet
  facet normal 0 0 1
    outer loop
      vertex 4.78976 14.7414 30
      vertex -3.93997 12.126 30
      vertex -2.38911 12.5242 30
    endloop
  endfacet
  facet normal 0 0 1
    outer loop
      vertex 6.59958 14.0248 30
      vertex -2.38911 12.5242 30
      vertex -0.800579 12.7248 30
    endloop
  endfacet
  facet normal 0 0 1
    outer loop
      vertex 8.30532 13.0871 30
      vertex -0.800579 12.7248 30
      vertex 0.800579 12.7248 30
    endloop
  endfacet
  facet normal 0 0 1
    outer loop
      vertex 9.88007 11.943 30
      vertex 0.800579 12.7248 30
      vertex 2.38911 12.5242 30
    endloop
  endfacet
  facet normal 0 0 1
    outer loop
      vertex 11.299 10.6105 30
      vertex 2.38911 12.5242 30
      vertex 3.93997 12.126 30
    endloop
  endfacet
  facet normal 0 0 1
    outer loop
      vertex 12.5398 9.11067 30
      vertex 3.93997 12.126 30
      vertex 5.42869 11.5365 30
    endloop
  endfacet
  facet normal 0 0 1
    outer loop
      vertex 13.5828 7.46718 30
      vertex 5.42869 11.5365 30
      vertex 6.83179 10.7652 30
    endloop
  endfacet
  facet normal 0 0 1
    outer loop
      vertex 14.4115 5.70593 30
      vertex 6.83179 10.7652 30
      vertex 8.12716 9.82404 30
    endloop
  endfacet
  facet normal 0 0 1
    outer loop
      vertex 15.013 3.85469 30
      vertex 8.12716 9.82404 30
      vertex 9.29435 8.72798 30
    endloop
  endfacet
  facet normal 0 0 1
    outer loop
      vertex 15.3778 1.94266 30
      vertex 9.29435 8.72798 30
      vertex 10.315 7.49426 30
    endloop
  endfacet
  facet normal 0 0 1
    outer loop
      vertex 15.4685 0.5 30
      vertex 10.315 7.49426 30
      vertex 11.1729 6.14236 30
    endloop
  endfacet
  facet normal 0 0 1
    outer loop
      vertex 15.4685 0.5 30
      vertex 11.1729 6.14236 30
      vertex 11.8546 4.69359 30
    endloop
  endfacet
  facet normal 0 0 1
    outer loop
      vertex 15.4685 0.5 30
      vertex 11.8546 4.69359 30
      vertex 12.3494 3.1708 30
    endloop
  endfacet
  facet normal 0 0 1
    outer loop
      vertex 15.4685 0.5 30
      vertex 12.3494 3.1708 30
      vertex 12.6495 1.598 30
    endloop
  endfacet
  facet normal 0 0 1
    outer loop
      vertex 15.4685 0.5 30
      vertex 12.6495 1.598 30
      vertex 12.7185 0.5 30
    endloop
  endfacet
  facet normal 0 0 1
    outer loop
      vertex 15.3778 1.94266 30
      vertex 10.315 7.49426 30
      vertex 15.4685 0.5 30
    endloop
  endfacet
  facet normal 0 0 1
    outer loop
      vertex 15.013 3.85469 30
      vertex 9.29435 8.72798 30
      vertex 15.3778 1.94266 30
    endloop
  endfacet
  facet normal 0 0 1
    outer loop
      vertex 14.4115 5.70593 30
      vertex 8.12716 9.82404 30
      vertex 15.013 3.85469 30
    endloop
  endfacet
  facet normal 0 0 1
    outer loop
      vertex 13.5828 7.46718 30
      vertex 6.83179 10.7652 30
      vertex 14.4115 5.70593 30
    endloop
  endfacet
  facet normal 0 0 1
    outer loop
      vertex 12.5398 9.11067 30
      vertex 5.42869 11.5365 30
      vertex 13.5828 7.46718 30
    endloop
  endfacet
  facet normal 0 0 1
    outer loop
      vertex 11.299 10.6105 30
      vertex 3.93997 12.126 30
      vertex 12.5398 9.11067 30
    endloop
  endfacet
  facet normal 0 0 1
    outer loop
      vertex 9.88007 11.943 30
      vertex 2.38911 12.5242 30
      vertex 11.299 10.6105 30
    endloop
  endfacet
  facet normal 0 0 1
    outer loop
      vertex 8.30532 13.0871 30
      vertex 0.800579 12.7248 30
      vertex 9.88007 11.943 30
    endloop
  endfacet
  facet normal 0 0 1
    outer loop
      vertex 6.59958 14.0248 30
      vertex -0.800579 12.7248 30
      vertex 8.30532 13.0871 30
    endloop
  endfacet
  facet normal 0 0 1
    outer loop
      vertex 4.78976 14.7414 30
      vertex -2.38911 12.5242 30
      vertex 6.59958 14.0248 30
    endloop
  endfacet
  facet normal 0 0 1
    outer loop
      vertex 2.90441 15.2255 30
      vertex -3.93997 12.126 30
      vertex 4.78976 14.7414 30
    endloop
  endfacet
  facet normal 0 0 1
    outer loop
      vertex 0.973253 15.4694 30
      vertex -5.42869 11.5365 30
      vertex 2.90441 15.2255 30
    endloop
  endfacet
  facet normal 0 0 1
    outer loop
      vertex -0.973253 15.4694 30
      vertex -6.83179 10.7652 30
      vertex 0.973253 15.4694 30
    endloop
  endfacet
  facet normal 0 0 1
    outer loop
      vertex -2.90441 15.2255 30
      vertex -8.12716 9.82404 30
      vertex -0.973253 15.4694 30
    endloop
  endfacet
  facet normal 0 0 1
    outer loop
      vertex -4.78976 14.7414 30
      vertex -9.29435 8.72798 30
      vertex -2.90441 15.2255 30
    endloop
  endfacet
  facet normal 0 0 1
    outer loop
      vertex -6.59958 14.0248 30
      vertex -15.3778 1.94266 30
      vertex -4.78976 14.7414 30
    endloop
  endfacet
  facet normal 0 0 1
    outer loop
      vertex -8.30532 13.0871 30
      vertex -15.3778 1.94266 30
      vertex -6.59958 14.0248 30
    endloop
  endfacet
  facet normal 0 0 1
    outer loop
      vertex -9.88007 11.943 30
      vertex -15.3778 1.94266 30
      vertex -8.30532 13.0871 30
    endloop
  endfacet
  facet normal 0 0 1
    outer loop
      vertex -11.299 10.6105 30
      vertex -15.3778 1.94266 30
      vertex -9.88007 11.943 30
    endloop
  endfacet
  facet normal 0 0 1
    outer loop
      vertex -12.5398 9.11067 30
      vertex -15.3778 1.94266 30
      vertex -11.299 10.6105 30
    endloop
  endfacet
  facet normal 0 0 1
    outer loop
      vertex -13.5828 7.46718 30
      vertex -15.3778 1.94266 30
      vertex -12.5398 9.11067 30
    endloop
  endfacet
  facet normal 0 0 1
    outer loop
      vertex -14.4115 5.70593 30
      vertex -15.3778 1.94266 30
      vertex -13.5828 7.46718 30
    endloop
  endfacet
  facet normal 0 0 1
    outer loop
      vertex -15.013 3.85469 30
      vertex -15.3778 1.94266 30
      vertex -14.4115 5.70593 30
    endloop
  endfacet
  facet normal 0 0 -1
    outer loop
      vertex -15.4685 -0.5 0
      vertex -12.7185 -0.5 0
      vertex -15.3778 -1.94266 0
    endloop
  endfacet
  facet normal 0 0 -1
    outer loop
      vertex -15.3778 -1.94266 0
      vertex -12.7185 -0.5 0
      vertex -12.6495 -1.598 0
    endloop
  endfacet
  facet normal 0 0 -1
    outer loop
      vertex -15.3778 -1.94266 0
      vertex -12.6495 -1.598 0
      vertex -12.3494 -3.1708 0
    endloop
  endfacet
  facet normal 0 0 -1
    outer loop
      vertex -12.3494 -3.1708 0
      vertex -11.8546 -4.69359 0
      vertex -15.3778 -1.94266 0
    endloop
  endfacet
  facet normal 0 0 -1
    outer loop
      vertex -11.8546 -4.69359 0
      vertex -11.1729 -6.14236 0
      vertex -15.3778 -1.94266 0
    endloop
  endfacet
  facet normal 0 0 -1
    outer loop
      vertex -11.1729 -6.14236 0
      vertex -10.315 -7.49426 0
      vertex -15.3778 -1.94266 0
    endloop
  endfacet
  facet normal 0 0 -1
    outer loop
      vertex -10.315 -7.49426 0
      vertex -9.29435 -8.72798 0
      vertex -15.3778 -1.94266 0
    endloop
  endfacet
  facet normal 0 0 -1
    outer loop
      vertex 11.1729 -6.14236 0
      vertex 15.4685 -0.5 0
      vertex 10.315 -7.49426 0
    endloop
  endfacet
  facet normal 0 0 -1
    outer loop
      vertex 11.8546 -4.69359 0
      vertex 15.4685 -0.5 0
      vertex 11.1729 -6.14236 0
    endloop
  endfacet
  facet normal 0 0 -1
    outer loop
      vertex 12.3494 -3.1708 0
      vertex 15.4685 -0.5 0
      vertex 11.8546 -4.69359 0
    endloop
  endfacet
  facet normal 0 0 -1
    outer loop
      vertex 12.6495 -1.598 0
      vertex 12.7185 -0.5 0
      vertex 15.4685 -0.5 0
    endloop
  endfacet
  facet normal 0 0 -1
    outer loop
      vertex 12.6495 -1.598 0
      vertex 15.4685 -0.5 0
      vertex 12.3494 -3.1708 0
    endloop
  endfacet
  facet normal 0 0 -1
    outer loop
      vertex 10.315 -7.49426 0
      vertex 15.4685 -0.5 0
      vertex 15.3778 -1.94266 0
    endloop
  endfacet
  facet normal 0 0 -1
    outer loop
      vertex 10.315 -7.49426 0
      vertex 15.3778 -1.94266 0
      vertex 9.29435 -8.72798 0
    endloop
  endfacet
  facet normal 0 0 -1
    outer loop
      vertex 9.29435 -8.72798 0
      vertex 15.3778 -1.94266 0
      vertex 15.013 -3.85469 0
    endloop
  endfacet
  facet normal 0 0 -1
    outer loop
      vertex 9.29435 -8.72798 0
      vertex 15.013 -3.85469 0
      vertex 8.12716 -9.82404 0
    endloop
  endfacet
  facet normal 0 0 -1
    outer loop
      vertex 8.12716 -9.82404 0
      vertex 15.013 -3.85469 0
      vertex 14.4115 -5.70593 0
    endloop
  endfacet
  facet normal 0 0 -1
    outer loop
      vertex 8.12716 -9.82404 0
      vertex 14.4115 -5.70593 0
      vertex 6.83179 -10.7652 0
    endloop
  endfacet
  facet normal 0 0 -1
    outer loop
      vertex 6.83179 -10.7652 0
      vertex 14.4115 -5.70593 0
      vertex 13.5828 -7.46718 0
    endloop
  endfacet
  facet normal 0 0 -1
    outer loop
      vertex 6.83179 -10.7652 0
      vertex 13.5828 -7.46718 0
      vertex 5.42869 -11.5365 0
    endloop
  endfacet
  facet normal 0 0 -1
    outer loop
      vertex 5.42869 -11.5365 0
      vertex 13.5828 -7.46718 0
      vertex 12.5398 -9.11067 0
    endloop
  endfacet
  facet normal 0 0 -1
    outer loop
      vertex 5.42869 -11.5365 0
      vertex 12.5398 -9.11067 0
      vertex 3.93997 -12.126 0
    endloop
  endfacet
  facet normal 0 0 -1
    outer loop
      vertex 3.93997 -12.126 0
      vertex 12.5398 -9.11067 0
      vertex 11.299 -10.6105 0
    endloop
  endfacet
  facet normal 0 0 -1
    outer loop
      vertex 3.93997 -12.126 0
      vertex 11.299 -10.6105 0
      vertex 2.38911 -12.5242 0
    endloop
  endfacet
  facet normal 0 0 -1
    outer loop
      vertex 2.38911 -12.5242 0
      vertex 11.299 -10.6105 0
      vertex 9.88007 -11.943 0
    endloop
  endfacet
  facet normal 0 0 -1
    outer loop
      vertex 2.38911 -12.5242 0
      vertex 9.88007 -11.943 0
      vertex 0.800579 -12.7248 0
    endloop
  endfacet
  facet normal 0 0 -1
    outer loop
      vertex 0.800579 -12.7248 0
      vertex 9.88007 -11.943 0
      vertex 8.30532 -13.0871 0
    endloop
  endfacet
  facet normal 0 0 -1
    outer loop
      vertex 0.800579 -12.7248 0
      vertex 8.30532 -13.0871 0
      vertex -0.800579 -12.7248 0
    endloop
  endfacet
  facet normal 0 0 -1
    outer loop
      vertex -0.800579 -12.7248 0
      vertex 8.30532 -13.0871 0
      vertex 6.59958 -14.0248 0
    endloop
  endfacet
  facet normal 0 0 -1
    outer loop
      vertex -0.800579 -12.7248 0
      vertex 6.59958 -14.0248 0
      vertex -2.38911 -12.5242 0
    endloop
  endfacet
  facet normal 0 0 -1
    outer loop
      vertex -2.38911 -12.5242 0
      vertex 6.59958 -14.0248 0
      vertex 4.78976 -14.7414 0
    endloop
  endfacet
  facet normal 0 0 -1
    outer loop
      vertex -2.38911 -12.5242 0
      vertex 4.78976 -14.7414 0
      vertex -3.93997 -12.126 0
    endloop
  endfacet
  facet normal 0 0 -1
    outer loop
      vertex -3.93997 -12.126 0
      vertex 4.78976 -14.7414 0
      vertex 2.90441 -15.2255 0
    endloop
  endfacet
  facet normal 0 0 -1
    outer loop
      vertex -3.93997 -12.126 0
      vertex 2.90441 -15.2255 0
      vertex -5.42869 -11.5365 0
    endloop
  endfacet
  facet normal 0 0 -1
    outer loop
      vertex -5.42869 -11.5365 0
      vertex 2.90441 -15.2255 0
      vertex 0.973253 -15.4694 0
    endloop
  endfacet
  facet normal 0 0 -1
    outer loop
      vertex -5.42869 -11.5365 0
      vertex 0.973253 -15.4694 0
      vertex -6.83179 -10.7652 0
    endloop
  endfacet
  facet normal 0 0 -1
    outer loop
      vertex -6.83179 -10.7652 0
      vertex 0.973253 -15.4694 0
      vertex -0.973253 -15.4694 0
    endloop
  endfacet
  facet normal 0 0 -1
    outer loop
      vertex -6.83179 -10.7652 0
      vertex -0.973253 -15.4694 0
      vertex -8.12716 -9.82404 0
    endloop
  endfacet
  facet normal 0 0 -1
    outer loop
      vertex -8.12716 -9.82404 0
      vertex -0.973253 -15.4694 0
      vertex -2.90441 -15.2255 0
    endloop
  endfacet
  facet normal 0 0 -1
    outer loop
      vertex -8.12716 -9.82404 0
      vertex -2.90441 -15.2255 0
      vertex -9.29435 -8.72798 0
    endloop
  endfacet
  facet normal 0 0 -1
    outer loop
      vertex -9.29435 -8.72798 0
      vertex -2.90441 -15.2255 0
      vertex -4.78976 -14.7414 0
    endloop
  endfacet
  facet normal 0 0 -1
    outer loop
      vertex -9.29435 -8.72798 0
      vertex -4.78976 -14.7414 0
      vertex -15.3778 -1.94266 0
    endloop
  endfacet
  facet normal 0 0 -1
    outer loop
      vertex -15.3778 -1.94266 0
      vertex -4.78976 -14.7414 0
      vertex -6.59958 -14.0248 0
    endloop
  endfacet
  facet normal 0 0 -1
    outer loop
      vertex -15.3778 -1.94266 0
      vertex -6.59958 -14.0248 0
      vertex -8.30532 -13.0871 0
    endloop
  endfacet
  facet normal 0 0 -1
    outer loop
      vertex -15.3778 -1.94266 0
      vertex -8.30532 -13.0871 0
      vertex -9.88007 -11.943 0
    endloop
  endfacet
  facet normal 0 0 -1
    outer loop
      vertex -15.3778 -1.94266 0
      vertex -9.88007 -11.943 0
      vertex -11.299 -10.6105 0
    endloop
  endfacet
  facet normal 0 0 -1
    outer loop
      vertex -15.3778 -1.94266 0
      vertex -11.299 -10.6105 0
      vertex -12.5398 -9.11067 0
    endloop
  endfacet
  facet normal 0 0 -1
    outer loop
      vertex -15.3778 -1.94266 0
      vertex -12.5398 -9.11067 0
      vertex -13.5828 -7.46718 0
    endloop
  endfacet
  facet normal 0 0 -1
    outer loop
      vertex -15.3778 -1.94266 0
      vertex -13.5828 -7.46718 0
      vertex -14.4115 -5.70593 0
    endloop
  endfacet
  facet normal 0 0 -1
    outer loop
      vertex -15.3778 -1.94266 0
      vertex -14.4115 -5.70593 0
      vertex -15.013 -3.85469 0
    endloop
  endfacet
  facet normal 0 1 0
    outer loop
      vertex -12.7185 -0.5 30
      vertex -12.7185 -0.5 0
      vertex -15.4685 -0.5 30
    endloop
  endfacet
  facet normal 0 1 0
    outer loop
      vertex -15.4685 -0.5 30
      vertex -12.7185 -0.5 0
      vertex -15.4685 -0.5 0
    endloop
  endfacet
  facet normal -0.998027 -0.0627905 0
    outer loop
      vertex -15.4685 -0.5 0
      vertex -15.3778 -1.94266 0
      vertex -15.4685 -0.5 30
    endloop
  endfacet
  facet normal -0.998027 -0.0627905 0
    outer loop
      vertex -15.4685 -0.5 30
      vertex -15.3778 -1.94266 0
      vertex -15.3778 -1.94266 30
    endloop
  endfacet
  facet normal -0.982287 -0.187381 0
    outer loop
      vertex -15.3778 -1.94266 0
      vertex -15.013 -3.85469 0
      vertex -15.3778 -1.94266 30
    endloop
  endfacet
  facet normal -0.982287 -0.187381 0
    outer loop
      vertex -15.3778 -1.94266 30
      vertex -15.013 -3.85469 0
      vertex -15.013 -3.85469 30
    endloop
  endfacet
  facet normal -0.951057 -0.309017 0
    outer loop
      vertex -15.013 -3.85469 0
      vertex -14.4115 -5.70593 0
      vertex -15.013 -3.85469 30
    endloop
  endfacet
  facet normal -0.951057 -0.309017 0
    outer loop
      vertex -15.013 -3.85469 30
      vertex -14.4115 -5.70593 0
      vertex -14.4115 -5.70593 30
    endloop
  endfacet
  facet normal -0.904827 -0.425779 0
    outer loop
      vertex -14.4115 -5.70593 0
      vertex -13.5828 -7.46718 0
      vertex -14.4115 -5.70593 30
    endloop
  endfacet
  facet normal -0.904827 -0.425779 0
    outer loop
      vertex -14.4115 -5.70593 30
      vertex -13.5828 -7.46718 0
      vertex -13.5828 -7.46718 30
    endloop
  endfacet
  facet normal -0.844328 -0.535827 0
    outer loop
      vertex -13.5828 -7.46718 0
      vertex -12.5398 -9.11067 0
      vertex -13.5828 -7.46718 30
    endloop
  endfacet
  facet normal -0.844328 -0.535827 0
    outer loop
      vertex -13.5828 -7.46718 30
      vertex -12.5398 -9.11067 0
      vertex -12.5398 -9.11067 30
    endloop
  endfacet
  facet normal -0.770513 -0.637424 0
    outer loop
      vertex -12.5398 -9.11067 0
      vertex -11.299 -10.6105 0
      vertex -12.5398 -9.11067 30
    endloop
  endfacet
  facet normal -0.770513 -0.637424 0
    outer loop
      vertex -12.5398 -9.11067 30
      vertex -11.299 -10.6105 0
      vertex -11.299 -10.6105 30
    endloop
  endfacet
  facet normal -0.684547 -0.728969 0
    outer loop
      vertex -11.299 -10.6105 30
      vertex -11.299 -10.6105 0
      vertex -9.88007 -11.943 0
    endloop
  endfacet
  facet normal -0.684547 -0.728969 0
    outer loop
      vertex -9.88007 -11.943 30
      vertex -11.299 -10.6105 30
      vertex -9.88007 -11.943 0
    endloop
  endfacet
  facet normal -0.587785 -0.809017 0
    outer loop
      vertex -9.88007 -11.943 30
      vertex -9.88007 -11.943 0
      vertex -8.30532 -13.0871 0
    endloop
  endfacet
  facet normal -0.587785 -0.809017 0
    outer loop
      vertex -8.30532 -13.0871 30
      vertex -9.88007 -11.943 30
      vertex -8.30532 -13.0871 0
    endloop
  endfacet
  facet normal -0.481754 -0.876307 0
    outer loop
      vertex -8.30532 -13.0871 30
      vertex -8.30532 -13.0871 0
      vertex -6.59958 -14.0248 0
    endloop
  endfacet
  facet normal -0.481754 -0.876307 0
    outer loop
      vertex -6.59958 -14.0248 30
      vertex -8.30532 -13.0871 30
      vertex -6.59958 -14.0248 0
    endloop
  endfacet
  facet normal -0.368125 -0.929776 0
    outer loop
      vertex -6.59958 -14.0248 30
      vertex -6.59958 -14.0248 0
      vertex -4.78976 -14.7414 0
    endloop
  endfacet
  facet normal -0.368125 -0.929776 0
    outer loop
      vertex -4.78976 -14.7414 30
      vertex -6.59958 -14.0248 30
      vertex -4.78976 -14.7414 0
    endloop
  endfacet
  facet normal -0.24869 -0.968583 0
    outer loop
      vertex -4.78976 -14.7414 30
      vertex -4.78976 -14.7414 0
      vertex -2.90441 -15.2255 0
    endloop
  endfacet
  facet normal -0.24869 -0.968583 0
    outer loop
      vertex -2.90441 -15.2255 30
      vertex -4.78976 -14.7414 30
      vertex -2.90441 -15.2255 0
    endloop
  endfacet
  facet normal -0.125333 -0.992115 0
    outer loop
      vertex -2.90441 -15.2255 30
      vertex -2.90441 -15.2255 0
      vertex -0.973253 -15.4694 0
    endloop
  endfacet
  facet normal -0.125333 -0.992115 0
    outer loop
      vertex -0.973253 -15.4694 30
      vertex -2.90441 -15.2255 30
      vertex -0.973253 -15.4694 0
    endloop
  endfacet
  facet normal 0 -1 0
    outer loop
      vertex -0.973253 -15.4694 30
      vertex -0.973253 -15.4694 0
      vertex 0.973253 -15.4694 0
    endloop
  endfacet
  facet normal 0 -1 0
    outer loop
      vertex 0.973253 -15.4694 30
      vertex -0.973253 -15.4694 30
      vertex 0.973253 -15.4694 0
    endloop
  endfacet
  facet normal 0.125333 -0.992115 0
    outer loop
      vertex 0.973253 -15.4694 30
      vertex 0.973253 -15.4694 0
      vertex 2.90441 -15.2255 0
    endloop
  endfacet
  facet normal 0.125333 -0.992115 0
    outer loop
      vertex 2.90441 -15.2255 30
      vertex 0.973253 -15.4694 30
      vertex 2.90441 -15.2255 0
    endloop
  endfacet
  facet normal 0.24869 -0.968583 0
    outer loop
      vertex 2.90441 -15.2255 30
      vertex 2.90441 -15.2255 0
      vertex 4.78976 -14.7414 0
    endloop
  endfacet
  facet normal 0.24869 -0.968583 0
    outer loop
      vertex 4.78976 -14.7414 30
      vertex 2.90441 -15.2255 30
      vertex 4.78976 -14.7414 0
    endloop
  endfacet
  facet normal 0.368125 -0.929776 0
    outer loop
      vertex 4.78976 -14.7414 30
      vertex 4.78976 -14.7414 0
      vertex 6.59958 -14.0248 0
    endloop
  endfacet
  facet normal 0.368125 -0.929776 0
    outer loop
      vertex 6.59958 -14.0248 30
      vertex 4.78976 -14.7414 30
      vertex 6.59958 -14.0248 0
    endloop
  endfacet
  facet normal 0.481754 -0.876307 0
    outer loop
      vertex 6.59958 -14.0248 30
      vertex 6.59958 -14.0248 0
      vertex 8.30532 -13.0871 0
    endloop
  endfacet
  facet normal 0.481754 -0.876307 0
    outer loop
      vertex 8.30532 -13.0871 30
      vertex 6.59958 -14.0248 30
      vertex 8.30532 -13.0871 0
    endloop
  endfacet
  facet normal 0.587785 -0.809017 0
    outer loop
      vertex 8.30532 -13.0871 30
      vertex 8.30532 -13.0871 0
      vertex 9.88007 -11.943 0
    endloop
  endfacet
  facet normal 0.587785 -0.809017 0
    outer loop
      vertex 9.88007 -11.943 30
      vertex 8.30532 -13.0871 30
      vertex 9.88007 -11.943 0
    endloop
  endfacet
  facet normal 0.684547 -0.728969 0
    outer loop
      vertex 9.88007 -11.943 30
      vertex 9.88007 -11.943 0
      vertex 11.299 -10.6105 0
    endloop
  endfacet
  facet normal 0.684547 -0.728969 0
    outer loop
      vertex 11.299 -10.6105 30
      vertex 9.88007 -11.943 30
      vertex 11.299 -10.6105 0
    endloop
  endfacet
  facet normal 0.770513 -0.637424 0
    outer loop
      vertex 11.299 -10.6105 30
      vertex 11.299 -10.6105 0
      vertex 12.5398 -9.11067 0
    endloop
  endfacet
  facet normal 0.770513 -0.637424 0
    outer loop
      vertex 12.5398 -9.11067 30
      vertex 11.299 -10.6105 30
      vertex 12.5398 -9.11067 0
    endloop
  endfacet
  facet normal 0.844328 -0.535827 0
    outer loop
      vertex 12.5398 -9.11067 30
      vertex 12.5398 -9.11067 0
      vertex 13.5828 -7.46718 0
    endloop
  endfacet
  facet normal 0.844328 -0.535827 0
    outer loop
      vertex 13.5828 -7.46718 30
      vertex 12.5398 -9.11067 30
      vertex 13.5828 -7.46718 0
    endloop
  endfacet
  facet normal 0.904827 -0.425779 0
    outer loop
      vertex 13.5828 -7.46718 30
      vertex 13.5828 -7.46718 0
      vertex 14.4115 -5.70593 0
    endloop
  endfacet
  facet normal 0.904827 -0.425779 0
    outer loop
      vertex 14.4115 -5.70593 30
      vertex 13.5828 -7.46718 30
      vertex 14.4115 -5.70593 0
    endloop
  endfacet
  facet normal 0.951057 -0.309017 0
    outer loop
      vertex 14.4115 -5.70593 30
      vertex 14.4115 -5.70593 0
      vertex 15.013 -3.85469 0
    endloop
  endfacet
  facet normal 0.951057 -0.309017 0
    outer loop
      vertex 15.013 -3.85469 30
      vertex 14.4115 -5.70593 30
      vertex 15.013 -3.85469 0
    endloop
  endfacet
  facet normal 0.982287 -0.187381 0
    outer loop
      vertex 15.013 -3.85469 30
      vertex 15.013 -3.85469 0
      vertex 15.3778 -1.94266 0
    endloop
  endfacet
  facet normal 0.982287 -0.187381 0
    outer loop
      vertex 15.3778 -1.94266 30
      vertex 15.013 -3.85469 30
      vertex 15.3778 -1.94266 0
    endloop
  endfacet
  facet normal 0.998027 -0.0627905 0
    outer loop
      vertex 15.3778 -1.94266 30
      vertex 15.3778 -1.94266 0
      vertex 15.4685 -0.5 0
    endloop
  endfacet
  facet normal 0.998027 -0.0627905 0
    outer loop
      vertex 15.4685 -0.5 30
      vertex 15.3778 -1.94266 30
      vertex 15.4685 -0.5 0
    endloop
  endfacet
  facet normal 0 1 0
    outer loop
      vertex 15.4685 -0.5 30
      vertex 15.4685 -0.5 0
      vertex 12.7185 -0.5 30
    endloop
  endfacet
  facet normal 0 1 0
    outer loop
      vertex 12.7185 -0.5 30
      vertex 15.4685 -0.5 0
      vertex 12.7185 -0.5 0
    endloop
  endfacet
  facet normal -0.998027 0.0627908 0
    outer loop
      vertex 12.7185 -0.5 30
      vertex 12.7185 -0.5 0
      vertex 12.6495 -1.598 30
    endloop
  endfacet
  facet normal -0.998027 0.0627908 0
    outer loop
      vertex 12.6495 -1.598 30
      vertex 12.7185 -0.5 0
      vertex 12.6495 -1.598 0
    endloop
  endfacet
  facet normal -0.982287 0.187381 0
    outer loop
      vertex 12.6495 -1.598 30
      vertex 12.6495 -1.598 0
      vertex 12.3494 -3.1708 30
    endloop
  endfacet
  facet normal -0.982287 0.187381 0
    outer loop
      vertex 12.3494 -3.1708 30
      vertex 12.6495 -1.598 0
      vertex 12.3494 -3.1708 0
    endloop
  endfacet
  facet normal -0.951057 0.309017 0
    outer loop
      vertex 12.3494 -3.1708 30
      vertex 12.3494 -3.1708 0
      vertex 11.8546 -4.69359 30
    endloop
  endfacet
  facet normal -0.951057 0.309017 0
    outer loop
      vertex 11.8546 -4.69359 30
      vertex 12.3494 -3.1708 0
      vertex 11.8546 -4.69359 0
    endloop
  endfacet
  facet normal -0.904827 0.425779 0
    outer loop
      vertex 11.8546 -4.69359 30
      vertex 11.8546 -4.69359 0
      vertex 11.1729 -6.14236 30
    endloop
  endfacet
  facet normal -0.904827 0.425779 0
    outer loop
      vertex 11.1729 -6.14236 30
      vertex 11.8546 -4.69359 0
      vertex 11.1729 -6.14236 0
    endloop
  endfacet
  facet normal -0.844328 0.535826 0
    outer loop
      vertex 11.1729 -6.14236 30
      vertex 11.1729 -6.14236 0
      vertex 10.315 -7.49426 30
    endloop
  endfacet
  facet normal -0.844328 0.535826 0
    outer loop
      vertex 10.315 -7.49426 30
      vertex 11.1729 -6.14236 0
      vertex 10.315 -7.49426 0
    endloop
  endfacet
  facet normal -0.770513 0.637424 0
    outer loop
      vertex 10.315 -7.49426 30
      vertex 10.315 -7.49426 0
      vertex 9.29435 -8.72798 30
    endloop
  endfacet
  facet normal -0.770513 0.637424 0
    outer loop
      vertex 9.29435 -8.72798 30
      vertex 10.315 -7.49426 0
      vertex 9.29435 -8.72798 0
    endloop
  endfacet
  facet normal -0.684547 0.728969 0
    outer loop
      vertex 9.29435 -8.72798 30
      vertex 9.29435 -8.72798 0
      vertex 8.12716 -9.82404 30
    endloop
  endfacet
  facet normal -0.684547 0.728969 0
    outer loop
      vertex 8.12716 -9.82404 30
      vertex 9.29435 -8.72798 0
      vertex 8.12716 -9.82404 0
    endloop
  endfacet
  facet normal -0.587785 0.809017 0
    outer loop
      vertex 8.12716 -9.82404 30
      vertex 8.12716 -9.82404 0
      vertex 6.83179 -10.7652 30
    endloop
  endfacet
  facet normal -0.587785 0.809017 0
    outer loop
      vertex 6.83179 -10.7652 30
      vertex 8.12716 -9.82404 0
      vertex 6.83179 -10.7652 0
    endloop
  endfacet
  facet normal -0.481754 0.876307 0
    outer loop
      vertex 6.83179 -10.7652 30
      vertex 6.83179 -10.7652 0
      vertex 5.42869 -11.5365 30
    endloop
  endfacet
  facet normal -0.481754 0.876307 0
    outer loop
      vertex 5.42869 -11.5365 30
      vertex 6.83179 -10.7652 0
      vertex 5.42869 -11.5365 0
    endloop
  endfacet
  facet normal -0.368125 0.929776 0
    outer loop
      vertex 5.42869 -11.5365 30
      vertex 5.42869 -11.5365 0
      vertex 3.93997 -12.126 30
    endloop
  endfacet
  facet normal -0.368125 0.929776 0
    outer loop
      vertex 3.93997 -12.126 30
      vertex 5.42869 -11.5365 0
      vertex 3.93997 -12.126 0
    endloop
  endfacet
  facet normal -0.248689 0.968583 0
    outer loop
      vertex 3.93997 -12.126 30
      vertex 3.93997 -12.126 0
      vertex 2.38911 -12.5242 30
    endloop
  endfacet
  facet normal -0.248689 0.968583 0
    outer loop
      vertex 2.38911 -12.5242 30
      vertex 3.93997 -12.126 0
      vertex 2.38911 -12.5242 0
    endloop
  endfacet
  facet normal -0.125334 0.992115 0
    outer loop
      vertex 2.38911 -12.5242 30
      vertex 2.38911 -12.5242 0
      vertex 0.800579 -12.7248 30
    endloop
  endfacet
  facet normal -0.125334 0.992115 0
    outer loop
      vertex 0.800579 -12.7248 30
      vertex 2.38911 -12.5242 0
      vertex 0.800579 -12.7248 0
    endloop
  endfacet
  facet normal 0 1 0
    outer loop
      vertex 0.800579 -12.7248 30
      vertex 0.800579 -12.7248 0
      vertex -0.800579 -12.7248 30
    endloop
  endfacet
  facet normal 0 1 0
    outer loop
      vertex -0.800579 -12.7248 30
      vertex 0.800579 -12.7248 0
      vertex -0.800579 -12.7248 0
    endloop
  endfacet
  facet normal 0.125334 0.992115 0
    outer loop
      vertex -0.800579 -12.7248 30
      vertex -0.800579 -12.7248 0
      vertex -2.38911 -12.5242 30
    endloop
  endfacet
  facet normal 0.125334 0.992115 0
    outer loop
      vertex -2.38911 -12.5242 30
      vertex -0.800579 -12.7248 0
      vertex -2.38911 -12.5242 0
    endloop
  endfacet
  facet normal 0.248689 0.968583 0
    outer loop
      vertex -2.38911 -12.5242 30
      vertex -2.38911 -12.5242 0
      vertex -3.93997 -12.126 30
    endloop
  endfacet
  facet normal 0.248689 0.968583 0
    outer loop
      vertex -3.93997 -12.126 30
      vertex -2.38911 -12.5242 0
      vertex -3.93997 -12.126 0
    endloop
  endfacet
  facet normal 0.368125 0.929776 0
    outer loop
      vertex -3.93997 -12.126 30
      vertex -3.93997 -12.126 0
      vertex -5.42869 -11.5365 30
    endloop
  endfacet
  facet normal 0.368125 0.929776 0
    outer loop
      vertex -5.42869 -11.5365 30
      vertex -3.93997 -12.126 0
      vertex -5.42869 -11.5365 0
    endloop
  endfacet
  facet normal 0.481754 0.876307 0
    outer loop
      vertex -5.42869 -11.5365 30
      vertex -5.42869 -11.5365 0
      vertex -6.83179 -10.7652 30
    endloop
  endfacet
  facet normal 0.481754 0.876307 0
    outer loop
      vertex -6.83179 -10.7652 30
      vertex -5.42869 -11.5365 0
      vertex -6.83179 -10.7652 0
    endloop
  endfacet
  facet normal 0.587785 0.809017 0
    outer loop
      vertex -6.83179 -10.7652 30
      vertex -6.83179 -10.7652 0
      vertex -8.12716 -9.82404 30
    endloop
  endfacet
  facet normal 0.587785 0.809017 0
    outer loop
      vertex -8.12716 -9.82404 30
      vertex -6.83179 -10.7652 0
      vertex -8.12716 -9.82404 0
    endloop
  endfacet
  facet normal 0.684547 0.728969 0
    outer loop
      vertex -8.12716 -9.82404 30
      vertex -8.12716 -9.82404 0
      vertex -9.29435 -8.72798 30
    endloop
  endfacet
  facet normal 0.684547 0.728969 0
    outer loop
      vertex -9.29435 -8.72798 30
      vertex -8.12716 -9.82404 0
      vertex -9.29435 -8.72798 0
    endloop
  endfacet
  facet normal 0.770513 0.637424 0
    outer loop
      vertex -10.315 -7.49426 30
      vertex -9.29435 -8.72798 30
      vertex -9.29435 -8.72798 0
    endloop
  endfacet
  facet normal 0.770513 0.637424 0
    outer loop
      vertex -10.315 -7.49426 0
      vertex -10.315 -7.49426 30
      vertex -9.29435 -8.72798 0
    endloop
  endfacet
  facet normal 0.844328 0.535826 0
    outer loop
      vertex -11.1729 -6.14236 30
      vertex -10.315 -7.49426 30
      vertex -10.315 -7.49426 0
    endloop
  endfacet
  facet normal 0.844328 0.535826 0
    outer loop
      vertex -11.1729 -6.14236 0
      vertex -11.1729 -6.14236 30
      vertex -10.315 -7.49426 0
    endloop
  endfacet
  facet normal 0.904827 0.425779 0
    outer loop
      vertex -11.8546 -4.69359 30
      vertex -11.1729 -6.14236 30
      vertex -11.1729 -6.14236 0
    endloop
  endfacet
  facet normal 0.904827 0.425779 0
    outer loop
      vertex -11.8546 -4.69359 0
      vertex -11.8546 -4.69359 30
      vertex -11.1729 -6.14236 0
    endloop
  endfacet
  facet normal 0.951057 0.309017 0
    outer loop
      vertex -12.3494 -3.1708 30
      vertex -11.8546 -4.69359 30
      vertex -11.8546 -4.69359 0
    endloop
  endfacet
  facet normal 0.951057 0.309017 0
    outer loop
      vertex -12.3494 -3.1708 0
      vertex -12.3494 -3.1708 30
      vertex -11.8546 -4.69359 0
    endloop
  endfacet
  facet normal 0.982287 0.187381 0
    outer loop
      vertex -12.6495 -1.598 30
      vertex -12.3494 -3.1708 30
      vertex -12.3494 -3.1708 0
    endloop
  endfacet
  facet normal 0.982287 0.187381 0
    outer loop
      vertex -12.6495 -1.598 0
      vertex -12.6495 -1.598 30
      vertex -12.3494 -3.1708 0
    endloop
  endfacet
  facet normal 0.998027 0.0627908 0
    outer loop
      vertex -12.7185 -0.5 30
      vertex -12.6495 -1.598 30
      vertex -12.6495 -1.598 0
    endloop
  endfacet
  facet normal 0.998027 0.0627908 0
    outer loop
      vertex -12.7185 -0.5 0
      vertex -12.7185 -0.5 30
      vertex -12.6495 -1.598 0
    endloop
  endfacet
  facet normal 0 0 1
    outer loop
      vertex -12.7185 -0.5 30
      vertex -15.4685 -0.5 30
      vertex -15.3778 -1.94266 30
    endloop
  endfacet
  facet normal 0 0 1
    outer loop
      vertex -14.4115 -5.70593 30
      vertex -12.7185 -0.5 30
      vertex -15.013 -3.85469 30
    endloop
  endfacet
  facet normal 0 0 1
    outer loop
      vertex -15.013 -3.85469 30
      vertex -12.7185 -0.5 30
      vertex -15.3778 -1.94266 30
    endloop
  endfacet
  facet normal 0 0 1
    outer loop
      vertex -13.5828 -7.46718 30
      vertex -12.7185 -0.5 30
      vertex -14.4115 -5.70593 30
    endloop
  endfacet
  facet normal 0 0 1
    outer loop
      vertex -12.5398 -9.11067 30
      vertex -12.7185 -0.5 30
      vertex -13.5828 -7.46718 30
    endloop
  endfacet
  facet normal 0 0 1
    outer loop
      vertex -12.6495 -1.598 30
      vertex -12.7185 -0.5 30
      vertex -12.5398 -9.11067 30
    endloop
  endfacet
  facet normal 0 0 1
    outer loop
      vertex -11.8546 -4.69359 30
      vertex -12.3494 -3.1708 30
      vertex -11.299 -10.6105 30
    endloop
  endfacet
  facet normal 0 0 1
    outer loop
      vertex -11.1729 -6.14236 30
      vertex -11.8546 -4.69359 30
      vertex -9.88007 -11.943 30
    endloop
  endfacet
  facet normal 0 0 1
    outer loop
      vertex -9.29435 -8.72798 30
      vertex -10.315 -7.49426 30
      vertex -8.30532 -13.0871 30
    endloop
  endfacet
  facet normal 0 0 1
    outer loop
      vertex -8.12716 -9.82404 30
      vertex -9.29435 -8.72798 30
      vertex -6.59958 -14.0248 30
    endloop
  endfacet
  facet normal 0 0 1
    outer loop
      vertex -6.83179 -10.7652 30
      vertex -8.12716 -9.82404 30
      vertex -4.78976 -14.7414 30
    endloop
  endfacet
  facet normal 0 0 1
    outer loop
      vertex -3.93997 -12.126 30
      vertex -5.42869 -11.5365 30
      vertex -2.90441 -15.2255 30
    endloop
  endfacet
  facet normal 0 0 1
    outer loop
      vertex -2.38911 -12.5242 30
      vertex -3.93997 -12.126 30
      vertex -0.973253 -15.4694 30
    endloop
  endfacet
  facet normal 0 0 1
    outer loop
      vertex -0.800579 -12.7248 30
      vertex -2.38911 -12.5242 30
      vertex 0.973253 -15.4694 30
    endloop
  endfacet
  facet normal 0 0 1
    outer loop
      vertex 0.800579 -12.7248 30
      vertex -0.800579 -12.7248 30
      vertex 2.90441 -15.2255 30
    endloop
  endfacet
  facet normal 0 0 1
    outer loop
      vertex 2.38911 -12.5242 30
      vertex 0.800579 -12.7248 30
      vertex 4.78976 -14.7414 30
    endloop
  endfacet
  facet normal 0 0 1
    outer loop
      vertex 3.93997 -12.126 30
      vertex 2.38911 -12.5242 30
      vertex 6.59958 -14.0248 30
    endloop
  endfacet
  facet normal 0 0 1
    outer loop
      vertex 6.83179 -10.7652 30
      vertex 5.42869 -11.5365 30
      vertex 8.30532 -13.0871 30
    endloop
  endfacet
  facet normal 0 0 1
    outer loop
      vertex 8.12716 -9.82404 30
      vertex 6.83179 -10.7652 30
      vertex 9.88007 -11.943 30
    endloop
  endfacet
  facet normal 0 0 1
    outer loop
      vertex 9.29435 -8.72798 30
      vertex 8.12716 -9.82404 30
      vertex 11.299 -10.6105 30
    endloop
  endfacet
  facet normal 0 0 1
    outer loop
      vertex 10.315 -7.49426 30
      vertex 9.29435 -8.72798 30
      vertex 12.5398 -9.11067 30
    endloop
  endfacet
  facet normal 0 0 1
    outer loop
      vertex 11.1729 -6.14236 30
      vertex 10.315 -7.49426 30
      vertex 13.5828 -7.46718 30
    endloop
  endfacet
  facet normal 0 0 1
    outer loop
      vertex 11.8546 -4.69359 30
      vertex 11.1729 -6.14236 30
      vertex 14.4115 -5.70593 30
    endloop
  endfacet
  facet normal 0 0 1
    outer loop
      vertex 12.3494 -3.1708 30
      vertex 11.8546 -4.69359 30
      vertex 15.013 -3.85469 30
    endloop
  endfacet
  facet normal 0 0 1
    outer loop
      vertex 15.4685 -0.5 30
      vertex 12.7185 -0.5 30
      vertex 15.3778 -1.94266 30
    endloop
  endfacet
  facet normal 0 0 1
    outer loop
      vertex 12.7185 -0.5 30
      vertex 12.6495 -1.598 30
      vertex 15.3778 -1.94266 30
    endloop
  endfacet
  facet normal 0 0 1
    outer loop
      vertex 15.3778 -1.94266 30
      vertex 12.3494 -3.1708 30
      vertex 15.013 -3.85469 30
    endloop
  endfacet
  facet normal 0 0 1
    outer loop
      vertex 15.013 -3.85469 30
      vertex 11.8546 -4.69359 30
      vertex 14.4115 -5.70593 30
    endloop
  endfacet
  facet normal 0 0 1
    outer loop
      vertex 14.4115 -5.70593 30
      vertex 11.1729 -6.14236 30
      vertex 13.5828 -7.46718 30
    endloop
  endfacet
  facet normal 0 0 1
    outer loop
      vertex 13.5828 -7.46718 30
      vertex 10.315 -7.49426 30
      vertex 12.5398 -9.11067 30
    endloop
  endfacet
  facet normal 0 0 1
    outer loop
      vertex 12.5398 -9.11067 30
      vertex 9.29435 -8.72798 30
      vertex 11.299 -10.6105 30
    endloop
  endfacet
  facet normal 0 0 1
    outer loop
      vertex 11.299 -10.6105 30
      vertex 8.12716 -9.82404 30
      vertex 9.88007 -11.943 30
    endloop
  endfacet
  facet normal 0 0 1
    outer loop
      vertex 9.88007 -11.943 30
      vertex 6.83179 -10.7652 30
      vertex 8.30532 -13.0871 30
    endloop
  endfacet
  facet normal 0 0 1
    outer loop
      vertex 8.30532 -13.0871 30
      vertex 5.42869 -11.5365 30
      vertex 6.59958 -14.0248 30
    endloop
  endfacet
  facet normal 0 0 1
    outer loop
      vertex 5.42869 -11.5365 30
      vertex 3.93997 -12.126 30
      vertex 6.59958 -14.0248 30
    endloop
  endfacet
  facet normal 0 0 1
    outer loop
      vertex 6.59958 -14.0248 30
      vertex 2.38911 -12.5242 30
      vertex 4.78976 -14.7414 30
    endloop
  endfacet
  facet normal 0 0 1
    outer loop
      vertex 4.78976 -14.7414 30
      vertex 0.800579 -12.7248 30
      vertex 2.90441 -15.2255 30
    endloop
  endfacet
  facet normal 0 0 1
    outer loop
      vertex 2.90441 -15.2255 30
      vertex -0.800579 -12.7248 30
      vertex 0.973253 -15.4694 30
    endloop
  endfacet
  facet normal 0 0 1
    outer loop
      vertex 0.973253 -15.4694 30
      vertex -2.38911 -12.5242 30
      vertex -0.973253 -15.4694 30
    endloop
  endfacet
  facet normal 0 0 1
    outer loop
      vertex -0.973253 -15.4694 30
      vertex -3.93997 -12.126 30
      vertex -2.90441 -15.2255 30
    endloop
  endfacet
  facet normal 0 0 1
    outer loop
      vertex -2.90441 -15.2255 30
      vertex -5.42869 -11.5365 30
      vertex -4.78976 -14.7414 30
    endloop
  endfacet
  facet normal 0 0 1
    outer loop
      vertex -5.42869 -11.5365 30
      vertex -6.83179 -10.7652 30
      vertex -4.78976 -14.7414 30
    endloop
  endfacet
  facet normal 0 0 1
    outer loop
      vertex -4.78976 -14.7414 30
      vertex -8.12716 -9.82404 30
      vertex -6.59958 -14.0248 30
    endloop
  endfacet
  facet normal 0 0 1
    outer loop
      vertex -6.59958 -14.0248 30
      vertex -9.29435 -8.72798 30
      vertex -8.30532 -13.0871 30
    endloop
  endfacet
  facet normal 0 0 1
    outer loop
      vertex -8.30532 -13.0871 30
      vertex -10.315 -7.49426 30
      vertex -9.88007 -11.943 30
    endloop
  endfacet
  facet normal 0 0 1
    outer loop
      vertex -10.315 -7.49426 30
      vertex -11.1729 -6.14236 30
      vertex -9.88007 -11.943 30
    endloop
  endfacet
  facet normal 0 0 1
    outer loop
      vertex -9.88007 -11.943 30
      vertex -11.8546 -4.69359 30
      vertex -11.299 -10.6105 30
    endloop
  endfacet
  facet normal 0 0 1
    outer loop
      vertex -11.299 -10.6105 30
      vertex -12.3494 -3.1708 30
      vertex -12.5398 -9.11067 30
    endloop
  endfacet
  facet normal 0 0 1
    outer loop
      vertex -12.3494 -3.1708 30
      vertex -12.6495 -1.598 30
      vertex -12.5398 -9.11067 30
    endloop
  endfacet
  facet normal 0 0 1
    outer loop
      vertex 12.6495 -1.598 30
      vertex 12.3494 -3.1708 30
      vertex 15.3778 -1.94266 30
    endloop
  endfacet
endsolid OpenSCAD_Model
