  0
SECTION
  2
BLOCKS
  0
ENDSEC
  0
SECTION
  2
ENTITIES
  0
LINE
  8
0
 10
10.306
 20
-54.0258
 11
16.9959
 21
-52.3081
  0
LINE
  8
0
 10
16.9959
 20
-52.3081
 11
23.4178
 21
-49.7655
  0
LINE
  8
0
 10
23.4178
 20
-49.7655
 11
29.4705
 21
-46.438
  0
LINE
  8
0
 10
29.4705
 20
-46.438
 11
35.0583
 21
-42.3782
  0
LINE
  8
0
 10
35.0583
 20
-42.3782
 11
40.0933
 21
-37.6501
  0
LINE
  8
0
 10
40.0933
 20
-37.6501
 11
44.4959
 21
-32.3282
  0
LINE
  8
0
 10
44.4959
 20
-32.3282
 11
48.1969
 21
-26.4964
  0
LINE
  8
0
 10
48.1969
 20
-26.4964
 11
51.1377
 21
-20.2468
  0
LINE
  8
0
 10
51.1377
 20
-20.2468
 11
51.2307
 21
-19.9605
  0
LINE
  8
0
 10
51.2307
 20
-19.9605
 11
101.256
 21
-19.9605
  0
LINE
  8
0
 10
101.256
 20
-19.9605
 11
103.748
 21
-19.6457
  0
LINE
  8
0
 10
103.748
 20
-19.6457
 11
106.18
 21
-19.0211
  0
LINE
  8
0
 10
106.18
 20
-19.0211
 11
108.516
 21
-18.0965
  0
LINE
  8
0
 10
108.516
 20
-18.0965
 11
110.717
 21
-16.8866
  0
LINE
  8
0
 10
110.717
 20
-16.8866
 11
112.748
 21
-15.4103
  0
LINE
  8
0
 10
112.748
 20
-15.4103
 11
114.579
 21
-13.6909
  0
LINE
  8
0
 10
114.579
 20
-13.6909
 11
116.18
 21
-11.7557
  0
LINE
  8
0
 10
116.18
 20
-11.7557
 11
117.526
 21
-9.63507
  0
LINE
  8
0
 10
117.526
 20
-9.63507
 11
118.596
 21
-7.36249
  0
LINE
  8
0
 10
118.596
 20
-7.36249
 11
119.372
 21
-4.97379
  0
LINE
  8
0
 10
119.372
 20
-4.97379
 11
119.842
 21
-2.50665
  0
LINE
  8
0
 10
119.842
 20
-2.50665
 11
120
 21
0
  0
LINE
  8
0
 10
120
 20
0
 11
119.842
 21
2.50665
  0
LINE
  8
0
 10
119.842
 20
2.50665
 11
119.372
 21
4.97379
  0
LINE
  8
0
 10
119.372
 20
4.97379
 11
118.596
 21
7.36249
  0
LINE
  8
0
 10
118.596
 20
7.36249
 11
117.526
 21
9.63507
  0
LINE
  8
0
 10
117.526
 20
9.63507
 11
116.18
 21
11.7557
  0
LINE
  8
0
 10
116.18
 20
11.7557
 11
114.579
 21
13.6909
  0
LINE
  8
0
 10
114.579
 20
13.6909
 11
112.748
 21
15.4103
  0
LINE
  8
0
 10
112.748
 20
15.4103
 11
110.717
 21
16.8866
  0
LINE
  8
0
 10
110.717
 20
16.8866
 11
108.516
 21
18.0965
  0
LINE
  8
0
 10
108.516
 20
18.0965
 11
106.18
 21
19.0211
  0
LINE
  8
0
 10
106.18
 20
19.0211
 11
103.748
 21
19.6457
  0
LINE
  8
0
 10
103.748
 20
19.6457
 11
101.256
 21
19.9605
  0
LINE
  8
0
 10
101.256
 20
19.9605
 11
51.2307
 21
19.9605
  0
LINE
  8
0
 10
51.2307
 20
19.9605
 11
51.1377
 21
20.2468
  0
LINE
  8
0
 10
51.1377
 20
20.2468
 11
48.1969
 21
26.4964
  0
LINE
  8
0
 10
48.1969
 20
26.4964
 11
44.4959
 21
32.3282
  0
LINE
  8
0
 10
44.4959
 20
32.3282
 11
40.0933
 21
37.6501
  0
LINE
  8
0
 10
40.0933
 20
37.6501
 11
35.0583
 21
42.3782
  0
LINE
  8
0
 10
35.0583
 20
42.3782
 11
29.4705
 21
46.438
  0
LINE
  8
0
 10
29.4705
 20
46.438
 11
23.4178
 21
49.7655
  0
LINE
  8
0
 10
23.4178
 20
49.7655
 11
16.9959
 21
52.3081
  0
LINE
  8
0
 10
16.9959
 20
52.3081
 11
10.306
 21
54.0258
  0
LINE
  8
0
 10
10.306
 20
54.0258
 11
3.45348
 21
54.8915
  0
LINE
  8
0
 10
3.45348
 20
54.8915
 11
-3.45348
 21
54.8915
  0
LINE
  8
0
 10
-3.45348
 20
54.8915
 11
-10.306
 21
54.0258
  0
LINE
  8
0
 10
-10.306
 20
54.0258
 11
-16.9959
 21
52.3081
  0
LINE
  8
0
 10
-16.9959
 20
52.3081
 11
-23.4178
 21
49.7655
  0
LINE
  8
0
 10
-23.4178
 20
49.7655
 11
-29.4705
 21
46.438
  0
LINE
  8
0
 10
-29.4705
 20
46.438
 11
-35.0583
 21
42.3782
  0
LINE
  8
0
 10
-35.0583
 20
42.3782
 11
-40.0933
 21
37.6501
  0
LINE
  8
0
 10
-40.0933
 20
37.6501
 11
-44.4959
 21
32.3282
  0
LINE
  8
0
 10
-44.4959
 20
32.3282
 11
-48.1969
 21
26.4964
  0
LINE
  8
0
 10
-48.1969
 20
26.4964
 11
-51.1377
 21
20.2468
  0
LINE
  8
0
 10
-51.1377
 20
20.2468
 11
-53.2721
 21
13.6779
  0
LINE
  8
0
 10
-53.2721
 20
13.6779
 11
-54.5663
 21
6.89333
  0
LINE
  8
0
 10
-54.5663
 20
6.89333
 11
-55
 21
0
  0
LINE
  8
0
 10
-55
 20
0
 11
-54.5663
 21
-6.89333
  0
LINE
  8
0
 10
-54.5663
 20
-6.89333
 11
-53.2721
 21
-13.6779
  0
LINE
  8
0
 10
-53.2721
 20
-13.6779
 11
-51.1377
 21
-20.2468
  0
LINE
  8
0
 10
-51.1377
 20
-20.2468
 11
-48.1969
 21
-26.4964
  0
LINE
  8
0
 10
-48.1969
 20
-26.4964
 11
-44.4959
 21
-32.3282
  0
LINE
  8
0
 10
-44.4959
 20
-32.3282
 11
-40.0933
 21
-37.6501
  0
LINE
  8
0
 10
-40.0933
 20
-37.6501
 11
-35.0583
 21
-42.3782
  0
LINE
  8
0
 10
-35.0583
 20
-42.3782
 11
-29.4705
 21
-46.438
  0
LINE
  8
0
 10
-29.4705
 20
-46.438
 11
-23.4178
 21
-49.7655
  0
LINE
  8
0
 10
-23.4178
 20
-49.7655
 11
-16.9959
 21
-52.3081
  0
LINE
  8
0
 10
-16.9959
 20
-52.3081
 11
-10.306
 21
-54.0258
  0
LINE
  8
0
 10
-10.306
 20
-54.0258
 11
-3.45348
 21
-54.8915
  0
LINE
  8
0
 10
-3.45348
 20
-54.8915
 11
3.45348
 21
-54.8915
  0
LINE
  8
0
 10
3.45348
 20
-54.8915
 11
10.306
 21
-54.0258
  0
LINE
  8
0
 10
-17.4194
 20
-11.9055
 11
-19.479
 21
-10.9121
  0
LINE
  8
0
 10
-19.479
 20
-10.9121
 11
-21.6492
 21
-9.12703
  0
LINE
  8
0
 10
-21.6492
 20
-9.12703
 11
-23.6707
 21
-6.92374
  0
LINE
  8
0
 10
-23.6707
 20
-6.92374
 11
-25.2601
 21
-4.44612
  0
LINE
  8
0
 10
-25.2601
 20
-4.44612
 11
-26.4099
 21
-1.74586
  0
LINE
  8
0
 10
-26.4099
 20
-1.74586
 11
-27.113
 21
1.12534
  0
LINE
  8
0
 10
-27.113
 20
1.12534
 11
-27.3621
 21
4.11589
  0
LINE
  8
0
 10
-27.3621
 20
4.11589
 11
-27.1499
 21
7.17416
  0
LINE
  8
0
 10
-27.1499
 20
7.17416
 11
-26.4691
 21
10.2484
  0
LINE
  8
0
 10
-26.4691
 20
10.2484
 11
-25.3125
 21
13.287
  0
LINE
  8
0
 10
-25.3125
 20
13.287
 11
-23.8718
 21
15.9823
  0
LINE
  8
0
 10
-23.8718
 20
15.9823
 11
-22.2041
 21
18.4346
  0
LINE
  8
0
 10
-22.2041
 20
18.4346
 11
-20.3095
 21
20.6452
  0
LINE
  8
0
 10
-20.3095
 20
20.6452
 11
-18.1878
 21
22.6159
  0
LINE
  8
0
 10
-18.1878
 20
22.6159
 11
-15.8391
 21
24.3478
  0
LINE
  8
0
 10
-15.8391
 20
24.3478
 11
-13.2633
 21
25.8425
  0
LINE
  8
0
 10
-13.2633
 20
25.8425
 11
-10.4606
 21
27.1015
  0
LINE
  8
0
 10
-10.4606
 20
27.1015
 11
-7.43086
 21
28.1262
  0
LINE
  8
0
 10
-7.43086
 20
28.1262
 11
-4.24104
 21
28.9179
  0
LINE
  8
0
 10
-4.24104
 20
28.9179
 11
-1.84288
 21
29.2439
  0
LINE
  8
0
 10
-1.84288
 20
29.2439
 11
0.467957
 21
29.0285
  0
LINE
  8
0
 10
0.467957
 20
29.0285
 11
3.32597
 21
28.4056
  0
LINE
  8
0
 10
3.32597
 20
28.4056
 11
6.06758
 21
27.55
  0
LINE
  8
0
 10
6.06758
 20
27.55
 11
8.02921
 21
26.6361
  0
LINE
  8
0
 10
8.02921
 20
26.6361
 11
9.22343
 21
25.4651
  0
LINE
  8
0
 10
9.22343
 20
25.4651
 11
10.179
 21
23.8809
  0
LINE
  8
0
 10
10.179
 20
23.8809
 11
10.7272
 21
22.2617
  0
LINE
  8
0
 10
10.7272
 20
22.2617
 11
10.699
 21
20.986
  0
LINE
  8
0
 10
10.699
 20
20.986
 11
10.4128
 21
20.533
  0
LINE
  8
0
 10
10.4128
 20
20.533
 11
9.89963
 21
20.3884
  0
LINE
  8
0
 10
9.89963
 20
20.3884
 11
7.47041
 21
21.0481
  0
LINE
  8
0
 10
7.47041
 20
21.0481
 11
5.55461
 21
21.5608
  0
LINE
  8
0
 10
5.55461
 20
21.5608
 11
3.54135
 21
21.8436
  0
LINE
  8
0
 10
3.54135
 20
21.8436
 11
1.44365
 21
21.8994
  0
LINE
  8
0
 10
1.44365
 20
21.8994
 11
-0.725266
 21
21.7311
  0
LINE
  8
0
 10
-0.725266
 20
21.7311
 11
-2.95248
 21
21.3416
  0
LINE
  8
0
 10
-2.95248
 20
21.3416
 11
-5.22476
 21
20.7338
  0
LINE
  8
0
 10
-5.22476
 20
20.7338
 11
-7.5291
 21
19.9106
  0
LINE
  8
0
 10
-7.5291
 20
19.9106
 11
-9.85233
 21
18.875
  0
LINE
  8
0
 10
-9.85233
 20
18.875
 11
-13.4137
 21
16.8823
  0
LINE
  8
0
 10
-13.4137
 20
16.8823
 11
-15.9914
 21
14.8082
  0
LINE
  8
0
 10
-15.9914
 20
14.8082
 11
-17.9986
 21
12.2218
  0
LINE
  8
0
 10
-17.9986
 20
12.2218
 11
-19.8486
 21
8.69244
  0
LINE
  8
0
 10
-19.8486
 20
8.69244
 11
-20.6813
 21
6.6591
  0
LINE
  8
0
 10
-20.6813
 20
6.6591
 11
-21.1809
 21
4.82132
  0
LINE
  8
0
 10
-21.1809
 20
4.82132
 11
-21.3534
 21
3.18109
  0
LINE
  8
0
 10
-21.3534
 20
3.18109
 11
-21.2049
 21
1.7404
  0
LINE
  8
0
 10
-21.2049
 20
1.7404
 11
-20.7413
 21
0.501251
  0
LINE
  8
0
 10
-20.7413
 20
0.501251
 11
-19.9687
 21
-0.534286
  0
LINE
  8
0
 10
-19.9687
 20
-0.534286
 11
-18.893
 21
-1.36432
  0
LINE
  8
0
 10
-18.893
 20
-1.36432
 11
-17.5203
 21
-1.98683
  0
LINE
  8
0
 10
-17.5203
 20
-1.98683
 11
-15.8566
 21
-2.39977
  0
LINE
  8
0
 10
-15.8566
 20
-2.39977
 11
-13.9078
 21
-2.60115
  0
LINE
  8
0
 10
-13.9078
 20
-2.60115
 11
-11.6799
 21
-2.58899
  0
LINE
  8
0
 10
-11.6799
 20
-2.58899
 11
-9.17906
 21
-2.3613
  0
LINE
  8
0
 10
-9.17906
 20
-2.3613
 11
-3.38223
 21
-1.25122
  0
LINE
  8
0
 10
-3.38223
 20
-1.25122
 11
3.43465
 21
0.745026
  0
LINE
  8
0
 10
3.43465
 20
0.745026
 11
8.51814
 21
2.3904
  0
LINE
  8
0
 10
8.51814
 20
2.3904
 11
10.7611
 21
2.91814
  0
LINE
  8
0
 10
10.7611
 20
2.91814
 11
10.6134
 21
2.46352
  0
LINE
  8
0
 10
10.6134
 20
2.46352
 11
9.92873
 21
1.51628
  0
LINE
  8
0
 10
9.92873
 20
1.51628
 11
7.45491
 21
-1.31158
  0
LINE
  8
0
 10
7.45491
 20
-1.31158
 11
4.35239
 21
-4.47717
  0
LINE
  8
0
 10
4.35239
 20
-4.47717
 11
1.63405
 21
-6.89185
  0
LINE
  8
0
 10
1.63405
 20
-6.89185
 11
-1.73714
 21
-9.21823
  0
LINE
  8
0
 10
-1.73714
 20
-9.21823
 11
-4.79984
 21
-10.7879
  0
LINE
  8
0
 10
-4.79984
 20
-10.7879
 11
-7.87422
 21
-11.729
  0
LINE
  8
0
 10
-7.87422
 20
-11.729
 11
-11.2804
 21
-12.1694
  0
LINE
  8
0
 10
-11.2804
 20
-12.1694
 11
-14.8825
 21
-12.2703
  0
LINE
  8
0
 10
-14.8825
 20
-12.2703
 11
-17.4194
 21
-11.9055
  0
LINE
  8
0
 10
-13.6398
 20
-27.8158
 11
-9.92993
 21
-24.789
  0
LINE
  8
0
 10
-9.92993
 20
-24.789
 11
-2.7742
 21
-19.4338
  0
LINE
  8
0
 10
-2.7742
 20
-19.4338
 11
6.49153
 21
-12.4284
  0
LINE
  8
0
 10
6.49153
 20
-12.4284
 11
13.982
 21
-6.18558
  0
LINE
  8
0
 10
13.982
 20
-6.18558
 11
18.9928
 21
-1.35139
  0
LINE
  8
0
 10
18.9928
 20
-1.35139
 11
20.3481
 21
0.335526
  0
LINE
  8
0
 10
20.3481
 20
0.335526
 11
20.8195
 21
1.42799
  0
LINE
  8
0
 10
20.8195
 20
1.42799
 11
20.5099
 21
2.28792
  0
LINE
  8
0
 10
20.5099
 20
2.28792
 11
19.6234
 21
3.17331
  0
LINE
  8
0
 10
19.6234
 20
3.17331
 11
18.2231
 21
4.05722
  0
LINE
  8
0
 10
18.2231
 20
4.05722
 11
16.3724
 21
4.91277
  0
LINE
  8
0
 10
16.3724
 20
4.91277
 11
11.5731
 21
6.431
  0
LINE
  8
0
 10
11.5731
 20
6.431
 11
5.73192
 21
7.51271
  0
LINE
  8
0
 10
5.73192
 20
7.51271
 11
1.765
 21
8.19864
  0
LINE
  8
0
 10
1.765
 20
8.19864
 11
-1.09006
 21
9.04166
  0
LINE
  8
0
 10
-1.09006
 20
9.04166
 11
-2.81592
 21
10.0361
  0
LINE
  8
0
 10
-2.81592
 20
10.0361
 11
-3.24994
 21
10.5882
  0
LINE
  8
0
 10
-3.24994
 20
10.5882
 11
-3.3951
 21
11.176
  0
LINE
  8
0
 10
-3.3951
 20
11.176
 11
-3.20593
 21
12.1771
  0
LINE
  8
0
 10
-3.20593
 20
12.1771
 11
-2.58017
 21
12.9921
  0
LINE
  8
0
 10
-2.58017
 20
12.9921
 11
-1.43056
 21
13.6906
  0
LINE
  8
0
 10
-1.43056
 20
13.6906
 11
0.330185
 21
14.3425
  0
LINE
  8
0
 10
0.330185
 20
14.3425
 11
3.32597
 21
14.7461
  0
LINE
  8
0
 10
3.32597
 20
14.7461
 11
7.53249
 21
14.7771
  0
LINE
  8
0
 10
7.53249
 20
14.7771
 11
10.7238
 21
14.4696
  0
LINE
  8
0
 10
10.7238
 20
14.4696
 11
13.6793
 21
13.8303
  0
LINE
  8
0
 10
13.6793
 20
13.8303
 11
16.3904
 21
12.865
  0
LINE
  8
0
 10
16.3904
 20
12.865
 11
18.8482
 21
11.5795
  0
LINE
  8
0
 10
18.8482
 20
11.5795
 11
21.0441
 21
9.97978
  0
LINE
  8
0
 10
21.0441
 20
9.97978
 11
22.9693
 21
8.07153
  0
LINE
  8
0
 10
22.9693
 20
8.07153
 11
24.6152
 21
5.8606
  0
LINE
  8
0
 10
24.6152
 20
5.8606
 11
25.9729
 21
3.35277
  0
LINE
  8
0
 10
25.9729
 20
3.35277
 11
26.5665
 21
1.6754
  0
LINE
  8
0
 10
26.5665
 20
1.6754
 11
26.9964
 21
-0.217285
  0
LINE
  8
0
 10
26.9964
 20
-0.217285
 11
27.3621
 21
-4.25307
  0
LINE
  8
0
 10
27.3621
 20
-4.25307
 11
27.0643
 21
-7.96288
  0
LINE
  8
0
 10
27.0643
 20
-7.96288
 11
26.6647
 21
-9.44815
  0
LINE
  8
0
 10
26.6647
 20
-9.44815
 11
26.0971
 21
-10.5551
  0
LINE
  8
0
 10
26.0971
 20
-10.5551
 11
24.3489
 21
-12.2713
  0
LINE
  8
0
 10
24.3489
 20
-12.2713
 11
21.4715
 21
-14.4124
  0
LINE
  8
0
 10
21.4715
 20
-14.4124
 11
17.9421
 21
-16.6582
  0
LINE
  8
0
 10
17.9421
 20
-16.6582
 11
14.2381
 21
-18.6887
  0
LINE
  8
0
 10
14.2381
 20
-18.6887
 11
9.63382
 21
-20.5659
  0
LINE
  8
0
 10
9.63382
 20
-20.5659
 11
1.61855
 21
-23.555
  0
LINE
  8
0
 10
1.61855
 20
-23.555
 11
-13.3293
 21
-28.7471
  0
LINE
  8
0
 10
-13.3293
 20
-28.7471
 11
-14.8815
 21
-29.2439
  0
LINE
  8
0
 10
-14.8815
 20
-29.2439
 11
-13.6398
 21
-27.8158
  0
LINE
  8
0
 10
99.0357
 20
-7.94167
 11
97.1631
 21
-7.48012
  0
LINE
  8
0
 10
97.1631
 20
-7.48012
 11
95.4555
 21
-6.58386
  0
LINE
  8
0
 10
95.4555
 20
-6.58386
 11
94.0119
 21
-5.30498
  0
LINE
  8
0
 10
94.0119
 20
-5.30498
 11
92.9164
 21
-3.71777
  0
LINE
  8
0
 10
92.9164
 20
-3.71777
 11
92.2325
 21
-1.91452
  0
LINE
  8
0
 10
92.2325
 20
-1.91452
 11
92
 21
0
  0
LINE
  8
0
 10
92
 20
0
 11
92.2325
 21
1.91452
  0
LINE
  8
0
 10
92.2325
 20
1.91452
 11
92.9164
 21
3.71777
  0
LINE
  8
0
 10
92.9164
 20
3.71777
 11
94.0119
 21
5.30498
  0
LINE
  8
0
 10
94.0119
 20
5.30498
 11
95.4555
 21
6.58386
  0
LINE
  8
0
 10
95.4555
 20
6.58386
 11
97.1631
 21
7.48012
  0
LINE
  8
0
 10
97.1631
 20
7.48012
 11
99.0357
 21
7.94167
  0
LINE
  8
0
 10
99.0357
 20
7.94167
 11
100.964
 21
7.94167
  0
LINE
  8
0
 10
100.964
 20
7.94167
 11
102.837
 21
7.48012
  0
LINE
  8
0
 10
102.837
 20
7.48012
 11
104.545
 21
6.58386
  0
LINE
  8
0
 10
104.545
 20
6.58386
 11
105.988
 21
5.30498
  0
LINE
  8
0
 10
105.988
 20
5.30498
 11
107.084
 21
3.71777
  0
LINE
  8
0
 10
107.084
 20
3.71777
 11
107.768
 21
1.91452
  0
LINE
  8
0
 10
107.768
 20
1.91452
 11
108
 21
0
  0
LINE
  8
0
 10
108
 20
0
 11
107.768
 21
-1.91452
  0
LINE
  8
0
 10
107.768
 20
-1.91452
 11
107.084
 21
-3.71777
  0
LINE
  8
0
 10
107.084
 20
-3.71777
 11
105.988
 21
-5.30498
  0
LINE
  8
0
 10
105.988
 20
-5.30498
 11
104.545
 21
-6.58386
  0
LINE
  8
0
 10
104.545
 20
-6.58386
 11
102.837
 21
-7.48012
  0
LINE
  8
0
 10
102.837
 20
-7.48012
 11
100.964
 21
-7.94167
  0
LINE
  8
0
 10
100.964
 20
-7.94167
 11
99.0357
 21
-7.94167
  0
ENDSEC
  0
SECTION
  2
OBJECTS
  0
DICTIONARY
  0
ENDSEC
  0
EOF
