solid OpenSCAD_Model
  facet normal 0 0 -1
    outer loop
      vertex -10 0 0
      vertex -9.92115 1.25333 0
      vertex -9.92115 -1.25333 0
    endloop
  endfacet
  facet normal 0 0 -1
    outer loop
      vertex -9.92115 -1.25333 0
      vertex -9.92115 1.25333 0
      vertex -9.68583 2.4869 0
    endloop
  endfacet
  facet normal 0 0 -1
    outer loop
      vertex -9.92115 -1.25333 0
      vertex -9.68583 2.4869 0
      vertex -9.29777 3.68125 0
    endloop
  endfacet
  facet normal 0 0 -1
    outer loop
      vertex -9.92115 -1.25333 0
      vertex -9.29777 3.68125 0
      vertex -8.76307 4.81754 0
    endloop
  endfacet
  facet normal 0 0 -1
    outer loop
      vertex -9.92115 -1.25333 0
      vertex -8.76307 4.81754 0
      vertex -8.09017 5.87785 0
    endloop
  endfacet
  facet normal 0 0 -1
    outer loop
      vertex -9.92115 -1.25333 0
      vertex -8.09017 5.87785 0
      vertex -7.28969 6.84547 0
    endloop
  endfacet
  facet normal 0 0 -1
    outer loop
      vertex -9.92115 -1.25333 0
      vertex -7.28969 6.84547 0
      vertex -6.37424 7.70513 0
    endloop
  endfacet
  facet normal 0 0 -1
    outer loop
      vertex -9.92115 -1.25333 0
      vertex -6.37424 7.70513 0
      vertex -5.35827 8.44328 0
    endloop
  endfacet
  facet normal 0 0 -1
    outer loop
      vertex -9.92115 -1.25333 0
      vertex -5.35827 8.44328 0
      vertex -4.25779 9.04827 0
    endloop
  endfacet
  facet normal 0 0 -1
    outer loop
      vertex -9.92115 -1.25333 0
      vertex -4.25779 9.04827 0
      vertex -3.09017 9.51056 0
    endloop
  endfacet
  facet normal 0 0 -1
    outer loop
      vertex -9.92115 -1.25333 0
      vertex -3.09017 9.51056 0
      vertex -1.87381 9.82287 0
    endloop
  endfacet
  facet normal 0 0 -1
    outer loop
      vertex -9.92115 -1.25333 0
      vertex -1.87381 9.82287 0
      vertex -0.627905 9.98027 0
    endloop
  endfacet
  facet normal 0 0 -1
    outer loop
      vertex -9.92115 -1.25333 0
      vertex -0.627905 9.98027 0
      vertex 0.627905 9.98027 0
    endloop
  endfacet
  facet normal 0 0 -1
    outer loop
      vertex -3.21496 5.06597 0
      vertex 0.627905 9.98027 0
      vertex 1.87381 9.82287 0
    endloop
  endfacet
  facet normal 0 0 -1
    outer loop
      vertex -1.8541 5.70634 0
      vertex 1.87381 9.82287 0
      vertex 3.09017 9.51056 0
    endloop
  endfacet
  facet normal 0 0 -1
    outer loop
      vertex -0.376743 5.98816 0
      vertex 3.09017 9.51056 0
      vertex 4.25779 9.04827 0
    endloop
  endfacet
  facet normal 0 0 -1
    outer loop
      vertex 1.12429 5.89372 0
      vertex 4.25779 9.04827 0
      vertex 5.35827 8.44328 0
    endloop
  endfacet
  facet normal 0 0 -1
    outer loop
      vertex 1.8541 5.70634 0
      vertex 5.35827 8.44328 0
      vertex 6.37424 7.70513 0
    endloop
  endfacet
  facet normal 0 0 -1
    outer loop
      vertex 3.21496 5.06597 0
      vertex 6.37424 7.70513 0
      vertex 7.28969 6.84547 0
    endloop
  endfacet
  facet normal 0 0 -1
    outer loop
      vertex 3.82454 4.62308 0
      vertex 7.28969 6.84547 0
      vertex 8.09017 5.87785 0
    endloop
  endfacet
  facet normal 0 0 -1
    outer loop
      vertex 4.37381 4.10728 0
      vertex 8.09017 5.87785 0
      vertex 8.76307 4.81754 0
    endloop
  endfacet
  facet normal 0 0 -1
    outer loop
      vertex 5.25784 2.89052 0
      vertex 8.76307 4.81754 0
      vertex 9.29777 3.68125 0
    endloop
  endfacet
  facet normal 0 0 -1
    outer loop
      vertex 5.57866 2.20875 0
      vertex 9.29777 3.68125 0
      vertex 9.68583 2.4869 0
    endloop
  endfacet
  facet normal 0 0 -1
    outer loop
      vertex 5.8115 1.49214 0
      vertex 9.68583 2.4869 0
      vertex 9.92115 1.25333 0
    endloop
  endfacet
  facet normal 0 0 -1
    outer loop
      vertex 6 0 0
      vertex 9.92115 1.25333 0
      vertex 10 0 0
    endloop
  endfacet
  facet normal 0 0 -1
    outer loop
      vertex 5.95269 -0.751999 0
      vertex 10 0 0
      vertex 9.92115 -1.25333 0
    endloop
  endfacet
  facet normal 0 0 -1
    outer loop
      vertex 5.57866 -2.20875 0
      vertex 9.92115 -1.25333 0
      vertex 9.68583 -2.4869 0
    endloop
  endfacet
  facet normal 0 0 -1
    outer loop
      vertex 5.25784 -2.89052 0
      vertex 9.68583 -2.4869 0
      vertex 9.29777 -3.68125 0
    endloop
  endfacet
  facet normal 0 0 -1
    outer loop
      vertex 4.8541 -3.52671 0
      vertex 9.29777 -3.68125 0
      vertex 8.76307 -4.81754 0
    endloop
  endfacet
  facet normal 0 0 -1
    outer loop
      vertex 3.82454 -4.62308 0
      vertex 8.76307 -4.81754 0
      vertex 8.09017 -5.87785 0
    endloop
  endfacet
  facet normal 0 0 -1
    outer loop
      vertex 3.21496 -5.06597 0
      vertex 8.09017 -5.87785 0
      vertex 7.28969 -6.84547 0
    endloop
  endfacet
  facet normal 0 0 -1
    outer loop
      vertex 1.8541 -5.70634 0
      vertex 7.28969 -6.84547 0
      vertex 6.37424 -7.70513 0
    endloop
  endfacet
  facet normal 0 0 -1
    outer loop
      vertex 0.376743 -5.98816 0
      vertex 6.37424 -7.70513 0
      vertex 5.35827 -8.44328 0
    endloop
  endfacet
  facet normal 0 0 -1
    outer loop
      vertex -1.12429 -5.89372 0
      vertex 5.35827 -8.44328 0
      vertex 4.25779 -9.04827 0
    endloop
  endfacet
  facet normal 0 0 -1
    outer loop
      vertex -2.55468 -5.42896 0
      vertex 4.25779 -9.04827 0
      vertex 3.09017 -9.51056 0
    endloop
  endfacet
  facet normal 0 0 -1
    outer loop
      vertex -9.92115 -1.25333 0
      vertex 3.09017 -9.51056 0
      vertex 1.87381 -9.82287 0
    endloop
  endfacet
  facet normal 0 0 -1
    outer loop
      vertex -9.92115 -1.25333 0
      vertex 1.87381 -9.82287 0
      vertex 0.627905 -9.98027 0
    endloop
  endfacet
  facet normal 0 0 -1
    outer loop
      vertex -9.92115 -1.25333 0
      vertex 0.627905 -9.98027 0
      vertex -0.627905 -9.98027 0
    endloop
  endfacet
  facet normal 0 0 -1
    outer loop
      vertex -9.92115 -1.25333 0
      vertex -0.627905 -9.98027 0
      vertex -1.87381 -9.82287 0
    endloop
  endfacet
  facet normal 0 0 -1
    outer loop
      vertex -9.92115 -1.25333 0
      vertex -1.87381 -9.82287 0
      vertex -3.09017 -9.51056 0
    endloop
  endfacet
  facet normal 0 0 -1
    outer loop
      vertex -9.92115 -1.25333 0
      vertex -3.09017 -9.51056 0
      vertex -4.25779 -9.04827 0
    endloop
  endfacet
  facet normal 0 0 -1
    outer loop
      vertex -9.92115 -1.25333 0
      vertex -4.25779 -9.04827 0
      vertex -5.35827 -8.44328 0
    endloop
  endfacet
  facet normal 0 0 -1
    outer loop
      vertex -9.92115 -1.25333 0
      vertex -5.35827 -8.44328 0
      vertex -6.37424 -7.70513 0
    endloop
  endfacet
  facet normal 0 0 -1
    outer loop
      vertex -9.92115 -1.25333 0
      vertex -6.37424 -7.70513 0
      vertex -7.28969 -6.84547 0
    endloop
  endfacet
  facet normal 0 0 -1
    outer loop
      vertex -9.92115 -1.25333 0
      vertex -7.28969 -6.84547 0
      vertex -8.09017 -5.87785 0
    endloop
  endfacet
  facet normal 0 0 -1
    outer loop
      vertex -9.92115 -1.25333 0
      vertex -8.09017 -5.87785 0
      vertex -8.76307 -4.81754 0
    endloop
  endfacet
  facet normal 0 0 -1
    outer loop
      vertex -9.92115 -1.25333 0
      vertex -8.76307 -4.81754 0
      vertex -9.29777 -3.68125 0
    endloop
  endfacet
  facet normal 0 0 -1
    outer loop
      vertex -9.92115 -1.25333 0
      vertex -9.29777 -3.68125 0
      vertex -9.68583 -2.4869 0
    endloop
  endfacet
  facet normal 0 0 -1
    outer loop
      vertex -5.95269 -0.751999 0
      vertex -9.92115 -1.25333 0
      vertex -6 0 0
    endloop
  endfacet
  facet normal 0 0 -1
    outer loop
      vertex 5.8115 1.49214 0
      vertex 9.92115 1.25333 0
      vertex 5.95269 0.751999 0
    endloop
  endfacet
  facet normal 0 0 -1
    outer loop
      vertex -5.8115 -1.49214 0
      vertex -9.92115 -1.25333 0
      vertex -5.95269 -0.751999 0
    endloop
  endfacet
  facet normal 0 0 -1
    outer loop
      vertex -5.57866 -2.20875 0
      vertex -9.92115 -1.25333 0
      vertex -5.8115 -1.49214 0
    endloop
  endfacet
  facet normal 0 0 -1
    outer loop
      vertex -5.25784 -2.89052 0
      vertex -9.92115 -1.25333 0
      vertex -5.57866 -2.20875 0
    endloop
  endfacet
  facet normal 0 0 -1
    outer loop
      vertex -4.8541 -3.52671 0
      vertex -9.92115 -1.25333 0
      vertex -5.25784 -2.89052 0
    endloop
  endfacet
  facet normal 0 0 -1
    outer loop
      vertex -4.37381 -4.10728 0
      vertex -9.92115 -1.25333 0
      vertex -4.8541 -3.52671 0
    endloop
  endfacet
  facet normal 0 0 -1
    outer loop
      vertex -3.82454 -4.62308 0
      vertex -9.92115 -1.25333 0
      vertex -4.37381 -4.10728 0
    endloop
  endfacet
  facet normal 0 0 -1
    outer loop
      vertex -2.55468 -5.42896 0
      vertex 3.09017 -9.51056 0
      vertex -3.21496 -5.06597 0
    endloop
  endfacet
  facet normal 0 0 -1
    outer loop
      vertex -9.92115 -1.25333 0
      vertex -3.82454 -4.62308 0
      vertex -3.21496 -5.06597 0
    endloop
  endfacet
  facet normal 0 0 -1
    outer loop
      vertex -9.92115 -1.25333 0
      vertex -3.21496 -5.06597 0
      vertex 3.09017 -9.51056 0
    endloop
  endfacet
  facet normal 0 0 -1
    outer loop
      vertex -1.8541 -5.70634 0
      vertex 4.25779 -9.04827 0
      vertex -2.55468 -5.42896 0
    endloop
  endfacet
  facet normal 0 0 -1
    outer loop
      vertex -1.12429 -5.89372 0
      vertex 4.25779 -9.04827 0
      vertex -1.8541 -5.70634 0
    endloop
  endfacet
  facet normal 0 0 -1
    outer loop
      vertex -0.376743 -5.98816 0
      vertex 5.35827 -8.44328 0
      vertex -1.12429 -5.89372 0
    endloop
  endfacet
  facet normal 0 0 -1
    outer loop
      vertex 0.376743 -5.98816 0
      vertex 5.35827 -8.44328 0
      vertex -0.376743 -5.98816 0
    endloop
  endfacet
  facet normal 0 0 -1
    outer loop
      vertex 1.12429 -5.89372 0
      vertex 6.37424 -7.70513 0
      vertex 0.376743 -5.98816 0
    endloop
  endfacet
  facet normal 0 0 -1
    outer loop
      vertex 1.8541 -5.70634 0
      vertex 6.37424 -7.70513 0
      vertex 1.12429 -5.89372 0
    endloop
  endfacet
  facet normal 0 0 -1
    outer loop
      vertex 2.55468 -5.42896 0
      vertex 7.28969 -6.84547 0
      vertex 1.8541 -5.70634 0
    endloop
  endfacet
  facet normal 0 0 -1
    outer loop
      vertex 3.21496 -5.06597 0
      vertex 7.28969 -6.84547 0
      vertex 2.55468 -5.42896 0
    endloop
  endfacet
  facet normal 0 0 -1
    outer loop
      vertex 4.37381 -4.10728 0
      vertex 8.76307 -4.81754 0
      vertex 3.82454 -4.62308 0
    endloop
  endfacet
  facet normal 0 0 -1
    outer loop
      vertex 4.8541 -3.52671 0
      vertex 8.76307 -4.81754 0
      vertex 4.37381 -4.10728 0
    endloop
  endfacet
  facet normal 0 0 -1
    outer loop
      vertex 3.82454 -4.62308 0
      vertex 8.09017 -5.87785 0
      vertex 3.21496 -5.06597 0
    endloop
  endfacet
  facet normal 0 0 -1
    outer loop
      vertex 5.8115 -1.49214 0
      vertex 9.92115 -1.25333 0
      vertex 5.57866 -2.20875 0
    endloop
  endfacet
  facet normal 0 0 -1
    outer loop
      vertex 5.95269 -0.751999 0
      vertex 9.92115 -1.25333 0
      vertex 5.8115 -1.49214 0
    endloop
  endfacet
  facet normal 0 0 -1
    outer loop
      vertex 5.57866 -2.20875 0
      vertex 9.68583 -2.4869 0
      vertex 5.25784 -2.89052 0
    endloop
  endfacet
  facet normal 0 0 -1
    outer loop
      vertex 5.95269 0.751999 0
      vertex 9.92115 1.25333 0
      vertex 6 0 0
    endloop
  endfacet
  facet normal 0 0 -1
    outer loop
      vertex 5.25784 -2.89052 0
      vertex 9.29777 -3.68125 0
      vertex 4.8541 -3.52671 0
    endloop
  endfacet
  facet normal 0 0 -1
    outer loop
      vertex 5.57866 2.20875 0
      vertex 9.68583 2.4869 0
      vertex 5.8115 1.49214 0
    endloop
  endfacet
  facet normal 0 0 -1
    outer loop
      vertex 4.8541 3.52671 0
      vertex 8.76307 4.81754 0
      vertex 5.25784 2.89052 0
    endloop
  endfacet
  facet normal 0 0 -1
    outer loop
      vertex 4.37381 4.10728 0
      vertex 8.76307 4.81754 0
      vertex 4.8541 3.52671 0
    endloop
  endfacet
  facet normal 0 0 -1
    outer loop
      vertex 5.25784 2.89052 0
      vertex 9.29777 3.68125 0
      vertex 5.57866 2.20875 0
    endloop
  endfacet
  facet normal 0 0 -1
    outer loop
      vertex 2.55468 5.42896 0
      vertex 6.37424 7.70513 0
      vertex 3.21496 5.06597 0
    endloop
  endfacet
  facet normal 0 0 -1
    outer loop
      vertex 6 0 0
      vertex 10 0 0
      vertex 5.95269 -0.751999 0
    endloop
  endfacet
  facet normal 0 0 -1
    outer loop
      vertex 1.12429 5.89372 0
      vertex 5.35827 8.44328 0
      vertex 1.8541 5.70634 0
    endloop
  endfacet
  facet normal 0 0 -1
    outer loop
      vertex 0.376743 5.98816 0
      vertex 4.25779 9.04827 0
      vertex 1.12429 5.89372 0
    endloop
  endfacet
  facet normal 0 0 -1
    outer loop
      vertex -0.376743 5.98816 0
      vertex 4.25779 9.04827 0
      vertex 0.376743 5.98816 0
    endloop
  endfacet
  facet normal 0 0 -1
    outer loop
      vertex -1.12429 5.89372 0
      vertex 3.09017 9.51056 0
      vertex -0.376743 5.98816 0
    endloop
  endfacet
  facet normal 0 0 -1
    outer loop
      vertex -1.8541 5.70634 0
      vertex 3.09017 9.51056 0
      vertex -1.12429 5.89372 0
    endloop
  endfacet
  facet normal 0 0 -1
    outer loop
      vertex -2.55468 5.42896 0
      vertex 1.87381 9.82287 0
      vertex -1.8541 5.70634 0
    endloop
  endfacet
  facet normal 0 0 -1
    outer loop
      vertex -3.21496 5.06597 0
      vertex 1.87381 9.82287 0
      vertex -2.55468 5.42896 0
    endloop
  endfacet
  facet normal 0 0 -1
    outer loop
      vertex -3.82454 4.62308 0
      vertex 0.627905 9.98027 0
      vertex -3.21496 5.06597 0
    endloop
  endfacet
  facet normal 0 0 -1
    outer loop
      vertex -4.8541 3.52671 0
      vertex -9.92115 -1.25333 0
      vertex -4.37381 4.10728 0
    endloop
  endfacet
  facet normal 0 0 -1
    outer loop
      vertex -4.37381 4.10728 0
      vertex 0.627905 9.98027 0
      vertex -3.82454 4.62308 0
    endloop
  endfacet
  facet normal 0 0 -1
    outer loop
      vertex -9.92115 -1.25333 0
      vertex 0.627905 9.98027 0
      vertex -4.37381 4.10728 0
    endloop
  endfacet
  facet normal 0 0 -1
    outer loop
      vertex -5.25784 2.89052 0
      vertex -9.92115 -1.25333 0
      vertex -4.8541 3.52671 0
    endloop
  endfacet
  facet normal 0 0 -1
    outer loop
      vertex -5.57866 2.20875 0
      vertex -9.92115 -1.25333 0
      vertex -5.25784 2.89052 0
    endloop
  endfacet
  facet normal 0 0 -1
    outer loop
      vertex -5.8115 1.49214 0
      vertex -9.92115 -1.25333 0
      vertex -5.57866 2.20875 0
    endloop
  endfacet
  facet normal 0 0 -1
    outer loop
      vertex -5.95269 0.751999 0
      vertex -9.92115 -1.25333 0
      vertex -5.8115 1.49214 0
    endloop
  endfacet
  facet normal 0 0 -1
    outer loop
      vertex -6 0 0
      vertex -9.92115 -1.25333 0
      vertex -5.95269 0.751999 0
    endloop
  endfacet
  facet normal 0 0 -1
    outer loop
      vertex 1.8541 5.70634 0
      vertex 6.37424 7.70513 0
      vertex 2.55468 5.42896 0
    endloop
  endfacet
  facet normal 0 0 -1
    outer loop
      vertex 3.21496 5.06597 0
      vertex 7.28969 6.84547 0
      vertex 3.82454 4.62308 0
    endloop
  endfacet
  facet normal 0 0 -1
    outer loop
      vertex 3.82454 4.62308 0
      vertex 8.09017 5.87785 0
      vertex 4.37381 4.10728 0
    endloop
  endfacet
  facet normal -0.998027 0.0627905 0
    outer loop
      vertex -10 0 0
      vertex -10 0 2
      vertex -9.92115 1.25333 0
    endloop
  endfacet
  facet normal -0.998027 0.0627905 0
    outer loop
      vertex -9.92115 1.25333 0
      vertex -10 0 2
      vertex -9.92115 1.25333 2
    endloop
  endfacet
  facet normal -0.998027 -0.0627905 0
    outer loop
      vertex -10 0 0
      vertex -9.92115 -1.25333 0
      vertex -10 0 2
    endloop
  endfacet
  facet normal -0.998027 -0.0627905 0
    outer loop
      vertex -10 0 2
      vertex -9.92115 -1.25333 0
      vertex -9.92115 -1.25333 2
    endloop
  endfacet
  facet normal -0.982287 -0.187381 0
    outer loop
      vertex -9.92115 -1.25333 0
      vertex -9.68583 -2.4869 0
      vertex -9.92115 -1.25333 2
    endloop
  endfacet
  facet normal -0.982287 -0.187381 0
    outer loop
      vertex -9.92115 -1.25333 2
      vertex -9.68583 -2.4869 0
      vertex -9.68583 -2.4869 2
    endloop
  endfacet
  facet normal -0.951056 -0.309017 0
    outer loop
      vertex -9.68583 -2.4869 0
      vertex -9.29777 -3.68125 0
      vertex -9.68583 -2.4869 2
    endloop
  endfacet
  facet normal -0.951056 -0.309017 0
    outer loop
      vertex -9.68583 -2.4869 2
      vertex -9.29777 -3.68125 0
      vertex -9.29777 -3.68125 2
    endloop
  endfacet
  facet normal -0.904827 -0.425779 0
    outer loop
      vertex -9.29777 -3.68125 0
      vertex -8.76307 -4.81754 0
      vertex -9.29777 -3.68125 2
    endloop
  endfacet
  facet normal -0.904827 -0.425779 0
    outer loop
      vertex -9.29777 -3.68125 2
      vertex -8.76307 -4.81754 0
      vertex -8.76307 -4.81754 2
    endloop
  endfacet
  facet normal -0.844328 -0.535827 0
    outer loop
      vertex -8.76307 -4.81754 0
      vertex -8.09017 -5.87785 0
      vertex -8.76307 -4.81754 2
    endloop
  endfacet
  facet normal -0.844328 -0.535827 0
    outer loop
      vertex -8.76307 -4.81754 2
      vertex -8.09017 -5.87785 0
      vertex -8.09017 -5.87785 2
    endloop
  endfacet
  facet normal -0.770513 -0.637424 0
    outer loop
      vertex -8.09017 -5.87785 0
      vertex -7.28969 -6.84547 0
      vertex -8.09017 -5.87785 2
    endloop
  endfacet
  facet normal -0.770513 -0.637424 0
    outer loop
      vertex -8.09017 -5.87785 2
      vertex -7.28969 -6.84547 0
      vertex -7.28969 -6.84547 2
    endloop
  endfacet
  facet normal -0.684547 -0.728969 0
    outer loop
      vertex -7.28969 -6.84547 2
      vertex -7.28969 -6.84547 0
      vertex -6.37424 -7.70513 0
    endloop
  endfacet
  facet normal -0.684547 -0.728969 0
    outer loop
      vertex -6.37424 -7.70513 2
      vertex -7.28969 -6.84547 2
      vertex -6.37424 -7.70513 0
    endloop
  endfacet
  facet normal -0.587785 -0.809017 0
    outer loop
      vertex -6.37424 -7.70513 2
      vertex -6.37424 -7.70513 0
      vertex -5.35827 -8.44328 0
    endloop
  endfacet
  facet normal -0.587785 -0.809017 0
    outer loop
      vertex -5.35827 -8.44328 2
      vertex -6.37424 -7.70513 2
      vertex -5.35827 -8.44328 0
    endloop
  endfacet
  facet normal -0.481754 -0.876306 0
    outer loop
      vertex -5.35827 -8.44328 2
      vertex -5.35827 -8.44328 0
      vertex -4.25779 -9.04827 0
    endloop
  endfacet
  facet normal -0.481754 -0.876306 0
    outer loop
      vertex -4.25779 -9.04827 2
      vertex -5.35827 -8.44328 2
      vertex -4.25779 -9.04827 0
    endloop
  endfacet
  facet normal -0.368124 -0.929777 0
    outer loop
      vertex -4.25779 -9.04827 2
      vertex -4.25779 -9.04827 0
      vertex -3.09017 -9.51056 0
    endloop
  endfacet
  facet normal -0.368124 -0.929777 0
    outer loop
      vertex -3.09017 -9.51056 2
      vertex -4.25779 -9.04827 2
      vertex -3.09017 -9.51056 0
    endloop
  endfacet
  facet normal -0.24869 -0.968583 0
    outer loop
      vertex -3.09017 -9.51056 2
      vertex -3.09017 -9.51056 0
      vertex -1.87381 -9.82287 0
    endloop
  endfacet
  facet normal -0.24869 -0.968583 0
    outer loop
      vertex -1.87381 -9.82287 2
      vertex -3.09017 -9.51056 2
      vertex -1.87381 -9.82287 0
    endloop
  endfacet
  facet normal -0.125333 -0.992115 0
    outer loop
      vertex -1.87381 -9.82287 2
      vertex -1.87381 -9.82287 0
      vertex -0.627905 -9.98027 0
    endloop
  endfacet
  facet normal -0.125333 -0.992115 0
    outer loop
      vertex -0.627905 -9.98027 2
      vertex -1.87381 -9.82287 2
      vertex -0.627905 -9.98027 0
    endloop
  endfacet
  facet normal 0 -1 0
    outer loop
      vertex -0.627905 -9.98027 2
      vertex -0.627905 -9.98027 0
      vertex 0.627905 -9.98027 0
    endloop
  endfacet
  facet normal 0 -1 0
    outer loop
      vertex 0.627905 -9.98027 2
      vertex -0.627905 -9.98027 2
      vertex 0.627905 -9.98027 0
    endloop
  endfacet
  facet normal 0.125333 -0.992115 0
    outer loop
      vertex 0.627905 -9.98027 2
      vertex 0.627905 -9.98027 0
      vertex 1.87381 -9.82287 0
    endloop
  endfacet
  facet normal 0.125333 -0.992115 0
    outer loop
      vertex 1.87381 -9.82287 2
      vertex 0.627905 -9.98027 2
      vertex 1.87381 -9.82287 0
    endloop
  endfacet
  facet normal 0.24869 -0.968583 0
    outer loop
      vertex 1.87381 -9.82287 2
      vertex 1.87381 -9.82287 0
      vertex 3.09017 -9.51056 0
    endloop
  endfacet
  facet normal 0.24869 -0.968583 0
    outer loop
      vertex 3.09017 -9.51056 2
      vertex 1.87381 -9.82287 2
      vertex 3.09017 -9.51056 0
    endloop
  endfacet
  facet normal 0.368124 -0.929777 0
    outer loop
      vertex 3.09017 -9.51056 2
      vertex 3.09017 -9.51056 0
      vertex 4.25779 -9.04827 0
    endloop
  endfacet
  facet normal 0.368124 -0.929777 0
    outer loop
      vertex 4.25779 -9.04827 2
      vertex 3.09017 -9.51056 2
      vertex 4.25779 -9.04827 0
    endloop
  endfacet
  facet normal 0.481754 -0.876306 0
    outer loop
      vertex 4.25779 -9.04827 2
      vertex 4.25779 -9.04827 0
      vertex 5.35827 -8.44328 0
    endloop
  endfacet
  facet normal 0.481754 -0.876306 0
    outer loop
      vertex 5.35827 -8.44328 2
      vertex 4.25779 -9.04827 2
      vertex 5.35827 -8.44328 0
    endloop
  endfacet
  facet normal 0.587785 -0.809017 0
    outer loop
      vertex 5.35827 -8.44328 2
      vertex 5.35827 -8.44328 0
      vertex 6.37424 -7.70513 0
    endloop
  endfacet
  facet normal 0.587785 -0.809017 0
    outer loop
      vertex 6.37424 -7.70513 2
      vertex 5.35827 -8.44328 2
      vertex 6.37424 -7.70513 0
    endloop
  endfacet
  facet normal 0.684547 -0.728969 0
    outer loop
      vertex 6.37424 -7.70513 2
      vertex 6.37424 -7.70513 0
      vertex 7.28969 -6.84547 0
    endloop
  endfacet
  facet normal 0.684547 -0.728969 0
    outer loop
      vertex 7.28969 -6.84547 2
      vertex 6.37424 -7.70513 2
      vertex 7.28969 -6.84547 0
    endloop
  endfacet
  facet normal 0.770513 -0.637424 0
    outer loop
      vertex 7.28969 -6.84547 2
      vertex 7.28969 -6.84547 0
      vertex 8.09017 -5.87785 0
    endloop
  endfacet
  facet normal 0.770513 -0.637424 0
    outer loop
      vertex 8.09017 -5.87785 2
      vertex 7.28969 -6.84547 2
      vertex 8.09017 -5.87785 0
    endloop
  endfacet
  facet normal 0.844328 -0.535827 0
    outer loop
      vertex 8.09017 -5.87785 2
      vertex 8.09017 -5.87785 0
      vertex 8.76307 -4.81754 0
    endloop
  endfacet
  facet normal 0.844328 -0.535827 0
    outer loop
      vertex 8.76307 -4.81754 2
      vertex 8.09017 -5.87785 2
      vertex 8.76307 -4.81754 0
    endloop
  endfacet
  facet normal 0.904827 -0.425779 0
    outer loop
      vertex 8.76307 -4.81754 2
      vertex 8.76307 -4.81754 0
      vertex 9.29777 -3.68125 0
    endloop
  endfacet
  facet normal 0.904827 -0.425779 0
    outer loop
      vertex 9.29777 -3.68125 2
      vertex 8.76307 -4.81754 2
      vertex 9.29777 -3.68125 0
    endloop
  endfacet
  facet normal 0.951056 -0.309017 0
    outer loop
      vertex 9.29777 -3.68125 2
      vertex 9.29777 -3.68125 0
      vertex 9.68583 -2.4869 0
    endloop
  endfacet
  facet normal 0.951056 -0.309017 0
    outer loop
      vertex 9.68583 -2.4869 2
      vertex 9.29777 -3.68125 2
      vertex 9.68583 -2.4869 0
    endloop
  endfacet
  facet normal 0.982287 -0.187381 0
    outer loop
      vertex 9.68583 -2.4869 2
      vertex 9.68583 -2.4869 0
      vertex 9.92115 -1.25333 0
    endloop
  endfacet
  facet normal 0.982287 -0.187381 0
    outer loop
      vertex 9.92115 -1.25333 2
      vertex 9.68583 -2.4869 2
      vertex 9.92115 -1.25333 0
    endloop
  endfacet
  facet normal 0.998027 -0.0627905 0
    outer loop
      vertex 9.92115 -1.25333 2
      vertex 9.92115 -1.25333 0
      vertex 10 0 0
    endloop
  endfacet
  facet normal 0.998027 -0.0627905 0
    outer loop
      vertex 10 0 2
      vertex 9.92115 -1.25333 2
      vertex 10 0 0
    endloop
  endfacet
  facet normal 0.998027 0.0627905 0
    outer loop
      vertex 10 0 0
      vertex 9.92115 1.25333 0
      vertex 9.92115 1.25333 2
    endloop
  endfacet
  facet normal 0.998027 0.0627905 0
    outer loop
      vertex 10 0 2
      vertex 10 0 0
      vertex 9.92115 1.25333 2
    endloop
  endfacet
  facet normal 0.982287 0.187381 0
    outer loop
      vertex 9.92115 1.25333 0
      vertex 9.68583 2.4869 0
      vertex 9.68583 2.4869 2
    endloop
  endfacet
  facet normal 0.982287 0.187381 0
    outer loop
      vertex 9.92115 1.25333 2
      vertex 9.92115 1.25333 0
      vertex 9.68583 2.4869 2
    endloop
  endfacet
  facet normal 0.951056 0.309017 0
    outer loop
      vertex 9.68583 2.4869 0
      vertex 9.29777 3.68125 0
      vertex 9.29777 3.68125 2
    endloop
  endfacet
  facet normal 0.951056 0.309017 0
    outer loop
      vertex 9.68583 2.4869 2
      vertex 9.68583 2.4869 0
      vertex 9.29777 3.68125 2
    endloop
  endfacet
  facet normal 0.904827 0.425779 0
    outer loop
      vertex 9.29777 3.68125 0
      vertex 8.76307 4.81754 0
      vertex 8.76307 4.81754 2
    endloop
  endfacet
  facet normal 0.904827 0.425779 0
    outer loop
      vertex 9.29777 3.68125 2
      vertex 9.29777 3.68125 0
      vertex 8.76307 4.81754 2
    endloop
  endfacet
  facet normal 0.844328 0.535827 0
    outer loop
      vertex 8.76307 4.81754 0
      vertex 8.09017 5.87785 0
      vertex 8.09017 5.87785 2
    endloop
  endfacet
  facet normal 0.844328 0.535827 0
    outer loop
      vertex 8.76307 4.81754 2
      vertex 8.76307 4.81754 0
      vertex 8.09017 5.87785 2
    endloop
  endfacet
  facet normal 0.770513 0.637424 0
    outer loop
      vertex 8.09017 5.87785 0
      vertex 7.28969 6.84547 0
      vertex 7.28969 6.84547 2
    endloop
  endfacet
  facet normal 0.770513 0.637424 0
    outer loop
      vertex 8.09017 5.87785 2
      vertex 8.09017 5.87785 0
      vertex 7.28969 6.84547 2
    endloop
  endfacet
  facet normal 0.684547 0.728969 0
    outer loop
      vertex 6.37424 7.70513 0
      vertex 6.37424 7.70513 2
      vertex 7.28969 6.84547 0
    endloop
  endfacet
  facet normal 0.684547 0.728969 0
    outer loop
      vertex 7.28969 6.84547 0
      vertex 6.37424 7.70513 2
      vertex 7.28969 6.84547 2
    endloop
  endfacet
  facet normal 0.587785 0.809017 0
    outer loop
      vertex 5.35827 8.44328 0
      vertex 5.35827 8.44328 2
      vertex 6.37424 7.70513 0
    endloop
  endfacet
  facet normal 0.587785 0.809017 0
    outer loop
      vertex 6.37424 7.70513 0
      vertex 5.35827 8.44328 2
      vertex 6.37424 7.70513 2
    endloop
  endfacet
  facet normal 0.481754 0.876306 0
    outer loop
      vertex 4.25779 9.04827 0
      vertex 4.25779 9.04827 2
      vertex 5.35827 8.44328 0
    endloop
  endfacet
  facet normal 0.481754 0.876306 0
    outer loop
      vertex 5.35827 8.44328 0
      vertex 4.25779 9.04827 2
      vertex 5.35827 8.44328 2
    endloop
  endfacet
  facet normal 0.368124 0.929777 0
    outer loop
      vertex 3.09017 9.51056 0
      vertex 3.09017 9.51056 2
      vertex 4.25779 9.04827 0
    endloop
  endfacet
  facet normal 0.368124 0.929777 0
    outer loop
      vertex 4.25779 9.04827 0
      vertex 3.09017 9.51056 2
      vertex 4.25779 9.04827 2
    endloop
  endfacet
  facet normal 0.24869 0.968583 0
    outer loop
      vertex 1.87381 9.82287 0
      vertex 1.87381 9.82287 2
      vertex 3.09017 9.51056 0
    endloop
  endfacet
  facet normal 0.24869 0.968583 0
    outer loop
      vertex 3.09017 9.51056 0
      vertex 1.87381 9.82287 2
      vertex 3.09017 9.51056 2
    endloop
  endfacet
  facet normal 0.125333 0.992115 0
    outer loop
      vertex 0.627905 9.98027 0
      vertex 0.627905 9.98027 2
      vertex 1.87381 9.82287 0
    endloop
  endfacet
  facet normal 0.125333 0.992115 0
    outer loop
      vertex 1.87381 9.82287 0
      vertex 0.627905 9.98027 2
      vertex 1.87381 9.82287 2
    endloop
  endfacet
  facet normal 0 1 0
    outer loop
      vertex -0.627905 9.98027 0
      vertex -0.627905 9.98027 2
      vertex 0.627905 9.98027 0
    endloop
  endfacet
  facet normal 0 1 0
    outer loop
      vertex 0.627905 9.98027 0
      vertex -0.627905 9.98027 2
      vertex 0.627905 9.98027 2
    endloop
  endfacet
  facet normal -0.125333 0.992115 0
    outer loop
      vertex -1.87381 9.82287 0
      vertex -1.87381 9.82287 2
      vertex -0.627905 9.98027 0
    endloop
  endfacet
  facet normal -0.125333 0.992115 0
    outer loop
      vertex -0.627905 9.98027 0
      vertex -1.87381 9.82287 2
      vertex -0.627905 9.98027 2
    endloop
  endfacet
  facet normal -0.24869 0.968583 0
    outer loop
      vertex -3.09017 9.51056 0
      vertex -3.09017 9.51056 2
      vertex -1.87381 9.82287 0
    endloop
  endfacet
  facet normal -0.24869 0.968583 0
    outer loop
      vertex -1.87381 9.82287 0
      vertex -3.09017 9.51056 2
      vertex -1.87381 9.82287 2
    endloop
  endfacet
  facet normal -0.368124 0.929777 0
    outer loop
      vertex -4.25779 9.04827 0
      vertex -4.25779 9.04827 2
      vertex -3.09017 9.51056 0
    endloop
  endfacet
  facet normal -0.368124 0.929777 0
    outer loop
      vertex -3.09017 9.51056 0
      vertex -4.25779 9.04827 2
      vertex -3.09017 9.51056 2
    endloop
  endfacet
  facet normal -0.481754 0.876306 0
    outer loop
      vertex -5.35827 8.44328 0
      vertex -5.35827 8.44328 2
      vertex -4.25779 9.04827 0
    endloop
  endfacet
  facet normal -0.481754 0.876306 0
    outer loop
      vertex -4.25779 9.04827 0
      vertex -5.35827 8.44328 2
      vertex -4.25779 9.04827 2
    endloop
  endfacet
  facet normal -0.587785 0.809017 0
    outer loop
      vertex -6.37424 7.70513 0
      vertex -6.37424 7.70513 2
      vertex -5.35827 8.44328 0
    endloop
  endfacet
  facet normal -0.587785 0.809017 0
    outer loop
      vertex -5.35827 8.44328 0
      vertex -6.37424 7.70513 2
      vertex -5.35827 8.44328 2
    endloop
  endfacet
  facet normal -0.684547 0.728969 0
    outer loop
      vertex -7.28969 6.84547 0
      vertex -7.28969 6.84547 2
      vertex -6.37424 7.70513 0
    endloop
  endfacet
  facet normal -0.684547 0.728969 0
    outer loop
      vertex -6.37424 7.70513 0
      vertex -7.28969 6.84547 2
      vertex -6.37424 7.70513 2
    endloop
  endfacet
  facet normal -0.770513 0.637424 0
    outer loop
      vertex -8.09017 5.87785 0
      vertex -8.09017 5.87785 2
      vertex -7.28969 6.84547 0
    endloop
  endfacet
  facet normal -0.770513 0.637424 0
    outer loop
      vertex -7.28969 6.84547 0
      vertex -8.09017 5.87785 2
      vertex -7.28969 6.84547 2
    endloop
  endfacet
  facet normal -0.844328 0.535827 0
    outer loop
      vertex -8.76307 4.81754 0
      vertex -8.76307 4.81754 2
      vertex -8.09017 5.87785 0
    endloop
  endfacet
  facet normal -0.844328 0.535827 0
    outer loop
      vertex -8.09017 5.87785 0
      vertex -8.76307 4.81754 2
      vertex -8.09017 5.87785 2
    endloop
  endfacet
  facet normal -0.904827 0.425779 0
    outer loop
      vertex -9.29777 3.68125 0
      vertex -9.29777 3.68125 2
      vertex -8.76307 4.81754 0
    endloop
  endfacet
  facet normal -0.904827 0.425779 0
    outer loop
      vertex -8.76307 4.81754 0
      vertex -9.29777 3.68125 2
      vertex -8.76307 4.81754 2
    endloop
  endfacet
  facet normal -0.951056 0.309017 0
    outer loop
      vertex -9.68583 2.4869 0
      vertex -9.68583 2.4869 2
      vertex -9.29777 3.68125 0
    endloop
  endfacet
  facet normal -0.951056 0.309017 0
    outer loop
      vertex -9.29777 3.68125 0
      vertex -9.68583 2.4869 2
      vertex -9.29777 3.68125 2
    endloop
  endfacet
  facet normal -0.982287 0.187381 0
    outer loop
      vertex -9.92115 1.25333 0
      vertex -9.92115 1.25333 2
      vertex -9.68583 2.4869 0
    endloop
  endfacet
  facet normal -0.982287 0.187381 0
    outer loop
      vertex -9.68583 2.4869 0
      vertex -9.92115 1.25333 2
      vertex -9.68583 2.4869 2
    endloop
  endfacet
  facet normal 0.998027 0.0627908 0
    outer loop
      vertex -6 0 2
      vertex -5.95269 -0.751999 2
      vertex -5.95269 -0.751999 0
    endloop
  endfacet
  facet normal 0.998027 0.0627908 0
    outer loop
      vertex -6 0 0
      vertex -6 0 2
      vertex -5.95269 -0.751999 0
    endloop
  endfacet
  facet normal 0.998027 -0.0627908 0
    outer loop
      vertex -5.95269 0.751999 0
      vertex -5.95269 0.751999 2
      vertex -6 0 2
    endloop
  endfacet
  facet normal 0.998027 -0.0627908 0
    outer loop
      vertex -6 0 0
      vertex -5.95269 0.751999 0
      vertex -6 0 2
    endloop
  endfacet
  facet normal 0.982287 -0.187381 0
    outer loop
      vertex -5.8115 1.49214 0
      vertex -5.8115 1.49214 2
      vertex -5.95269 0.751999 2
    endloop
  endfacet
  facet normal 0.982287 -0.187381 0
    outer loop
      vertex -5.95269 0.751999 0
      vertex -5.8115 1.49214 0
      vertex -5.95269 0.751999 2
    endloop
  endfacet
  facet normal 0.951057 -0.309017 0
    outer loop
      vertex -5.57866 2.20875 0
      vertex -5.57866 2.20875 2
      vertex -5.8115 1.49214 2
    endloop
  endfacet
  facet normal 0.951057 -0.309017 0
    outer loop
      vertex -5.8115 1.49214 0
      vertex -5.57866 2.20875 0
      vertex -5.8115 1.49214 2
    endloop
  endfacet
  facet normal 0.904827 -0.425779 0
    outer loop
      vertex -5.25784 2.89052 0
      vertex -5.25784 2.89052 2
      vertex -5.57866 2.20875 2
    endloop
  endfacet
  facet normal 0.904827 -0.425779 0
    outer loop
      vertex -5.57866 2.20875 0
      vertex -5.25784 2.89052 0
      vertex -5.57866 2.20875 2
    endloop
  endfacet
  facet normal 0.844328 -0.535826 0
    outer loop
      vertex -4.8541 3.52671 0
      vertex -4.8541 3.52671 2
      vertex -5.25784 2.89052 2
    endloop
  endfacet
  facet normal 0.844328 -0.535826 0
    outer loop
      vertex -5.25784 2.89052 0
      vertex -4.8541 3.52671 0
      vertex -5.25784 2.89052 2
    endloop
  endfacet
  facet normal 0.770513 -0.637424 0
    outer loop
      vertex -4.37381 4.10728 0
      vertex -4.37381 4.10728 2
      vertex -4.8541 3.52671 2
    endloop
  endfacet
  facet normal 0.770513 -0.637424 0
    outer loop
      vertex -4.8541 3.52671 0
      vertex -4.37381 4.10728 0
      vertex -4.8541 3.52671 2
    endloop
  endfacet
  facet normal 0.684546 -0.728969 0
    outer loop
      vertex -3.82454 4.62308 0
      vertex -3.82454 4.62308 2
      vertex -4.37381 4.10728 2
    endloop
  endfacet
  facet normal 0.684546 -0.728969 0
    outer loop
      vertex -4.37381 4.10728 0
      vertex -3.82454 4.62308 0
      vertex -4.37381 4.10728 2
    endloop
  endfacet
  facet normal 0.587786 -0.809016 0
    outer loop
      vertex -3.21496 5.06597 0
      vertex -3.21496 5.06597 2
      vertex -3.82454 4.62308 2
    endloop
  endfacet
  facet normal 0.587786 -0.809016 0
    outer loop
      vertex -3.82454 4.62308 0
      vertex -3.21496 5.06597 0
      vertex -3.82454 4.62308 2
    endloop
  endfacet
  facet normal 0.481753 -0.876307 0
    outer loop
      vertex -2.55468 5.42896 0
      vertex -2.55468 5.42896 2
      vertex -3.21496 5.06597 2
    endloop
  endfacet
  facet normal 0.481753 -0.876307 0
    outer loop
      vertex -3.21496 5.06597 0
      vertex -2.55468 5.42896 0
      vertex -3.21496 5.06597 2
    endloop
  endfacet
  facet normal 0.368125 -0.929776 0
    outer loop
      vertex -1.8541 5.70634 0
      vertex -1.8541 5.70634 2
      vertex -2.55468 5.42896 2
    endloop
  endfacet
  facet normal 0.368125 -0.929776 0
    outer loop
      vertex -2.55468 5.42896 0
      vertex -1.8541 5.70634 0
      vertex -2.55468 5.42896 2
    endloop
  endfacet
  facet normal 0.248691 -0.968583 0
    outer loop
      vertex -1.12429 5.89372 0
      vertex -1.12429 5.89372 2
      vertex -1.8541 5.70634 2
    endloop
  endfacet
  facet normal 0.248691 -0.968583 0
    outer loop
      vertex -1.8541 5.70634 0
      vertex -1.12429 5.89372 0
      vertex -1.8541 5.70634 2
    endloop
  endfacet
  facet normal 0.125332 -0.992115 0
    outer loop
      vertex -0.376743 5.98816 0
      vertex -0.376743 5.98816 2
      vertex -1.12429 5.89372 2
    endloop
  endfacet
  facet normal 0.125332 -0.992115 0
    outer loop
      vertex -1.12429 5.89372 0
      vertex -0.376743 5.98816 0
      vertex -1.12429 5.89372 2
    endloop
  endfacet
  facet normal 0 -1 0
    outer loop
      vertex 0.376743 5.98816 0
      vertex 0.376743 5.98816 2
      vertex -0.376743 5.98816 2
    endloop
  endfacet
  facet normal 0 -1 0
    outer loop
      vertex -0.376743 5.98816 0
      vertex 0.376743 5.98816 0
      vertex -0.376743 5.98816 2
    endloop
  endfacet
  facet normal -0.125332 -0.992115 0
    outer loop
      vertex 1.12429 5.89372 0
      vertex 1.12429 5.89372 2
      vertex 0.376743 5.98816 2
    endloop
  endfacet
  facet normal -0.125332 -0.992115 0
    outer loop
      vertex 0.376743 5.98816 0
      vertex 1.12429 5.89372 0
      vertex 0.376743 5.98816 2
    endloop
  endfacet
  facet normal -0.248691 -0.968583 0
    outer loop
      vertex 1.8541 5.70634 0
      vertex 1.8541 5.70634 2
      vertex 1.12429 5.89372 2
    endloop
  endfacet
  facet normal -0.248691 -0.968583 0
    outer loop
      vertex 1.12429 5.89372 0
      vertex 1.8541 5.70634 0
      vertex 1.12429 5.89372 2
    endloop
  endfacet
  facet normal -0.368125 -0.929776 0
    outer loop
      vertex 2.55468 5.42896 0
      vertex 2.55468 5.42896 2
      vertex 1.8541 5.70634 2
    endloop
  endfacet
  facet normal -0.368125 -0.929776 0
    outer loop
      vertex 1.8541 5.70634 0
      vertex 2.55468 5.42896 0
      vertex 1.8541 5.70634 2
    endloop
  endfacet
  facet normal -0.481753 -0.876307 0
    outer loop
      vertex 3.21496 5.06597 0
      vertex 3.21496 5.06597 2
      vertex 2.55468 5.42896 2
    endloop
  endfacet
  facet normal -0.481753 -0.876307 0
    outer loop
      vertex 2.55468 5.42896 0
      vertex 3.21496 5.06597 0
      vertex 2.55468 5.42896 2
    endloop
  endfacet
  facet normal -0.587786 -0.809016 0
    outer loop
      vertex 3.82454 4.62308 0
      vertex 3.82454 4.62308 2
      vertex 3.21496 5.06597 2
    endloop
  endfacet
  facet normal -0.587786 -0.809016 0
    outer loop
      vertex 3.21496 5.06597 0
      vertex 3.82454 4.62308 0
      vertex 3.21496 5.06597 2
    endloop
  endfacet
  facet normal -0.684546 -0.728969 0
    outer loop
      vertex 4.37381 4.10728 0
      vertex 4.37381 4.10728 2
      vertex 3.82454 4.62308 2
    endloop
  endfacet
  facet normal -0.684546 -0.728969 0
    outer loop
      vertex 3.82454 4.62308 0
      vertex 4.37381 4.10728 0
      vertex 3.82454 4.62308 2
    endloop
  endfacet
  facet normal -0.770513 -0.637424 0
    outer loop
      vertex 4.8541 3.52671 2
      vertex 4.37381 4.10728 2
      vertex 4.8541 3.52671 0
    endloop
  endfacet
  facet normal -0.770513 -0.637424 0
    outer loop
      vertex 4.8541 3.52671 0
      vertex 4.37381 4.10728 2
      vertex 4.37381 4.10728 0
    endloop
  endfacet
  facet normal -0.844328 -0.535826 0
    outer loop
      vertex 5.25784 2.89052 2
      vertex 4.8541 3.52671 2
      vertex 5.25784 2.89052 0
    endloop
  endfacet
  facet normal -0.844328 -0.535826 0
    outer loop
      vertex 5.25784 2.89052 0
      vertex 4.8541 3.52671 2
      vertex 4.8541 3.52671 0
    endloop
  endfacet
  facet normal -0.904827 -0.425779 0
    outer loop
      vertex 5.57866 2.20875 2
      vertex 5.25784 2.89052 2
      vertex 5.57866 2.20875 0
    endloop
  endfacet
  facet normal -0.904827 -0.425779 0
    outer loop
      vertex 5.57866 2.20875 0
      vertex 5.25784 2.89052 2
      vertex 5.25784 2.89052 0
    endloop
  endfacet
  facet normal -0.951057 -0.309017 0
    outer loop
      vertex 5.8115 1.49214 2
      vertex 5.57866 2.20875 2
      vertex 5.8115 1.49214 0
    endloop
  endfacet
  facet normal -0.951057 -0.309017 0
    outer loop
      vertex 5.8115 1.49214 0
      vertex 5.57866 2.20875 2
      vertex 5.57866 2.20875 0
    endloop
  endfacet
  facet normal -0.982287 -0.187381 0
    outer loop
      vertex 5.95269 0.751999 2
      vertex 5.8115 1.49214 2
      vertex 5.95269 0.751999 0
    endloop
  endfacet
  facet normal -0.982287 -0.187381 0
    outer loop
      vertex 5.95269 0.751999 0
      vertex 5.8115 1.49214 2
      vertex 5.8115 1.49214 0
    endloop
  endfacet
  facet normal -0.998027 -0.0627908 0
    outer loop
      vertex 6 0 2
      vertex 5.95269 0.751999 2
      vertex 6 0 0
    endloop
  endfacet
  facet normal -0.998027 -0.0627908 0
    outer loop
      vertex 6 0 0
      vertex 5.95269 0.751999 2
      vertex 5.95269 0.751999 0
    endloop
  endfacet
  facet normal -0.998027 0.0627908 0
    outer loop
      vertex 6 0 2
      vertex 6 0 0
      vertex 5.95269 -0.751999 2
    endloop
  endfacet
  facet normal -0.998027 0.0627908 0
    outer loop
      vertex 5.95269 -0.751999 2
      vertex 6 0 0
      vertex 5.95269 -0.751999 0
    endloop
  endfacet
  facet normal -0.982287 0.187381 0
    outer loop
      vertex 5.95269 -0.751999 2
      vertex 5.95269 -0.751999 0
      vertex 5.8115 -1.49214 2
    endloop
  endfacet
  facet normal -0.982287 0.187381 0
    outer loop
      vertex 5.8115 -1.49214 2
      vertex 5.95269 -0.751999 0
      vertex 5.8115 -1.49214 0
    endloop
  endfacet
  facet normal -0.951057 0.309017 0
    outer loop
      vertex 5.8115 -1.49214 2
      vertex 5.8115 -1.49214 0
      vertex 5.57866 -2.20875 2
    endloop
  endfacet
  facet normal -0.951057 0.309017 0
    outer loop
      vertex 5.57866 -2.20875 2
      vertex 5.8115 -1.49214 0
      vertex 5.57866 -2.20875 0
    endloop
  endfacet
  facet normal -0.904827 0.425779 0
    outer loop
      vertex 5.57866 -2.20875 2
      vertex 5.57866 -2.20875 0
      vertex 5.25784 -2.89052 2
    endloop
  endfacet
  facet normal -0.904827 0.425779 0
    outer loop
      vertex 5.25784 -2.89052 2
      vertex 5.57866 -2.20875 0
      vertex 5.25784 -2.89052 0
    endloop
  endfacet
  facet normal -0.844328 0.535826 0
    outer loop
      vertex 5.25784 -2.89052 2
      vertex 5.25784 -2.89052 0
      vertex 4.8541 -3.52671 2
    endloop
  endfacet
  facet normal -0.844328 0.535826 0
    outer loop
      vertex 4.8541 -3.52671 2
      vertex 5.25784 -2.89052 0
      vertex 4.8541 -3.52671 0
    endloop
  endfacet
  facet normal -0.770513 0.637424 0
    outer loop
      vertex 4.8541 -3.52671 2
      vertex 4.8541 -3.52671 0
      vertex 4.37381 -4.10728 2
    endloop
  endfacet
  facet normal -0.770513 0.637424 0
    outer loop
      vertex 4.37381 -4.10728 2
      vertex 4.8541 -3.52671 0
      vertex 4.37381 -4.10728 0
    endloop
  endfacet
  facet normal -0.684546 0.728969 0
    outer loop
      vertex 4.37381 -4.10728 2
      vertex 4.37381 -4.10728 0
      vertex 3.82454 -4.62308 2
    endloop
  endfacet
  facet normal -0.684546 0.728969 0
    outer loop
      vertex 3.82454 -4.62308 2
      vertex 4.37381 -4.10728 0
      vertex 3.82454 -4.62308 0
    endloop
  endfacet
  facet normal -0.587786 0.809016 0
    outer loop
      vertex 3.82454 -4.62308 2
      vertex 3.82454 -4.62308 0
      vertex 3.21496 -5.06597 2
    endloop
  endfacet
  facet normal -0.587786 0.809016 0
    outer loop
      vertex 3.21496 -5.06597 2
      vertex 3.82454 -4.62308 0
      vertex 3.21496 -5.06597 0
    endloop
  endfacet
  facet normal -0.481753 0.876307 0
    outer loop
      vertex 3.21496 -5.06597 2
      vertex 3.21496 -5.06597 0
      vertex 2.55468 -5.42896 2
    endloop
  endfacet
  facet normal -0.481753 0.876307 0
    outer loop
      vertex 2.55468 -5.42896 2
      vertex 3.21496 -5.06597 0
      vertex 2.55468 -5.42896 0
    endloop
  endfacet
  facet normal -0.368125 0.929776 0
    outer loop
      vertex 2.55468 -5.42896 2
      vertex 2.55468 -5.42896 0
      vertex 1.8541 -5.70634 2
    endloop
  endfacet
  facet normal -0.368125 0.929776 0
    outer loop
      vertex 1.8541 -5.70634 2
      vertex 2.55468 -5.42896 0
      vertex 1.8541 -5.70634 0
    endloop
  endfacet
  facet normal -0.248691 0.968583 0
    outer loop
      vertex 1.8541 -5.70634 2
      vertex 1.8541 -5.70634 0
      vertex 1.12429 -5.89372 2
    endloop
  endfacet
  facet normal -0.248691 0.968583 0
    outer loop
      vertex 1.12429 -5.89372 2
      vertex 1.8541 -5.70634 0
      vertex 1.12429 -5.89372 0
    endloop
  endfacet
  facet normal -0.125332 0.992115 0
    outer loop
      vertex 1.12429 -5.89372 2
      vertex 1.12429 -5.89372 0
      vertex 0.376743 -5.98816 2
    endloop
  endfacet
  facet normal -0.125332 0.992115 0
    outer loop
      vertex 0.376743 -5.98816 2
      vertex 1.12429 -5.89372 0
      vertex 0.376743 -5.98816 0
    endloop
  endfacet
  facet normal 0 1 0
    outer loop
      vertex 0.376743 -5.98816 2
      vertex 0.376743 -5.98816 0
      vertex -0.376743 -5.98816 2
    endloop
  endfacet
  facet normal 0 1 0
    outer loop
      vertex -0.376743 -5.98816 2
      vertex 0.376743 -5.98816 0
      vertex -0.376743 -5.98816 0
    endloop
  endfacet
  facet normal 0.125332 0.992115 0
    outer loop
      vertex -0.376743 -5.98816 2
      vertex -0.376743 -5.98816 0
      vertex -1.12429 -5.89372 2
    endloop
  endfacet
  facet normal 0.125332 0.992115 0
    outer loop
      vertex -1.12429 -5.89372 2
      vertex -0.376743 -5.98816 0
      vertex -1.12429 -5.89372 0
    endloop
  endfacet
  facet normal 0.248691 0.968583 0
    outer loop
      vertex -1.12429 -5.89372 2
      vertex -1.12429 -5.89372 0
      vertex -1.8541 -5.70634 2
    endloop
  endfacet
  facet normal 0.248691 0.968583 0
    outer loop
      vertex -1.8541 -5.70634 2
      vertex -1.12429 -5.89372 0
      vertex -1.8541 -5.70634 0
    endloop
  endfacet
  facet normal 0.368125 0.929776 0
    outer loop
      vertex -1.8541 -5.70634 2
      vertex -1.8541 -5.70634 0
      vertex -2.55468 -5.42896 2
    endloop
  endfacet
  facet normal 0.368125 0.929776 0
    outer loop
      vertex -2.55468 -5.42896 2
      vertex -1.8541 -5.70634 0
      vertex -2.55468 -5.42896 0
    endloop
  endfacet
  facet normal 0.481753 0.876307 0
    outer loop
      vertex -2.55468 -5.42896 2
      vertex -2.55468 -5.42896 0
      vertex -3.21496 -5.06597 2
    endloop
  endfacet
  facet normal 0.481753 0.876307 0
    outer loop
      vertex -3.21496 -5.06597 2
      vertex -2.55468 -5.42896 0
      vertex -3.21496 -5.06597 0
    endloop
  endfacet
  facet normal 0.587786 0.809016 0
    outer loop
      vertex -3.21496 -5.06597 2
      vertex -3.21496 -5.06597 0
      vertex -3.82454 -4.62308 2
    endloop
  endfacet
  facet normal 0.587786 0.809016 0
    outer loop
      vertex -3.82454 -4.62308 2
      vertex -3.21496 -5.06597 0
      vertex -3.82454 -4.62308 0
    endloop
  endfacet
  facet normal 0.684546 0.728969 0
    outer loop
      vertex -3.82454 -4.62308 2
      vertex -3.82454 -4.62308 0
      vertex -4.37381 -4.10728 2
    endloop
  endfacet
  facet normal 0.684546 0.728969 0
    outer loop
      vertex -4.37381 -4.10728 2
      vertex -3.82454 -4.62308 0
      vertex -4.37381 -4.10728 0
    endloop
  endfacet
  facet normal 0.770513 0.637424 0
    outer loop
      vertex -4.8541 -3.52671 2
      vertex -4.37381 -4.10728 2
      vertex -4.37381 -4.10728 0
    endloop
  endfacet
  facet normal 0.770513 0.637424 0
    outer loop
      vertex -4.8541 -3.52671 0
      vertex -4.8541 -3.52671 2
      vertex -4.37381 -4.10728 0
    endloop
  endfacet
  facet normal 0.844328 0.535826 0
    outer loop
      vertex -5.25784 -2.89052 2
      vertex -4.8541 -3.52671 2
      vertex -4.8541 -3.52671 0
    endloop
  endfacet
  facet normal 0.844328 0.535826 0
    outer loop
      vertex -5.25784 -2.89052 0
      vertex -5.25784 -2.89052 2
      vertex -4.8541 -3.52671 0
    endloop
  endfacet
  facet normal 0.904827 0.425779 0
    outer loop
      vertex -5.57866 -2.20875 2
      vertex -5.25784 -2.89052 2
      vertex -5.25784 -2.89052 0
    endloop
  endfacet
  facet normal 0.904827 0.425779 0
    outer loop
      vertex -5.57866 -2.20875 0
      vertex -5.57866 -2.20875 2
      vertex -5.25784 -2.89052 0
    endloop
  endfacet
  facet normal 0.951057 0.309017 0
    outer loop
      vertex -5.8115 -1.49214 2
      vertex -5.57866 -2.20875 2
      vertex -5.57866 -2.20875 0
    endloop
  endfacet
  facet normal 0.951057 0.309017 0
    outer loop
      vertex -5.8115 -1.49214 0
      vertex -5.8115 -1.49214 2
      vertex -5.57866 -2.20875 0
    endloop
  endfacet
  facet normal 0.982287 0.187381 0
    outer loop
      vertex -5.95269 -0.751999 2
      vertex -5.8115 -1.49214 2
      vertex -5.8115 -1.49214 0
    endloop
  endfacet
  facet normal 0.982287 0.187381 0
    outer loop
      vertex -5.95269 -0.751999 0
      vertex -5.95269 -0.751999 2
      vertex -5.8115 -1.49214 0
    endloop
  endfacet
  facet normal 0 0 1
    outer loop
      vertex -9.92115 1.25333 2
      vertex -10 0 2
      vertex -9.92115 -1.25333 2
    endloop
  endfacet
  facet normal 0 0 1
    outer loop
      vertex -9.29777 -3.68125 2
      vertex -9.92115 1.25333 2
      vertex -9.68583 -2.4869 2
    endloop
  endfacet
  facet normal 0 0 1
    outer loop
      vertex -9.68583 -2.4869 2
      vertex -9.92115 1.25333 2
      vertex -9.92115 -1.25333 2
    endloop
  endfacet
  facet normal 0 0 1
    outer loop
      vertex -8.76307 -4.81754 2
      vertex -9.92115 1.25333 2
      vertex -9.29777 -3.68125 2
    endloop
  endfacet
  facet normal 0 0 1
    outer loop
      vertex -8.09017 -5.87785 2
      vertex -9.92115 1.25333 2
      vertex -8.76307 -4.81754 2
    endloop
  endfacet
  facet normal 0 0 1
    outer loop
      vertex -7.28969 -6.84547 2
      vertex -9.92115 1.25333 2
      vertex -8.09017 -5.87785 2
    endloop
  endfacet
  facet normal 0 0 1
    outer loop
      vertex -6.37424 -7.70513 2
      vertex -9.92115 1.25333 2
      vertex -7.28969 -6.84547 2
    endloop
  endfacet
  facet normal 0 0 1
    outer loop
      vertex -5.35827 -8.44328 2
      vertex -9.92115 1.25333 2
      vertex -6.37424 -7.70513 2
    endloop
  endfacet
  facet normal 0 0 1
    outer loop
      vertex -4.25779 -9.04827 2
      vertex -9.92115 1.25333 2
      vertex -5.35827 -8.44328 2
    endloop
  endfacet
  facet normal 0 0 1
    outer loop
      vertex -3.09017 -9.51056 2
      vertex -9.92115 1.25333 2
      vertex -4.25779 -9.04827 2
    endloop
  endfacet
  facet normal 0 0 1
    outer loop
      vertex -1.87381 -9.82287 2
      vertex -9.92115 1.25333 2
      vertex -3.09017 -9.51056 2
    endloop
  endfacet
  facet normal 0 0 1
    outer loop
      vertex -0.627905 -9.98027 2
      vertex -9.92115 1.25333 2
      vertex -1.87381 -9.82287 2
    endloop
  endfacet
  facet normal 0 0 1
    outer loop
      vertex 0.627905 -9.98027 2
      vertex -9.92115 1.25333 2
      vertex -0.627905 -9.98027 2
    endloop
  endfacet
  facet normal 0 0 1
    outer loop
      vertex -4.37381 -4.10728 2
      vertex -9.92115 1.25333 2
      vertex 0.627905 -9.98027 2
    endloop
  endfacet
  facet normal 0 0 1
    outer loop
      vertex -4.37381 -4.10728 2
      vertex -4.8541 -3.52671 2
      vertex -9.92115 1.25333 2
    endloop
  endfacet
  facet normal 0 0 1
    outer loop
      vertex -2.55468 -5.42896 2
      vertex -3.21496 -5.06597 2
      vertex 1.87381 -9.82287 2
    endloop
  endfacet
  facet normal 0 0 1
    outer loop
      vertex -1.12429 -5.89372 2
      vertex -1.8541 -5.70634 2
      vertex 3.09017 -9.51056 2
    endloop
  endfacet
  facet normal 0 0 1
    outer loop
      vertex 5.8115 -1.49214 2
      vertex 5.57866 -2.20875 2
      vertex 9.68583 -2.4869 2
    endloop
  endfacet
  facet normal 0 0 1
    outer loop
      vertex 4.8541 -3.52671 2
      vertex 4.37381 -4.10728 2
      vertex 8.76307 -4.81754 2
    endloop
  endfacet
  facet normal 0 0 1
    outer loop
      vertex -5.8115 1.49214 2
      vertex -5.57866 2.20875 2
      vertex -9.92115 1.25333 2
    endloop
  endfacet
  facet normal 0 0 1
    outer loop
      vertex 4.37381 4.10728 2
      vertex 4.8541 3.52671 2
      vertex 8.76307 4.81754 2
    endloop
  endfacet
  facet normal 0 0 1
    outer loop
      vertex -1.8541 5.70634 2
      vertex -1.12429 5.89372 2
      vertex 4.25779 9.04827 2
    endloop
  endfacet
  facet normal 0 0 1
    outer loop
      vertex 2.55468 5.42896 2
      vertex 3.21496 5.06597 2
      vertex 7.28969 6.84547 2
    endloop
  endfacet
  facet normal 0 0 1
    outer loop
      vertex 1.87381 9.82287 2
      vertex -9.92115 1.25333 2
      vertex 3.09017 9.51056 2
    endloop
  endfacet
  facet normal 0 0 1
    outer loop
      vertex 0.627905 9.98027 2
      vertex -9.92115 1.25333 2
      vertex 1.87381 9.82287 2
    endloop
  endfacet
  facet normal 0 0 1
    outer loop
      vertex -0.627905 9.98027 2
      vertex -9.92115 1.25333 2
      vertex 0.627905 9.98027 2
    endloop
  endfacet
  facet normal 0 0 1
    outer loop
      vertex -1.87381 9.82287 2
      vertex -9.92115 1.25333 2
      vertex -0.627905 9.98027 2
    endloop
  endfacet
  facet normal 0 0 1
    outer loop
      vertex -3.09017 9.51056 2
      vertex -9.92115 1.25333 2
      vertex -1.87381 9.82287 2
    endloop
  endfacet
  facet normal 0 0 1
    outer loop
      vertex -4.25779 9.04827 2
      vertex -9.92115 1.25333 2
      vertex -3.09017 9.51056 2
    endloop
  endfacet
  facet normal 0 0 1
    outer loop
      vertex -5.35827 8.44328 2
      vertex -9.92115 1.25333 2
      vertex -4.25779 9.04827 2
    endloop
  endfacet
  facet normal 0 0 1
    outer loop
      vertex -6.37424 7.70513 2
      vertex -9.92115 1.25333 2
      vertex -5.35827 8.44328 2
    endloop
  endfacet
  facet normal 0 0 1
    outer loop
      vertex -7.28969 6.84547 2
      vertex -9.92115 1.25333 2
      vertex -6.37424 7.70513 2
    endloop
  endfacet
  facet normal 0 0 1
    outer loop
      vertex -8.09017 5.87785 2
      vertex -9.92115 1.25333 2
      vertex -7.28969 6.84547 2
    endloop
  endfacet
  facet normal 0 0 1
    outer loop
      vertex -8.76307 4.81754 2
      vertex -9.92115 1.25333 2
      vertex -8.09017 5.87785 2
    endloop
  endfacet
  facet normal 0 0 1
    outer loop
      vertex -9.29777 3.68125 2
      vertex -9.92115 1.25333 2
      vertex -8.76307 4.81754 2
    endloop
  endfacet
  facet normal 0 0 1
    outer loop
      vertex -9.68583 2.4869 2
      vertex -9.92115 1.25333 2
      vertex -9.29777 3.68125 2
    endloop
  endfacet
  facet normal 0 0 1
    outer loop
      vertex 1.8541 -5.70634 2
      vertex 1.12429 -5.89372 2
      vertex 5.35827 -8.44328 2
    endloop
  endfacet
  facet normal 0 0 1
    outer loop
      vertex 4.37381 -4.10728 2
      vertex 3.82454 -4.62308 2
      vertex 8.09017 -5.87785 2
    endloop
  endfacet
  facet normal 0 0 1
    outer loop
      vertex 5.95269 0.751999 2
      vertex 6 0 2
      vertex 10 0 2
    endloop
  endfacet
  facet normal 0 0 1
    outer loop
      vertex 4.8541 3.52671 2
      vertex 5.25784 2.89052 2
      vertex 9.29777 3.68125 2
    endloop
  endfacet
  facet normal 0 0 1
    outer loop
      vertex -4.8541 3.52671 2
      vertex -4.37381 4.10728 2
      vertex -9.92115 1.25333 2
    endloop
  endfacet
  facet normal 0 0 1
    outer loop
      vertex 3.21496 5.06597 2
      vertex 3.82454 4.62308 2
      vertex 8.09017 5.87785 2
    endloop
  endfacet
  facet normal 0 0 1
    outer loop
      vertex -4.37381 4.10728 2
      vertex -3.82454 4.62308 2
      vertex -9.92115 1.25333 2
    endloop
  endfacet
  facet normal 0 0 1
    outer loop
      vertex 1.12429 5.89372 2
      vertex 1.8541 5.70634 2
      vertex 6.37424 7.70513 2
    endloop
  endfacet
  facet normal 0 0 1
    outer loop
      vertex -3.21496 5.06597 2
      vertex -2.55468 5.42896 2
      vertex 3.09017 9.51056 2
    endloop
  endfacet
  facet normal 0 0 1
    outer loop
      vertex -0.376743 5.98816 2
      vertex 0.376743 5.98816 2
      vertex 5.35827 8.44328 2
    endloop
  endfacet
  facet normal 0 0 1
    outer loop
      vertex -3.21496 5.06597 2
      vertex -9.92115 1.25333 2
      vertex -3.82454 4.62308 2
    endloop
  endfacet
  facet normal 0 0 1
    outer loop
      vertex 3.09017 9.51056 2
      vertex -9.92115 1.25333 2
      vertex -3.21496 5.06597 2
    endloop
  endfacet
  facet normal 0 0 1
    outer loop
      vertex 3.09017 9.51056 2
      vertex -2.55468 5.42896 2
      vertex 4.25779 9.04827 2
    endloop
  endfacet
  facet normal 0 0 1
    outer loop
      vertex -2.55468 5.42896 2
      vertex -1.8541 5.70634 2
      vertex 4.25779 9.04827 2
    endloop
  endfacet
  facet normal 0 0 1
    outer loop
      vertex 4.25779 9.04827 2
      vertex -1.12429 5.89372 2
      vertex 5.35827 8.44328 2
    endloop
  endfacet
  facet normal 0 0 1
    outer loop
      vertex -1.12429 5.89372 2
      vertex -0.376743 5.98816 2
      vertex 5.35827 8.44328 2
    endloop
  endfacet
  facet normal 0 0 1
    outer loop
      vertex 5.35827 8.44328 2
      vertex 0.376743 5.98816 2
      vertex 6.37424 7.70513 2
    endloop
  endfacet
  facet normal 0 0 1
    outer loop
      vertex 0.376743 5.98816 2
      vertex 1.12429 5.89372 2
      vertex 6.37424 7.70513 2
    endloop
  endfacet
  facet normal 0 0 1
    outer loop
      vertex 6.37424 7.70513 2
      vertex 1.8541 5.70634 2
      vertex 7.28969 6.84547 2
    endloop
  endfacet
  facet normal 0 0 1
    outer loop
      vertex 1.8541 5.70634 2
      vertex 2.55468 5.42896 2
      vertex 7.28969 6.84547 2
    endloop
  endfacet
  facet normal 0 0 1
    outer loop
      vertex 7.28969 6.84547 2
      vertex 3.21496 5.06597 2
      vertex 8.09017 5.87785 2
    endloop
  endfacet
  facet normal 0 0 1
    outer loop
      vertex -5.25784 2.89052 2
      vertex -4.8541 3.52671 2
      vertex -9.92115 1.25333 2
    endloop
  endfacet
  facet normal 0 0 1
    outer loop
      vertex 8.09017 5.87785 2
      vertex 3.82454 4.62308 2
      vertex 8.76307 4.81754 2
    endloop
  endfacet
  facet normal 0 0 1
    outer loop
      vertex 3.82454 4.62308 2
      vertex 4.37381 4.10728 2
      vertex 8.76307 4.81754 2
    endloop
  endfacet
  facet normal 0 0 1
    outer loop
      vertex 8.76307 4.81754 2
      vertex 4.8541 3.52671 2
      vertex 9.29777 3.68125 2
    endloop
  endfacet
  facet normal 0 0 1
    outer loop
      vertex 5.25784 2.89052 2
      vertex 5.57866 2.20875 2
      vertex 9.68583 2.4869 2
    endloop
  endfacet
  facet normal 0 0 1
    outer loop
      vertex 9.29777 3.68125 2
      vertex 5.25784 2.89052 2
      vertex 9.68583 2.4869 2
    endloop
  endfacet
  facet normal 0 0 1
    outer loop
      vertex -5.57866 2.20875 2
      vertex -5.25784 2.89052 2
      vertex -9.92115 1.25333 2
    endloop
  endfacet
  facet normal 0 0 1
    outer loop
      vertex 9.68583 2.4869 2
      vertex 5.57866 2.20875 2
      vertex 9.92115 1.25333 2
    endloop
  endfacet
  facet normal 0 0 1
    outer loop
      vertex 5.57866 2.20875 2
      vertex 5.8115 1.49214 2
      vertex 9.92115 1.25333 2
    endloop
  endfacet
  facet normal 0 0 1
    outer loop
      vertex 9.92115 1.25333 2
      vertex 5.95269 0.751999 2
      vertex 10 0 2
    endloop
  endfacet
  facet normal 0 0 1
    outer loop
      vertex 10 0 2
      vertex 6 0 2
      vertex 9.92115 -1.25333 2
    endloop
  endfacet
  facet normal 0 0 1
    outer loop
      vertex 5.57866 -2.20875 2
      vertex 5.25784 -2.89052 2
      vertex 9.29777 -3.68125 2
    endloop
  endfacet
  facet normal 0 0 1
    outer loop
      vertex 6 0 2
      vertex 5.95269 -0.751999 2
      vertex 9.92115 -1.25333 2
    endloop
  endfacet
  facet normal 0 0 1
    outer loop
      vertex 5.8115 1.49214 2
      vertex 5.95269 0.751999 2
      vertex 9.92115 1.25333 2
    endloop
  endfacet
  facet normal 0 0 1
    outer loop
      vertex 9.92115 -1.25333 2
      vertex 5.8115 -1.49214 2
      vertex 9.68583 -2.4869 2
    endloop
  endfacet
  facet normal 0 0 1
    outer loop
      vertex 9.68583 -2.4869 2
      vertex 5.57866 -2.20875 2
      vertex 9.29777 -3.68125 2
    endloop
  endfacet
  facet normal 0 0 1
    outer loop
      vertex 5.95269 -0.751999 2
      vertex 5.8115 -1.49214 2
      vertex 9.92115 -1.25333 2
    endloop
  endfacet
  facet normal 0 0 1
    outer loop
      vertex 9.29777 -3.68125 2
      vertex 5.25784 -2.89052 2
      vertex 8.76307 -4.81754 2
    endloop
  endfacet
  facet normal 0 0 1
    outer loop
      vertex 5.25784 -2.89052 2
      vertex 4.8541 -3.52671 2
      vertex 8.76307 -4.81754 2
    endloop
  endfacet
  facet normal 0 0 1
    outer loop
      vertex 8.76307 -4.81754 2
      vertex 4.37381 -4.10728 2
      vertex 8.09017 -5.87785 2
    endloop
  endfacet
  facet normal 0 0 1
    outer loop
      vertex 3.82454 -4.62308 2
      vertex 3.21496 -5.06597 2
      vertex 7.28969 -6.84547 2
    endloop
  endfacet
  facet normal 0 0 1
    outer loop
      vertex 8.09017 -5.87785 2
      vertex 3.82454 -4.62308 2
      vertex 7.28969 -6.84547 2
    endloop
  endfacet
  facet normal 0 0 1
    outer loop
      vertex -6 0 2
      vertex -5.95269 0.751999 2
      vertex -9.92115 1.25333 2
    endloop
  endfacet
  facet normal 0 0 1
    outer loop
      vertex 7.28969 -6.84547 2
      vertex 3.21496 -5.06597 2
      vertex 6.37424 -7.70513 2
    endloop
  endfacet
  facet normal 0 0 1
    outer loop
      vertex 3.21496 -5.06597 2
      vertex 2.55468 -5.42896 2
      vertex 6.37424 -7.70513 2
    endloop
  endfacet
  facet normal 0 0 1
    outer loop
      vertex 6.37424 -7.70513 2
      vertex 1.8541 -5.70634 2
      vertex 5.35827 -8.44328 2
    endloop
  endfacet
  facet normal 0 0 1
    outer loop
      vertex 5.35827 -8.44328 2
      vertex 1.12429 -5.89372 2
      vertex 4.25779 -9.04827 2
    endloop
  endfacet
  facet normal 0 0 1
    outer loop
      vertex -4.8541 -3.52671 2
      vertex -5.25784 -2.89052 2
      vertex -9.92115 1.25333 2
    endloop
  endfacet
  facet normal 0 0 1
    outer loop
      vertex 1.12429 -5.89372 2
      vertex 0.376743 -5.98816 2
      vertex 4.25779 -9.04827 2
    endloop
  endfacet
  facet normal 0 0 1
    outer loop
      vertex 4.25779 -9.04827 2
      vertex -0.376743 -5.98816 2
      vertex 3.09017 -9.51056 2
    endloop
  endfacet
  facet normal 0 0 1
    outer loop
      vertex -0.376743 -5.98816 2
      vertex -1.12429 -5.89372 2
      vertex 3.09017 -9.51056 2
    endloop
  endfacet
  facet normal 0 0 1
    outer loop
      vertex 3.09017 -9.51056 2
      vertex -1.8541 -5.70634 2
      vertex 1.87381 -9.82287 2
    endloop
  endfacet
  facet normal 0 0 1
    outer loop
      vertex -1.8541 -5.70634 2
      vertex -2.55468 -5.42896 2
      vertex 1.87381 -9.82287 2
    endloop
  endfacet
  facet normal 0 0 1
    outer loop
      vertex 1.87381 -9.82287 2
      vertex -3.21496 -5.06597 2
      vertex 0.627905 -9.98027 2
    endloop
  endfacet
  facet normal 0 0 1
    outer loop
      vertex -3.21496 -5.06597 2
      vertex -3.82454 -4.62308 2
      vertex 0.627905 -9.98027 2
    endloop
  endfacet
  facet normal 0 0 1
    outer loop
      vertex -3.82454 -4.62308 2
      vertex -4.37381 -4.10728 2
      vertex 0.627905 -9.98027 2
    endloop
  endfacet
  facet normal 0 0 1
    outer loop
      vertex -5.25784 -2.89052 2
      vertex -5.57866 -2.20875 2
      vertex -9.92115 1.25333 2
    endloop
  endfacet
  facet normal 0 0 1
    outer loop
      vertex -5.57866 -2.20875 2
      vertex -5.8115 -1.49214 2
      vertex -9.92115 1.25333 2
    endloop
  endfacet
  facet normal 0 0 1
    outer loop
      vertex 2.55468 -5.42896 2
      vertex 1.8541 -5.70634 2
      vertex 6.37424 -7.70513 2
    endloop
  endfacet
  facet normal 0 0 1
    outer loop
      vertex 0.376743 -5.98816 2
      vertex -0.376743 -5.98816 2
      vertex 4.25779 -9.04827 2
    endloop
  endfacet
  facet normal 0 0 1
    outer loop
      vertex -5.8115 -1.49214 2
      vertex -5.95269 -0.751999 2
      vertex -9.92115 1.25333 2
    endloop
  endfacet
  facet normal 0 0 1
    outer loop
      vertex -5.95269 -0.751999 2
      vertex -6 0 2
      vertex -9.92115 1.25333 2
    endloop
  endfacet
  facet normal 0 0 1
    outer loop
      vertex -5.95269 0.751999 2
      vertex -5.8115 1.49214 2
      vertex -9.92115 1.25333 2
    endloop
  endfacet
endsolid OpenSCAD_Model
