  0
SECTION
  2
BLOCKS
  0
ENDSEC
  0
SECTION
  2
ENTITIES
  0
LINE
  8
0
 10
80
 20
80
 11
-80
 21
80
  0
LINE
  8
0
 10
-80
 20
80
 11
-80
 21
-80
  0
LINE
  8
0
 10
-80
 20
-80
 11
80
 21
-80
  0
LINE
  8
0
 10
80
 20
-80
 11
80
 21
80
  0
LINE
  8
0
 10
-65.157
 20
62.5049
 11
-65.4684
 21
62.5443
  0
LINE
  8
0
 10
-65.4684
 20
62.5443
 11
-65.7725
 21
62.6223
  0
LINE
  8
0
 10
-65.7725
 20
62.6223
 11
-66.0644
 21
62.7379
  0
LINE
  8
0
 10
-66.0644
 20
62.7379
 11
-66.3396
 21
62.8892
  0
LINE
  8
0
 10
-66.3396
 20
62.8892
 11
-66.5936
 21
63.0737
  0
LINE
  8
0
 10
-66.5936
 20
63.0737
 11
-66.8224
 21
63.2886
  0
LINE
  8
0
 10
-66.8224
 20
63.2886
 11
-67.0225
 21
63.5305
  0
LINE
  8
0
 10
-67.0225
 20
63.5305
 11
-67.1908
 21
63.7956
  0
LINE
  8
0
 10
-67.1908
 20
63.7956
 11
-67.3244
 21
64.0797
  0
LINE
  8
0
 10
-67.3244
 20
64.0797
 11
-67.4214
 21
64.3783
  0
LINE
  8
0
 10
-67.4214
 20
64.3783
 11
-67.4803
 21
64.6867
  0
LINE
  8
0
 10
-67.4803
 20
64.6867
 11
-67.5
 21
65
  0
LINE
  8
0
 10
-67.5
 20
65
 11
-67.4803
 21
65.3133
  0
LINE
  8
0
 10
-67.4803
 20
65.3133
 11
-67.4214
 21
65.6217
  0
LINE
  8
0
 10
-67.4214
 20
65.6217
 11
-67.3244
 21
65.9203
  0
LINE
  8
0
 10
-67.3244
 20
65.9203
 11
-67.1908
 21
66.2044
  0
LINE
  8
0
 10
-67.1908
 20
66.2044
 11
-67.0225
 21
66.4695
  0
LINE
  8
0
 10
-67.0225
 20
66.4695
 11
-66.8224
 21
66.7114
  0
LINE
  8
0
 10
-66.8224
 20
66.7114
 11
-66.5936
 21
66.9263
  0
LINE
  8
0
 10
-66.5936
 20
66.9263
 11
-66.3396
 21
67.1108
  0
LINE
  8
0
 10
-66.3396
 20
67.1108
 11
-66.0644
 21
67.2621
  0
LINE
  8
0
 10
-66.0644
 20
67.2621
 11
-65.7725
 21
67.3776
  0
LINE
  8
0
 10
-65.7725
 20
67.3776
 11
-65.4684
 21
67.4557
  0
LINE
  8
0
 10
-65.4684
 20
67.4557
 11
-65.157
 21
67.4951
  0
LINE
  8
0
 10
-65.157
 20
67.4951
 11
-64.843
 21
67.4951
  0
LINE
  8
0
 10
-64.843
 20
67.4951
 11
-64.5315
 21
67.4557
  0
LINE
  8
0
 10
-64.5315
 20
67.4557
 11
-64.2274
 21
67.3776
  0
LINE
  8
0
 10
-64.2274
 20
67.3776
 11
-63.9355
 21
67.2621
  0
LINE
  8
0
 10
-63.9355
 20
67.2621
 11
-63.6604
 21
67.1108
  0
LINE
  8
0
 10
-63.6604
 20
67.1108
 11
-63.4064
 21
66.9263
  0
LINE
  8
0
 10
-63.4064
 20
66.9263
 11
-63.1776
 21
66.7114
  0
LINE
  8
0
 10
-63.1776
 20
66.7114
 11
-62.9774
 21
66.4695
  0
LINE
  8
0
 10
-62.9774
 20
66.4695
 11
-62.8092
 21
66.2044
  0
LINE
  8
0
 10
-62.8092
 20
66.2044
 11
-62.6756
 21
65.9203
  0
LINE
  8
0
 10
-62.6756
 20
65.9203
 11
-62.5785
 21
65.6217
  0
LINE
  8
0
 10
-62.5785
 20
65.6217
 11
-62.5197
 21
65.3133
  0
LINE
  8
0
 10
-62.5197
 20
65.3133
 11
-62.5
 21
65
  0
LINE
  8
0
 10
-62.5
 20
65
 11
-62.5197
 21
64.6867
  0
LINE
  8
0
 10
-62.5197
 20
64.6867
 11
-62.5785
 21
64.3783
  0
LINE
  8
0
 10
-62.5785
 20
64.3783
 11
-62.6756
 21
64.0797
  0
LINE
  8
0
 10
-62.6756
 20
64.0797
 11
-62.8092
 21
63.7956
  0
LINE
  8
0
 10
-62.8092
 20
63.7956
 11
-62.9774
 21
63.5305
  0
LINE
  8
0
 10
-62.9774
 20
63.5305
 11
-63.1776
 21
63.2886
  0
LINE
  8
0
 10
-63.1776
 20
63.2886
 11
-63.4064
 21
63.0737
  0
LINE
  8
0
 10
-63.4064
 20
63.0737
 11
-63.6604
 21
62.8892
  0
LINE
  8
0
 10
-63.6604
 20
62.8892
 11
-63.9355
 21
62.7379
  0
LINE
  8
0
 10
-63.9355
 20
62.7379
 11
-64.2274
 21
62.6223
  0
LINE
  8
0
 10
-64.2274
 20
62.6223
 11
-64.5315
 21
62.5443
  0
LINE
  8
0
 10
-64.5315
 20
62.5443
 11
-64.843
 21
62.5049
  0
LINE
  8
0
 10
-64.843
 20
62.5049
 11
-65.157
 21
62.5049
  0
LINE
  8
0
 10
64.843
 20
62.5049
 11
64.5315
 21
62.5443
  0
LINE
  8
0
 10
64.5315
 20
62.5443
 11
64.2274
 21
62.6223
  0
LINE
  8
0
 10
64.2274
 20
62.6223
 11
63.9355
 21
62.7379
  0
LINE
  8
0
 10
63.9355
 20
62.7379
 11
63.6604
 21
62.8892
  0
LINE
  8
0
 10
63.6604
 20
62.8892
 11
63.4064
 21
63.0737
  0
LINE
  8
0
 10
63.4064
 20
63.0737
 11
63.1776
 21
63.2886
  0
LINE
  8
0
 10
63.1776
 20
63.2886
 11
62.9774
 21
63.5305
  0
LINE
  8
0
 10
62.9774
 20
63.5305
 11
62.8092
 21
63.7956
  0
LINE
  8
0
 10
62.8092
 20
63.7956
 11
62.6756
 21
64.0797
  0
LINE
  8
0
 10
62.6756
 20
64.0797
 11
62.5785
 21
64.3783
  0
LINE
  8
0
 10
62.5785
 20
64.3783
 11
62.5197
 21
64.6867
  0
LINE
  8
0
 10
62.5197
 20
64.6867
 11
62.5
 21
65
  0
LINE
  8
0
 10
62.5
 20
65
 11
62.5197
 21
65.3133
  0
LINE
  8
0
 10
62.5197
 20
65.3133
 11
62.5785
 21
65.6217
  0
LINE
  8
0
 10
62.5785
 20
65.6217
 11
62.6756
 21
65.9203
  0
LINE
  8
0
 10
62.6756
 20
65.9203
 11
62.8092
 21
66.2044
  0
LINE
  8
0
 10
62.8092
 20
66.2044
 11
62.9774
 21
66.4695
  0
LINE
  8
0
 10
62.9774
 20
66.4695
 11
63.1776
 21
66.7114
  0
LINE
  8
0
 10
63.1776
 20
66.7114
 11
63.4064
 21
66.9263
  0
LINE
  8
0
 10
63.4064
 20
66.9263
 11
63.6604
 21
67.1108
  0
LINE
  8
0
 10
63.6604
 20
67.1108
 11
63.9355
 21
67.2621
  0
LINE
  8
0
 10
63.9355
 20
67.2621
 11
64.2274
 21
67.3776
  0
LINE
  8
0
 10
64.2274
 20
67.3776
 11
64.5315
 21
67.4557
  0
LINE
  8
0
 10
64.5315
 20
67.4557
 11
64.843
 21
67.4951
  0
LINE
  8
0
 10
64.843
 20
67.4951
 11
65.157
 21
67.4951
  0
LINE
  8
0
 10
65.157
 20
67.4951
 11
65.4684
 21
67.4557
  0
LINE
  8
0
 10
65.4684
 20
67.4557
 11
65.7725
 21
67.3776
  0
LINE
  8
0
 10
65.7725
 20
67.3776
 11
66.0644
 21
67.2621
  0
LINE
  8
0
 10
66.0644
 20
67.2621
 11
66.3396
 21
67.1108
  0
LINE
  8
0
 10
66.3396
 20
67.1108
 11
66.5936
 21
66.9263
  0
LINE
  8
0
 10
66.5936
 20
66.9263
 11
66.8224
 21
66.7114
  0
LINE
  8
0
 10
66.8224
 20
66.7114
 11
67.0225
 21
66.4695
  0
LINE
  8
0
 10
67.0225
 20
66.4695
 11
67.1908
 21
66.2044
  0
LINE
  8
0
 10
67.1908
 20
66.2044
 11
67.3244
 21
65.9203
  0
LINE
  8
0
 10
67.3244
 20
65.9203
 11
67.4214
 21
65.6217
  0
LINE
  8
0
 10
67.4214
 20
65.6217
 11
67.4803
 21
65.3133
  0
LINE
  8
0
 10
67.4803
 20
65.3133
 11
67.5
 21
65
  0
LINE
  8
0
 10
67.5
 20
65
 11
67.4803
 21
64.6867
  0
LINE
  8
0
 10
67.4803
 20
64.6867
 11
67.4214
 21
64.3783
  0
LINE
  8
0
 10
67.4214
 20
64.3783
 11
67.3244
 21
64.0797
  0
LINE
  8
0
 10
67.3244
 20
64.0797
 11
67.1908
 21
63.7956
  0
LINE
  8
0
 10
67.1908
 20
63.7956
 11
67.0225
 21
63.5305
  0
LINE
  8
0
 10
67.0225
 20
63.5305
 11
66.8224
 21
63.2886
  0
LINE
  8
0
 10
66.8224
 20
63.2886
 11
66.5936
 21
63.0737
  0
LINE
  8
0
 10
66.5936
 20
63.0737
 11
66.3396
 21
62.8892
  0
LINE
  8
0
 10
66.3396
 20
62.8892
 11
66.0644
 21
62.7379
  0
LINE
  8
0
 10
66.0644
 20
62.7379
 11
65.7725
 21
62.6223
  0
LINE
  8
0
 10
65.7725
 20
62.6223
 11
65.4684
 21
62.5443
  0
LINE
  8
0
 10
65.4684
 20
62.5443
 11
65.157
 21
62.5049
  0
LINE
  8
0
 10
65.157
 20
62.5049
 11
64.843
 21
62.5049
  0
LINE
  8
0
 10
-3.92439
 20
-62.3767
 11
-11.7113
 21
-61.3929
  0
LINE
  8
0
 10
-11.7113
 20
-61.3929
 11
-19.3136
 21
-59.441
  0
LINE
  8
0
 10
-19.3136
 20
-59.441
 11
-26.6112
 21
-56.5517
  0
LINE
  8
0
 10
-26.6112
 20
-56.5517
 11
-33.4892
 21
-52.7705
  0
LINE
  8
0
 10
-33.4892
 20
-52.7705
 11
-39.839
 21
-48.1571
  0
LINE
  8
0
 10
-39.839
 20
-48.1571
 11
-45.5605
 21
-42.7842
  0
LINE
  8
0
 10
-45.5605
 20
-42.7842
 11
-50.5636
 21
-36.7366
  0
LINE
  8
0
 10
-50.5636
 20
-36.7366
 11
-54.7692
 21
-30.1096
  0
LINE
  8
0
 10
-54.7692
 20
-30.1096
 11
-58.111
 21
-23.0078
  0
LINE
  8
0
 10
-58.111
 20
-23.0078
 11
-60.5364
 21
-15.5431
  0
LINE
  8
0
 10
-60.5364
 20
-15.5431
 11
-62.0072
 21
-7.83331
  0
LINE
  8
0
 10
-62.0072
 20
-7.83331
 11
-62.5
 21
0
  0
LINE
  8
0
 10
-62.5
 20
0
 11
-62.0072
 21
7.83331
  0
LINE
  8
0
 10
-62.0072
 20
7.83331
 11
-60.5364
 21
15.5431
  0
LINE
  8
0
 10
-60.5364
 20
15.5431
 11
-58.111
 21
23.0078
  0
LINE
  8
0
 10
-58.111
 20
23.0078
 11
-54.7692
 21
30.1096
  0
LINE
  8
0
 10
-54.7692
 20
30.1096
 11
-50.5636
 21
36.7366
  0
LINE
  8
0
 10
-50.5636
 20
36.7366
 11
-45.5605
 21
42.7842
  0
LINE
  8
0
 10
-45.5605
 20
42.7842
 11
-39.839
 21
48.1571
  0
LINE
  8
0
 10
-39.839
 20
48.1571
 11
-33.4892
 21
52.7705
  0
LINE
  8
0
 10
-33.4892
 20
52.7705
 11
-26.6112
 21
56.5517
  0
LINE
  8
0
 10
-26.6112
 20
56.5517
 11
-19.3136
 21
59.441
  0
LINE
  8
0
 10
-19.3136
 20
59.441
 11
-11.7113
 21
61.3929
  0
LINE
  8
0
 10
-11.7113
 20
61.3929
 11
-3.92439
 21
62.3767
  0
LINE
  8
0
 10
-3.92439
 20
62.3767
 11
3.92439
 21
62.3767
  0
LINE
  8
0
 10
3.92439
 20
62.3767
 11
11.7113
 21
61.3929
  0
LINE
  8
0
 10
11.7113
 20
61.3929
 11
19.3136
 21
59.441
  0
LINE
  8
0
 10
19.3136
 20
59.441
 11
26.6112
 21
56.5517
  0
LINE
  8
0
 10
26.6112
 20
56.5517
 11
33.4892
 21
52.7705
  0
LINE
  8
0
 10
33.4892
 20
52.7705
 11
39.839
 21
48.1571
  0
LINE
  8
0
 10
39.839
 20
48.1571
 11
45.5605
 21
42.7842
  0
LINE
  8
0
 10
45.5605
 20
42.7842
 11
50.5636
 21
36.7366
  0
LINE
  8
0
 10
50.5636
 20
36.7366
 11
54.7692
 21
30.1096
  0
LINE
  8
0
 10
54.7692
 20
30.1096
 11
58.111
 21
23.0078
  0
LINE
  8
0
 10
58.111
 20
23.0078
 11
60.5364
 21
15.5431
  0
LINE
  8
0
 10
60.5364
 20
15.5431
 11
62.0072
 21
7.83331
  0
LINE
  8
0
 10
62.0072
 20
7.83331
 11
62.5
 21
0
  0
LINE
  8
0
 10
62.5
 20
0
 11
62.0072
 21
-7.83331
  0
LINE
  8
0
 10
62.0072
 20
-7.83331
 11
60.5364
 21
-15.5431
  0
LINE
  8
0
 10
60.5364
 20
-15.5431
 11
58.111
 21
-23.0078
  0
LINE
  8
0
 10
58.111
 20
-23.0078
 11
54.7692
 21
-30.1096
  0
LINE
  8
0
 10
54.7692
 20
-30.1096
 11
50.5636
 21
-36.7366
  0
LINE
  8
0
 10
50.5636
 20
-36.7366
 11
45.5605
 21
-42.7842
  0
LINE
  8
0
 10
45.5605
 20
-42.7842
 11
39.839
 21
-48.1571
  0
LINE
  8
0
 10
39.839
 20
-48.1571
 11
33.4892
 21
-52.7705
  0
LINE
  8
0
 10
33.4892
 20
-52.7705
 11
26.6112
 21
-56.5517
  0
LINE
  8
0
 10
26.6112
 20
-56.5517
 11
19.3136
 21
-59.441
  0
LINE
  8
0
 10
19.3136
 20
-59.441
 11
11.7113
 21
-61.3929
  0
LINE
  8
0
 10
11.7113
 20
-61.3929
 11
3.92439
 21
-62.3767
  0
LINE
  8
0
 10
3.92439
 20
-62.3767
 11
-3.92439
 21
-62.3767
  0
LINE
  8
0
 10
-65.157
 20
-67.4951
 11
-65.4684
 21
-67.4557
  0
LINE
  8
0
 10
-65.4684
 20
-67.4557
 11
-65.7725
 21
-67.3776
  0
LINE
  8
0
 10
-65.7725
 20
-67.3776
 11
-66.0644
 21
-67.2621
  0
LINE
  8
0
 10
-66.0644
 20
-67.2621
 11
-66.3396
 21
-67.1108
  0
LINE
  8
0
 10
-66.3396
 20
-67.1108
 11
-66.5936
 21
-66.9263
  0
LINE
  8
0
 10
-66.5936
 20
-66.9263
 11
-66.8224
 21
-66.7114
  0
LINE
  8
0
 10
-66.8224
 20
-66.7114
 11
-67.0225
 21
-66.4695
  0
LINE
  8
0
 10
-67.0225
 20
-66.4695
 11
-67.1908
 21
-66.2044
  0
LINE
  8
0
 10
-67.1908
 20
-66.2044
 11
-67.3244
 21
-65.9203
  0
LINE
  8
0
 10
-67.3244
 20
-65.9203
 11
-67.4214
 21
-65.6217
  0
LINE
  8
0
 10
-67.4214
 20
-65.6217
 11
-67.4803
 21
-65.3133
  0
LINE
  8
0
 10
-67.4803
 20
-65.3133
 11
-67.5
 21
-65
  0
LINE
  8
0
 10
-67.5
 20
-65
 11
-67.4803
 21
-64.6867
  0
LINE
  8
0
 10
-67.4803
 20
-64.6867
 11
-67.4214
 21
-64.3783
  0
LINE
  8
0
 10
-67.4214
 20
-64.3783
 11
-67.3244
 21
-64.0797
  0
LINE
  8
0
 10
-67.3244
 20
-64.0797
 11
-67.1908
 21
-63.7956
  0
LINE
  8
0
 10
-67.1908
 20
-63.7956
 11
-67.0225
 21
-63.5305
  0
LINE
  8
0
 10
-67.0225
 20
-63.5305
 11
-66.8224
 21
-63.2886
  0
LINE
  8
0
 10
-66.8224
 20
-63.2886
 11
-66.5936
 21
-63.0737
  0
LINE
  8
0
 10
-66.5936
 20
-63.0737
 11
-66.3396
 21
-62.8892
  0
LINE
  8
0
 10
-66.3396
 20
-62.8892
 11
-66.0644
 21
-62.7379
  0
LINE
  8
0
 10
-66.0644
 20
-62.7379
 11
-65.7725
 21
-62.6223
  0
LINE
  8
0
 10
-65.7725
 20
-62.6223
 11
-65.4684
 21
-62.5443
  0
LINE
  8
0
 10
-65.4684
 20
-62.5443
 11
-65.157
 21
-62.5049
  0
LINE
  8
0
 10
-65.157
 20
-62.5049
 11
-64.843
 21
-62.5049
  0
LINE
  8
0
 10
-64.843
 20
-62.5049
 11
-64.5315
 21
-62.5443
  0
LINE
  8
0
 10
-64.5315
 20
-62.5443
 11
-64.2274
 21
-62.6223
  0
LINE
  8
0
 10
-64.2274
 20
-62.6223
 11
-63.9355
 21
-62.7379
  0
LINE
  8
0
 10
-63.9355
 20
-62.7379
 11
-63.6604
 21
-62.8892
  0
LINE
  8
0
 10
-63.6604
 20
-62.8892
 11
-63.4064
 21
-63.0737
  0
LINE
  8
0
 10
-63.4064
 20
-63.0737
 11
-63.1776
 21
-63.2886
  0
LINE
  8
0
 10
-63.1776
 20
-63.2886
 11
-62.9774
 21
-63.5305
  0
LINE
  8
0
 10
-62.9774
 20
-63.5305
 11
-62.8092
 21
-63.7956
  0
LINE
  8
0
 10
-62.8092
 20
-63.7956
 11
-62.6756
 21
-64.0797
  0
LINE
  8
0
 10
-62.6756
 20
-64.0797
 11
-62.5785
 21
-64.3783
  0
LINE
  8
0
 10
-62.5785
 20
-64.3783
 11
-62.5197
 21
-64.6867
  0
LINE
  8
0
 10
-62.5197
 20
-64.6867
 11
-62.5
 21
-65
  0
LINE
  8
0
 10
-62.5
 20
-65
 11
-62.5197
 21
-65.3133
  0
LINE
  8
0
 10
-62.5197
 20
-65.3133
 11
-62.5785
 21
-65.6217
  0
LINE
  8
0
 10
-62.5785
 20
-65.6217
 11
-62.6756
 21
-65.9203
  0
LINE
  8
0
 10
-62.6756
 20
-65.9203
 11
-62.8092
 21
-66.2044
  0
LINE
  8
0
 10
-62.8092
 20
-66.2044
 11
-62.9774
 21
-66.4695
  0
LINE
  8
0
 10
-62.9774
 20
-66.4695
 11
-63.1776
 21
-66.7114
  0
LINE
  8
0
 10
-63.1776
 20
-66.7114
 11
-63.4064
 21
-66.9263
  0
LINE
  8
0
 10
-63.4064
 20
-66.9263
 11
-63.6604
 21
-67.1108
  0
LINE
  8
0
 10
-63.6604
 20
-67.1108
 11
-63.9355
 21
-67.2621
  0
LINE
  8
0
 10
-63.9355
 20
-67.2621
 11
-64.2274
 21
-67.3776
  0
LINE
  8
0
 10
-64.2274
 20
-67.3776
 11
-64.5315
 21
-67.4557
  0
LINE
  8
0
 10
-64.5315
 20
-67.4557
 11
-64.843
 21
-67.4951
  0
LINE
  8
0
 10
-64.843
 20
-67.4951
 11
-65.157
 21
-67.4951
  0
LINE
  8
0
 10
64.843
 20
-67.4951
 11
64.5315
 21
-67.4557
  0
LINE
  8
0
 10
64.5315
 20
-67.4557
 11
64.2274
 21
-67.3776
  0
LINE
  8
0
 10
64.2274
 20
-67.3776
 11
63.9355
 21
-67.2621
  0
LINE
  8
0
 10
63.9355
 20
-67.2621
 11
63.6604
 21
-67.1108
  0
LINE
  8
0
 10
63.6604
 20
-67.1108
 11
63.4064
 21
-66.9263
  0
LINE
  8
0
 10
63.4064
 20
-66.9263
 11
63.1776
 21
-66.7114
  0
LINE
  8
0
 10
63.1776
 20
-66.7114
 11
62.9774
 21
-66.4695
  0
LINE
  8
0
 10
62.9774
 20
-66.4695
 11
62.8092
 21
-66.2044
  0
LINE
  8
0
 10
62.8092
 20
-66.2044
 11
62.6756
 21
-65.9203
  0
LINE
  8
0
 10
62.6756
 20
-65.9203
 11
62.5785
 21
-65.6217
  0
LINE
  8
0
 10
62.5785
 20
-65.6217
 11
62.5197
 21
-65.3133
  0
LINE
  8
0
 10
62.5197
 20
-65.3133
 11
62.5
 21
-65
  0
LINE
  8
0
 10
62.5
 20
-65
 11
62.5197
 21
-64.6867
  0
LINE
  8
0
 10
62.5197
 20
-64.6867
 11
62.5785
 21
-64.3783
  0
LINE
  8
0
 10
62.5785
 20
-64.3783
 11
62.6756
 21
-64.0797
  0
LINE
  8
0
 10
62.6756
 20
-64.0797
 11
62.8092
 21
-63.7956
  0
LINE
  8
0
 10
62.8092
 20
-63.7956
 11
62.9774
 21
-63.5305
  0
LINE
  8
0
 10
62.9774
 20
-63.5305
 11
63.1776
 21
-63.2886
  0
LINE
  8
0
 10
63.1776
 20
-63.2886
 11
63.4064
 21
-63.0737
  0
LINE
  8
0
 10
63.4064
 20
-63.0737
 11
63.6604
 21
-62.8892
  0
LINE
  8
0
 10
63.6604
 20
-62.8892
 11
63.9355
 21
-62.7379
  0
LINE
  8
0
 10
63.9355
 20
-62.7379
 11
64.2274
 21
-62.6223
  0
LINE
  8
0
 10
64.2274
 20
-62.6223
 11
64.5315
 21
-62.5443
  0
LINE
  8
0
 10
64.5315
 20
-62.5443
 11
64.843
 21
-62.5049
  0
LINE
  8
0
 10
64.843
 20
-62.5049
 11
65.157
 21
-62.5049
  0
LINE
  8
0
 10
65.157
 20
-62.5049
 11
65.4684
 21
-62.5443
  0
LINE
  8
0
 10
65.4684
 20
-62.5443
 11
65.7725
 21
-62.6223
  0
LINE
  8
0
 10
65.7725
 20
-62.6223
 11
66.0644
 21
-62.7379
  0
LINE
  8
0
 10
66.0644
 20
-62.7379
 11
66.3396
 21
-62.8892
  0
LINE
  8
0
 10
66.3396
 20
-62.8892
 11
66.5936
 21
-63.0737
  0
LINE
  8
0
 10
66.5936
 20
-63.0737
 11
66.8224
 21
-63.2886
  0
LINE
  8
0
 10
66.8224
 20
-63.2886
 11
67.0225
 21
-63.5305
  0
LINE
  8
0
 10
67.0225
 20
-63.5305
 11
67.1908
 21
-63.7956
  0
LINE
  8
0
 10
67.1908
 20
-63.7956
 11
67.3244
 21
-64.0797
  0
LINE
  8
0
 10
67.3244
 20
-64.0797
 11
67.4214
 21
-64.3783
  0
LINE
  8
0
 10
67.4214
 20
-64.3783
 11
67.4803
 21
-64.6867
  0
LINE
  8
0
 10
67.4803
 20
-64.6867
 11
67.5
 21
-65
  0
LINE
  8
0
 10
67.5
 20
-65
 11
67.4803
 21
-65.3133
  0
LINE
  8
0
 10
67.4803
 20
-65.3133
 11
67.4214
 21
-65.6217
  0
LINE
  8
0
 10
67.4214
 20
-65.6217
 11
67.3244
 21
-65.9203
  0
LINE
  8
0
 10
67.3244
 20
-65.9203
 11
67.1908
 21
-66.2044
  0
LINE
  8
0
 10
67.1908
 20
-66.2044
 11
67.0225
 21
-66.4695
  0
LINE
  8
0
 10
67.0225
 20
-66.4695
 11
66.8224
 21
-66.7114
  0
LINE
  8
0
 10
66.8224
 20
-66.7114
 11
66.5936
 21
-66.9263
  0
LINE
  8
0
 10
66.5936
 20
-66.9263
 11
66.3396
 21
-67.1108
  0
LINE
  8
0
 10
66.3396
 20
-67.1108
 11
66.0644
 21
-67.2621
  0
LINE
  8
0
 10
66.0644
 20
-67.2621
 11
65.7725
 21
-67.3776
  0
LINE
  8
0
 10
65.7725
 20
-67.3776
 11
65.4684
 21
-67.4557
  0
LINE
  8
0
 10
65.4684
 20
-67.4557
 11
65.157
 21
-67.4951
  0
LINE
  8
0
 10
65.157
 20
-67.4951
 11
64.843
 21
-67.4951
  0
ENDSEC
  0
SECTION
  2
OBJECTS
  0
DICTIONARY
  0
ENDSEC
  0
EOF
