999
Inkscape export via OpenSCAD DXF Export
  0
SECTION
  2
HEADER
  9
$ACADVER
  1
AC1014
  9
$HANDSEED
  5
FFFF
  9
$MEASUREMENT
 70
     1
  0
ENDSEC
  0
SECTION
  2
TABLES
  0
TABLE
  2
VPORT
  5
8
330
0
100
AcDbSymbolTable
 70
     4
  0
VPORT
  5
2E
330
8
100
AcDbSymbolTableRecord
100
AcDbViewportTableRecord
  2
*ACTIVE
 70
     0
 10
0.0
 20
0.0
 11
1.0
 21
1.0
 12
210.0
 22
148.5
 13
0.0
 23
0.0
 14
10.0
 24
10.0
 15
10.0
 25
10.0
 16
0.0
 26
0.0
 36
1.0
 17
0.0
 27
0.0
 37
0.0
 40
341.0
 41
1.24
 42
50.0
 43
0.0
 44
0.0
 50
0.0
 51
0.0
 71
     0
 72
   100
 73
     1
 74
     3
 75
     0
 76
     0
 77
     0
 78
     0
  0
ENDTAB
  0
TABLE
  2
LTYPE
  5
5
330
0
100
AcDbSymbolTable
 70
     1
  0
LTYPE
  5
14
330
5
100
AcDbSymbolTableRecord
100
AcDbLinetypeTableRecord
  2
BYBLOCK
 70
     0
  3

 72
    65
 73
     0
 40
0.0
  0
LTYPE
  5
15
330
5
100
AcDbSymbolTableRecord
100
AcDbLinetypeTableRecord
  2
BYLAYER
 70
     0
  3

 72
    65
 73
     0
 40
0.0
  0
LTYPE
  5
16
330
5
100
AcDbSymbolTableRecord
100
AcDbLinetypeTableRecord
  2
CONTINUOUS
 70
     0
  3
Solid line
 72
    65
 73
     0
 40
0.0
  0
ENDTAB
  0
TABLE
0
TABLE
2
LAYER
5
2
330
0
100
AcDbSymbolTable
70
2
0
LAYER
5
10
330
2
100
AcDbSymbolTableRecord
100
AcDbLayerTableRecord
2
Layer_1
70
0
62
7
6
CONTINUOUS
0
LAYER
5
10
330
2
100
AcDbSymbolTableRecord
100
AcDbLayerTableRecord
2
0
70
0
62
7
6
CONTINUOUS
0
ENDTAB
0
ENDSEC
  0
ENDTAB
  0
TABLE
  2
STYLE
  5
3
330
0
100
AcDbSymbolTable
 70
     1
  0
STYLE
  5
11
330
3
100
AcDbSymbolTableRecord
100
AcDbTextStyleTableRecord
  2
STANDARD
 70
     0
 40
0.0
 41
1.0
 50
0.0
 71
     0
 42
2.5
  3
txt
  4

  0
ENDTAB
  0
TABLE
  2
VIEW
  5
6
330
0
100
AcDbSymbolTable
 70
     0
  0
ENDTAB
  0
TABLE
  2
UCS
  5
7
330
0
100
AcDbSymbolTable
 70
     0
  0
ENDTAB
  0
TABLE
  2
APPID
  5
9
330
0
100
AcDbSymbolTable
 70
     2
  0
APPID
  5
12
330
9
100
AcDbSymbolTableRecord
100
AcDbRegAppTableRecord
  2
ACAD
 70
     0
  0
ENDTAB
  0
TABLE
  2
DIMSTYLE
  5
A
330
0
100
AcDbSymbolTable
 70
     1
  0
DIMSTYLE
105
27
330
A
100
AcDbSymbolTableRecord
100
AcDbDimStyleTableRecord
  2
ISO-25
 70
     0
  3

  4

  5

  6

  7

 40
1.0
 41
2.5
 42
0.625
 43
3.75
 44
1.25
 45
0.0
 46
0.0
 47
0.0
 48
0.0
140
2.5
141
2.5
142
0.0
143
0.03937007874016
144
1.0
145
0.0
146
1.0
147
0.625
 71
     0
 72
     0
 73
     0
 74
     0
 75
     0
 76
     0
 77
     1
 78
     8
170
     0
171
     3
172
     1
173
     0
174
     0
175
     0
176
     0
177
     0
178
     0
270
     2
271
     2
272
     2
273
     2
274
     3
340
11
275
     0
280
     0
281
     0
282
     0
283
     0
284
     8
285
     0
286
     0
287
     3
288
     0
  0
ENDTAB
  0
TABLE
  2
BLOCK_RECORD
  5
1
330
0
100
AcDbSymbolTable
 70
     1
  0
BLOCK_RECORD
  5
1F
330
1
100
AcDbSymbolTableRecord
100
AcDbBlockTableRecord
  2
*MODEL_SPACE
  0
BLOCK_RECORD
  5
1B
330
1
100
AcDbSymbolTableRecord
100
AcDbBlockTableRecord
  2
*PAPER_SPACE
  0
ENDTAB
  0
ENDSEC
  0
SECTION
  2
BLOCKS
  0
BLOCK
  5
20
330
1F
100
AcDbEntity
  8
0
100
AcDbBlockBegin
  2
*MODEL_SPACE
 70
     0
 10
0.0
 20
0.0
 30
0.0
  3
*MODEL_SPACE
  1

  0
ENDBLK
  5
21
330
1F
100
AcDbEntity
  8
0
100
AcDbBlockEnd
  0
BLOCK
  5
1C
330
1B
100
AcDbEntity
 67
     1
  8
0
100
AcDbBlockBegin
  2
*PAPER_SPACE
  1

  0
ENDBLK
  5
1D
330
1B
100
AcDbEntity
 67
     1
  8
0
100
AcDbBlockEnd
  0
ENDSEC
  0
SECTION
  2
ENTITIES
0
DIMENSION
5
83
100
AcDbEntity
62
256
370
-1
6
ByLayer
1
total_width
3
Standard
70
0
71
5
72
1
41
1.0
100
AcDbAlignedDimension
13
-0.846667
23
0.000000
33
0.0
14
183.194912
24
0.000000
34
0.0
50
0.000000
100
AcDbRotatedDimension
0
DIMENSION
5
83
100
AcDbEntity
62
256
370
-1
6
ByLayer
1
total_minx
3
Standard
70
0
71
5
72
1
41
1.0
100
AcDbAlignedDimension
13
-0.846667
23
0.000000
33
0.0
14
0.000000
24
0.000000
34
0.0
50
0.000000
100
AcDbRotatedDimension
0
DIMENSION
5
83
100
AcDbEntity
62
256
370
-1
6
ByLayer
1
total_maxx
3
Standard
70
0
71
5
72
1
41
1.0
100
AcDbAlignedDimension
13
0.000000
23
0.000000
33
0.0
14
183.194912
24
0.000000
34
0.0
50
0.000000
100
AcDbRotatedDimension
0
DIMENSION
5
83
100
AcDbEntity
62
256
370
-1
6
ByLayer
1
total_height
3
Standard
70
0
71
5
72
1
41
1.0
100
AcDbAlignedDimension
13
0.000000
23
40.813557
33
0.0
14
0.000000
24
298.411111
34
0.0
50
90.000000
100
AcDbRotatedDimension
0
DIMENSION
5
83
100
AcDbEntity
62
256
370
-1
6
ByLayer
1
total_miny
3
Standard
70
0
71
5
72
1
41
1.0
100
AcDbAlignedDimension
13
40.813557
23
0.000000
33
0.0
14
0.000000
24
0.000000
34
0.0
50
0.000000
100
AcDbRotatedDimension
0
DIMENSION
5
83
100
AcDbEntity
62
256
370
-1
6
ByLayer
1
total_maxy
3
Standard
70
0
71
5
72
1
41
1.0
100
AcDbAlignedDimension
13
0.000000
23
0.000000
33
0.0
14
298.411111
24
0.000000
34
0.0
50
0.000000
100
AcDbRotatedDimension
0
DIMENSION
8
Layer_1
5
83
100
AcDbEntity
62
256
370
-1
6
ByLayer
1
Layer_1_width
3
Standard
70
0
71
5
72
1
41
1.0
100
AcDbAlignedDimension
13
-0.846667
23
0.000000
33
0.0
14
2.257778
24
0.000000
34
0.0
50
0.000000
100
AcDbRotatedDimension
0
DIMENSION
8
Layer_1
5
83
100
AcDbEntity
62
256
370
-1
6
ByLayer
1
Layer_1_minx
3
Standard
70
0
71
5
72
1
41
1.0
100
AcDbAlignedDimension
13
-0.846667
23
0.000000
33
0.0
14
0.000000
24
0.000000
34
0.0
50
0.000000
100
AcDbRotatedDimension
0
DIMENSION
8
Layer_1
5
83
100
AcDbEntity
62
256
370
-1
6
ByLayer
1
Layer_1_maxx
3
Standard
70
0
71
5
72
1
41
1.0
100
AcDbAlignedDimension
13
0.000000
23
0.000000
33
0.0
14
2.257778
24
0.000000
34
0.0
50
0.000000
100
AcDbRotatedDimension
0
DIMENSION
8
Layer_1
5
83
100
AcDbEntity
62
256
370
-1
6
ByLayer
1
Layer_1_height
3
Standard
70
0
71
5
72
1
41
1.0
100
AcDbAlignedDimension
13
0.000000
23
294.742222
33
0.0
14
0.000000
24
298.411111
34
0.0
50
90.000000
100
AcDbRotatedDimension
0
DIMENSION
8
Layer_1
5
83
100
AcDbEntity
62
256
370
-1
6
ByLayer
1
Layer_1_miny
3
Standard
70
0
71
5
72
1
41
1.0
100
AcDbAlignedDimension
13
294.742222
23
0.000000
33
0.0
14
0.000000
24
0.000000
34
0.0
50
0.000000
100
AcDbRotatedDimension
0
DIMENSION
8
Layer_1
5
83
100
AcDbEntity
62
256
370
-1
6
ByLayer
1
Layer_1_maxy
3
Standard
70
0
71
5
72
1
41
1.0
100
AcDbAlignedDimension
13
0.000000
23
0.000000
33
0.0
14
298.411111
24
0.000000
34
0.0
50
0.000000
100
AcDbRotatedDimension
0
DIMENSION
8
0
5
83
100
AcDbEntity
62
256
370
-1
6
ByLayer
1
0_width
3
Standard
70
0
71
5
72
1
41
1.0
100
AcDbAlignedDimension
13
23.194913
23
0.000000
33
0.0
14
183.194912
24
0.000000
34
0.0
50
0.000000
100
AcDbRotatedDimension
0
DIMENSION
8
0
5
83
100
AcDbEntity
62
256
370
-1
6
ByLayer
1
0_minx
3
Standard
70
0
71
5
72
1
41
1.0
100
AcDbAlignedDimension
13
23.194913
23
0.000000
33
0.0
14
0.000000
24
0.000000
34
0.0
50
0.000000
100
AcDbRotatedDimension
0
DIMENSION
8
0
5
83
100
AcDbEntity
62
256
370
-1
6
ByLayer
1
0_maxx
3
Standard
70
0
71
5
72
1
41
1.0
100
AcDbAlignedDimension
13
0.000000
23
0.000000
33
0.0
14
183.194912
24
0.000000
34
0.0
50
0.000000
100
AcDbRotatedDimension
0
DIMENSION
8
0
5
83
100
AcDbEntity
62
256
370
-1
6
ByLayer
1
0_height
3
Standard
70
0
71
5
72
1
41
1.0
100
AcDbAlignedDimension
13
0.000000
23
40.813557
33
0.0
14
0.000000
24
200.813556
34
0.0
50
90.000000
100
AcDbRotatedDimension
0
DIMENSION
8
0
5
83
100
AcDbEntity
62
256
370
-1
6
ByLayer
1
0_miny
3
Standard
70
0
71
5
72
1
41
1.0
100
AcDbAlignedDimension
13
40.813557
23
0.000000
33
0.0
14
0.000000
24
0.000000
34
0.0
50
0.000000
100
AcDbRotatedDimension
0
DIMENSION
8
0
5
83
100
AcDbEntity
62
256
370
-1
6
ByLayer
1
0_maxy
3
Standard
70
0
71
5
72
1
41
1.0
100
AcDbAlignedDimension
13
0.000000
23
0.000000
33
0.0
14
200.813556
24
0.000000
34
0.0
50
0.000000
100
AcDbRotatedDimension
62
0
0
LWPOLYLINE
100
AcDbPolyline
8
Layer_1
90
2
70
0
10
0.846667
20
297.846667
30
0.0
10
-0.846667
20
296.153333
30
0.0
62
0
0
LWPOLYLINE
100
AcDbPolyline
8
Layer_1
90
2
70
0
10
0.000000
20
298.411111
30
0.0
10
0.000000
20
295.588889
30
0.0
62
0
0
LWPOLYLINE
100
AcDbPolyline
8
Layer_1
90
2
70
0
10
2.257778
20
295.871111
30
0.0
10
1.128889
20
294.742222
30
0.0
62
0
0
LWPOLYLINE
100
AcDbPolyline
8
Layer_1
90
2
70
0
10
1.693333
20
296.435556
30
0.0
10
0.564444
20
295.306667
30
0.0
62
0
0
LWPOLYLINE
100
AcDbPolyline
8
Layer_1
90
2
70
0
10
1.128889
20
297.000000
30
0.0
10
0.000000
20
295.871111
30
0.0
62
0
0
LWPOLYLINE
100
AcDbPolyline
8
0
90
2
70
0
10
183.194912
20
200.813556
30
0.0
10
23.194913
20
200.813556
30
0.0
62
0
0
LWPOLYLINE
100
AcDbPolyline
8
0
90
2
70
0
10
23.194913
20
200.813556
30
0.0
10
23.194913
20
40.813557
30
0.0
62
0
0
LWPOLYLINE
100
AcDbPolyline
8
0
90
2
70
0
10
23.194913
20
40.813557
30
0.0
10
183.194912
20
40.813557
30
0.0
62
0
0
LWPOLYLINE
100
AcDbPolyline
8
0
90
2
70
0
10
183.194912
20
40.813557
30
0.0
10
183.194912
20
200.813556
30
0.0
62
0
0
LWPOLYLINE
100
AcDbPolyline
8
0
90
18
70
0
10
38.273414
20
188.312392
30
0.0
10
39.521190
20
187.598769
30
0.0
10
40.299561
20
186.906837
30
0.0
10
40.671157
20
186.251779
30
0.0
10
40.698605
20
185.648779
30
0.0
10
40.444534
20
185.113022
30
0.0
10
39.971571
20
184.659692
30
0.0
10
38.619485
20
184.061047
30
0.0
10
37.143373
20
183.974318
30
0.0
10
36.515377
20
184.160882
30
0.0
10
36.044260
20
184.520976
30
0.0
10
35.792648
20
185.069786
30
0.0
10
35.823171
20
185.822494
30
0.0
10
36.198457
20
186.794286
30
0.0
10
36.981133
20
188.000345
30
0.0
10
37.687998
20
188.261649
30
0.0
10
38.273414
20
188.312392
30
0.0
10
38.273414
20
188.312392
30
0.0
62
0
0
LWPOLYLINE
100
AcDbPolyline
8
0
90
18
70
0
10
168.273414
20
188.312392
30
0.0
10
169.521174
20
187.598771
30
0.0
10
170.299537
20
186.906839
30
0.0
10
170.671128
20
186.251781
30
0.0
10
170.698576
20
185.648781
30
0.0
10
170.444507
20
185.113023
30
0.0
10
169.971549
20
184.659691
30
0.0
10
168.619475
20
184.061041
30
0.0
10
167.143372
20
183.974305
30
0.0
10
166.515378
20
184.160865
30
0.0
10
166.044259
20
184.520956
30
0.0
10
165.792642
20
185.069762
30
0.0
10
165.823154
20
185.822467
30
0.0
10
166.198423
20
186.794256
30
0.0
10
166.981076
20
188.000311
30
0.0
10
167.687899
20
188.261669
30
0.0
10
168.273414
20
188.312392
30
0.0
10
168.273414
20
188.312392
30
0.0
62
0
0
LWPOLYLINE
100
AcDbPolyline
8
0
90
86
70
0
10
158.882814
20
92.439155
30
0.0
10
156.607702
20
88.272496
30
0.0
10
154.006510
20
84.321773
30
0.0
10
151.102427
20
80.599497
30
0.0
10
147.918639
20
77.118180
30
0.0
10
144.478335
20
73.890331
30
0.0
10
140.804702
20
70.928462
30
0.0
10
136.920928
20
68.245083
30
0.0
10
132.850199
20
65.852706
30
0.0
10
128.615704
20
63.763839
30
0.0
10
124.240630
20
61.990995
30
0.0
10
119.748164
20
60.546684
30
0.0
10
115.161495
20
59.443417
30
0.0
10
110.503809
20
58.693704
30
0.0
10
105.798295
20
58.310056
30
0.0
10
101.068139
20
58.304983
30
0.0
10
96.336530
20
58.690997
30
0.0
10
91.634663
20
59.346446
30
0.0
10
87.019527
20
60.383245
30
0.0
10
82.511023
20
61.784127
30
0.0
10
78.129051
20
63.531825
30
0.0
10
73.893512
20
65.609071
30
0.0
10
69.824304
20
67.998598
30
0.0
10
65.941329
20
70.683138
30
0.0
10
62.264486
20
73.645423
30
0.0
10
58.813676
20
76.868187
30
0.0
10
55.608797
20
80.334162
30
0.0
10
52.669752
20
84.026080
30
0.0
10
50.016438
20
87.926673
30
0.0
10
47.668758
20
92.018675
30
0.0
10
45.646610
20
96.284818
30
0.0
10
43.969895
20
100.707834
30
0.0
10
42.658513
20
105.270457
30
0.0
10
41.609638
20
109.900467
30
0.0
10
40.948159
20
114.584144
30
0.0
10
40.664957
20
119.296767
30
0.0
10
40.750910
20
124.013619
30
0.0
10
41.196901
20
128.709980
30
0.0
10
41.993809
20
133.361131
30
0.0
10
43.132515
20
137.942353
30
0.0
10
44.603900
20
142.428928
30
0.0
10
46.398845
20
146.796135
30
0.0
10
48.508229
20
151.019256
30
0.0
10
50.922933
20
155.073573
30
0.0
10
53.633839
20
158.934365
30
0.0
10
56.631826
20
162.576914
30
0.0
10
59.907774
20
165.976502
30
0.0
10
63.452566
20
169.108408
30
0.0
10
67.257081
20
171.947915
30
0.0
10
71.217458
20
174.565655
30
0.0
10
75.364968
20
176.839981
30
0.0
10
79.673266
20
178.770687
30
0.0
10
84.116005
20
180.357564
30
0.0
10
88.666837
20
181.600406
30
0.0
10
93.299417
20
182.499005
30
0.0
10
97.987399
20
183.053154
30
0.0
10
102.704435
20
183.262647
30
0.0
10
107.424179
20
183.127275
30
0.0
10
112.120285
20
182.646831
30
0.0
10
116.766406
20
181.821108
30
0.0
10
121.336196
20
180.649899
30
0.0
10
125.803308
20
179.132997
30
0.0
10
130.141395
20
177.270194
30
0.0
10
134.324112
20
175.061283
30
0.0
10
138.325112
20
172.506057
30
0.0
10
142.173767
20
169.726673
30
0.0
10
145.767321
20
166.650843
30
0.0
10
149.096268
20
163.303139
30
0.0
10
152.151101
20
159.708136
30
0.0
10
154.922314
20
155.890406
30
0.0
10
157.400402
20
151.874521
30
0.0
10
159.575857
20
147.685055
30
0.0
10
161.439175
20
143.346582
30
0.0
10
162.980848
20
138.883673
30
0.0
10
164.191371
20
134.320901
30
0.0
10
165.061238
20
129.682841
30
0.0
10
165.580942
20
124.994065
30
0.0
10
165.740978
20
120.279145
30
0.0
10
165.531839
20
115.562655
30
0.0
10
164.944019
20
110.869167
30
0.0
10
163.968012
20
106.223256
30
0.0
10
163.003679
20
102.670777
30
0.0
10
161.831765
20
99.181295
30
0.0
10
160.456675
20
95.766768
30
0.0
10
158.882814
20
92.439155
30
0.0
10
158.882814
20
92.439155
30
0.0
62
0
0
LWPOLYLINE
100
AcDbPolyline
8
0
90
18
70
0
10
38.037914
20
53.318456
30
0.0
10
36.813201
20
54.070916
30
0.0
10
36.056970
20
54.786950
30
0.0
10
35.706150
20
55.453349
30
0.0
10
35.697666
20
56.056906
30
0.0
10
35.968446
20
56.584410
30
0.0
10
36.455415
20
57.022652
30
0.0
10
37.825633
20
57.578517
30
0.0
10
39.303733
20
57.618827
30
0.0
10
39.925556
20
57.412627
30
0.0
10
40.385130
20
57.037911
30
0.0
10
40.619381
20
56.481470
30
0.0
10
40.565238
20
55.730095
30
0.0
10
40.159626
20
54.770578
30
0.0
10
39.339472
20
53.589709
30
0.0
10
38.624761
20
53.350717
30
0.0
10
38.037914
20
53.318456
30
0.0
10
38.037914
20
53.318456
30
0.0
62
0
0
LWPOLYLINE
100
AcDbPolyline
8
0
90
18
70
0
10
168.116414
20
53.314723
30
0.0
10
166.868641
20
54.028342
30
0.0
10
166.090272
20
54.720270
30
0.0
10
165.718678
20
55.375323
30
0.0
10
165.691230
20
55.978318
30
0.0
10
165.945302
20
56.514069
30
0.0
10
166.418265
20
56.967394
30
0.0
10
167.770349
20
57.566029
30
0.0
10
169.246459
20
57.652750
30
0.0
10
169.874453
20
57.466183
30
0.0
10
170.345569
20
57.106085
30
0.0
10
170.597179
20
56.557273
30
0.0
10
170.566654
20
55.804564
30
0.0
10
170.191367
20
54.832772
30
0.0
10
169.408689
20
53.626714
30
0.0
10
168.701827
20
53.365399
30
0.0
10
168.116414
20
53.314723
30
0.0
10
168.116414
20
53.314723
30
0.0
  0
ENDSEC
  0
SECTION
  2
OBJECTS
  0
DICTIONARY
  5
C
330
0
100
AcDbDictionary
  3
ACAD_GROUP
350
D
  3
ACAD_MLINESTYLE
350
17
  0
DICTIONARY
  5
D
330
C
100
AcDbDictionary
  0
DICTIONARY
  5
1A
330
C
100
AcDbDictionary
  0
DICTIONARY
  5
17
330
C
100
AcDbDictionary
  3
STANDARD
350
18
  0
DICTIONARY
  5
19
330
C
100
AcDbDictionary
  0
ENDSEC
  0
EOF
