999
Inkscape export via OpenSCAD DXF Export
  0
SECTION
  2
HEADER
  9
$ACADVER
  1
AC1014
  9
$HANDSEED
  5
FFFF
  9
$MEASUREMENT
 70
     1
  0
ENDSEC
  0
SECTION
  2
TABLES
  0
TABLE
  2
VPORT
  5
8
330
0
100
AcDbSymbolTable
 70
     4
  0
VPORT
  5
2E
330
8
100
AcDbSymbolTableRecord
100
AcDbViewportTableRecord
  2
*ACTIVE
 70
     0
 10
0.0
 20
0.0
 11
1.0
 21
1.0
 12
210.0
 22
148.5
 13
0.0
 23
0.0
 14
10.0
 24
10.0
 15
10.0
 25
10.0
 16
0.0
 26
0.0
 36
1.0
 17
0.0
 27
0.0
 37
0.0
 40
341.0
 41
1.24
 42
50.0
 43
0.0
 44
0.0
 50
0.0
 51
0.0
 71
     0
 72
   100
 73
     1
 74
     3
 75
     0
 76
     0
 77
     0
 78
     0
  0
ENDTAB
  0
TABLE
  2
LTYPE
  5
5
330
0
100
AcDbSymbolTable
 70
     1
  0
LTYPE
  5
14
330
5
100
AcDbSymbolTableRecord
100
AcDbLinetypeTableRecord
  2
BYBLOCK
 70
     0
  3

 72
    65
 73
     0
 40
0.0
  0
LTYPE
  5
15
330
5
100
AcDbSymbolTableRecord
100
AcDbLinetypeTableRecord
  2
BYLAYER
 70
     0
  3

 72
    65
 73
     0
 40
0.0
  0
LTYPE
  5
16
330
5
100
AcDbSymbolTableRecord
100
AcDbLinetypeTableRecord
  2
CONTINUOUS
 70
     0
  3
Solid line
 72
    65
 73
     0
 40
0.0
  0
ENDTAB
  0
TABLE
0
TABLE
2
LAYER
5
2
330
0
100
AcDbSymbolTable
70
2
0
LAYER
5
10
330
2
100
AcDbSymbolTableRecord
100
AcDbLayerTableRecord
2
Layer_1
70
0
62
7
6
CONTINUOUS
0
LAYER
5
10
330
2
100
AcDbSymbolTableRecord
100
AcDbLayerTableRecord
2
0
70
0
62
7
6
CONTINUOUS
0
ENDTAB
0
ENDSEC
  0
ENDTAB
  0
TABLE
  2
STYLE
  5
3
330
0
100
AcDbSymbolTable
 70
     1
  0
STYLE
  5
11
330
3
100
AcDbSymbolTableRecord
100
AcDbTextStyleTableRecord
  2
STANDARD
 70
     0
 40
0.0
 41
1.0
 50
0.0
 71
     0
 42
2.5
  3
txt
  4

  0
ENDTAB
  0
TABLE
  2
VIEW
  5
6
330
0
100
AcDbSymbolTable
 70
     0
  0
ENDTAB
  0
TABLE
  2
UCS
  5
7
330
0
100
AcDbSymbolTable
 70
     0
  0
ENDTAB
  0
TABLE
  2
APPID
  5
9
330
0
100
AcDbSymbolTable
 70
     2
  0
APPID
  5
12
330
9
100
AcDbSymbolTableRecord
100
AcDbRegAppTableRecord
  2
ACAD
 70
     0
  0
ENDTAB
  0
TABLE
  2
DIMSTYLE
  5
A
330
0
100
AcDbSymbolTable
 70
     1
  0
DIMSTYLE
105
27
330
A
100
AcDbSymbolTableRecord
100
AcDbDimStyleTableRecord
  2
ISO-25
 70
     0
  3

  4

  5

  6

  7

 40
1.0
 41
2.5
 42
0.625
 43
3.75
 44
1.25
 45
0.0
 46
0.0
 47
0.0
 48
0.0
140
2.5
141
2.5
142
0.0
143
0.03937007874016
144
1.0
145
0.0
146
1.0
147
0.625
 71
     0
 72
     0
 73
     0
 74
     0
 75
     0
 76
     0
 77
     1
 78
     8
170
     0
171
     3
172
     1
173
     0
174
     0
175
     0
176
     0
177
     0
178
     0
270
     2
271
     2
272
     2
273
     2
274
     3
340
11
275
     0
280
     0
281
     0
282
     0
283
     0
284
     8
285
     0
286
     0
287
     3
288
     0
  0
ENDTAB
  0
TABLE
  2
BLOCK_RECORD
  5
1
330
0
100
AcDbSymbolTable
 70
     1
  0
BLOCK_RECORD
  5
1F
330
1
100
AcDbSymbolTableRecord
100
AcDbBlockTableRecord
  2
*MODEL_SPACE
  0
BLOCK_RECORD
  5
1B
330
1
100
AcDbSymbolTableRecord
100
AcDbBlockTableRecord
  2
*PAPER_SPACE
  0
ENDTAB
  0
ENDSEC
  0
SECTION
  2
BLOCKS
  0
BLOCK
  5
20
330
1F
100
AcDbEntity
  8
0
100
AcDbBlockBegin
  2
*MODEL_SPACE
 70
     0
 10
0.0
 20
0.0
 30
0.0
  3
*MODEL_SPACE
  1

  0
ENDBLK
  5
21
330
1F
100
AcDbEntity
  8
0
100
AcDbBlockEnd
  0
BLOCK
  5
1C
330
1B
100
AcDbEntity
 67
     1
  8
0
100
AcDbBlockBegin
  2
*PAPER_SPACE
  1

  0
ENDBLK
  5
1D
330
1B
100
AcDbEntity
 67
     1
  8
0
100
AcDbBlockEnd
  0
ENDSEC
  0
SECTION
  2
ENTITIES
0
DIMENSION
5
83
100
AcDbEntity
62
256
370
-1
6
ByLayer
1
total_width
3
Standard
70
0
71
5
72
1
41
1.0
100
AcDbAlignedDimension
13
-82.499999
23
0.000000
33
0.0
14
82.465082
24
0.000000
34
0.0
50
0.000000
100
AcDbRotatedDimension
0
DIMENSION
5
83
100
AcDbEntity
62
256
370
-1
6
ByLayer
1
total_minx
3
Standard
70
0
71
5
72
1
41
1.0
100
AcDbAlignedDimension
13
-82.499999
23
0.000000
33
0.0
14
0.000000
24
0.000000
34
0.0
50
0.000000
100
AcDbRotatedDimension
0
DIMENSION
5
83
100
AcDbEntity
62
256
370
-1
6
ByLayer
1
total_maxx
3
Standard
70
0
71
5
72
1
41
1.0
100
AcDbAlignedDimension
13
0.000000
23
0.000000
33
0.0
14
82.465082
24
0.000000
34
0.0
50
0.000000
100
AcDbRotatedDimension
0
DIMENSION
5
83
100
AcDbEntity
62
256
370
-1
6
ByLayer
1
total_height
3
Standard
70
0
71
5
72
1
41
1.0
100
AcDbAlignedDimension
13
0.000000
23
-82.497982
33
0.0
14
0.000000
24
298.411111
34
0.0
50
90.000000
100
AcDbRotatedDimension
0
DIMENSION
5
83
100
AcDbEntity
62
256
370
-1
6
ByLayer
1
total_miny
3
Standard
70
0
71
5
72
1
41
1.0
100
AcDbAlignedDimension
13
-82.497982
23
0.000000
33
0.0
14
0.000000
24
0.000000
34
0.0
50
0.000000
100
AcDbRotatedDimension
0
DIMENSION
5
83
100
AcDbEntity
62
256
370
-1
6
ByLayer
1
total_maxy
3
Standard
70
0
71
5
72
1
41
1.0
100
AcDbAlignedDimension
13
0.000000
23
0.000000
33
0.0
14
298.411111
24
0.000000
34
0.0
50
0.000000
100
AcDbRotatedDimension
0
DIMENSION
8
Layer_1
5
83
100
AcDbEntity
62
256
370
-1
6
ByLayer
1
Layer_1_width
3
Standard
70
0
71
5
72
1
41
1.0
100
AcDbAlignedDimension
13
-0.846667
23
0.000000
33
0.0
14
2.257778
24
0.000000
34
0.0
50
0.000000
100
AcDbRotatedDimension
0
DIMENSION
8
Layer_1
5
83
100
AcDbEntity
62
256
370
-1
6
ByLayer
1
Layer_1_minx
3
Standard
70
0
71
5
72
1
41
1.0
100
AcDbAlignedDimension
13
-0.846667
23
0.000000
33
0.0
14
0.000000
24
0.000000
34
0.0
50
0.000000
100
AcDbRotatedDimension
0
DIMENSION
8
Layer_1
5
83
100
AcDbEntity
62
256
370
-1
6
ByLayer
1
Layer_1_maxx
3
Standard
70
0
71
5
72
1
41
1.0
100
AcDbAlignedDimension
13
0.000000
23
0.000000
33
0.0
14
2.257778
24
0.000000
34
0.0
50
0.000000
100
AcDbRotatedDimension
0
DIMENSION
8
Layer_1
5
83
100
AcDbEntity
62
256
370
-1
6
ByLayer
1
Layer_1_height
3
Standard
70
0
71
5
72
1
41
1.0
100
AcDbAlignedDimension
13
0.000000
23
294.742222
33
0.0
14
0.000000
24
298.411111
34
0.0
50
90.000000
100
AcDbRotatedDimension
0
DIMENSION
8
Layer_1
5
83
100
AcDbEntity
62
256
370
-1
6
ByLayer
1
Layer_1_miny
3
Standard
70
0
71
5
72
1
41
1.0
100
AcDbAlignedDimension
13
294.742222
23
0.000000
33
0.0
14
0.000000
24
0.000000
34
0.0
50
0.000000
100
AcDbRotatedDimension
0
DIMENSION
8
Layer_1
5
83
100
AcDbEntity
62
256
370
-1
6
ByLayer
1
Layer_1_maxy
3
Standard
70
0
71
5
72
1
41
1.0
100
AcDbAlignedDimension
13
0.000000
23
0.000000
33
0.0
14
298.411111
24
0.000000
34
0.0
50
0.000000
100
AcDbRotatedDimension
0
DIMENSION
8
0
5
83
100
AcDbEntity
62
256
370
-1
6
ByLayer
1
0_width
3
Standard
70
0
71
5
72
1
41
1.0
100
AcDbAlignedDimension
13
-82.499999
23
0.000000
33
0.0
14
82.465082
24
0.000000
34
0.0
50
0.000000
100
AcDbRotatedDimension
0
DIMENSION
8
0
5
83
100
AcDbEntity
62
256
370
-1
6
ByLayer
1
0_minx
3
Standard
70
0
71
5
72
1
41
1.0
100
AcDbAlignedDimension
13
-82.499999
23
0.000000
33
0.0
14
0.000000
24
0.000000
34
0.0
50
0.000000
100
AcDbRotatedDimension
0
DIMENSION
8
0
5
83
100
AcDbEntity
62
256
370
-1
6
ByLayer
1
0_maxx
3
Standard
70
0
71
5
72
1
41
1.0
100
AcDbAlignedDimension
13
0.000000
23
0.000000
33
0.0
14
82.465082
24
0.000000
34
0.0
50
0.000000
100
AcDbRotatedDimension
0
DIMENSION
8
0
5
83
100
AcDbEntity
62
256
370
-1
6
ByLayer
1
0_height
3
Standard
70
0
71
5
72
1
41
1.0
100
AcDbAlignedDimension
13
0.000000
23
-82.497982
33
0.0
14
0.000000
24
82.550207
34
0.0
50
90.000000
100
AcDbRotatedDimension
0
DIMENSION
8
0
5
83
100
AcDbEntity
62
256
370
-1
6
ByLayer
1
0_miny
3
Standard
70
0
71
5
72
1
41
1.0
100
AcDbAlignedDimension
13
-82.497982
23
0.000000
33
0.0
14
0.000000
24
0.000000
34
0.0
50
0.000000
100
AcDbRotatedDimension
0
DIMENSION
8
0
5
83
100
AcDbEntity
62
256
370
-1
6
ByLayer
1
0_maxy
3
Standard
70
0
71
5
72
1
41
1.0
100
AcDbAlignedDimension
13
0.000000
23
0.000000
33
0.0
14
82.550207
24
0.000000
34
0.0
50
0.000000
100
AcDbRotatedDimension
62
0
0
LWPOLYLINE
100
AcDbPolyline
8
Layer_1
90
2
70
0
10
0.846667
20
297.846667
30
0.0
10
-0.846667
20
296.153333
30
0.0
62
0
0
LWPOLYLINE
100
AcDbPolyline
8
Layer_1
90
2
70
0
10
0.000000
20
298.411111
30
0.0
10
0.000000
20
295.588889
30
0.0
62
0
0
LWPOLYLINE
100
AcDbPolyline
8
Layer_1
90
2
70
0
10
2.257778
20
295.871111
30
0.0
10
1.128889
20
294.742222
30
0.0
62
0
0
LWPOLYLINE
100
AcDbPolyline
8
Layer_1
90
2
70
0
10
1.693333
20
296.435556
30
0.0
10
0.564444
20
295.306667
30
0.0
62
0
0
LWPOLYLINE
100
AcDbPolyline
8
Layer_1
90
2
70
0
10
1.128889
20
297.000000
30
0.0
10
0.000000
20
295.871111
30
0.0
62
0
0
LWPOLYLINE
100
AcDbPolyline
8
0
90
86
70
0
10
-82.499999
20
0.000001
30
0.0
10
-82.324545
20
-6.181111
30
0.0
10
-81.650296
20
-12.306448
30
0.0
10
-80.496060
20
-18.348334
30
0.0
10
-78.880647
20
-24.279094
30
0.0
10
-76.822865
20
-30.071054
30
0.0
10
-74.341523
20
-35.696536
30
0.0
10
-71.455431
20
-41.127867
30
0.0
10
-68.183397
20
-46.337370
30
0.0
10
-64.544230
20
-51.297372
30
0.0
10
-60.556739
20
-55.980195
30
0.0
10
-56.239734
20
-60.358165
30
0.0
10
-51.612023
20
-64.403608
30
0.0
10
-46.692415
20
-68.088846
30
0.0
10
-41.499719
20
-71.386206
30
0.0
10
-36.052745
20
-74.268011
30
0.0
10
-30.370300
20
-76.706588
30
0.0
10
-24.558655
20
-78.818857
30
0.0
10
-18.615248
20
-80.446832
30
0.0
10
-12.572736
20
-81.597812
30
0.0
10
-6.463774
20
-82.279095
30
0.0
10
-0.321020
20
-82.497982
30
0.0
10
5.822870
20
-82.261770
30
0.0
10
11.935241
20
-81.577760
30
0.0
10
17.983436
20
-80.453250
30
0.0
10
23.934798
20
-78.895540
30
0.0
10
29.756672
20
-76.911928
30
0.0
10
35.416401
20
-74.509715
30
0.0
10
40.881328
20
-71.696199
30
0.0
10
46.118798
20
-68.478680
30
0.0
10
51.096154
20
-64.864456
30
0.0
10
55.780740
20
-60.860827
30
0.0
10
60.139899
20
-56.475092
30
0.0
10
64.243259
20
-51.849158
30
0.0
10
67.944836
20
-46.922430
30
0.0
10
71.239395
20
-41.727959
30
0.0
10
74.121701
20
-36.298795
30
0.0
10
76.586520
20
-30.667990
30
0.0
10
78.628616
20
-24.868593
30
0.0
10
80.242755
20
-18.933655
30
0.0
10
81.423702
20
-12.896226
30
0.0
10
82.166222
20
-6.789358
30
0.0
10
82.465082
20
-0.646100
30
0.0
10
82.315045
20
5.500497
30
0.0
10
81.710877
20
11.617383
30
0.0
10
80.647343
20
17.671507
30
0.0
10
79.119209
20
23.629818
30
0.0
10
77.121240
20
29.459267
30
0.0
10
74.648201
20
35.126802
30
0.0
10
71.857653
20
40.644923
30
0.0
10
68.639531
20
45.900206
30
0.0
10
65.022637
20
50.875617
30
0.0
10
61.035773
20
55.554123
30
0.0
10
56.707742
20
59.918688
30
0.0
10
52.067346
20
63.952280
30
0.0
10
47.143387
20
67.637864
30
0.0
10
41.964668
20
70.958407
30
0.0
10
36.559990
20
73.896875
30
0.0
10
30.958155
20
76.436234
30
0.0
10
25.187967
20
78.559450
30
0.0
10
19.278226
20
80.249489
30
0.0
10
13.257736
20
81.489317
30
0.0
10
7.155299
20
82.261901
30
0.0
10
0.999716
20
82.550207
30
0.0
10
-5.180210
20
82.337200
30
0.0
10
-11.338108
20
81.773978
30
0.0
10
-17.409022
20
80.716446
30
0.0
10
-23.366513
20
79.185114
30
0.0
10
-29.184139
20
77.200493
30
0.0
10
-34.835463
20
74.783090
30
0.0
10
-40.294043
20
71.953417
30
0.0
10
-45.533439
20
68.731983
30
0.0
10
-50.527213
20
65.139297
30
0.0
10
-55.248924
20
61.195868
30
0.0
10
-59.672133
20
56.922208
30
0.0
10
-63.770399
20
52.338824
30
0.0
10
-67.517283
20
47.466227
30
0.0
10
-70.886345
20
42.324927
30
0.0
10
-73.851145
20
36.935432
30
0.0
10
-76.385243
20
31.318253
30
0.0
10
-78.462200
20
25.493899
30
0.0
10
-80.220678
20
19.259221
30
0.0
10
-81.483998
20
12.905792
30
0.0
10
-82.245870
20
6.472943
30
0.0
10
-82.499999
20
0.000001
30
0.0
10
-82.499999
20
0.000001
30
0.0
62
0
0
LWPOLYLINE
100
AcDbPolyline
8
0
90
19
70
0
10
0.313324
20
74.980299
30
0.0
10
1.256021
20
74.713155
30
0.0
10
1.923277
20
74.134081
30
0.0
10
2.316747
20
73.348470
30
0.0
10
2.438087
20
72.461716
30
0.0
10
2.288953
20
71.579214
30
0.0
10
1.871000
20
70.806356
30
0.0
10
1.185884
20
70.248537
30
0.0
10
0.235260
20
70.011150
30
0.0
10
-0.743004
20
70.066206
30
0.0
10
-1.520506
20
70.485770
30
0.0
10
-2.075872
20
71.166624
30
0.0
10
-2.387727
20
72.005550
30
0.0
10
-2.434695
20
72.899332
30
0.0
10
-2.195403
20
73.744750
30
0.0
10
-1.648475
20
74.438588
30
0.0
10
-0.772537
20
74.877627
30
0.0
10
0.313324
20
74.980299
30
0.0
10
0.313324
20
74.980299
30
0.0
62
0
0
LWPOLYLINE
100
AcDbPolyline
8
0
90
82
70
0
10
-36.148800
20
49.754501
30
0.0
10
-32.086352
20
52.528632
30
0.0
10
-27.816140
20
54.926993
30
0.0
10
-23.368265
20
56.949820
30
0.0
10
-18.772826
20
58.597350
30
0.0
10
-14.059925
20
59.869818
30
0.0
10
-9.259662
20
60.767461
30
0.0
10
-4.402136
20
61.290517
30
0.0
10
0.482552
20
61.439221
30
0.0
10
5.364302
20
61.213809
30
0.0
10
10.213013
20
60.614519
30
0.0
10
14.998585
20
59.641586
30
0.0
10
19.690918
20
58.295248
30
0.0
10
24.259911
20
56.575740
30
0.0
10
28.675466
20
54.483299
30
0.0
10
32.907480
20
52.018162
30
0.0
10
36.925854
20
49.180565
30
0.0
10
40.771866
20
46.113409
30
0.0
10
44.319809
20
42.737184
30
0.0
10
47.561060
20
39.080730
30
0.0
10
50.486992
20
35.172885
30
0.0
10
53.088983
20
31.042487
30
0.0
10
55.358408
20
26.718377
30
0.0
10
57.286643
20
22.229392
30
0.0
10
58.865064
20
17.604372
30
0.0
10
60.085046
20
12.872155
30
0.0
10
60.937965
20
8.061581
30
0.0
10
61.415196
20
3.201488
30
0.0
10
61.508117
20
-1.679286
30
0.0
10
61.208102
20
-6.551900
30
0.0
10
60.506527
20
-11.387517
30
0.0
10
59.394768
20
-16.157297
30
0.0
10
57.864200
20
-20.832401
30
0.0
10
56.063493
20
-25.410244
30
0.0
10
53.879741
20
-29.794079
30
0.0
10
51.337973
20
-33.967183
30
0.0
10
48.463215
20
-37.912832
30
0.0
10
45.280496
20
-41.614303
30
0.0
10
41.814842
20
-45.054871
30
0.0
10
38.091281
20
-48.217813
30
0.0
10
34.134841
20
-51.086405
30
0.0
10
29.970549
20
-53.643923
30
0.0
10
25.623433
20
-55.873643
30
0.0
10
21.118520
20
-57.758841
30
0.0
10
16.480838
20
-59.282794
30
0.0
10
11.735414
20
-60.428778
30
0.0
10
6.907276
20
-61.180069
30
0.0
10
2.021452
20
-61.519943
30
0.0
10
-2.897032
20
-61.431677
30
0.0
10
-7.801997
20
-61.056685
30
0.0
10
-12.634157
20
-60.258526
30
0.0
10
-17.370169
20
-59.056203
30
0.0
10
-21.986690
20
-57.468722
30
0.0
10
-26.460377
20
-55.515088
30
0.0
10
-30.767888
20
-53.214305
30
0.0
10
-34.885881
20
-50.585380
30
0.0
10
-38.791011
20
-47.647315
30
0.0
10
-42.459937
20
-44.419118
30
0.0
10
-45.869315
20
-40.919791
30
0.0
10
-48.995804
20
-37.168342
30
0.0
10
-51.816060
20
-33.183773
30
0.0
10
-54.306740
20
-28.985091
30
0.0
10
-56.444502
20
-24.591300
30
0.0
10
-58.206002
20
-20.021405
30
0.0
10
-59.567899
20
-15.294411
30
0.0
10
-60.582226
20
-10.780243
30
0.0
10
-61.228566
20
-6.221283
30
0.0
10
-61.514972
20
-1.639949
30
0.0
10
-61.449499
20
2.941346
30
0.0
10
-61.040200
20
7.500185
30
0.0
10
-60.295129
20
12.014152
30
0.0
10
-59.222340
20
16.460833
30
0.0
10
-57.829886
20
20.817812
30
0.0
10
-56.125822
20
25.062673
30
0.0
10
-54.118201
20
29.173000
30
0.0
10
-51.815078
20
33.126379
30
0.0
10
-49.224505
20
36.900394
30
0.0
10
-46.354537
20
40.472629
30
0.0
10
-43.213228
20
43.820669
30
0.0
10
-39.808631
20
46.922098
30
0.0
10
-36.148800
20
49.754501
30
0.0
10
-36.148800
20
49.754501
30
0.0
62
0
0
LWPOLYLINE
100
AcDbPolyline
8
0
90
19
70
0
10
-1.532260
20
-74.475395
30
0.0
10
-2.207679
20
-73.765562
30
0.0
10
-2.487241
20
-72.927471
30
0.0
10
-2.426018
20
-72.050987
30
0.0
10
-2.079079
20
-71.225973
30
0.0
10
-1.501493
20
-70.542294
30
0.0
10
-0.748332
20
-70.089815
30
0.0
10
0.125336
20
-69.958400
30
0.0
10
1.064440
20
-70.237913
30
0.0
10
1.878409
20
-70.783308
30
0.0
10
2.334068
20
-71.540216
30
0.0
10
2.465545
20
-72.408926
30
0.0
10
2.306967
20
-73.289723
30
0.0
10
1.892461
20
-74.082896
30
0.0
10
1.256155
20
-74.688731
30
0.0
10
0.432176
20
-75.007516
30
0.0
10
-0.545349
20
-74.939538
30
0.0
10
-1.532260
20
-74.475395
30
0.0
10
-1.532260
20
-74.475395
30
0.0
  0
ENDSEC
  0
SECTION
  2
OBJECTS
  0
DICTIONARY
  5
C
330
0
100
AcDbDictionary
  3
ACAD_GROUP
350
D
  3
ACAD_MLINESTYLE
350
17
  0
DICTIONARY
  5
D
330
C
100
AcDbDictionary
  0
DICTIONARY
  5
1A
330
C
100
AcDbDictionary
  0
DICTIONARY
  5
17
330
C
100
AcDbDictionary
  3
STANDARD
350
18
  0
DICTIONARY
  5
19
330
C
100
AcDbDictionary
  0
ENDSEC
  0
EOF
