  0
SECTION
  2
BLOCKS
  0
ENDSEC
  0
SECTION
  2
ENTITIES
  0
LINE
  8
0
 10
15.459
 20
-81.0387
 11
25.4939
 21
-78.4622
  0
LINE
  8
0
 10
25.4939
 20
-78.4622
 11
35.1268
 21
-74.6482
  0
LINE
  8
0
 10
35.1268
 20
-74.6482
 11
44.2057
 21
-69.657
  0
LINE
  8
0
 10
44.2057
 20
-69.657
 11
52.5875
 21
-63.5673
  0
LINE
  8
0
 10
52.5875
 20
-63.5673
 11
60.1399
 21
-56.4751
  0
LINE
  8
0
 10
60.1399
 20
-56.4751
 11
66.7439
 21
-48.4923
  0
LINE
  8
0
 10
66.7439
 20
-48.4923
 11
72.2953
 21
-39.7447
  0
LINE
  8
0
 10
72.2953
 20
-39.7447
 11
76.7066
 21
-30.3703
  0
LINE
  8
0
 10
76.7066
 20
-30.3703
 11
79.9081
 21
-20.5169
  0
LINE
  8
0
 10
79.9081
 20
-20.5169
 11
81.8495
 21
-10.34
  0
LINE
  8
0
 10
81.8495
 20
-10.34
 11
82.5
 21
0
  0
LINE
  8
0
 10
82.5
 20
0
 11
81.8495
 21
10.34
  0
LINE
  8
0
 10
81.8495
 20
10.34
 11
79.9081
 21
20.5169
  0
LINE
  8
0
 10
79.9081
 20
20.5169
 11
76.7066
 21
30.3703
  0
LINE
  8
0
 10
76.7066
 20
30.3703
 11
72.2953
 21
39.7447
  0
LINE
  8
0
 10
72.2953
 20
39.7447
 11
66.7439
 21
48.4923
  0
LINE
  8
0
 10
66.7439
 20
48.4923
 11
60.1399
 21
56.4751
  0
LINE
  8
0
 10
60.1399
 20
56.4751
 11
52.5875
 21
63.5673
  0
LINE
  8
0
 10
52.5875
 20
63.5673
 11
44.2057
 21
69.657
  0
LINE
  8
0
 10
44.2057
 20
69.657
 11
35.1268
 21
74.6482
  0
LINE
  8
0
 10
35.1268
 20
74.6482
 11
25.4939
 21
78.4622
  0
LINE
  8
0
 10
25.4939
 20
78.4622
 11
15.459
 21
81.0387
  0
LINE
  8
0
 10
15.459
 20
81.0387
 11
5.18021
 21
82.3372
  0
LINE
  8
0
 10
5.18021
 20
82.3372
 11
-5.18021
 21
82.3372
  0
LINE
  8
0
 10
-5.18021
 20
82.3372
 11
-15.459
 21
81.0387
  0
LINE
  8
0
 10
-15.459
 20
81.0387
 11
-25.4939
 21
78.4622
  0
LINE
  8
0
 10
-25.4939
 20
78.4622
 11
-35.1268
 21
74.6482
  0
LINE
  8
0
 10
-35.1268
 20
74.6482
 11
-44.2057
 21
69.657
  0
LINE
  8
0
 10
-44.2057
 20
69.657
 11
-52.5875
 21
63.5673
  0
LINE
  8
0
 10
-52.5875
 20
63.5673
 11
-60.1399
 21
56.4751
  0
LINE
  8
0
 10
-60.1399
 20
56.4751
 11
-66.7439
 21
48.4923
  0
LINE
  8
0
 10
-66.7439
 20
48.4923
 11
-72.2953
 21
39.7447
  0
LINE
  8
0
 10
-72.2953
 20
39.7447
 11
-76.7066
 21
30.3703
  0
LINE
  8
0
 10
-76.7066
 20
30.3703
 11
-79.9081
 21
20.5169
  0
LINE
  8
0
 10
-79.9081
 20
20.5169
 11
-81.8495
 21
10.34
  0
LINE
  8
0
 10
-81.8495
 20
10.34
 11
-82.5
 21
0
  0
LINE
  8
0
 10
-82.5
 20
0
 11
-81.8495
 21
-10.34
  0
LINE
  8
0
 10
-81.8495
 20
-10.34
 11
-79.9081
 21
-20.5169
  0
LINE
  8
0
 10
-79.9081
 20
-20.5169
 11
-76.7066
 21
-30.3703
  0
LINE
  8
0
 10
-76.7066
 20
-30.3703
 11
-72.2953
 21
-39.7447
  0
LINE
  8
0
 10
-72.2953
 20
-39.7447
 11
-66.7439
 21
-48.4923
  0
LINE
  8
0
 10
-66.7439
 20
-48.4923
 11
-60.1399
 21
-56.4751
  0
LINE
  8
0
 10
-60.1399
 20
-56.4751
 11
-52.5875
 21
-63.5673
  0
LINE
  8
0
 10
-52.5875
 20
-63.5673
 11
-44.2057
 21
-69.657
  0
LINE
  8
0
 10
-44.2057
 20
-69.657
 11
-35.1268
 21
-74.6482
  0
LINE
  8
0
 10
-35.1268
 20
-74.6482
 11
-25.4939
 21
-78.4622
  0
LINE
  8
0
 10
-25.4939
 20
-78.4622
 11
-15.459
 21
-81.0387
  0
LINE
  8
0
 10
-15.459
 20
-81.0387
 11
-5.18021
 21
-82.3372
  0
LINE
  8
0
 10
-5.18021
 20
-82.3372
 11
5.18021
 21
-82.3372
  0
LINE
  8
0
 10
5.18021
 20
-82.3372
 11
15.459
 21
-81.0387
  0
LINE
  8
0
 10
-0.156967
 20
70.0049
 11
-0.468445
 21
70.0443
  0
LINE
  8
0
 10
-0.468445
 20
70.0443
 11
-0.772537
 21
70.1223
  0
LINE
  8
0
 10
-0.772537
 20
70.1223
 11
-1.06444
 21
70.2379
  0
LINE
  8
0
 10
-1.06444
 20
70.2379
 11
-1.33955
 21
70.3892
  0
LINE
  8
0
 10
-1.33955
 20
70.3892
 11
-1.59355
 21
70.5737
  0
LINE
  8
0
 10
-1.59355
 20
70.5737
 11
-1.82242
 21
70.7886
  0
LINE
  8
0
 10
-1.82242
 20
70.7886
 11
-2.02254
 21
71.0305
  0
LINE
  8
0
 10
-2.02254
 20
71.0305
 11
-2.19077
 21
71.2956
  0
LINE
  8
0
 10
-2.19077
 20
71.2956
 11
-2.32443
 21
71.5797
  0
LINE
  8
0
 10
-2.32443
 20
71.5797
 11
-2.42145
 21
71.8783
  0
LINE
  8
0
 10
-2.42145
 20
71.8783
 11
-2.48029
 21
72.1867
  0
LINE
  8
0
 10
-2.48029
 20
72.1867
 11
-2.5
 21
72.5
  0
LINE
  8
0
 10
-2.5
 20
72.5
 11
-2.48029
 21
72.8133
  0
LINE
  8
0
 10
-2.48029
 20
72.8133
 11
-2.42145
 21
73.1217
  0
LINE
  8
0
 10
-2.42145
 20
73.1217
 11
-2.32443
 21
73.4203
  0
LINE
  8
0
 10
-2.32443
 20
73.4203
 11
-2.19077
 21
73.7044
  0
LINE
  8
0
 10
-2.19077
 20
73.7044
 11
-2.02254
 21
73.9695
  0
LINE
  8
0
 10
-2.02254
 20
73.9695
 11
-1.82242
 21
74.2114
  0
LINE
  8
0
 10
-1.82242
 20
74.2114
 11
-1.59355
 21
74.4263
  0
LINE
  8
0
 10
-1.59355
 20
74.4263
 11
-1.33955
 21
74.6108
  0
LINE
  8
0
 10
-1.33955
 20
74.6108
 11
-1.06444
 21
74.7621
  0
LINE
  8
0
 10
-1.06444
 20
74.7621
 11
-0.772537
 21
74.8776
  0
LINE
  8
0
 10
-0.772537
 20
74.8776
 11
-0.468445
 21
74.9557
  0
LINE
  8
0
 10
-0.468445
 20
74.9557
 11
-0.156967
 21
74.9951
  0
LINE
  8
0
 10
-0.156967
 20
74.9951
 11
0.156967
 21
74.9951
  0
LINE
  8
0
 10
0.156967
 20
74.9951
 11
0.468445
 21
74.9557
  0
LINE
  8
0
 10
0.468445
 20
74.9557
 11
0.772537
 21
74.8776
  0
LINE
  8
0
 10
0.772537
 20
74.8776
 11
1.06444
 21
74.7621
  0
LINE
  8
0
 10
1.06444
 20
74.7621
 11
1.33955
 21
74.6108
  0
LINE
  8
0
 10
1.33955
 20
74.6108
 11
1.59355
 21
74.4263
  0
LINE
  8
0
 10
1.59355
 20
74.4263
 11
1.82242
 21
74.2114
  0
LINE
  8
0
 10
1.82242
 20
74.2114
 11
2.02254
 21
73.9695
  0
LINE
  8
0
 10
2.02254
 20
73.9695
 11
2.19077
 21
73.7044
  0
LINE
  8
0
 10
2.19077
 20
73.7044
 11
2.32443
 21
73.4203
  0
LINE
  8
0
 10
2.32443
 20
73.4203
 11
2.42145
 21
73.1217
  0
LINE
  8
0
 10
2.42145
 20
73.1217
 11
2.48029
 21
72.8133
  0
LINE
  8
0
 10
2.48029
 20
72.8133
 11
2.5
 21
72.5
  0
LINE
  8
0
 10
2.5
 20
72.5
 11
2.48029
 21
72.1867
  0
LINE
  8
0
 10
2.48029
 20
72.1867
 11
2.42145
 21
71.8783
  0
LINE
  8
0
 10
2.42145
 20
71.8783
 11
2.32443
 21
71.5797
  0
LINE
  8
0
 10
2.32443
 20
71.5797
 11
2.19077
 21
71.2956
  0
LINE
  8
0
 10
2.19077
 20
71.2956
 11
2.02254
 21
71.0305
  0
LINE
  8
0
 10
2.02254
 20
71.0305
 11
1.82242
 21
70.7886
  0
LINE
  8
0
 10
1.82242
 20
70.7886
 11
1.59355
 21
70.5737
  0
LINE
  8
0
 10
1.59355
 20
70.5737
 11
1.33955
 21
70.3892
  0
LINE
  8
0
 10
1.33955
 20
70.3892
 11
1.06444
 21
70.2379
  0
LINE
  8
0
 10
1.06444
 20
70.2379
 11
0.772537
 21
70.1223
  0
LINE
  8
0
 10
0.772537
 20
70.1223
 11
0.468445
 21
70.0443
  0
LINE
  8
0
 10
0.468445
 20
70.0443
 11
0.156967
 21
70.0049
  0
LINE
  8
0
 10
0.156967
 20
70.0049
 11
-0.156967
 21
70.0049
  0
LINE
  8
0
 10
-3.8616
 20
-61.3786
 11
-11.5239
 21
-60.4107
  0
LINE
  8
0
 10
-11.5239
 20
-60.4107
 11
-19.0045
 21
-58.49
  0
LINE
  8
0
 10
-19.0045
 20
-58.49
 11
-26.1854
 21
-55.6469
  0
LINE
  8
0
 10
-26.1854
 20
-55.6469
 11
-32.9533
 21
-51.9262
  0
LINE
  8
0
 10
-32.9533
 20
-51.9262
 11
-39.2016
 21
-47.3866
  0
LINE
  8
0
 10
-39.2016
 20
-47.3866
 11
-44.8316
 21
-42.0996
  0
LINE
  8
0
 10
-44.8316
 20
-42.0996
 11
-49.7545
 21
-36.1488
  0
LINE
  8
0
 10
-49.7545
 20
-36.1488
 11
-53.8929
 21
-29.6278
  0
LINE
  8
0
 10
-53.8929
 20
-29.6278
 11
-57.1812
 21
-22.6396
  0
LINE
  8
0
 10
-57.1812
 20
-22.6396
 11
-59.5679
 21
-15.2944
  0
LINE
  8
0
 10
-59.5679
 20
-15.2944
 11
-61.015
 21
-7.70799
  0
LINE
  8
0
 10
-61.015
 20
-7.70799
 11
-61.5
 21
0
  0
LINE
  8
0
 10
-61.5
 20
0
 11
-61.015
 21
7.70799
  0
LINE
  8
0
 10
-61.015
 20
7.70799
 11
-59.5679
 21
15.2944
  0
LINE
  8
0
 10
-59.5679
 20
15.2944
 11
-57.1812
 21
22.6396
  0
LINE
  8
0
 10
-57.1812
 20
22.6396
 11
-53.8929
 21
29.6278
  0
LINE
  8
0
 10
-53.8929
 20
29.6278
 11
-49.7545
 21
36.1488
  0
LINE
  8
0
 10
-49.7545
 20
36.1488
 11
-44.8316
 21
42.0996
  0
LINE
  8
0
 10
-44.8316
 20
42.0996
 11
-39.2016
 21
47.3866
  0
LINE
  8
0
 10
-39.2016
 20
47.3866
 11
-32.9533
 21
51.9262
  0
LINE
  8
0
 10
-32.9533
 20
51.9262
 11
-26.1854
 21
55.6469
  0
LINE
  8
0
 10
-26.1854
 20
55.6469
 11
-19.0045
 21
58.49
  0
LINE
  8
0
 10
-19.0045
 20
58.49
 11
-11.5239
 21
60.4107
  0
LINE
  8
0
 10
-11.5239
 20
60.4107
 11
-3.8616
 21
61.3786
  0
LINE
  8
0
 10
-3.8616
 20
61.3786
 11
3.8616
 21
61.3786
  0
LINE
  8
0
 10
3.8616
 20
61.3786
 11
11.5239
 21
60.4107
  0
LINE
  8
0
 10
11.5239
 20
60.4107
 11
19.0045
 21
58.49
  0
LINE
  8
0
 10
19.0045
 20
58.49
 11
26.1854
 21
55.6469
  0
LINE
  8
0
 10
26.1854
 20
55.6469
 11
32.9533
 21
51.9262
  0
LINE
  8
0
 10
32.9533
 20
51.9262
 11
39.2016
 21
47.3866
  0
LINE
  8
0
 10
39.2016
 20
47.3866
 11
44.8316
 21
42.0996
  0
LINE
  8
0
 10
44.8316
 20
42.0996
 11
49.7545
 21
36.1488
  0
LINE
  8
0
 10
49.7545
 20
36.1488
 11
53.8929
 21
29.6278
  0
LINE
  8
0
 10
53.8929
 20
29.6278
 11
57.1812
 21
22.6396
  0
LINE
  8
0
 10
57.1812
 20
22.6396
 11
59.5679
 21
15.2944
  0
LINE
  8
0
 10
59.5679
 20
15.2944
 11
61.015
 21
7.70799
  0
LINE
  8
0
 10
61.015
 20
7.70799
 11
61.5
 21
0
  0
LINE
  8
0
 10
61.5
 20
0
 11
61.015
 21
-7.70799
  0
LINE
  8
0
 10
61.015
 20
-7.70799
 11
59.5679
 21
-15.2944
  0
LINE
  8
0
 10
59.5679
 20
-15.2944
 11
57.1812
 21
-22.6396
  0
LINE
  8
0
 10
57.1812
 20
-22.6396
 11
53.8929
 21
-29.6278
  0
LINE
  8
0
 10
53.8929
 20
-29.6278
 11
49.7545
 21
-36.1488
  0
LINE
  8
0
 10
49.7545
 20
-36.1488
 11
44.8316
 21
-42.0996
  0
LINE
  8
0
 10
44.8316
 20
-42.0996
 11
39.2016
 21
-47.3866
  0
LINE
  8
0
 10
39.2016
 20
-47.3866
 11
32.9533
 21
-51.9262
  0
LINE
  8
0
 10
32.9533
 20
-51.9262
 11
26.1854
 21
-55.6469
  0
LINE
  8
0
 10
26.1854
 20
-55.6469
 11
19.0045
 21
-58.49
  0
LINE
  8
0
 10
19.0045
 20
-58.49
 11
11.5239
 21
-60.4107
  0
LINE
  8
0
 10
11.5239
 20
-60.4107
 11
3.8616
 21
-61.3786
  0
LINE
  8
0
 10
3.8616
 20
-61.3786
 11
-3.8616
 21
-61.3786
  0
LINE
  8
0
 10
-0.156967
 20
-74.9951
 11
-0.468445
 21
-74.9557
  0
LINE
  8
0
 10
-0.468445
 20
-74.9557
 11
-0.772537
 21
-74.8776
  0
LINE
  8
0
 10
-0.772537
 20
-74.8776
 11
-1.06444
 21
-74.7621
  0
LINE
  8
0
 10
-1.06444
 20
-74.7621
 11
-1.33955
 21
-74.6108
  0
LINE
  8
0
 10
-1.33955
 20
-74.6108
 11
-1.59355
 21
-74.4263
  0
LINE
  8
0
 10
-1.59355
 20
-74.4263
 11
-1.82242
 21
-74.2114
  0
LINE
  8
0
 10
-1.82242
 20
-74.2114
 11
-2.02254
 21
-73.9695
  0
LINE
  8
0
 10
-2.02254
 20
-73.9695
 11
-2.19077
 21
-73.7044
  0
LINE
  8
0
 10
-2.19077
 20
-73.7044
 11
-2.32443
 21
-73.4203
  0
LINE
  8
0
 10
-2.32443
 20
-73.4203
 11
-2.42145
 21
-73.1217
  0
LINE
  8
0
 10
-2.42145
 20
-73.1217
 11
-2.48029
 21
-72.8133
  0
LINE
  8
0
 10
-2.48029
 20
-72.8133
 11
-2.5
 21
-72.5
  0
LINE
  8
0
 10
-2.5
 20
-72.5
 11
-2.48029
 21
-72.1867
  0
LINE
  8
0
 10
-2.48029
 20
-72.1867
 11
-2.42145
 21
-71.8783
  0
LINE
  8
0
 10
-2.42145
 20
-71.8783
 11
-2.32443
 21
-71.5797
  0
LINE
  8
0
 10
-2.32443
 20
-71.5797
 11
-2.19077
 21
-71.2956
  0
LINE
  8
0
 10
-2.19077
 20
-71.2956
 11
-2.02254
 21
-71.0305
  0
LINE
  8
0
 10
-2.02254
 20
-71.0305
 11
-1.82242
 21
-70.7886
  0
LINE
  8
0
 10
-1.82242
 20
-70.7886
 11
-1.59355
 21
-70.5737
  0
LINE
  8
0
 10
-1.59355
 20
-70.5737
 11
-1.33955
 21
-70.3892
  0
LINE
  8
0
 10
-1.33955
 20
-70.3892
 11
-1.06444
 21
-70.2379
  0
LINE
  8
0
 10
-1.06444
 20
-70.2379
 11
-0.772537
 21
-70.1223
  0
LINE
  8
0
 10
-0.772537
 20
-70.1223
 11
-0.468445
 21
-70.0443
  0
LINE
  8
0
 10
-0.468445
 20
-70.0443
 11
-0.156967
 21
-70.0049
  0
LINE
  8
0
 10
-0.156967
 20
-70.0049
 11
0.156967
 21
-70.0049
  0
LINE
  8
0
 10
0.156967
 20
-70.0049
 11
0.468445
 21
-70.0443
  0
LINE
  8
0
 10
0.468445
 20
-70.0443
 11
0.772537
 21
-70.1223
  0
LINE
  8
0
 10
0.772537
 20
-70.1223
 11
1.06444
 21
-70.2379
  0
LINE
  8
0
 10
1.06444
 20
-70.2379
 11
1.33955
 21
-70.3892
  0
LINE
  8
0
 10
1.33955
 20
-70.3892
 11
1.59355
 21
-70.5737
  0
LINE
  8
0
 10
1.59355
 20
-70.5737
 11
1.82242
 21
-70.7886
  0
LINE
  8
0
 10
1.82242
 20
-70.7886
 11
2.02254
 21
-71.0305
  0
LINE
  8
0
 10
2.02254
 20
-71.0305
 11
2.19077
 21
-71.2956
  0
LINE
  8
0
 10
2.19077
 20
-71.2956
 11
2.32443
 21
-71.5797
  0
LINE
  8
0
 10
2.32443
 20
-71.5797
 11
2.42145
 21
-71.8783
  0
LINE
  8
0
 10
2.42145
 20
-71.8783
 11
2.48029
 21
-72.1867
  0
LINE
  8
0
 10
2.48029
 20
-72.1867
 11
2.5
 21
-72.5
  0
LINE
  8
0
 10
2.5
 20
-72.5
 11
2.48029
 21
-72.8133
  0
LINE
  8
0
 10
2.48029
 20
-72.8133
 11
2.42145
 21
-73.1217
  0
LINE
  8
0
 10
2.42145
 20
-73.1217
 11
2.32443
 21
-73.4203
  0
LINE
  8
0
 10
2.32443
 20
-73.4203
 11
2.19077
 21
-73.7044
  0
LINE
  8
0
 10
2.19077
 20
-73.7044
 11
2.02254
 21
-73.9695
  0
LINE
  8
0
 10
2.02254
 20
-73.9695
 11
1.82242
 21
-74.2114
  0
LINE
  8
0
 10
1.82242
 20
-74.2114
 11
1.59355
 21
-74.4263
  0
LINE
  8
0
 10
1.59355
 20
-74.4263
 11
1.33955
 21
-74.6108
  0
LINE
  8
0
 10
1.33955
 20
-74.6108
 11
1.06444
 21
-74.7621
  0
LINE
  8
0
 10
1.06444
 20
-74.7621
 11
0.772537
 21
-74.8776
  0
LINE
  8
0
 10
0.772537
 20
-74.8776
 11
0.468445
 21
-74.9557
  0
LINE
  8
0
 10
0.468445
 20
-74.9557
 11
0.156967
 21
-74.9951
  0
LINE
  8
0
 10
0.156967
 20
-74.9951
 11
-0.156967
 21
-74.9951
  0
ENDSEC
  0
SECTION
  2
OBJECTS
  0
DICTIONARY
  0
ENDSEC
  0
EOF
