999
Inkscape export via OpenSCAD DXF Export
  0
SECTION
  2
HEADER
  9
$ACADVER
  1
AC1014
  9
$HANDSEED
  5
FFFF
  9
$MEASUREMENT
 70
     1
  0
ENDSEC
  0
SECTION
  2
TABLES
  0
TABLE
  2
VPORT
  5
8
330
0
100
AcDbSymbolTable
 70
     4
  0
VPORT
  5
2E
330
8
100
AcDbSymbolTableRecord
100
AcDbViewportTableRecord
  2
*ACTIVE
 70
     0
 10
0.0
 20
0.0
 11
1.0
 21
1.0
 12
210.0
 22
148.5
 13
0.0
 23
0.0
 14
10.0
 24
10.0
 15
10.0
 25
10.0
 16
0.0
 26
0.0
 36
1.0
 17
0.0
 27
0.0
 37
0.0
 40
341.0
 41
1.24
 42
50.0
 43
0.0
 44
0.0
 50
0.0
 51
0.0
 71
     0
 72
   100
 73
     1
 74
     3
 75
     0
 76
     0
 77
     0
 78
     0
  0
ENDTAB
  0
TABLE
  2
LTYPE
  5
5
330
0
100
AcDbSymbolTable
 70
     1
  0
LTYPE
  5
14
330
5
100
AcDbSymbolTableRecord
100
AcDbLinetypeTableRecord
  2
BYBLOCK
 70
     0
  3

 72
    65
 73
     0
 40
0.0
  0
LTYPE
  5
15
330
5
100
AcDbSymbolTableRecord
100
AcDbLinetypeTableRecord
  2
BYLAYER
 70
     0
  3

 72
    65
 73
     0
 40
0.0
  0
LTYPE
  5
16
330
5
100
AcDbSymbolTableRecord
100
AcDbLinetypeTableRecord
  2
CONTINUOUS
 70
     0
  3
Solid line
 72
    65
 73
     0
 40
0.0
  0
ENDTAB
  0
TABLE
0
TABLE
2
LAYER
5
2
330
0
100
AcDbSymbolTable
70
1
0
LAYER
5
10
330
2
100
AcDbSymbolTableRecord
100
AcDbLayerTableRecord
2
Layer_1
70
0
62
7
6
CONTINUOUS
0
ENDTAB
0
ENDSEC
  0
ENDTAB
  0
TABLE
  2
STYLE
  5
3
330
0
100
AcDbSymbolTable
 70
     1
  0
STYLE
  5
11
330
3
100
AcDbSymbolTableRecord
100
AcDbTextStyleTableRecord
  2
STANDARD
 70
     0
 40
0.0
 41
1.0
 50
0.0
 71
     0
 42
2.5
  3
txt
  4

  0
ENDTAB
  0
TABLE
  2
VIEW
  5
6
330
0
100
AcDbSymbolTable
 70
     0
  0
ENDTAB
  0
TABLE
  2
UCS
  5
7
330
0
100
AcDbSymbolTable
 70
     0
  0
ENDTAB
  0
TABLE
  2
APPID
  5
9
330
0
100
AcDbSymbolTable
 70
     2
  0
APPID
  5
12
330
9
100
AcDbSymbolTableRecord
100
AcDbRegAppTableRecord
  2
ACAD
 70
     0
  0
ENDTAB
  0
TABLE
  2
DIMSTYLE
  5
A
330
0
100
AcDbSymbolTable
 70
     1
  0
DIMSTYLE
105
27
330
A
100
AcDbSymbolTableRecord
100
AcDbDimStyleTableRecord
  2
ISO-25
 70
     0
  3

  4

  5

  6

  7

 40
1.0
 41
2.5
 42
0.625
 43
3.75
 44
1.25
 45
0.0
 46
0.0
 47
0.0
 48
0.0
140
2.5
141
2.5
142
0.0
143
0.03937007874016
144
1.0
145
0.0
146
1.0
147
0.625
 71
     0
 72
     0
 73
     0
 74
     0
 75
     0
 76
     0
 77
     1
 78
     8
170
     0
171
     3
172
     1
173
     0
174
     0
175
     0
176
     0
177
     0
178
     0
270
     2
271
     2
272
     2
273
     2
274
     3
340
11
275
     0
280
     0
281
     0
282
     0
283
     0
284
     8
285
     0
286
     0
287
     3
288
     0
  0
ENDTAB
  0
TABLE
  2
BLOCK_RECORD
  5
1
330
0
100
AcDbSymbolTable
 70
     1
  0
BLOCK_RECORD
  5
1F
330
1
100
AcDbSymbolTableRecord
100
AcDbBlockTableRecord
  2
*MODEL_SPACE
  0
BLOCK_RECORD
  5
1B
330
1
100
AcDbSymbolTableRecord
100
AcDbBlockTableRecord
  2
*PAPER_SPACE
  0
ENDTAB
  0
ENDSEC
  0
SECTION
  2
BLOCKS
  0
BLOCK
  5
20
330
1F
100
AcDbEntity
  8
0
100
AcDbBlockBegin
  2
*MODEL_SPACE
 70
     0
 10
0.0
 20
0.0
 30
0.0
  3
*MODEL_SPACE
  1

  0
ENDBLK
  5
21
330
1F
100
AcDbEntity
  8
0
100
AcDbBlockEnd
  0
BLOCK
  5
1C
330
1B
100
AcDbEntity
 67
     1
  8
0
100
AcDbBlockBegin
  2
*PAPER_SPACE
  1

  0
ENDBLK
  5
1D
330
1B
100
AcDbEntity
 67
     1
  8
0
100
AcDbBlockEnd
  0
ENDSEC
  0
SECTION
  2
ENTITIES
0
DIMENSION
5
83
100
AcDbEntity
62
256
370
-1
6
ByLayer
1
total_width
3
Standard
70
0
71
5
72
1
41
1.0
100
AcDbAlignedDimension
13
0.787791
23
0.000000
33
0.0
14
55.268252
24
0.000000
34
0.0
50
0.000000
100
AcDbRotatedDimension
0
DIMENSION
5
83
100
AcDbEntity
62
256
370
-1
6
ByLayer
1
total_minx
3
Standard
70
0
71
5
72
1
41
1.0
100
AcDbAlignedDimension
13
0.787791
23
0.000000
33
0.0
14
0.000000
24
0.000000
34
0.0
50
0.000000
100
AcDbRotatedDimension
0
DIMENSION
5
83
100
AcDbEntity
62
256
370
-1
6
ByLayer
1
total_maxx
3
Standard
70
0
71
5
72
1
41
1.0
100
AcDbAlignedDimension
13
0.000000
23
0.000000
33
0.0
14
55.268252
24
0.000000
34
0.0
50
0.000000
100
AcDbRotatedDimension
0
DIMENSION
5
83
100
AcDbEntity
62
256
370
-1
6
ByLayer
1
total_height
3
Standard
70
0
71
5
72
1
41
1.0
100
AcDbAlignedDimension
13
0.000000
23
1.197463
33
0.0
14
0.000000
24
46.274561
34
0.0
50
90.000000
100
AcDbRotatedDimension
0
DIMENSION
5
83
100
AcDbEntity
62
256
370
-1
6
ByLayer
1
total_miny
3
Standard
70
0
71
5
72
1
41
1.0
100
AcDbAlignedDimension
13
1.197463
23
0.000000
33
0.0
14
0.000000
24
0.000000
34
0.0
50
0.000000
100
AcDbRotatedDimension
0
DIMENSION
5
83
100
AcDbEntity
62
256
370
-1
6
ByLayer
1
total_maxy
3
Standard
70
0
71
5
72
1
41
1.0
100
AcDbAlignedDimension
13
0.000000
23
0.000000
33
0.0
14
46.274561
24
0.000000
34
0.0
50
0.000000
100
AcDbRotatedDimension
0
DIMENSION
8
Layer_1
5
83
100
AcDbEntity
62
256
370
-1
6
ByLayer
1
Layer_1_width
3
Standard
70
0
71
5
72
1
41
1.0
100
AcDbAlignedDimension
13
0.787791
23
0.000000
33
0.0
14
55.268252
24
0.000000
34
0.0
50
0.000000
100
AcDbRotatedDimension
0
DIMENSION
8
Layer_1
5
83
100
AcDbEntity
62
256
370
-1
6
ByLayer
1
Layer_1_minx
3
Standard
70
0
71
5
72
1
41
1.0
100
AcDbAlignedDimension
13
0.787791
23
0.000000
33
0.0
14
0.000000
24
0.000000
34
0.0
50
0.000000
100
AcDbRotatedDimension
0
DIMENSION
8
Layer_1
5
83
100
AcDbEntity
62
256
370
-1
6
ByLayer
1
Layer_1_maxx
3
Standard
70
0
71
5
72
1
41
1.0
100
AcDbAlignedDimension
13
0.000000
23
0.000000
33
0.0
14
55.268252
24
0.000000
34
0.0
50
0.000000
100
AcDbRotatedDimension
0
DIMENSION
8
Layer_1
5
83
100
AcDbEntity
62
256
370
-1
6
ByLayer
1
Layer_1_height
3
Standard
70
0
71
5
72
1
41
1.0
100
AcDbAlignedDimension
13
0.000000
23
1.197463
33
0.0
14
0.000000
24
46.274561
34
0.0
50
90.000000
100
AcDbRotatedDimension
0
DIMENSION
8
Layer_1
5
83
100
AcDbEntity
62
256
370
-1
6
ByLayer
1
Layer_1_miny
3
Standard
70
0
71
5
72
1
41
1.0
100
AcDbAlignedDimension
13
1.197463
23
0.000000
33
0.0
14
0.000000
24
0.000000
34
0.0
50
0.000000
100
AcDbRotatedDimension
0
DIMENSION
8
Layer_1
5
83
100
AcDbEntity
62
256
370
-1
6
ByLayer
1
Layer_1_maxy
3
Standard
70
0
71
5
72
1
41
1.0
100
AcDbAlignedDimension
13
0.000000
23
0.000000
33
0.0
14
46.274561
24
0.000000
34
0.0
50
0.000000
100
AcDbRotatedDimension
62
0
0
LWPOLYLINE
100
AcDbPolyline
8
Layer_1
90
48
70
0
10
26.588547
20
22.247290
30
0.0
10
38.212435
20
32.696285
30
0.0
10
39.088876
20
33.300347
30
0.0
10
39.569509
20
33.375061
30
0.0
10
40.098243
20
33.205697
30
0.0
10
40.534162
20
32.840131
30
0.0
10
40.786513
20
32.372435
30
0.0
10
40.930799
20
31.226754
30
0.0
10
40.930799
20
22.195361
30
0.0
10
40.925155
20
22.195361
30
0.0
10
52.549888
20
32.696285
30
0.0
10
53.426329
20
33.300347
30
0.0
10
53.906962
20
33.375061
30
0.0
10
54.435697
20
33.205697
30
0.0
10
54.871615
20
32.840131
30
0.0
10
55.123966
20
32.372435
30
0.0
10
55.268252
20
31.226754
30
0.0
10
55.262608
20
3.376219
30
0.0
10
55.163005
20
2.350196
30
0.0
10
54.835359
20
1.677629
30
0.0
10
54.236408
20
1.309810
30
0.0
10
53.322895
20
1.198028
30
0.0
10
40.642086
20
1.197463
30
0.0
10
2.724964
20
1.198028
30
0.0
10
1.812244
20
1.309968
30
0.0
10
1.214193
20
1.677841
30
0.0
10
0.887235
20
2.350989
30
0.0
10
0.787791
20
3.378759
30
0.0
10
0.787791
20
44.107941
30
0.0
10
0.887116
20
45.131076
30
0.0
10
1.214934
20
45.799299
30
0.0
10
1.816015
20
46.163357
30
0.0
10
2.735124
20
46.273997
30
0.0
10
9.972995
20
46.274561
30
0.0
10
11.135522
20
46.178107
30
0.0
10
11.829100
20
45.807307
30
0.0
10
12.164222
20
45.040002
30
0.0
10
12.251375
20
43.754034
30
0.0
10
12.251375
20
22.241363
30
0.0
10
19.665353
20
28.904630
30
0.0
10
23.969524
20
32.780388
30
0.0
10
24.799646
20
33.319397
30
0.0
10
25.251709
20
33.373438
30
0.0
10
25.740469
20
33.216421
30
0.0
10
26.167052
20
32.874998
30
0.0
10
26.428350
20
32.434489
30
0.0
10
26.592780
20
31.332305
30
0.0
10
26.592780
20
22.246725
30
0.0
62
0
0
LWPOLYLINE
100
AcDbPolyline
8
Layer_1
90
24
70
0
10
7.956235
20
5.621861
30
0.0
10
7.390415
20
5.255078
30
0.0
10
6.613140
20
5.125150
30
0.0
10
5.796799
20
5.264674
30
0.0
10
5.178287
20
5.657139
30
0.0
10
4.786205
20
6.263387
30
0.0
10
4.649155
20
7.044261
30
0.0
10
4.649155
20
9.922363
30
0.0
10
3.960815
20
9.922363
30
0.0
10
3.960815
20
10.881637
30
0.0
10
4.649155
20
10.881637
30
0.0
10
4.649155
20
12.800465
30
0.0
10
5.901940
20
12.800465
30
0.0
10
5.901940
20
10.881637
30
0.0
10
7.504680
20
10.881637
30
0.0
10
7.504680
20
9.922363
30
0.0
10
5.913229
20
9.922363
30
0.0
10
5.913229
20
7.044261
30
0.0
10
6.106445
20
6.405028
30
0.0
10
6.647006
20
6.197594
30
0.0
10
6.982816
20
6.256861
30
0.0
10
7.267613
20
6.468528
30
0.0
10
7.956235
20
5.621861
30
0.0
10
7.956235
20
5.621861
30
0.0
62
0
0
LWPOLYLINE
100
AcDbPolyline
8
Layer_1
90
27
70
0
10
13.611686
20
7.664868
30
0.0
10
9.615984
20
7.664868
30
0.0
10
9.766792
20
7.056489
30
0.0
10
10.068916
20
6.598315
30
0.0
10
10.525503
20
6.309421
30
0.0
10
11.139702
20
6.208883
30
0.0
10
11.921211
20
6.395115
30
0.0
10
12.584398
20
7.123001
30
0.0
10
13.453360
20
6.513683
30
0.0
10
13.045068
20
5.930012
30
0.0
10
12.515147
20
5.493450
30
0.0
10
11.864629
20
5.219871
30
0.0
10
11.094546
20
5.125150
30
0.0
10
9.952239
20
5.342236
30
0.0
10
9.100893
20
5.947651
30
0.0
10
8.569112
20
6.872630
30
0.0
10
8.385495
20
8.048408
30
0.0
10
8.570699
20
9.222950
30
0.0
10
9.105127
20
10.156220
30
0.0
10
9.957001
20
10.772042
30
0.0
10
11.094546
20
10.994243
30
0.0
10
12.181821
20
10.774683
30
0.0
10
12.978133
20
10.160418
30
0.0
10
13.467581
20
9.218069
30
0.0
10
13.634264
20
8.014259
30
0.0
10
13.611686
20
7.664868
30
0.0
10
13.611686
20
7.664868
30
0.0
62
0
0
LWPOLYLINE
100
AcDbPolyline
8
Layer_1
90
11
70
0
10
9.649851
20
8.624423
30
0.0
10
12.505375
20
8.624423
30
0.0
10
12.355096
20
9.170170
30
0.0
10
12.073611
20
9.578334
30
0.0
10
11.660944
20
9.834098
30
0.0
10
11.117124
20
9.922645
30
0.0
10
10.556194
20
9.832392
30
0.0
10
10.125360
20
9.573995
30
0.0
10
9.823590
20
9.165368
30
0.0
10
9.649851
20
8.624423
30
0.0
10
9.649851
20
8.624423
30
0.0
62
0
0
LWPOLYLINE
100
AcDbPolyline
8
Layer_1
90
10
70
0
10
14.899184
20
12.653710
30
0.0
10
15.126373
20
13.198399
30
0.0
10
15.666829
20
13.421354
30
0.0
10
16.207037
20
13.198399
30
0.0
10
16.434191
20
12.653710
30
0.0
10
16.207037
20
12.119005
30
0.0
10
15.666829
20
11.897354
30
0.0
10
15.126373
20
12.119110
30
0.0
10
14.899184
20
12.653710
30
0.0
10
14.899184
20
12.653710
30
0.0
62
0
0
LWPOLYLINE
100
AcDbPolyline
8
Layer_1
90
6
70
0
10
15.034651
20
10.881919
30
0.0
10
16.287435
20
10.881919
30
0.0
10
16.287435
20
5.238321
30
0.0
10
15.034651
20
5.238321
30
0.0
10
15.034651
20
10.881919
30
0.0
10
15.034651
20
10.881919
30
0.0
62
0
0
LWPOLYLINE
100
AcDbPolyline
8
Layer_1
90
16
70
0
10
18.116518
20
7.044261
30
0.0
10
18.116518
20
13.703577
30
0.0
10
19.369302
20
13.703577
30
0.0
10
19.380591
20
7.044261
30
0.0
10
19.573913
20
6.405028
30
0.0
10
20.114369
20
6.197594
30
0.0
10
20.450213
20
6.256861
30
0.0
10
20.735258
20
6.468528
30
0.0
10
21.423880
20
5.621861
30
0.0
10
20.858060
20
5.255078
30
0.0
10
20.080784
20
5.125150
30
0.0
10
19.264280
20
5.264674
30
0.0
10
18.645684
20
5.657139
30
0.0
10
18.253572
20
6.263387
30
0.0
10
18.116518
20
7.044261
30
0.0
10
18.116518
20
7.044261
30
0.0
62
0
0
LWPOLYLINE
100
AcDbPolyline
8
Layer_1
90
24
70
0
10
23.816842
20
10.881919
30
0.0
10
25.250249
20
10.881919
30
0.0
10
25.250249
20
9.922645
30
0.0
10
23.816842
20
9.922645
30
0.0
10
23.816842
20
5.238321
30
0.0
10
22.564058
20
5.238321
30
0.0
10
22.564058
20
9.922645
30
0.0
10
21.616073
20
9.922645
30
0.0
10
21.616073
20
10.881919
30
0.0
10
22.564058
20
10.881919
30
0.0
10
22.564058
20
11.999237
30
0.0
10
22.712749
20
12.711759
30
0.0
10
23.118589
20
13.288710
30
0.0
10
23.721226
20
13.675160
30
0.0
10
24.460309
20
13.816183
30
0.0
10
25.129034
20
13.718958
30
0.0
10
25.848560
20
13.206865
30
0.0
10
25.148931
20
12.439221
30
0.0
10
24.862511
20
12.684754
30
0.0
10
24.483169
20
12.777888
30
0.0
10
24.001980
20
12.530943
30
0.0
10
23.817124
20
11.919932
30
0.0
10
23.817124
20
10.881919
30
0.0
10
23.816842
20
10.881919
30
0.0
62
0
0
LWPOLYLINE
100
AcDbPolyline
8
Layer_1
90
31
70
0
10
30.917272
20
8.782185
30
0.0
10
30.917272
20
5.238039
30
0.0
10
29.811243
20
5.238039
30
0.0
10
29.754799
20
5.937668
30
0.0
10
28.826429
20
5.353468
30
0.0
10
27.813391
20
5.124868
30
0.0
10
27.118053
20
5.253451
30
0.0
10
26.567627
20
5.611666
30
0.0
10
26.205531
20
6.158211
30
0.0
10
26.075184
20
6.851785
30
0.0
10
26.226482
20
7.570883
30
0.0
10
26.701577
20
8.142846
30
0.0
10
27.532272
20
8.475679
30
0.0
10
28.750370
20
8.477385
30
0.0
10
29.687066
20
8.353208
30
0.0
10
29.687066
20
8.861208
30
0.0
10
29.586705
20
9.347865
30
0.0
10
29.315979
20
9.681063
30
0.0
10
28.920422
20
9.872445
30
0.0
10
28.445570
20
9.933652
30
0.0
10
27.683604
20
9.768446
30
0.0
10
27.091184
20
9.256319
30
0.0
10
26.233229
20
10.035252
30
0.0
10
27.134894
20
10.735022
30
0.0
10
27.752348
20
10.927189
30
0.0
10
28.502015
20
10.994525
30
0.0
10
29.441135
20
10.858397
30
0.0
10
30.208965
20
10.447155
30
0.0
10
30.727134
20
9.756514
30
0.0
10
30.917272
20
8.782185
30
0.0
10
30.917272
20
8.782185
30
0.0
62
0
0
LWPOLYLINE
100
AcDbPolyline
8
Layer_1
90
12
70
0
10
28.106620
20
6.231461
30
0.0
10
28.947502
20
6.445809
30
0.0
10
29.686783
20
6.931090
30
0.0
10
29.686783
20
7.439090
30
0.0
10
28.941717
20
7.551697
30
0.0
10
28.150246
20
7.595917
30
0.0
10
27.663496
20
7.472815
30
0.0
10
27.417993
20
7.231180
30
0.0
10
27.350264
20
6.919801
30
0.0
10
27.559321
20
6.419104
30
0.0
10
28.106620
20
6.231461
30
0.0
10
28.106620
20
6.231461
30
0.0
62
0
0
LWPOLYLINE
100
AcDbPolyline
8
Layer_1
90
19
70
0
10
37.904812
20
8.059979
30
0.0
10
37.726355
20
6.906250
30
0.0
10
37.213544
20
5.974745
30
0.0
10
36.400219
20
5.352220
30
0.0
10
35.320221
20
5.125432
30
0.0
10
34.362112
20
5.324399
30
0.0
10
33.615881
20
5.870499
30
0.0
10
33.559437
20
5.238603
30
0.0
10
32.442119
20
5.238603
30
0.0
10
32.442119
20
13.703859
30
0.0
10
33.672326
20
13.703859
30
0.0
10
33.672326
20
10.306468
30
0.0
10
34.403140
20
10.811504
30
0.0
10
35.320221
20
10.994808
30
0.0
10
36.400100
20
10.767857
30
0.0
10
37.213438
20
10.145248
30
0.0
10
37.726316
20
9.213712
30
0.0
10
37.904812
20
8.059979
30
0.0
10
37.904812
20
8.059979
30
0.0
62
0
0
LWPOLYLINE
100
AcDbPolyline
8
Layer_1
90
17
70
0
10
36.685612
20
8.059979
30
0.0
10
36.578549
20
8.774310
30
0.0
10
36.269370
20
9.355238
30
0.0
10
35.776094
20
9.745666
30
0.0
10
35.116739
20
9.888497
30
0.0
10
34.641887
20
9.801894
30
0.0
10
34.229397
20
9.559743
30
0.0
10
33.672043
20
8.714734
30
0.0
10
33.672043
20
7.405223
30
0.0
10
34.229397
20
6.560215
30
0.0
10
34.641887
20
6.318064
30
0.0
10
35.116739
20
6.231461
30
0.0
10
35.776213
20
6.374332
30
0.0
10
36.269476
20
6.764826
30
0.0
10
36.578588
20
7.345767
30
0.0
10
36.685612
20
8.059979
30
0.0
10
36.685612
20
8.059979
30
0.0
62
0
0
LWPOLYLINE
100
AcDbPolyline
8
Layer_1
90
18
70
0
10
43.300901
20
10.577119
30
0.0
10
42.702590
20
9.685579
30
0.0
10
42.411936
20
9.812473
30
0.0
10
41.867495
20
9.888779
30
0.0
10
41.310855
20
9.771304
30
0.0
10
40.834702
20
9.440045
30
0.0
10
40.502483
20
8.926754
30
0.0
10
40.377643
20
8.263179
30
0.0
10
40.377643
20
5.238321
30
0.0
10
39.124859
20
5.238321
30
0.0
10
39.124859
20
10.881919
30
0.0
10
40.265037
20
10.881919
30
0.0
10
40.332770
20
10.091697
30
0.0
10
41.053707
20
10.746311
30
0.0
10
41.935510
20
10.994525
30
0.0
10
42.757694
20
10.891655
30
0.0
10
43.300901
20
10.577119
30
0.0
10
43.300901
20
10.577119
30
0.0
62
0
0
LWPOLYLINE
100
AcDbPolyline
8
Layer_1
90
10
70
0
10
43.911066
20
12.653710
30
0.0
10
44.138255
20
13.198399
30
0.0
10
44.678710
20
13.421354
30
0.0
10
45.218919
20
13.198399
30
0.0
10
45.446072
20
12.653710
30
0.0
10
45.218919
20
12.119005
30
0.0
10
44.678710
20
11.897354
30
0.0
10
44.138255
20
12.119110
30
0.0
10
43.911066
20
12.653710
30
0.0
10
43.911066
20
12.653710
30
0.0
62
0
0
LWPOLYLINE
100
AcDbPolyline
8
Layer_1
90
6
70
0
10
44.046532
20
10.881919
30
0.0
10
45.299317
20
10.881919
30
0.0
10
45.299317
20
5.238321
30
0.0
10
44.046532
20
5.238321
30
0.0
10
44.046532
20
10.881919
30
0.0
10
44.046532
20
10.881919
30
0.0
62
0
0
LWPOLYLINE
100
AcDbPolyline
8
Layer_1
90
13
70
0
10
49.498783
20
8.398645
30
0.0
10
52.106235
20
6.107283
30
0.0
10
52.106235
20
4.595137
30
0.0
10
48.325021
20
7.947372
30
0.0
10
48.325021
20
5.238321
30
0.0
10
47.072237
20
5.238321
30
0.0
10
47.072237
20
13.703577
30
0.0
10
48.325021
20
13.703577
30
0.0
10
48.325021
20
8.770897
30
0.0
10
50.570946
20
10.881637
30
0.0
10
52.139819
20
10.881637
30
0.0
10
49.498783
20
8.398645
30
0.0
10
49.498783
20
8.398645
30
0.0
  0
ENDSEC
  0
SECTION
  2
OBJECTS
  0
DICTIONARY
  5
C
330
0
100
AcDbDictionary
  3
ACAD_GROUP
350
D
  3
ACAD_MLINESTYLE
350
17
  0
DICTIONARY
  5
D
330
C
100
AcDbDictionary
  0
DICTIONARY
  5
1A
330
C
100
AcDbDictionary
  0
DICTIONARY
  5
17
330
C
100
AcDbDictionary
  3
STANDARD
350
18
  0
DICTIONARY
  5
19
330
C
100
AcDbDictionary
  0
ENDSEC
  0
EOF
