  0
SECTION
  2
HEADER
  9
$ACADVER
  1
AC1014
  9
$HANDSEED
  5
FFFF
  9
$MEASUREMENT
 70
     1
  0
ENDSEC
  0
SECTION
  2
TABLES
  0
TABLE
  2
VPORT
  5
8
330
0
100
AcDbSymbolTable
 70
     4
  0
VPORT
  5
2E
330
8
100
AcDbSymbolTableRecord
100
AcDbViewportTableRecord
  2
*ACTIVE
 70
     0
 10
0.0
 20
0.0
 11
1.0
 21
1.0
 12
210.0
 22
148.5
 13
0.0
 23
0.0
 14
10.0
 24
10.0
 15
10.0
 25
10.0
 16
0.0
 26
0.0
 36
1.0
 17
0.0
 27
0.0
 37
0.0
 40
341.0
 41
1.24
 42
50.0
 43
0.0
 44
0.0
 50
0.0
 51
0.0
 71
     0
 72
   100
 73
     1
 74
     3
 75
     0
 76
     0
 77
     0
 78
     0
  0
ENDTAB
  0
TABLE
  2
LTYPE
  5
5
330
0
100
AcDbSymbolTable
 70
     1
  0
LTYPE
  5
14
330
5
100
AcDbSymbolTableRecord
100
AcDbLinetypeTableRecord
  2
BYBLOCK
 70
     0
  3

 72
    65
 73
     0
 40
0.0
  0
LTYPE
  5
15
330
5
100
AcDbSymbolTableRecord
100
AcDbLinetypeTableRecord
  2
BYLAYER
 70
     0
  3

 72
    65
 73
     0
 40
0.0
  0
LTYPE
  5
16
330
5
100
AcDbSymbolTableRecord
100
AcDbLinetypeTableRecord
  2
CONTINUOUS
 70
     0
  3
Solid line
 72
    65
 73
     0
 40
0.0
  0
ENDTAB
  0
TABLE
  2
LAYER
  5
2
100
AcDbSymbolTable
 70
1
  0
LAYER
  5
50
100
AcDbSymbolTableRecord
100
AcDbLayerTableRecord
  2
0
 70
0
  6
CONTINUOUS
  0
ENDTAB
  0
TABLE
  2
STYLE
  5
3
330
0
100
AcDbSymbolTable
 70
     1
  0
STYLE
  5
11
330
3
100
AcDbSymbolTableRecord
100
AcDbTextStyleTableRecord
  2
STANDARD
 70
     0
 40
0.0
 41
1.0
 50
0.0
 71
     0
 42
2.5
  3
txt
  4

  0
ENDTAB
  0
TABLE
  2
VIEW
  5
6
330
0
100
AcDbSymbolTable
 70
     0
  0
ENDTAB
  0
TABLE
  2
UCS
  5
7
330
0
100
AcDbSymbolTable
 70
     0
  0
ENDTAB
  0
TABLE
  2
APPID
  5
9
330
0
100
AcDbSymbolTable
 70
     2
  0
APPID
  5
12
330
9
100
AcDbSymbolTableRecord
100
AcDbRegAppTableRecord
  2
ACAD
 70
     0
  0
ENDTAB
  0
TABLE
  2
DIMSTYLE
  5
A
330
0
100
AcDbSymbolTable
 70
     1
  0
DIMSTYLE
105
27
330
A
100
AcDbSymbolTableRecord
100
AcDbDimStyleTableRecord
  2
ISO-25
 70
     0
  3

  4

  5

  6

  7

 40
1.0
 41
2.5
 42
0.625
 43
3.75
 44
1.25
 45
0.0
 46
0.0
 47
0.0
 48
0.0
140
2.5
141
2.5
142
0.0
143
0.03937007874016
144
1.0
145
0.0
146
1.0
147
0.625
 71
     0
 72
     0
 73
     0
 74
     0
 75
     0
 76
     0
 77
     1
 78
     8
170
     0
171
     3
172
     1
173
     0
174
     0
175
     0
176
     0
177
     0
178
     0
270
     2
271
     2
272
     2
273
     2
274
     3
340
11
275
     0
280
     0
281
     0
282
     0
283
     0
284
     8
285
     0
286
     0
287
     3
288
     0
  0
ENDTAB
  0
TABLE
  2
BLOCK_RECORD
  5
1
330
0
100
AcDbSymbolTable
 70
     1
  0
BLOCK_RECORD
  5
1F
330
1
100
AcDbSymbolTableRecord
100
AcDbBlockTableRecord
  2
*MODEL_SPACE
  0
BLOCK_RECORD
  5
1B
330
1
100
AcDbSymbolTableRecord
100
AcDbBlockTableRecord
  2
*PAPER_SPACE
  0
ENDTAB
  0
ENDSEC
  0
SECTION
  2
BLOCKS
  0
BLOCK
  5
20
330
1F
100
AcDbEntity
  8
0
100
AcDbBlockBegin
  2
*MODEL_SPACE
 70
     0
 10
0.0
 20
0.0
 30
0.0
  3
*MODEL_SPACE
  1

  0
ENDBLK
  5
21
330
1F
100
AcDbEntity
  8
0
100
AcDbBlockEnd
  0
BLOCK
  5
1C
330
1B
100
AcDbEntity
 67
     1
  8
0
100
AcDbBlockBegin
  2
*PAPER_SPACE
  1

  0
ENDBLK
  5
1D
330
1B
100
AcDbEntity
 67
     1
  8
0
100
AcDbBlockEnd
  0
ENDSEC
  0
SECTION
  2
ENTITIES
  0
LINE
  5
100
100
AcDbEntity
  8
0
 62
7
100
AcDbLine
 10
26.588547
 20
22.247290
 30
0.0
 11
38.212435
 21
32.696285
 31
0.0
  0
LINE
  5
101
100
AcDbEntity
  8
0
 62
7
100
AcDbLine
 10
40.930799
 20
31.226754
 30
0.0
 11
40.930799
 21
22.195361
 31
0.0
  0
LINE
  5
102
100
AcDbEntity
  8
0
 62
7
100
AcDbLine
 10
40.930799
 20
22.195361
 30
0.0
 11
40.925155
 21
22.195361
 31
0.0
  0
LINE
  5
103
100
AcDbEntity
  8
0
 62
7
100
AcDbLine
 10
40.925155
 20
22.195361
 30
0.0
 11
52.549888
 21
32.696285
 31
0.0
  0
SPLINE
  5
104
100
AcDbEntity
  8
0
 62
7
100
AcDbSpline
 70
0
 71
3
 72
13
 73
9
 74
7
 40
0.000000
 40
0.000000
 40
0.000000
 40
0.000000
 40
0.732274
 40
1.388758
 40
2.102407
 40
2.844676
 40
3.564471
 40
4.355364
 40
4.355364
 40
4.355364
 40
4.355364
 10
38.212435
 20
32.696285
 30
0.0
 10
38.394994
 20
32.857812
 30
0.0
 10
38.741217
 20
33.164149
 30
0.0
 10
39.416300
 20
33.455536
 30
0.0
 10
40.139879
 20
33.252930
 30
0.0
 10
40.687159
 20
32.733401
 30
0.0
 10
40.916163
 20
31.994302
 30
0.0
 10
40.925770
 20
31.490507
 30
0.0
 10
40.930799
 20
31.226754
 30
0.0
 11
38.212435
 21
32.696285
 31
0.0
 11
38.787833
 21
33.149210
 31
0.0
 11
39.404688
 21
33.373849
 31
0.0
 11
40.098243
 21
33.205697
 31
0.0
 11
40.636326
 21
32.694394
 31
0.0
 11
40.876257
 21
32.015764
 31
0.0
 11
40.930799
 21
31.226754
 31
0.0
  0
SPLINE
  5
105
100
AcDbEntity
  8
0
 62
7
100
AcDbSpline
 70
0
 71
3
 72
13
 73
9
 74
7
 40
0.000000
 40
0.000000
 40
0.000000
 40
0.000000
 40
0.732274
 40
1.388758
 40
2.102407
 40
2.844676
 40
3.564471
 40
4.355364
 40
4.355364
 40
4.355364
 40
4.355364
 10
52.549888
 20
32.696285
 30
0.0
 10
52.732447
 20
32.857812
 30
0.0
 10
53.078671
 20
33.164149
 30
0.0
 10
53.753753
 20
33.455536
 30
0.0
 10
54.477332
 20
33.252930
 30
0.0
 10
55.024612
 20
32.733401
 30
0.0
 10
55.253617
 20
31.994302
 30
0.0
 10
55.263223
 20
31.490507
 30
0.0
 10
55.268252
 20
31.226754
 30
0.0
 11
52.549888
 21
32.696285
 31
0.0
 11
53.125287
 21
33.149210
 31
0.0
 11
53.742141
 21
33.373849
 31
0.0
 11
54.435697
 21
33.205697
 31
0.0
 11
54.973780
 21
32.694394
 31
0.0
 11
55.213710
 21
32.015764
 31
0.0
 11
55.268252
 21
31.226754
 31
0.0
  0
SPLINE
  5
106
100
AcDbEntity
  8
0
 62
7
100
AcDbSpline
 70
0
 71
3
 72
10
 73
6
 74
4
 40
0.000000
 40
0.000000
 40
0.000000
 40
0.000000
 40
9.283429
 40
18.566920
 40
27.850537
 40
27.850537
 40
27.850537
 40
27.850537
 10
55.268252
 20
31.226754
 30
0.0
 10
55.266349
 20
28.132278
 30
0.0
 10
55.262541
 20
21.943306
 30
0.0
 10
55.263126
 20
12.659793
 30
0.0
 10
55.262781
 20
6.470758
 30
0.0
 10
55.262608
 20
3.376219
 30
0.0
 11
55.268252
 21
31.226754
 31
0.0
 11
55.263590
 21
21.943326
 31
0.0
 11
55.262942
 21
12.659835
 31
0.0
 11
55.262608
 21
3.376219
 31
0.0
  0
LINE
  5
107
100
AcDbEntity
  8
0
 62
7
100
AcDbLine
 10
40.642086
 20
1.197463
 30
0.0
 11
2.724964
 21
1.198028
 31
0.0
  0
SPLINE
  5
108
100
AcDbEntity
  8
0
 62
7
100
AcDbSpline
 70
0
 71
3
 72
13
 73
9
 74
7
 40
0.000000
 40
0.000000
 40
0.000000
 40
0.000000
 40
1.299792
 40
2.220544
 40
3.384458
 40
8.103443
 40
11.346281
 40
16.065267
 40
16.065267
 40
16.065267
 40
16.065267
 10
55.262608
 20
3.376219
 30
0.0
 10
55.262470
 20
2.931545
 30
0.0
 10
55.262234
 20
2.171872
 30
0.0
 10
54.457034
 20
1.222821
 30
0.0
 10
52.068605
 20
1.164553
 30
0.0
 10
49.113776
 20
1.206400
 30
0.0
 10
44.863202
 20
1.194668
 30
0.0
 10
42.212915
 20
1.196423
 30
0.0
 10
40.642086
 20
1.197463
 30
0.0
 11
55.262608
 21
3.376219
 31
0.0
 11
55.081264
 21
2.089139
 31
0.0
 11
54.468874
 21
1.401562
 31
0.0
 11
53.322895
 21
1.198028
 31
0.0
 11
48.603909
 21
1.197756
 31
0.0
 11
45.361071
 21
1.197547
 31
0.0
 11
40.642086
 21
1.197463
 31
0.0
  0
SPLINE
  5
109
100
AcDbEntity
  8
0
 62
7
100
AcDbSpline
 70
0
 71
3
 72
10
 73
6
 74
4
 40
0.000000
 40
0.000000
 40
0.000000
 40
0.000000
 40
1.162860
 40
2.083141
 40
3.384903
 40
3.384903
 40
3.384903
 40
3.384903
 10
2.724964
 20
1.198028
 30
0.0
 10
2.319354
 20
1.206734
 30
0.0
 10
1.592748
 20
1.222331
 30
0.0
 10
0.787251
 20
2.173616
 30
0.0
 10
0.787592
 20
2.933556
 30
0.0
 10
0.787791
 20
3.378759
 30
0.0
 11
2.724964
 21
1.198028
 31
0.0
 11
1.580083
 21
1.401719
 31
0.0
 11
0.968789
 21
2.089641
 31
0.0
 11
0.787791
 21
3.378759
 31
0.0
  0
SPLINE
  5
10a
100
AcDbEntity
  8
0
 62
7
100
AcDbSpline
 70
0
 71
3
 72
10
 73
6
 74
4
 40
0.000000
 40
0.000000
 40
0.000000
 40
0.000000
 40
13.576373
 40
27.152809
 40
40.729182
 40
40.729182
 40
40.729182
 40
40.729182
 10
0.787791
 20
3.378759
 30
0.0
 10
0.787415
 20
7.904217
 30
0.0
 10
0.786662
 20
16.955153
 30
0.0
 10
0.786662
 20
30.531547
 30
0.0
 10
0.787415
 20
39.582483
 30
0.0
 10
0.787791
 20
44.107941
 30
0.0
 11
0.787791
 21
3.378759
 31
0.0
 11
0.786850
 21
16.955132
 31
0.0
 11
0.786850
 21
30.531568
 31
0.0
 11
0.787791
 21
44.107941
 31
0.0
  0
LINE
  5
10b
100
AcDbEntity
  8
0
 62
7
100
AcDbLine
 10
12.251375
 20
43.754034
 30
0.0
 11
12.251375
 21
22.241363
 31
0.0
  0
SPLINE
  5
10c
100
AcDbEntity
  8
0
 62
7
100
AcDbSpline
 70
0
 71
3
 72
16
 73
12
 74
10
 40
0.000000
 40
0.000000
 40
0.000000
 40
0.000000
 40
1.295511
 40
2.212949
 40
3.382996
 40
5.795641
 40
8.208223
 40
10.620867
 40
12.072882
 40
13.075290
 40
14.677231
 40
14.677231
 40
14.677231
 40
14.677231
 10
0.787791
 20
44.107941
 30
0.0
 10
0.787490
 20
44.551728
 30
0.0
 10
0.786976
 20
45.309791
 30
0.0
 10
1.597573
 20
46.252070
 30
0.0
 10
3.183468
 20
46.288510
 30
0.0
 10
5.132489
 20
46.267214
 30
0.0
 10
7.577026
 20
46.287219
 30
0.0
 10
9.610454
 20
46.239246
 30
0.0
 10
11.353035
 20
46.339892
 30
0.0
 10
12.330084
 20
45.204660
 30
0.0
 10
12.281351
 20
44.306497
 30
0.0
 10
12.251375
 20
43.754034
 30
0.0
 11
0.787791
 21
44.107941
 31
0.0
 11
0.968789
 21
45.390746
 31
0.0
 11
1.582529
 21
46.072668
 31
0.0
 11
2.735124
 21
46.273997
 31
0.0
 11
5.147769
 21
46.274833
 31
0.0
 11
7.560351
 21
46.274666
 31
0.0
 11
9.972995
 21
46.274561
 31
0.0
 11
11.413363
 21
46.091023
 31
0.0
 11
12.085523
 21
45.347367
 31
0.0
 11
12.251375
 21
43.754034
 31
0.0
  0
LINE
  5
10d
100
AcDbEntity
  8
0
 62
7
100
AcDbLine
 10
26.592780
 20
31.332305
 30
0.0
 11
26.592780
 21
22.246725
 31
0.0
  0
SPLINE
  5
10e
100
AcDbEntity
  8
0
 62
7
100
AcDbSpline
 70
0
 71
3
 72
19
 73
15
 74
13
 40
0.000000
 40
0.000000
 40
0.000000
 40
0.000000
 40
3.396758
 40
6.704610
 40
9.968259
 40
11.898704
 40
13.829269
 40
15.760278
 40
16.442440
 40
17.054355
 40
17.717030
 40
18.431126
 40
19.123614
 40
19.889240
 40
19.889240
 40
19.889240
 40
19.889240
 10
12.251375
 20
22.241363
 30
0.0
 10
13.093512
 20
22.998202
 30
0.0
 10
14.755742
 20
24.492071
 30
0.0
 10
17.227122
 20
26.713075
 30
0.0
 10
19.335041
 20
28.607390
 30
0.0
 10
21.100670
 20
30.195490
 30
0.0
 10
22.542574
 20
31.480013
 30
0.0
 10
23.650246
 20
32.511632
 30
0.0
 10
24.469987
 20
33.210446
 30
0.0
 10
25.110791
 20
33.446250
 30
0.0
 10
25.783859
 20
33.254316
 30
0.0
 10
26.315612
 20
32.776569
 30
0.0
 10
26.572149
 20
32.075242
 30
0.0
 10
26.585677
 20
31.588096
 30
0.0
 10
26.592780
 20
31.332305
 30
0.0
 11
12.251375
 21
22.241363
 31
0.0
 11
14.777787
 21
24.511872
 31
0.0
 11
17.238096
 21
26.722927
 31
0.0
 11
19.665353
 21
28.904630
 31
0.0
 11
21.101729
 21
30.194375
 31
0.0
 11
22.537477
 21
31.484998
 31
0.0
 11
23.969524
 21
32.780388
 31
0.0
 11
24.514203
 21
33.191084
 31
0.0
 11
25.097389
 21
33.376378
 31
0.0
 11
25.740469
 21
33.216421
 31
0.0
 11
26.270817
 21
32.738232
 31
0.0
 11
26.527723
 21
32.095163
 31
0.0
 11
26.592780
 21
31.332305
 31
0.0
  0
LINE
  5
10f
100
AcDbEntity
  8
0
 62
7
100
AcDbLine
 10
4.649155
 20
7.044261
 30
0.0
 11
4.649155
 21
9.922363
 31
0.0
  0
LINE
  5
110
100
AcDbEntity
  8
0
 62
7
100
AcDbLine
 10
4.649155
 20
9.922363
 30
0.0
 11
3.960815
 21
9.922363
 31
0.0
  0
LINE
  5
111
100
AcDbEntity
  8
0
 62
7
100
AcDbLine
 10
3.960815
 20
9.922363
 30
0.0
 11
3.960815
 21
10.881637
 31
0.0
  0
LINE
  5
112
100
AcDbEntity
  8
0
 62
7
100
AcDbLine
 10
3.960815
 20
10.881637
 30
0.0
 11
4.649155
 21
10.881637
 31
0.0
  0
LINE
  5
113
100
AcDbEntity
  8
0
 62
7
100
AcDbLine
 10
4.649155
 20
10.881637
 30
0.0
 11
4.649155
 21
12.800465
 31
0.0
  0
LINE
  5
114
100
AcDbEntity
  8
0
 62
7
100
AcDbLine
 10
4.649155
 20
12.800465
 30
0.0
 11
5.901940
 21
12.800465
 31
0.0
  0
LINE
  5
115
100
AcDbEntity
  8
0
 62
7
100
AcDbLine
 10
5.901940
 20
12.800465
 30
0.0
 11
5.901940
 21
10.881637
 31
0.0
  0
LINE
  5
116
100
AcDbEntity
  8
0
 62
7
100
AcDbLine
 10
5.901940
 20
10.881637
 30
0.0
 11
7.504680
 21
10.881637
 31
0.0
  0
LINE
  5
117
100
AcDbEntity
  8
0
 62
7
100
AcDbLine
 10
7.504680
 20
10.881637
 30
0.0
 11
7.504680
 21
9.922363
 31
0.0
  0
LINE
  5
118
100
AcDbEntity
  8
0
 62
7
100
AcDbLine
 10
7.504680
 20
9.922363
 30
0.0
 11
5.913229
 21
9.922363
 31
0.0
  0
LINE
  5
119
100
AcDbEntity
  8
0
 62
7
100
AcDbLine
 10
5.913229
 20
9.922363
 30
0.0
 11
5.913229
 21
7.044261
 31
0.0
  0
SPLINE
  5
11a
100
AcDbEntity
  8
0
 62
7
100
AcDbSpline
 70
0
 71
3
 72
13
 73
9
 74
7
 40
0.000000
 40
0.000000
 40
0.000000
 40
0.000000
 40
0.444126
 40
0.923454
 40
1.467867
 40
2.541896
 40
3.495019
 40
4.527782
 40
4.527782
 40
4.527782
 40
4.527782
 10
7.956235
 20
5.621861
 30
0.0
 10
7.843299
 20
5.524423
 30
0.0
 10
7.608475
 20
5.321822
 30
0.0
 10
7.135698
 20
5.159077
 30
0.0
 10
6.438814
 20
5.089647
 30
0.0
 10
5.561869
 20
5.256935
 30
0.0
 10
4.768953
 20
6.018048
 30
0.0
 10
4.690141
 20
6.693165
 30
0.0
 10
4.649155
 20
7.044261
 30
0.0
 11
7.956235
 21
5.621861
 31
0.0
 11
7.602945
 21
5.352726
 31
0.0
 11
7.154390
 21
5.183748
 31
0.0
 11
6.613140
 21
5.125150
 31
0.0
 11
5.567235
 21
5.369324
 31
0.0
 11
4.889974
 21
6.039968
 31
0.0
 11
4.649155
 21
7.044261
 31
0.0
  0
LINE
  5
11b
100
AcDbEntity
  8
0
 62
7
100
AcDbLine
 10
7.267613
 20
6.468528
 30
0.0
 11
7.956235
 21
5.621861
 31
0.0
  0
LINE
  5
11c
100
AcDbEntity
  8
0
 62
7
100
AcDbLine
 10
7.956235
 20
5.621861
 30
0.0
 11
7.956235
 21
5.621861
 31
0.0
  0
LINE
  5
11d
100
AcDbEntity
  8
0
 62
7
100
AcDbLine
 10
13.611686
 20
7.664868
 30
0.0
 11
9.615984
 21
7.664868
 31
0.0
  0
SPLINE
  5
11e
100
AcDbEntity
  8
0
 62
7
100
AcDbSpline
 70
0
 71
3
 72
13
 73
9
 74
7
 40
0.000000
 40
0.000000
 40
0.000000
 40
0.000000
 40
0.483341
 40
0.858749
 40
1.265269
 40
1.497828
 40
1.718522
 40
1.964125
 40
1.964125
 40
1.964125
 40
1.964125
 10
5.913229
 20
7.044261
 30
0.0
 10
5.922708
 20
6.879741
 30
0.0
 10
5.939549
 20
6.587439
 30
0.0
 10
6.238232
 20
6.241286
 30
0.0
 10
6.590546
 20
6.185301
 30
0.0
 10
6.875987
 20
6.210646
 30
0.0
 10
7.097946
 20
6.299682
 30
0.0
 10
7.209078
 20
6.410276
 30
0.0
 10
7.267613
 20
6.468528
 30
0.0
 11
5.913229
 21
7.044261
 31
0.0
 11
6.000550
 21
6.568873
 31
0.0
 11
6.250934
 21
6.289160
 31
0.0
 11
6.647006
 21
6.197594
 31
0.0
 11
6.878209
 21
6.222681
 31
0.0
 11
7.081754
 21
6.307975
 31
0.0
 11
7.267613
 21
6.468528
 31
0.0
  0
LINE
  5
11f
100
AcDbEntity
  8
0
 62
7
100
AcDbLine
 10
12.584398
 20
7.123001
 30
0.0
 11
13.453360
 21
6.513683
 31
0.0
  0
SPLINE
  5
120
100
AcDbEntity
  8
0
 62
7
100
AcDbSpline
 70
0
 71
3
 72
13
 73
9
 74
7
 40
0.000000
 40
0.000000
 40
0.000000
 40
0.000000
 40
0.813290
 40
1.524520
 40
2.327977
 40
2.880817
 40
3.414734
 40
4.126777
 40
4.126777
 40
4.126777
 40
4.126777
 10
9.615984
 20
7.664868
 30
0.0
 10
9.666671
 20
7.393615
 30
0.0
 10
9.761684
 20
6.885148
 30
0.0
 10
10.349367
 20
6.296636
 30
0.0
 10
11.056192
 20
6.181211
 30
0.0
 10
11.693789
 20
6.241147
 30
0.0
 10
12.217731
 20
6.577308
 30
0.0
 10
12.451056
 20
6.924555
 30
0.0
 10
12.584398
 20
7.123001
 30
0.0
 11
9.615984
 21
7.664868
 31
0.0
 11
9.850532
 21
6.886133
 31
0.0
 11
10.355950
 21
6.385732
 31
0.0
 11
11.139702
 21
6.208883
 31
0.0
 11
11.687224
 21
6.285386
 31
0.0
 11
12.142051
 21
6.565027
 31
0.0
 11
12.584398
 21
7.123001
 31
0.0
  0
LINE
  5
121
100
AcDbEntity
  8
0
 62
7
100
AcDbLine
 10
13.611686
 20
7.664868
 30
0.0
 11
13.611686
 21
7.664868
 31
0.0
  0
LINE
  5
122
100
AcDbEntity
  8
0
 62
7
100
AcDbLine
 10
9.649851
 20
8.624423
 30
0.0
 11
12.505375
 21
8.624423
 31
0.0
  0
SPLINE
  5
123
100
AcDbEntity
  8
0
 62
7
100
AcDbSpline
 70
0
 71
3
 72
22
 73
18
 74
16
 40
0.000000
 40
0.000000
 40
0.000000
 40
0.000000
 40
0.939985
 40
1.859495
 40
2.873569
 40
4.381831
 40
5.765701
 40
7.315234
 40
8.866111
 40
10.261623
 40
11.767160
 40
13.205136
 40
14.558711
 40
16.136751
 40
16.252173
 40
16.370495
 40
16.487375
 40
16.487375
 40
16.487375
 40
16.487375
 10
13.453360
 20
6.513683
 30
0.0
 10
13.281219
 20
6.247648
 30
0.0
 10
12.940686
 20
5.721373
 30
0.0
 10
12.081557
 20
5.221258
 30
0.0
 10
10.934261
 20
5.049323
 30
0.0
 10
9.589583
 20
5.344176
 30
0.0
 10
8.557242
 20
6.530570
 30
0.0
 10
8.293587
 20
8.049260
 30
0.0
 10
8.562359
 20
9.569585
 30
0.0
 10
9.591793
 20
10.761382
 30
0.0
 10
11.069431
 20
11.113790
 30
0.0
 10
12.544553
 20
10.765066
 30
0.0
 10
13.495042
 20
9.539037
 30
0.0
 10
13.637597
 20
8.501303
 30
0.0
 10
13.633944
 20
7.897915
 30
0.0
 10
13.630026
 20
7.780893
 30
0.0
 10
13.617775
 20
7.703384
 30
0.0
 10
13.611686
 20
7.664868
 30
0.0
 11
13.453360
 21
6.513683
 31
0.0
 11
12.881891
 21
5.767362
 31
0.0
 11
12.094805
 21
5.291975
 31
0.0
 11
11.094546
 21
5.125150
 31
0.0
 11
9.634715
 21
5.504289
 31
0.0
 11
8.709100
 21
6.533042
 31
0.0
 11
8.385495
 21
8.048408
 31
0.0
 11
8.711608
 21
9.564610
 31
0.0
 11
9.639733
 21
10.606742
 31
0.0
 11
11.094546
 21
10.994243
 31
0.0
 11
12.480373
 21
10.610494
 31
0.0
 11
13.339509
 21
9.564526
 31
0.0
 11
13.634264
 21
8.014259
 31
0.0
 11
13.633428
 21
7.898840
 31
0.0
 11
13.627574
 21
7.780662
 31
0.0
 11
13.611686
 21
7.664868
 31
0.0
  0
LINE
  5
124
100
AcDbEntity
  8
0
 62
7
100
AcDbLine
 10
9.649851
 20
8.624423
 30
0.0
 11
9.649851
 21
8.624423
 31
0.0
  0
SPLINE
  5
125
100
AcDbEntity
  8
0
 62
7
100
AcDbSpline
 70
0
 71
3
 72
13
 73
9
 74
7
 40
0.000000
 40
0.000000
 40
0.000000
 40
0.000000
 40
0.734600
 40
1.376232
 40
2.089441
 40
2.825670
 40
3.487582
 40
4.227525
 40
4.227525
 40
4.227525
 40
4.227525
 10
12.505375
 20
8.624423
 30
0.0
 10
12.452960
 20
8.868033
 30
0.0
 10
12.354763
 20
9.324421
 30
0.0
 10
11.820496
 20
9.841438
 30
0.0
 10
11.108787
 20
9.966367
 30
0.0
 10
10.393198
 20
9.837741
 30
0.0
 10
9.834931
 20
9.326087
 30
0.0
 10
9.713792
 20
8.866832
 30
0.0
 10
9.649851
 20
8.624423
 30
0.0
 11
12.505375
 21
8.624423
 31
0.0
 11
12.275845
 21
9.322244
 31
0.0
 11
11.813074
 21
9.766692
 31
0.0
 11
11.117124
 21
9.922645
 31
0.0
 11
10.398179
 21
9.764057
 31
0.0
 11
9.909903
 21
9.317164
 31
0.0
 11
9.649851
 21
8.624423
 31
0.0
  0
LINE
  5
126
100
AcDbEntity
  8
0
 62
7
100
AcDbLine
 10
14.899184
 20
12.653710
 30
0.0
 11
14.899184
 21
12.653710
 31
0.0
  0
LINE
  5
127
100
AcDbEntity
  8
0
 62
7
100
AcDbLine
 10
15.034651
 20
10.881919
 30
0.0
 11
16.287435
 21
10.881919
 31
0.0
  0
LINE
  5
128
100
AcDbEntity
  8
0
 62
7
100
AcDbLine
 10
16.287435
 20
10.881919
 30
0.0
 11
16.287435
 21
5.238321
 31
0.0
  0
LINE
  5
129
100
AcDbEntity
  8
0
 62
7
100
AcDbLine
 10
16.287435
 20
5.238321
 30
0.0
 11
15.034651
 21
5.238321
 31
0.0
  0
LINE
  5
12a
100
AcDbEntity
  8
0
 62
7
100
AcDbLine
 10
15.034651
 20
5.238321
 30
0.0
 11
15.034651
 21
10.881919
 31
0.0
  0
LINE
  5
12b
100
AcDbEntity
  8
0
 62
7
100
AcDbLine
 10
15.034651
 20
10.881919
 30
0.0
 11
15.034651
 21
10.881919
 31
0.0
  0
LINE
  5
12c
100
AcDbEntity
  8
0
 62
7
100
AcDbLine
 10
18.116518
 20
7.044261
 30
0.0
 11
18.116518
 21
13.703577
 31
0.0
  0
LINE
  5
12d
100
AcDbEntity
  8
0
 62
7
100
AcDbLine
 10
18.116518
 20
13.703577
 30
0.0
 11
19.369302
 21
13.703577
 31
0.0
  0
LINE
  5
12e
100
AcDbEntity
  8
0
 62
7
100
AcDbLine
 10
19.369302
 20
13.703577
 30
0.0
 11
19.380591
 21
7.044261
 31
0.0
  0
SPLINE
  5
12f
100
AcDbEntity
  8
0
 62
7
100
AcDbSpline
 70
0
 71
3
 72
19
 73
15
 74
13
 40
0.000000
 40
0.000000
 40
0.000000
 40
0.000000
 40
0.403888
 40
0.793554
 40
1.191943
 40
1.590140
 40
1.979754
 40
2.383639
 40
2.779744
 40
3.167347
 40
3.565452
 40
3.963782
 40
4.351393
 40
4.747441
 40
4.747441
 40
4.747441
 40
4.747441
 10
14.899184
 20
12.653710
 30
0.0
 10
14.920551
 20
12.789943
 30
0.0
 10
14.962533
 20
13.057613
 30
0.0
 10
15.269692
 20
13.349349
 30
0.0
 10
15.666048
 20
13.457761
 30
0.0
 10
16.066653
 20
13.349314
 30
0.0
 10
16.360979
 20
13.057612
 30
0.0
 10
16.471642
 20
12.656234
 30
0.0
 10
16.359778
 20
12.256122
 30
0.0
 10
16.065607
 20
11.969208
 30
0.0
 10
15.666030
 20
11.860909
 30
0.0
 10
15.270753
 20
11.969342
 30
0.0
 10
14.963958
 20
12.256112
 30
0.0
 10
14.920930
 20
12.520230
 30
0.0
 10
14.899184
 20
12.653710
 30
0.0
 11
14.899184
 21
12.653710
 31
0.0
 11
15.005383
 21
13.043386
 31
0.0
 11
15.282170
 21
13.317664
 31
0.0
 11
15.666829
 21
13.421354
 31
0.0
 11
16.051288
 21
13.317664
 31
0.0
 11
16.328002
 21
13.043386
 31
0.0
 11
16.434191
 21
12.653710
 31
0.0
 11
16.328002
 21
12.272104
 31
0.0
 11
16.051288
 21
12.000689
 31
0.0
 11
15.666829
 21
11.897354
 31
0.0
 11
15.282170
 21
12.000815
 31
0.0
 11
15.005383
 21
12.272166
 31
0.0
 11
14.899184
 21
12.653710
 31
0.0
  0
LINE
  5
130
100
AcDbEntity
  8
0
 62
7
100
AcDbLine
 10
20.735258
 20
6.468528
 30
0.0
 11
21.423880
 21
5.621861
 31
0.0
  0
SPLINE
  5
131
100
AcDbEntity
  8
0
 62
7
100
AcDbSpline
 70
0
 71
3
 72
13
 73
9
 74
7
 40
0.000000
 40
0.000000
 40
0.000000
 40
0.000000
 40
0.483352
 40
0.858803
 40
1.265200
 40
1.497770
 40
1.718531
 40
1.964284
 40
1.964284
 40
1.964284
 40
1.964284
 10
19.380591
 20
7.044261
 30
0.0
 10
19.390092
 20
6.879737
 30
0.0
 10
19.406972
 20
6.587417
 30
0.0
 10
19.705687
 20
6.241339
 30
0.0
 10
20.057949
 20
6.185293
 30
0.0
 10
20.343381
 20
6.210654
 30
0.0
 10
20.565403
 20
6.299704
 30
0.0
 10
20.676653
 20
6.410279
 30
0.0
 10
20.735258
 20
6.468528
 30
0.0
 11
19.380591
 21
7.044261
 31
0.0
 11
19.467975
 21
6.568873
 31
0.0
 11
19.718421
 21
6.289160
 31
0.0
 11
20.114369
 21
6.197594
 31
0.0
 11
20.345582
 21
6.222681
 31
0.0
 11
20.549200
 21
6.307975
 31
0.0
 11
20.735258
 21
6.468528
 31
0.0
  0
LINE
  5
132
100
AcDbEntity
  8
0
 62
7
100
AcDbLine
 10
18.116518
 20
7.044261
 30
0.0
 11
18.116518
 21
7.044261
 31
0.0
  0
LINE
  5
133
100
AcDbEntity
  8
0
 62
7
100
AcDbLine
 10
23.816842
 20
10.881919
 30
0.0
 11
25.250249
 21
10.881919
 31
0.0
  0
LINE
  5
134
100
AcDbEntity
  8
0
 62
7
100
AcDbLine
 10
25.250249
 20
10.881919
 30
0.0
 11
25.250249
 21
9.922645
 31
0.0
  0
LINE
  5
135
100
AcDbEntity
  8
0
 62
7
100
AcDbLine
 10
25.250249
 20
9.922645
 30
0.0
 11
23.816842
 21
9.922645
 31
0.0
  0
LINE
  5
136
100
AcDbEntity
  8
0
 62
7
100
AcDbLine
 10
23.816842
 20
9.922645
 30
0.0
 11
23.816842
 21
5.238321
 31
0.0
  0
LINE
  5
137
100
AcDbEntity
  8
0
 62
7
100
AcDbLine
 10
23.816842
 20
5.238321
 30
0.0
 11
22.564058
 21
5.238321
 31
0.0
  0
LINE
  5
138
100
AcDbEntity
  8
0
 62
7
100
AcDbLine
 10
22.564058
 20
5.238321
 30
0.0
 11
22.564058
 21
9.922645
 31
0.0
  0
LINE
  5
139
100
AcDbEntity
  8
0
 62
7
100
AcDbLine
 10
22.564058
 20
9.922645
 30
0.0
 11
21.616073
 21
9.922645
 31
0.0
  0
LINE
  5
13a
100
AcDbEntity
  8
0
 62
7
100
AcDbLine
 10
21.616073
 20
9.922645
 30
0.0
 11
21.616073
 21
10.881919
 31
0.0
  0
LINE
  5
13b
100
AcDbEntity
  8
0
 62
7
100
AcDbLine
 10
21.616073
 20
10.881919
 30
0.0
 11
22.564058
 21
10.881919
 31
0.0
  0
LINE
  5
13c
100
AcDbEntity
  8
0
 62
7
100
AcDbLine
 10
22.564058
 20
10.881919
 30
0.0
 11
22.564058
 21
11.999237
 31
0.0
  0
SPLINE
  5
13d
100
AcDbEntity
  8
0
 62
7
100
AcDbSpline
 70
0
 71
3
 72
13
 73
9
 74
7
 40
0.000000
 40
0.000000
 40
0.000000
 40
0.000000
 40
0.444126
 40
0.923454
 40
1.467867
 40
2.542090
 40
3.495265
 40
4.528030
 40
4.528030
 40
4.528030
 40
4.528030
 10
21.423880
 20
5.621861
 30
0.0
 10
21.310944
 20
5.524423
 30
0.0
 10
21.076119
 20
5.321823
 30
0.0
 10
20.603342
 20
5.159075
 30
0.0
 10
19.906394
 20
5.089650
 30
0.0
 10
19.029363
 20
5.256902
 30
0.0
 10
18.236319
 20
6.018022
 30
0.0
 10
18.157504
 20
6.693162
 30
0.0
 10
18.116518
 20
7.044261
 30
0.0
 11
21.423880
 21
5.621861
 31
0.0
 11
21.070590
 21
5.352726
 31
0.0
 11
20.622034
 21
5.183748
 31
0.0
 11
20.080784
 21
5.125150
 31
0.0
 11
19.034681
 21
5.369324
 31
0.0
 11
18.357347
 21
6.039968
 31
0.0
 11
18.116518
 21
7.044261
 31
0.0
  0
LINE
  5
13e
100
AcDbEntity
  8
0
 62
7
100
AcDbLine
 10
25.848560
 20
13.206865
 30
0.0
 11
25.148931
 21
12.439221
 31
0.0
  0
SPLINE
  5
13f
100
AcDbEntity
  8
0
 62
7
100
AcDbSpline
 70
0
 71
3
 72
13
 73
9
 74
7
 40
0.000000
 40
0.000000
 40
0.000000
 40
0.000000
 40
0.958113
 40
1.897979
 40
2.886981
 40
3.323566
 40
3.826100
 40
4.453625
 40
4.453625
 40
4.453625
 40
4.453625
 10
22.564058
 20
11.999237
 30
0.0
 10
22.616439
 20
12.322385
 30
0.0
 10
22.720203
 20
12.962527
 30
0.0
 10
23.482322
 20
13.656717
 30
0.0
 10
24.276470
 20
13.843274
 30
0.0
 10
24.919235
 20
13.796777
 30
0.0
 10
25.427875
 20
13.625985
 30
0.0
 10
25.698359
 20
13.356507
 30
0.0
 10
25.848560
 20
13.206865
 30
0.0
 11
22.564058
 21
11.999237
 31
0.0
 11
22.822437
 21
12.921852
 31
0.0
 11
23.502206
 21
13.570901
 31
0.0
 11
24.460309
 21
13.816183
 31
0.0
 11
24.895485
 21
13.781135
 31
0.0
 11
25.368228
 21
13.610684
 31
0.0
 11
25.848560
 21
13.206865
 31
0.0
  0
LINE
  5
140
100
AcDbEntity
  8
0
 62
7
100
AcDbLine
 10
23.817124
 20
11.919932
 30
0.0
 11
23.817124
 21
10.881919
 31
0.0
  0
LINE
  5
141
100
AcDbEntity
  8
0
 62
7
100
AcDbLine
 10
23.817124
 20
10.881919
 30
0.0
 11
23.816842
 21
10.881919
 31
0.0
  0
LINE
  5
142
100
AcDbEntity
  8
0
 62
7
100
AcDbLine
 10
30.917272
 20
8.782185
 30
0.0
 11
30.917272
 21
5.238039
 31
0.0
  0
LINE
  5
143
100
AcDbEntity
  8
0
 62
7
100
AcDbLine
 10
30.917272
 20
5.238039
 30
0.0
 11
29.811243
 21
5.238039
 31
0.0
  0
LINE
  5
144
100
AcDbEntity
  8
0
 62
7
100
AcDbLine
 10
29.811243
 20
5.238039
 30
0.0
 11
29.754799
 21
5.937668
 31
0.0
  0
SPLINE
  5
145
100
AcDbEntity
  8
0
 62
7
100
AcDbSpline
 70
0
 71
3
 72
13
 73
9
 74
7
 40
0.000000
 40
0.000000
 40
0.000000
 40
0.000000
 40
0.251588
 40
0.508088
 40
0.771841
 40
1.138482
 40
1.522401
 40
1.968721
 40
1.968721
 40
1.968721
 40
1.968721
 10
25.148931
 20
12.439221
 30
0.0
 10
25.093207
 20
12.502853
 30
0.0
 10
24.980670
 20
12.631360
 30
0.0
 10
24.744586
 20
12.747379
 30
0.0
 10
24.449792
 20
12.803213
 30
0.0
 10
24.105088
 20
12.693827
 30
0.0
 10
23.858230
 20
12.348475
 30
0.0
 10
23.831496
 20
12.069762
 30
0.0
 10
23.817124
 20
11.919932
 30
0.0
 11
25.148931
 21
12.439221
 31
0.0
 11
24.971246
 21
12.617335
 31
0.0
 11
24.743451
 21
12.735241
 31
0.0
 11
24.483169
 21
12.777888
 31
0.0
 11
24.134886
 21
12.663326
 31
0.0
 11
23.902000
 21
12.358108
 31
0.0
 11
23.817124
 21
11.919932
 31
0.0
  0
LINE
  5
146
100
AcDbEntity
  8
0
 62
7
100
AcDbLine
 10
28.750370
 20
8.477385
 30
0.0
 11
29.687066
 21
8.353208
 31
0.0
  0
LINE
  5
147
100
AcDbEntity
  8
0
 62
7
100
AcDbLine
 10
29.687066
 20
8.353208
 30
0.0
 11
29.687066
 21
8.861208
 31
0.0
  0
SPLINE
  5
148
100
AcDbEntity
  8
0
 62
7
100
AcDbSpline
 70
0
 71
3
 72
16
 73
12
 74
10
 40
0.000000
 40
0.000000
 40
0.000000
 40
0.000000
 40
0.736236
 40
1.454432
 40
2.141493
 40
3.066220
 40
3.930299
 40
4.852905
 40
5.822515
 40
6.884906
 40
8.423479
 40
8.423479
 40
8.423479
 40
8.423479
 10
29.754799
 20
5.937668
 30
0.0
 10
29.558893
 20
5.788803
 30
0.0
 10
29.171882
 20
5.494721
 30
0.0
 10
28.510361
 20
5.206189
 30
0.0
 10
27.737175
 20
5.071500
 30
0.0
 10
26.893162
 20
5.263386
 30
0.0
 10
26.217536
 20
5.934624
 30
0.0
 10
25.995758
 20
6.864434
 30
0.0
 10
26.254863
 20
7.882214
 30
0.0
 10
27.344137
 20
8.588752
 30
0.0
 10
28.227705
 20
8.518778
 30
0.0
 10
28.750370
 20
8.477385
 30
0.0
 11
29.754799
 21
5.937668
 31
0.0
 11
29.151126
 21
5.516216
 31
0.0
 11
28.492325
 21
5.230231
 31
0.0
 11
27.813391
 21
5.124868
 31
0.0
 11
26.916332
 21
5.349381
 31
0.0
 11
26.302624
 21
5.957653
 31
0.0
 11
26.075184
 21
6.851785
 31
0.0
 11
26.347299
 21
7.782429
 31
0.0
 11
27.213899
 21
8.396983
 31
0.0
 11
28.750370
 21
8.477385
 31
0.0
  0
LINE
  5
149
100
AcDbEntity
  8
0
 62
7
100
AcDbLine
 10
27.091184
 20
9.256319
 30
0.0
 11
26.233229
 21
10.035252
 31
0.0
  0
SPLINE
  5
14a
100
AcDbEntity
  8
0
 62
7
100
AcDbSpline
 70
0
 71
3
 72
13
 73
9
 74
7
 40
0.000000
 40
0.000000
 40
0.000000
 40
0.000000
 40
0.638349
 40
1.207234
 40
1.834708
 40
2.371492
 40
2.866217
 40
3.405247
 40
3.405247
 40
3.405247
 40
3.405247
 10
29.687066
 20
8.861208
 30
0.0
 10
29.657235
 20
9.081234
 30
0.0
 10
29.600819
 20
9.497345
 30
0.0
 10
29.056163
 20
9.880348
 30
0.0
 10
28.476163
 20
9.957511
 30
0.0
 10
27.919785
 20
9.894522
 30
0.0
 10
27.438428
 20
9.654490
 30
0.0
 10
27.210193
 20
9.392781
 30
0.0
 10
27.091184
 20
9.256319
 30
0.0
 11
29.687066
 21
8.861208
 31
0.0
 11
29.513144
 21
9.475407
 31
0.0
 11
29.063334
 21
9.823690
 31
0.0
 11
28.445570
 21
9.933652
 31
0.0
 11
27.913748
 21
9.860839
 31
0.0
 11
27.472300
 21
9.637507
 31
0.0
 11
27.091184
 21
9.256319
 31
0.0
  0
LINE
  5
14b
100
AcDbEntity
  8
0
 62
7
100
AcDbLine
 10
30.917272
 20
8.782185
 30
0.0
 11
30.917272
 21
8.782185
 31
0.0
  0
SPLINE
  5
14c
100
AcDbEntity
  8
0
 62
7
100
AcDbSpline
 70
0
 71
3
 72
13
 73
9
 74
7
 40
0.000000
 40
0.000000
 40
0.000000
 40
0.000000
 40
0.753951
 40
1.568193
 40
2.544771
 40
3.786630
 40
4.922652
 40
6.201877
 40
6.201877
 40
6.201877
 40
6.201877
 10
26.233229
 20
10.035252
 30
0.0
 10
26.408255
 20
10.218767
 30
0.0
 10
26.772302
 20
10.600473
 30
0.0
 10
27.577716
 20
10.932420
 30
0.0
 10
28.589035
 20
11.041546
 30
0.0
 10
29.718923
 20
10.869837
 30
0.0
 10
30.755699
 20
10.049274
 30
0.0
 10
30.861327
 20
9.220920
 30
0.0
 10
30.917272
 20
8.782185
 30
0.0
 11
26.233229
 21
10.035252
 31
0.0
 11
26.788883
 21
10.544851
 31
0.0
 11
27.532622
 21
10.876274
 31
0.0
 11
28.502015
 21
10.994525
 31
0.0
 11
29.719981
 21
10.752097
 31
0.0
 11
30.586989
 21
10.018037
 31
0.0
 11
30.917272
 21
8.782185
 31
0.0
  0
LINE
  5
14d
100
AcDbEntity
  8
0
 62
7
100
AcDbLine
 10
29.686783
 20
6.931090
 30
0.0
 11
29.686783
 21
7.439090
 31
0.0
  0
LINE
  5
14e
100
AcDbEntity
  8
0
 62
7
100
AcDbLine
 10
29.686783
 20
7.439090
 30
0.0
 11
28.941717
 21
7.551697
 31
0.0
  0
SPLINE
  5
14f
100
AcDbEntity
  8
0
 62
7
100
AcDbSpline
 70
0
 71
3
 72
10
 73
6
 74
4
 40
0.000000
 40
0.000000
 40
0.000000
 40
0.000000
 40
0.576650
 40
1.170033
 40
1.757262
 40
1.757262
 40
1.757262
 40
1.757262
 10
28.106620
 20
6.231461
 30
0.0
 10
28.298922
 20
6.254064
 30
0.0
 10
28.689105
 20
6.299927
 30
0.0
 10
29.218307
 20
6.574699
 30
0.0
 10
29.531168
 20
6.812707
 30
0.0
 10
29.686783
 20
6.931090
 30
0.0
 11
28.106620
 21
6.231461
 31
0.0
 11
28.674337
 21
6.332570
 31
0.0
 11
29.209378
 21
6.589152
 31
0.0
 11
29.686783
 21
6.931090
 31
0.0
  0
LINE
  5
150
100
AcDbEntity
  8
0
 62
7
100
AcDbLine
 10
28.106620
 20
6.231461
 30
0.0
 11
28.106620
 21
6.231461
 31
0.0
  0
SPLINE
  5
151
100
AcDbEntity
  8
0
 62
7
100
AcDbSpline
 70
0
 71
3
 72
13
 73
9
 74
7
 40
0.000000
 40
0.000000
 40
0.000000
 40
0.000000
 40
0.984635
 40
1.525754
 40
1.947320
 40
2.323723
 40
2.679483
 40
3.085233
 40
3.085233
 40
3.085233
 40
3.085233
 10
28.941717
 20
7.551697
 30
0.0
 10
28.616559
 20
7.595941
 30
0.0
 10
28.112706
 20
7.664500
 30
0.0
 10
27.442147
 20
7.404590
 30
0.0
 10
27.315459
 20
6.931994
 30
0.0
 10
27.408747
 20
6.544220
 30
0.0
 10
27.711177
 20
6.270825
 30
0.0
 10
27.969161
 20
6.245144
 30
0.0
 10
28.106620
 20
6.231461
 30
0.0
 11
28.941717
 21
7.551697
 31
0.0
 11
27.957273
 21
7.571065
 31
0.0
 11
27.476941
 21
7.321884
 31
0.0
 11
27.350264
 21
6.919801
 31
0.0
 11
27.446199
 21
6.555828
 31
0.0
 11
27.710025
 21
6.317163
 31
0.0
 11
28.106620
 21
6.231461
 31
0.0
  0
LINE
  5
152
100
AcDbEntity
  8
0
 62
7
100
AcDbLine
 10
33.615881
 20
5.870499
 30
0.0
 11
33.559437
 21
5.238603
 31
0.0
  0
LINE
  5
153
100
AcDbEntity
  8
0
 62
7
100
AcDbLine
 10
33.559437
 20
5.238603
 30
0.0
 11
32.442119
 21
5.238603
 31
0.0
  0
LINE
  5
154
100
AcDbEntity
  8
0
 62
7
100
AcDbLine
 10
32.442119
 20
5.238603
 30
0.0
 11
32.442119
 21
13.703859
 31
0.0
  0
LINE
  5
155
100
AcDbEntity
  8
0
 62
7
100
AcDbLine
 10
32.442119
 20
13.703859
 30
0.0
 11
33.672326
 21
13.703859
 31
0.0
  0
LINE
  5
156
100
AcDbEntity
  8
0
 62
7
100
AcDbLine
 10
33.672326
 20
13.703859
 30
0.0
 11
33.672326
 21
10.306468
 31
0.0
  0
SPLINE
  5
157
100
AcDbEntity
  8
0
 62
7
100
AcDbSpline
 70
0
 71
3
 72
13
 73
9
 74
7
 40
0.000000
 40
0.000000
 40
0.000000
 40
0.000000
 40
1.525847
 40
2.898678
 40
4.336304
 40
5.002633
 40
5.629546
 40
6.247395
 40
6.247395
 40
6.247395
 40
6.247395
 10
37.904812
 20
8.059979
 30
0.0
 10
37.851730
 20
7.545267
 30
0.0
 10
37.750888
 20
6.567461
 30
0.0
 10
36.765015
 20
5.379652
 30
0.0
 10
35.574731
 20
5.063134
 30
0.0
 10
34.666349
 20
5.182914
 30
0.0
 10
34.068520
 20
5.439857
 30
0.0
 10
33.766026
 20
5.727650
 30
0.0
 10
33.615881
 20
5.870499
 30
0.0
 11
37.904812
 21
8.059979
 31
0.0
 11
37.590898
 21
6.566772
 31
0.0
 11
36.702629
 21
5.520042
 31
0.0
 11
35.320221
 21
5.125432
 31
0.0
 11
34.660041
 21
5.215743
 31
0.0
 11
34.087725
 21
5.471625
 31
0.0
 11
33.615881
 21
5.870499
 31
0.0
  0
LINE
  5
158
100
AcDbEntity
  8
0
 62
7
100
AcDbLine
 10
37.904812
 20
8.059979
 30
0.0
 11
37.904812
 21
8.059979
 31
0.0
  0
SPLINE
  5
159
100
AcDbEntity
  8
0
 62
7
100
AcDbSpline
 70
0
 71
3
 72
13
 73
9
 74
7
 40
0.000000
 40
0.000000
 40
0.000000
 40
0.000000
 40
0.593585
 40
1.194508
 40
1.830398
 40
3.267957
 40
4.640885
 40
6.166755
 40
6.166755
 40
6.166755
 40
6.166755
 10
33.672326
 20
10.306468
 30
0.0
 10
33.821011
 20
10.438681
 30
0.0
 10
34.120220
 20
10.704742
 30
0.0
 10
34.695410
 20
10.941639
 30
0.0
 10
35.584973
 20
11.054775
 30
0.0
 10
36.764970
 20
10.740144
 30
0.0
 10
37.750798
 20
9.552587
 30
0.0
 10
37.851700
 20
8.574713
 30
0.0
 10
37.904812
 20
8.059979
 30
0.0
 11
33.672326
 21
10.306468
 31
0.0
 11
34.137187
 21
10.675583
 31
0.0
 11
34.689789
 21
10.911678
 31
0.0
 11
35.320221
 21
10.994808
 31
0.0
 11
36.702504
 21
10.600000
 31
0.0
 11
37.590835
 21
9.553196
 31
0.0
 11
37.904812
 21
8.059979
 31
0.0
  0
LINE
  5
15a
100
AcDbEntity
  8
0
 62
7
100
AcDbLine
 10
33.672043
 20
8.714734
 30
0.0
 11
33.672043
 21
7.405223
 31
0.0
  0
SPLINE
  5
15b
100
AcDbEntity
  8
0
 62
7
100
AcDbSpline
 70
0
 71
3
 72
13
 73
9
 74
7
 40
0.000000
 40
0.000000
 40
0.000000
 40
0.000000
 40
0.944626
 40
1.791446
 40
2.670366
 40
3.308835
 40
3.954880
 40
4.647184
 40
4.647184
 40
4.647184
 40
4.647184
 10
36.685612
 20
8.059979
 30
0.0
 10
36.653951
 20
8.378378
 30
0.0
 10
36.593907
 20
8.982209
 30
0.0
 10
36.002751
 20
9.723704
 30
0.0
 10
35.194921
 20
9.955880
 30
0.0
 10
34.472600
 20
9.781646
 30
0.0
 10
33.945500
 20
9.341487
 30
0.0
 10
33.765272
 20
8.928411
 30
0.0
 10
33.672043
 20
8.714734
 30
0.0
 11
36.685612
 21
8.059979
 31
0.0
 11
36.497056
 21
8.985595
 31
0.0
 11
35.959862
 21
9.640214
 31
0.0
 11
35.116739
 21
9.888497
 31
0.0
 11
34.496467
 21
9.737152
 31
0.0
 11
33.998993
 21
9.324972
 31
0.0
 11
33.672043
 21
8.714734
 31
0.0
  0
LINE
  5
15c
100
AcDbEntity
  8
0
 62
7
100
AcDbLine
 10
36.685612
 20
8.059979
 30
0.0
 11
36.685612
 21
8.059979
 31
0.0
  0
LINE
  5
15d
100
AcDbEntity
  8
0
 62
7
100
AcDbLine
 10
43.300901
 20
10.577119
 30
0.0
 11
42.702590
 21
9.685579
 31
0.0
  0
SPLINE
  5
15e
100
AcDbEntity
  8
0
 62
7
100
AcDbSpline
 70
0
 71
3
 72
13
 73
9
 74
7
 40
0.000000
 40
0.000000
 40
0.000000
 40
0.000000
 40
0.692305
 40
1.338349
 40
1.976818
 40
2.855876
 40
3.702705
 40
4.647196
 40
4.647196
 40
4.647196
 40
4.647196
 10
33.672043
 20
7.405223
 30
0.0
 10
33.765272
 20
7.191547
 30
0.0
 10
33.945500
 20
6.778471
 30
0.0
 10
34.472601
 20
6.338311
 30
0.0
 10
35.194964
 20
6.164071
 30
0.0
 10
36.002863
 20
6.396276
 30
0.0
 10
36.593930
 20
7.137847
 30
0.0
 10
36.653960
 20
7.741629
 30
0.0
 10
36.685612
 20
8.059979
 30
0.0
 11
33.672043
 21
7.405223
 31
0.0
 11
33.998993
 21
6.794986
 31
0.0
 11
34.496467
 21
6.382805
 31
0.0
 11
35.116739
 21
6.231461
 31
0.0
 11
35.959988
 21
6.479806
 31
0.0
 11
36.497119
 21
7.134489
 31
0.0
 11
36.685612
 21
8.059979
 31
0.0
  0
LINE
  5
15f
100
AcDbEntity
  8
0
 62
7
100
AcDbLine
 10
40.377643
 20
8.263179
 30
0.0
 11
40.377643
 21
5.238321
 31
0.0
  0
LINE
  5
160
100
AcDbEntity
  8
0
 62
7
100
AcDbLine
 10
40.377643
 20
5.238321
 30
0.0
 11
39.124859
 21
5.238321
 31
0.0
  0
LINE
  5
161
100
AcDbEntity
  8
0
 62
7
100
AcDbLine
 10
39.124859
 20
5.238321
 30
0.0
 11
39.124859
 21
10.881919
 31
0.0
  0
LINE
  5
162
100
AcDbEntity
  8
0
 62
7
100
AcDbLine
 10
39.124859
 20
10.881919
 30
0.0
 11
40.265037
 21
10.881919
 31
0.0
  0
LINE
  5
163
100
AcDbEntity
  8
0
 62
7
100
AcDbLine
 10
40.265037
 20
10.881919
 30
0.0
 11
40.332770
 21
10.091697
 31
0.0
  0
SPLINE
  5
164
100
AcDbEntity
  8
0
 62
7
100
AcDbSpline
 70
0
 71
3
 72
13
 73
9
 74
7
 40
0.000000
 40
0.000000
 40
0.000000
 40
0.000000
 40
0.185796
 40
0.474646
 40
0.868440
 40
1.624400
 40
2.412035
 40
3.291817
 40
3.291817
 40
3.291817
 40
3.291817
 10
42.702590
 20
9.685579
 30
0.0
 10
42.647832
 20
9.714777
 30
0.0
 10
42.507945
 20
9.789370
 30
0.0
 10
42.226648
 20
9.866909
 30
0.0
 10
41.747013
 20
9.919408
 30
0.0
 10
41.097262
 20
9.739989
 30
0.0
 10
40.495137
 20
9.123786
 30
0.0
 10
40.418225
 20
8.560426
 30
0.0
 10
40.377643
 20
8.263179
 30
0.0
 11
42.702590
 21
9.685579
 31
0.0
 11
42.536194
 21
9.768239
 31
0.0
 11
42.259480
 21
9.851086
 31
0.0
 11
41.867495
 21
9.888779
 31
0.0
 11
41.140062
 21
9.683070
 31
0.0
 11
40.593313
 21
9.116117
 31
0.0
 11
40.377643
 21
8.263179
 31
0.0
  0
LINE
  5
165
100
AcDbEntity
  8
0
 62
7
100
AcDbLine
 10
43.300901
 20
10.577119
 30
0.0
 11
43.300901
 21
10.577119
 31
0.0
  0
SPLINE
  5
166
100
AcDbEntity
  8
0
 62
7
100
AcDbSpline
 70
0
 71
3
 72
13
 73
9
 74
7
 40
0.000000
 40
0.000000
 40
0.000000
 40
0.000000
 40
0.659885
 40
1.287626
 40
1.899440
 40
2.493246
 40
2.944212
 40
3.360125
 40
3.360125
 40
3.360125
 40
3.360125
 10
40.332770
 20
10.091697
 30
0.0
 10
40.476988
 20
10.259010
 30
0.0
 10
40.758398
 20
10.585488
 30
0.0
 10
41.316853
 20
10.915187
 30
0.0
 10
41.929752
 20
11.019584
 30
0.0
 10
42.482156
 20
10.974739
 30
0.0
 10
42.959639
 20
10.840642
 30
0.0
 10
43.190256
 20
10.662560
 30
0.0
 10
43.300901
 20
10.577119
 30
0.0
 11
40.332770
 21
10.091697
 31
0.0
 11
40.790942
 21
10.566593
 31
0.0
 11
41.334345
 21
10.880874
 31
0.0
 11
41.935510
 21
10.994525
 31
0.0
 11
42.527570
 21
10.949025
 31
0.0
 11
42.956820
 21
10.810767
 31
0.0
 11
43.300901
 21
10.577119
 31
0.0
  0
LINE
  5
167
100
AcDbEntity
  8
0
 62
7
100
AcDbLine
 10
43.911066
 20
12.653710
 30
0.0
 11
43.911066
 21
12.653710
 31
0.0
  0
LINE
  5
168
100
AcDbEntity
  8
0
 62
7
100
AcDbLine
 10
44.046532
 20
10.881919
 30
0.0
 11
45.299317
 21
10.881919
 31
0.0
  0
LINE
  5
169
100
AcDbEntity
  8
0
 62
7
100
AcDbLine
 10
45.299317
 20
10.881919
 30
0.0
 11
45.299317
 21
5.238321
 31
0.0
  0
LINE
  5
16a
100
AcDbEntity
  8
0
 62
7
100
AcDbLine
 10
45.299317
 20
5.238321
 30
0.0
 11
44.046532
 21
5.238321
 31
0.0
  0
LINE
  5
16b
100
AcDbEntity
  8
0
 62
7
100
AcDbLine
 10
44.046532
 20
5.238321
 30
0.0
 11
44.046532
 21
10.881919
 31
0.0
  0
LINE
  5
16c
100
AcDbEntity
  8
0
 62
7
100
AcDbLine
 10
44.046532
 20
10.881919
 30
0.0
 11
44.046532
 21
10.881919
 31
0.0
  0
LINE
  5
16d
100
AcDbEntity
  8
0
 62
7
100
AcDbLine
 10
49.498783
 20
8.398645
 30
0.0
 11
52.106235
 21
6.107283
 31
0.0
  0
LINE
  5
16e
100
AcDbEntity
  8
0
 62
7
100
AcDbLine
 10
52.106235
 20
6.107283
 30
0.0
 11
52.106235
 21
4.595137
 31
0.0
  0
LINE
  5
16f
100
AcDbEntity
  8
0
 62
7
100
AcDbLine
 10
52.106235
 20
4.595137
 30
0.0
 11
48.325021
 21
7.947372
 31
0.0
  0
LINE
  5
170
100
AcDbEntity
  8
0
 62
7
100
AcDbLine
 10
48.325021
 20
7.947372
 30
0.0
 11
48.325021
 21
5.238321
 31
0.0
  0
LINE
  5
171
100
AcDbEntity
  8
0
 62
7
100
AcDbLine
 10
48.325021
 20
5.238321
 30
0.0
 11
47.072237
 21
5.238321
 31
0.0
  0
LINE
  5
172
100
AcDbEntity
  8
0
 62
7
100
AcDbLine
 10
47.072237
 20
5.238321
 30
0.0
 11
47.072237
 21
13.703577
 31
0.0
  0
LINE
  5
173
100
AcDbEntity
  8
0
 62
7
100
AcDbLine
 10
47.072237
 20
13.703577
 30
0.0
 11
48.325021
 21
13.703577
 31
0.0
  0
LINE
  5
174
100
AcDbEntity
  8
0
 62
7
100
AcDbLine
 10
48.325021
 20
13.703577
 30
0.0
 11
48.325021
 21
8.770897
 31
0.0
  0
LINE
  5
175
100
AcDbEntity
  8
0
 62
7
100
AcDbLine
 10
48.325021
 20
8.770897
 30
0.0
 11
50.570946
 21
10.881637
 31
0.0
  0
LINE
  5
176
100
AcDbEntity
  8
0
 62
7
100
AcDbLine
 10
50.570946
 20
10.881637
 30
0.0
 11
52.139819
 21
10.881637
 31
0.0
  0
LINE
  5
177
100
AcDbEntity
  8
0
 62
7
100
AcDbLine
 10
52.139819
 20
10.881637
 30
0.0
 11
49.498783
 21
8.398645
 31
0.0
  0
LINE
  5
178
100
AcDbEntity
  8
0
 62
7
100
AcDbLine
 10
49.498783
 20
8.398645
 30
0.0
 11
49.498783
 21
8.398645
 31
0.0
  0
SPLINE
  5
179
100
AcDbEntity
  8
0
 62
7
100
AcDbSpline
 70
0
 71
3
 72
19
 73
15
 74
13
 40
0.000000
 40
0.000000
 40
0.000000
 40
0.000000
 40
0.403888
 40
0.793554
 40
1.191943
 40
1.590140
 40
1.979754
 40
2.383639
 40
2.779744
 40
3.167347
 40
3.565452
 40
3.963782
 40
4.351393
 40
4.747441
 40
4.747441
 40
4.747441
 40
4.747441
 10
43.911066
 20
12.653710
 30
0.0
 10
43.932433
 20
12.789943
 30
0.0
 10
43.974415
 20
13.057613
 30
0.0
 10
44.281574
 20
13.349349
 30
0.0
 10
44.677929
 20
13.457761
 30
0.0
 10
45.078534
 20
13.349314
 30
0.0
 10
45.372861
 20
13.057612
 30
0.0
 10
45.483524
 20
12.656234
 30
0.0
 10
45.371660
 20
12.256122
 30
0.0
 10
45.077489
 20
11.969208
 30
0.0
 10
44.677911
 20
11.860909
 30
0.0
 10
44.282635
 20
11.969342
 30
0.0
 10
43.975839
 20
12.256112
 30
0.0
 10
43.932811
 20
12.520230
 30
0.0
 10
43.911066
 20
12.653710
 30
0.0
 11
43.911066
 21
12.653710
 31
0.0
 11
44.017265
 21
13.043386
 31
0.0
 11
44.294052
 21
13.317664
 31
0.0
 11
44.678710
 21
13.421354
 31
0.0
 11
45.063170
 21
13.317664
 31
0.0
 11
45.339884
 21
13.043386
 31
0.0
 11
45.446072
 21
12.653710
 31
0.0
 11
45.339884
 21
12.272104
 31
0.0
 11
45.063170
 21
12.000689
 31
0.0
 11
44.678710
 21
11.897354
 31
0.0
 11
44.294052
 21
12.000815
 31
0.0
 11
44.017265
 21
12.272166
 31
0.0
 11
43.911066
 21
12.653710
 31
0.0
  0
ENDSEC
  0
SECTION
  2
OBJECTS
  0
DICTIONARY
  5
C
330
0
100
AcDbDictionary
  3
ACAD_GROUP
350
D
  3
ACAD_MLINESTYLE
350
17
  0
DICTIONARY
  5
D
330
C
100
AcDbDictionary
  0
DICTIONARY
  5
1A
330
C
100
AcDbDictionary
  0
DICTIONARY
  5
17
330
C
100
AcDbDictionary
  3
STANDARD
350
18
  0
DICTIONARY
  5
19
330
C
100
AcDbDictionary
  0
ENDSEC
  0
EOF
