999
dxfrw 0.5.10
0
SECTION
2
HEADER
9
$ACADVER
1
AC1014
9
$HANDSEED
5
20000
9
$DWGCODEPAGE
3
ANSI_1252
9
$INSBASE
10
0
20
0
30
0
9
$EXTMIN
10
0
20
0.001554
30
0
9
$EXTMAX
10
42.403889
20
56.243148
30
0
9
$LIMMIN
10
0
20
0
9
$LIMMAX
10
420
20
297
9
$ORTHOMODE
70
0
9
$LTSCALE
40
1
9
$TEXTSTYLE
7
STANDARD
9
$CLAYER
8
0
9
$DIMASZ
40
2.5
9
$DIMLFAC
40
1
9
$DIMSCALE
40
1
9
$DIMEXO
40
0.625
9
$DIMEXE
40
1.25
9
$DIMTXT
40
2.5
9
$DIMTSZ
40
0
9
$DIMAUNIT
70
0
9
$DIMADEC
70
0
9
$DIMUNIT
70
2
9
$DIMSTYLE
2
Standard
9
$DIMGAP
40
0.625
9
$DIMTIH
70
0
9
$LUNITS
70
2
9
$LUPREC
70
4
9
$AUNITS
70
0
9
$AUPREC
70
2
9
$SPLINESEGS
70
8
9
$GRIDMODE
70
0
9
$SNAPSTYLE
70
0
9
$PINSBASE
10
0
20
0
30
0
9
$PLIMMIN
10
0
20
0
9
$PLIMMAX
10
210
20
297
9
$PSVPSCALE
40
1
0
ENDSEC
0
SECTION
2
CLASSES
0
ENDSEC
0
SECTION
2
TABLES
0
TABLE
2
VPORT
5
8
100
AcDbSymbolTable
70
1
0
VPORT
5
31
330
2
100
AcDbSymbolTableRecord
100
AcDbViewportTableRecord
2
*ACTIVE
70
0
10
0
20
0
11
1
21
1
12
210.362268519
22
148.792824074
13
0
23
0
14
10
24
10
15
10
25
10
16
0
26
0
36
1
17
0
27
0
37
0
40
341
41
1.39583333333
42
50
43
0
44
0
50
0
51
0
71
0
72
100
73
1
74
3
75
0
76
0
77
0
78
0
0
ENDTAB
0
TABLE
2
LTYPE
5
5
100
AcDbSymbolTable
70
4
0
LTYPE
5
14
100
AcDbSymbolTableRecord
100
AcDbLinetypeTableRecord
2
ByBlock
70
0
3

72
65
73
0
40
0
0
LTYPE
5
15
100
AcDbSymbolTableRecord
100
AcDbLinetypeTableRecord
2
ByLayer
70
0
3

72
65
73
0
40
0
0
LTYPE
5
16
100
AcDbSymbolTableRecord
100
AcDbLinetypeTableRecord
2
Continuous
70
0
3
Solid line
72
65
73
0
40
0
0
LTYPE
5
32
330
5
100
AcDbSymbolTableRecord
100
AcDbLinetypeTableRecord
2
DOT
70
0
3
Dot . . . . . . . . . . . . . . . . . . . . . .
72
65
73
2
40
6.35
49
0
74
0
49
-6.35
74
0
0
LTYPE
5
33
330
5
100
AcDbSymbolTableRecord
100
AcDbLinetypeTableRecord
2
DOT2
70
0
3
Dot (.5x) .....................................
72
65
73
2
40
3.175
49
0
74
0
49
-3.175
74
0
0
LTYPE
5
34
330
5
100
AcDbSymbolTableRecord
100
AcDbLinetypeTableRecord
2
DOTX2
70
0
3
Dot (2x) .  .  .  .  .  .  .  .  .  .  .  .  .
72
65
73
2
40
12.7
49
0
74
0
49
-12.7
74
0
0
LTYPE
5
35
330
5
100
AcDbSymbolTableRecord
100
AcDbLinetypeTableRecord
2
DASHED
70
0
3
Dot . . . . . . . . . . . . . . . . . . . . . .
72
65
73
2
40
19.05
49
12.7
74
0
49
-6.35
74
0
0
LTYPE
5
36
330
5
100
AcDbSymbolTableRecord
100
AcDbLinetypeTableRecord
2
DASHED2
70
0
3
Dashed (.5x) _ _ _ _ _ _ _ _ _ _ _ _ _ _ _ _ _
72
65
73
2
40
9.525
49
6.35
74
0
49
-3.175
74
0
0
LTYPE
5
37
330
5
100
AcDbSymbolTableRecord
100
AcDbLinetypeTableRecord
2
DASHEDX2
70
0
3
Dashed (2x) ____  ____  ____  ____  ____  ___
72
65
73
2
40
38.1
49
25.4
74
0
49
-12.7
74
0
0
LTYPE
5
38
330
5
100
AcDbSymbolTableRecord
100
AcDbLinetypeTableRecord
2
DASHDOT
70
0
3
Dash dot __ . __ . __ . __ . __ . __ . __ . __
72
65
73
4
40
25.4
49
12.7
74
0
49
-6.35
74
0
49
0
74
0
49
-6.35
74
0
0
LTYPE
5
39
330
5
100
AcDbSymbolTableRecord
100
AcDbLinetypeTableRecord
2
DASHDOT2
70
0
3
Dash dot (.5x) _._._._._._._._._._._._._._._.
72
65
73
4
40
12.7
49
6.35
74
0
49
-3.175
74
0
49
0
74
0
49
-3.175
74
0
0
LTYPE
5
3A
330
5
100
AcDbSymbolTableRecord
100
AcDbLinetypeTableRecord
2
DASHDOTX2
70
0
3
Dash dot (2x) ____  .  ____  .  ____  .  ___
72
65
73
4
40
50.8
49
25.4
74
0
49
-12.7
74
0
49
0
74
0
49
-12.7
74
0
0
LTYPE
5
3B
330
5
100
AcDbSymbolTableRecord
100
AcDbLinetypeTableRecord
2
DIVIDE
70
0
3
Divide ____ . . ____ . . ____ . . ____ . . ____
72
65
73
6
40
31.75
49
12.7
74
0
49
-6.35
74
0
49
0
74
0
49
-6.35
74
0
49
0
74
0
49
-6.35
74
0
0
LTYPE
5
3C
330
5
100
AcDbSymbolTableRecord
100
AcDbLinetypeTableRecord
2
DIVIDE2
70
0
3
Divide (.5x) __..__..__..__..__..__..__..__.._
72
65
73
6
40
15.875
49
6.35
74
0
49
-3.175
74
0
49
0
74
0
49
-3.175
74
0
49
0
74
0
49
-3.175
74
0
0
LTYPE
5
3D
330
5
100
AcDbSymbolTableRecord
100
AcDbLinetypeTableRecord
2
DIVIDEX2
70
0
3
Divide (2x) ________  .  .  ________  .  .  _
72
65
73
6
40
63.5
49
25.4
74
0
49
-12.7
74
0
49
0
74
0
49
-12.7
74
0
49
0
74
0
49
-12.7
74
0
0
LTYPE
5
3E
330
5
100
AcDbSymbolTableRecord
100
AcDbLinetypeTableRecord
2
BORDER
70
0
3
Border __ __ . __ __ . __ __ . __ __ . __ __ .
72
65
73
6
40
44.45
49
12.7
74
0
49
-6.35
74
0
49
12.7
74
0
49
-6.35
74
0
49
0
74
0
49
-6.35
74
0
0
LTYPE
5
3F
330
5
100
AcDbSymbolTableRecord
100
AcDbLinetypeTableRecord
2
BORDER2
70
0
3
Border (.5x) __.__.__.__.__.__.__.__.__.__.__.
72
65
73
6
40
22.225
49
6.35
74
0
49
-3.175
74
0
49
6.35
74
0
49
-3.175
74
0
49
0
74
0
49
-3.175
74
0
0
LTYPE
5
40
330
5
100
AcDbSymbolTableRecord
100
AcDbLinetypeTableRecord
2
BORDERX2
70
0
3
Border (2x) ____  ____  .  ____  ____  .  ___
72
65
73
6
40
88.9
49
25.4
74
0
49
-12.7
74
0
49
25.4
74
0
49
-12.7
74
0
49
0
74
0
49
-12.7
74
0
0
LTYPE
5
41
330
5
100
AcDbSymbolTableRecord
100
AcDbLinetypeTableRecord
2
CENTER
70
0
3
Center ____ _ ____ _ ____ _ ____ _ ____ _ ____
72
65
73
4
40
50.8
49
31.75
74
0
49
-6.35
74
0
49
6.35
74
0
49
-6.35
74
0
0
LTYPE
5
42
330
5
100
AcDbSymbolTableRecord
100
AcDbLinetypeTableRecord
2
CENTER2
70
0
3
Center (.5x) ___ _ ___ _ ___ _ ___ _ ___ _ ___
72
65
73
4
40
28.575
49
19.05
74
0
49
-3.175
74
0
49
3.175
74
0
49
-3.175
74
0
0
LTYPE
5
43
330
5
100
AcDbSymbolTableRecord
100
AcDbLinetypeTableRecord
2
CENTERX2
70
0
3
Center (2x) ________  __  ________  __  _____
72
65
73
4
40
101.6
49
63.5
74
0
49
-12.7
74
0
49
12.7
74
0
49
-12.7
74
0
0
ENDTAB
0
TABLE
2
LAYER
5
2
100
AcDbSymbolTable
70
1
0
LAYER
5
10
330
2
100
AcDbSymbolTableRecord
100
AcDbLayerTableRecord
2
0
70
0
62
7
6
CONTINUOUS
370
-3
390
F
0
LAYER
5
44
330
2
100
AcDbSymbolTableRecord
100
AcDbLayerTableRecord
2
Ebene_1
70
0
62
7
6
CONTINUOUS
370
-3
390
F
0
ENDTAB
0
TABLE
2
STYLE
5
3
100
AcDbSymbolTable
70
3
0
STYLE
5
45
330
2
100
AcDbSymbolTableRecord
100
AcDbTextStyleTableRecord
2
Standard
70
0
40
0
41
1
50
0
71
0
42
1
3
txt
4

0
ENDTAB
0
TABLE
2
VIEW
5
6
100
AcDbSymbolTable
70
0
0
ENDTAB
0
TABLE
2
UCS
5
7
100
AcDbSymbolTable
70
0
0
ENDTAB
0
TABLE
2
APPID
5
9
100
AcDbSymbolTable
70
1
0
APPID
5
12
100
AcDbSymbolTableRecord
100
AcDbRegAppTableRecord
2
ACAD
70
0
0
ENDTAB
0
TABLE
2
DIMSTYLE
5
A
100
AcDbSymbolTable
70
1
0
DIMSTYLE
105
46
330
A
100
AcDbSymbolTableRecord
100
AcDbDimStyleTableRecord
2
Standard
70
0
40
1
41
2.5
42
0.625
43
0.38
44
1.25
45
0
46
0
47
0
48
0
140
2.5
141
0.09
142
0
143
25.4
144
1
145
0
146
1
147
0.625
71
0
72
0
73
0
74
1
75
0
76
0
77
0
78
0
170
0
171
2
172
0
173
0
174
0
175
0
176
0
177
0
178
0
270
2
271
4
272
4
273
2
274
2
275
0
280
0
281
0
282
0
283
1
284
0
285
0
286
0
287
3
288
0
340
Standard
0
ENDTAB
0
TABLE
2
BLOCK_RECORD
5
1
100
AcDbSymbolTable
70
2
0
BLOCK_RECORD
5
1F
100
AcDbSymbolTableRecord
100
AcDbBlockTableRecord
2
*Model_Space
0
BLOCK_RECORD
5
1E
100
AcDbSymbolTableRecord
100
AcDbBlockTableRecord
2
*Paper_Space
0
ENDTAB
0
ENDSEC
0
SECTION
2
BLOCKS
0
BLOCK
5
20
100
AcDbEntity
8
0
100
AcDbBlockBegin
2
*Model_Space
70
0
10
0
20
0
30
0
3
*Model_Space
1

0
ENDBLK
5
21
100
AcDbEntity
8
0
100
AcDbBlockEnd
0
BLOCK
5
1C
100
AcDbEntity
8
0
100
AcDbBlockBegin
2
*Paper_Space
70
0
10
0
20
0
30
0
3
*Paper_Space
1

0
ENDBLK
5
1D
100
AcDbEntity
8
0
100
AcDbBlockEnd
0
ENDSEC
0
SECTION
2
ENTITIES
0
SPLINE
5
47
100
AcDbEntity
8
Ebene_1
6
ByLayer
62
7
100
AcDbSpline
210
0
220
0
230
1
70
8
71
3
72
8
73
4
74
0
42
1e-07
43
1e-07
40
0
40
0
40
0
40
0
40
1
40
1
40
1
40
1
10
2.875139
20
56.243148
30
0
10
1.283772
20
56.243148
30
0
10
0
20
54.959178
30
0
10
0
20
53.368037
30
0
0
LINE
5
48
100
AcDbEntity
8
Ebene_1
6
ByLayer
62
7
100
AcDbLine
10
0
20
53.368037
11
0
21
24.766565
0
LINE
5
49
100
AcDbEntity
8
Ebene_1
6
ByLayer
62
7
100
AcDbLine
10
0
20
24.766565
11
0
21
2.876692
0
SPLINE
5
4A
100
AcDbEntity
8
Ebene_1
6
ByLayer
62
7
100
AcDbSpline
210
0
220
0
230
1
70
8
71
3
72
8
73
4
74
0
42
1e-07
43
1e-07
40
0
40
0
40
0
40
0
40
1
40
1
40
1
40
1
10
0
20
2.876692
30
0
10
-2.8e-05
20
1.285524
30
0
10
1.284676
20
-0.052069
30
0
10
2.875139
20
0.001554
30
0
0
LINE
5
4B
100
AcDbEntity
8
Ebene_1
6
ByLayer
62
7
100
AcDbLine
10
2.875139
20
0.001554
11
4.974167
21
0.001554
0
LINE
5
4C
100
AcDbEntity
8
Ebene_1
6
ByLayer
62
7
100
AcDbLine
10
4.974167
20
0.001554
11
7.134916
21
0.001554
0
SPLINE
5
4D
100
AcDbEntity
8
Ebene_1
6
ByLayer
62
7
100
AcDbSpline
210
0
220
0
230
1
70
8
71
3
72
8
73
4
74
0
42
1e-07
43
1e-07
40
0
40
0
40
0
40
0
40
1
40
1
40
1
40
1
10
7.134916
20
0.001554
30
0
10
8.726226
20
0.001554
30
0
10
10.010112
20
1.285524
30
0
10
10.010055
20
2.876692
30
0
0
LINE
5
4E
100
AcDbEntity
8
Ebene_1
6
ByLayer
62
7
100
AcDbLine
10
10.010055
20
2.876692
11
10.010055
21
6.695526
0
LINE
5
4F
100
AcDbEntity
8
Ebene_1
6
ByLayer
62
7
100
AcDbLine
10
10.010055
20
6.695526
11
37.412083
21
6.695526
0
LINE
5
50
100
AcDbEntity
8
Ebene_1
6
ByLayer
62
7
100
AcDbLine
10
37.412083
20
6.695526
11
38.399861
21
6.695526
0
SPLINE
5
51
100
AcDbEntity
8
Ebene_1
6
ByLayer
62
7
100
AcDbSpline
210
0
220
0
230
1
70
8
71
3
72
8
73
4
74
0
42
1e-07
43
1e-07
40
0
40
0
40
0
40
0
40
1
40
1
40
1
40
1
10
38.399861
20
6.695526
30
0
10
40.643217
20
6.695526
30
0
10
42.403889
20
8.464777
30
0
10
42.403889
20
10.505526
30
0
0
LINE
5
52
100
AcDbEntity
8
Ebene_1
6
ByLayer
62
7
100
AcDbLine
10
42.403889
20
10.505526
11
42.403889
21
24.766565
0
LINE
5
53
100
AcDbEntity
8
Ebene_1
6
ByLayer
62
7
100
AcDbLine
10
42.403889
20
24.766565
11
42.403889
21
53.368037
0
SPLINE
5
54
100
AcDbEntity
8
Ebene_1
6
ByLayer
62
7
100
AcDbSpline
210
0
220
0
230
1
70
8
71
3
72
8
73
4
74
0
42
1e-07
43
1e-07
40
0
40
0
40
0
40
0
40
1
40
1
40
1
40
1
10
42.403889
20
53.368037
30
0
10
42.403889
20
54.959178
30
0
10
41.120145
20
56.243176
30
0
10
39.52875
20
56.243148
30
0
0
LINE
5
55
100
AcDbEntity
8
Ebene_1
6
ByLayer
62
7
100
AcDbLine
10
39.52875
20
56.243148
11
2.875139
21
56.243148
0
LINE
5
56
100
AcDbEntity
8
Ebene_1
6
ByLayer
62
7
100
AcDbLine
10
2.875139
20
56.243148
11
2.875139
21
56.243148
0
SPLINE
5
57
100
AcDbEntity
8
Ebene_1
6
ByLayer
62
7
100
AcDbSpline
210
0
220
0
230
1
70
8
71
3
72
8
73
4
74
0
42
1e-07
43
1e-07
40
0
40
0
40
0
40
0
40
1
40
1
40
1
40
1
10
5.229916
20
53.976565
30
0
10
5.336145
20
53.980234
30
0
10
5.447369
20
53.976565
30
0
10
5.55625
20
53.959067
30
0
0
SPLINE
5
58
100
AcDbEntity
8
Ebene_1
6
ByLayer
62
7
100
AcDbSpline
210
0
220
0
230
1
70
8
71
3
72
8
73
4
74
0
42
1e-07
43
1e-07
40
0
40
0
40
0
40
0
40
1
40
1
40
1
40
1
10
5.55625
20
53.959067
30
0
10
6.427301
20
53.811183
30
0
10
7.009356
20
52.986755
30
0
10
6.861528
20
52.115789
30
0
0
SPLINE
5
59
100
AcDbEntity
8
Ebene_1
6
ByLayer
62
7
100
AcDbSpline
210
0
220
0
230
1
70
8
71
3
72
8
73
4
74
0
42
1e-07
43
1e-07
40
0
40
0
40
0
40
0
40
1
40
1
40
1
40
1
10
6.861528
20
52.115789
30
0
10
6.7137
20
51.244569
30
0
10
5.889329
20
50.653822
30
0
10
5.01825
20
50.801706
30
0
0
SPLINE
5
5A
100
AcDbEntity
8
Ebene_1
6
ByLayer
62
7
100
AcDbSpline
210
0
220
0
230
1
70
8
71
3
72
8
73
4
74
0
42
1e-07
43
1e-07
40
0
40
0
40
0
40
0
40
1
40
1
40
1
40
1
10
5.01825
20
50.801706
30
0
10
4.147227
20
50.94959
30
0
10
3.565144
20
51.773764
30
0
10
3.712972
20
52.644956
30
0
0
SPLINE
5
5B
100
AcDbEntity
8
Ebene_1
6
ByLayer
62
7
100
AcDbSpline
210
0
220
0
230
1
70
8
71
3
72
8
73
4
74
0
42
1e-07
43
1e-07
40
0
40
0
40
0
40
0
40
1
40
1
40
1
40
1
10
3.712972
20
52.644956
30
0
10
3.842314
20
53.40704
30
0
10
4.486261
20
53.951475
30
0
10
5.229916
20
53.976706
30
0
0
LINE
5
5C
100
AcDbEntity
8
Ebene_1
6
ByLayer
62
7
100
AcDbLine
10
5.229916
20
53.976706
11
5.229916
21
53.976565
0
SPLINE
5
5D
100
AcDbEntity
8
Ebene_1
6
ByLayer
62
7
100
AcDbSpline
210
0
220
0
230
1
70
8
71
3
72
8
73
4
74
0
42
1e-07
43
1e-07
40
0
40
0
40
0
40
0
40
1
40
1
40
1
40
1
10
36.697694
20
53.976565
30
0
10
36.803923
20
53.980234
30
0
10
36.915146
20
53.976565
30
0
10
37.024028
20
53.959067
30
0
0
SPLINE
5
5E
100
AcDbEntity
8
Ebene_1
6
ByLayer
62
7
100
AcDbSpline
210
0
220
0
230
1
70
8
71
3
72
8
73
4
74
0
42
1e-07
43
1e-07
40
0
40
0
40
0
40
0
40
1
40
1
40
1
40
1
10
37.024028
20
53.959067
30
0
10
37.895078
20
53.811183
30
0
10
38.477134
20
52.986755
30
0
10
38.329306
20
52.115789
30
0
0
SPLINE
5
5F
100
AcDbEntity
8
Ebene_1
6
ByLayer
62
7
100
AcDbSpline
210
0
220
0
230
1
70
8
71
3
72
8
73
4
74
0
42
1e-07
43
1e-07
40
0
40
0
40
0
40
0
40
1
40
1
40
1
40
1
10
38.329306
20
52.115789
30
0
10
38.181478
20
51.244569
30
0
10
37.357106
20
50.653822
30
0
10
36.486028
20
50.801706
30
0
0
SPLINE
5
60
100
AcDbEntity
8
Ebene_1
6
ByLayer
62
7
100
AcDbSpline
210
0
220
0
230
1
70
8
71
3
72
8
73
4
74
0
42
1e-07
43
1e-07
40
0
40
0
40
0
40
0
40
1
40
1
40
1
40
1
10
36.486028
20
50.801706
30
0
10
35.615005
20
50.94959
30
0
10
35.032922
20
51.773764
30
0
10
35.18075
20
52.644956
30
0
0
SPLINE
5
61
100
AcDbEntity
8
Ebene_1
6
ByLayer
62
7
100
AcDbSpline
210
0
220
0
230
1
70
8
71
3
72
8
73
4
74
0
42
1e-07
43
1e-07
40
0
40
0
40
0
40
0
40
1
40
1
40
1
40
1
10
35.18075
20
52.644956
30
0
10
35.310092
20
53.40704
30
0
10
35.954039
20
53.951475
30
0
10
36.697694
20
53.976706
30
0
0
LINE
5
62
100
AcDbEntity
8
Ebene_1
6
ByLayer
62
7
100
AcDbLine
10
36.697694
20
53.976706
11
36.697694
21
53.976565
0
SPLINE
5
63
100
AcDbEntity
8
Ebene_1
6
ByLayer
62
7
100
AcDbSpline
210
0
220
0
230
1
70
8
71
3
72
8
73
4
74
0
42
1e-07
43
1e-07
40
0
40
0
40
0
40
0
40
1
40
1
40
1
40
1
10
5.55625
20
45.351148
30
0
10
6.550378
20
45.351148
30
0
10
7.355417
20
44.537163
30
0
10
7.355417
20
43.543148
30
0
0
SPLINE
5
64
100
AcDbEntity
8
Ebene_1
6
ByLayer
62
7
100
AcDbSpline
210
0
220
0
230
1
70
8
71
3
72
8
73
4
74
0
42
1e-07
43
1e-07
40
0
40
0
40
0
40
0
40
1
40
1
40
1
40
1
10
7.355417
20
43.543148
30
0
10
7.355417
20
42.548879
30
0
10
6.550378
20
41.743981
30
0
10
5.55625
20
41.743981
30
0
0
SPLINE
5
65
100
AcDbEntity
8
Ebene_1
6
ByLayer
62
7
100
AcDbSpline
210
0
220
0
230
1
70
8
71
3
72
8
73
4
74
0
42
1e-07
43
1e-07
40
0
40
0
40
0
40
0
40
1
40
1
40
1
40
1
10
5.55625
20
41.743981
30
0
10
4.56215
20
41.743981
30
0
10
3.757083
20
42.548936
30
0
10
3.757083
20
43.543148
30
0
0
SPLINE
5
66
100
AcDbEntity
8
Ebene_1
6
ByLayer
62
7
100
AcDbSpline
210
0
220
0
230
1
70
8
71
3
72
8
73
4
74
0
42
1e-07
43
1e-07
40
0
40
0
40
0
40
0
40
1
40
1
40
1
40
1
10
3.757083
20
43.543148
30
0
10
3.757083
20
44.537135
30
0
10
4.56215
20
45.351148
30
0
10
5.55625
20
45.351148
30
0
0
LINE
5
67
100
AcDbEntity
8
Ebene_1
6
ByLayer
62
7
100
AcDbLine
10
5.55625
20
45.351148
11
5.55625
21
45.351148
0
SPLINE
5
68
100
AcDbEntity
8
Ebene_1
6
ByLayer
62
7
100
AcDbSpline
210
0
220
0
230
1
70
8
71
3
72
8
73
4
74
0
42
1e-07
43
1e-07
40
0
40
0
40
0
40
0
40
1
40
1
40
1
40
1
10
36.838805
20
45.33365
30
0
10
37.025213
20
45.33365
30
0
10
37.198893
20
45.306839
30
0
10
37.367972
20
45.25429
30
0
0
LINE
5
69
100
AcDbEntity
8
Ebene_1
6
ByLayer
62
7
100
AcDbLine
10
37.367972
20
45.25429
11
37.376721
21
45.25429
0
SPLINE
5
6A
100
AcDbEntity
8
Ebene_1
6
ByLayer
62
7
100
AcDbSpline
210
0
220
0
230
1
70
8
71
3
72
8
73
4
74
0
42
1e-07
43
1e-07
40
0
40
0
40
0
40
0
40
1
40
1
40
1
40
1
10
37.376721
20
45.25429
30
0
10
37.430371
20
45.237356
30
0
10
37.484135
20
45.215117
30
0
10
37.535471
20
45.192539
30
0
0
LINE
5
6B
100
AcDbEntity
8
Ebene_1
6
ByLayer
62
7
100
AcDbLine
10
37.535471
20
45.192539
11
37.54422
21
45.192539
0
SPLINE
5
6C
100
AcDbEntity
8
Ebene_1
6
ByLayer
62
7
100
AcDbSpline
210
0
220
0
230
1
70
8
71
3
72
8
73
4
74
0
42
1e-07
43
1e-07
40
0
40
0
40
0
40
0
40
1
40
1
40
1
40
1
10
37.54422
20
45.192539
30
0
10
37.757664
20
45.102228
30
0
10
37.946697
20
44.96535
30
0
10
38.108664
20
44.804484
30
0
0
SPLINE
5
6D
100
AcDbEntity
8
Ebene_1
6
ByLayer
62
7
100
AcDbSpline
210
0
220
0
230
1
70
8
71
3
72
8
73
4
74
0
42
1e-07
43
1e-07
40
0
40
0
40
0
40
0
40
1
40
1
40
1
40
1
10
38.108664
20
44.804484
30
0
10
38.111486
20
44.801662
30
0
10
38.114591
20
44.807306
30
0
10
38.117413
20
44.804484
30
0
0
SPLINE
5
6E
100
AcDbEntity
8
Ebene_1
6
ByLayer
62
7
100
AcDbSpline
210
0
220
0
230
1
70
8
71
3
72
8
73
4
74
0
42
1e-07
43
1e-07
40
0
40
0
40
0
40
0
40
1
40
1
40
1
40
1
10
38.117413
20
44.804484
30
0
10
38.280284
20
44.641642
30
0
10
38.405562
20
44.455375
30
0
10
38.496663
20
44.240039
30
0
0
SPLINE
5
6F
100
AcDbEntity
8
Ebene_1
6
ByLayer
62
7
100
AcDbSpline
210
0
220
0
230
1
70
8
71
3
72
8
73
4
74
0
42
1e-07
43
1e-07
40
0
40
0
40
0
40
0
40
1
40
1
40
1
40
1
10
38.496663
20
44.240039
30
0
10
38.589656
20
44.022728
30
0
10
38.637774
20
43.785662
30
0
10
38.637774
20
43.534484
30
0
0
SPLINE
5
70
100
AcDbEntity
8
Ebene_1
6
ByLayer
62
7
100
AcDbSpline
210
0
220
0
230
1
70
8
71
3
72
8
73
4
74
0
42
1e-07
43
1e-07
40
0
40
0
40
0
40
0
40
1
40
1
40
1
40
1
10
38.637774
20
43.534484
30
0
10
38.637774
20
43.285846
30
0
10
38.587736
20
43.053097
30
0
10
38.496663
20
42.837734
30
0
0
SPLINE
5
71
100
AcDbEntity
8
Ebene_1
6
ByLayer
62
7
100
AcDbSpline
210
0
220
0
230
1
70
8
71
3
72
8
73
4
74
0
42
1e-07
43
1e-07
40
0
40
0
40
0
40
0
40
1
40
1
40
1
40
1
10
38.496663
20
42.837734
30
0
10
38.405562
20
42.622398
30
0
10
38.280284
20
42.427326
30
0
10
38.117413
20
42.264484
30
0
0
SPLINE
5
72
100
AcDbEntity
8
Ebene_1
6
ByLayer
62
7
100
AcDbSpline
210
0
220
0
230
1
70
8
71
3
72
8
73
4
74
0
42
1e-07
43
1e-07
40
0
40
0
40
0
40
0
40
1
40
1
40
1
40
1
10
38.117413
20
42.264484
30
0
10
38.114591
20
42.261662
30
0
10
38.111486
20
42.267306
30
0
10
38.108664
20
42.264484
30
0
0
SPLINE
5
73
100
AcDbEntity
8
Ebene_1
6
ByLayer
62
7
100
AcDbSpline
210
0
220
0
230
1
70
8
71
3
72
8
73
4
74
0
42
1e-07
43
1e-07
40
0
40
0
40
0
40
0
40
1
40
1
40
1
40
1
10
38.108664
20
42.264484
30
0
10
38.073556
20
42.229488
30
0
10
38.031928
20
42.190824
30
0
10
37.994026
20
42.15865
30
0
0
SPLINE
5
74
100
AcDbEntity
8
Ebene_1
6
ByLayer
62
7
100
AcDbSpline
210
0
220
0
230
1
70
8
71
3
72
8
73
4
74
0
42
1e-07
43
1e-07
40
0
40
0
40
0
40
0
40
1
40
1
40
1
40
1
10
37.994026
20
42.15865
30
0
10
37.990921
20
42.155828
30
0
10
37.988381
20
42.152724
30
0
10
37.985277
20
42.149902
30
0
0
SPLINE
5
75
100
AcDbEntity
8
Ebene_1
6
ByLayer
62
7
100
AcDbSpline
210
0
220
0
230
1
70
8
71
3
72
8
73
4
74
0
42
1e-07
43
1e-07
40
0
40
0
40
0
40
0
40
1
40
1
40
1
40
1
10
37.985277
20
42.149902
30
0
10
37.982454
20
42.147079
30
0
10
37.979632
20
42.143975
30
0
10
37.976528
20
42.141153
30
0
0
SPLINE
5
76
100
AcDbEntity
8
Ebene_1
6
ByLayer
62
7
100
AcDbSpline
210
0
220
0
230
1
70
8
71
3
72
8
73
4
74
0
42
1e-07
43
1e-07
40
0
40
0
40
0
40
0
40
1
40
1
40
1
40
1
10
37.976528
20
42.141153
30
0
10
37.888277
20
42.069186
30
0
10
37.795285
20
42.010145
30
0
10
37.694306
20
41.95593
30
0
0
SPLINE
5
77
100
AcDbEntity
8
Ebene_1
6
ByLayer
62
7
100
AcDbSpline
210
0
220
0
230
1
70
8
71
3
72
8
73
4
74
0
42
1e-07
43
1e-07
40
0
40
0
40
0
40
0
40
1
40
1
40
1
40
1
10
37.694306
20
41.95593
30
0
10
37.645566
20
41.929401
30
0
10
37.595697
20
41.899147
30
0
10
37.544361
20
41.876569
30
0
0
LINE
5
78
100
AcDbEntity
8
Ebene_1
6
ByLayer
62
7
100
AcDbLine
10
37.544361
20
41.876569
11
37.535612
21
41.876569
0
SPLINE
5
79
100
AcDbEntity
8
Ebene_1
6
ByLayer
62
7
100
AcDbSpline
210
0
220
0
230
1
70
8
71
3
72
8
73
4
74
0
42
1e-07
43
1e-07
40
0
40
0
40
0
40
0
40
1
40
1
40
1
40
1
10
37.535612
20
41.876569
30
0
10
37.484276
20
41.854838
30
0
10
37.430512
20
41.831781
30
0
10
37.376862
20
41.814819
30
0
0
LINE
5
7A
100
AcDbEntity
8
Ebene_1
6
ByLayer
62
7
100
AcDbLine
10
37.376862
20
41.814819
11
37.368113
21
41.814819
0
SPLINE
5
7B
100
AcDbEntity
8
Ebene_1
6
ByLayer
62
7
100
AcDbSpline
210
0
220
0
230
1
70
8
71
3
72
8
73
4
74
0
42
1e-07
43
1e-07
40
0
40
0
40
0
40
0
40
1
40
1
40
1
40
1
10
37.368113
20
41.814819
30
0
10
37.199034
20
41.763455
30
0
10
37.025354
20
41.735458
30
0
10
36.838946
20
41.735458
30
0
0
SPLINE
5
7C
100
AcDbEntity
8
Ebene_1
6
ByLayer
62
7
100
AcDbSpline
210
0
220
0
230
1
70
8
71
3
72
8
73
4
74
0
42
1e-07
43
1e-07
40
0
40
0
40
0
40
0
40
1
40
1
40
1
40
1
10
36.838946
20
41.735458
30
0
10
36.655474
20
41.735458
30
0
10
36.476545
20
41.763765
30
0
10
36.30978
20
41.814819
30
0
0
LINE
5
7D
100
AcDbEntity
8
Ebene_1
6
ByLayer
62
7
100
AcDbLine
10
36.30978
20
41.814819
11
36.301031
21
41.814819
0
SPLINE
5
7E
100
AcDbEntity
8
Ebene_1
6
ByLayer
62
7
100
AcDbSpline
210
0
220
0
230
1
70
8
71
3
72
8
73
4
74
0
42
1e-07
43
1e-07
40
0
40
0
40
0
40
0
40
1
40
1
40
1
40
1
10
36.301031
20
41.814819
30
0
10
36.247296
20
41.83147
30
0
10
36.193758
20
41.853992
30
0
10
36.142281
20
41.876569
30
0
0
LINE
5
7F
100
AcDbEntity
8
Ebene_1
6
ByLayer
62
7
100
AcDbLine
10
36.142281
20
41.876569
11
36.133532
21
41.876569
0
SPLINE
5
80
100
AcDbEntity
8
Ebene_1
6
ByLayer
62
7
100
AcDbSpline
210
0
220
0
230
1
70
8
71
3
72
8
73
4
74
0
42
1e-07
43
1e-07
40
0
40
0
40
0
40
0
40
1
40
1
40
1
40
1
10
36.133532
20
41.876569
30
0
10
36.082083
20
41.8983
30
0
10
36.032468
20
41.93053
30
0
10
35.983616
20
41.95593
30
0
0
LINE
5
81
100
AcDbEntity
8
Ebene_1
6
ByLayer
62
7
100
AcDbLine
10
35.983616
20
41.95593
11
35.974867
21
41.95593
0
SPLINE
5
82
100
AcDbEntity
8
Ebene_1
6
ByLayer
62
7
100
AcDbSpline
210
0
220
0
230
1
70
8
71
3
72
8
73
4
74
0
42
1e-07
43
1e-07
40
0
40
0
40
0
40
0
40
1
40
1
40
1
40
1
10
35.974867
20
41.95593
30
0
10
35.923841
20
41.983588
30
0
10
35.88162
20
42.011951
30
0
10
35.833756
20
42.044153
30
0
0
SPLINE
5
83
100
AcDbEntity
8
Ebene_1
6
ByLayer
62
7
100
AcDbSpline
210
0
220
0
230
1
70
8
71
3
72
8
73
4
74
0
42
1e-07
43
1e-07
40
0
40
0
40
0
40
0
40
1
40
1
40
1
40
1
10
35.833756
20
42.044153
30
0
10
35.739691
20
42.107653
30
0
10
35.649408
20
42.185038
30
0
10
35.569172
20
42.264625
30
0
0
SPLINE
5
84
100
AcDbEntity
8
Ebene_1
6
ByLayer
62
7
100
AcDbSpline
210
0
220
0
230
1
70
8
71
3
72
8
73
4
74
0
42
1e-07
43
1e-07
40
0
40
0
40
0
40
0
40
1
40
1
40
1
40
1
10
35.569172
20
42.264625
30
0
10
35.404298
20
42.428596
30
0
10
35.273008
20
42.620592
30
0
10
35.181117
20
42.837875
30
0
0
SPLINE
5
85
100
AcDbEntity
8
Ebene_1
6
ByLayer
62
7
100
AcDbSpline
210
0
220
0
230
1
70
8
71
3
72
8
73
4
74
0
42
1e-07
43
1e-07
40
0
40
0
40
0
40
0
40
1
40
1
40
1
40
1
10
35.181117
20
42.837875
30
0
10
35.090015
20
43.05321
30
0
10
35.040006
20
43.286269
30
0
10
35.040006
20
43.534625
30
0
0
SPLINE
5
86
100
AcDbEntity
8
Ebene_1
6
ByLayer
62
7
100
AcDbSpline
210
0
220
0
230
1
70
8
71
3
72
8
73
4
74
0
42
1e-07
43
1e-07
40
0
40
0
40
0
40
0
40
1
40
1
40
1
40
1
10
35.040006
20
43.534625
30
0
10
35.040006
20
43.786085
30
0
10
35.088012
20
44.022869
30
0
10
35.181117
20
44.24018
30
0
0
SPLINE
5
87
100
AcDbEntity
8
Ebene_1
6
ByLayer
62
7
100
AcDbSpline
210
0
220
0
230
1
70
8
71
3
72
8
73
4
74
0
42
1e-07
43
1e-07
40
0
40
0
40
0
40
0
40
1
40
1
40
1
40
1
10
35.181117
20
44.24018
30
0
10
35.188172
20
44.256267
30
0
10
35.200308
20
44.267274
30
0
10
35.207646
20
44.284264
30
0
0
SPLINE
5
88
100
AcDbEntity
8
Ebene_1
6
ByLayer
62
7
100
AcDbSpline
210
0
220
0
230
1
70
8
71
3
72
8
73
4
74
0
42
1e-07
43
1e-07
40
0
40
0
40
0
40
0
40
1
40
1
40
1
40
1
10
35.207646
20
44.284264
30
0
10
35.211597
20
44.29273
30
0
10
35.212443
20
44.302326
30
0
10
35.216394
20
44.310792
30
0
0
SPLINE
5
89
100
AcDbEntity
8
Ebene_1
6
ByLayer
62
7
100
AcDbSpline
210
0
220
0
230
1
70
8
71
3
72
8
73
4
74
0
42
1e-07
43
1e-07
40
0
40
0
40
0
40
0
40
1
40
1
40
1
40
1
10
35.216394
20
44.310792
30
0
10
35.305831
20
44.496212
30
0
10
35.42459
20
44.66103
30
0
10
35.569172
20
44.804681
30
0
0
SPLINE
5
8A
100
AcDbEntity
8
Ebene_1
6
ByLayer
62
7
100
AcDbSpline
210
0
220
0
230
1
70
8
71
3
72
8
73
4
74
0
42
1e-07
43
1e-07
40
0
40
0
40
0
40
0
40
1
40
1
40
1
40
1
10
35.569172
20
44.804681
30
0
10
35.604281
20
44.839677
30
0
10
35.645908
20
44.878341
30
0
10
35.683811
20
44.910515
30
0
0
SPLINE
5
8B
100
AcDbEntity
8
Ebene_1
6
ByLayer
62
7
100
AcDbSpline
210
0
220
0
230
1
70
8
71
3
72
8
73
4
74
0
42
1e-07
43
1e-07
40
0
40
0
40
0
40
0
40
1
40
1
40
1
40
1
10
35.683811
20
44.910515
30
0
10
35.686633
20
44.913337
30
0
10
35.689455
20
44.907692
30
0
10
35.69256
20
44.910515
30
0
0
SPLINE
5
8C
100
AcDbEntity
8
Ebene_1
6
ByLayer
62
7
100
AcDbSpline
210
0
220
0
230
1
70
8
71
3
72
8
73
4
74
0
42
1e-07
43
1e-07
40
0
40
0
40
0
40
0
40
1
40
1
40
1
40
1
10
35.69256
20
44.910515
30
0
10
35.695664
20
44.913337
30
0
10
35.698204
20
44.916441
30
0
10
35.701309
20
44.919264
30
0
0
SPLINE
5
8D
100
AcDbEntity
8
Ebene_1
6
ByLayer
62
7
100
AcDbSpline
210
0
220
0
230
1
70
8
71
3
72
8
73
4
74
0
42
1e-07
43
1e-07
40
0
40
0
40
0
40
0
40
1
40
1
40
1
40
1
10
35.701309
20
44.919264
30
0
10
35.745759
20
44.956009
30
0
10
35.785721
20
44.984118
30
0
10
35.833614
20
45.016292
30
0
0
SPLINE
5
8E
100
AcDbEntity
8
Ebene_1
6
ByLayer
62
7
100
AcDbSpline
210
0
220
0
230
1
70
8
71
3
72
8
73
4
74
0
42
1e-07
43
1e-07
40
0
40
0
40
0
40
0
40
1
40
1
40
1
40
1
10
35.833614
20
45.016292
30
0
10
35.884668
20
45.051005
30
0
10
35.928921
20
45.084194
30
0
10
35.983531
20
45.11332
30
0
0
SPLINE
5
8F
100
AcDbEntity
8
Ebene_1
6
ByLayer
62
7
100
AcDbSpline
210
0
220
0
230
1
70
8
71
3
72
8
73
4
74
0
42
1e-07
43
1e-07
40
0
40
0
40
0
40
0
40
1
40
1
40
1
40
1
10
35.983531
20
45.11332
30
0
10
36.008931
20
45.12602
30
0
10
36.036673
20
45.134486
30
0
10
36.06292
20
45.148597
30
0
0
SPLINE
5
90
100
AcDbEntity
8
Ebene_1
6
ByLayer
62
7
100
AcDbSpline
210
0
220
0
230
1
70
8
71
3
72
8
73
4
74
0
42
1e-07
43
1e-07
40
0
40
0
40
0
40
0
40
1
40
1
40
1
40
1
10
36.06292
20
45.148597
30
0
10
36.141406
20
45.185822
30
0
10
36.225621
20
45.220197
30
0
10
36.309864
20
45.245597
30
0
0
SPLINE
5
91
100
AcDbEntity
8
Ebene_1
6
ByLayer
62
7
100
AcDbSpline
210
0
220
0
230
1
70
8
71
3
72
8
73
4
74
0
42
1e-07
43
1e-07
40
0
40
0
40
0
40
0
40
1
40
1
40
1
40
1
10
36.309864
20
45.245597
30
0
10
36.366224
20
45.264224
30
0
10
36.41883
20
45.278363
30
0
10
36.47742
20
45.289708
30
0
0
SPLINE
5
92
100
AcDbEntity
8
Ebene_1
6
ByLayer
62
7
100
AcDbSpline
210
0
220
0
230
1
70
8
71
3
72
8
73
4
74
0
42
1e-07
43
1e-07
40
0
40
0
40
0
40
0
40
1
40
1
40
1
40
1
10
36.47742
20
45.289708
30
0
10
36.594598
20
45.313697
30
0
10
36.714769
20
45.324986
30
0
10
36.839031
20
45.324986
30
0
0
LINE
5
93
100
AcDbEntity
8
Ebene_1
6
ByLayer
62
7
100
AcDbLine
10
36.839031
20
45.324986
11
36.839031
21
45.333735
0
LINE
5
94
100
AcDbEntity
8
Ebene_1
6
ByLayer
62
7
100
AcDbLine
10
36.839031
20
45.333735
11
36.838805
21
45.33365
0
LINE
5
95
100
AcDbEntity
8
Ebene_1
6
ByLayer
62
7
100
AcDbLine
10
1.702139
20
41.347262
11
4.004028
21
41.347262
0
LINE
5
96
100
AcDbEntity
8
Ebene_1
6
ByLayer
62
7
100
AcDbLine
10
4.004028
20
41.347262
11
4.004028
21
34.353456
0
LINE
5
97
100
AcDbEntity
8
Ebene_1
6
ByLayer
62
7
100
AcDbLine
10
4.004028
20
34.353456
11
1.702139
21
34.353456
0
LINE
5
98
100
AcDbEntity
8
Ebene_1
6
ByLayer
62
7
100
AcDbLine
10
1.702139
20
34.353456
11
1.702139
21
41.347262
0
LINE
5
99
100
AcDbEntity
8
Ebene_1
6
ByLayer
62
7
100
AcDbLine
10
1.702139
20
41.347262
11
1.702139
21
41.347262
0
SPLINE
5
9A
100
AcDbEntity
8
Ebene_1
6
ByLayer
62
7
100
AcDbSpline
210
0
220
0
230
1
70
8
71
3
72
8
73
4
74
0
42
1e-07
43
1e-07
40
0
40
0
40
0
40
0
40
1
40
1
40
1
40
1
10
21.201944
20
39.318789
30
0
10
27.510881
20
39.318789
30
0
10
32.623111
20
34.206531
30
0
10
32.623111
20
27.897623
30
0
0
SPLINE
5
9B
100
AcDbEntity
8
Ebene_1
6
ByLayer
62
7
100
AcDbSpline
210
0
220
0
230
1
70
8
71
3
72
8
73
4
74
0
42
1e-07
43
1e-07
40
0
40
0
40
0
40
0
40
1
40
1
40
1
40
1
10
32.623111
20
27.897623
30
0
10
32.623111
20
21.588686
30
0
10
27.510881
20
16.476428
30
0
10
21.201944
20
16.476428
30
0
0
SPLINE
5
9C
100
AcDbEntity
8
Ebene_1
6
ByLayer
62
7
100
AcDbSpline
210
0
220
0
230
1
70
8
71
3
72
8
73
4
74
0
42
1e-07
43
1e-07
40
0
40
0
40
0
40
0
40
1
40
1
40
1
40
1
10
21.201944
20
16.476428
30
0
10
14.893008
20
16.476428
30
0
10
9.78075
20
21.588658
30
0
10
9.78075
20
27.897623
30
0
0
SPLINE
5
9D
100
AcDbEntity
8
Ebene_1
6
ByLayer
62
7
100
AcDbSpline
210
0
220
0
230
1
70
8
71
3
72
8
73
4
74
0
42
1e-07
43
1e-07
40
0
40
0
40
0
40
0
40
1
40
1
40
1
40
1
10
9.78075
20
27.897623
30
0
10
9.78075
20
34.206531
30
0
10
14.893008
20
39.318789
30
0
10
21.201944
20
39.318789
30
0
0
LINE
5
9E
100
AcDbEntity
8
Ebene_1
6
ByLayer
62
7
100
AcDbLine
10
21.201944
20
39.318789
11
21.201944
21
39.318789
0
LINE
5
9F
100
AcDbEntity
8
Ebene_1
6
ByLayer
62
7
100
AcDbLine
10
1.702139
20
27.333178
11
4.004028
21
27.333178
0
LINE
5
A0
100
AcDbEntity
8
Ebene_1
6
ByLayer
62
7
100
AcDbLine
10
4.004028
20
27.333178
11
4.004028
21
20.339345
0
LINE
5
A1
100
AcDbEntity
8
Ebene_1
6
ByLayer
62
7
100
AcDbLine
10
4.004028
20
20.339345
11
1.702139
21
20.339345
0
LINE
5
A2
100
AcDbEntity
8
Ebene_1
6
ByLayer
62
7
100
AcDbLine
10
1.702139
20
20.339345
11
1.702139
21
27.333178
0
LINE
5
A3
100
AcDbEntity
8
Ebene_1
6
ByLayer
62
7
100
AcDbLine
10
1.702139
20
27.333178
11
1.702139
21
27.333178
0
LINE
5
A4
100
AcDbEntity
8
Ebene_1
6
ByLayer
62
7
100
AcDbLine
10
4.586111
20
21.4594
11
10.592139
21
21.4594
0
LINE
5
A5
100
AcDbEntity
8
Ebene_1
6
ByLayer
62
7
100
AcDbLine
10
10.592139
20
21.4594
11
10.592139
21
16.0619
0
LINE
5
A6
100
AcDbEntity
8
Ebene_1
6
ByLayer
62
7
100
AcDbLine
10
10.592139
20
16.0619
11
4.586111
21
16.0619
0
LINE
5
A7
100
AcDbEntity
8
Ebene_1
6
ByLayer
62
7
100
AcDbLine
10
4.586111
20
16.0619
11
4.586111
21
21.4594
0
LINE
5
A8
100
AcDbEntity
8
Ebene_1
6
ByLayer
62
7
100
AcDbLine
10
4.586111
20
21.4594
11
4.586111
21
21.4594
0
LINE
5
A9
100
AcDbEntity
8
Ebene_1
6
ByLayer
62
7
100
AcDbLine
10
31.820556
20
21.4594
11
37.817778
21
21.4594
0
LINE
5
AA
100
AcDbEntity
8
Ebene_1
6
ByLayer
62
7
100
AcDbLine
10
37.817778
20
21.4594
11
37.817778
21
16.0619
0
LINE
5
AB
100
AcDbEntity
8
Ebene_1
6
ByLayer
62
7
100
AcDbLine
10
37.817778
20
16.0619
11
31.820556
21
16.0619
0
LINE
5
AC
100
AcDbEntity
8
Ebene_1
6
ByLayer
62
7
100
AcDbLine
10
31.820556
20
16.0619
11
31.820556
21
21.4594
0
LINE
5
AD
100
AcDbEntity
8
Ebene_1
6
ByLayer
62
7
100
AcDbLine
10
31.820556
20
21.4594
11
31.820556
21
21.4594
0
SPLINE
5
AE
100
AcDbEntity
8
Ebene_1
6
ByLayer
62
7
100
AcDbSpline
210
0
220
0
230
1
70
8
71
3
72
8
73
4
74
0
42
1e-07
43
1e-07
40
0
40
0
40
0
40
0
40
1
40
1
40
1
40
1
10
5.55625
20
14.04225
30
0
10
6.550378
20
14.04225
30
0
10
7.355417
20
13.23707
30
0
10
7.355417
20
12.243084
30
0
0
SPLINE
5
AF
100
AcDbEntity
8
Ebene_1
6
ByLayer
62
7
100
AcDbSpline
210
0
220
0
230
1
70
8
71
3
72
8
73
4
74
0
42
1e-07
43
1e-07
40
0
40
0
40
0
40
0
40
1
40
1
40
1
40
1
10
7.355417
20
12.243084
30
0
10
7.355417
20
11.248815
30
0
10
6.550378
20
10.443917
30
0
10
5.55625
20
10.443917
30
0
0
SPLINE
5
B0
100
AcDbEntity
8
Ebene_1
6
ByLayer
62
7
100
AcDbSpline
210
0
220
0
230
1
70
8
71
3
72
8
73
4
74
0
42
1e-07
43
1e-07
40
0
40
0
40
0
40
0
40
1
40
1
40
1
40
1
10
5.55625
20
10.443917
30
0
10
4.56215
20
10.443917
30
0
10
3.757083
20
11.248815
30
0
10
3.757083
20
12.243084
30
0
0
SPLINE
5
B1
100
AcDbEntity
8
Ebene_1
6
ByLayer
62
7
100
AcDbSpline
210
0
220
0
230
1
70
8
71
3
72
8
73
4
74
0
42
1e-07
43
1e-07
40
0
40
0
40
0
40
0
40
1
40
1
40
1
40
1
10
3.757083
20
12.243084
30
0
10
3.757083
20
13.23707
30
0
10
4.56215
20
14.04225
30
0
10
5.55625
20
14.04225
30
0
0
LINE
5
B2
100
AcDbEntity
8
Ebene_1
6
ByLayer
62
7
100
AcDbLine
10
5.55625
20
14.04225
11
5.55625
21
14.04225
0
SPLINE
5
B3
100
AcDbEntity
8
Ebene_1
6
ByLayer
62
7
100
AcDbSpline
210
0
220
0
230
1
70
8
71
3
72
8
73
4
74
0
42
1e-07
43
1e-07
40
0
40
0
40
0
40
0
40
1
40
1
40
1
40
1
10
36.847639
20
14.04225
30
0
10
37.841767
20
14.04225
30
0
10
38.646806
20
13.237352
30
0
10
38.646806
20
12.243084
30
0
0
SPLINE
5
B4
100
AcDbEntity
8
Ebene_1
6
ByLayer
62
7
100
AcDbSpline
210
0
220
0
230
1
70
8
71
3
72
8
73
4
74
0
42
1e-07
43
1e-07
40
0
40
0
40
0
40
0
40
1
40
1
40
1
40
1
10
38.646806
20
12.243084
30
0
10
38.646806
20
11.249097
30
0
10
37.841767
20
10.443917
30
0
10
36.847639
20
10.443917
30
0
0
SPLINE
5
B5
100
AcDbEntity
8
Ebene_1
6
ByLayer
62
7
100
AcDbSpline
210
0
220
0
230
1
70
8
71
3
72
8
73
4
74
0
42
1e-07
43
1e-07
40
0
40
0
40
0
40
0
40
1
40
1
40
1
40
1
10
36.847639
20
10.443917
30
0
10
36.785522
20
10.443917
30
0
10
36.722925
20
10.438272
30
0
10
36.662416
20
10.443917
30
0
0
SPLINE
5
B6
100
AcDbEntity
8
Ebene_1
6
ByLayer
62
7
100
AcDbSpline
210
0
220
0
230
1
70
8
71
3
72
8
73
4
74
0
42
1e-07
43
1e-07
40
0
40
0
40
0
40
0
40
1
40
1
40
1
40
1
10
36.662416
20
10.443917
30
0
10
36.601908
20
10.449561
30
0
10
36.544617
20
10.459157
30
0
10
36.486028
20
10.470446
30
0
0
SPLINE
5
B7
100
AcDbEntity
8
Ebene_1
6
ByLayer
62
7
100
AcDbSpline
210
0
220
0
230
1
70
8
71
3
72
8
73
4
74
0
42
1e-07
43
1e-07
40
0
40
0
40
0
40
0
40
1
40
1
40
1
40
1
10
36.486028
20
10.470446
30
0
10
35.665777
20
10.638368
30
0
10
35.048472
20
11.364469
30
0
10
35.048472
20
12.234335
30
0
0
SPLINE
5
B8
100
AcDbEntity
8
Ebene_1
6
ByLayer
62
7
100
AcDbSpline
210
0
220
0
230
1
70
8
71
3
72
8
73
4
74
0
42
1e-07
43
1e-07
40
0
40
0
40
0
40
0
40
1
40
1
40
1
40
1
10
35.048472
20
12.234335
30
0
10
35.048472
20
13.228604
30
0
10
35.853539
20
14.033501
30
0
10
36.847639
20
14.033501
30
0
0
LINE
5
B9
100
AcDbEntity
8
Ebene_1
6
ByLayer
62
7
100
AcDbLine
10
36.847639
20
14.033501
11
36.847639
21
14.04225
0
LINE
5
BA
100
AcDbEntity
8
Ebene_1
6
ByLayer
62
7
100
AcDbLine
10
36.847639
20
14.04225
11
36.847639
21
14.04225
0
LINE
5
BB
100
AcDbEntity
8
Ebene_1
6
ByLayer
62
7
100
AcDbLine
10
3.139722
20
9.3415
11
9.136944
21
9.3415
0
LINE
5
BC
100
AcDbEntity
8
Ebene_1
6
ByLayer
62
7
100
AcDbLine
10
9.136944
20
9.3415
11
9.136944
21
7.048445
0
LINE
5
BD
100
AcDbEntity
8
Ebene_1
6
ByLayer
62
7
100
AcDbLine
10
9.136944
20
7.048445
11
3.139722
21
7.048445
0
LINE
5
BE
100
AcDbEntity
8
Ebene_1
6
ByLayer
62
7
100
AcDbLine
10
3.139722
20
7.048445
11
3.139722
21
9.3415
0
LINE
5
BF
100
AcDbEntity
8
Ebene_1
6
ByLayer
62
7
100
AcDbLine
10
3.139722
20
9.3415
11
3.139722
21
9.3415
0
SPLINE
5
C0
100
AcDbEntity
8
Ebene_1
6
ByLayer
62
7
100
AcDbSpline
210
0
220
0
230
1
70
8
71
3
72
8
73
4
74
0
42
1e-07
43
1e-07
40
0
40
0
40
0
40
0
40
1
40
1
40
1
40
1
10
5.229916
20
5.434472
30
0
10
5.336145
20
5.438141
30
0
10
5.447369
20
5.434472
30
0
10
5.55625
20
5.416975
30
0
0
SPLINE
5
C1
100
AcDbEntity
8
Ebene_1
6
ByLayer
62
7
100
AcDbSpline
210
0
220
0
230
1
70
8
71
3
72
8
73
4
74
0
42
1e-07
43
1e-07
40
0
40
0
40
0
40
0
40
1
40
1
40
1
40
1
10
5.55625
20
5.416975
30
0
10
6.427301
20
5.26909
30
0
10
7.009356
20
4.444663
30
0
10
6.861528
20
3.573697
30
0
0
SPLINE
5
C2
100
AcDbEntity
8
Ebene_1
6
ByLayer
62
7
100
AcDbSpline
210
0
220
0
230
1
70
8
71
3
72
8
73
4
74
0
42
1e-07
43
1e-07
40
0
40
0
40
0
40
0
40
1
40
1
40
1
40
1
10
6.861528
20
3.573697
30
0
10
6.7137
20
2.702477
30
0
10
5.889329
20
2.111729
30
0
10
5.01825
20
2.259614
30
0
0
SPLINE
5
C3
100
AcDbEntity
8
Ebene_1
6
ByLayer
62
7
100
AcDbSpline
210
0
220
0
230
1
70
8
71
3
72
8
73
4
74
0
42
1e-07
43
1e-07
40
0
40
0
40
0
40
0
40
1
40
1
40
1
40
1
10
5.01825
20
2.259614
30
0
10
4.147227
20
2.407498
30
0
10
3.565144
20
3.231672
30
0
10
3.712972
20
4.102863
30
0
0
SPLINE
5
C4
100
AcDbEntity
8
Ebene_1
6
ByLayer
62
7
100
AcDbSpline
210
0
220
0
230
1
70
8
71
3
72
8
73
4
74
0
42
1e-07
43
1e-07
40
0
40
0
40
0
40
0
40
1
40
1
40
1
40
1
10
3.712972
20
4.102863
30
0
10
3.842314
20
4.864948
30
0
10
4.486261
20
5.409383
30
0
10
5.229916
20
5.434614
30
0
0
LINE
5
C5
100
AcDbEntity
8
Ebene_1
6
ByLayer
62
7
100
AcDbLine
10
5.229916
20
5.434614
11
5.229916
21
5.434472
0
ENDSEC
0
SECTION
2
OBJECTS
0
DICTIONARY
5
C
100
AcDbDictionary
281
1
3
ACAD_GROUP
350
D
0
DICTIONARY
5
D
330
C
100
AcDbDictionary
281
1
0
ENDSEC
0
EOF
