  0
SECTION
  2
BLOCKS
  0
ENDSEC
  0
SECTION
  2
ENTITIES
  0
LINE
  8
0
 10
224.5
 20
351
 11
-224.5
 21
351
  0
LINE
  8
0
 10
-224.5
 20
351
 11
-224.5
 21
-351
  0
LINE
  8
0
 10
-224.5
 20
-351
 11
224.5
 21
-351
  0
LINE
  8
0
 10
224.5
 20
-351
 11
224.5
 21
351
  0
LINE
  8
0
 10
-135.592
 20
166.793
 11
-146.532
 21
169.118
  0
LINE
  8
0
 10
-146.532
 20
169.118
 11
-156.75
 21
173.668
  0
LINE
  8
0
 10
-156.75
 20
173.668
 11
-165.798
 21
180.242
  0
LINE
  8
0
 10
-165.798
 20
180.242
 11
-173.282
 21
188.553
  0
LINE
  8
0
 10
-173.282
 20
188.553
 11
-178.875
 21
198.24
  0
LINE
  8
0
 10
-178.875
 20
198.24
 11
-182.331
 21
208.877
  0
LINE
  8
0
 10
-182.331
 20
208.877
 11
-183.5
 21
220
  0
LINE
  8
0
 10
-183.5
 20
220
 11
-182.331
 21
231.123
  0
LINE
  8
0
 10
-182.331
 20
231.123
 11
-178.875
 21
241.76
  0
LINE
  8
0
 10
-178.875
 20
241.76
 11
-173.282
 21
251.447
  0
LINE
  8
0
 10
-173.282
 20
251.447
 11
-165.798
 21
259.758
  0
LINE
  8
0
 10
-165.798
 20
259.758
 11
-156.75
 21
266.332
  0
LINE
  8
0
 10
-156.75
 20
266.332
 11
-146.532
 21
270.882
  0
LINE
  8
0
 10
-146.532
 20
270.882
 11
-135.592
 21
273.207
  0
LINE
  8
0
 10
-135.592
 20
273.207
 11
-124.408
 21
273.207
  0
LINE
  8
0
 10
-124.408
 20
273.207
 11
-113.468
 21
270.882
  0
LINE
  8
0
 10
-113.468
 20
270.882
 11
-103.25
 21
266.332
  0
LINE
  8
0
 10
-103.25
 20
266.332
 11
-94.2015
 21
259.758
  0
LINE
  8
0
 10
-94.2015
 20
259.758
 11
-86.7176
 21
251.447
  0
LINE
  8
0
 10
-86.7176
 20
251.447
 11
-81.1253
 21
241.76
  0
LINE
  8
0
 10
-81.1253
 20
241.76
 11
-77.6691
 21
231.123
  0
LINE
  8
0
 10
-77.6691
 20
231.123
 11
-76.5
 21
220
  0
LINE
  8
0
 10
-76.5
 20
220
 11
-77.6691
 21
208.877
  0
LINE
  8
0
 10
-77.6691
 20
208.877
 11
-81.1253
 21
198.24
  0
LINE
  8
0
 10
-81.1253
 20
198.24
 11
-86.7176
 21
188.553
  0
LINE
  8
0
 10
-86.7176
 20
188.553
 11
-94.2015
 21
180.242
  0
LINE
  8
0
 10
-94.2015
 20
180.242
 11
-103.25
 21
173.668
  0
LINE
  8
0
 10
-103.25
 20
173.668
 11
-113.468
 21
169.118
  0
LINE
  8
0
 10
-113.468
 20
169.118
 11
-124.408
 21
166.793
  0
LINE
  8
0
 10
-124.408
 20
166.793
 11
-135.592
 21
166.793
  0
LINE
  8
0
 10
124.408
 20
166.793
 11
113.468
 21
169.118
  0
LINE
  8
0
 10
113.468
 20
169.118
 11
103.25
 21
173.668
  0
LINE
  8
0
 10
103.25
 20
173.668
 11
94.2015
 21
180.242
  0
LINE
  8
0
 10
94.2015
 20
180.242
 11
86.7176
 21
188.553
  0
LINE
  8
0
 10
86.7176
 20
188.553
 11
81.1253
 21
198.24
  0
LINE
  8
0
 10
81.1253
 20
198.24
 11
77.6691
 21
208.877
  0
LINE
  8
0
 10
77.6691
 20
208.877
 11
76.5
 21
220
  0
LINE
  8
0
 10
76.5
 20
220
 11
77.6691
 21
231.123
  0
LINE
  8
0
 10
77.6691
 20
231.123
 11
81.1253
 21
241.76
  0
LINE
  8
0
 10
81.1253
 20
241.76
 11
86.7176
 21
251.447
  0
LINE
  8
0
 10
86.7176
 20
251.447
 11
94.2015
 21
259.758
  0
LINE
  8
0
 10
94.2015
 20
259.758
 11
103.25
 21
266.332
  0
LINE
  8
0
 10
103.25
 20
266.332
 11
113.468
 21
270.882
  0
LINE
  8
0
 10
113.468
 20
270.882
 11
124.408
 21
273.207
  0
LINE
  8
0
 10
124.408
 20
273.207
 11
135.592
 21
273.207
  0
LINE
  8
0
 10
135.592
 20
273.207
 11
146.532
 21
270.882
  0
LINE
  8
0
 10
146.532
 20
270.882
 11
156.75
 21
266.332
  0
LINE
  8
0
 10
156.75
 20
266.332
 11
165.798
 21
259.758
  0
LINE
  8
0
 10
165.798
 20
259.758
 11
173.282
 21
251.447
  0
LINE
  8
0
 10
173.282
 20
251.447
 11
178.875
 21
241.76
  0
LINE
  8
0
 10
178.875
 20
241.76
 11
182.331
 21
231.123
  0
LINE
  8
0
 10
182.331
 20
231.123
 11
183.5
 21
220
  0
LINE
  8
0
 10
183.5
 20
220
 11
182.331
 21
208.877
  0
LINE
  8
0
 10
182.331
 20
208.877
 11
178.875
 21
198.24
  0
LINE
  8
0
 10
178.875
 20
198.24
 11
173.282
 21
188.553
  0
LINE
  8
0
 10
173.282
 20
188.553
 11
165.798
 21
180.242
  0
LINE
  8
0
 10
165.798
 20
180.242
 11
156.75
 21
173.668
  0
LINE
  8
0
 10
156.75
 20
173.668
 11
146.532
 21
169.118
  0
LINE
  8
0
 10
146.532
 20
169.118
 11
135.592
 21
166.793
  0
LINE
  8
0
 10
135.592
 20
166.793
 11
124.408
 21
166.793
  0
LINE
  8
0
 10
-5.59227
 20
166.793
 11
-16.5324
 21
169.118
  0
LINE
  8
0
 10
-16.5324
 20
169.118
 11
-26.75
 21
173.668
  0
LINE
  8
0
 10
-26.75
 20
173.668
 11
-35.7985
 21
180.242
  0
LINE
  8
0
 10
-35.7985
 20
180.242
 11
-43.2824
 21
188.553
  0
LINE
  8
0
 10
-43.2824
 20
188.553
 11
-48.8747
 21
198.24
  0
LINE
  8
0
 10
-48.8747
 20
198.24
 11
-52.3309
 21
208.877
  0
LINE
  8
0
 10
-52.3309
 20
208.877
 11
-53.5
 21
220
  0
LINE
  8
0
 10
-53.5
 20
220
 11
-52.3309
 21
231.123
  0
LINE
  8
0
 10
-52.3309
 20
231.123
 11
-48.8747
 21
241.76
  0
LINE
  8
0
 10
-48.8747
 20
241.76
 11
-43.2824
 21
251.447
  0
LINE
  8
0
 10
-43.2824
 20
251.447
 11
-35.7985
 21
259.758
  0
LINE
  8
0
 10
-35.7985
 20
259.758
 11
-26.75
 21
266.332
  0
LINE
  8
0
 10
-26.75
 20
266.332
 11
-16.5324
 21
270.882
  0
LINE
  8
0
 10
-16.5324
 20
270.882
 11
-5.59227
 21
273.207
  0
LINE
  8
0
 10
-5.59227
 20
273.207
 11
5.59227
 21
273.207
  0
LINE
  8
0
 10
5.59227
 20
273.207
 11
16.5324
 21
270.882
  0
LINE
  8
0
 10
16.5324
 20
270.882
 11
26.75
 21
266.332
  0
LINE
  8
0
 10
26.75
 20
266.332
 11
35.7985
 21
259.758
  0
LINE
  8
0
 10
35.7985
 20
259.758
 11
43.2824
 21
251.447
  0
LINE
  8
0
 10
43.2824
 20
251.447
 11
48.8747
 21
241.76
  0
LINE
  8
0
 10
48.8747
 20
241.76
 11
52.3309
 21
231.123
  0
LINE
  8
0
 10
52.3309
 20
231.123
 11
53.5
 21
220
  0
LINE
  8
0
 10
53.5
 20
220
 11
52.3309
 21
208.877
  0
LINE
  8
0
 10
52.3309
 20
208.877
 11
48.8747
 21
198.24
  0
LINE
  8
0
 10
48.8747
 20
198.24
 11
43.2824
 21
188.553
  0
LINE
  8
0
 10
43.2824
 20
188.553
 11
35.7985
 21
180.242
  0
LINE
  8
0
 10
35.7985
 20
180.242
 11
26.75
 21
173.668
  0
LINE
  8
0
 10
26.75
 20
173.668
 11
16.5324
 21
169.118
  0
LINE
  8
0
 10
16.5324
 20
169.118
 11
5.59227
 21
166.793
  0
LINE
  8
0
 10
5.59227
 20
166.793
 11
-5.59227
 21
166.793
  0
LINE
  8
0
 10
-141.123
 20
-52.3309
 11
-151.76
 21
-48.8747
  0
LINE
  8
0
 10
-151.76
 20
-48.8747
 11
-161.447
 21
-43.2824
  0
LINE
  8
0
 10
-161.447
 20
-43.2824
 11
-169.758
 21
-35.7985
  0
LINE
  8
0
 10
-169.758
 20
-35.7985
 11
-176.332
 21
-26.75
  0
LINE
  8
0
 10
-176.332
 20
-26.75
 11
-180.882
 21
-16.5324
  0
LINE
  8
0
 10
-180.882
 20
-16.5324
 11
-183.207
 21
-5.59225
  0
LINE
  8
0
 10
-183.207
 20
-5.59225
 11
-183.207
 21
5.59227
  0
LINE
  8
0
 10
-183.207
 20
5.59227
 11
-180.882
 21
16.5324
  0
LINE
  8
0
 10
-180.882
 20
16.5324
 11
-176.332
 21
26.75
  0
LINE
  8
0
 10
-176.332
 20
26.75
 11
-169.758
 21
35.7985
  0
LINE
  8
0
 10
-169.758
 20
35.7985
 11
-161.447
 21
43.2824
  0
LINE
  8
0
 10
-161.447
 20
43.2824
 11
-151.76
 21
48.8747
  0
LINE
  8
0
 10
-151.76
 20
48.8747
 11
-141.123
 21
52.3309
  0
LINE
  8
0
 10
-141.123
 20
52.3309
 11
-130
 21
53.5
  0
LINE
  8
0
 10
-130
 20
53.5
 11
-118.877
 21
52.3309
  0
LINE
  8
0
 10
-118.877
 20
52.3309
 11
-108.24
 21
48.8747
  0
LINE
  8
0
 10
-108.24
 20
48.8747
 11
-98.5535
 21
43.2824
  0
LINE
  8
0
 10
-98.5535
 20
43.2824
 11
-90.2417
 21
35.7985
  0
LINE
  8
0
 10
-90.2417
 20
35.7985
 11
-83.6676
 21
26.75
  0
LINE
  8
0
 10
-83.6676
 20
26.75
 11
-79.1185
 21
16.5324
  0
LINE
  8
0
 10
-79.1185
 20
16.5324
 11
-76.7931
 21
5.59227
  0
LINE
  8
0
 10
-76.7931
 20
5.59227
 11
-76.7931
 21
-5.59225
  0
LINE
  8
0
 10
-76.7931
 20
-5.59225
 11
-79.1185
 21
-16.5324
  0
LINE
  8
0
 10
-79.1185
 20
-16.5324
 11
-83.6676
 21
-26.75
  0
LINE
  8
0
 10
-83.6676
 20
-26.75
 11
-90.2417
 21
-35.7985
  0
LINE
  8
0
 10
-90.2417
 20
-35.7985
 11
-98.5535
 21
-43.2824
  0
LINE
  8
0
 10
-98.5535
 20
-43.2824
 11
-108.24
 21
-48.8747
  0
LINE
  8
0
 10
-108.24
 20
-48.8747
 11
-118.877
 21
-52.3309
  0
LINE
  8
0
 10
-118.877
 20
-52.3309
 11
-130
 21
-53.5
  0
LINE
  8
0
 10
-130
 20
-53.5
 11
-141.123
 21
-52.3309
  0
LINE
  8
0
 10
118.877
 20
-52.3309
 11
108.24
 21
-48.8747
  0
LINE
  8
0
 10
108.24
 20
-48.8747
 11
98.5535
 21
-43.2824
  0
LINE
  8
0
 10
98.5535
 20
-43.2824
 11
90.2417
 21
-35.7985
  0
LINE
  8
0
 10
90.2417
 20
-35.7985
 11
83.6676
 21
-26.75
  0
LINE
  8
0
 10
83.6676
 20
-26.75
 11
79.1185
 21
-16.5324
  0
LINE
  8
0
 10
79.1185
 20
-16.5324
 11
76.7931
 21
-5.59227
  0
LINE
  8
0
 10
76.7931
 20
-5.59227
 11
76.7931
 21
5.59225
  0
LINE
  8
0
 10
76.7931
 20
5.59225
 11
79.1185
 21
16.5324
  0
LINE
  8
0
 10
79.1185
 20
16.5324
 11
83.6676
 21
26.75
  0
LINE
  8
0
 10
83.6676
 20
26.75
 11
90.2417
 21
35.7985
  0
LINE
  8
0
 10
90.2417
 20
35.7985
 11
98.5535
 21
43.2824
  0
LINE
  8
0
 10
98.5535
 20
43.2824
 11
108.24
 21
48.8747
  0
LINE
  8
0
 10
108.24
 20
48.8747
 11
118.877
 21
52.3309
  0
LINE
  8
0
 10
118.877
 20
52.3309
 11
130
 21
53.5
  0
LINE
  8
0
 10
130
 20
53.5
 11
141.123
 21
52.3309
  0
LINE
  8
0
 10
141.123
 20
52.3309
 11
151.76
 21
48.8747
  0
LINE
  8
0
 10
151.76
 20
48.8747
 11
161.447
 21
43.2824
  0
LINE
  8
0
 10
161.447
 20
43.2824
 11
169.758
 21
35.7985
  0
LINE
  8
0
 10
169.758
 20
35.7985
 11
176.332
 21
26.75
  0
LINE
  8
0
 10
176.332
 20
26.75
 11
180.882
 21
16.5324
  0
LINE
  8
0
 10
180.882
 20
16.5324
 11
183.207
 21
5.59225
  0
LINE
  8
0
 10
183.207
 20
5.59225
 11
183.207
 21
-5.59227
  0
LINE
  8
0
 10
183.207
 20
-5.59227
 11
180.882
 21
-16.5324
  0
LINE
  8
0
 10
180.882
 20
-16.5324
 11
176.332
 21
-26.75
  0
LINE
  8
0
 10
176.332
 20
-26.75
 11
169.758
 21
-35.7985
  0
LINE
  8
0
 10
169.758
 20
-35.7985
 11
161.447
 21
-43.2824
  0
LINE
  8
0
 10
161.447
 20
-43.2824
 11
151.76
 21
-48.8747
  0
LINE
  8
0
 10
151.76
 20
-48.8747
 11
141.123
 21
-52.3309
  0
LINE
  8
0
 10
141.123
 20
-52.3309
 11
130
 21
-53.5
  0
LINE
  8
0
 10
130
 20
-53.5
 11
118.877
 21
-52.3309
  0
LINE
  8
0
 10
-5.59227
 20
-53.2069
 11
-16.5324
 21
-50.8815
  0
LINE
  8
0
 10
-16.5324
 20
-50.8815
 11
-26.75
 21
-46.3324
  0
LINE
  8
0
 10
-26.75
 20
-46.3324
 11
-35.7985
 21
-39.7582
  0
LINE
  8
0
 10
-35.7985
 20
-39.7582
 11
-43.2824
 21
-31.4465
  0
LINE
  8
0
 10
-43.2824
 20
-31.4465
 11
-48.8747
 21
-21.7604
  0
LINE
  8
0
 10
-48.8747
 20
-21.7604
 11
-52.3309
 21
-11.1233
  0
LINE
  8
0
 10
-52.3309
 20
-11.1233
 11
-53.5
 21
0
  0
LINE
  8
0
 10
-53.5
 20
0
 11
-52.3309
 21
11.1233
  0
LINE
  8
0
 10
-52.3309
 20
11.1233
 11
-48.8747
 21
21.7604
  0
LINE
  8
0
 10
-48.8747
 20
21.7604
 11
-43.2824
 21
31.4465
  0
LINE
  8
0
 10
-43.2824
 20
31.4465
 11
-35.7985
 21
39.7582
  0
LINE
  8
0
 10
-35.7985
 20
39.7582
 11
-26.75
 21
46.3324
  0
LINE
  8
0
 10
-26.75
 20
46.3324
 11
-16.5324
 21
50.8815
  0
LINE
  8
0
 10
-16.5324
 20
50.8815
 11
-5.59227
 21
53.2069
  0
LINE
  8
0
 10
-5.59227
 20
53.2069
 11
5.59227
 21
53.2069
  0
LINE
  8
0
 10
5.59227
 20
53.2069
 11
16.5324
 21
50.8815
  0
LINE
  8
0
 10
16.5324
 20
50.8815
 11
26.75
 21
46.3324
  0
LINE
  8
0
 10
26.75
 20
46.3324
 11
35.7985
 21
39.7582
  0
LINE
  8
0
 10
35.7985
 20
39.7582
 11
43.2824
 21
31.4465
  0
LINE
  8
0
 10
43.2824
 20
31.4465
 11
48.8747
 21
21.7604
  0
LINE
  8
0
 10
48.8747
 20
21.7604
 11
52.3309
 21
11.1233
  0
LINE
  8
0
 10
52.3309
 20
11.1233
 11
53.5
 21
0
  0
LINE
  8
0
 10
53.5
 20
0
 11
52.3309
 21
-11.1233
  0
LINE
  8
0
 10
52.3309
 20
-11.1233
 11
48.8747
 21
-21.7604
  0
LINE
  8
0
 10
48.8747
 20
-21.7604
 11
43.2824
 21
-31.4465
  0
LINE
  8
0
 10
43.2824
 20
-31.4465
 11
35.7985
 21
-39.7582
  0
LINE
  8
0
 10
35.7985
 20
-39.7582
 11
26.75
 21
-46.3324
  0
LINE
  8
0
 10
26.75
 20
-46.3324
 11
16.5324
 21
-50.8815
  0
LINE
  8
0
 10
16.5324
 20
-50.8815
 11
5.59227
 21
-53.2069
  0
LINE
  8
0
 10
5.59227
 20
-53.2069
 11
-5.59227
 21
-53.2069
  0
LINE
  8
0
 10
-135.592
 20
-273.207
 11
-146.532
 21
-270.882
  0
LINE
  8
0
 10
-146.532
 20
-270.882
 11
-156.75
 21
-266.332
  0
LINE
  8
0
 10
-156.75
 20
-266.332
 11
-165.798
 21
-259.758
  0
LINE
  8
0
 10
-165.798
 20
-259.758
 11
-173.282
 21
-251.447
  0
LINE
  8
0
 10
-173.282
 20
-251.447
 11
-178.875
 21
-241.76
  0
LINE
  8
0
 10
-178.875
 20
-241.76
 11
-182.331
 21
-231.123
  0
LINE
  8
0
 10
-182.331
 20
-231.123
 11
-183.5
 21
-220
  0
LINE
  8
0
 10
-183.5
 20
-220
 11
-182.331
 21
-208.877
  0
LINE
  8
0
 10
-182.331
 20
-208.877
 11
-178.875
 21
-198.24
  0
LINE
  8
0
 10
-178.875
 20
-198.24
 11
-173.282
 21
-188.553
  0
LINE
  8
0
 10
-173.282
 20
-188.553
 11
-165.798
 21
-180.242
  0
LINE
  8
0
 10
-165.798
 20
-180.242
 11
-156.75
 21
-173.668
  0
LINE
  8
0
 10
-156.75
 20
-173.668
 11
-146.532
 21
-169.118
  0
LINE
  8
0
 10
-146.532
 20
-169.118
 11
-135.592
 21
-166.793
  0
LINE
  8
0
 10
-135.592
 20
-166.793
 11
-124.408
 21
-166.793
  0
LINE
  8
0
 10
-124.408
 20
-166.793
 11
-113.468
 21
-169.118
  0
LINE
  8
0
 10
-113.468
 20
-169.118
 11
-103.25
 21
-173.668
  0
LINE
  8
0
 10
-103.25
 20
-173.668
 11
-94.2015
 21
-180.242
  0
LINE
  8
0
 10
-94.2015
 20
-180.242
 11
-86.7176
 21
-188.553
  0
LINE
  8
0
 10
-86.7176
 20
-188.553
 11
-81.1253
 21
-198.24
  0
LINE
  8
0
 10
-81.1253
 20
-198.24
 11
-77.6691
 21
-208.877
  0
LINE
  8
0
 10
-77.6691
 20
-208.877
 11
-76.5
 21
-220
  0
LINE
  8
0
 10
-76.5
 20
-220
 11
-77.6691
 21
-231.123
  0
LINE
  8
0
 10
-77.6691
 20
-231.123
 11
-81.1253
 21
-241.76
  0
LINE
  8
0
 10
-81.1253
 20
-241.76
 11
-86.7176
 21
-251.447
  0
LINE
  8
0
 10
-86.7176
 20
-251.447
 11
-94.2015
 21
-259.758
  0
LINE
  8
0
 10
-94.2015
 20
-259.758
 11
-103.25
 21
-266.332
  0
LINE
  8
0
 10
-103.25
 20
-266.332
 11
-113.468
 21
-270.882
  0
LINE
  8
0
 10
-113.468
 20
-270.882
 11
-124.408
 21
-273.207
  0
LINE
  8
0
 10
-124.408
 20
-273.207
 11
-135.592
 21
-273.207
  0
LINE
  8
0
 10
124.408
 20
-273.207
 11
113.468
 21
-270.882
  0
LINE
  8
0
 10
113.468
 20
-270.882
 11
103.25
 21
-266.332
  0
LINE
  8
0
 10
103.25
 20
-266.332
 11
94.2015
 21
-259.758
  0
LINE
  8
0
 10
94.2015
 20
-259.758
 11
86.7176
 21
-251.447
  0
LINE
  8
0
 10
86.7176
 20
-251.447
 11
81.1253
 21
-241.76
  0
LINE
  8
0
 10
81.1253
 20
-241.76
 11
77.6691
 21
-231.123
  0
LINE
  8
0
 10
77.6691
 20
-231.123
 11
76.5
 21
-220
  0
LINE
  8
0
 10
76.5
 20
-220
 11
77.6691
 21
-208.877
  0
LINE
  8
0
 10
77.6691
 20
-208.877
 11
81.1253
 21
-198.24
  0
LINE
  8
0
 10
81.1253
 20
-198.24
 11
86.7176
 21
-188.553
  0
LINE
  8
0
 10
86.7176
 20
-188.553
 11
94.2015
 21
-180.242
  0
LINE
  8
0
 10
94.2015
 20
-180.242
 11
103.25
 21
-173.668
  0
LINE
  8
0
 10
103.25
 20
-173.668
 11
113.468
 21
-169.118
  0
LINE
  8
0
 10
113.468
 20
-169.118
 11
124.408
 21
-166.793
  0
LINE
  8
0
 10
124.408
 20
-166.793
 11
135.592
 21
-166.793
  0
LINE
  8
0
 10
135.592
 20
-166.793
 11
146.532
 21
-169.118
  0
LINE
  8
0
 10
146.532
 20
-169.118
 11
156.75
 21
-173.668
  0
LINE
  8
0
 10
156.75
 20
-173.668
 11
165.798
 21
-180.242
  0
LINE
  8
0
 10
165.798
 20
-180.242
 11
173.282
 21
-188.553
  0
LINE
  8
0
 10
173.282
 20
-188.553
 11
178.875
 21
-198.24
  0
LINE
  8
0
 10
178.875
 20
-198.24
 11
182.331
 21
-208.877
  0
LINE
  8
0
 10
182.331
 20
-208.877
 11
183.5
 21
-220
  0
LINE
  8
0
 10
183.5
 20
-220
 11
182.331
 21
-231.123
  0
LINE
  8
0
 10
182.331
 20
-231.123
 11
178.875
 21
-241.76
  0
LINE
  8
0
 10
178.875
 20
-241.76
 11
173.282
 21
-251.447
  0
LINE
  8
0
 10
173.282
 20
-251.447
 11
165.798
 21
-259.758
  0
LINE
  8
0
 10
165.798
 20
-259.758
 11
156.75
 21
-266.332
  0
LINE
  8
0
 10
156.75
 20
-266.332
 11
146.532
 21
-270.882
  0
LINE
  8
0
 10
146.532
 20
-270.882
 11
135.592
 21
-273.207
  0
LINE
  8
0
 10
135.592
 20
-273.207
 11
124.408
 21
-273.207
  0
LINE
  8
0
 10
-5.59227
 20
-273.207
 11
-16.5324
 21
-270.882
  0
LINE
  8
0
 10
-16.5324
 20
-270.882
 11
-26.75
 21
-266.332
  0
LINE
  8
0
 10
-26.75
 20
-266.332
 11
-35.7985
 21
-259.758
  0
LINE
  8
0
 10
-35.7985
 20
-259.758
 11
-43.2824
 21
-251.447
  0
LINE
  8
0
 10
-43.2824
 20
-251.447
 11
-48.8747
 21
-241.76
  0
LINE
  8
0
 10
-48.8747
 20
-241.76
 11
-52.3309
 21
-231.123
  0
LINE
  8
0
 10
-52.3309
 20
-231.123
 11
-53.5
 21
-220
  0
LINE
  8
0
 10
-53.5
 20
-220
 11
-52.3309
 21
-208.877
  0
LINE
  8
0
 10
-52.3309
 20
-208.877
 11
-48.8747
 21
-198.24
  0
LINE
  8
0
 10
-48.8747
 20
-198.24
 11
-43.2824
 21
-188.553
  0
LINE
  8
0
 10
-43.2824
 20
-188.553
 11
-35.7985
 21
-180.242
  0
LINE
  8
0
 10
-35.7985
 20
-180.242
 11
-26.75
 21
-173.668
  0
LINE
  8
0
 10
-26.75
 20
-173.668
 11
-16.5324
 21
-169.118
  0
LINE
  8
0
 10
-16.5324
 20
-169.118
 11
-5.59227
 21
-166.793
  0
LINE
  8
0
 10
-5.59227
 20
-166.793
 11
5.59227
 21
-166.793
  0
LINE
  8
0
 10
5.59227
 20
-166.793
 11
16.5324
 21
-169.118
  0
LINE
  8
0
 10
16.5324
 20
-169.118
 11
26.75
 21
-173.668
  0
LINE
  8
0
 10
26.75
 20
-173.668
 11
35.7985
 21
-180.242
  0
LINE
  8
0
 10
35.7985
 20
-180.242
 11
43.2824
 21
-188.553
  0
LINE
  8
0
 10
43.2824
 20
-188.553
 11
48.8747
 21
-198.24
  0
LINE
  8
0
 10
48.8747
 20
-198.24
 11
52.3309
 21
-208.877
  0
LINE
  8
0
 10
52.3309
 20
-208.877
 11
53.5
 21
-220
  0
LINE
  8
0
 10
53.5
 20
-220
 11
52.3309
 21
-231.123
  0
LINE
  8
0
 10
52.3309
 20
-231.123
 11
48.8747
 21
-241.76
  0
LINE
  8
0
 10
48.8747
 20
-241.76
 11
43.2824
 21
-251.447
  0
LINE
  8
0
 10
43.2824
 20
-251.447
 11
35.7985
 21
-259.758
  0
LINE
  8
0
 10
35.7985
 20
-259.758
 11
26.75
 21
-266.332
  0
LINE
  8
0
 10
26.75
 20
-266.332
 11
16.5324
 21
-270.882
  0
LINE
  8
0
 10
16.5324
 20
-270.882
 11
5.59227
 21
-273.207
  0
LINE
  8
0
 10
5.59227
 20
-273.207
 11
-5.59227
 21
-273.207
  0
ENDSEC
  0
SECTION
  2
OBJECTS
  0
DICTIONARY
  0
ENDSEC
  0
EOF
