  0
SECTION
  2
BLOCKS
  0
ENDSEC
  0
SECTION
  2
ENTITIES
  0
LINE
  8
0
 10
480
 20
50
 11
0
 21
50
  0
LINE
  8
0
 10
0
 20
50
 11
0
 21
-50
  0
LINE
  8
0
 10
0
 20
-50
 11
480
 21
-50
  0
LINE
  8
0
 10
480
 20
-50
 11
480
 21
50
  0
LINE
  8
0
 10
78.324
 20
-15.9465
 11
75.0451
 21
-15.2495
  0
LINE
  8
0
 10
75.0451
 20
-15.2495
 11
71.9828
 21
-13.8861
  0
LINE
  8
0
 10
71.9828
 20
-13.8861
 11
69.271
 21
-11.9158
  0
LINE
  8
0
 10
69.271
 20
-11.9158
 11
67.028
 21
-9.42471
  0
LINE
  8
0
 10
67.028
 20
-9.42471
 11
65.3519
 21
-6.52173
  0
LINE
  8
0
 10
65.3519
 20
-6.52173
 11
64.3161
 21
-3.33371
  0
LINE
  8
0
 10
64.3161
 20
-3.33371
 11
63.9657
 21
0
  0
LINE
  8
0
 10
63.9657
 20
0
 11
64.3161
 21
3.33371
  0
LINE
  8
0
 10
64.3161
 20
3.33371
 11
65.3519
 21
6.52173
  0
LINE
  8
0
 10
65.3519
 20
6.52173
 11
67.028
 21
9.42471
  0
LINE
  8
0
 10
67.028
 20
9.42471
 11
69.271
 21
11.9158
  0
LINE
  8
0
 10
69.271
 20
11.9158
 11
71.9828
 21
13.8861
  0
LINE
  8
0
 10
71.9828
 20
13.8861
 11
75.0451
 21
15.2495
  0
LINE
  8
0
 10
75.0451
 20
15.2495
 11
78.324
 21
15.9465
  0
LINE
  8
0
 10
78.324
 20
15.9465
 11
81.676
 21
15.9465
  0
LINE
  8
0
 10
81.676
 20
15.9465
 11
84.9549
 21
15.2495
  0
LINE
  8
0
 10
84.9549
 20
15.2495
 11
88.0172
 21
13.8861
  0
LINE
  8
0
 10
88.0172
 20
13.8861
 11
90.729
 21
11.9158
  0
LINE
  8
0
 10
90.729
 20
11.9158
 11
92.972
 21
9.42471
  0
LINE
  8
0
 10
92.972
 20
9.42471
 11
94.6481
 21
6.52173
  0
LINE
  8
0
 10
94.6481
 20
6.52173
 11
95.6839
 21
3.33371
  0
LINE
  8
0
 10
95.6839
 20
3.33371
 11
96.0343
 21
0
  0
LINE
  8
0
 10
96.0343
 20
0
 11
95.6839
 21
-3.33371
  0
LINE
  8
0
 10
95.6839
 20
-3.33371
 11
94.6481
 21
-6.52173
  0
LINE
  8
0
 10
94.6481
 20
-6.52173
 11
92.972
 21
-9.42471
  0
LINE
  8
0
 10
92.972
 20
-9.42471
 11
90.729
 21
-11.9158
  0
LINE
  8
0
 10
90.729
 20
-11.9158
 11
88.0172
 21
-13.8861
  0
LINE
  8
0
 10
88.0172
 20
-13.8861
 11
84.9549
 21
-15.2495
  0
LINE
  8
0
 10
84.9549
 20
-15.2495
 11
81.676
 21
-15.9465
  0
LINE
  8
0
 10
81.676
 20
-15.9465
 11
78.324
 21
-15.9465
  0
LINE
  8
0
 10
158.324
 20
-15.9465
 11
155.045
 21
-15.2495
  0
LINE
  8
0
 10
155.045
 20
-15.2495
 11
151.983
 21
-13.8861
  0
LINE
  8
0
 10
151.983
 20
-13.8861
 11
149.271
 21
-11.9158
  0
LINE
  8
0
 10
149.271
 20
-11.9158
 11
147.028
 21
-9.42471
  0
LINE
  8
0
 10
147.028
 20
-9.42471
 11
145.352
 21
-6.52173
  0
LINE
  8
0
 10
145.352
 20
-6.52173
 11
144.316
 21
-3.33371
  0
LINE
  8
0
 10
144.316
 20
-3.33371
 11
143.966
 21
0
  0
LINE
  8
0
 10
143.966
 20
0
 11
144.316
 21
3.33371
  0
LINE
  8
0
 10
144.316
 20
3.33371
 11
145.352
 21
6.52173
  0
LINE
  8
0
 10
145.352
 20
6.52173
 11
147.028
 21
9.42471
  0
LINE
  8
0
 10
147.028
 20
9.42471
 11
149.271
 21
11.9158
  0
LINE
  8
0
 10
149.271
 20
11.9158
 11
151.983
 21
13.8861
  0
LINE
  8
0
 10
151.983
 20
13.8861
 11
155.045
 21
15.2495
  0
LINE
  8
0
 10
155.045
 20
15.2495
 11
158.324
 21
15.9465
  0
LINE
  8
0
 10
158.324
 20
15.9465
 11
161.676
 21
15.9465
  0
LINE
  8
0
 10
161.676
 20
15.9465
 11
164.955
 21
15.2495
  0
LINE
  8
0
 10
164.955
 20
15.2495
 11
168.017
 21
13.8861
  0
LINE
  8
0
 10
168.017
 20
13.8861
 11
170.729
 21
11.9158
  0
LINE
  8
0
 10
170.729
 20
11.9158
 11
172.972
 21
9.42471
  0
LINE
  8
0
 10
172.972
 20
9.42471
 11
174.648
 21
6.52173
  0
LINE
  8
0
 10
174.648
 20
6.52173
 11
175.684
 21
3.33371
  0
LINE
  8
0
 10
175.684
 20
3.33371
 11
176.034
 21
0
  0
LINE
  8
0
 10
176.034
 20
0
 11
175.684
 21
-3.33371
  0
LINE
  8
0
 10
175.684
 20
-3.33371
 11
174.648
 21
-6.52173
  0
LINE
  8
0
 10
174.648
 20
-6.52173
 11
172.972
 21
-9.42471
  0
LINE
  8
0
 10
172.972
 20
-9.42471
 11
170.729
 21
-11.9158
  0
LINE
  8
0
 10
170.729
 20
-11.9158
 11
168.017
 21
-13.8861
  0
LINE
  8
0
 10
168.017
 20
-13.8861
 11
164.955
 21
-15.2495
  0
LINE
  8
0
 10
164.955
 20
-15.2495
 11
161.676
 21
-15.9465
  0
LINE
  8
0
 10
161.676
 20
-15.9465
 11
158.324
 21
-15.9465
  0
LINE
  8
0
 10
238.324
 20
-15.9465
 11
235.045
 21
-15.2495
  0
LINE
  8
0
 10
235.045
 20
-15.2495
 11
231.983
 21
-13.8861
  0
LINE
  8
0
 10
231.983
 20
-13.8861
 11
229.271
 21
-11.9158
  0
LINE
  8
0
 10
229.271
 20
-11.9158
 11
227.028
 21
-9.42471
  0
LINE
  8
0
 10
227.028
 20
-9.42471
 11
225.352
 21
-6.52173
  0
LINE
  8
0
 10
225.352
 20
-6.52173
 11
224.316
 21
-3.33371
  0
LINE
  8
0
 10
224.316
 20
-3.33371
 11
223.966
 21
0
  0
LINE
  8
0
 10
223.966
 20
0
 11
224.316
 21
3.33371
  0
LINE
  8
0
 10
224.316
 20
3.33371
 11
225.352
 21
6.52173
  0
LINE
  8
0
 10
225.352
 20
6.52173
 11
227.028
 21
9.42471
  0
LINE
  8
0
 10
227.028
 20
9.42471
 11
229.271
 21
11.9158
  0
LINE
  8
0
 10
229.271
 20
11.9158
 11
231.983
 21
13.8861
  0
LINE
  8
0
 10
231.983
 20
13.8861
 11
235.045
 21
15.2495
  0
LINE
  8
0
 10
235.045
 20
15.2495
 11
238.324
 21
15.9465
  0
LINE
  8
0
 10
238.324
 20
15.9465
 11
241.676
 21
15.9465
  0
LINE
  8
0
 10
241.676
 20
15.9465
 11
244.955
 21
15.2495
  0
LINE
  8
0
 10
244.955
 20
15.2495
 11
248.017
 21
13.8861
  0
LINE
  8
0
 10
248.017
 20
13.8861
 11
250.729
 21
11.9158
  0
LINE
  8
0
 10
250.729
 20
11.9158
 11
252.972
 21
9.42471
  0
LINE
  8
0
 10
252.972
 20
9.42471
 11
254.648
 21
6.52173
  0
LINE
  8
0
 10
254.648
 20
6.52173
 11
255.684
 21
3.33371
  0
LINE
  8
0
 10
255.684
 20
3.33371
 11
256.034
 21
0
  0
LINE
  8
0
 10
256.034
 20
0
 11
255.684
 21
-3.33371
  0
LINE
  8
0
 10
255.684
 20
-3.33371
 11
254.648
 21
-6.52173
  0
LINE
  8
0
 10
254.648
 20
-6.52173
 11
252.972
 21
-9.42471
  0
LINE
  8
0
 10
252.972
 20
-9.42471
 11
250.729
 21
-11.9158
  0
LINE
  8
0
 10
250.729
 20
-11.9158
 11
248.017
 21
-13.8861
  0
LINE
  8
0
 10
248.017
 20
-13.8861
 11
244.955
 21
-15.2495
  0
LINE
  8
0
 10
244.955
 20
-15.2495
 11
241.676
 21
-15.9465
  0
LINE
  8
0
 10
241.676
 20
-15.9465
 11
238.324
 21
-15.9465
  0
LINE
  8
0
 10
318.324
 20
-15.9465
 11
315.045
 21
-15.2495
  0
LINE
  8
0
 10
315.045
 20
-15.2495
 11
311.983
 21
-13.8861
  0
LINE
  8
0
 10
311.983
 20
-13.8861
 11
309.271
 21
-11.9158
  0
LINE
  8
0
 10
309.271
 20
-11.9158
 11
307.028
 21
-9.42471
  0
LINE
  8
0
 10
307.028
 20
-9.42471
 11
305.352
 21
-6.52173
  0
LINE
  8
0
 10
305.352
 20
-6.52173
 11
304.316
 21
-3.33371
  0
LINE
  8
0
 10
304.316
 20
-3.33371
 11
303.966
 21
0
  0
LINE
  8
0
 10
303.966
 20
0
 11
304.316
 21
3.33371
  0
LINE
  8
0
 10
304.316
 20
3.33371
 11
305.352
 21
6.52173
  0
LINE
  8
0
 10
305.352
 20
6.52173
 11
307.028
 21
9.42471
  0
LINE
  8
0
 10
307.028
 20
9.42471
 11
309.271
 21
11.9158
  0
LINE
  8
0
 10
309.271
 20
11.9158
 11
311.983
 21
13.8861
  0
LINE
  8
0
 10
311.983
 20
13.8861
 11
315.045
 21
15.2495
  0
LINE
  8
0
 10
315.045
 20
15.2495
 11
318.324
 21
15.9465
  0
LINE
  8
0
 10
318.324
 20
15.9465
 11
321.676
 21
15.9465
  0
LINE
  8
0
 10
321.676
 20
15.9465
 11
324.955
 21
15.2495
  0
LINE
  8
0
 10
324.955
 20
15.2495
 11
328.017
 21
13.8861
  0
LINE
  8
0
 10
328.017
 20
13.8861
 11
330.729
 21
11.9158
  0
LINE
  8
0
 10
330.729
 20
11.9158
 11
332.972
 21
9.42471
  0
LINE
  8
0
 10
332.972
 20
9.42471
 11
334.648
 21
6.52173
  0
LINE
  8
0
 10
334.648
 20
6.52173
 11
335.684
 21
3.33371
  0
LINE
  8
0
 10
335.684
 20
3.33371
 11
336.034
 21
0
  0
LINE
  8
0
 10
336.034
 20
0
 11
335.684
 21
-3.33371
  0
LINE
  8
0
 10
335.684
 20
-3.33371
 11
334.648
 21
-6.52173
  0
LINE
  8
0
 10
334.648
 20
-6.52173
 11
332.972
 21
-9.42471
  0
LINE
  8
0
 10
332.972
 20
-9.42471
 11
330.729
 21
-11.9158
  0
LINE
  8
0
 10
330.729
 20
-11.9158
 11
328.017
 21
-13.8861
  0
LINE
  8
0
 10
328.017
 20
-13.8861
 11
324.955
 21
-15.2495
  0
LINE
  8
0
 10
324.955
 20
-15.2495
 11
321.676
 21
-15.9465
  0
LINE
  8
0
 10
321.676
 20
-15.9465
 11
318.324
 21
-15.9465
  0
LINE
  8
0
 10
398.324
 20
-15.9465
 11
395.045
 21
-15.2495
  0
LINE
  8
0
 10
395.045
 20
-15.2495
 11
391.983
 21
-13.8861
  0
LINE
  8
0
 10
391.983
 20
-13.8861
 11
389.271
 21
-11.9158
  0
LINE
  8
0
 10
389.271
 20
-11.9158
 11
387.028
 21
-9.42471
  0
LINE
  8
0
 10
387.028
 20
-9.42471
 11
385.352
 21
-6.52173
  0
LINE
  8
0
 10
385.352
 20
-6.52173
 11
384.316
 21
-3.33371
  0
LINE
  8
0
 10
384.316
 20
-3.33371
 11
383.966
 21
0
  0
LINE
  8
0
 10
383.966
 20
0
 11
384.316
 21
3.33371
  0
LINE
  8
0
 10
384.316
 20
3.33371
 11
385.352
 21
6.52173
  0
LINE
  8
0
 10
385.352
 20
6.52173
 11
387.028
 21
9.42471
  0
LINE
  8
0
 10
387.028
 20
9.42471
 11
389.271
 21
11.9158
  0
LINE
  8
0
 10
389.271
 20
11.9158
 11
391.983
 21
13.8861
  0
LINE
  8
0
 10
391.983
 20
13.8861
 11
395.045
 21
15.2495
  0
LINE
  8
0
 10
395.045
 20
15.2495
 11
398.324
 21
15.9465
  0
LINE
  8
0
 10
398.324
 20
15.9465
 11
401.676
 21
15.9465
  0
LINE
  8
0
 10
401.676
 20
15.9465
 11
404.955
 21
15.2495
  0
LINE
  8
0
 10
404.955
 20
15.2495
 11
408.017
 21
13.8861
  0
LINE
  8
0
 10
408.017
 20
13.8861
 11
410.729
 21
11.9158
  0
LINE
  8
0
 10
410.729
 20
11.9158
 11
412.972
 21
9.42471
  0
LINE
  8
0
 10
412.972
 20
9.42471
 11
414.648
 21
6.52173
  0
LINE
  8
0
 10
414.648
 20
6.52173
 11
415.684
 21
3.33371
  0
LINE
  8
0
 10
415.684
 20
3.33371
 11
416.034
 21
0
  0
LINE
  8
0
 10
416.034
 20
0
 11
415.684
 21
-3.33371
  0
LINE
  8
0
 10
415.684
 20
-3.33371
 11
414.648
 21
-6.52173
  0
LINE
  8
0
 10
414.648
 20
-6.52173
 11
412.972
 21
-9.42471
  0
LINE
  8
0
 10
412.972
 20
-9.42471
 11
410.729
 21
-11.9158
  0
LINE
  8
0
 10
410.729
 20
-11.9158
 11
408.017
 21
-13.8861
  0
LINE
  8
0
 10
408.017
 20
-13.8861
 11
404.955
 21
-15.2495
  0
LINE
  8
0
 10
404.955
 20
-15.2495
 11
401.676
 21
-15.9465
  0
LINE
  8
0
 10
401.676
 20
-15.9465
 11
398.324
 21
-15.9465
  0
ENDSEC
  0
SECTION
  2
OBJECTS
  0
DICTIONARY
  0
ENDSEC
  0
EOF
