  0
SECTION
  2
BLOCKS
  0
ENDSEC
  0
SECTION
  2
ENTITIES
  0
LINE
  8
0
 10
480
 20
50
 11
0
 21
50
  0
LINE
  8
0
 10
0
 20
50
 11
0
 21
-50
  0
LINE
  8
0
 10
0
 20
-50
 11
480
 21
-50
  0
LINE
  8
0
 10
480
 20
-50
 11
480
 21
50
  0
LINE
  8
0
 10
76.7596
 20
-30.8302
 11
70.4205
 21
-29.4827
  0
LINE
  8
0
 10
70.4205
 20
-29.4827
 11
64.5
 21
-26.8468
  0
LINE
  8
0
 10
64.5
 20
-26.8468
 11
59.2569
 21
-23.0375
  0
LINE
  8
0
 10
59.2569
 20
-23.0375
 11
54.9205
 21
-18.2213
  0
LINE
  8
0
 10
54.9205
 20
-18.2213
 11
51.6801
 21
-12.6088
  0
LINE
  8
0
 10
51.6801
 20
-12.6088
 11
49.6774
 21
-6.44525
  0
LINE
  8
0
 10
49.6774
 20
-6.44525
 11
49
 21
0
  0
LINE
  8
0
 10
49
 20
0
 11
49.6774
 21
6.44525
  0
LINE
  8
0
 10
49.6774
 20
6.44525
 11
51.6801
 21
12.6088
  0
LINE
  8
0
 10
51.6801
 20
12.6088
 11
54.9205
 21
18.2213
  0
LINE
  8
0
 10
54.9205
 20
18.2213
 11
59.2569
 21
23.0375
  0
LINE
  8
0
 10
59.2569
 20
23.0375
 11
64.5
 21
26.8468
  0
LINE
  8
0
 10
64.5
 20
26.8468
 11
70.4205
 21
29.4827
  0
LINE
  8
0
 10
70.4205
 20
29.4827
 11
76.7596
 21
30.8302
  0
LINE
  8
0
 10
76.7596
 20
30.8302
 11
83.2404
 21
30.8302
  0
LINE
  8
0
 10
83.2404
 20
30.8302
 11
89.5795
 21
29.4827
  0
LINE
  8
0
 10
89.5795
 20
29.4827
 11
95.5
 21
26.8468
  0
LINE
  8
0
 10
95.5
 20
26.8468
 11
100.743
 21
23.0375
  0
LINE
  8
0
 10
100.743
 20
23.0375
 11
105.08
 21
18.2213
  0
LINE
  8
0
 10
105.08
 20
18.2213
 11
108.32
 21
12.6088
  0
LINE
  8
0
 10
108.32
 20
12.6088
 11
110.323
 21
6.44525
  0
LINE
  8
0
 10
110.323
 20
6.44525
 11
111
 21
0
  0
LINE
  8
0
 10
111
 20
0
 11
110.323
 21
-6.44525
  0
LINE
  8
0
 10
110.323
 20
-6.44525
 11
108.32
 21
-12.6088
  0
LINE
  8
0
 10
108.32
 20
-12.6088
 11
105.08
 21
-18.2213
  0
LINE
  8
0
 10
105.08
 20
-18.2213
 11
100.743
 21
-23.0375
  0
LINE
  8
0
 10
100.743
 20
-23.0375
 11
95.5
 21
-26.8468
  0
LINE
  8
0
 10
95.5
 20
-26.8468
 11
89.5795
 21
-29.4827
  0
LINE
  8
0
 10
89.5795
 20
-29.4827
 11
83.2404
 21
-30.8302
  0
LINE
  8
0
 10
83.2404
 20
-30.8302
 11
76.7596
 21
-30.8302
  0
LINE
  8
0
 10
156.76
 20
-30.8302
 11
150.42
 21
-29.4827
  0
LINE
  8
0
 10
150.42
 20
-29.4827
 11
144.5
 21
-26.8468
  0
LINE
  8
0
 10
144.5
 20
-26.8468
 11
139.257
 21
-23.0375
  0
LINE
  8
0
 10
139.257
 20
-23.0375
 11
134.92
 21
-18.2213
  0
LINE
  8
0
 10
134.92
 20
-18.2213
 11
131.68
 21
-12.6088
  0
LINE
  8
0
 10
131.68
 20
-12.6088
 11
129.677
 21
-6.44525
  0
LINE
  8
0
 10
129.677
 20
-6.44525
 11
129
 21
0
  0
LINE
  8
0
 10
129
 20
0
 11
129.677
 21
6.44525
  0
LINE
  8
0
 10
129.677
 20
6.44525
 11
131.68
 21
12.6088
  0
LINE
  8
0
 10
131.68
 20
12.6088
 11
134.92
 21
18.2213
  0
LINE
  8
0
 10
134.92
 20
18.2213
 11
139.257
 21
23.0375
  0
LINE
  8
0
 10
139.257
 20
23.0375
 11
144.5
 21
26.8468
  0
LINE
  8
0
 10
144.5
 20
26.8468
 11
150.42
 21
29.4827
  0
LINE
  8
0
 10
150.42
 20
29.4827
 11
156.76
 21
30.8302
  0
LINE
  8
0
 10
156.76
 20
30.8302
 11
163.24
 21
30.8302
  0
LINE
  8
0
 10
163.24
 20
30.8302
 11
169.58
 21
29.4827
  0
LINE
  8
0
 10
169.58
 20
29.4827
 11
175.5
 21
26.8468
  0
LINE
  8
0
 10
175.5
 20
26.8468
 11
180.743
 21
23.0375
  0
LINE
  8
0
 10
180.743
 20
23.0375
 11
185.08
 21
18.2213
  0
LINE
  8
0
 10
185.08
 20
18.2213
 11
188.32
 21
12.6088
  0
LINE
  8
0
 10
188.32
 20
12.6088
 11
190.323
 21
6.44525
  0
LINE
  8
0
 10
190.323
 20
6.44525
 11
191
 21
0
  0
LINE
  8
0
 10
191
 20
0
 11
190.323
 21
-6.44525
  0
LINE
  8
0
 10
190.323
 20
-6.44525
 11
188.32
 21
-12.6088
  0
LINE
  8
0
 10
188.32
 20
-12.6088
 11
185.08
 21
-18.2213
  0
LINE
  8
0
 10
185.08
 20
-18.2213
 11
180.743
 21
-23.0375
  0
LINE
  8
0
 10
180.743
 20
-23.0375
 11
175.5
 21
-26.8468
  0
LINE
  8
0
 10
175.5
 20
-26.8468
 11
169.58
 21
-29.4827
  0
LINE
  8
0
 10
169.58
 20
-29.4827
 11
163.24
 21
-30.8302
  0
LINE
  8
0
 10
163.24
 20
-30.8302
 11
156.76
 21
-30.8302
  0
LINE
  8
0
 10
236.76
 20
-30.8302
 11
230.42
 21
-29.4827
  0
LINE
  8
0
 10
230.42
 20
-29.4827
 11
224.5
 21
-26.8468
  0
LINE
  8
0
 10
224.5
 20
-26.8468
 11
219.257
 21
-23.0375
  0
LINE
  8
0
 10
219.257
 20
-23.0375
 11
214.92
 21
-18.2213
  0
LINE
  8
0
 10
214.92
 20
-18.2213
 11
211.68
 21
-12.6088
  0
LINE
  8
0
 10
211.68
 20
-12.6088
 11
209.677
 21
-6.44525
  0
LINE
  8
0
 10
209.677
 20
-6.44525
 11
209
 21
0
  0
LINE
  8
0
 10
209
 20
0
 11
209.677
 21
6.44525
  0
LINE
  8
0
 10
209.677
 20
6.44525
 11
211.68
 21
12.6088
  0
LINE
  8
0
 10
211.68
 20
12.6088
 11
214.92
 21
18.2213
  0
LINE
  8
0
 10
214.92
 20
18.2213
 11
219.257
 21
23.0375
  0
LINE
  8
0
 10
219.257
 20
23.0375
 11
224.5
 21
26.8468
  0
LINE
  8
0
 10
224.5
 20
26.8468
 11
230.42
 21
29.4827
  0
LINE
  8
0
 10
230.42
 20
29.4827
 11
236.76
 21
30.8302
  0
LINE
  8
0
 10
236.76
 20
30.8302
 11
243.24
 21
30.8302
  0
LINE
  8
0
 10
243.24
 20
30.8302
 11
249.58
 21
29.4827
  0
LINE
  8
0
 10
249.58
 20
29.4827
 11
255.5
 21
26.8468
  0
LINE
  8
0
 10
255.5
 20
26.8468
 11
260.743
 21
23.0375
  0
LINE
  8
0
 10
260.743
 20
23.0375
 11
265.08
 21
18.2213
  0
LINE
  8
0
 10
265.08
 20
18.2213
 11
268.32
 21
12.6088
  0
LINE
  8
0
 10
268.32
 20
12.6088
 11
270.323
 21
6.44525
  0
LINE
  8
0
 10
270.323
 20
6.44525
 11
271
 21
0
  0
LINE
  8
0
 10
271
 20
0
 11
270.323
 21
-6.44525
  0
LINE
  8
0
 10
270.323
 20
-6.44525
 11
268.32
 21
-12.6088
  0
LINE
  8
0
 10
268.32
 20
-12.6088
 11
265.08
 21
-18.2213
  0
LINE
  8
0
 10
265.08
 20
-18.2213
 11
260.743
 21
-23.0375
  0
LINE
  8
0
 10
260.743
 20
-23.0375
 11
255.5
 21
-26.8468
  0
LINE
  8
0
 10
255.5
 20
-26.8468
 11
249.58
 21
-29.4827
  0
LINE
  8
0
 10
249.58
 20
-29.4827
 11
243.24
 21
-30.8302
  0
LINE
  8
0
 10
243.24
 20
-30.8302
 11
236.76
 21
-30.8302
  0
LINE
  8
0
 10
316.76
 20
-30.8302
 11
310.42
 21
-29.4827
  0
LINE
  8
0
 10
310.42
 20
-29.4827
 11
304.5
 21
-26.8468
  0
LINE
  8
0
 10
304.5
 20
-26.8468
 11
299.257
 21
-23.0375
  0
LINE
  8
0
 10
299.257
 20
-23.0375
 11
294.92
 21
-18.2213
  0
LINE
  8
0
 10
294.92
 20
-18.2213
 11
291.68
 21
-12.6088
  0
LINE
  8
0
 10
291.68
 20
-12.6088
 11
289.677
 21
-6.44525
  0
LINE
  8
0
 10
289.677
 20
-6.44525
 11
289
 21
0
  0
LINE
  8
0
 10
289
 20
0
 11
289.677
 21
6.44525
  0
LINE
  8
0
 10
289.677
 20
6.44525
 11
291.68
 21
12.6088
  0
LINE
  8
0
 10
291.68
 20
12.6088
 11
294.92
 21
18.2213
  0
LINE
  8
0
 10
294.92
 20
18.2213
 11
299.257
 21
23.0375
  0
LINE
  8
0
 10
299.257
 20
23.0375
 11
304.5
 21
26.8468
  0
LINE
  8
0
 10
304.5
 20
26.8468
 11
310.42
 21
29.4827
  0
LINE
  8
0
 10
310.42
 20
29.4827
 11
316.76
 21
30.8302
  0
LINE
  8
0
 10
316.76
 20
30.8302
 11
323.24
 21
30.8302
  0
LINE
  8
0
 10
323.24
 20
30.8302
 11
329.58
 21
29.4827
  0
LINE
  8
0
 10
329.58
 20
29.4827
 11
335.5
 21
26.8468
  0
LINE
  8
0
 10
335.5
 20
26.8468
 11
340.743
 21
23.0375
  0
LINE
  8
0
 10
340.743
 20
23.0375
 11
345.08
 21
18.2213
  0
LINE
  8
0
 10
345.08
 20
18.2213
 11
348.32
 21
12.6088
  0
LINE
  8
0
 10
348.32
 20
12.6088
 11
350.323
 21
6.44525
  0
LINE
  8
0
 10
350.323
 20
6.44525
 11
351
 21
0
  0
LINE
  8
0
 10
351
 20
0
 11
350.323
 21
-6.44525
  0
LINE
  8
0
 10
350.323
 20
-6.44525
 11
348.32
 21
-12.6088
  0
LINE
  8
0
 10
348.32
 20
-12.6088
 11
345.08
 21
-18.2213
  0
LINE
  8
0
 10
345.08
 20
-18.2213
 11
340.743
 21
-23.0375
  0
LINE
  8
0
 10
340.743
 20
-23.0375
 11
335.5
 21
-26.8468
  0
LINE
  8
0
 10
335.5
 20
-26.8468
 11
329.58
 21
-29.4827
  0
LINE
  8
0
 10
329.58
 20
-29.4827
 11
323.24
 21
-30.8302
  0
LINE
  8
0
 10
323.24
 20
-30.8302
 11
316.76
 21
-30.8302
  0
LINE
  8
0
 10
396.76
 20
-30.8302
 11
390.42
 21
-29.4827
  0
LINE
  8
0
 10
390.42
 20
-29.4827
 11
384.5
 21
-26.8468
  0
LINE
  8
0
 10
384.5
 20
-26.8468
 11
379.257
 21
-23.0375
  0
LINE
  8
0
 10
379.257
 20
-23.0375
 11
374.92
 21
-18.2213
  0
LINE
  8
0
 10
374.92
 20
-18.2213
 11
371.68
 21
-12.6088
  0
LINE
  8
0
 10
371.68
 20
-12.6088
 11
369.677
 21
-6.44525
  0
LINE
  8
0
 10
369.677
 20
-6.44525
 11
369
 21
0
  0
LINE
  8
0
 10
369
 20
0
 11
369.677
 21
6.44525
  0
LINE
  8
0
 10
369.677
 20
6.44525
 11
371.68
 21
12.6088
  0
LINE
  8
0
 10
371.68
 20
12.6088
 11
374.92
 21
18.2213
  0
LINE
  8
0
 10
374.92
 20
18.2213
 11
379.257
 21
23.0375
  0
LINE
  8
0
 10
379.257
 20
23.0375
 11
384.5
 21
26.8468
  0
LINE
  8
0
 10
384.5
 20
26.8468
 11
390.42
 21
29.4827
  0
LINE
  8
0
 10
390.42
 20
29.4827
 11
396.76
 21
30.8302
  0
LINE
  8
0
 10
396.76
 20
30.8302
 11
403.24
 21
30.8302
  0
LINE
  8
0
 10
403.24
 20
30.8302
 11
409.58
 21
29.4827
  0
LINE
  8
0
 10
409.58
 20
29.4827
 11
415.5
 21
26.8468
  0
LINE
  8
0
 10
415.5
 20
26.8468
 11
420.743
 21
23.0375
  0
LINE
  8
0
 10
420.743
 20
23.0375
 11
425.08
 21
18.2213
  0
LINE
  8
0
 10
425.08
 20
18.2213
 11
428.32
 21
12.6088
  0
LINE
  8
0
 10
428.32
 20
12.6088
 11
430.323
 21
6.44525
  0
LINE
  8
0
 10
430.323
 20
6.44525
 11
431
 21
0
  0
LINE
  8
0
 10
431
 20
0
 11
430.323
 21
-6.44525
  0
LINE
  8
0
 10
430.323
 20
-6.44525
 11
428.32
 21
-12.6088
  0
LINE
  8
0
 10
428.32
 20
-12.6088
 11
425.08
 21
-18.2213
  0
LINE
  8
0
 10
425.08
 20
-18.2213
 11
420.743
 21
-23.0375
  0
LINE
  8
0
 10
420.743
 20
-23.0375
 11
415.5
 21
-26.8468
  0
LINE
  8
0
 10
415.5
 20
-26.8468
 11
409.58
 21
-29.4827
  0
LINE
  8
0
 10
409.58
 20
-29.4827
 11
403.24
 21
-30.8302
  0
LINE
  8
0
 10
403.24
 20
-30.8302
 11
396.76
 21
-30.8302
  0
ENDSEC
  0
SECTION
  2
OBJECTS
  0
DICTIONARY
  0
ENDSEC
  0
EOF
