  0
SECTION
  2
BLOCKS
  0
ENDSEC
  0
SECTION
  2
ENTITIES
  0
LINE
  8
0
 10
-120
 11
-119.763
 20
0
 21
7.535
  0
LINE
  8
0
 10
-119.763
 11
-119.054
 20
7.535
 21
15.04
  0
LINE
  8
0
 10
-119.054
 11
-117.874
 20
15.04
 21
22.486
  0
LINE
  8
0
 10
-117.874
 11
-116.23
 20
22.486
 21
29.843
  0
LINE
  8
0
 10
-116.23
 11
-114.127
 20
29.843
 21
37.082
  0
LINE
  8
0
 10
-114.127
 11
-111.573
 20
37.082
 21
44.175
  0
LINE
  8
0
 10
-111.573
 11
-108.579
 20
44.175
 21
51.094
  0
LINE
  8
0
 10
-108.579
 11
-105.157
 20
51.094
 21
57.81
  0
LINE
  8
0
 10
-105.157
 11
-101.319
 20
57.81
 21
64.299
  0
LINE
  8
0
 10
-101.319
 11
-97.082
 20
64.299
 21
70.534
  0
LINE
  8
0
 10
-97.082
 11
-92.462
 20
70.534
 21
76.491
  0
LINE
  8
0
 10
-92.462
 11
-87.476
 20
76.491
 21
82.146
  0
LINE
  8
0
 10
-87.476
 11
-82.146
 20
82.146
 21
87.476
  0
LINE
  8
0
 10
-82.146
 11
-76.491
 20
87.476
 21
92.462
  0
LINE
  8
0
 10
-76.491
 11
-70.534
 20
92.462
 21
97.082
  0
LINE
  8
0
 10
-70.534
 11
-64.299
 20
97.082
 21
101.319
  0
LINE
  8
0
 10
-64.299
 11
-57.81
 20
101.319
 21
105.157
  0
LINE
  8
0
 10
-57.81
 11
-51.094
 20
105.157
 21
108.579
  0
LINE
  8
0
 10
-51.094
 11
-44.175
 20
108.579
 21
111.573
  0
LINE
  8
0
 10
-44.175
 11
-37.082
 20
111.573
 21
114.127
  0
LINE
  8
0
 10
-37.082
 11
-29.843
 20
114.127
 21
116.23
  0
LINE
  8
0
 10
-29.843
 11
-22.486
 20
116.23
 21
117.874
  0
LINE
  8
0
 10
-22.486
 11
-15.04
 20
117.874
 21
119.054
  0
LINE
  8
0
 10
-15.04
 11
-7.535
 20
119.054
 21
119.763
  0
LINE
  8
0
 10
-7.535
 11
0
 20
119.763
 21
120
  0
LINE
  8
0
 10
0
 11
7.535
 20
120
 21
119.763
  0
LINE
  8
0
 10
7.535
 11
15.04
 20
119.763
 21
119.054
  0
LINE
  8
0
 10
15.04
 11
22.486
 20
119.054
 21
117.874
  0
LINE
  8
0
 10
22.486
 11
29.843
 20
117.874
 21
116.23
  0
LINE
  8
0
 10
29.843
 11
37.082
 20
116.23
 21
114.127
  0
LINE
  8
0
 10
37.082
 11
44.175
 20
114.127
 21
111.573
  0
LINE
  8
0
 10
44.175
 11
51.094
 20
111.573
 21
108.579
  0
LINE
  8
0
 10
51.094
 11
57.81
 20
108.579
 21
105.157
  0
LINE
  8
0
 10
57.81
 11
64.299
 20
105.157
 21
101.319
  0
LINE
  8
0
 10
64.299
 11
70.534
 20
101.319
 21
97.082
  0
LINE
  8
0
 10
70.534
 11
76.491
 20
97.082
 21
92.462
  0
LINE
  8
0
 10
76.491
 11
82.146
 20
92.462
 21
87.476
  0
LINE
  8
0
 10
82.146
 11
87.476
 20
87.476
 21
82.146
  0
LINE
  8
0
 10
87.476
 11
92.462
 20
82.146
 21
76.491
  0
LINE
  8
0
 10
92.462
 11
97.082
 20
76.491
 21
70.534
  0
LINE
  8
0
 10
97.082
 11
101.319
 20
70.534
 21
64.299
  0
LINE
  8
0
 10
101.319
 11
105.157
 20
64.299
 21
57.81
  0
LINE
  8
0
 10
105.157
 11
108.579
 20
57.81
 21
51.094
  0
LINE
  8
0
 10
108.579
 11
111.573
 20
51.094
 21
44.175
  0
LINE
  8
0
 10
111.573
 11
114.127
 20
44.175
 21
37.082
  0
LINE
  8
0
 10
114.127
 11
116.23
 20
37.082
 21
29.843
  0
LINE
  8
0
 10
116.23
 11
117.874
 20
29.843
 21
22.486
  0
LINE
  8
0
 10
117.874
 11
119.054
 20
22.486
 21
15.04
  0
LINE
  8
0
 10
119.054
 11
119.763
 20
15.04
 21
7.535
  0
LINE
  8
0
 10
119.763
 11
120
 20
7.535
 21
0
  0
LINE
  8
0
 10
120
 11
119.763
 20
0
 21
-7.535
  0
LINE
  8
0
 10
119.763
 11
119.054
 20
-7.535
 21
-15.04
  0
LINE
  8
0
 10
119.054
 11
117.874
 20
-15.04
 21
-22.486
  0
LINE
  8
0
 10
117.874
 11
116.23
 20
-22.486
 21
-29.843
  0
LINE
  8
0
 10
116.23
 11
114.127
 20
-29.843
 21
-37.082
  0
LINE
  8
0
 10
114.127
 11
111.573
 20
-37.082
 21
-44.175
  0
LINE
  8
0
 10
111.573
 11
108.579
 20
-44.175
 21
-51.094
  0
LINE
  8
0
 10
108.579
 11
105.157
 20
-51.094
 21
-57.81
  0
LINE
  8
0
 10
105.157
 11
101.319
 20
-57.81
 21
-64.299
  0
LINE
  8
0
 10
101.319
 11
97.082
 20
-64.299
 21
-70.534
  0
LINE
  8
0
 10
97.082
 11
92.462
 20
-70.534
 21
-76.491
  0
LINE
  8
0
 10
92.462
 11
87.476
 20
-76.491
 21
-82.146
  0
LINE
  8
0
 10
87.476
 11
82.146
 20
-82.146
 21
-87.476
  0
LINE
  8
0
 10
82.146
 11
76.491
 20
-87.476
 21
-92.462
  0
LINE
  8
0
 10
76.491
 11
70.534
 20
-92.462
 21
-97.082
  0
LINE
  8
0
 10
70.534
 11
64.299
 20
-97.082
 21
-101.319
  0
LINE
  8
0
 10
64.299
 11
57.81
 20
-101.319
 21
-105.157
  0
LINE
  8
0
 10
57.81
 11
51.094
 20
-105.157
 21
-108.579
  0
LINE
  8
0
 10
51.094
 11
44.175
 20
-108.579
 21
-111.573
  0
LINE
  8
0
 10
44.175
 11
37.082
 20
-111.573
 21
-114.127
  0
LINE
  8
0
 10
37.082
 11
29.843
 20
-114.127
 21
-116.23
  0
LINE
  8
0
 10
29.843
 11
22.486
 20
-116.23
 21
-117.874
  0
LINE
  8
0
 10
22.486
 11
15.04
 20
-117.874
 21
-119.054
  0
LINE
  8
0
 10
15.04
 11
7.535
 20
-119.054
 21
-119.763
  0
LINE
  8
0
 10
7.535
 11
0
 20
-119.763
 21
-120
  0
LINE
  8
0
 10
0
 11
-7.535
 20
-120
 21
-119.763
  0
LINE
  8
0
 10
-7.535
 11
-15.04
 20
-119.763
 21
-119.054
  0
LINE
  8
0
 10
-15.04
 11
-22.486
 20
-119.054
 21
-117.874
  0
LINE
  8
0
 10
-22.486
 11
-29.843
 20
-117.874
 21
-116.23
  0
LINE
  8
0
 10
-29.843
 11
-37.082
 20
-116.23
 21
-114.127
  0
LINE
  8
0
 10
-37.082
 11
-44.175
 20
-114.127
 21
-111.573
  0
LINE
  8
0
 10
-44.175
 11
-51.094
 20
-111.573
 21
-108.579
  0
LINE
  8
0
 10
-51.094
 11
-57.81
 20
-108.579
 21
-105.157
  0
LINE
  8
0
 10
-57.81
 11
-64.299
 20
-105.157
 21
-101.319
  0
LINE
  8
0
 10
-64.299
 11
-70.534
 20
-101.319
 21
-97.082
  0
LINE
  8
0
 10
-70.534
 11
-76.491
 20
-97.082
 21
-92.462
  0
LINE
  8
0
 10
-76.491
 11
-82.146
 20
-92.462
 21
-87.476
  0
LINE
  8
0
 10
-82.146
 11
-87.476
 20
-87.476
 21
-82.146
  0
LINE
  8
0
 10
-87.476
 11
-92.462
 20
-82.146
 21
-76.491
  0
LINE
  8
0
 10
-92.462
 11
-97.082
 20
-76.491
 21
-70.534
  0
LINE
  8
0
 10
-97.082
 11
-101.319
 20
-70.534
 21
-64.299
  0
LINE
  8
0
 10
-101.319
 11
-105.157
 20
-64.299
 21
-57.81
  0
LINE
  8
0
 10
-105.157
 11
-108.579
 20
-57.81
 21
-51.094
  0
LINE
  8
0
 10
-108.579
 11
-111.573
 20
-51.094
 21
-44.175
  0
LINE
  8
0
 10
-111.573
 11
-114.127
 20
-44.175
 21
-37.082
  0
LINE
  8
0
 10
-114.127
 11
-116.23
 20
-37.082
 21
-29.843
  0
LINE
  8
0
 10
-116.23
 11
-117.874
 20
-29.843
 21
-22.486
  0
LINE
  8
0
 10
-117.874
 11
-119.054
 20
-22.486
 21
-15.04
  0
LINE
  8
0
 10
-119.054
 11
-119.763
 20
-15.04
 21
-7.535
  0
LINE
  8
0
 10
-119.763
 11
-120
 20
-7.535
 21
0
  0
LINE
  8
0
 10
13
 11
13.04
 20
0
 21
1.287
  0
LINE
  8
0
 10
13.04
 11
13.162
 20
1.287
 21
2.569
  0
LINE
  8
0
 10
13.162
 11
13.363
 20
2.569
 21
3.841
  0
LINE
  8
0
 10
13.363
 11
13.644
 20
3.841
 21
5.098
  0
LINE
  8
0
 10
13.644
 11
14.003
 20
5.098
 21
6.335
  0
LINE
  8
0
 10
14.003
 11
14.44
 20
6.335
 21
7.547
  0
LINE
  8
0
 10
14.44
 11
14.951
 20
7.547
 21
8.728
  0
LINE
  8
0
 10
14.951
 11
15.536
 20
8.728
 21
9.876
  0
LINE
  8
0
 10
15.536
 11
16.191
 20
9.876
 21
10.984
  0
LINE
  8
0
 10
16.191
 11
16.915
 20
10.984
 21
12.05
  0
LINE
  8
0
 10
16.915
 11
17.704
 20
12.05
 21
13.067
  0
LINE
  8
0
 10
17.704
 11
18.556
 20
13.067
 21
14.033
  0
LINE
  8
0
 10
18.556
 11
19.467
 20
14.033
 21
14.944
  0
LINE
  8
0
 10
19.467
 11
20.433
 20
14.944
 21
15.796
  0
LINE
  8
0
 10
20.433
 11
21.45
 20
15.796
 21
16.585
  0
LINE
  8
0
 10
21.45
 11
22.516
 20
16.585
 21
17.309
  0
LINE
  8
0
 10
22.516
 11
23.624
 20
17.309
 21
17.964
  0
LINE
  8
0
 10
23.624
 11
24.772
 20
17.964
 21
18.549
  0
LINE
  8
0
 10
24.772
 11
25.953
 20
18.549
 21
19.06
  0
LINE
  8
0
 10
25.953
 11
27.165
 20
19.06
 21
19.497
  0
LINE
  8
0
 10
27.165
 11
28.402
 20
19.497
 21
19.856
  0
LINE
  8
0
 10
28.402
 11
29.659
 20
19.856
 21
20.137
  0
LINE
  8
0
 10
29.659
 11
30.931
 20
20.137
 21
20.338
  0
LINE
  8
0
 10
30.931
 11
32.213
 20
20.338
 21
20.46
  0
LINE
  8
0
 10
32.213
 11
33.5
 20
20.46
 21
20.5
  0
LINE
  8
0
 10
33.5
 11
34.787
 20
20.5
 21
20.46
  0
LINE
  8
0
 10
34.787
 11
36.069
 20
20.46
 21
20.338
  0
LINE
  8
0
 10
36.069
 11
37.341
 20
20.338
 21
20.137
  0
LINE
  8
0
 10
37.341
 11
38.598
 20
20.137
 21
19.856
  0
LINE
  8
0
 10
38.598
 11
39.835
 20
19.856
 21
19.497
  0
LINE
  8
0
 10
39.835
 11
41.047
 20
19.497
 21
19.06
  0
LINE
  8
0
 10
41.047
 11
42.228
 20
19.06
 21
18.549
  0
LINE
  8
0
 10
42.228
 11
43.376
 20
18.549
 21
17.964
  0
LINE
  8
0
 10
43.376
 11
44.484
 20
17.964
 21
17.309
  0
LINE
  8
0
 10
44.484
 11
45.55
 20
17.309
 21
16.585
  0
LINE
  8
0
 10
45.55
 11
46.567
 20
16.585
 21
15.796
  0
LINE
  8
0
 10
46.567
 11
47.533
 20
15.796
 21
14.944
  0
LINE
  8
0
 10
47.533
 11
48.444
 20
14.944
 21
14.033
  0
LINE
  8
0
 10
48.444
 11
49.296
 20
14.033
 21
13.067
  0
LINE
  8
0
 10
49.296
 11
50.085
 20
13.067
 21
12.05
  0
LINE
  8
0
 10
50.085
 11
50.809
 20
12.05
 21
10.984
  0
LINE
  8
0
 10
50.809
 11
51.464
 20
10.984
 21
9.876
  0
LINE
  8
0
 10
51.464
 11
52.049
 20
9.876
 21
8.728
  0
LINE
  8
0
 10
52.049
 11
52.56
 20
8.728
 21
7.547
  0
LINE
  8
0
 10
52.56
 11
52.997
 20
7.547
 21
6.335
  0
LINE
  8
0
 10
52.997
 11
53.356
 20
6.335
 21
5.098
  0
LINE
  8
0
 10
53.356
 11
53.637
 20
5.098
 21
3.841
  0
LINE
  8
0
 10
53.637
 11
53.838
 20
3.841
 21
2.569
  0
LINE
  8
0
 10
53.838
 11
53.96
 20
2.569
 21
1.287
  0
LINE
  8
0
 10
53.96
 11
54
 20
1.287
 21
0
  0
LINE
  8
0
 10
54
 11
53.96
 20
0
 21
-1.287
  0
LINE
  8
0
 10
53.96
 11
53.838
 20
-1.287
 21
-2.569
  0
LINE
  8
0
 10
53.838
 11
53.637
 20
-2.569
 21
-3.841
  0
LINE
  8
0
 10
53.637
 11
53.356
 20
-3.841
 21
-5.098
  0
LINE
  8
0
 10
53.356
 11
52.997
 20
-5.098
 21
-6.335
  0
LINE
  8
0
 10
52.997
 11
52.56
 20
-6.335
 21
-7.547
  0
LINE
  8
0
 10
52.56
 11
52.049
 20
-7.547
 21
-8.728
  0
LINE
  8
0
 10
52.049
 11
51.464
 20
-8.728
 21
-9.876
  0
LINE
  8
0
 10
51.464
 11
50.809
 20
-9.876
 21
-10.984
  0
LINE
  8
0
 10
50.809
 11
50.085
 20
-10.984
 21
-12.05
  0
LINE
  8
0
 10
50.085
 11
49.296
 20
-12.05
 21
-13.067
  0
LINE
  8
0
 10
49.296
 11
48.444
 20
-13.067
 21
-14.033
  0
LINE
  8
0
 10
48.444
 11
47.533
 20
-14.033
 21
-14.944
  0
LINE
  8
0
 10
47.533
 11
46.567
 20
-14.944
 21
-15.796
  0
LINE
  8
0
 10
46.567
 11
45.55
 20
-15.796
 21
-16.585
  0
LINE
  8
0
 10
45.55
 11
44.484
 20
-16.585
 21
-17.309
  0
LINE
  8
0
 10
44.484
 11
43.376
 20
-17.309
 21
-17.964
  0
LINE
  8
0
 10
43.376
 11
42.228
 20
-17.964
 21
-18.549
  0
LINE
  8
0
 10
42.228
 11
41.047
 20
-18.549
 21
-19.06
  0
LINE
  8
0
 10
41.047
 11
39.835
 20
-19.06
 21
-19.497
  0
LINE
  8
0
 10
39.835
 11
38.598
 20
-19.497
 21
-19.856
  0
LINE
  8
0
 10
38.598
 11
37.341
 20
-19.856
 21
-20.137
  0
LINE
  8
0
 10
37.341
 11
36.069
 20
-20.137
 21
-20.338
  0
LINE
  8
0
 10
36.069
 11
34.787
 20
-20.338
 21
-20.46
  0
LINE
  8
0
 10
34.787
 11
33.5
 20
-20.46
 21
-20.5
  0
LINE
  8
0
 10
33.5
 11
32.213
 20
-20.5
 21
-20.46
  0
LINE
  8
0
 10
32.213
 11
30.931
 20
-20.46
 21
-20.338
  0
LINE
  8
0
 10
30.931
 11
29.659
 20
-20.338
 21
-20.137
  0
LINE
  8
0
 10
29.659
 11
28.402
 20
-20.137
 21
-19.856
  0
LINE
  8
0
 10
28.402
 11
27.165
 20
-19.856
 21
-19.497
  0
LINE
  8
0
 10
27.165
 11
25.953
 20
-19.497
 21
-19.06
  0
LINE
  8
0
 10
25.953
 11
24.772
 20
-19.06
 21
-18.549
  0
LINE
  8
0
 10
24.772
 11
23.624
 20
-18.549
 21
-17.964
  0
LINE
  8
0
 10
23.624
 11
22.516
 20
-17.964
 21
-17.309
  0
LINE
  8
0
 10
22.516
 11
21.45
 20
-17.309
 21
-16.585
  0
LINE
  8
0
 10
21.45
 11
20.433
 20
-16.585
 21
-15.796
  0
LINE
  8
0
 10
20.433
 11
19.467
 20
-15.796
 21
-14.944
  0
LINE
  8
0
 10
19.467
 11
18.556
 20
-14.944
 21
-14.033
  0
LINE
  8
0
 10
18.556
 11
17.704
 20
-14.033
 21
-13.067
  0
LINE
  8
0
 10
17.704
 11
16.915
 20
-13.067
 21
-12.05
  0
LINE
  8
0
 10
16.915
 11
16.191
 20
-12.05
 21
-10.984
  0
LINE
  8
0
 10
16.191
 11
15.536
 20
-10.984
 21
-9.876
  0
LINE
  8
0
 10
15.536
 11
14.951
 20
-9.876
 21
-8.728
  0
LINE
  8
0
 10
14.951
 11
14.44
 20
-8.728
 21
-7.547
  0
LINE
  8
0
 10
14.44
 11
14.003
 20
-7.547
 21
-6.335
  0
LINE
  8
0
 10
14.003
 11
13.644
 20
-6.335
 21
-5.098
  0
LINE
  8
0
 10
13.644
 11
13.363
 20
-5.098
 21
-3.841
  0
LINE
  8
0
 10
13.363
 11
13.162
 20
-3.841
 21
-2.569
  0
LINE
  8
0
 10
13.162
 11
13.04
 20
-2.569
 21
-1.287
  0
LINE
  8
0
 10
13.04
 11
13
 20
-1.287
 21
0
  0
ENDSEC
  0
SECTION
  2
OBJECTS
  0
DICTIONARY
  0
ENDSEC
  0
EOF
