  0
SECTION
  2
BLOCKS
  0
ENDSEC
  0
SECTION
  2
ENTITIES
  0
LINE
  8
0
 10
-227
 20
0
 11
1
 21
0
  0
LINE
  8
0
 10
1
 20
0
 11
1
 21
60
  0
LINE
  8
0
 10
1
 20
60
 11
-227
 21
60
  0
LINE
  8
0
 10
-227
 20
60
 11
-227
 21
0
  0
LINE
  8
0
 10
-222.125
 20
7.53848
 11
-220.202
 21
10.8686
  0
LINE
  8
0
 10
-220.202
 20
10.8686
 11
-216.357
 21
10.8686
  0
LINE
  8
0
 10
-216.357
 20
10.8686
 11
-214.434
 21
7.53848
  0
LINE
  8
0
 10
-214.434
 20
7.53848
 11
-216.357
 21
4.20835
  0
LINE
  8
0
 10
-216.357
 20
4.20835
 11
-220.202
 21
4.20835
  0
LINE
  8
0
 10
-220.202
 20
4.20835
 11
-222.125
 21
7.53848
  0
LINE
  8
0
 10
-222.125
 20
16.1987
 11
-220.202
 21
19.5289
  0
LINE
  8
0
 10
-220.202
 20
19.5289
 11
-216.357
 21
19.5289
  0
LINE
  8
0
 10
-216.357
 20
19.5289
 11
-214.434
 21
16.1987
  0
LINE
  8
0
 10
-214.434
 20
16.1987
 11
-216.357
 21
12.8686
  0
LINE
  8
0
 10
-216.357
 20
12.8686
 11
-220.202
 21
12.8686
  0
LINE
  8
0
 10
-220.202
 20
12.8686
 11
-222.125
 21
16.1987
  0
LINE
  8
0
 10
-222.125
 20
24.859
 11
-220.202
 21
28.1891
  0
LINE
  8
0
 10
-220.202
 20
28.1891
 11
-216.357
 21
28.1891
  0
LINE
  8
0
 10
-216.357
 20
28.1891
 11
-214.434
 21
24.859
  0
LINE
  8
0
 10
-214.434
 20
24.859
 11
-216.357
 21
21.5289
  0
LINE
  8
0
 10
-216.357
 20
21.5289
 11
-220.202
 21
21.5289
  0
LINE
  8
0
 10
-220.202
 20
21.5289
 11
-222.125
 21
24.859
  0
LINE
  8
0
 10
-222.125
 20
33.5192
 11
-220.202
 21
36.8494
  0
LINE
  8
0
 10
-220.202
 20
36.8494
 11
-216.357
 21
36.8494
  0
LINE
  8
0
 10
-216.357
 20
36.8494
 11
-214.434
 21
33.5192
  0
LINE
  8
0
 10
-214.434
 20
33.5192
 11
-216.357
 21
30.1891
  0
LINE
  8
0
 10
-216.357
 20
30.1891
 11
-220.202
 21
30.1891
  0
LINE
  8
0
 10
-220.202
 20
30.1891
 11
-222.125
 21
33.5192
  0
LINE
  8
0
 10
-222.125
 20
42.1795
 11
-220.202
 21
45.5096
  0
LINE
  8
0
 10
-220.202
 20
45.5096
 11
-216.357
 21
45.5096
  0
LINE
  8
0
 10
-216.357
 20
45.5096
 11
-214.434
 21
42.1795
  0
LINE
  8
0
 10
-214.434
 20
42.1795
 11
-216.357
 21
38.8494
  0
LINE
  8
0
 10
-216.357
 20
38.8494
 11
-220.202
 21
38.8494
  0
LINE
  8
0
 10
-220.202
 20
38.8494
 11
-222.125
 21
42.1795
  0
LINE
  8
0
 10
-222.125
 20
50.8397
 11
-220.202
 21
54.1699
  0
LINE
  8
0
 10
-220.202
 20
54.1699
 11
-216.357
 21
54.1699
  0
LINE
  8
0
 10
-216.357
 20
54.1699
 11
-214.434
 21
50.8397
  0
LINE
  8
0
 10
-214.434
 20
50.8397
 11
-216.357
 21
47.5096
  0
LINE
  8
0
 10
-216.357
 20
47.5096
 11
-220.202
 21
47.5096
  0
LINE
  8
0
 10
-220.202
 20
47.5096
 11
-222.125
 21
50.8397
  0
LINE
  8
0
 10
-214.625
 20
11.8686
 11
-212.702
 21
15.1987
  0
LINE
  8
0
 10
-212.702
 20
15.1987
 11
-208.857
 21
15.1987
  0
LINE
  8
0
 10
-208.857
 20
15.1987
 11
-206.934
 21
11.8686
  0
LINE
  8
0
 10
-206.934
 20
11.8686
 11
-208.857
 21
8.53848
  0
LINE
  8
0
 10
-208.857
 20
8.53848
 11
-212.702
 21
8.53848
  0
LINE
  8
0
 10
-212.702
 20
8.53848
 11
-214.625
 21
11.8686
  0
LINE
  8
0
 10
-214.625
 20
20.5289
 11
-212.702
 21
23.859
  0
LINE
  8
0
 10
-212.702
 20
23.859
 11
-208.857
 21
23.859
  0
LINE
  8
0
 10
-208.857
 20
23.859
 11
-206.934
 21
20.5289
  0
LINE
  8
0
 10
-206.934
 20
20.5289
 11
-208.857
 21
17.1987
  0
LINE
  8
0
 10
-208.857
 20
17.1987
 11
-212.702
 21
17.1987
  0
LINE
  8
0
 10
-212.702
 20
17.1987
 11
-214.625
 21
20.5289
  0
LINE
  8
0
 10
-214.625
 20
29.1891
 11
-212.702
 21
32.5192
  0
LINE
  8
0
 10
-212.702
 20
32.5192
 11
-208.857
 21
32.5192
  0
LINE
  8
0
 10
-208.857
 20
32.5192
 11
-206.934
 21
29.1891
  0
LINE
  8
0
 10
-206.934
 20
29.1891
 11
-208.857
 21
25.859
  0
LINE
  8
0
 10
-208.857
 20
25.859
 11
-212.702
 21
25.859
  0
LINE
  8
0
 10
-212.702
 20
25.859
 11
-214.625
 21
29.1891
  0
LINE
  8
0
 10
-214.625
 20
37.8494
 11
-212.702
 21
41.1795
  0
LINE
  8
0
 10
-212.702
 20
41.1795
 11
-208.857
 21
41.1795
  0
LINE
  8
0
 10
-208.857
 20
41.1795
 11
-206.934
 21
37.8494
  0
LINE
  8
0
 10
-206.934
 20
37.8494
 11
-208.857
 21
34.5192
  0
LINE
  8
0
 10
-208.857
 20
34.5192
 11
-212.702
 21
34.5192
  0
LINE
  8
0
 10
-212.702
 20
34.5192
 11
-214.625
 21
37.8494
  0
LINE
  8
0
 10
-214.625
 20
46.5096
 11
-212.702
 21
49.8397
  0
LINE
  8
0
 10
-212.702
 20
49.8397
 11
-208.857
 21
49.8397
  0
LINE
  8
0
 10
-208.857
 20
49.8397
 11
-206.934
 21
46.5096
  0
LINE
  8
0
 10
-206.934
 20
46.5096
 11
-208.857
 21
43.1795
  0
LINE
  8
0
 10
-208.857
 20
43.1795
 11
-212.702
 21
43.1795
  0
LINE
  8
0
 10
-212.702
 20
43.1795
 11
-214.625
 21
46.5096
  0
LINE
  8
0
 10
-214.625
 20
55.1699
 11
-212.702
 21
58.5
  0
LINE
  8
0
 10
-212.702
 20
58.5
 11
-208.857
 21
58.5
  0
LINE
  8
0
 10
-208.857
 20
58.5
 11
-206.934
 21
55.1699
  0
LINE
  8
0
 10
-206.934
 20
55.1699
 11
-208.857
 21
51.8397
  0
LINE
  8
0
 10
-208.857
 20
51.8397
 11
-212.702
 21
51.8397
  0
LINE
  8
0
 10
-212.702
 20
51.8397
 11
-214.625
 21
55.1699
  0
LINE
  8
0
 10
-207.125
 20
7.53848
 11
-205.202
 21
10.8686
  0
LINE
  8
0
 10
-205.202
 20
10.8686
 11
-201.357
 21
10.8686
  0
LINE
  8
0
 10
-201.357
 20
10.8686
 11
-199.434
 21
7.53848
  0
LINE
  8
0
 10
-199.434
 20
7.53848
 11
-201.357
 21
4.20835
  0
LINE
  8
0
 10
-201.357
 20
4.20835
 11
-205.202
 21
4.20835
  0
LINE
  8
0
 10
-205.202
 20
4.20835
 11
-207.125
 21
7.53848
  0
LINE
  8
0
 10
-207.125
 20
16.1987
 11
-205.202
 21
19.5289
  0
LINE
  8
0
 10
-205.202
 20
19.5289
 11
-201.357
 21
19.5289
  0
LINE
  8
0
 10
-201.357
 20
19.5289
 11
-199.434
 21
16.1987
  0
LINE
  8
0
 10
-199.434
 20
16.1987
 11
-201.357
 21
12.8686
  0
LINE
  8
0
 10
-201.357
 20
12.8686
 11
-205.202
 21
12.8686
  0
LINE
  8
0
 10
-205.202
 20
12.8686
 11
-207.125
 21
16.1987
  0
LINE
  8
0
 10
-207.125
 20
24.859
 11
-205.202
 21
28.1891
  0
LINE
  8
0
 10
-205.202
 20
28.1891
 11
-201.357
 21
28.1891
  0
LINE
  8
0
 10
-201.357
 20
28.1891
 11
-199.434
 21
24.859
  0
LINE
  8
0
 10
-199.434
 20
24.859
 11
-201.357
 21
21.5289
  0
LINE
  8
0
 10
-201.357
 20
21.5289
 11
-205.202
 21
21.5289
  0
LINE
  8
0
 10
-205.202
 20
21.5289
 11
-207.125
 21
24.859
  0
LINE
  8
0
 10
-207.125
 20
33.5192
 11
-205.202
 21
36.8494
  0
LINE
  8
0
 10
-205.202
 20
36.8494
 11
-201.357
 21
36.8494
  0
LINE
  8
0
 10
-201.357
 20
36.8494
 11
-199.434
 21
33.5192
  0
LINE
  8
0
 10
-199.434
 20
33.5192
 11
-201.357
 21
30.1891
  0
LINE
  8
0
 10
-201.357
 20
30.1891
 11
-205.202
 21
30.1891
  0
LINE
  8
0
 10
-205.202
 20
30.1891
 11
-207.125
 21
33.5192
  0
LINE
  8
0
 10
-207.125
 20
42.1795
 11
-205.202
 21
45.5096
  0
LINE
  8
0
 10
-205.202
 20
45.5096
 11
-201.357
 21
45.5096
  0
LINE
  8
0
 10
-201.357
 20
45.5096
 11
-199.434
 21
42.1795
  0
LINE
  8
0
 10
-199.434
 20
42.1795
 11
-201.357
 21
38.8494
  0
LINE
  8
0
 10
-201.357
 20
38.8494
 11
-205.202
 21
38.8494
  0
LINE
  8
0
 10
-205.202
 20
38.8494
 11
-207.125
 21
42.1795
  0
LINE
  8
0
 10
-207.125
 20
50.8397
 11
-205.202
 21
54.1699
  0
LINE
  8
0
 10
-205.202
 20
54.1699
 11
-201.357
 21
54.1699
  0
LINE
  8
0
 10
-201.357
 20
54.1699
 11
-199.434
 21
50.8397
  0
LINE
  8
0
 10
-199.434
 20
50.8397
 11
-201.357
 21
47.5096
  0
LINE
  8
0
 10
-201.357
 20
47.5096
 11
-205.202
 21
47.5096
  0
LINE
  8
0
 10
-205.202
 20
47.5096
 11
-207.125
 21
50.8397
  0
LINE
  8
0
 10
-199.625
 20
11.8686
 11
-197.702
 21
15.1987
  0
LINE
  8
0
 10
-197.702
 20
15.1987
 11
-193.857
 21
15.1987
  0
LINE
  8
0
 10
-193.857
 20
15.1987
 11
-191.934
 21
11.8686
  0
LINE
  8
0
 10
-191.934
 20
11.8686
 11
-193.857
 21
8.53848
  0
LINE
  8
0
 10
-193.857
 20
8.53848
 11
-197.702
 21
8.53848
  0
LINE
  8
0
 10
-197.702
 20
8.53848
 11
-199.625
 21
11.8686
  0
LINE
  8
0
 10
-199.625
 20
20.5289
 11
-197.702
 21
23.859
  0
LINE
  8
0
 10
-197.702
 20
23.859
 11
-193.857
 21
23.859
  0
LINE
  8
0
 10
-193.857
 20
23.859
 11
-191.934
 21
20.5289
  0
LINE
  8
0
 10
-191.934
 20
20.5289
 11
-193.857
 21
17.1987
  0
LINE
  8
0
 10
-193.857
 20
17.1987
 11
-197.702
 21
17.1987
  0
LINE
  8
0
 10
-197.702
 20
17.1987
 11
-199.625
 21
20.5289
  0
LINE
  8
0
 10
-199.625
 20
29.1891
 11
-197.702
 21
32.5192
  0
LINE
  8
0
 10
-197.702
 20
32.5192
 11
-193.857
 21
32.5192
  0
LINE
  8
0
 10
-193.857
 20
32.5192
 11
-191.934
 21
29.1891
  0
LINE
  8
0
 10
-191.934
 20
29.1891
 11
-193.857
 21
25.859
  0
LINE
  8
0
 10
-193.857
 20
25.859
 11
-197.702
 21
25.859
  0
LINE
  8
0
 10
-197.702
 20
25.859
 11
-199.625
 21
29.1891
  0
LINE
  8
0
 10
-199.625
 20
37.8494
 11
-197.702
 21
41.1795
  0
LINE
  8
0
 10
-197.702
 20
41.1795
 11
-193.857
 21
41.1795
  0
LINE
  8
0
 10
-193.857
 20
41.1795
 11
-191.934
 21
37.8494
  0
LINE
  8
0
 10
-191.934
 20
37.8494
 11
-193.857
 21
34.5192
  0
LINE
  8
0
 10
-193.857
 20
34.5192
 11
-197.702
 21
34.5192
  0
LINE
  8
0
 10
-197.702
 20
34.5192
 11
-199.625
 21
37.8494
  0
LINE
  8
0
 10
-199.625
 20
46.5096
 11
-197.702
 21
49.8397
  0
LINE
  8
0
 10
-197.702
 20
49.8397
 11
-193.857
 21
49.8397
  0
LINE
  8
0
 10
-193.857
 20
49.8397
 11
-191.934
 21
46.5096
  0
LINE
  8
0
 10
-191.934
 20
46.5096
 11
-193.857
 21
43.1795
  0
LINE
  8
0
 10
-193.857
 20
43.1795
 11
-197.702
 21
43.1795
  0
LINE
  8
0
 10
-197.702
 20
43.1795
 11
-199.625
 21
46.5096
  0
LINE
  8
0
 10
-199.625
 20
55.1699
 11
-197.702
 21
58.5
  0
LINE
  8
0
 10
-197.702
 20
58.5
 11
-193.857
 21
58.5
  0
LINE
  8
0
 10
-193.857
 20
58.5
 11
-191.934
 21
55.1699
  0
LINE
  8
0
 10
-191.934
 20
55.1699
 11
-193.857
 21
51.8397
  0
LINE
  8
0
 10
-193.857
 20
51.8397
 11
-197.702
 21
51.8397
  0
LINE
  8
0
 10
-197.702
 20
51.8397
 11
-199.625
 21
55.1699
  0
LINE
  8
0
 10
-192.125
 20
7.53848
 11
-190.202
 21
10.8686
  0
LINE
  8
0
 10
-190.202
 20
10.8686
 11
-186.357
 21
10.8686
  0
LINE
  8
0
 10
-186.357
 20
10.8686
 11
-184.434
 21
7.53848
  0
LINE
  8
0
 10
-184.434
 20
7.53848
 11
-186.357
 21
4.20835
  0
LINE
  8
0
 10
-186.357
 20
4.20835
 11
-190.202
 21
4.20835
  0
LINE
  8
0
 10
-190.202
 20
4.20835
 11
-192.125
 21
7.53848
  0
LINE
  8
0
 10
-192.125
 20
16.1987
 11
-190.202
 21
19.5289
  0
LINE
  8
0
 10
-190.202
 20
19.5289
 11
-186.357
 21
19.5289
  0
LINE
  8
0
 10
-186.357
 20
19.5289
 11
-184.434
 21
16.1987
  0
LINE
  8
0
 10
-184.434
 20
16.1987
 11
-186.357
 21
12.8686
  0
LINE
  8
0
 10
-186.357
 20
12.8686
 11
-190.202
 21
12.8686
  0
LINE
  8
0
 10
-190.202
 20
12.8686
 11
-192.125
 21
16.1987
  0
LINE
  8
0
 10
-192.125
 20
24.859
 11
-190.202
 21
28.1891
  0
LINE
  8
0
 10
-190.202
 20
28.1891
 11
-186.357
 21
28.1891
  0
LINE
  8
0
 10
-186.357
 20
28.1891
 11
-184.434
 21
24.859
  0
LINE
  8
0
 10
-184.434
 20
24.859
 11
-186.357
 21
21.5289
  0
LINE
  8
0
 10
-186.357
 20
21.5289
 11
-190.202
 21
21.5289
  0
LINE
  8
0
 10
-190.202
 20
21.5289
 11
-192.125
 21
24.859
  0
LINE
  8
0
 10
-192.125
 20
33.5192
 11
-190.202
 21
36.8494
  0
LINE
  8
0
 10
-190.202
 20
36.8494
 11
-186.357
 21
36.8494
  0
LINE
  8
0
 10
-186.357
 20
36.8494
 11
-184.434
 21
33.5192
  0
LINE
  8
0
 10
-184.434
 20
33.5192
 11
-186.357
 21
30.1891
  0
LINE
  8
0
 10
-186.357
 20
30.1891
 11
-190.202
 21
30.1891
  0
LINE
  8
0
 10
-190.202
 20
30.1891
 11
-192.125
 21
33.5192
  0
LINE
  8
0
 10
-192.125
 20
42.1795
 11
-190.202
 21
45.5096
  0
LINE
  8
0
 10
-190.202
 20
45.5096
 11
-186.357
 21
45.5096
  0
LINE
  8
0
 10
-186.357
 20
45.5096
 11
-184.434
 21
42.1795
  0
LINE
  8
0
 10
-184.434
 20
42.1795
 11
-186.357
 21
38.8494
  0
LINE
  8
0
 10
-186.357
 20
38.8494
 11
-190.202
 21
38.8494
  0
LINE
  8
0
 10
-190.202
 20
38.8494
 11
-192.125
 21
42.1795
  0
LINE
  8
0
 10
-192.125
 20
50.8397
 11
-190.202
 21
54.1699
  0
LINE
  8
0
 10
-190.202
 20
54.1699
 11
-186.357
 21
54.1699
  0
LINE
  8
0
 10
-186.357
 20
54.1699
 11
-184.434
 21
50.8397
  0
LINE
  8
0
 10
-184.434
 20
50.8397
 11
-186.357
 21
47.5096
  0
LINE
  8
0
 10
-186.357
 20
47.5096
 11
-190.202
 21
47.5096
  0
LINE
  8
0
 10
-190.202
 20
47.5096
 11
-192.125
 21
50.8397
  0
LINE
  8
0
 10
-184.625
 20
11.8686
 11
-182.702
 21
15.1987
  0
LINE
  8
0
 10
-182.702
 20
15.1987
 11
-178.857
 21
15.1987
  0
LINE
  8
0
 10
-178.857
 20
15.1987
 11
-176.934
 21
11.8686
  0
LINE
  8
0
 10
-176.934
 20
11.8686
 11
-178.857
 21
8.53848
  0
LINE
  8
0
 10
-178.857
 20
8.53848
 11
-182.702
 21
8.53848
  0
LINE
  8
0
 10
-182.702
 20
8.53848
 11
-184.625
 21
11.8686
  0
LINE
  8
0
 10
-184.625
 20
20.5289
 11
-182.702
 21
23.859
  0
LINE
  8
0
 10
-182.702
 20
23.859
 11
-178.857
 21
23.859
  0
LINE
  8
0
 10
-178.857
 20
23.859
 11
-176.934
 21
20.5289
  0
LINE
  8
0
 10
-176.934
 20
20.5289
 11
-178.857
 21
17.1987
  0
LINE
  8
0
 10
-178.857
 20
17.1987
 11
-182.702
 21
17.1987
  0
LINE
  8
0
 10
-182.702
 20
17.1987
 11
-184.625
 21
20.5289
  0
LINE
  8
0
 10
-184.625
 20
29.1891
 11
-182.702
 21
32.5192
  0
LINE
  8
0
 10
-182.702
 20
32.5192
 11
-178.857
 21
32.5192
  0
LINE
  8
0
 10
-178.857
 20
32.5192
 11
-176.934
 21
29.1891
  0
LINE
  8
0
 10
-176.934
 20
29.1891
 11
-178.857
 21
25.859
  0
LINE
  8
0
 10
-178.857
 20
25.859
 11
-182.702
 21
25.859
  0
LINE
  8
0
 10
-182.702
 20
25.859
 11
-184.625
 21
29.1891
  0
LINE
  8
0
 10
-184.625
 20
37.8494
 11
-182.702
 21
41.1795
  0
LINE
  8
0
 10
-182.702
 20
41.1795
 11
-178.857
 21
41.1795
  0
LINE
  8
0
 10
-178.857
 20
41.1795
 11
-176.934
 21
37.8494
  0
LINE
  8
0
 10
-176.934
 20
37.8494
 11
-178.857
 21
34.5192
  0
LINE
  8
0
 10
-178.857
 20
34.5192
 11
-182.702
 21
34.5192
  0
LINE
  8
0
 10
-182.702
 20
34.5192
 11
-184.625
 21
37.8494
  0
LINE
  8
0
 10
-184.625
 20
46.5096
 11
-182.702
 21
49.8397
  0
LINE
  8
0
 10
-182.702
 20
49.8397
 11
-178.857
 21
49.8397
  0
LINE
  8
0
 10
-178.857
 20
49.8397
 11
-176.934
 21
46.5096
  0
LINE
  8
0
 10
-176.934
 20
46.5096
 11
-178.857
 21
43.1795
  0
LINE
  8
0
 10
-178.857
 20
43.1795
 11
-182.702
 21
43.1795
  0
LINE
  8
0
 10
-182.702
 20
43.1795
 11
-184.625
 21
46.5096
  0
LINE
  8
0
 10
-184.625
 20
55.1699
 11
-182.702
 21
58.5
  0
LINE
  8
0
 10
-182.702
 20
58.5
 11
-178.857
 21
58.5
  0
LINE
  8
0
 10
-178.857
 20
58.5
 11
-176.934
 21
55.1699
  0
LINE
  8
0
 10
-176.934
 20
55.1699
 11
-178.857
 21
51.8397
  0
LINE
  8
0
 10
-178.857
 20
51.8397
 11
-182.702
 21
51.8397
  0
LINE
  8
0
 10
-182.702
 20
51.8397
 11
-184.625
 21
55.1699
  0
LINE
  8
0
 10
-177.125
 20
7.53848
 11
-175.202
 21
10.8686
  0
LINE
  8
0
 10
-175.202
 20
10.8686
 11
-171.357
 21
10.8686
  0
LINE
  8
0
 10
-171.357
 20
10.8686
 11
-169.434
 21
7.53848
  0
LINE
  8
0
 10
-169.434
 20
7.53848
 11
-171.357
 21
4.20835
  0
LINE
  8
0
 10
-171.357
 20
4.20835
 11
-175.202
 21
4.20835
  0
LINE
  8
0
 10
-175.202
 20
4.20835
 11
-177.125
 21
7.53848
  0
LINE
  8
0
 10
-177.125
 20
16.1987
 11
-175.202
 21
19.5289
  0
LINE
  8
0
 10
-175.202
 20
19.5289
 11
-171.357
 21
19.5289
  0
LINE
  8
0
 10
-171.357
 20
19.5289
 11
-169.434
 21
16.1987
  0
LINE
  8
0
 10
-169.434
 20
16.1987
 11
-171.357
 21
12.8686
  0
LINE
  8
0
 10
-171.357
 20
12.8686
 11
-175.202
 21
12.8686
  0
LINE
  8
0
 10
-175.202
 20
12.8686
 11
-177.125
 21
16.1987
  0
LINE
  8
0
 10
-177.125
 20
24.859
 11
-175.202
 21
28.1891
  0
LINE
  8
0
 10
-175.202
 20
28.1891
 11
-171.357
 21
28.1891
  0
LINE
  8
0
 10
-171.357
 20
28.1891
 11
-169.434
 21
24.859
  0
LINE
  8
0
 10
-169.434
 20
24.859
 11
-171.357
 21
21.5289
  0
LINE
  8
0
 10
-171.357
 20
21.5289
 11
-175.202
 21
21.5289
  0
LINE
  8
0
 10
-175.202
 20
21.5289
 11
-177.125
 21
24.859
  0
LINE
  8
0
 10
-177.125
 20
33.5192
 11
-175.202
 21
36.8494
  0
LINE
  8
0
 10
-175.202
 20
36.8494
 11
-171.357
 21
36.8494
  0
LINE
  8
0
 10
-171.357
 20
36.8494
 11
-169.434
 21
33.5192
  0
LINE
  8
0
 10
-169.434
 20
33.5192
 11
-171.357
 21
30.1891
  0
LINE
  8
0
 10
-171.357
 20
30.1891
 11
-175.202
 21
30.1891
  0
LINE
  8
0
 10
-175.202
 20
30.1891
 11
-177.125
 21
33.5192
  0
LINE
  8
0
 10
-177.125
 20
42.1795
 11
-175.202
 21
45.5096
  0
LINE
  8
0
 10
-175.202
 20
45.5096
 11
-171.357
 21
45.5096
  0
LINE
  8
0
 10
-171.357
 20
45.5096
 11
-169.434
 21
42.1795
  0
LINE
  8
0
 10
-169.434
 20
42.1795
 11
-171.357
 21
38.8494
  0
LINE
  8
0
 10
-171.357
 20
38.8494
 11
-175.202
 21
38.8494
  0
LINE
  8
0
 10
-175.202
 20
38.8494
 11
-177.125
 21
42.1795
  0
LINE
  8
0
 10
-177.125
 20
50.8397
 11
-175.202
 21
54.1699
  0
LINE
  8
0
 10
-175.202
 20
54.1699
 11
-171.357
 21
54.1699
  0
LINE
  8
0
 10
-171.357
 20
54.1699
 11
-169.434
 21
50.8397
  0
LINE
  8
0
 10
-169.434
 20
50.8397
 11
-171.357
 21
47.5096
  0
LINE
  8
0
 10
-171.357
 20
47.5096
 11
-175.202
 21
47.5096
  0
LINE
  8
0
 10
-175.202
 20
47.5096
 11
-177.125
 21
50.8397
  0
LINE
  8
0
 10
-169.625
 20
11.8686
 11
-167.702
 21
15.1987
  0
LINE
  8
0
 10
-167.702
 20
15.1987
 11
-163.857
 21
15.1987
  0
LINE
  8
0
 10
-163.857
 20
15.1987
 11
-161.934
 21
11.8686
  0
LINE
  8
0
 10
-161.934
 20
11.8686
 11
-163.857
 21
8.53848
  0
LINE
  8
0
 10
-163.857
 20
8.53848
 11
-167.702
 21
8.53848
  0
LINE
  8
0
 10
-167.702
 20
8.53848
 11
-169.625
 21
11.8686
  0
LINE
  8
0
 10
-169.625
 20
20.5289
 11
-167.702
 21
23.859
  0
LINE
  8
0
 10
-167.702
 20
23.859
 11
-163.857
 21
23.859
  0
LINE
  8
0
 10
-163.857
 20
23.859
 11
-161.934
 21
20.5289
  0
LINE
  8
0
 10
-161.934
 20
20.5289
 11
-163.857
 21
17.1987
  0
LINE
  8
0
 10
-163.857
 20
17.1987
 11
-167.702
 21
17.1987
  0
LINE
  8
0
 10
-167.702
 20
17.1987
 11
-169.625
 21
20.5289
  0
LINE
  8
0
 10
-169.625
 20
29.1891
 11
-167.702
 21
32.5192
  0
LINE
  8
0
 10
-167.702
 20
32.5192
 11
-163.857
 21
32.5192
  0
LINE
  8
0
 10
-163.857
 20
32.5192
 11
-161.934
 21
29.1891
  0
LINE
  8
0
 10
-161.934
 20
29.1891
 11
-163.857
 21
25.859
  0
LINE
  8
0
 10
-163.857
 20
25.859
 11
-167.702
 21
25.859
  0
LINE
  8
0
 10
-167.702
 20
25.859
 11
-169.625
 21
29.1891
  0
LINE
  8
0
 10
-169.625
 20
37.8494
 11
-167.702
 21
41.1795
  0
LINE
  8
0
 10
-167.702
 20
41.1795
 11
-163.857
 21
41.1795
  0
LINE
  8
0
 10
-163.857
 20
41.1795
 11
-161.934
 21
37.8494
  0
LINE
  8
0
 10
-161.934
 20
37.8494
 11
-163.857
 21
34.5192
  0
LINE
  8
0
 10
-163.857
 20
34.5192
 11
-167.702
 21
34.5192
  0
LINE
  8
0
 10
-167.702
 20
34.5192
 11
-169.625
 21
37.8494
  0
LINE
  8
0
 10
-169.625
 20
46.5096
 11
-167.702
 21
49.8397
  0
LINE
  8
0
 10
-167.702
 20
49.8397
 11
-163.857
 21
49.8397
  0
LINE
  8
0
 10
-163.857
 20
49.8397
 11
-161.934
 21
46.5096
  0
LINE
  8
0
 10
-161.934
 20
46.5096
 11
-163.857
 21
43.1795
  0
LINE
  8
0
 10
-163.857
 20
43.1795
 11
-167.702
 21
43.1795
  0
LINE
  8
0
 10
-167.702
 20
43.1795
 11
-169.625
 21
46.5096
  0
LINE
  8
0
 10
-169.625
 20
55.1699
 11
-167.702
 21
58.5
  0
LINE
  8
0
 10
-167.702
 20
58.5
 11
-163.857
 21
58.5
  0
LINE
  8
0
 10
-163.857
 20
58.5
 11
-161.934
 21
55.1699
  0
LINE
  8
0
 10
-161.934
 20
55.1699
 11
-163.857
 21
51.8397
  0
LINE
  8
0
 10
-163.857
 20
51.8397
 11
-167.702
 21
51.8397
  0
LINE
  8
0
 10
-167.702
 20
51.8397
 11
-169.625
 21
55.1699
  0
LINE
  8
0
 10
-162.125
 20
7.53848
 11
-160.202
 21
10.8686
  0
LINE
  8
0
 10
-160.202
 20
10.8686
 11
-156.357
 21
10.8686
  0
LINE
  8
0
 10
-156.357
 20
10.8686
 11
-154.434
 21
7.53848
  0
LINE
  8
0
 10
-154.434
 20
7.53848
 11
-156.357
 21
4.20835
  0
LINE
  8
0
 10
-156.357
 20
4.20835
 11
-160.202
 21
4.20835
  0
LINE
  8
0
 10
-160.202
 20
4.20835
 11
-162.125
 21
7.53848
  0
LINE
  8
0
 10
-162.125
 20
16.1987
 11
-160.202
 21
19.5289
  0
LINE
  8
0
 10
-160.202
 20
19.5289
 11
-156.357
 21
19.5289
  0
LINE
  8
0
 10
-156.357
 20
19.5289
 11
-154.434
 21
16.1987
  0
LINE
  8
0
 10
-154.434
 20
16.1987
 11
-156.357
 21
12.8686
  0
LINE
  8
0
 10
-156.357
 20
12.8686
 11
-160.202
 21
12.8686
  0
LINE
  8
0
 10
-160.202
 20
12.8686
 11
-162.125
 21
16.1987
  0
LINE
  8
0
 10
-162.125
 20
24.859
 11
-160.202
 21
28.1891
  0
LINE
  8
0
 10
-160.202
 20
28.1891
 11
-156.357
 21
28.1891
  0
LINE
  8
0
 10
-156.357
 20
28.1891
 11
-154.434
 21
24.859
  0
LINE
  8
0
 10
-154.434
 20
24.859
 11
-156.357
 21
21.5289
  0
LINE
  8
0
 10
-156.357
 20
21.5289
 11
-160.202
 21
21.5289
  0
LINE
  8
0
 10
-160.202
 20
21.5289
 11
-162.125
 21
24.859
  0
LINE
  8
0
 10
-162.125
 20
33.5192
 11
-160.202
 21
36.8494
  0
LINE
  8
0
 10
-160.202
 20
36.8494
 11
-156.357
 21
36.8494
  0
LINE
  8
0
 10
-156.357
 20
36.8494
 11
-154.434
 21
33.5192
  0
LINE
  8
0
 10
-154.434
 20
33.5192
 11
-156.357
 21
30.1891
  0
LINE
  8
0
 10
-156.357
 20
30.1891
 11
-160.202
 21
30.1891
  0
LINE
  8
0
 10
-160.202
 20
30.1891
 11
-162.125
 21
33.5192
  0
LINE
  8
0
 10
-162.125
 20
42.1795
 11
-160.202
 21
45.5096
  0
LINE
  8
0
 10
-160.202
 20
45.5096
 11
-156.357
 21
45.5096
  0
LINE
  8
0
 10
-156.357
 20
45.5096
 11
-154.434
 21
42.1795
  0
LINE
  8
0
 10
-154.434
 20
42.1795
 11
-156.357
 21
38.8494
  0
LINE
  8
0
 10
-156.357
 20
38.8494
 11
-160.202
 21
38.8494
  0
LINE
  8
0
 10
-160.202
 20
38.8494
 11
-162.125
 21
42.1795
  0
LINE
  8
0
 10
-162.125
 20
50.8397
 11
-160.202
 21
54.1699
  0
LINE
  8
0
 10
-160.202
 20
54.1699
 11
-156.357
 21
54.1699
  0
LINE
  8
0
 10
-156.357
 20
54.1699
 11
-154.434
 21
50.8397
  0
LINE
  8
0
 10
-154.434
 20
50.8397
 11
-156.357
 21
47.5096
  0
LINE
  8
0
 10
-156.357
 20
47.5096
 11
-160.202
 21
47.5096
  0
LINE
  8
0
 10
-160.202
 20
47.5096
 11
-162.125
 21
50.8397
  0
LINE
  8
0
 10
-154.625
 20
11.8686
 11
-152.702
 21
15.1987
  0
LINE
  8
0
 10
-152.702
 20
15.1987
 11
-148.857
 21
15.1987
  0
LINE
  8
0
 10
-148.857
 20
15.1987
 11
-146.934
 21
11.8686
  0
LINE
  8
0
 10
-146.934
 20
11.8686
 11
-148.857
 21
8.53848
  0
LINE
  8
0
 10
-148.857
 20
8.53848
 11
-152.702
 21
8.53848
  0
LINE
  8
0
 10
-152.702
 20
8.53848
 11
-154.625
 21
11.8686
  0
LINE
  8
0
 10
-154.625
 20
20.5289
 11
-152.702
 21
23.859
  0
LINE
  8
0
 10
-152.702
 20
23.859
 11
-148.857
 21
23.859
  0
LINE
  8
0
 10
-148.857
 20
23.859
 11
-146.934
 21
20.5289
  0
LINE
  8
0
 10
-146.934
 20
20.5289
 11
-148.857
 21
17.1987
  0
LINE
  8
0
 10
-148.857
 20
17.1987
 11
-152.702
 21
17.1987
  0
LINE
  8
0
 10
-152.702
 20
17.1987
 11
-154.625
 21
20.5289
  0
LINE
  8
0
 10
-154.625
 20
29.1891
 11
-152.702
 21
32.5192
  0
LINE
  8
0
 10
-152.702
 20
32.5192
 11
-148.857
 21
32.5192
  0
LINE
  8
0
 10
-148.857
 20
32.5192
 11
-146.934
 21
29.1891
  0
LINE
  8
0
 10
-146.934
 20
29.1891
 11
-148.857
 21
25.859
  0
LINE
  8
0
 10
-148.857
 20
25.859
 11
-152.702
 21
25.859
  0
LINE
  8
0
 10
-152.702
 20
25.859
 11
-154.625
 21
29.1891
  0
LINE
  8
0
 10
-154.625
 20
37.8494
 11
-152.702
 21
41.1795
  0
LINE
  8
0
 10
-152.702
 20
41.1795
 11
-148.857
 21
41.1795
  0
LINE
  8
0
 10
-148.857
 20
41.1795
 11
-146.934
 21
37.8494
  0
LINE
  8
0
 10
-146.934
 20
37.8494
 11
-148.857
 21
34.5192
  0
LINE
  8
0
 10
-148.857
 20
34.5192
 11
-152.702
 21
34.5192
  0
LINE
  8
0
 10
-152.702
 20
34.5192
 11
-154.625
 21
37.8494
  0
LINE
  8
0
 10
-154.625
 20
46.5096
 11
-152.702
 21
49.8397
  0
LINE
  8
0
 10
-152.702
 20
49.8397
 11
-148.857
 21
49.8397
  0
LINE
  8
0
 10
-148.857
 20
49.8397
 11
-146.934
 21
46.5096
  0
LINE
  8
0
 10
-146.934
 20
46.5096
 11
-148.857
 21
43.1795
  0
LINE
  8
0
 10
-148.857
 20
43.1795
 11
-152.702
 21
43.1795
  0
LINE
  8
0
 10
-152.702
 20
43.1795
 11
-154.625
 21
46.5096
  0
LINE
  8
0
 10
-154.625
 20
55.1699
 11
-152.702
 21
58.5
  0
LINE
  8
0
 10
-152.702
 20
58.5
 11
-148.857
 21
58.5
  0
LINE
  8
0
 10
-148.857
 20
58.5
 11
-146.934
 21
55.1699
  0
LINE
  8
0
 10
-146.934
 20
55.1699
 11
-148.857
 21
51.8397
  0
LINE
  8
0
 10
-148.857
 20
51.8397
 11
-152.702
 21
51.8397
  0
LINE
  8
0
 10
-152.702
 20
51.8397
 11
-154.625
 21
55.1699
  0
LINE
  8
0
 10
-147.125
 20
7.53848
 11
-145.202
 21
10.8686
  0
LINE
  8
0
 10
-145.202
 20
10.8686
 11
-141.357
 21
10.8686
  0
LINE
  8
0
 10
-141.357
 20
10.8686
 11
-139.434
 21
7.53848
  0
LINE
  8
0
 10
-139.434
 20
7.53848
 11
-141.357
 21
4.20835
  0
LINE
  8
0
 10
-141.357
 20
4.20835
 11
-145.202
 21
4.20835
  0
LINE
  8
0
 10
-145.202
 20
4.20835
 11
-147.125
 21
7.53848
  0
LINE
  8
0
 10
-147.125
 20
16.1987
 11
-145.202
 21
19.5289
  0
LINE
  8
0
 10
-145.202
 20
19.5289
 11
-141.357
 21
19.5289
  0
LINE
  8
0
 10
-141.357
 20
19.5289
 11
-139.434
 21
16.1987
  0
LINE
  8
0
 10
-139.434
 20
16.1987
 11
-141.357
 21
12.8686
  0
LINE
  8
0
 10
-141.357
 20
12.8686
 11
-145.202
 21
12.8686
  0
LINE
  8
0
 10
-145.202
 20
12.8686
 11
-147.125
 21
16.1987
  0
LINE
  8
0
 10
-147.125
 20
24.859
 11
-145.202
 21
28.1891
  0
LINE
  8
0
 10
-145.202
 20
28.1891
 11
-141.357
 21
28.1891
  0
LINE
  8
0
 10
-141.357
 20
28.1891
 11
-139.434
 21
24.859
  0
LINE
  8
0
 10
-139.434
 20
24.859
 11
-141.357
 21
21.5289
  0
LINE
  8
0
 10
-141.357
 20
21.5289
 11
-145.202
 21
21.5289
  0
LINE
  8
0
 10
-145.202
 20
21.5289
 11
-147.125
 21
24.859
  0
LINE
  8
0
 10
-147.125
 20
33.5192
 11
-145.202
 21
36.8494
  0
LINE
  8
0
 10
-145.202
 20
36.8494
 11
-141.357
 21
36.8494
  0
LINE
  8
0
 10
-141.357
 20
36.8494
 11
-139.434
 21
33.5192
  0
LINE
  8
0
 10
-139.434
 20
33.5192
 11
-141.357
 21
30.1891
  0
LINE
  8
0
 10
-141.357
 20
30.1891
 11
-145.202
 21
30.1891
  0
LINE
  8
0
 10
-145.202
 20
30.1891
 11
-147.125
 21
33.5192
  0
LINE
  8
0
 10
-147.125
 20
42.1795
 11
-145.202
 21
45.5096
  0
LINE
  8
0
 10
-145.202
 20
45.5096
 11
-141.357
 21
45.5096
  0
LINE
  8
0
 10
-141.357
 20
45.5096
 11
-139.434
 21
42.1795
  0
LINE
  8
0
 10
-139.434
 20
42.1795
 11
-141.357
 21
38.8494
  0
LINE
  8
0
 10
-141.357
 20
38.8494
 11
-145.202
 21
38.8494
  0
LINE
  8
0
 10
-145.202
 20
38.8494
 11
-147.125
 21
42.1795
  0
LINE
  8
0
 10
-147.125
 20
50.8397
 11
-145.202
 21
54.1699
  0
LINE
  8
0
 10
-145.202
 20
54.1699
 11
-141.357
 21
54.1699
  0
LINE
  8
0
 10
-141.357
 20
54.1699
 11
-139.434
 21
50.8397
  0
LINE
  8
0
 10
-139.434
 20
50.8397
 11
-141.357
 21
47.5096
  0
LINE
  8
0
 10
-141.357
 20
47.5096
 11
-145.202
 21
47.5096
  0
LINE
  8
0
 10
-145.202
 20
47.5096
 11
-147.125
 21
50.8397
  0
LINE
  8
0
 10
-139.625
 20
11.8686
 11
-137.702
 21
15.1987
  0
LINE
  8
0
 10
-137.702
 20
15.1987
 11
-133.857
 21
15.1987
  0
LINE
  8
0
 10
-133.857
 20
15.1987
 11
-131.934
 21
11.8686
  0
LINE
  8
0
 10
-131.934
 20
11.8686
 11
-133.857
 21
8.53848
  0
LINE
  8
0
 10
-133.857
 20
8.53848
 11
-137.702
 21
8.53848
  0
LINE
  8
0
 10
-137.702
 20
8.53848
 11
-139.625
 21
11.8686
  0
LINE
  8
0
 10
-139.625
 20
20.5289
 11
-137.702
 21
23.859
  0
LINE
  8
0
 10
-137.702
 20
23.859
 11
-133.857
 21
23.859
  0
LINE
  8
0
 10
-133.857
 20
23.859
 11
-131.934
 21
20.5289
  0
LINE
  8
0
 10
-131.934
 20
20.5289
 11
-133.857
 21
17.1987
  0
LINE
  8
0
 10
-133.857
 20
17.1987
 11
-137.702
 21
17.1987
  0
LINE
  8
0
 10
-137.702
 20
17.1987
 11
-139.625
 21
20.5289
  0
LINE
  8
0
 10
-139.625
 20
29.1891
 11
-137.702
 21
32.5192
  0
LINE
  8
0
 10
-137.702
 20
32.5192
 11
-133.857
 21
32.5192
  0
LINE
  8
0
 10
-133.857
 20
32.5192
 11
-131.934
 21
29.1891
  0
LINE
  8
0
 10
-131.934
 20
29.1891
 11
-133.857
 21
25.859
  0
LINE
  8
0
 10
-133.857
 20
25.859
 11
-137.702
 21
25.859
  0
LINE
  8
0
 10
-137.702
 20
25.859
 11
-139.625
 21
29.1891
  0
LINE
  8
0
 10
-139.625
 20
37.8494
 11
-137.702
 21
41.1795
  0
LINE
  8
0
 10
-137.702
 20
41.1795
 11
-133.857
 21
41.1795
  0
LINE
  8
0
 10
-133.857
 20
41.1795
 11
-131.934
 21
37.8494
  0
LINE
  8
0
 10
-131.934
 20
37.8494
 11
-133.857
 21
34.5192
  0
LINE
  8
0
 10
-133.857
 20
34.5192
 11
-137.702
 21
34.5192
  0
LINE
  8
0
 10
-137.702
 20
34.5192
 11
-139.625
 21
37.8494
  0
LINE
  8
0
 10
-139.625
 20
46.5096
 11
-137.702
 21
49.8397
  0
LINE
  8
0
 10
-137.702
 20
49.8397
 11
-133.857
 21
49.8397
  0
LINE
  8
0
 10
-133.857
 20
49.8397
 11
-131.934
 21
46.5096
  0
LINE
  8
0
 10
-131.934
 20
46.5096
 11
-133.857
 21
43.1795
  0
LINE
  8
0
 10
-133.857
 20
43.1795
 11
-137.702
 21
43.1795
  0
LINE
  8
0
 10
-137.702
 20
43.1795
 11
-139.625
 21
46.5096
  0
LINE
  8
0
 10
-139.625
 20
55.1699
 11
-137.702
 21
58.5
  0
LINE
  8
0
 10
-137.702
 20
58.5
 11
-133.857
 21
58.5
  0
LINE
  8
0
 10
-133.857
 20
58.5
 11
-131.934
 21
55.1699
  0
LINE
  8
0
 10
-131.934
 20
55.1699
 11
-133.857
 21
51.8397
  0
LINE
  8
0
 10
-133.857
 20
51.8397
 11
-137.702
 21
51.8397
  0
LINE
  8
0
 10
-137.702
 20
51.8397
 11
-139.625
 21
55.1699
  0
LINE
  8
0
 10
-132.125
 20
7.53848
 11
-130.202
 21
10.8686
  0
LINE
  8
0
 10
-130.202
 20
10.8686
 11
-126.357
 21
10.8686
  0
LINE
  8
0
 10
-126.357
 20
10.8686
 11
-124.434
 21
7.53848
  0
LINE
  8
0
 10
-124.434
 20
7.53848
 11
-126.357
 21
4.20835
  0
LINE
  8
0
 10
-126.357
 20
4.20835
 11
-130.202
 21
4.20835
  0
LINE
  8
0
 10
-130.202
 20
4.20835
 11
-132.125
 21
7.53848
  0
LINE
  8
0
 10
-132.125
 20
16.1987
 11
-130.202
 21
19.5289
  0
LINE
  8
0
 10
-130.202
 20
19.5289
 11
-126.357
 21
19.5289
  0
LINE
  8
0
 10
-126.357
 20
19.5289
 11
-124.434
 21
16.1987
  0
LINE
  8
0
 10
-124.434
 20
16.1987
 11
-126.357
 21
12.8686
  0
LINE
  8
0
 10
-126.357
 20
12.8686
 11
-130.202
 21
12.8686
  0
LINE
  8
0
 10
-130.202
 20
12.8686
 11
-132.125
 21
16.1987
  0
LINE
  8
0
 10
-132.125
 20
24.859
 11
-130.202
 21
28.1891
  0
LINE
  8
0
 10
-130.202
 20
28.1891
 11
-126.357
 21
28.1891
  0
LINE
  8
0
 10
-126.357
 20
28.1891
 11
-124.434
 21
24.859
  0
LINE
  8
0
 10
-124.434
 20
24.859
 11
-126.357
 21
21.5289
  0
LINE
  8
0
 10
-126.357
 20
21.5289
 11
-130.202
 21
21.5289
  0
LINE
  8
0
 10
-130.202
 20
21.5289
 11
-132.125
 21
24.859
  0
LINE
  8
0
 10
-132.125
 20
33.5192
 11
-130.202
 21
36.8494
  0
LINE
  8
0
 10
-130.202
 20
36.8494
 11
-126.357
 21
36.8494
  0
LINE
  8
0
 10
-126.357
 20
36.8494
 11
-124.434
 21
33.5192
  0
LINE
  8
0
 10
-124.434
 20
33.5192
 11
-126.357
 21
30.1891
  0
LINE
  8
0
 10
-126.357
 20
30.1891
 11
-130.202
 21
30.1891
  0
LINE
  8
0
 10
-130.202
 20
30.1891
 11
-132.125
 21
33.5192
  0
LINE
  8
0
 10
-132.125
 20
42.1795
 11
-130.202
 21
45.5096
  0
LINE
  8
0
 10
-130.202
 20
45.5096
 11
-126.357
 21
45.5096
  0
LINE
  8
0
 10
-126.357
 20
45.5096
 11
-124.434
 21
42.1795
  0
LINE
  8
0
 10
-124.434
 20
42.1795
 11
-126.357
 21
38.8494
  0
LINE
  8
0
 10
-126.357
 20
38.8494
 11
-130.202
 21
38.8494
  0
LINE
  8
0
 10
-130.202
 20
38.8494
 11
-132.125
 21
42.1795
  0
LINE
  8
0
 10
-132.125
 20
50.8397
 11
-130.202
 21
54.1699
  0
LINE
  8
0
 10
-130.202
 20
54.1699
 11
-126.357
 21
54.1699
  0
LINE
  8
0
 10
-126.357
 20
54.1699
 11
-124.434
 21
50.8397
  0
LINE
  8
0
 10
-124.434
 20
50.8397
 11
-126.357
 21
47.5096
  0
LINE
  8
0
 10
-126.357
 20
47.5096
 11
-130.202
 21
47.5096
  0
LINE
  8
0
 10
-130.202
 20
47.5096
 11
-132.125
 21
50.8397
  0
LINE
  8
0
 10
-124.625
 20
11.8686
 11
-122.702
 21
15.1987
  0
LINE
  8
0
 10
-122.702
 20
15.1987
 11
-118.857
 21
15.1987
  0
LINE
  8
0
 10
-118.857
 20
15.1987
 11
-116.934
 21
11.8686
  0
LINE
  8
0
 10
-116.934
 20
11.8686
 11
-118.857
 21
8.53848
  0
LINE
  8
0
 10
-118.857
 20
8.53848
 11
-122.702
 21
8.53848
  0
LINE
  8
0
 10
-122.702
 20
8.53848
 11
-124.625
 21
11.8686
  0
LINE
  8
0
 10
-124.625
 20
20.5289
 11
-122.702
 21
23.859
  0
LINE
  8
0
 10
-122.702
 20
23.859
 11
-118.857
 21
23.859
  0
LINE
  8
0
 10
-118.857
 20
23.859
 11
-116.934
 21
20.5289
  0
LINE
  8
0
 10
-116.934
 20
20.5289
 11
-118.857
 21
17.1987
  0
LINE
  8
0
 10
-118.857
 20
17.1987
 11
-122.702
 21
17.1987
  0
LINE
  8
0
 10
-122.702
 20
17.1987
 11
-124.625
 21
20.5289
  0
LINE
  8
0
 10
-124.625
 20
29.1891
 11
-122.702
 21
32.5192
  0
LINE
  8
0
 10
-122.702
 20
32.5192
 11
-118.857
 21
32.5192
  0
LINE
  8
0
 10
-118.857
 20
32.5192
 11
-116.934
 21
29.1891
  0
LINE
  8
0
 10
-116.934
 20
29.1891
 11
-118.857
 21
25.859
  0
LINE
  8
0
 10
-118.857
 20
25.859
 11
-122.702
 21
25.859
  0
LINE
  8
0
 10
-122.702
 20
25.859
 11
-124.625
 21
29.1891
  0
LINE
  8
0
 10
-124.625
 20
37.8494
 11
-122.702
 21
41.1795
  0
LINE
  8
0
 10
-122.702
 20
41.1795
 11
-118.857
 21
41.1795
  0
LINE
  8
0
 10
-118.857
 20
41.1795
 11
-116.934
 21
37.8494
  0
LINE
  8
0
 10
-116.934
 20
37.8494
 11
-118.857
 21
34.5192
  0
LINE
  8
0
 10
-118.857
 20
34.5192
 11
-122.702
 21
34.5192
  0
LINE
  8
0
 10
-122.702
 20
34.5192
 11
-124.625
 21
37.8494
  0
LINE
  8
0
 10
-124.625
 20
46.5096
 11
-122.702
 21
49.8397
  0
LINE
  8
0
 10
-122.702
 20
49.8397
 11
-118.857
 21
49.8397
  0
LINE
  8
0
 10
-118.857
 20
49.8397
 11
-116.934
 21
46.5096
  0
LINE
  8
0
 10
-116.934
 20
46.5096
 11
-118.857
 21
43.1795
  0
LINE
  8
0
 10
-118.857
 20
43.1795
 11
-122.702
 21
43.1795
  0
LINE
  8
0
 10
-122.702
 20
43.1795
 11
-124.625
 21
46.5096
  0
LINE
  8
0
 10
-124.625
 20
55.1699
 11
-122.702
 21
58.5
  0
LINE
  8
0
 10
-122.702
 20
58.5
 11
-118.857
 21
58.5
  0
LINE
  8
0
 10
-118.857
 20
58.5
 11
-116.934
 21
55.1699
  0
LINE
  8
0
 10
-116.934
 20
55.1699
 11
-118.857
 21
51.8397
  0
LINE
  8
0
 10
-118.857
 20
51.8397
 11
-122.702
 21
51.8397
  0
LINE
  8
0
 10
-122.702
 20
51.8397
 11
-124.625
 21
55.1699
  0
LINE
  8
0
 10
-117.125
 20
7.53848
 11
-115.202
 21
10.8686
  0
LINE
  8
0
 10
-115.202
 20
10.8686
 11
-111.357
 21
10.8686
  0
LINE
  8
0
 10
-111.357
 20
10.8686
 11
-109.434
 21
7.53848
  0
LINE
  8
0
 10
-109.434
 20
7.53848
 11
-111.357
 21
4.20835
  0
LINE
  8
0
 10
-111.357
 20
4.20835
 11
-115.202
 21
4.20835
  0
LINE
  8
0
 10
-115.202
 20
4.20835
 11
-117.125
 21
7.53848
  0
LINE
  8
0
 10
-117.125
 20
16.1987
 11
-115.202
 21
19.5289
  0
LINE
  8
0
 10
-115.202
 20
19.5289
 11
-111.357
 21
19.5289
  0
LINE
  8
0
 10
-111.357
 20
19.5289
 11
-109.434
 21
16.1987
  0
LINE
  8
0
 10
-109.434
 20
16.1987
 11
-111.357
 21
12.8686
  0
LINE
  8
0
 10
-111.357
 20
12.8686
 11
-115.202
 21
12.8686
  0
LINE
  8
0
 10
-115.202
 20
12.8686
 11
-117.125
 21
16.1987
  0
LINE
  8
0
 10
-117.125
 20
24.859
 11
-115.202
 21
28.1891
  0
LINE
  8
0
 10
-115.202
 20
28.1891
 11
-111.357
 21
28.1891
  0
LINE
  8
0
 10
-111.357
 20
28.1891
 11
-109.434
 21
24.859
  0
LINE
  8
0
 10
-109.434
 20
24.859
 11
-111.357
 21
21.5289
  0
LINE
  8
0
 10
-111.357
 20
21.5289
 11
-115.202
 21
21.5289
  0
LINE
  8
0
 10
-115.202
 20
21.5289
 11
-117.125
 21
24.859
  0
LINE
  8
0
 10
-117.125
 20
33.5192
 11
-115.202
 21
36.8494
  0
LINE
  8
0
 10
-115.202
 20
36.8494
 11
-111.357
 21
36.8494
  0
LINE
  8
0
 10
-111.357
 20
36.8494
 11
-109.434
 21
33.5192
  0
LINE
  8
0
 10
-109.434
 20
33.5192
 11
-111.357
 21
30.1891
  0
LINE
  8
0
 10
-111.357
 20
30.1891
 11
-115.202
 21
30.1891
  0
LINE
  8
0
 10
-115.202
 20
30.1891
 11
-117.125
 21
33.5192
  0
LINE
  8
0
 10
-117.125
 20
42.1795
 11
-115.202
 21
45.5096
  0
LINE
  8
0
 10
-115.202
 20
45.5096
 11
-111.357
 21
45.5096
  0
LINE
  8
0
 10
-111.357
 20
45.5096
 11
-109.434
 21
42.1795
  0
LINE
  8
0
 10
-109.434
 20
42.1795
 11
-111.357
 21
38.8494
  0
LINE
  8
0
 10
-111.357
 20
38.8494
 11
-115.202
 21
38.8494
  0
LINE
  8
0
 10
-115.202
 20
38.8494
 11
-117.125
 21
42.1795
  0
LINE
  8
0
 10
-117.125
 20
50.8397
 11
-115.202
 21
54.1699
  0
LINE
  8
0
 10
-115.202
 20
54.1699
 11
-111.357
 21
54.1699
  0
LINE
  8
0
 10
-111.357
 20
54.1699
 11
-109.434
 21
50.8397
  0
LINE
  8
0
 10
-109.434
 20
50.8397
 11
-111.357
 21
47.5096
  0
LINE
  8
0
 10
-111.357
 20
47.5096
 11
-115.202
 21
47.5096
  0
LINE
  8
0
 10
-115.202
 20
47.5096
 11
-117.125
 21
50.8397
  0
LINE
  8
0
 10
-109.625
 20
11.8686
 11
-107.702
 21
15.1987
  0
LINE
  8
0
 10
-107.702
 20
15.1987
 11
-103.857
 21
15.1987
  0
LINE
  8
0
 10
-103.857
 20
15.1987
 11
-101.934
 21
11.8686
  0
LINE
  8
0
 10
-101.934
 20
11.8686
 11
-103.857
 21
8.53848
  0
LINE
  8
0
 10
-103.857
 20
8.53848
 11
-107.702
 21
8.53848
  0
LINE
  8
0
 10
-107.702
 20
8.53848
 11
-109.625
 21
11.8686
  0
LINE
  8
0
 10
-109.625
 20
20.5289
 11
-107.702
 21
23.859
  0
LINE
  8
0
 10
-107.702
 20
23.859
 11
-103.857
 21
23.859
  0
LINE
  8
0
 10
-103.857
 20
23.859
 11
-101.934
 21
20.5289
  0
LINE
  8
0
 10
-101.934
 20
20.5289
 11
-103.857
 21
17.1987
  0
LINE
  8
0
 10
-103.857
 20
17.1987
 11
-107.702
 21
17.1987
  0
LINE
  8
0
 10
-107.702
 20
17.1987
 11
-109.625
 21
20.5289
  0
LINE
  8
0
 10
-109.625
 20
29.1891
 11
-107.702
 21
32.5192
  0
LINE
  8
0
 10
-107.702
 20
32.5192
 11
-103.857
 21
32.5192
  0
LINE
  8
0
 10
-103.857
 20
32.5192
 11
-101.934
 21
29.1891
  0
LINE
  8
0
 10
-101.934
 20
29.1891
 11
-103.857
 21
25.859
  0
LINE
  8
0
 10
-103.857
 20
25.859
 11
-107.702
 21
25.859
  0
LINE
  8
0
 10
-107.702
 20
25.859
 11
-109.625
 21
29.1891
  0
LINE
  8
0
 10
-109.625
 20
37.8494
 11
-107.702
 21
41.1795
  0
LINE
  8
0
 10
-107.702
 20
41.1795
 11
-103.857
 21
41.1795
  0
LINE
  8
0
 10
-103.857
 20
41.1795
 11
-101.934
 21
37.8494
  0
LINE
  8
0
 10
-101.934
 20
37.8494
 11
-103.857
 21
34.5192
  0
LINE
  8
0
 10
-103.857
 20
34.5192
 11
-107.702
 21
34.5192
  0
LINE
  8
0
 10
-107.702
 20
34.5192
 11
-109.625
 21
37.8494
  0
LINE
  8
0
 10
-109.625
 20
46.5096
 11
-107.702
 21
49.8397
  0
LINE
  8
0
 10
-107.702
 20
49.8397
 11
-103.857
 21
49.8397
  0
LINE
  8
0
 10
-103.857
 20
49.8397
 11
-101.934
 21
46.5096
  0
LINE
  8
0
 10
-101.934
 20
46.5096
 11
-103.857
 21
43.1795
  0
LINE
  8
0
 10
-103.857
 20
43.1795
 11
-107.702
 21
43.1795
  0
LINE
  8
0
 10
-107.702
 20
43.1795
 11
-109.625
 21
46.5096
  0
LINE
  8
0
 10
-109.625
 20
55.1699
 11
-107.702
 21
58.5
  0
LINE
  8
0
 10
-107.702
 20
58.5
 11
-103.857
 21
58.5
  0
LINE
  8
0
 10
-103.857
 20
58.5
 11
-101.934
 21
55.1699
  0
LINE
  8
0
 10
-101.934
 20
55.1699
 11
-103.857
 21
51.8397
  0
LINE
  8
0
 10
-103.857
 20
51.8397
 11
-107.702
 21
51.8397
  0
LINE
  8
0
 10
-107.702
 20
51.8397
 11
-109.625
 21
55.1699
  0
LINE
  8
0
 10
-102.125
 20
7.53848
 11
-100.202
 21
10.8686
  0
LINE
  8
0
 10
-100.202
 20
10.8686
 11
-96.357
 21
10.8686
  0
LINE
  8
0
 10
-96.357
 20
10.8686
 11
-94.4344
 21
7.53848
  0
LINE
  8
0
 10
-94.4344
 20
7.53848
 11
-96.357
 21
4.20835
  0
LINE
  8
0
 10
-96.357
 20
4.20835
 11
-100.202
 21
4.20835
  0
LINE
  8
0
 10
-100.202
 20
4.20835
 11
-102.125
 21
7.53848
  0
LINE
  8
0
 10
-102.125
 20
16.1987
 11
-100.202
 21
19.5289
  0
LINE
  8
0
 10
-100.202
 20
19.5289
 11
-96.357
 21
19.5289
  0
LINE
  8
0
 10
-96.357
 20
19.5289
 11
-94.4344
 21
16.1987
  0
LINE
  8
0
 10
-94.4344
 20
16.1987
 11
-96.357
 21
12.8686
  0
LINE
  8
0
 10
-96.357
 20
12.8686
 11
-100.202
 21
12.8686
  0
LINE
  8
0
 10
-100.202
 20
12.8686
 11
-102.125
 21
16.1987
  0
LINE
  8
0
 10
-102.125
 20
24.859
 11
-100.202
 21
28.1891
  0
LINE
  8
0
 10
-100.202
 20
28.1891
 11
-96.357
 21
28.1891
  0
LINE
  8
0
 10
-96.357
 20
28.1891
 11
-94.4344
 21
24.859
  0
LINE
  8
0
 10
-94.4344
 20
24.859
 11
-96.357
 21
21.5289
  0
LINE
  8
0
 10
-96.357
 20
21.5289
 11
-100.202
 21
21.5289
  0
LINE
  8
0
 10
-100.202
 20
21.5289
 11
-102.125
 21
24.859
  0
LINE
  8
0
 10
-102.125
 20
33.5192
 11
-100.202
 21
36.8494
  0
LINE
  8
0
 10
-100.202
 20
36.8494
 11
-96.357
 21
36.8494
  0
LINE
  8
0
 10
-96.357
 20
36.8494
 11
-94.4344
 21
33.5192
  0
LINE
  8
0
 10
-94.4344
 20
33.5192
 11
-96.357
 21
30.1891
  0
LINE
  8
0
 10
-96.357
 20
30.1891
 11
-100.202
 21
30.1891
  0
LINE
  8
0
 10
-100.202
 20
30.1891
 11
-102.125
 21
33.5192
  0
LINE
  8
0
 10
-102.125
 20
42.1795
 11
-100.202
 21
45.5096
  0
LINE
  8
0
 10
-100.202
 20
45.5096
 11
-96.357
 21
45.5096
  0
LINE
  8
0
 10
-96.357
 20
45.5096
 11
-94.4344
 21
42.1795
  0
LINE
  8
0
 10
-94.4344
 20
42.1795
 11
-96.357
 21
38.8494
  0
LINE
  8
0
 10
-96.357
 20
38.8494
 11
-100.202
 21
38.8494
  0
LINE
  8
0
 10
-100.202
 20
38.8494
 11
-102.125
 21
42.1795
  0
LINE
  8
0
 10
-102.125
 20
50.8397
 11
-100.202
 21
54.1699
  0
LINE
  8
0
 10
-100.202
 20
54.1699
 11
-96.357
 21
54.1699
  0
LINE
  8
0
 10
-96.357
 20
54.1699
 11
-94.4344
 21
50.8397
  0
LINE
  8
0
 10
-94.4344
 20
50.8397
 11
-96.357
 21
47.5096
  0
LINE
  8
0
 10
-96.357
 20
47.5096
 11
-100.202
 21
47.5096
  0
LINE
  8
0
 10
-100.202
 20
47.5096
 11
-102.125
 21
50.8397
  0
LINE
  8
0
 10
-94.625
 20
11.8686
 11
-92.7023
 21
15.1987
  0
LINE
  8
0
 10
-92.7023
 20
15.1987
 11
-88.857
 21
15.1987
  0
LINE
  8
0
 10
-88.857
 20
15.1987
 11
-86.9344
 21
11.8686
  0
LINE
  8
0
 10
-86.9344
 20
11.8686
 11
-88.857
 21
8.53848
  0
LINE
  8
0
 10
-88.857
 20
8.53848
 11
-92.7023
 21
8.53848
  0
LINE
  8
0
 10
-92.7023
 20
8.53848
 11
-94.625
 21
11.8686
  0
LINE
  8
0
 10
-94.625
 20
20.5289
 11
-92.7023
 21
23.859
  0
LINE
  8
0
 10
-92.7023
 20
23.859
 11
-88.857
 21
23.859
  0
LINE
  8
0
 10
-88.857
 20
23.859
 11
-86.9344
 21
20.5289
  0
LINE
  8
0
 10
-86.9344
 20
20.5289
 11
-88.857
 21
17.1987
  0
LINE
  8
0
 10
-88.857
 20
17.1987
 11
-92.7023
 21
17.1987
  0
LINE
  8
0
 10
-92.7023
 20
17.1987
 11
-94.625
 21
20.5289
  0
LINE
  8
0
 10
-94.625
 20
29.1891
 11
-92.7023
 21
32.5192
  0
LINE
  8
0
 10
-92.7023
 20
32.5192
 11
-88.857
 21
32.5192
  0
LINE
  8
0
 10
-88.857
 20
32.5192
 11
-86.9344
 21
29.1891
  0
LINE
  8
0
 10
-86.9344
 20
29.1891
 11
-88.857
 21
25.859
  0
LINE
  8
0
 10
-88.857
 20
25.859
 11
-92.7023
 21
25.859
  0
LINE
  8
0
 10
-92.7023
 20
25.859
 11
-94.625
 21
29.1891
  0
LINE
  8
0
 10
-94.625
 20
37.8494
 11
-92.7023
 21
41.1795
  0
LINE
  8
0
 10
-92.7023
 20
41.1795
 11
-88.857
 21
41.1795
  0
LINE
  8
0
 10
-88.857
 20
41.1795
 11
-86.9344
 21
37.8494
  0
LINE
  8
0
 10
-86.9344
 20
37.8494
 11
-88.857
 21
34.5192
  0
LINE
  8
0
 10
-88.857
 20
34.5192
 11
-92.7023
 21
34.5192
  0
LINE
  8
0
 10
-92.7023
 20
34.5192
 11
-94.625
 21
37.8494
  0
LINE
  8
0
 10
-94.625
 20
46.5096
 11
-92.7023
 21
49.8397
  0
LINE
  8
0
 10
-92.7023
 20
49.8397
 11
-88.857
 21
49.8397
  0
LINE
  8
0
 10
-88.857
 20
49.8397
 11
-86.9344
 21
46.5096
  0
LINE
  8
0
 10
-86.9344
 20
46.5096
 11
-88.857
 21
43.1795
  0
LINE
  8
0
 10
-88.857
 20
43.1795
 11
-92.7023
 21
43.1795
  0
LINE
  8
0
 10
-92.7023
 20
43.1795
 11
-94.625
 21
46.5096
  0
LINE
  8
0
 10
-94.625
 20
55.1699
 11
-92.7023
 21
58.5
  0
LINE
  8
0
 10
-92.7023
 20
58.5
 11
-88.857
 21
58.5
  0
LINE
  8
0
 10
-88.857
 20
58.5
 11
-86.9344
 21
55.1699
  0
LINE
  8
0
 10
-86.9344
 20
55.1699
 11
-88.857
 21
51.8397
  0
LINE
  8
0
 10
-88.857
 20
51.8397
 11
-92.7023
 21
51.8397
  0
LINE
  8
0
 10
-92.7023
 20
51.8397
 11
-94.625
 21
55.1699
  0
LINE
  8
0
 10
-87.125
 20
7.53848
 11
-85.2023
 21
10.8686
  0
LINE
  8
0
 10
-85.2023
 20
10.8686
 11
-81.357
 21
10.8686
  0
LINE
  8
0
 10
-81.357
 20
10.8686
 11
-79.4344
 21
7.53848
  0
LINE
  8
0
 10
-79.4344
 20
7.53848
 11
-81.357
 21
4.20835
  0
LINE
  8
0
 10
-81.357
 20
4.20835
 11
-85.2023
 21
4.20835
  0
LINE
  8
0
 10
-85.2023
 20
4.20835
 11
-87.125
 21
7.53848
  0
LINE
  8
0
 10
-87.125
 20
16.1987
 11
-85.2023
 21
19.5289
  0
LINE
  8
0
 10
-85.2023
 20
19.5289
 11
-81.357
 21
19.5289
  0
LINE
  8
0
 10
-81.357
 20
19.5289
 11
-79.4344
 21
16.1987
  0
LINE
  8
0
 10
-79.4344
 20
16.1987
 11
-81.357
 21
12.8686
  0
LINE
  8
0
 10
-81.357
 20
12.8686
 11
-85.2023
 21
12.8686
  0
LINE
  8
0
 10
-85.2023
 20
12.8686
 11
-87.125
 21
16.1987
  0
LINE
  8
0
 10
-87.125
 20
24.859
 11
-85.2023
 21
28.1891
  0
LINE
  8
0
 10
-85.2023
 20
28.1891
 11
-81.357
 21
28.1891
  0
LINE
  8
0
 10
-81.357
 20
28.1891
 11
-79.4344
 21
24.859
  0
LINE
  8
0
 10
-79.4344
 20
24.859
 11
-81.357
 21
21.5289
  0
LINE
  8
0
 10
-81.357
 20
21.5289
 11
-85.2023
 21
21.5289
  0
LINE
  8
0
 10
-85.2023
 20
21.5289
 11
-87.125
 21
24.859
  0
LINE
  8
0
 10
-87.125
 20
33.5192
 11
-85.2023
 21
36.8494
  0
LINE
  8
0
 10
-85.2023
 20
36.8494
 11
-81.357
 21
36.8494
  0
LINE
  8
0
 10
-81.357
 20
36.8494
 11
-79.4344
 21
33.5192
  0
LINE
  8
0
 10
-79.4344
 20
33.5192
 11
-81.357
 21
30.1891
  0
LINE
  8
0
 10
-81.357
 20
30.1891
 11
-85.2023
 21
30.1891
  0
LINE
  8
0
 10
-85.2023
 20
30.1891
 11
-87.125
 21
33.5192
  0
LINE
  8
0
 10
-87.125
 20
42.1795
 11
-85.2023
 21
45.5096
  0
LINE
  8
0
 10
-85.2023
 20
45.5096
 11
-81.357
 21
45.5096
  0
LINE
  8
0
 10
-81.357
 20
45.5096
 11
-79.4344
 21
42.1795
  0
LINE
  8
0
 10
-79.4344
 20
42.1795
 11
-81.357
 21
38.8494
  0
LINE
  8
0
 10
-81.357
 20
38.8494
 11
-85.2023
 21
38.8494
  0
LINE
  8
0
 10
-85.2023
 20
38.8494
 11
-87.125
 21
42.1795
  0
LINE
  8
0
 10
-87.125
 20
50.8397
 11
-85.2023
 21
54.1699
  0
LINE
  8
0
 10
-85.2023
 20
54.1699
 11
-81.357
 21
54.1699
  0
LINE
  8
0
 10
-81.357
 20
54.1699
 11
-79.4344
 21
50.8397
  0
LINE
  8
0
 10
-79.4344
 20
50.8397
 11
-81.357
 21
47.5096
  0
LINE
  8
0
 10
-81.357
 20
47.5096
 11
-85.2023
 21
47.5096
  0
LINE
  8
0
 10
-85.2023
 20
47.5096
 11
-87.125
 21
50.8397
  0
LINE
  8
0
 10
-79.625
 20
11.8686
 11
-77.7023
 21
15.1987
  0
LINE
  8
0
 10
-77.7023
 20
15.1987
 11
-73.857
 21
15.1987
  0
LINE
  8
0
 10
-73.857
 20
15.1987
 11
-71.9344
 21
11.8686
  0
LINE
  8
0
 10
-71.9344
 20
11.8686
 11
-73.857
 21
8.53848
  0
LINE
  8
0
 10
-73.857
 20
8.53848
 11
-77.7023
 21
8.53848
  0
LINE
  8
0
 10
-77.7023
 20
8.53848
 11
-79.625
 21
11.8686
  0
LINE
  8
0
 10
-79.625
 20
20.5289
 11
-77.7023
 21
23.859
  0
LINE
  8
0
 10
-77.7023
 20
23.859
 11
-73.857
 21
23.859
  0
LINE
  8
0
 10
-73.857
 20
23.859
 11
-71.9344
 21
20.5289
  0
LINE
  8
0
 10
-71.9344
 20
20.5289
 11
-73.857
 21
17.1987
  0
LINE
  8
0
 10
-73.857
 20
17.1987
 11
-77.7023
 21
17.1987
  0
LINE
  8
0
 10
-77.7023
 20
17.1987
 11
-79.625
 21
20.5289
  0
LINE
  8
0
 10
-79.625
 20
29.1891
 11
-77.7023
 21
32.5192
  0
LINE
  8
0
 10
-77.7023
 20
32.5192
 11
-73.857
 21
32.5192
  0
LINE
  8
0
 10
-73.857
 20
32.5192
 11
-71.9344
 21
29.1891
  0
LINE
  8
0
 10
-71.9344
 20
29.1891
 11
-73.857
 21
25.859
  0
LINE
  8
0
 10
-73.857
 20
25.859
 11
-77.7023
 21
25.859
  0
LINE
  8
0
 10
-77.7023
 20
25.859
 11
-79.625
 21
29.1891
  0
LINE
  8
0
 10
-79.625
 20
37.8494
 11
-77.7023
 21
41.1795
  0
LINE
  8
0
 10
-77.7023
 20
41.1795
 11
-73.857
 21
41.1795
  0
LINE
  8
0
 10
-73.857
 20
41.1795
 11
-71.9344
 21
37.8494
  0
LINE
  8
0
 10
-71.9344
 20
37.8494
 11
-73.857
 21
34.5192
  0
LINE
  8
0
 10
-73.857
 20
34.5192
 11
-77.7023
 21
34.5192
  0
LINE
  8
0
 10
-77.7023
 20
34.5192
 11
-79.625
 21
37.8494
  0
LINE
  8
0
 10
-79.625
 20
46.5096
 11
-77.7023
 21
49.8397
  0
LINE
  8
0
 10
-77.7023
 20
49.8397
 11
-73.857
 21
49.8397
  0
LINE
  8
0
 10
-73.857
 20
49.8397
 11
-71.9344
 21
46.5096
  0
LINE
  8
0
 10
-71.9344
 20
46.5096
 11
-73.857
 21
43.1795
  0
LINE
  8
0
 10
-73.857
 20
43.1795
 11
-77.7023
 21
43.1795
  0
LINE
  8
0
 10
-77.7023
 20
43.1795
 11
-79.625
 21
46.5096
  0
LINE
  8
0
 10
-79.625
 20
55.1699
 11
-77.7023
 21
58.5
  0
LINE
  8
0
 10
-77.7023
 20
58.5
 11
-73.857
 21
58.5
  0
LINE
  8
0
 10
-73.857
 20
58.5
 11
-71.9344
 21
55.1699
  0
LINE
  8
0
 10
-71.9344
 20
55.1699
 11
-73.857
 21
51.8397
  0
LINE
  8
0
 10
-73.857
 20
51.8397
 11
-77.7023
 21
51.8397
  0
LINE
  8
0
 10
-77.7023
 20
51.8397
 11
-79.625
 21
55.1699
  0
LINE
  8
0
 10
-72.125
 20
7.53848
 11
-70.2023
 21
10.8686
  0
LINE
  8
0
 10
-70.2023
 20
10.8686
 11
-66.357
 21
10.8686
  0
LINE
  8
0
 10
-66.357
 20
10.8686
 11
-64.4344
 21
7.53848
  0
LINE
  8
0
 10
-64.4344
 20
7.53848
 11
-66.357
 21
4.20835
  0
LINE
  8
0
 10
-66.357
 20
4.20835
 11
-70.2023
 21
4.20835
  0
LINE
  8
0
 10
-70.2023
 20
4.20835
 11
-72.125
 21
7.53848
  0
LINE
  8
0
 10
-72.125
 20
16.1987
 11
-70.2023
 21
19.5289
  0
LINE
  8
0
 10
-70.2023
 20
19.5289
 11
-66.357
 21
19.5289
  0
LINE
  8
0
 10
-66.357
 20
19.5289
 11
-64.4344
 21
16.1987
  0
LINE
  8
0
 10
-64.4344
 20
16.1987
 11
-66.357
 21
12.8686
  0
LINE
  8
0
 10
-66.357
 20
12.8686
 11
-70.2023
 21
12.8686
  0
LINE
  8
0
 10
-70.2023
 20
12.8686
 11
-72.125
 21
16.1987
  0
LINE
  8
0
 10
-72.125
 20
24.859
 11
-70.2023
 21
28.1891
  0
LINE
  8
0
 10
-70.2023
 20
28.1891
 11
-66.357
 21
28.1891
  0
LINE
  8
0
 10
-66.357
 20
28.1891
 11
-64.4344
 21
24.859
  0
LINE
  8
0
 10
-64.4344
 20
24.859
 11
-66.357
 21
21.5289
  0
LINE
  8
0
 10
-66.357
 20
21.5289
 11
-70.2023
 21
21.5289
  0
LINE
  8
0
 10
-70.2023
 20
21.5289
 11
-72.125
 21
24.859
  0
LINE
  8
0
 10
-72.125
 20
33.5192
 11
-70.2023
 21
36.8494
  0
LINE
  8
0
 10
-70.2023
 20
36.8494
 11
-66.357
 21
36.8494
  0
LINE
  8
0
 10
-66.357
 20
36.8494
 11
-64.4344
 21
33.5192
  0
LINE
  8
0
 10
-64.4344
 20
33.5192
 11
-66.357
 21
30.1891
  0
LINE
  8
0
 10
-66.357
 20
30.1891
 11
-70.2023
 21
30.1891
  0
LINE
  8
0
 10
-70.2023
 20
30.1891
 11
-72.125
 21
33.5192
  0
LINE
  8
0
 10
-72.125
 20
42.1795
 11
-70.2023
 21
45.5096
  0
LINE
  8
0
 10
-70.2023
 20
45.5096
 11
-66.357
 21
45.5096
  0
LINE
  8
0
 10
-66.357
 20
45.5096
 11
-64.4344
 21
42.1795
  0
LINE
  8
0
 10
-64.4344
 20
42.1795
 11
-66.357
 21
38.8494
  0
LINE
  8
0
 10
-66.357
 20
38.8494
 11
-70.2023
 21
38.8494
  0
LINE
  8
0
 10
-70.2023
 20
38.8494
 11
-72.125
 21
42.1795
  0
LINE
  8
0
 10
-72.125
 20
50.8397
 11
-70.2023
 21
54.1699
  0
LINE
  8
0
 10
-70.2023
 20
54.1699
 11
-66.357
 21
54.1699
  0
LINE
  8
0
 10
-66.357
 20
54.1699
 11
-64.4344
 21
50.8397
  0
LINE
  8
0
 10
-64.4344
 20
50.8397
 11
-66.357
 21
47.5096
  0
LINE
  8
0
 10
-66.357
 20
47.5096
 11
-70.2023
 21
47.5096
  0
LINE
  8
0
 10
-70.2023
 20
47.5096
 11
-72.125
 21
50.8397
  0
LINE
  8
0
 10
-64.625
 20
11.8686
 11
-62.7023
 21
15.1987
  0
LINE
  8
0
 10
-62.7023
 20
15.1987
 11
-58.857
 21
15.1987
  0
LINE
  8
0
 10
-58.857
 20
15.1987
 11
-56.9344
 21
11.8686
  0
LINE
  8
0
 10
-56.9344
 20
11.8686
 11
-58.857
 21
8.53848
  0
LINE
  8
0
 10
-58.857
 20
8.53848
 11
-62.7023
 21
8.53848
  0
LINE
  8
0
 10
-62.7023
 20
8.53848
 11
-64.625
 21
11.8686
  0
LINE
  8
0
 10
-64.625
 20
20.5289
 11
-62.7023
 21
23.859
  0
LINE
  8
0
 10
-62.7023
 20
23.859
 11
-58.857
 21
23.859
  0
LINE
  8
0
 10
-58.857
 20
23.859
 11
-56.9344
 21
20.5289
  0
LINE
  8
0
 10
-56.9344
 20
20.5289
 11
-58.857
 21
17.1987
  0
LINE
  8
0
 10
-58.857
 20
17.1987
 11
-62.7023
 21
17.1987
  0
LINE
  8
0
 10
-62.7023
 20
17.1987
 11
-64.625
 21
20.5289
  0
LINE
  8
0
 10
-64.625
 20
29.1891
 11
-62.7023
 21
32.5192
  0
LINE
  8
0
 10
-62.7023
 20
32.5192
 11
-58.857
 21
32.5192
  0
LINE
  8
0
 10
-58.857
 20
32.5192
 11
-56.9344
 21
29.1891
  0
LINE
  8
0
 10
-56.9344
 20
29.1891
 11
-58.857
 21
25.859
  0
LINE
  8
0
 10
-58.857
 20
25.859
 11
-62.7023
 21
25.859
  0
LINE
  8
0
 10
-62.7023
 20
25.859
 11
-64.625
 21
29.1891
  0
LINE
  8
0
 10
-64.625
 20
37.8494
 11
-62.7023
 21
41.1795
  0
LINE
  8
0
 10
-62.7023
 20
41.1795
 11
-58.857
 21
41.1795
  0
LINE
  8
0
 10
-58.857
 20
41.1795
 11
-56.9344
 21
37.8494
  0
LINE
  8
0
 10
-56.9344
 20
37.8494
 11
-58.857
 21
34.5192
  0
LINE
  8
0
 10
-58.857
 20
34.5192
 11
-62.7023
 21
34.5192
  0
LINE
  8
0
 10
-62.7023
 20
34.5192
 11
-64.625
 21
37.8494
  0
LINE
  8
0
 10
-64.625
 20
46.5096
 11
-62.7023
 21
49.8397
  0
LINE
  8
0
 10
-62.7023
 20
49.8397
 11
-58.857
 21
49.8397
  0
LINE
  8
0
 10
-58.857
 20
49.8397
 11
-56.9344
 21
46.5096
  0
LINE
  8
0
 10
-56.9344
 20
46.5096
 11
-58.857
 21
43.1795
  0
LINE
  8
0
 10
-58.857
 20
43.1795
 11
-62.7023
 21
43.1795
  0
LINE
  8
0
 10
-62.7023
 20
43.1795
 11
-64.625
 21
46.5096
  0
LINE
  8
0
 10
-64.625
 20
55.1699
 11
-62.7023
 21
58.5
  0
LINE
  8
0
 10
-62.7023
 20
58.5
 11
-58.857
 21
58.5
  0
LINE
  8
0
 10
-58.857
 20
58.5
 11
-56.9344
 21
55.1699
  0
LINE
  8
0
 10
-56.9344
 20
55.1699
 11
-58.857
 21
51.8397
  0
LINE
  8
0
 10
-58.857
 20
51.8397
 11
-62.7023
 21
51.8397
  0
LINE
  8
0
 10
-62.7023
 20
51.8397
 11
-64.625
 21
55.1699
  0
LINE
  8
0
 10
-57.125
 20
7.53848
 11
-55.2023
 21
10.8686
  0
LINE
  8
0
 10
-55.2023
 20
10.8686
 11
-51.357
 21
10.8686
  0
LINE
  8
0
 10
-51.357
 20
10.8686
 11
-49.4344
 21
7.53848
  0
LINE
  8
0
 10
-49.4344
 20
7.53848
 11
-51.357
 21
4.20835
  0
LINE
  8
0
 10
-51.357
 20
4.20835
 11
-55.2023
 21
4.20835
  0
LINE
  8
0
 10
-55.2023
 20
4.20835
 11
-57.125
 21
7.53848
  0
LINE
  8
0
 10
-57.125
 20
16.1987
 11
-55.2023
 21
19.5289
  0
LINE
  8
0
 10
-55.2023
 20
19.5289
 11
-51.357
 21
19.5289
  0
LINE
  8
0
 10
-51.357
 20
19.5289
 11
-49.4344
 21
16.1987
  0
LINE
  8
0
 10
-49.4344
 20
16.1987
 11
-51.357
 21
12.8686
  0
LINE
  8
0
 10
-51.357
 20
12.8686
 11
-55.2023
 21
12.8686
  0
LINE
  8
0
 10
-55.2023
 20
12.8686
 11
-57.125
 21
16.1987
  0
LINE
  8
0
 10
-57.125
 20
24.859
 11
-55.2023
 21
28.1891
  0
LINE
  8
0
 10
-55.2023
 20
28.1891
 11
-51.357
 21
28.1891
  0
LINE
  8
0
 10
-51.357
 20
28.1891
 11
-49.4344
 21
24.859
  0
LINE
  8
0
 10
-49.4344
 20
24.859
 11
-51.357
 21
21.5289
  0
LINE
  8
0
 10
-51.357
 20
21.5289
 11
-55.2023
 21
21.5289
  0
LINE
  8
0
 10
-55.2023
 20
21.5289
 11
-57.125
 21
24.859
  0
LINE
  8
0
 10
-57.125
 20
33.5192
 11
-55.2023
 21
36.8494
  0
LINE
  8
0
 10
-55.2023
 20
36.8494
 11
-51.357
 21
36.8494
  0
LINE
  8
0
 10
-51.357
 20
36.8494
 11
-49.4344
 21
33.5192
  0
LINE
  8
0
 10
-49.4344
 20
33.5192
 11
-51.357
 21
30.1891
  0
LINE
  8
0
 10
-51.357
 20
30.1891
 11
-55.2023
 21
30.1891
  0
LINE
  8
0
 10
-55.2023
 20
30.1891
 11
-57.125
 21
33.5192
  0
LINE
  8
0
 10
-57.125
 20
42.1795
 11
-55.2023
 21
45.5096
  0
LINE
  8
0
 10
-55.2023
 20
45.5096
 11
-51.357
 21
45.5096
  0
LINE
  8
0
 10
-51.357
 20
45.5096
 11
-49.4344
 21
42.1795
  0
LINE
  8
0
 10
-49.4344
 20
42.1795
 11
-51.357
 21
38.8494
  0
LINE
  8
0
 10
-51.357
 20
38.8494
 11
-55.2023
 21
38.8494
  0
LINE
  8
0
 10
-55.2023
 20
38.8494
 11
-57.125
 21
42.1795
  0
LINE
  8
0
 10
-57.125
 20
50.8397
 11
-55.2023
 21
54.1699
  0
LINE
  8
0
 10
-55.2023
 20
54.1699
 11
-51.357
 21
54.1699
  0
LINE
  8
0
 10
-51.357
 20
54.1699
 11
-49.4344
 21
50.8397
  0
LINE
  8
0
 10
-49.4344
 20
50.8397
 11
-51.357
 21
47.5096
  0
LINE
  8
0
 10
-51.357
 20
47.5096
 11
-55.2023
 21
47.5096
  0
LINE
  8
0
 10
-55.2023
 20
47.5096
 11
-57.125
 21
50.8397
  0
LINE
  8
0
 10
-49.625
 20
11.8686
 11
-47.7023
 21
15.1987
  0
LINE
  8
0
 10
-47.7023
 20
15.1987
 11
-43.857
 21
15.1987
  0
LINE
  8
0
 10
-43.857
 20
15.1987
 11
-41.9344
 21
11.8686
  0
LINE
  8
0
 10
-41.9344
 20
11.8686
 11
-43.857
 21
8.53848
  0
LINE
  8
0
 10
-43.857
 20
8.53848
 11
-47.7023
 21
8.53848
  0
LINE
  8
0
 10
-47.7023
 20
8.53848
 11
-49.625
 21
11.8686
  0
LINE
  8
0
 10
-49.625
 20
20.5289
 11
-47.7023
 21
23.859
  0
LINE
  8
0
 10
-47.7023
 20
23.859
 11
-43.857
 21
23.859
  0
LINE
  8
0
 10
-43.857
 20
23.859
 11
-41.9344
 21
20.5289
  0
LINE
  8
0
 10
-41.9344
 20
20.5289
 11
-43.857
 21
17.1987
  0
LINE
  8
0
 10
-43.857
 20
17.1987
 11
-47.7023
 21
17.1987
  0
LINE
  8
0
 10
-47.7023
 20
17.1987
 11
-49.625
 21
20.5289
  0
LINE
  8
0
 10
-49.625
 20
29.1891
 11
-47.7023
 21
32.5192
  0
LINE
  8
0
 10
-47.7023
 20
32.5192
 11
-43.857
 21
32.5192
  0
LINE
  8
0
 10
-43.857
 20
32.5192
 11
-41.9344
 21
29.1891
  0
LINE
  8
0
 10
-41.9344
 20
29.1891
 11
-43.857
 21
25.859
  0
LINE
  8
0
 10
-43.857
 20
25.859
 11
-47.7023
 21
25.859
  0
LINE
  8
0
 10
-47.7023
 20
25.859
 11
-49.625
 21
29.1891
  0
LINE
  8
0
 10
-49.625
 20
37.8494
 11
-47.7023
 21
41.1795
  0
LINE
  8
0
 10
-47.7023
 20
41.1795
 11
-43.857
 21
41.1795
  0
LINE
  8
0
 10
-43.857
 20
41.1795
 11
-41.9344
 21
37.8494
  0
LINE
  8
0
 10
-41.9344
 20
37.8494
 11
-43.857
 21
34.5192
  0
LINE
  8
0
 10
-43.857
 20
34.5192
 11
-47.7023
 21
34.5192
  0
LINE
  8
0
 10
-47.7023
 20
34.5192
 11
-49.625
 21
37.8494
  0
LINE
  8
0
 10
-49.625
 20
46.5096
 11
-47.7023
 21
49.8397
  0
LINE
  8
0
 10
-47.7023
 20
49.8397
 11
-43.857
 21
49.8397
  0
LINE
  8
0
 10
-43.857
 20
49.8397
 11
-41.9344
 21
46.5096
  0
LINE
  8
0
 10
-41.9344
 20
46.5096
 11
-43.857
 21
43.1795
  0
LINE
  8
0
 10
-43.857
 20
43.1795
 11
-47.7023
 21
43.1795
  0
LINE
  8
0
 10
-47.7023
 20
43.1795
 11
-49.625
 21
46.5096
  0
LINE
  8
0
 10
-49.625
 20
55.1699
 11
-47.7023
 21
58.5
  0
LINE
  8
0
 10
-47.7023
 20
58.5
 11
-43.857
 21
58.5
  0
LINE
  8
0
 10
-43.857
 20
58.5
 11
-41.9344
 21
55.1699
  0
LINE
  8
0
 10
-41.9344
 20
55.1699
 11
-43.857
 21
51.8397
  0
LINE
  8
0
 10
-43.857
 20
51.8397
 11
-47.7023
 21
51.8397
  0
LINE
  8
0
 10
-47.7023
 20
51.8397
 11
-49.625
 21
55.1699
  0
LINE
  8
0
 10
-42.125
 20
7.53848
 11
-40.2023
 21
10.8686
  0
LINE
  8
0
 10
-40.2023
 20
10.8686
 11
-36.357
 21
10.8686
  0
LINE
  8
0
 10
-36.357
 20
10.8686
 11
-34.4344
 21
7.53848
  0
LINE
  8
0
 10
-34.4344
 20
7.53848
 11
-36.357
 21
4.20835
  0
LINE
  8
0
 10
-36.357
 20
4.20835
 11
-40.2023
 21
4.20835
  0
LINE
  8
0
 10
-40.2023
 20
4.20835
 11
-42.125
 21
7.53848
  0
LINE
  8
0
 10
-42.125
 20
16.1987
 11
-40.2023
 21
19.5289
  0
LINE
  8
0
 10
-40.2023
 20
19.5289
 11
-36.357
 21
19.5289
  0
LINE
  8
0
 10
-36.357
 20
19.5289
 11
-34.4344
 21
16.1987
  0
LINE
  8
0
 10
-34.4344
 20
16.1987
 11
-36.357
 21
12.8686
  0
LINE
  8
0
 10
-36.357
 20
12.8686
 11
-40.2023
 21
12.8686
  0
LINE
  8
0
 10
-40.2023
 20
12.8686
 11
-42.125
 21
16.1987
  0
LINE
  8
0
 10
-42.125
 20
24.859
 11
-40.2023
 21
28.1891
  0
LINE
  8
0
 10
-40.2023
 20
28.1891
 11
-36.357
 21
28.1891
  0
LINE
  8
0
 10
-36.357
 20
28.1891
 11
-34.4344
 21
24.859
  0
LINE
  8
0
 10
-34.4344
 20
24.859
 11
-36.357
 21
21.5289
  0
LINE
  8
0
 10
-36.357
 20
21.5289
 11
-40.2023
 21
21.5289
  0
LINE
  8
0
 10
-40.2023
 20
21.5289
 11
-42.125
 21
24.859
  0
LINE
  8
0
 10
-42.125
 20
33.5192
 11
-40.2023
 21
36.8494
  0
LINE
  8
0
 10
-40.2023
 20
36.8494
 11
-36.357
 21
36.8494
  0
LINE
  8
0
 10
-36.357
 20
36.8494
 11
-34.4344
 21
33.5192
  0
LINE
  8
0
 10
-34.4344
 20
33.5192
 11
-36.357
 21
30.1891
  0
LINE
  8
0
 10
-36.357
 20
30.1891
 11
-40.2023
 21
30.1891
  0
LINE
  8
0
 10
-40.2023
 20
30.1891
 11
-42.125
 21
33.5192
  0
LINE
  8
0
 10
-42.125
 20
42.1795
 11
-40.2023
 21
45.5096
  0
LINE
  8
0
 10
-40.2023
 20
45.5096
 11
-36.357
 21
45.5096
  0
LINE
  8
0
 10
-36.357
 20
45.5096
 11
-34.4344
 21
42.1795
  0
LINE
  8
0
 10
-34.4344
 20
42.1795
 11
-36.357
 21
38.8494
  0
LINE
  8
0
 10
-36.357
 20
38.8494
 11
-40.2023
 21
38.8494
  0
LINE
  8
0
 10
-40.2023
 20
38.8494
 11
-42.125
 21
42.1795
  0
LINE
  8
0
 10
-42.125
 20
50.8397
 11
-40.2023
 21
54.1699
  0
LINE
  8
0
 10
-40.2023
 20
54.1699
 11
-36.357
 21
54.1699
  0
LINE
  8
0
 10
-36.357
 20
54.1699
 11
-34.4344
 21
50.8397
  0
LINE
  8
0
 10
-34.4344
 20
50.8397
 11
-36.357
 21
47.5096
  0
LINE
  8
0
 10
-36.357
 20
47.5096
 11
-40.2023
 21
47.5096
  0
LINE
  8
0
 10
-40.2023
 20
47.5096
 11
-42.125
 21
50.8397
  0
LINE
  8
0
 10
-34.625
 20
11.8686
 11
-32.7023
 21
15.1987
  0
LINE
  8
0
 10
-32.7023
 20
15.1987
 11
-28.857
 21
15.1987
  0
LINE
  8
0
 10
-28.857
 20
15.1987
 11
-26.9344
 21
11.8686
  0
LINE
  8
0
 10
-26.9344
 20
11.8686
 11
-28.857
 21
8.53848
  0
LINE
  8
0
 10
-28.857
 20
8.53848
 11
-32.7023
 21
8.53848
  0
LINE
  8
0
 10
-32.7023
 20
8.53848
 11
-34.625
 21
11.8686
  0
LINE
  8
0
 10
-34.625
 20
20.5289
 11
-32.7023
 21
23.859
  0
LINE
  8
0
 10
-32.7023
 20
23.859
 11
-28.857
 21
23.859
  0
LINE
  8
0
 10
-28.857
 20
23.859
 11
-26.9344
 21
20.5289
  0
LINE
  8
0
 10
-26.9344
 20
20.5289
 11
-28.857
 21
17.1987
  0
LINE
  8
0
 10
-28.857
 20
17.1987
 11
-32.7023
 21
17.1987
  0
LINE
  8
0
 10
-32.7023
 20
17.1987
 11
-34.625
 21
20.5289
  0
LINE
  8
0
 10
-34.625
 20
29.1891
 11
-32.7023
 21
32.5192
  0
LINE
  8
0
 10
-32.7023
 20
32.5192
 11
-28.857
 21
32.5192
  0
LINE
  8
0
 10
-28.857
 20
32.5192
 11
-26.9344
 21
29.1891
  0
LINE
  8
0
 10
-26.9344
 20
29.1891
 11
-28.857
 21
25.859
  0
LINE
  8
0
 10
-28.857
 20
25.859
 11
-32.7023
 21
25.859
  0
LINE
  8
0
 10
-32.7023
 20
25.859
 11
-34.625
 21
29.1891
  0
LINE
  8
0
 10
-34.625
 20
37.8494
 11
-32.7023
 21
41.1795
  0
LINE
  8
0
 10
-32.7023
 20
41.1795
 11
-28.857
 21
41.1795
  0
LINE
  8
0
 10
-28.857
 20
41.1795
 11
-26.9344
 21
37.8494
  0
LINE
  8
0
 10
-26.9344
 20
37.8494
 11
-28.857
 21
34.5192
  0
LINE
  8
0
 10
-28.857
 20
34.5192
 11
-32.7023
 21
34.5192
  0
LINE
  8
0
 10
-32.7023
 20
34.5192
 11
-34.625
 21
37.8494
  0
LINE
  8
0
 10
-34.625
 20
46.5096
 11
-32.7023
 21
49.8397
  0
LINE
  8
0
 10
-32.7023
 20
49.8397
 11
-28.857
 21
49.8397
  0
LINE
  8
0
 10
-28.857
 20
49.8397
 11
-26.9344
 21
46.5096
  0
LINE
  8
0
 10
-26.9344
 20
46.5096
 11
-28.857
 21
43.1795
  0
LINE
  8
0
 10
-28.857
 20
43.1795
 11
-32.7023
 21
43.1795
  0
LINE
  8
0
 10
-32.7023
 20
43.1795
 11
-34.625
 21
46.5096
  0
LINE
  8
0
 10
-34.625
 20
55.1699
 11
-32.7023
 21
58.5
  0
LINE
  8
0
 10
-32.7023
 20
58.5
 11
-28.857
 21
58.5
  0
LINE
  8
0
 10
-28.857
 20
58.5
 11
-26.9344
 21
55.1699
  0
LINE
  8
0
 10
-26.9344
 20
55.1699
 11
-28.857
 21
51.8397
  0
LINE
  8
0
 10
-28.857
 20
51.8397
 11
-32.7023
 21
51.8397
  0
LINE
  8
0
 10
-32.7023
 20
51.8397
 11
-34.625
 21
55.1699
  0
LINE
  8
0
 10
-27.125
 20
7.53848
 11
-25.2023
 21
10.8686
  0
LINE
  8
0
 10
-25.2023
 20
10.8686
 11
-21.357
 21
10.8686
  0
LINE
  8
0
 10
-21.357
 20
10.8686
 11
-19.4344
 21
7.53848
  0
LINE
  8
0
 10
-19.4344
 20
7.53848
 11
-21.357
 21
4.20835
  0
LINE
  8
0
 10
-21.357
 20
4.20835
 11
-25.2023
 21
4.20835
  0
LINE
  8
0
 10
-25.2023
 20
4.20835
 11
-27.125
 21
7.53848
  0
LINE
  8
0
 10
-27.125
 20
16.1987
 11
-25.2023
 21
19.5289
  0
LINE
  8
0
 10
-25.2023
 20
19.5289
 11
-21.357
 21
19.5289
  0
LINE
  8
0
 10
-21.357
 20
19.5289
 11
-19.4344
 21
16.1987
  0
LINE
  8
0
 10
-19.4344
 20
16.1987
 11
-21.357
 21
12.8686
  0
LINE
  8
0
 10
-21.357
 20
12.8686
 11
-25.2023
 21
12.8686
  0
LINE
  8
0
 10
-25.2023
 20
12.8686
 11
-27.125
 21
16.1987
  0
LINE
  8
0
 10
-27.125
 20
24.859
 11
-25.2023
 21
28.1891
  0
LINE
  8
0
 10
-25.2023
 20
28.1891
 11
-21.357
 21
28.1891
  0
LINE
  8
0
 10
-21.357
 20
28.1891
 11
-19.4344
 21
24.859
  0
LINE
  8
0
 10
-19.4344
 20
24.859
 11
-21.357
 21
21.5289
  0
LINE
  8
0
 10
-21.357
 20
21.5289
 11
-25.2023
 21
21.5289
  0
LINE
  8
0
 10
-25.2023
 20
21.5289
 11
-27.125
 21
24.859
  0
LINE
  8
0
 10
-27.125
 20
33.5192
 11
-25.2023
 21
36.8494
  0
LINE
  8
0
 10
-25.2023
 20
36.8494
 11
-21.357
 21
36.8494
  0
LINE
  8
0
 10
-21.357
 20
36.8494
 11
-19.4344
 21
33.5192
  0
LINE
  8
0
 10
-19.4344
 20
33.5192
 11
-21.357
 21
30.1891
  0
LINE
  8
0
 10
-21.357
 20
30.1891
 11
-25.2023
 21
30.1891
  0
LINE
  8
0
 10
-25.2023
 20
30.1891
 11
-27.125
 21
33.5192
  0
LINE
  8
0
 10
-27.125
 20
42.1795
 11
-25.2023
 21
45.5096
  0
LINE
  8
0
 10
-25.2023
 20
45.5096
 11
-21.357
 21
45.5096
  0
LINE
  8
0
 10
-21.357
 20
45.5096
 11
-19.4344
 21
42.1795
  0
LINE
  8
0
 10
-19.4344
 20
42.1795
 11
-21.357
 21
38.8494
  0
LINE
  8
0
 10
-21.357
 20
38.8494
 11
-25.2023
 21
38.8494
  0
LINE
  8
0
 10
-25.2023
 20
38.8494
 11
-27.125
 21
42.1795
  0
LINE
  8
0
 10
-27.125
 20
50.8397
 11
-25.2023
 21
54.1699
  0
LINE
  8
0
 10
-25.2023
 20
54.1699
 11
-21.357
 21
54.1699
  0
LINE
  8
0
 10
-21.357
 20
54.1699
 11
-19.4344
 21
50.8397
  0
LINE
  8
0
 10
-19.4344
 20
50.8397
 11
-21.357
 21
47.5096
  0
LINE
  8
0
 10
-21.357
 20
47.5096
 11
-25.2023
 21
47.5096
  0
LINE
  8
0
 10
-25.2023
 20
47.5096
 11
-27.125
 21
50.8397
  0
LINE
  8
0
 10
-19.625
 20
11.8686
 11
-17.7023
 21
15.1987
  0
LINE
  8
0
 10
-17.7023
 20
15.1987
 11
-13.857
 21
15.1987
  0
LINE
  8
0
 10
-13.857
 20
15.1987
 11
-11.9344
 21
11.8686
  0
LINE
  8
0
 10
-11.9344
 20
11.8686
 11
-13.857
 21
8.53848
  0
LINE
  8
0
 10
-13.857
 20
8.53848
 11
-17.7023
 21
8.53848
  0
LINE
  8
0
 10
-17.7023
 20
8.53848
 11
-19.625
 21
11.8686
  0
LINE
  8
0
 10
-19.625
 20
20.5289
 11
-17.7023
 21
23.859
  0
LINE
  8
0
 10
-17.7023
 20
23.859
 11
-13.857
 21
23.859
  0
LINE
  8
0
 10
-13.857
 20
23.859
 11
-11.9344
 21
20.5289
  0
LINE
  8
0
 10
-11.9344
 20
20.5289
 11
-13.857
 21
17.1987
  0
LINE
  8
0
 10
-13.857
 20
17.1987
 11
-17.7023
 21
17.1987
  0
LINE
  8
0
 10
-17.7023
 20
17.1987
 11
-19.625
 21
20.5289
  0
LINE
  8
0
 10
-19.625
 20
29.1891
 11
-17.7023
 21
32.5192
  0
LINE
  8
0
 10
-17.7023
 20
32.5192
 11
-13.857
 21
32.5192
  0
LINE
  8
0
 10
-13.857
 20
32.5192
 11
-11.9344
 21
29.1891
  0
LINE
  8
0
 10
-11.9344
 20
29.1891
 11
-13.857
 21
25.859
  0
LINE
  8
0
 10
-13.857
 20
25.859
 11
-17.7023
 21
25.859
  0
LINE
  8
0
 10
-17.7023
 20
25.859
 11
-19.625
 21
29.1891
  0
LINE
  8
0
 10
-19.625
 20
37.8494
 11
-17.7023
 21
41.1795
  0
LINE
  8
0
 10
-17.7023
 20
41.1795
 11
-13.857
 21
41.1795
  0
LINE
  8
0
 10
-13.857
 20
41.1795
 11
-11.9344
 21
37.8494
  0
LINE
  8
0
 10
-11.9344
 20
37.8494
 11
-13.857
 21
34.5192
  0
LINE
  8
0
 10
-13.857
 20
34.5192
 11
-17.7023
 21
34.5192
  0
LINE
  8
0
 10
-17.7023
 20
34.5192
 11
-19.625
 21
37.8494
  0
LINE
  8
0
 10
-19.625
 20
46.5096
 11
-17.7023
 21
49.8397
  0
LINE
  8
0
 10
-17.7023
 20
49.8397
 11
-13.857
 21
49.8397
  0
LINE
  8
0
 10
-13.857
 20
49.8397
 11
-11.9344
 21
46.5096
  0
LINE
  8
0
 10
-11.9344
 20
46.5096
 11
-13.857
 21
43.1795
  0
LINE
  8
0
 10
-13.857
 20
43.1795
 11
-17.7023
 21
43.1795
  0
LINE
  8
0
 10
-17.7023
 20
43.1795
 11
-19.625
 21
46.5096
  0
LINE
  8
0
 10
-19.625
 20
55.1699
 11
-17.7023
 21
58.5
  0
LINE
  8
0
 10
-17.7023
 20
58.5
 11
-13.857
 21
58.5
  0
LINE
  8
0
 10
-13.857
 20
58.5
 11
-11.9344
 21
55.1699
  0
LINE
  8
0
 10
-11.9344
 20
55.1699
 11
-13.857
 21
51.8397
  0
LINE
  8
0
 10
-13.857
 20
51.8397
 11
-17.7023
 21
51.8397
  0
LINE
  8
0
 10
-17.7023
 20
51.8397
 11
-19.625
 21
55.1699
  0
LINE
  8
0
 10
-12.125
 20
7.53848
 11
-10.2023
 21
10.8686
  0
LINE
  8
0
 10
-10.2023
 20
10.8686
 11
-6.35704
 21
10.8686
  0
LINE
  8
0
 10
-6.35704
 20
10.8686
 11
-4.4344
 21
7.53848
  0
LINE
  8
0
 10
-4.4344
 20
7.53848
 11
-6.35704
 21
4.20835
  0
LINE
  8
0
 10
-6.35704
 20
4.20835
 11
-10.2023
 21
4.20835
  0
LINE
  8
0
 10
-10.2023
 20
4.20835
 11
-12.125
 21
7.53848
  0
LINE
  8
0
 10
-12.125
 20
16.1987
 11
-10.2023
 21
19.5289
  0
LINE
  8
0
 10
-10.2023
 20
19.5289
 11
-6.35704
 21
19.5289
  0
LINE
  8
0
 10
-6.35704
 20
19.5289
 11
-4.4344
 21
16.1987
  0
LINE
  8
0
 10
-4.4344
 20
16.1987
 11
-6.35704
 21
12.8686
  0
LINE
  8
0
 10
-6.35704
 20
12.8686
 11
-10.2023
 21
12.8686
  0
LINE
  8
0
 10
-10.2023
 20
12.8686
 11
-12.125
 21
16.1987
  0
LINE
  8
0
 10
-12.125
 20
24.859
 11
-10.2023
 21
28.1891
  0
LINE
  8
0
 10
-10.2023
 20
28.1891
 11
-6.35704
 21
28.1891
  0
LINE
  8
0
 10
-6.35704
 20
28.1891
 11
-4.4344
 21
24.859
  0
LINE
  8
0
 10
-4.4344
 20
24.859
 11
-6.35704
 21
21.5289
  0
LINE
  8
0
 10
-6.35704
 20
21.5289
 11
-10.2023
 21
21.5289
  0
LINE
  8
0
 10
-10.2023
 20
21.5289
 11
-12.125
 21
24.859
  0
LINE
  8
0
 10
-12.125
 20
33.5192
 11
-10.2023
 21
36.8494
  0
LINE
  8
0
 10
-10.2023
 20
36.8494
 11
-6.35704
 21
36.8494
  0
LINE
  8
0
 10
-6.35704
 20
36.8494
 11
-4.4344
 21
33.5192
  0
LINE
  8
0
 10
-4.4344
 20
33.5192
 11
-6.35704
 21
30.1891
  0
LINE
  8
0
 10
-6.35704
 20
30.1891
 11
-10.2023
 21
30.1891
  0
LINE
  8
0
 10
-10.2023
 20
30.1891
 11
-12.125
 21
33.5192
  0
LINE
  8
0
 10
-12.125
 20
42.1795
 11
-10.2023
 21
45.5096
  0
LINE
  8
0
 10
-10.2023
 20
45.5096
 11
-6.35704
 21
45.5096
  0
LINE
  8
0
 10
-6.35704
 20
45.5096
 11
-4.4344
 21
42.1795
  0
LINE
  8
0
 10
-4.4344
 20
42.1795
 11
-6.35704
 21
38.8494
  0
LINE
  8
0
 10
-6.35704
 20
38.8494
 11
-10.2023
 21
38.8494
  0
LINE
  8
0
 10
-10.2023
 20
38.8494
 11
-12.125
 21
42.1795
  0
LINE
  8
0
 10
-12.125
 20
50.8397
 11
-10.2023
 21
54.1699
  0
LINE
  8
0
 10
-10.2023
 20
54.1699
 11
-6.35704
 21
54.1699
  0
LINE
  8
0
 10
-6.35704
 20
54.1699
 11
-4.4344
 21
50.8397
  0
LINE
  8
0
 10
-4.4344
 20
50.8397
 11
-6.35704
 21
47.5096
  0
LINE
  8
0
 10
-6.35704
 20
47.5096
 11
-10.2023
 21
47.5096
  0
LINE
  8
0
 10
-10.2023
 20
47.5096
 11
-12.125
 21
50.8397
  0
ENDSEC
  0
SECTION
  2
OBJECTS
  0
DICTIONARY
  0
ENDSEC
  0
EOF
