  0
SECTION
  2
BLOCKS
  0
ENDSEC
  0
SECTION
  2
ENTITIES
  0
LINE
  8
0
 10
4.68452
 20
-24.5572
 11
7.72542
 21
-23.7764
  0
LINE
  8
0
 10
7.72542
 20
-23.7764
 11
10.6445
 21
-22.6207
  0
LINE
  8
0
 10
10.6445
 20
-22.6207
 11
13.3957
 21
-21.1082
  0
LINE
  8
0
 10
13.3957
 20
-21.1082
 11
15.9356
 21
-19.2628
  0
LINE
  8
0
 10
15.9356
 20
-19.2628
 11
18.2242
 21
-17.1137
  0
LINE
  8
0
 10
18.2242
 20
-17.1137
 11
20.2254
 21
-14.6946
  0
LINE
  8
0
 10
20.2254
 20
-14.6946
 11
21.9077
 21
-12.0438
  0
LINE
  8
0
 10
21.9077
 20
-12.0438
 11
23.2444
 21
-9.20311
  0
LINE
  8
0
 10
23.2444
 20
-9.20311
 11
24.2146
 21
-6.21724
  0
LINE
  8
0
 10
24.2146
 20
-6.21724
 11
24.8029
 21
-3.13332
  0
LINE
  8
0
 10
24.8029
 20
-3.13332
 11
25
 21
0
  0
LINE
  8
0
 10
25
 20
0
 11
24.8029
 21
3.13332
  0
LINE
  8
0
 10
24.8029
 20
3.13332
 11
24.2146
 21
6.21724
  0
LINE
  8
0
 10
24.2146
 20
6.21724
 11
23.2444
 21
9.20311
  0
LINE
  8
0
 10
23.2444
 20
9.20311
 11
21.9077
 21
12.0438
  0
LINE
  8
0
 10
21.9077
 20
12.0438
 11
20.2254
 21
14.6946
  0
LINE
  8
0
 10
20.2254
 20
14.6946
 11
18.2242
 21
17.1137
  0
LINE
  8
0
 10
18.2242
 20
17.1137
 11
15.9356
 21
19.2628
  0
LINE
  8
0
 10
15.9356
 20
19.2628
 11
13.3957
 21
21.1082
  0
LINE
  8
0
 10
13.3957
 20
21.1082
 11
10.6445
 21
22.6207
  0
LINE
  8
0
 10
10.6445
 20
22.6207
 11
7.72542
 21
23.7764
  0
LINE
  8
0
 10
7.72542
 20
23.7764
 11
4.68452
 21
24.5572
  0
LINE
  8
0
 10
4.68452
 20
24.5572
 11
1.56975
 21
24.9507
  0
LINE
  8
0
 10
1.56975
 20
24.9507
 11
-1.56975
 21
24.9507
  0
LINE
  8
0
 10
-1.56975
 20
24.9507
 11
-4.68452
 21
24.5572
  0
LINE
  8
0
 10
-4.68452
 20
24.5572
 11
-7.72542
 21
23.7764
  0
LINE
  8
0
 10
-7.72542
 20
23.7764
 11
-10.6445
 21
22.6207
  0
LINE
  8
0
 10
-10.6445
 20
22.6207
 11
-13.3957
 21
21.1082
  0
LINE
  8
0
 10
-13.3957
 20
21.1082
 11
-15.9356
 21
19.2628
  0
LINE
  8
0
 10
-15.9356
 20
19.2628
 11
-18.2242
 21
17.1137
  0
LINE
  8
0
 10
-18.2242
 20
17.1137
 11
-20.2254
 21
14.6946
  0
LINE
  8
0
 10
-20.2254
 20
14.6946
 11
-21.9077
 21
12.0438
  0
LINE
  8
0
 10
-21.9077
 20
12.0438
 11
-23.2444
 21
9.20311
  0
LINE
  8
0
 10
-23.2444
 20
9.20311
 11
-24.2146
 21
6.21724
  0
LINE
  8
0
 10
-24.2146
 20
6.21724
 11
-24.8029
 21
3.13332
  0
LINE
  8
0
 10
-24.8029
 20
3.13332
 11
-25
 21
0
  0
LINE
  8
0
 10
-25
 20
0
 11
-24.8029
 21
-3.13332
  0
LINE
  8
0
 10
-24.8029
 20
-3.13332
 11
-24.2146
 21
-6.21724
  0
LINE
  8
0
 10
-24.2146
 20
-6.21724
 11
-23.2444
 21
-9.20311
  0
LINE
  8
0
 10
-23.2444
 20
-9.20311
 11
-21.9077
 21
-12.0438
  0
LINE
  8
0
 10
-21.9077
 20
-12.0438
 11
-20.2254
 21
-14.6946
  0
LINE
  8
0
 10
-20.2254
 20
-14.6946
 11
-18.2242
 21
-17.1137
  0
LINE
  8
0
 10
-18.2242
 20
-17.1137
 11
-15.9356
 21
-19.2628
  0
LINE
  8
0
 10
-15.9356
 20
-19.2628
 11
-13.3957
 21
-21.1082
  0
LINE
  8
0
 10
-13.3957
 20
-21.1082
 11
-10.6445
 21
-22.6207
  0
LINE
  8
0
 10
-10.6445
 20
-22.6207
 11
-7.72542
 21
-23.7764
  0
LINE
  8
0
 10
-7.72542
 20
-23.7764
 11
-4.68452
 21
-24.5572
  0
LINE
  8
0
 10
-4.68452
 20
-24.5572
 11
-1.56975
 21
-24.9507
  0
LINE
  8
0
 10
-1.56975
 20
-24.9507
 11
1.56975
 21
-24.9507
  0
LINE
  8
0
 10
1.56975
 20
-24.9507
 11
4.68452
 21
-24.5572
  0
LINE
  8
0
 10
-0.31395
 20
-4.99013
 11
-0.936905
 21
-4.91142
  0
LINE
  8
0
 10
-0.936905
 20
-4.91142
 11
-1.54507
 21
-4.75528
  0
LINE
  8
0
 10
-1.54507
 20
-4.75528
 11
-2.12889
 21
-4.52412
  0
LINE
  8
0
 10
-2.12889
 20
-4.52412
 11
-2.67912
 21
-4.22163
  0
LINE
  8
0
 10
-2.67912
 20
-4.22163
 11
-3.18712
 21
-3.85255
  0
LINE
  8
0
 10
-3.18712
 20
-3.85255
 11
-3.64484
 21
-3.42273
  0
LINE
  8
0
 10
-3.64484
 20
-3.42273
 11
-4.04507
 21
-2.93892
  0
LINE
  8
0
 10
-4.04507
 20
-2.93892
 11
-4.38153
 21
-2.40877
  0
LINE
  8
0
 10
-4.38153
 20
-2.40877
 11
-4.64888
 21
-1.84062
  0
LINE
  8
0
 10
-4.64888
 20
-1.84062
 11
-4.84291
 21
-1.24344
  0
LINE
  8
0
 10
-4.84291
 20
-1.24344
 11
-4.96057
 21
-0.626663
  0
LINE
  8
0
 10
-4.96057
 20
-0.626663
 11
-5
 21
0
  0
LINE
  8
0
 10
-5
 20
0
 11
-4.96057
 21
0.626663
  0
LINE
  8
0
 10
-4.96057
 20
0.626663
 11
-4.84291
 21
1.24344
  0
LINE
  8
0
 10
-4.84291
 20
1.24344
 11
-4.64888
 21
1.84062
  0
LINE
  8
0
 10
-4.64888
 20
1.84062
 11
-4.38153
 21
2.40877
  0
LINE
  8
0
 10
-4.38153
 20
2.40877
 11
-4.04507
 21
2.93892
  0
LINE
  8
0
 10
-4.04507
 20
2.93892
 11
-3.64484
 21
3.42273
  0
LINE
  8
0
 10
-3.64484
 20
3.42273
 11
-3.18712
 21
3.85255
  0
LINE
  8
0
 10
-3.18712
 20
3.85255
 11
-2.67912
 21
4.22163
  0
LINE
  8
0
 10
-2.67912
 20
4.22163
 11
-2.12889
 21
4.52412
  0
LINE
  8
0
 10
-2.12889
 20
4.52412
 11
-1.54507
 21
4.75528
  0
LINE
  8
0
 10
-1.54507
 20
4.75528
 11
-0.936905
 21
4.91142
  0
LINE
  8
0
 10
-0.936905
 20
4.91142
 11
-0.31395
 21
4.99013
  0
LINE
  8
0
 10
-0.31395
 20
4.99013
 11
0.31395
 21
4.99013
  0
LINE
  8
0
 10
0.31395
 20
4.99013
 11
0.936905
 21
4.91142
  0
LINE
  8
0
 10
0.936905
 20
4.91142
 11
1.54507
 21
4.75528
  0
LINE
  8
0
 10
1.54507
 20
4.75528
 11
2.12889
 21
4.52412
  0
LINE
  8
0
 10
2.12889
 20
4.52412
 11
2.67912
 21
4.22163
  0
LINE
  8
0
 10
2.67912
 20
4.22163
 11
3.18712
 21
3.85255
  0
LINE
  8
0
 10
3.18712
 20
3.85255
 11
3.64484
 21
3.42273
  0
LINE
  8
0
 10
3.64484
 20
3.42273
 11
4.04507
 21
2.93892
  0
LINE
  8
0
 10
4.04507
 20
2.93892
 11
4.38153
 21
2.40877
  0
LINE
  8
0
 10
4.38153
 20
2.40877
 11
4.64888
 21
1.84062
  0
LINE
  8
0
 10
4.64888
 20
1.84062
 11
4.84291
 21
1.24344
  0
LINE
  8
0
 10
4.84291
 20
1.24344
 11
4.96057
 21
0.626663
  0
LINE
  8
0
 10
4.96057
 20
0.626663
 11
5
 21
0
  0
LINE
  8
0
 10
5
 20
0
 11
4.96057
 21
-0.626663
  0
LINE
  8
0
 10
4.96057
 20
-0.626663
 11
4.84291
 21
-1.24344
  0
LINE
  8
0
 10
4.84291
 20
-1.24344
 11
4.64888
 21
-1.84062
  0
LINE
  8
0
 10
4.64888
 20
-1.84062
 11
4.38153
 21
-2.40877
  0
LINE
  8
0
 10
4.38153
 20
-2.40877
 11
4.04507
 21
-2.93892
  0
LINE
  8
0
 10
4.04507
 20
-2.93892
 11
3.64484
 21
-3.42273
  0
LINE
  8
0
 10
3.64484
 20
-3.42273
 11
3.18712
 21
-3.85255
  0
LINE
  8
0
 10
3.18712
 20
-3.85255
 11
2.67912
 21
-4.22163
  0
LINE
  8
0
 10
2.67912
 20
-4.22163
 11
2.12889
 21
-4.52412
  0
LINE
  8
0
 10
2.12889
 20
-4.52412
 11
1.54507
 21
-4.75528
  0
LINE
  8
0
 10
1.54507
 20
-4.75528
 11
0.936905
 21
-4.91142
  0
LINE
  8
0
 10
0.936905
 20
-4.91142
 11
0.31395
 21
-4.99013
  0
LINE
  8
0
 10
0.31395
 20
-4.99013
 11
-0.31395
 21
-4.99013
  0
ENDSEC
  0
SECTION
  2
OBJECTS
  0
DICTIONARY
  0
ENDSEC
  0
EOF
