  0
SECTION
  2
HEADER
  9
$ACADVER
  1
AC1014
  9
$HANDSEED
  5
FFFF
  9
$MEASUREMENT
 70
     1
  0
ENDSEC
  0
SECTION
  2
TABLES
  0
TABLE
  2
VPORT
  5
8
330
0
100
AcDbSymbolTable
 70
     4
  0
VPORT
  5
2E
330
8
100
AcDbSymbolTableRecord
100
AcDbViewportTableRecord
  2
*ACTIVE
 70
     0
 10
0.0
 20
0.0
 11
1.0
 21
1.0
 12
210.0
 22
148.5
 13
0.0
 23
0.0
 14
10.0
 24
10.0
 15
10.0
 25
10.0
 16
0.0
 26
0.0
 36
1.0
 17
0.0
 27
0.0
 37
0.0
 40
341.0
 41
1.24
 42
50.0
 43
0.0
 44
0.0
 50
0.0
 51
0.0
 71
     0
 72
   100
 73
     1
 74
     3
 75
     0
 76
     0
 77
     0
 78
     0
  0
ENDTAB
  0
TABLE
  2
LTYPE
  5
5
330
0
100
AcDbSymbolTable
 70
     1
  0
LTYPE
  5
14
330
5
100
AcDbSymbolTableRecord
100
AcDbLinetypeTableRecord
  2
BYBLOCK
 70
     0
  3

 72
    65
 73
     0
 40
0.0
  0
LTYPE
  5
15
330
5
100
AcDbSymbolTableRecord
100
AcDbLinetypeTableRecord
  2
BYLAYER
 70
     0
  3

 72
    65
 73
     0
 40
0.0
  0
LTYPE
  5
16
330
5
100
AcDbSymbolTableRecord
100
AcDbLinetypeTableRecord
  2
CONTINUOUS
 70
     0
  3
Solid line
 72
    65
 73
     0
 40
0.0
  0
ENDTAB
  0
TABLE
  2
LAYER
  5
2
100
AcDbSymbolTable
 70
2
  0
LAYER
  5
50
100
AcDbSymbolTableRecord
100
AcDbLayerTableRecord
  2
0
 70
0
  6
CONTINUOUS
  0
LAYER
  5
51
100
AcDbSymbolTableRecord
100
AcDbLayerTableRecord
  2
Layer_1
 70
0
  6
CONTINUOUS
  0
ENDTAB
  0
TABLE
  2
STYLE
  5
3
330
0
100
AcDbSymbolTable
 70
     1
  0
STYLE
  5
11
330
3
100
AcDbSymbolTableRecord
100
AcDbTextStyleTableRecord
  2
STANDARD
 70
     0
 40
0.0
 41
1.0
 50
0.0
 71
     0
 42
2.5
  3
txt
  4

  0
ENDTAB
  0
TABLE
  2
VIEW
  5
6
330
0
100
AcDbSymbolTable
 70
     0
  0
ENDTAB
  0
TABLE
  2
UCS
  5
7
330
0
100
AcDbSymbolTable
 70
     0
  0
ENDTAB
  0
TABLE
  2
APPID
  5
9
330
0
100
AcDbSymbolTable
 70
     2
  0
APPID
  5
12
330
9
100
AcDbSymbolTableRecord
100
AcDbRegAppTableRecord
  2
ACAD
 70
     0
  0
ENDTAB
  0
TABLE
  2
DIMSTYLE
  5
A
330
0
100
AcDbSymbolTable
 70
     1
  0
DIMSTYLE
105
27
330
A
100
AcDbSymbolTableRecord
100
AcDbDimStyleTableRecord
  2
ISO-25
 70
     0
  3

  4

  5

  6

  7

 40
1.0
 41
2.5
 42
0.625
 43
3.75
 44
1.25
 45
0.0
 46
0.0
 47
0.0
 48
0.0
140
2.5
141
2.5
142
0.0
143
0.03937007874016
144
1.0
145
0.0
146
1.0
147
0.625
 71
     0
 72
     0
 73
     0
 74
     0
 75
     0
 76
     0
 77
     1
 78
     8
170
     0
171
     3
172
     1
173
     0
174
     0
175
     0
176
     0
177
     0
178
     0
270
     2
271
     2
272
     2
273
     2
274
     3
340
11
275
     0
280
     0
281
     0
282
     0
283
     0
284
     8
285
     0
286
     0
287
     3
288
     0
  0
ENDTAB
  0
TABLE
  2
BLOCK_RECORD
  5
1
330
0
100
AcDbSymbolTable
 70
     1
  0
BLOCK_RECORD
  5
1F
330
1
100
AcDbSymbolTableRecord
100
AcDbBlockTableRecord
  2
*MODEL_SPACE
  0
BLOCK_RECORD
  5
1B
330
1
100
AcDbSymbolTableRecord
100
AcDbBlockTableRecord
  2
*PAPER_SPACE
  0
ENDTAB
  0
ENDSEC
  0
SECTION
  2
BLOCKS
  0
BLOCK
  5
20
330
1F
100
AcDbEntity
  8
0
100
AcDbBlockBegin
  2
*MODEL_SPACE
 70
     0
 10
0.0
 20
0.0
 30
0.0
  3
*MODEL_SPACE
  1

  0
ENDBLK
  5
21
330
1F
100
AcDbEntity
  8
0
100
AcDbBlockEnd
  0
BLOCK
  5
1C
330
1B
100
AcDbEntity
 67
     1
  8
0
100
AcDbBlockBegin
  2
*PAPER_SPACE
  1

  0
ENDBLK
  5
1D
330
1B
100
AcDbEntity
 67
     1
  8
0
100
AcDbBlockEnd
  0
ENDSEC
  0
SECTION
  2
ENTITIES
  0
SPLINE
  5
100
100
AcDbEntity
  8
Layer_1
 62
7
100
AcDbSpline
 70
0
 71
3
 72
10
 73
6
 74
4
 40
0.000000
 40
0.000000
 40
0.000000
 40
0.000000
 40
10.397787
 40
20.800383
 40
31.198122
 40
31.198122
 40
31.198122
 40
31.198122
 10
86.282541
 20
132.241260
 30
0.0
 10
85.833462
 20
135.713364
 30
0.0
 10
84.935095
 20
142.659176
 30
0.0
 10
78.475663
 20
151.554332
 30
0.0
 10
72.133773
 20
154.532128
 30
0.0
 10
68.963568
 20
156.020678
 30
0.0
 11
86.282541
 21
132.241260
 31
0.0
 11
84.083631
 21
142.403877
 31
0.0
 11
77.965601
 21
150.817182
 31
0.0
 11
68.963568
 21
156.020678
 31
0.0
  0
SPLINE
  5
101
100
AcDbEntity
  8
Layer_1
 62
7
100
AcDbSpline
 70
0
 71
3
 72
10
 73
6
 74
4
 40
0.000000
 40
0.000000
 40
0.000000
 40
0.000000
 40
9.957485
 40
19.911399
 40
29.865354
 40
29.865354
 40
29.865354
 40
29.865354
 10
68.963568
 20
156.020678
 30
0.0
 10
65.674157
 20
156.648535
 30
0.0
 10
59.096514
 20
157.904022
 30
0.0
 10
49.045537
 20
154.948359
 30
0.0
 10
44.242728
 20
150.275057
 30
0.0
 10
41.841318
 20
147.938401
 30
0.0
 11
68.963568
 21
156.020678
 31
0.0
 11
59.064473
 21
157.097447
 31
0.0
 11
49.519810
 21
154.272592
 31
0.0
 11
41.841318
 21
147.938401
 31
0.0
  0
SPLINE
  5
102
100
AcDbEntity
  8
Layer_1
 62
7
100
AcDbSpline
 70
0
 71
3
 72
10
 73
6
 74
4
 40
0.000000
 40
0.000000
 40
0.000000
 40
0.000000
 40
9.615676
 40
19.225904
 40
28.838268
 40
28.838268
 40
28.838268
 40
28.838268
 10
41.841318
 20
147.938401
 30
0.0
 10
40.126292
 20
145.199420
 30
0.0
 10
36.697211
 20
139.723011
 30
0.0
 10
35.671199
 20
129.693652
 30
0.0
 10
37.990565
 20
123.657930
 30
0.0
 10
39.150377
 20
120.639734
 30
0.0
 11
41.841318
 21
147.938401
 31
0.0
 11
37.382893
 21
139.418796
 31
0.0
 11
36.421926
 21
129.856734
 31
0.0
 11
39.150377
 21
120.639734
 31
0.0
  0
SPLINE
  5
103
100
AcDbEntity
  8
Layer_1
 62
7
100
AcDbSpline
 70
0
 71
3
 72
10
 73
6
 74
4
 40
0.000000
 40
0.000000
 40
0.000000
 40
0.000000
 40
9.772628
 40
19.541161
 40
29.310299
 40
29.310299
 40
29.310299
 40
29.310299
 10
39.150377
 20
120.639734
 30
0.0
 10
41.018020
 20
117.936873
 30
0.0
 10
44.752521
 20
112.532283
 30
0.0
 10
53.754221
 20
107.603633
 30
0.0
 10
60.326433
 20
107.444043
 30
0.0
 10
63.612641
 20
107.364246
 30
0.0
 11
39.150377
 21
120.639734
 31
0.0
 11
45.320273
 21
113.061037
 31
0.0
 11
53.896989
 21
108.385124
 31
0.0
 11
63.612641
 21
107.364246
 31
0.0
  0
SPLINE
  5
104
100
AcDbEntity
  8
Layer_1
 62
7
100
AcDbSpline
 70
0
 71
3
 72
10
 73
6
 74
4
 40
0.000000
 40
0.000000
 40
0.000000
 40
0.000000
 40
10.038462
 40
20.074190
 40
30.105738
 40
30.105738
 40
30.105738
 40
30.105738
 10
63.612641
 20
107.364246
 30
0.0
 10
66.908667
 20
108.094689
 30
0.0
 10
73.499822
 20
109.555377
 30
0.0
 10
81.617504
 20
116.331250
 30
0.0
 10
84.126938
 20
122.606482
 30
0.0
 10
85.381394
 20
125.743444
 30
0.0
 11
63.612641
 21
107.364246
 31
0.0
 11
73.206047
 21
110.320133
 31
0.0
 11
80.892957
 21
116.772051
 31
0.0
 11
85.381394
 21
125.743444
 31
0.0
  0
LINE
  5
105
100
AcDbEntity
  8
Layer_1
 62
7
100
AcDbLine
 10
86.282541
 20
132.241260
 30
0.0
 11
86.282541
 21
132.241260
 31
0.0
  0
SPLINE
  5
106
100
AcDbEntity
  8
Layer_1
 62
7
100
AcDbSpline
 70
0
 71
3
 72
10
 73
6
 74
4
 40
0.000000
 40
0.000000
 40
0.000000
 40
0.000000
 40
2.191192
 40
4.382449
 40
6.573759
 40
6.573759
 40
6.573759
 40
6.573759
 10
85.381394
 20
125.743444
 30
0.0
 10
85.550865
 20
126.454203
 30
0.0
 10
85.889812
 20
127.875742
 30
0.0
 10
86.186401
 20
130.051460
 30
0.0
 10
86.250494
 20
131.511321
 30
0.0
 10
86.282541
 20
132.241260
 30
0.0
 11
85.381394
 21
125.743444
 31
0.0
 11
85.854502
 21
127.882951
 31
0.0
 11
86.152990
 21
130.053783
 31
0.0
 11
86.282541
 21
132.241260
 31
0.0
  0
SPLINE
  5
107
100
AcDbEntity
  8
Layer_1
 62
7
100
AcDbSpline
 70
0
 71
3
 72
10
 73
6
 74
4
 40
0.000000
 40
0.000000
 40
0.000000
 40
0.000000
 40
3.625654
 40
7.291423
 40
10.924263
 40
10.924263
 40
10.924263
 40
10.924263
 10
58.603419
 20
128.019639
 30
0.0
 10
57.722760
 20
128.912968
 30
0.0
 10
55.951699
 20
130.709510
 30
0.0
 10
56.431731
 20
134.963058
 30
0.0
 10
58.566568
 20
136.314482
 30
0.0
 10
59.629170
 20
136.987146
 30
0.0
 11
58.603419
 21
128.019639
 31
0.0
 11
56.478570
 21
130.957391
 31
0.0
 11
56.890810
 21
134.599906
 31
0.0
 11
59.629170
 21
136.987146
 31
0.0
  0
SPLINE
  5
108
100
AcDbEntity
  8
Layer_1
 62
7
100
AcDbSpline
 70
0
 71
3
 72
10
 73
6
 74
4
 40
0.000000
 40
0.000000
 40
0.000000
 40
0.000000
 40
3.325185
 40
6.652750
 40
9.967376
 40
9.967376
 40
9.967376
 40
9.967376
 10
59.629170
 20
136.987146
 30
0.0
 10
60.759061
 20
137.113880
 30
0.0
 10
63.019652
 20
137.367439
 30
0.0
 10
66.014997
 20
135.029755
 30
0.0
 10
66.178313
 20
132.744805
 30
0.0
 10
66.259812
 20
131.604556
 30
0.0
 11
59.629170
 21
136.987146
 31
0.0
 11
62.953555
 21
136.914210
 31
0.0
 11
65.558908
 21
134.844228
 31
0.0
 11
66.259812
 21
131.604556
 31
0.0
  0
LINE
  5
109
100
AcDbEntity
  8
Layer_1
 62
7
100
AcDbLine
 10
58.603419
 20
128.019639
 30
0.0
 11
58.603419
 21
128.019639
 31
0.0
  0
SPLINE
  5
10a
100
AcDbEntity
  8
Layer_1
 62
7
100
AcDbSpline
 70
0
 71
3
 72
10
 73
6
 74
4
 40
0.000000
 40
0.000000
 40
0.000000
 40
0.000000
 40
3.304505
 40
6.550708
 40
9.849112
 40
9.849112
 40
9.849112
 40
9.849112
 10
66.259812
 20
131.604556
 30
0.0
 10
65.879694
 20
130.539517
 30
0.0
 10
65.126166
 20
128.428230
 30
0.0
 10
61.764352
 20
126.788281
 30
0.0
 10
59.662651
 20
127.607010
 30
0.0
 10
58.603419
 20
128.019639
 30
0.0
 11
66.259812
 21
131.604556
 31
0.0
 11
64.742224
 21
128.669137
 31
0.0
 11
61.814690
 21
127.266505
 31
0.0
 11
58.603419
 21
128.019639
 31
0.0
  0
ENDSEC
  0
SECTION
  2
OBJECTS
  0
DICTIONARY
  5
C
330
0
100
AcDbDictionary
  3
ACAD_GROUP
350
D
  3
ACAD_MLINESTYLE
350
17
  0
DICTIONARY
  5
D
330
C
100
AcDbDictionary
  0
DICTIONARY
  5
1A
330
C
100
AcDbDictionary
  0
DICTIONARY
  5
17
330
C
100
AcDbDictionary
  3
STANDARD
350
18
  0
DICTIONARY
  5
19
330
C
100
AcDbDictionary
  0
ENDSEC
  0
EOF
