  0
SECTION
  2
HEADER
  9
$ACADVER
  1
AC1014
  9
$HANDSEED
  5
FFFF
  9
$MEASUREMENT
 70
     1
  0
ENDSEC
  0
SECTION
  2
TABLES
  0
TABLE
  2
VPORT
  5
8
330
0
100
AcDbSymbolTable
 70
     4
  0
VPORT
  5
2E
330
8
100
AcDbSymbolTableRecord
100
AcDbViewportTableRecord
  2
*ACTIVE
 70
     0
 10
0.0
 20
0.0
 11
1.0
 21
1.0
 12
210.0
 22
148.5
 13
0.0
 23
0.0
 14
10.0
 24
10.0
 15
10.0
 25
10.0
 16
0.0
 26
0.0
 36
1.0
 17
0.0
 27
0.0
 37
0.0
 40
341.0
 41
1.24
 42
50.0
 43
0.0
 44
0.0
 50
0.0
 51
0.0
 71
     0
 72
   100
 73
     1
 74
     3
 75
     0
 76
     0
 77
     0
 78
     0
  0
ENDTAB
  0
TABLE
  2
LTYPE
  5
5
330
0
100
AcDbSymbolTable
 70
     1
  0
LTYPE
  5
14
330
5
100
AcDbSymbolTableRecord
100
AcDbLinetypeTableRecord
  2
BYBLOCK
 70
     0
  3

 72
    65
 73
     0
 40
0.0
  0
LTYPE
  5
15
330
5
100
AcDbSymbolTableRecord
100
AcDbLinetypeTableRecord
  2
BYLAYER
 70
     0
  3

 72
    65
 73
     0
 40
0.0
  0
LTYPE
  5
16
330
5
100
AcDbSymbolTableRecord
100
AcDbLinetypeTableRecord
  2
CONTINUOUS
 70
     0
  3
Solid line
 72
    65
 73
     0
 40
0.0
  0
ENDTAB
  0
TABLE
  2
LAYER
  5
2
100
AcDbSymbolTable
 70
2
  0
LAYER
  5
50
100
AcDbSymbolTableRecord
100
AcDbLayerTableRecord
  2
0
 70
0
  6
CONTINUOUS
  0
LAYER
  5
51
100
AcDbSymbolTableRecord
100
AcDbLayerTableRecord
  2
Layer_1
 70
0
  6
CONTINUOUS
  0
ENDTAB
  0
TABLE
  2
STYLE
  5
3
330
0
100
AcDbSymbolTable
 70
     1
  0
STYLE
  5
11
330
3
100
AcDbSymbolTableRecord
100
AcDbTextStyleTableRecord
  2
STANDARD
 70
     0
 40
0.0
 41
1.0
 50
0.0
 71
     0
 42
2.5
  3
txt
  4

  0
ENDTAB
  0
TABLE
  2
VIEW
  5
6
330
0
100
AcDbSymbolTable
 70
     0
  0
ENDTAB
  0
TABLE
  2
UCS
  5
7
330
0
100
AcDbSymbolTable
 70
     0
  0
ENDTAB
  0
TABLE
  2
APPID
  5
9
330
0
100
AcDbSymbolTable
 70
     2
  0
APPID
  5
12
330
9
100
AcDbSymbolTableRecord
100
AcDbRegAppTableRecord
  2
ACAD
 70
     0
  0
ENDTAB
  0
TABLE
  2
DIMSTYLE
  5
A
330
0
100
AcDbSymbolTable
 70
     1
  0
DIMSTYLE
105
27
330
A
100
AcDbSymbolTableRecord
100
AcDbDimStyleTableRecord
  2
ISO-25
 70
     0
  3

  4

  5

  6

  7

 40
1.0
 41
2.5
 42
0.625
 43
3.75
 44
1.25
 45
0.0
 46
0.0
 47
0.0
 48
0.0
140
2.5
141
2.5
142
0.0
143
0.03937007874016
144
1.0
145
0.0
146
1.0
147
0.625
 71
     0
 72
     0
 73
     0
 74
     0
 75
     0
 76
     0
 77
     1
 78
     8
170
     0
171
     3
172
     1
173
     0
174
     0
175
     0
176
     0
177
     0
178
     0
270
     2
271
     2
272
     2
273
     2
274
     3
340
11
275
     0
280
     0
281
     0
282
     0
283
     0
284
     8
285
     0
286
     0
287
     3
288
     0
  0
ENDTAB
  0
TABLE
  2
BLOCK_RECORD
  5
1
330
0
100
AcDbSymbolTable
 70
     1
  0
BLOCK_RECORD
  5
1F
330
1
100
AcDbSymbolTableRecord
100
AcDbBlockTableRecord
  2
*MODEL_SPACE
  0
BLOCK_RECORD
  5
1B
330
1
100
AcDbSymbolTableRecord
100
AcDbBlockTableRecord
  2
*PAPER_SPACE
  0
ENDTAB
  0
ENDSEC
  0
SECTION
  2
BLOCKS
  0
BLOCK
  5
20
330
1F
100
AcDbEntity
  8
0
100
AcDbBlockBegin
  2
*MODEL_SPACE
 70
     0
 10
0.0
 20
0.0
 30
0.0
  3
*MODEL_SPACE
  1

  0
ENDBLK
  5
21
330
1F
100
AcDbEntity
  8
0
100
AcDbBlockEnd
  0
BLOCK
  5
1C
330
1B
100
AcDbEntity
 67
     1
  8
0
100
AcDbBlockBegin
  2
*PAPER_SPACE
  1

  0
ENDBLK
  5
1D
330
1B
100
AcDbEntity
 67
     1
  8
0
100
AcDbBlockEnd
  0
ENDSEC
  0
SECTION
  2
ENTITIES
  0
SPLINE
  5
100
100
AcDbEntity
  8
Layer_1
 62
7
100
AcDbSpline
 70
0
 71
3
 72
10
 73
6
 74
4
 40
0.000000
 40
0.000000
 40
0.000000
 40
0.000000
 40
13.642775
 40
27.323422
 40
40.860114
 40
40.860114
 40
40.860114
 40
40.860114
 10
113.860318
 20
44.983960
 30
0.0
 10
109.318498
 20
45.062531
 30
0.0
 10
100.222252
 20
45.219892
 30
0.0
 10
86.515745
 20
44.180293
 30
0.0
 10
77.661725
 20
46.429583
 30
0.0
 10
73.258130
 20
47.548279
 30
0.0
 11
113.860318
 21
44.983960
 31
0.0
 11
100.217562
 21
45.007128
 31
0.0
 11
86.537193
 21
44.919875
 31
0.0
 11
73.258130
 21
47.548279
 31
0.0
  0
SPLINE
  5
101
100
AcDbEntity
  8
Layer_1
 62
7
100
AcDbSpline
 70
0
 71
3
 72
10
 73
6
 74
4
 40
0.000000
 40
0.000000
 40
0.000000
 40
0.000000
 40
13.991555
 40
27.998537
 40
41.971177
 40
41.971177
 40
41.971177
 40
41.971177
 10
73.258130
 20
47.548279
 30
0.0
 10
69.584060
 20
50.593730
 30
0.0
 10
62.231869
 20
56.687988
 30
0.0
 10
59.952149
 20
72.271978
 30
0.0
 10
65.569056
 20
80.044275
 30
0.0
 10
68.374062
 20
83.925654
 30
0.0
 11
73.258130
 21
47.548279
 31
0.0
 11
63.692167
 21
57.758860
 31
0.0
 11
61.738831
 21
71.628973
 31
0.0
 11
68.374062
 21
83.925654
 31
0.0
  0
SPLINE
  5
102
100
AcDbEntity
  8
Layer_1
 62
7
100
AcDbSpline
 70
0
 71
3
 72
10
 73
6
 74
4
 40
0.000000
 40
0.000000
 40
0.000000
 40
0.000000
 40
12.214974
 40
24.672331
 40
37.095776
 40
37.095776
 40
37.095776
 40
37.095776
 10
68.374062
 20
83.925654
 30
0.0
 10
71.923166
 20
86.102244
 30
0.0
 10
79.091797
 20
90.498614
 30
0.0
 10
91.840237
 20
90.029404
 30
0.0
 10
100.081961
 20
89.986735
 30
0.0
 10
104.197206
 20
89.965430
 30
0.0
 11
68.374062
 21
83.925654
 31
0.0
 11
79.342550
 21
89.301328
 31
0.0
 11
91.774460
 21
90.097170
 31
0.0
 11
104.197206
 21
89.965430
 31
0.0
  0
SPLINE
  5
103
100
AcDbEntity
  8
Layer_1
 62
7
100
AcDbSpline
 70
0
 71
3
 72
10
 73
6
 74
4
 40
0.000000
 40
0.000000
 40
0.000000
 40
0.000000
 40
3.221040
 40
6.442080
 40
9.663120
 40
9.663120
 40
9.663120
 40
9.663120
 10
104.197206
 20
89.965430
 30
0.0
 10
105.270885
 20
89.966852
 30
0.0
 10
107.418243
 20
89.969697
 30
0.0
 10
110.639281
 20
89.973981
 30
0.0
 10
112.786639
 20
89.976841
 30
0.0
 10
113.860318
 20
89.978271
 30
0.0
 11
104.197206
 21
89.965430
 31
0.0
 11
107.418243
 21
89.969700
 31
0.0
 11
110.639281
 21
89.973982
 31
0.0
 11
113.860318
 21
89.978271
 31
0.0
  0
SPLINE
  5
104
100
AcDbEntity
  8
Layer_1
 62
7
100
AcDbSpline
 70
0
 71
3
 72
10
 73
6
 74
4
 40
0.000000
 40
0.000000
 40
0.000000
 40
0.000000
 40
3.335133
 40
6.670266
 40
10.005399
 40
10.005399
 40
10.005399
 40
10.005399
 10
113.860318
 20
89.978254
 30
0.0
 10
113.860318
 20
91.089965
 30
0.0
 10
113.860318
 20
93.313387
 30
0.0
 10
113.860318
 20
96.648520
 30
0.0
 10
113.860318
 20
98.871942
 30
0.0
 10
113.860318
 20
99.983653
 30
0.0
 11
113.860318
 21
89.978254
 31
0.0
 11
113.860318
 21
93.313387
 31
0.0
 11
113.860318
 21
96.648520
 31
0.0
 11
113.860318
 21
99.983653
 31
0.0
  0
SPLINE
  5
105
100
AcDbEntity
  8
Layer_1
 62
7
100
AcDbSpline
 70
0
 71
3
 72
10
 73
6
 74
4
 40
0.000000
 40
0.000000
 40
0.000000
 40
0.000000
 40
11.582166
 40
23.177650
 40
34.730214
 40
34.730214
 40
34.730214
 40
34.730214
 10
113.860318
 20
99.983653
 30
0.0
 10
109.999907
 20
100.025420
 30
0.0
 10
102.274647
 20
100.109004
 30
0.0
 10
90.693664
 20
99.726286
 30
0.0
 10
82.990164
 20
100.247409
 30
0.0
 10
79.145556
 20
100.507488
 30
0.0
 11
113.860318
 21
99.983653
 31
0.0
 11
102.278223
 21
100.024305
 31
0.0
 11
90.683203
 21
99.920586
 31
0.0
 11
79.145556
 21
100.507488
 31
0.0
  0
SPLINE
  5
106
100
AcDbEntity
  8
Layer_1
 62
7
100
AcDbSpline
 70
0
 71
3
 72
10
 73
6
 74
4
 40
0.000000
 40
0.000000
 40
0.000000
 40
0.000000
 40
12.414946
 40
24.824195
 40
37.233568
 40
37.233568
 40
37.233568
 40
37.233568
 10
79.145556
 20
100.507488
 30
0.0
 10
75.222802
 20
102.063908
 30
0.0
 10
67.379095
 20
105.176033
 30
0.0
 10
60.580871
 20
117.038747
 30
0.0
 10
61.889959
 20
125.376566
 30
0.0
 10
62.544506
 20
129.545496
 30
0.0
 11
79.145556
 21
100.507488
 31
0.0
 11
68.205481
 21
106.376531
 31
0.0
 11
62.041017
 21
117.146341
 31
0.0
 11
62.544506
 21
129.545496
 31
0.0
  0
SPLINE
  5
107
100
AcDbEntity
  8
Layer_1
 62
7
100
AcDbSpline
 70
0
 71
3
 72
10
 73
6
 74
4
 40
0.000000
 40
0.000000
 40
0.000000
 40
0.000000
 40
10.349314
 40
20.676239
 40
31.063204
 40
31.063204
 40
31.063204
 40
31.063204
 10
62.544506
 20
129.545496
 30
0.0
 10
64.079805
 20
132.693610
 30
0.0
 10
67.147082
 20
138.983028
 30
0.0
 10
76.616469
 20
144.680201
 30
0.0
 10
83.586387
 20
144.855033
 30
0.0
 10
87.081447
 20
144.942702
 30
0.0
 11
62.544506
 21
129.545496
 31
0.0
 11
67.961086
 21
138.364167
 31
0.0
 11
76.761079
 21
143.768380
 31
0.0
 11
87.081447
 21
144.942702
 31
0.0
  0
SPLINE
  5
108
100
AcDbEntity
  8
Layer_1
 62
7
100
AcDbSpline
 70
0
 71
3
 72
10
 73
6
 74
4
 40
0.000000
 40
0.000000
 40
0.000000
 40
0.000000
 40
8.926298
 40
17.852596
 40
26.778894
 40
26.778894
 40
26.778894
 40
26.778894
 10
87.081447
 20
144.942702
 30
0.0
 10
90.056878
 20
144.946655
 30
0.0
 10
96.007738
 20
144.954561
 30
0.0
 10
104.934028
 20
144.966431
 30
0.0
 10
110.884887
 20
144.974334
 30
0.0
 10
113.860318
 20
144.978285
 30
0.0
 11
87.081447
 21
144.942702
 31
0.0
 11
96.007738
 21
144.954563
 31
0.0
 11
104.934027
 21
144.966428
 31
0.0
 11
113.860318
 21
144.978285
 31
0.0
  0
SPLINE
  5
109
100
AcDbEntity
  8
Layer_1
 62
7
100
AcDbSpline
 70
0
 71
3
 72
10
 73
6
 74
4
 40
0.000000
 40
0.000000
 40
0.000000
 40
0.000000
 40
3.335114
 40
6.670228
 40
10.005342
 40
10.005342
 40
10.005342
 40
10.005342
 10
113.860318
 20
144.978285
 30
0.0
 10
113.860318
 20
146.089990
 30
0.0
 10
113.860318
 20
148.313399
 30
0.0
 10
113.860318
 20
151.648513
 30
0.0
 10
113.860318
 20
153.871923
 30
0.0
 10
113.860318
 20
154.983627
 30
0.0
 11
113.860318
 21
144.978285
 31
0.0
 11
113.860318
 21
148.313399
 31
0.0
 11
113.860318
 21
151.648513
 31
0.0
 11
113.860318
 21
154.983627
 31
0.0
  0
SPLINE
  5
10a
100
AcDbEntity
  8
Layer_1
 62
7
100
AcDbSpline
 70
0
 71
3
 72
10
 73
6
 74
4
 40
0.000000
 40
0.000000
 40
0.000000
 40
0.000000
 40
12.195184
 40
24.402345
 40
36.560919
 40
36.560919
 40
36.560919
 40
36.560919
 10
113.860318
 20
154.983627
 30
0.0
 10
109.796106
 20
155.026523
 30
0.0
 10
101.663692
 20
155.112357
 30
0.0
 10
89.464201
 20
154.652270
 30
0.0
 10
81.374812
 20
155.488239
 30
0.0
 10
77.338182
 20
155.905390
 30
0.0
 11
113.860318
 21
154.983627
 31
0.0
 11
101.665172
 21
155.014182
 31
0.0
 11
89.458246
 21
154.938446
 31
0.0
 11
77.338182
 21
155.905390
 31
0.0
  0
SPLINE
  5
10b
100
AcDbEntity
  8
Layer_1
 62
7
100
AcDbSpline
 70
0
 71
3
 72
10
 73
6
 74
4
 40
0.000000
 40
0.000000
 40
0.000000
 40
0.000000
 40
14.026098
 40
28.059488
 40
42.085023
 40
42.085023
 40
42.085023
 40
42.085023
 10
77.338182
 20
155.905390
 30
0.0
 10
73.115708
 20
158.164747
 30
0.0
 10
64.668565
 20
162.684636
 30
0.0
 10
59.470478
 20
177.636339
 30
0.0
 10
63.587211
 20
186.331216
 30
0.0
 10
65.645002
 20
190.677437
 30
0.0
 11
77.338182
 21
155.905390
 31
0.0
 11
65.915464
 21
164.044981
 31
0.0
 11
61.366170
 21
177.320521
 31
0.0
 11
65.645002
 21
190.677437
 31
0.0
  0
SPLINE
  5
10c
100
AcDbEntity
  8
Layer_1
 62
7
100
AcDbSpline
 70
0
 71
3
 72
10
 73
6
 74
4
 40
0.000000
 40
0.000000
 40
0.000000
 40
0.000000
 40
9.079885
 40
18.066085
 40
27.174166
 40
27.174166
 40
27.174166
 40
27.174166
 10
65.645002
 20
190.677437
 30
0.0
 10
67.729502
 20
192.936298
 30
0.0
 10
71.876994
 20
197.430713
 30
0.0
 10
80.910646
 20
200.180125
 30
0.0
 10
86.942197
 20
200.024755
 30
0.0
 10
89.978286
 20
199.946546
 30
0.0
 11
65.645002
 21
190.677437
 31
0.0
 11
72.367911
 21
196.780454
 31
0.0
 11
80.874167
 21
199.677934
 31
0.0
 11
89.978286
 21
199.946546
 31
0.0
  0
SPLINE
  5
10d
100
AcDbEntity
  8
Layer_1
 62
7
100
AcDbSpline
 70
0
 71
3
 72
10
 73
6
 74
4
 40
0.000000
 40
0.000000
 40
0.000000
 40
0.000000
 40
7.960685
 40
15.921369
 40
23.882052
 40
23.882052
 40
23.882052
 40
23.882052
 10
89.978286
 20
199.946546
 30
0.0
 10
92.631846
 20
199.950072
 30
0.0
 10
97.938964
 20
199.957124
 30
0.0
 10
105.899641
 20
199.967687
 30
0.0
 10
111.206759
 20
199.974732
 30
0.0
 10
113.860318
 20
199.978254
 30
0.0
 11
89.978286
 21
199.946546
 31
0.0
 11
97.938965
 21
199.957122
 31
0.0
 11
105.899641
 21
199.967688
 31
0.0
 11
113.860318
 21
199.978254
 31
0.0
  0
SPLINE
  5
10e
100
AcDbEntity
  8
Layer_1
 62
7
100
AcDbSpline
 70
0
 71
3
 72
10
 73
6
 74
4
 40
0.000000
 40
0.000000
 40
0.000000
 40
0.000000
 40
3.335134
 40
6.670268
 40
10.005401
 40
10.005401
 40
10.005401
 40
10.005401
 10
113.860318
 20
199.978254
 30
0.0
 10
113.860318
 20
201.089965
 30
0.0
 10
113.860318
 20
203.313388
 30
0.0
 10
113.860318
 20
206.648522
 30
0.0
 10
113.860318
 20
208.871944
 30
0.0
 10
113.860318
 20
209.983656
 30
0.0
 11
113.860318
 21
199.978254
 31
0.0
 11
113.860318
 21
203.313388
 31
0.0
 11
113.860318
 21
206.648522
 31
0.0
 11
113.860318
 21
209.983656
 31
0.0
  0
SPLINE
  5
10f
100
AcDbEntity
  8
Layer_1
 62
7
100
AcDbSpline
 70
0
 71
3
 72
10
 73
6
 74
4
 40
0.000000
 40
0.000000
 40
0.000000
 40
0.000000
 40
14.008528
 40
28.062552
 40
41.936219
 40
41.936219
 40
41.936219
 40
41.936219
 10
113.860318
 20
209.983656
 30
0.0
 10
109.198639
 20
210.061577
 30
0.0
 10
99.860142
 20
210.217672
 30
0.0
 10
85.764005
 20
209.134036
 30
0.0
 10
76.749393
 20
211.757134
 30
0.0
 10
72.271196
 20
213.060214
 30
0.0
 11
113.860318
 21
209.983656
 31
0.0
 11
99.851796
 21
209.997824
 31
0.0
 11
85.797789
 21
209.976399
 31
0.0
 11
72.271196
 21
213.060214
 31
0.0
  0
SPLINE
  5
110
100
AcDbEntity
  8
Layer_1
 62
7
100
AcDbSpline
 70
0
 71
3
 72
10
 73
6
 74
4
 40
0.000000
 40
0.000000
 40
0.000000
 40
0.000000
 40
14.989684
 40
30.014883
 40
44.916841
 40
44.916841
 40
44.916841
 40
44.916841
 10
72.271196
 20
213.060214
 30
0.0
 10
68.563324
 20
216.592056
 30
0.0
 10
61.138794
 20
223.664108
 30
0.0
 10
60.481085
 20
240.820008
 30
0.0
 10
68.018749
 20
247.902338
 30
0.0
 10
71.772060
 20
251.428920
 30
0.0
 11
72.271196
 21
213.060214
 31
0.0
 11
62.889706
 21
224.751162
 31
0.0
 11
62.489707
 21
239.771035
 31
0.0
 11
71.772060
 21
251.428920
 31
0.0
  0
SPLINE
  5
111
100
AcDbEntity
  8
Layer_1
 62
7
100
AcDbSpline
 70
0
 71
3
 72
10
 73
6
 74
4
 40
0.000000
 40
0.000000
 40
0.000000
 40
0.000000
 40
12.447156
 40
25.041574
 40
37.622528
 40
37.622528
 40
37.622528
 40
37.622528
 10
71.772060
 20
251.428920
 30
0.0
 10
75.712565
 20
252.876292
 30
0.0
 10
83.640195
 20
255.788160
 30
0.0
 10
96.346892
 20
254.885737
 30
0.0
 10
104.716300
 20
254.942910
 30
0.0
 10
108.898766
 20
254.971481
 30
0.0
 11
71.772060
 21
251.428920
 31
0.0
 11
83.724509
 21
254.903203
 31
0.0
 11
96.318062
 21
255.050850
 31
0.0
 11
108.898766
 21
254.971481
 31
0.0
  0
SPLINE
  5
112
100
AcDbEntity
  8
Layer_1
 62
7
100
AcDbSpline
 70
0
 71
3
 72
10
 73
6
 74
4
 40
0.000000
 40
0.000000
 40
0.000000
 40
0.000000
 40
1.653852
 40
3.307704
 40
4.961556
 40
4.961556
 40
4.961556
 40
4.961556
 10
108.898766
 20
254.971481
 30
0.0
 10
109.450050
 20
254.972221
 30
0.0
 10
110.552617
 20
254.973701
 30
0.0
 10
112.206467
 20
254.975819
 30
0.0
 10
113.309034
 20
254.977254
 30
0.0
 10
113.860318
 20
254.977972
 30
0.0
 11
108.898766
 21
254.971481
 31
0.0
 11
110.552617
 21
254.973684
 31
0.0
 11
112.206467
 21
254.975825
 31
0.0
 11
113.860318
 21
254.977972
 31
0.0
  0
SPLINE
  5
113
100
AcDbEntity
  8
Layer_1
 62
7
100
AcDbSpline
 70
0
 71
3
 72
10
 73
6
 74
4
 40
0.000000
 40
0.000000
 40
0.000000
 40
0.000000
 40
6.667667
 40
13.335333
 40
20.003000
 40
20.003000
 40
20.003000
 40
20.003000
 10
113.860318
 20
254.977955
 30
0.0
 10
113.860318
 20
257.200510
 30
0.0
 10
113.860318
 20
261.645621
 30
0.0
 10
113.860318
 20
268.313288
 30
0.0
 10
113.860318
 20
272.758399
 30
0.0
 10
113.860318
 20
274.980954
 30
0.0
 11
113.860318
 21
254.977955
 31
0.0
 11
113.860318
 21
261.645621
 31
0.0
 11
113.860318
 21
268.313288
 31
0.0
 11
113.860318
 21
274.980954
 31
0.0
  0
SPLINE
  5
114
100
AcDbEntity
  8
Layer_1
 62
7
100
AcDbSpline
 70
0
 71
3
 72
10
 73
6
 74
4
 40
0.000000
 40
0.000000
 40
0.000000
 40
0.000000
 40
20.000000
 40
39.999999
 40
59.999999
 40
59.999999
 40
59.999999
 40
59.999999
 10
113.860318
 20
274.980954
 30
0.0
 10
107.193651
 20
274.980954
 30
0.0
 10
93.860318
 20
274.980954
 30
0.0
 10
73.860319
 20
274.980954
 30
0.0
 10
60.526986
 20
274.980954
 30
0.0
 10
53.860319
 20
274.980954
 30
0.0
 11
113.860318
 21
274.980954
 31
0.0
 11
93.860318
 21
274.980954
 31
0.0
 11
73.860319
 21
274.980954
 31
0.0
 11
53.860319
 21
274.980954
 31
0.0
  0
SPLINE
  5
115
100
AcDbEntity
  8
Layer_1
 62
7
100
AcDbSpline
 70
0
 71
3
 72
10
 73
6
 74
4
 40
0.000000
 40
0.000000
 40
0.000000
 40
0.000000
 40
83.333334
 40
166.666668
 40
250.000002
 40
250.000002
 40
250.000002
 40
250.000002
 10
53.860319
 20
274.980954
 30
0.0
 10
53.860319
 20
247.203177
 30
0.0
 10
53.860319
 20
191.647620
 30
0.0
 10
53.860319
 20
108.314286
 30
0.0
 10
53.860319
 20
52.758730
 30
0.0
 10
53.860319
 20
24.980952
 30
0.0
 11
53.860319
 21
274.980954
 31
0.0
 11
53.860319
 21
191.647621
 31
0.0
 11
53.860319
 21
108.314286
 31
0.0
 11
53.860319
 21
24.980952
 31
0.0
  0
SPLINE
  5
116
100
AcDbEntity
  8
Layer_1
 62
7
100
AcDbSpline
 70
0
 71
3
 72
10
 73
6
 74
4
 40
0.000000
 40
0.000000
 40
0.000000
 40
0.000000
 40
20.000000
 40
39.999999
 40
59.999999
 40
59.999999
 40
59.999999
 40
59.999999
 10
53.860319
 20
24.980952
 30
0.0
 10
60.526986
 20
24.980952
 30
0.0
 10
73.860319
 20
24.980952
 30
0.0
 10
93.860318
 20
24.980952
 30
0.0
 10
107.193651
 20
24.980952
 30
0.0
 10
113.860318
 20
24.980952
 30
0.0
 11
53.860319
 21
24.980952
 31
0.0
 11
73.860319
 21
24.980952
 31
0.0
 11
93.860318
 21
24.980952
 31
0.0
 11
113.860318
 21
24.980952
 31
0.0
  0
SPLINE
  5
117
100
AcDbEntity
  8
Layer_1
 62
7
100
AcDbSpline
 70
0
 71
3
 72
10
 73
6
 74
4
 40
0.000000
 40
0.000000
 40
0.000000
 40
0.000000
 40
6.667669
 40
13.335339
 40
20.003008
 40
20.003008
 40
20.003008
 40
20.003008
 10
113.860318
 20
24.980952
 30
0.0
 10
113.860318
 20
27.203509
 30
0.0
 10
113.860318
 20
31.648621
 30
0.0
 10
113.860318
 20
38.316291
 30
0.0
 10
113.860318
 20
42.761404
 30
0.0
 10
113.860318
 20
44.983960
 30
0.0
 11
113.860318
 21
24.980952
 31
0.0
 11
113.860318
 21
31.648621
 31
0.0
 11
113.860318
 21
38.316291
 31
0.0
 11
113.860318
 21
44.983960
 31
0.0
  0
SPLINE
  5
118
100
AcDbEntity
  8
Layer_1
 62
7
100
AcDbSpline
 70
0
 71
3
 72
10
 73
6
 74
4
 40
0.000000
 40
0.000000
 40
0.000000
 40
0.000000
 40
1.666666
 40
3.333332
 40
4.999998
 40
4.999998
 40
4.999998
 40
4.999998
 10
58.860317
 20
254.980955
 30
0.0
 10
58.860317
 20
255.536510
 30
0.0
 10
58.860317
 20
256.647621
 30
0.0
 10
58.860317
 20
258.314287
 30
0.0
 10
58.860317
 20
259.425398
 30
0.0
 10
58.860317
 20
259.980953
 30
0.0
 11
58.860317
 21
254.980955
 31
0.0
 11
58.860317
 21
256.647621
 31
0.0
 11
58.860317
 21
258.314287
 31
0.0
 11
58.860317
 21
259.980953
 31
0.0
  0
SPLINE
  5
119
100
AcDbEntity
  8
Layer_1
 62
7
100
AcDbSpline
 70
0
 71
3
 72
10
 73
6
 74
4
 40
0.000000
 40
0.000000
 40
0.000000
 40
0.000000
 40
1.666667
 40
3.333334
 40
5.000001
 40
5.000001
 40
5.000001
 40
5.000001
 10
58.860317
 20
259.980953
 30
0.0
 10
59.415873
 20
259.980953
 30
0.0
 10
60.526985
 20
259.980953
 30
0.0
 10
62.193652
 20
259.980953
 30
0.0
 10
63.304763
 20
259.980953
 30
0.0
 10
63.860319
 20
259.980953
 30
0.0
 11
58.860317
 21
259.980953
 31
0.0
 11
60.526984
 21
259.980953
 31
0.0
 11
62.193652
 21
259.980953
 31
0.0
 11
63.860319
 21
259.980953
 31
0.0
  0
SPLINE
  5
11a
100
AcDbEntity
  8
Layer_1
 62
7
100
AcDbSpline
 70
0
 71
3
 72
10
 73
6
 74
4
 40
0.000000
 40
0.000000
 40
0.000000
 40
0.000000
 40
1.666666
 40
3.333332
 40
4.999998
 40
4.999998
 40
4.999998
 40
4.999998
 10
63.860319
 20
259.980953
 30
0.0
 10
63.860319
 20
259.425398
 30
0.0
 10
63.860319
 20
258.314287
 30
0.0
 10
63.860319
 20
256.647621
 30
0.0
 10
63.860319
 20
255.536510
 30
0.0
 10
63.860319
 20
254.980955
 30
0.0
 11
63.860319
 21
259.980953
 31
0.0
 11
63.860319
 21
258.314287
 31
0.0
 11
63.860319
 21
256.647621
 31
0.0
 11
63.860319
 21
254.980955
 31
0.0
  0
SPLINE
  5
11b
100
AcDbEntity
  8
Layer_1
 62
7
100
AcDbSpline
 70
0
 71
3
 72
10
 73
6
 74
4
 40
0.000000
 40
0.000000
 40
0.000000
 40
0.000000
 40
1.666667
 40
3.333334
 40
5.000001
 40
5.000001
 40
5.000001
 40
5.000001
 10
63.860319
 20
254.980955
 30
0.0
 10
63.304763
 20
254.980955
 30
0.0
 10
62.193652
 20
254.980955
 30
0.0
 10
60.526985
 20
254.980955
 30
0.0
 10
59.415873
 20
254.980955
 30
0.0
 10
58.860317
 20
254.980955
 30
0.0
 11
63.860319
 21
254.980955
 31
0.0
 11
62.193652
 21
254.980955
 31
0.0
 11
60.526984
 21
254.980955
 31
0.0
 11
58.860317
 21
254.980955
 31
0.0
  0
SPLINE
  5
11c
100
AcDbEntity
  8
Layer_1
 62
7
100
AcDbSpline
 70
0
 71
3
 72
10
 73
6
 74
4
 40
0.000000
 40
0.000000
 40
0.000000
 40
0.000000
 40
3.333333
 40
6.666667
 40
10.000000
 40
10.000000
 40
10.000000
 40
10.000000
 10
58.860317
 20
199.980955
 30
0.0
 10
58.860317
 20
201.092066
 30
0.0
 10
58.860317
 20
203.314288
 30
0.0
 10
58.860317
 20
206.647621
 30
0.0
 10
58.860317
 20
208.869844
 30
0.0
 10
58.860317
 20
209.980955
 30
0.0
 11
58.860317
 21
199.980955
 31
0.0
 11
58.860317
 21
203.314288
 31
0.0
 11
58.860317
 21
206.647622
 31
0.0
 11
58.860317
 21
209.980955
 31
0.0
  0
SPLINE
  5
11d
100
AcDbEntity
  8
Layer_1
 62
7
100
AcDbSpline
 70
0
 71
3
 72
10
 73
6
 74
4
 40
0.000000
 40
0.000000
 40
0.000000
 40
0.000000
 40
1.666667
 40
3.333334
 40
5.000001
 40
5.000001
 40
5.000001
 40
5.000001
 10
58.860317
 20
209.980955
 30
0.0
 10
59.415873
 20
209.980955
 30
0.0
 10
60.526985
 20
209.980955
 30
0.0
 10
62.193652
 20
209.980955
 30
0.0
 10
63.304763
 20
209.980955
 30
0.0
 10
63.860319
 20
209.980955
 30
0.0
 11
58.860317
 21
209.980955
 31
0.0
 11
60.526984
 21
209.980955
 31
0.0
 11
62.193652
 21
209.980955
 31
0.0
 11
63.860319
 21
209.980955
 31
0.0
  0
SPLINE
  5
11e
100
AcDbEntity
  8
Layer_1
 62
7
100
AcDbSpline
 70
0
 71
3
 72
10
 73
6
 74
4
 40
0.000000
 40
0.000000
 40
0.000000
 40
0.000000
 40
3.333333
 40
6.666667
 40
10.000000
 40
10.000000
 40
10.000000
 40
10.000000
 10
63.860319
 20
209.980955
 30
0.0
 10
63.860319
 20
208.869844
 30
0.0
 10
63.860319
 20
206.647621
 30
0.0
 10
63.860319
 20
203.314288
 30
0.0
 10
63.860319
 20
201.092066
 30
0.0
 10
63.860319
 20
199.980955
 30
0.0
 11
63.860319
 21
209.980955
 31
0.0
 11
63.860319
 21
206.647622
 31
0.0
 11
63.860319
 21
203.314288
 31
0.0
 11
63.860319
 21
199.980955
 31
0.0
  0
SPLINE
  5
11f
100
AcDbEntity
  8
Layer_1
 62
7
100
AcDbSpline
 70
0
 71
3
 72
10
 73
6
 74
4
 40
0.000000
 40
0.000000
 40
0.000000
 40
0.000000
 40
1.666667
 40
3.333334
 40
5.000001
 40
5.000001
 40
5.000001
 40
5.000001
 10
63.860319
 20
199.980955
 30
0.0
 10
63.304763
 20
199.980955
 30
0.0
 10
62.193652
 20
199.980955
 30
0.0
 10
60.526985
 20
199.980955
 30
0.0
 10
59.415873
 20
199.980955
 30
0.0
 10
58.860317
 20
199.980955
 30
0.0
 11
63.860319
 21
199.980955
 31
0.0
 11
62.193652
 21
199.980955
 31
0.0
 11
60.526984
 21
199.980955
 31
0.0
 11
58.860317
 21
199.980955
 31
0.0
  0
SPLINE
  5
120
100
AcDbEntity
  8
Layer_1
 62
7
100
AcDbSpline
 70
0
 71
3
 72
10
 73
6
 74
4
 40
0.000000
 40
0.000000
 40
0.000000
 40
0.000000
 40
3.333327
 40
6.666653
 40
9.999980
 40
9.999980
 40
9.999980
 40
9.999980
 10
58.860317
 20
144.980966
 30
0.0
 10
58.860317
 20
146.092075
 30
0.0
 10
58.860317
 20
148.314293
 30
0.0
 10
58.860317
 20
151.647619
 30
0.0
 10
58.860317
 20
153.869837
 30
0.0
 10
58.860317
 20
154.980946
 30
0.0
 11
58.860317
 21
144.980966
 31
0.0
 11
58.860317
 21
148.314293
 31
0.0
 11
58.860317
 21
151.647619
 31
0.0
 11
58.860317
 21
154.980946
 31
0.0
  0
SPLINE
  5
121
100
AcDbEntity
  8
Layer_1
 62
7
100
AcDbSpline
 70
0
 71
3
 72
10
 73
6
 74
4
 40
0.000000
 40
0.000000
 40
0.000000
 40
0.000000
 40
1.666667
 40
3.333334
 40
5.000001
 40
5.000001
 40
5.000001
 40
5.000001
 10
58.860317
 20
154.980946
 30
0.0
 10
59.415873
 20
154.980946
 30
0.0
 10
60.526985
 20
154.980946
 30
0.0
 10
62.193652
 20
154.980946
 30
0.0
 10
63.304763
 20
154.980946
 30
0.0
 10
63.860319
 20
154.980946
 30
0.0
 11
58.860317
 21
154.980946
 31
0.0
 11
60.526984
 21
154.980946
 31
0.0
 11
62.193652
 21
154.980946
 31
0.0
 11
63.860319
 21
154.980946
 31
0.0
  0
SPLINE
  5
122
100
AcDbEntity
  8
Layer_1
 62
7
100
AcDbSpline
 70
0
 71
3
 72
10
 73
6
 74
4
 40
0.000000
 40
0.000000
 40
0.000000
 40
0.000000
 40
3.333327
 40
6.666653
 40
9.999980
 40
9.999980
 40
9.999980
 40
9.999980
 10
63.860319
 20
154.980946
 30
0.0
 10
63.860319
 20
153.869837
 30
0.0
 10
63.860319
 20
151.647619
 30
0.0
 10
63.860319
 20
148.314293
 30
0.0
 10
63.860319
 20
146.092075
 30
0.0
 10
63.860319
 20
144.980966
 30
0.0
 11
63.860319
 21
154.980946
 31
0.0
 11
63.860319
 21
151.647619
 31
0.0
 11
63.860319
 21
148.314293
 31
0.0
 11
63.860319
 21
144.980966
 31
0.0
  0
SPLINE
  5
123
100
AcDbEntity
  8
Layer_1
 62
7
100
AcDbSpline
 70
0
 71
3
 72
10
 73
6
 74
4
 40
0.000000
 40
0.000000
 40
0.000000
 40
0.000000
 40
1.666667
 40
3.333334
 40
5.000001
 40
5.000001
 40
5.000001
 40
5.000001
 10
63.860319
 20
144.980966
 30
0.0
 10
63.304763
 20
144.980966
 30
0.0
 10
62.193652
 20
144.980966
 30
0.0
 10
60.526985
 20
144.980966
 30
0.0
 10
59.415873
 20
144.980966
 30
0.0
 10
58.860317
 20
144.980966
 30
0.0
 11
63.860319
 21
144.980966
 31
0.0
 11
62.193652
 21
144.980966
 31
0.0
 11
60.526984
 21
144.980966
 31
0.0
 11
58.860317
 21
144.980966
 31
0.0
  0
SPLINE
  5
124
100
AcDbEntity
  8
Layer_1
 62
7
100
AcDbSpline
 70
0
 71
3
 72
10
 73
6
 74
4
 40
0.000000
 40
0.000000
 40
0.000000
 40
0.000000
 40
3.333327
 40
6.666653
 40
9.999980
 40
9.999980
 40
9.999980
 40
9.999980
 10
58.860317
 20
89.980963
 30
0.0
 10
58.860317
 20
91.092072
 30
0.0
 10
58.860317
 20
93.314290
 30
0.0
 10
58.860317
 20
96.647617
 30
0.0
 10
58.860317
 20
98.869834
 30
0.0
 10
58.860317
 20
99.980943
 30
0.0
 11
58.860317
 21
89.980963
 31
0.0
 11
58.860317
 21
93.314290
 31
0.0
 11
58.860317
 21
96.647617
 31
0.0
 11
58.860317
 21
99.980943
 31
0.0
  0
SPLINE
  5
125
100
AcDbEntity
  8
Layer_1
 62
7
100
AcDbSpline
 70
0
 71
3
 72
10
 73
6
 74
4
 40
0.000000
 40
0.000000
 40
0.000000
 40
0.000000
 40
1.666667
 40
3.333334
 40
5.000001
 40
5.000001
 40
5.000001
 40
5.000001
 10
58.860317
 20
99.980943
 30
0.0
 10
59.415873
 20
99.980943
 30
0.0
 10
60.526985
 20
99.980943
 30
0.0
 10
62.193652
 20
99.980943
 30
0.0
 10
63.304763
 20
99.980943
 30
0.0
 10
63.860319
 20
99.980943
 30
0.0
 11
58.860317
 21
99.980943
 31
0.0
 11
60.526984
 21
99.980943
 31
0.0
 11
62.193652
 21
99.980943
 31
0.0
 11
63.860319
 21
99.980943
 31
0.0
  0
SPLINE
  5
126
100
AcDbEntity
  8
Layer_1
 62
7
100
AcDbSpline
 70
0
 71
3
 72
10
 73
6
 74
4
 40
0.000000
 40
0.000000
 40
0.000000
 40
0.000000
 40
3.333327
 40
6.666653
 40
9.999980
 40
9.999980
 40
9.999980
 40
9.999980
 10
63.860319
 20
99.980943
 30
0.0
 10
63.860319
 20
98.869834
 30
0.0
 10
63.860319
 20
96.647617
 30
0.0
 10
63.860319
 20
93.314290
 30
0.0
 10
63.860319
 20
91.092072
 30
0.0
 10
63.860319
 20
89.980963
 30
0.0
 11
63.860319
 21
99.980943
 31
0.0
 11
63.860319
 21
96.647617
 31
0.0
 11
63.860319
 21
93.314290
 31
0.0
 11
63.860319
 21
89.980963
 31
0.0
  0
SPLINE
  5
127
100
AcDbEntity
  8
Layer_1
 62
7
100
AcDbSpline
 70
0
 71
3
 72
10
 73
6
 74
4
 40
0.000000
 40
0.000000
 40
0.000000
 40
0.000000
 40
1.666667
 40
3.333334
 40
5.000001
 40
5.000001
 40
5.000001
 40
5.000001
 10
63.860319
 20
89.980963
 30
0.0
 10
63.304763
 20
89.980963
 30
0.0
 10
62.193652
 20
89.980963
 30
0.0
 10
60.526985
 20
89.980963
 30
0.0
 10
59.415873
 20
89.980963
 30
0.0
 10
58.860317
 20
89.980963
 30
0.0
 11
63.860319
 21
89.980963
 31
0.0
 11
62.193652
 21
89.980963
 31
0.0
 11
60.526984
 21
89.980963
 31
0.0
 11
58.860317
 21
89.980963
 31
0.0
  0
SPLINE
  5
128
100
AcDbEntity
  8
Layer_1
 62
7
100
AcDbSpline
 70
0
 71
3
 72
10
 73
6
 74
4
 40
0.000000
 40
0.000000
 40
0.000000
 40
0.000000
 40
1.666673
 40
3.333346
 40
5.000018
 40
5.000018
 40
5.000018
 40
5.000018
 10
58.860317
 20
39.980950
 30
0.0
 10
58.860317
 20
40.536508
 30
0.0
 10
58.860317
 20
41.647623
 30
0.0
 10
58.860317
 20
43.314296
 30
0.0
 10
58.860317
 20
44.425411
 30
0.0
 10
58.860317
 20
44.980969
 30
0.0
 11
58.860317
 21
39.980950
 31
0.0
 11
58.860317
 21
41.647623
 31
0.0
 11
58.860317
 21
43.314296
 31
0.0
 11
58.860317
 21
44.980969
 31
0.0
  0
SPLINE
  5
129
100
AcDbEntity
  8
Layer_1
 62
7
100
AcDbSpline
 70
0
 71
3
 72
10
 73
6
 74
4
 40
0.000000
 40
0.000000
 40
0.000000
 40
0.000000
 40
1.666667
 40
3.333334
 40
5.000001
 40
5.000001
 40
5.000001
 40
5.000001
 10
58.860317
 20
44.980969
 30
0.0
 10
59.415873
 20
44.980969
 30
0.0
 10
60.526985
 20
44.980969
 30
0.0
 10
62.193652
 20
44.980969
 30
0.0
 10
63.304763
 20
44.980969
 30
0.0
 10
63.860319
 20
44.980969
 30
0.0
 11
58.860317
 21
44.980969
 31
0.0
 11
60.526984
 21
44.980969
 31
0.0
 11
62.193652
 21
44.980969
 31
0.0
 11
63.860319
 21
44.980969
 31
0.0
  0
SPLINE
  5
12a
100
AcDbEntity
  8
Layer_1
 62
7
100
AcDbSpline
 70
0
 71
3
 72
10
 73
6
 74
4
 40
0.000000
 40
0.000000
 40
0.000000
 40
0.000000
 40
1.666673
 40
3.333346
 40
5.000018
 40
5.000018
 40
5.000018
 40
5.000018
 10
63.860319
 20
44.980969
 30
0.0
 10
63.860319
 20
44.425411
 30
0.0
 10
63.860319
 20
43.314296
 30
0.0
 10
63.860319
 20
41.647623
 30
0.0
 10
63.860319
 20
40.536508
 30
0.0
 10
63.860319
 20
39.980950
 30
0.0
 11
63.860319
 21
44.980969
 31
0.0
 11
63.860319
 21
43.314296
 31
0.0
 11
63.860319
 21
41.647623
 31
0.0
 11
63.860319
 21
39.980950
 31
0.0
  0
SPLINE
  5
12b
100
AcDbEntity
  8
Layer_1
 62
7
100
AcDbSpline
 70
0
 71
3
 72
10
 73
6
 74
4
 40
0.000000
 40
0.000000
 40
0.000000
 40
0.000000
 40
1.666667
 40
3.333334
 40
5.000001
 40
5.000001
 40
5.000001
 40
5.000001
 10
63.860319
 20
39.980950
 30
0.0
 10
63.304763
 20
39.980950
 30
0.0
 10
62.193652
 20
39.980950
 30
0.0
 10
60.526985
 20
39.980950
 30
0.0
 10
59.415873
 20
39.980950
 30
0.0
 10
58.860317
 20
39.980950
 30
0.0
 11
63.860319
 21
39.980950
 31
0.0
 11
62.193652
 21
39.980950
 31
0.0
 11
60.526984
 21
39.980950
 31
0.0
 11
58.860317
 21
39.980950
 31
0.0
  0
ENDSEC
  0
SECTION
  2
OBJECTS
  0
DICTIONARY
  5
C
330
0
100
AcDbDictionary
  3
ACAD_GROUP
350
D
  3
ACAD_MLINESTYLE
350
17
  0
DICTIONARY
  5
D
330
C
100
AcDbDictionary
  0
DICTIONARY
  5
1A
330
C
100
AcDbDictionary
  0
DICTIONARY
  5
17
330
C
100
AcDbDictionary
  3
STANDARD
350
18
  0
DICTIONARY
  5
19
330
C
100
AcDbDictionary
  0
ENDSEC
  0
EOF
