  0
SECTION
  2
BLOCKS
  0
ENDSEC
  0
SECTION
  2
ENTITIES
  0
LINE
  8
0
 10
30
 20
-104.997
 11
-1.41278
 21
-104.956
  0
LINE
  8
0
 10
-1.41278
 20
-104.956
 11
-4.21606
 21
-104.601
  0
LINE
  8
0
 10
-4.21606
 20
-104.601
 11
-6.95288
 21
-103.899
  0
LINE
  8
0
 10
-6.95288
 20
-103.899
 11
-9.58003
 21
-102.859
  0
LINE
  8
0
 10
-9.58003
 20
-102.859
 11
-12.0561
 21
-101.497
  0
LINE
  8
0
 10
-12.0561
 20
-101.497
 11
-14.342
 21
-99.8365
  0
LINE
  8
0
 10
-14.342
 20
-99.8365
 11
-16.4018
 21
-97.9023
  0
LINE
  8
0
 10
-16.4018
 20
-97.9023
 11
-18.2029
 21
-95.7252
  0
LINE
  8
0
 10
-18.2029
 20
-95.7252
 11
-19.7169
 21
-93.3394
  0
LINE
  8
0
 10
-19.7169
 20
-93.3394
 11
-20.92
 21
-90.7828
  0
LINE
  8
0
 10
-20.92
 20
-90.7828
 11
-21.7931
 21
-88.0955
  0
LINE
  8
0
 10
-21.7931
 20
-88.0955
 11
-22.3226
 21
-85.32
  0
LINE
  8
0
 10
-22.3226
 20
-85.32
 11
-22.5
 21
-82.5
  0
LINE
  8
0
 10
-22.5
 20
-82.5
 11
-22.3226
 21
-79.68
  0
LINE
  8
0
 10
-22.3226
 20
-79.68
 11
-21.7931
 21
-76.9045
  0
LINE
  8
0
 10
-21.7931
 20
-76.9045
 11
-20.92
 21
-74.2172
  0
LINE
  8
0
 10
-20.92
 20
-74.2172
 11
-19.7169
 21
-71.6606
  0
LINE
  8
0
 10
-19.7169
 20
-71.6606
 11
-18.2029
 21
-69.2748
  0
LINE
  8
0
 10
-18.2029
 20
-69.2748
 11
-16.4018
 21
-67.0977
  0
LINE
  8
0
 10
-16.4018
 20
-67.0977
 11
-14.342
 21
-65.1635
  0
LINE
  8
0
 10
-14.342
 20
-65.1635
 11
-12.0561
 21
-63.5026
  0
LINE
  8
0
 10
-12.0561
 20
-63.5026
 11
-9.58003
 21
-62.1414
  0
LINE
  8
0
 10
-9.58003
 20
-62.1414
 11
-6.95288
 21
-61.1012
  0
LINE
  8
0
 10
-6.95288
 20
-61.1012
 11
-4.21606
 21
-60.3985
  0
LINE
  8
0
 10
-4.21606
 20
-60.3985
 11
-1.41278
 21
-60.0444
  0
LINE
  8
0
 10
-1.41278
 20
-60.0444
 11
30
 21
-60.0027
  0
LINE
  8
0
 10
30
 20
-60.0027
 11
30
 21
-49.9973
  0
LINE
  8
0
 10
30
 20
-49.9973
 11
-1.41278
 21
-49.9556
  0
LINE
  8
0
 10
-1.41278
 20
-49.9556
 11
-4.21606
 21
-49.6015
  0
LINE
  8
0
 10
-4.21606
 20
-49.6015
 11
-6.95288
 21
-48.8988
  0
LINE
  8
0
 10
-6.95288
 20
-48.8988
 11
-9.58003
 21
-47.8586
  0
LINE
  8
0
 10
-9.58003
 20
-47.8586
 11
-12.0561
 21
-46.4974
  0
LINE
  8
0
 10
-12.0561
 20
-46.4974
 11
-14.342
 21
-44.8365
  0
LINE
  8
0
 10
-14.342
 20
-44.8365
 11
-16.4018
 21
-42.9023
  0
LINE
  8
0
 10
-16.4018
 20
-42.9023
 11
-18.2029
 21
-40.7252
  0
LINE
  8
0
 10
-18.2029
 20
-40.7252
 11
-19.7169
 21
-38.3394
  0
LINE
  8
0
 10
-19.7169
 20
-38.3394
 11
-20.92
 21
-35.7828
  0
LINE
  8
0
 10
-20.92
 20
-35.7828
 11
-21.7931
 21
-33.0955
  0
LINE
  8
0
 10
-21.7931
 20
-33.0955
 11
-22.3226
 21
-30.32
  0
LINE
  8
0
 10
-22.3226
 20
-30.32
 11
-22.5
 21
-27.5
  0
LINE
  8
0
 10
-22.5
 20
-27.5
 11
-22.3226
 21
-24.68
  0
LINE
  8
0
 10
-22.3226
 20
-24.68
 11
-21.7931
 21
-21.9045
  0
LINE
  8
0
 10
-21.7931
 20
-21.9045
 11
-20.92
 21
-19.2172
  0
LINE
  8
0
 10
-20.92
 20
-19.2172
 11
-19.7169
 21
-16.6606
  0
LINE
  8
0
 10
-19.7169
 20
-16.6606
 11
-18.2029
 21
-14.2748
  0
LINE
  8
0
 10
-18.2029
 20
-14.2748
 11
-16.4018
 21
-12.0977
  0
LINE
  8
0
 10
-16.4018
 20
-12.0977
 11
-14.342
 21
-10.1635
  0
LINE
  8
0
 10
-14.342
 20
-10.1635
 11
-12.0561
 21
-8.50262
  0
LINE
  8
0
 10
-12.0561
 20
-8.50262
 11
-9.58003
 21
-7.1414
  0
LINE
  8
0
 10
-9.58003
 20
-7.1414
 11
-6.95288
 21
-6.10124
  0
LINE
  8
0
 10
-6.95288
 20
-6.10124
 11
-4.21606
 21
-5.39854
  0
LINE
  8
0
 10
-4.21606
 20
-5.39854
 11
-1.41278
 21
-5.0444
  0
LINE
  8
0
 10
-1.41278
 20
-5.0444
 11
30
 21
-5.00266
  0
LINE
  8
0
 10
30
 20
-5.00266
 11
30
 21
5.00266
  0
LINE
  8
0
 10
30
 20
5.00266
 11
-1.41278
 21
5.0444
  0
LINE
  8
0
 10
-1.41278
 20
5.0444
 11
-4.21606
 21
5.39854
  0
LINE
  8
0
 10
-4.21606
 20
5.39854
 11
-6.95288
 21
6.10124
  0
LINE
  8
0
 10
-6.95288
 20
6.10124
 11
-9.58003
 21
7.1414
  0
LINE
  8
0
 10
-9.58003
 20
7.1414
 11
-12.0561
 21
8.50262
  0
LINE
  8
0
 10
-12.0561
 20
8.50262
 11
-14.342
 21
10.1635
  0
LINE
  8
0
 10
-14.342
 20
10.1635
 11
-16.4018
 21
12.0977
  0
LINE
  8
0
 10
-16.4018
 20
12.0977
 11
-18.2029
 21
14.2748
  0
LINE
  8
0
 10
-18.2029
 20
14.2748
 11
-19.7169
 21
16.6606
  0
LINE
  8
0
 10
-19.7169
 20
16.6606
 11
-20.92
 21
19.2172
  0
LINE
  8
0
 10
-20.92
 20
19.2172
 11
-21.7931
 21
21.9045
  0
LINE
  8
0
 10
-21.7931
 20
21.9045
 11
-22.3226
 21
24.68
  0
LINE
  8
0
 10
-22.3226
 20
24.68
 11
-22.5
 21
27.5
  0
LINE
  8
0
 10
-22.5
 20
27.5
 11
-22.3226
 21
30.32
  0
LINE
  8
0
 10
-22.3226
 20
30.32
 11
-21.7931
 21
33.0955
  0
LINE
  8
0
 10
-21.7931
 20
33.0955
 11
-20.92
 21
35.7828
  0
LINE
  8
0
 10
-20.92
 20
35.7828
 11
-19.7169
 21
38.3394
  0
LINE
  8
0
 10
-19.7169
 20
38.3394
 11
-18.2029
 21
40.7252
  0
LINE
  8
0
 10
-18.2029
 20
40.7252
 11
-16.4018
 21
42.9023
  0
LINE
  8
0
 10
-16.4018
 20
42.9023
 11
-14.342
 21
44.8365
  0
LINE
  8
0
 10
-14.342
 20
44.8365
 11
-12.0561
 21
46.4974
  0
LINE
  8
0
 10
-12.0561
 20
46.4974
 11
-9.58003
 21
47.8586
  0
LINE
  8
0
 10
-9.58003
 20
47.8586
 11
-6.95288
 21
48.8988
  0
LINE
  8
0
 10
-6.95288
 20
48.8988
 11
-4.21606
 21
49.6015
  0
LINE
  8
0
 10
-4.21606
 20
49.6015
 11
-1.41278
 21
49.9556
  0
LINE
  8
0
 10
-1.41278
 20
49.9556
 11
30
 21
49.9973
  0
LINE
  8
0
 10
30
 20
49.9973
 11
30
 21
60.0027
  0
LINE
  8
0
 10
30
 20
60.0027
 11
-1.41278
 21
60.0444
  0
LINE
  8
0
 10
-1.41278
 20
60.0444
 11
-4.21606
 21
60.3985
  0
LINE
  8
0
 10
-4.21606
 20
60.3985
 11
-6.95288
 21
61.1012
  0
LINE
  8
0
 10
-6.95288
 20
61.1012
 11
-9.58003
 21
62.1414
  0
LINE
  8
0
 10
-9.58003
 20
62.1414
 11
-12.0561
 21
63.5026
  0
LINE
  8
0
 10
-12.0561
 20
63.5026
 11
-14.342
 21
65.1635
  0
LINE
  8
0
 10
-14.342
 20
65.1635
 11
-16.4018
 21
67.0977
  0
LINE
  8
0
 10
-16.4018
 20
67.0977
 11
-18.2029
 21
69.2748
  0
LINE
  8
0
 10
-18.2029
 20
69.2748
 11
-19.7169
 21
71.6606
  0
LINE
  8
0
 10
-19.7169
 20
71.6606
 11
-20.92
 21
74.2172
  0
LINE
  8
0
 10
-20.92
 20
74.2172
 11
-21.7931
 21
76.9045
  0
LINE
  8
0
 10
-21.7931
 20
76.9045
 11
-22.3226
 21
79.68
  0
LINE
  8
0
 10
-22.3226
 20
79.68
 11
-22.5
 21
82.5
  0
LINE
  8
0
 10
-22.5
 20
82.5
 11
-22.3226
 21
85.32
  0
LINE
  8
0
 10
-22.3226
 20
85.32
 11
-21.7931
 21
88.0955
  0
LINE
  8
0
 10
-21.7931
 20
88.0955
 11
-20.92
 21
90.7828
  0
LINE
  8
0
 10
-20.92
 20
90.7828
 11
-19.7169
 21
93.3394
  0
LINE
  8
0
 10
-19.7169
 20
93.3394
 11
-18.2029
 21
95.7252
  0
LINE
  8
0
 10
-18.2029
 20
95.7252
 11
-16.4018
 21
97.9023
  0
LINE
  8
0
 10
-16.4018
 20
97.9023
 11
-14.342
 21
99.8365
  0
LINE
  8
0
 10
-14.342
 20
99.8365
 11
-12.0561
 21
101.497
  0
LINE
  8
0
 10
-12.0561
 20
101.497
 11
-9.58003
 21
102.859
  0
LINE
  8
0
 10
-9.58003
 20
102.859
 11
-6.95288
 21
103.899
  0
LINE
  8
0
 10
-6.95288
 20
103.899
 11
-4.21606
 21
104.601
  0
LINE
  8
0
 10
-4.21606
 20
104.601
 11
-1.41278
 21
104.956
  0
LINE
  8
0
 10
-1.41278
 20
104.956
 11
30
 21
104.997
  0
LINE
  8
0
 10
30
 20
104.997
 11
30
 21
125
  0
LINE
  8
0
 10
30
 20
125
 11
-30
 21
125
  0
LINE
  8
0
 10
-30
 20
125
 11
-30
 21
-125
  0
LINE
  8
0
 10
-30
 20
-125
 11
30
 21
-125
  0
LINE
  8
0
 10
30
 20
-125
 11
30
 21
-104.997
  0
LINE
  8
0
 10
-25
 20
105
 11
-25
 21
110
  0
LINE
  8
0
 10
-25
 20
110
 11
-20
 21
110
  0
LINE
  8
0
 10
-20
 20
110
 11
-20
 21
105
  0
LINE
  8
0
 10
-20
 20
105
 11
-25
 21
105
  0
LINE
  8
0
 10
-25
 20
50
 11
-25
 21
60
  0
LINE
  8
0
 10
-25
 20
60
 11
-20
 21
60
  0
LINE
  8
0
 10
-20
 20
60
 11
-20
 21
50
  0
LINE
  8
0
 10
-20
 20
50
 11
-25
 21
50
  0
LINE
  8
0
 10
-25
 20
-5
 11
-25
 21
5
  0
LINE
  8
0
 10
-25
 20
5
 11
-20
 21
5
  0
LINE
  8
0
 10
-20
 20
5
 11
-20
 21
-5
  0
LINE
  8
0
 10
-20
 20
-5
 11
-25
 21
-5
  0
LINE
  8
0
 10
-25
 20
-60
 11
-25
 21
-50
  0
LINE
  8
0
 10
-25
 20
-50
 11
-20
 21
-50
  0
LINE
  8
0
 10
-20
 20
-50
 11
-20
 21
-60
  0
LINE
  8
0
 10
-20
 20
-60
 11
-25
 21
-60
  0
LINE
  8
0
 10
-25
 20
-110
 11
-25
 21
-105
  0
LINE
  8
0
 10
-25
 20
-105
 11
-20
 21
-105
  0
LINE
  8
0
 10
-20
 20
-105
 11
-20
 21
-110
  0
LINE
  8
0
 10
-20
 20
-110
 11
-25
 21
-110
  0
ENDSEC
  0
SECTION
  2
OBJECTS
  0
DICTIONARY
  0
ENDSEC
  0
EOF
