  0
SECTION
  2
BLOCKS
  0
ENDSEC
  0
SECTION
  2
ENTITIES
  0
LINE
  8
0
 10
480
 20
50
 11
0
 21
50
  0
LINE
  8
0
 10
0
 20
50
 11
0
 21
-50
  0
LINE
  8
0
 10
0
 20
-50
 11
480
 21
-50
  0
LINE
  8
0
 10
480
 20
-50
 11
480
 21
50
  0
LINE
  8
0
 10
76.9687
 20
-28.8411
 11
71.0385
 21
-27.5806
  0
LINE
  8
0
 10
71.0385
 20
-27.5806
 11
65.5
 21
-25.1147
  0
LINE
  8
0
 10
65.5
 20
-25.1147
 11
60.5952
 21
-21.5512
  0
LINE
  8
0
 10
60.5952
 20
-21.5512
 11
56.5385
 21
-17.0458
  0
LINE
  8
0
 10
56.5385
 20
-17.0458
 11
53.5072
 21
-11.7953
  0
LINE
  8
0
 10
53.5072
 20
-11.7953
 11
51.6337
 21
-6.02943
  0
LINE
  8
0
 10
51.6337
 20
-6.02943
 11
51
 21
0
  0
LINE
  8
0
 10
51
 20
0
 11
51.6337
 21
6.02943
  0
LINE
  8
0
 10
51.6337
 20
6.02943
 11
53.5072
 21
11.7953
  0
LINE
  8
0
 10
53.5072
 20
11.7953
 11
56.5385
 21
17.0458
  0
LINE
  8
0
 10
56.5385
 20
17.0458
 11
60.5952
 21
21.5512
  0
LINE
  8
0
 10
60.5952
 20
21.5512
 11
65.5
 21
25.1147
  0
LINE
  8
0
 10
65.5
 20
25.1147
 11
71.0385
 21
27.5806
  0
LINE
  8
0
 10
71.0385
 20
27.5806
 11
76.9687
 21
28.8411
  0
LINE
  8
0
 10
76.9687
 20
28.8411
 11
83.0313
 21
28.8411
  0
LINE
  8
0
 10
83.0313
 20
28.8411
 11
88.9615
 21
27.5806
  0
LINE
  8
0
 10
88.9615
 20
27.5806
 11
94.5
 21
25.1147
  0
LINE
  8
0
 10
94.5
 20
25.1147
 11
99.4048
 21
21.5512
  0
LINE
  8
0
 10
99.4048
 20
21.5512
 11
103.461
 21
17.0458
  0
LINE
  8
0
 10
103.461
 20
17.0458
 11
106.493
 21
11.7953
  0
LINE
  8
0
 10
106.493
 20
11.7953
 11
108.366
 21
6.02943
  0
LINE
  8
0
 10
108.366
 20
6.02943
 11
109
 21
0
  0
LINE
  8
0
 10
109
 20
0
 11
108.366
 21
-6.02943
  0
LINE
  8
0
 10
108.366
 20
-6.02943
 11
106.493
 21
-11.7953
  0
LINE
  8
0
 10
106.493
 20
-11.7953
 11
103.461
 21
-17.0458
  0
LINE
  8
0
 10
103.461
 20
-17.0458
 11
99.4048
 21
-21.5512
  0
LINE
  8
0
 10
99.4048
 20
-21.5512
 11
94.5
 21
-25.1147
  0
LINE
  8
0
 10
94.5
 20
-25.1147
 11
88.9615
 21
-27.5806
  0
LINE
  8
0
 10
88.9615
 20
-27.5806
 11
83.0313
 21
-28.8411
  0
LINE
  8
0
 10
83.0313
 20
-28.8411
 11
76.9687
 21
-28.8411
  0
LINE
  8
0
 10
156.969
 20
-28.8411
 11
151.038
 21
-27.5806
  0
LINE
  8
0
 10
151.038
 20
-27.5806
 11
145.5
 21
-25.1147
  0
LINE
  8
0
 10
145.5
 20
-25.1147
 11
140.595
 21
-21.5512
  0
LINE
  8
0
 10
140.595
 20
-21.5512
 11
136.538
 21
-17.0458
  0
LINE
  8
0
 10
136.538
 20
-17.0458
 11
133.507
 21
-11.7953
  0
LINE
  8
0
 10
133.507
 20
-11.7953
 11
131.634
 21
-6.02943
  0
LINE
  8
0
 10
131.634
 20
-6.02943
 11
131
 21
0
  0
LINE
  8
0
 10
131
 20
0
 11
131.634
 21
6.02943
  0
LINE
  8
0
 10
131.634
 20
6.02943
 11
133.507
 21
11.7953
  0
LINE
  8
0
 10
133.507
 20
11.7953
 11
136.538
 21
17.0458
  0
LINE
  8
0
 10
136.538
 20
17.0458
 11
140.595
 21
21.5512
  0
LINE
  8
0
 10
140.595
 20
21.5512
 11
145.5
 21
25.1147
  0
LINE
  8
0
 10
145.5
 20
25.1147
 11
151.038
 21
27.5806
  0
LINE
  8
0
 10
151.038
 20
27.5806
 11
156.969
 21
28.8411
  0
LINE
  8
0
 10
156.969
 20
28.8411
 11
163.031
 21
28.8411
  0
LINE
  8
0
 10
163.031
 20
28.8411
 11
168.961
 21
27.5806
  0
LINE
  8
0
 10
168.961
 20
27.5806
 11
174.5
 21
25.1147
  0
LINE
  8
0
 10
174.5
 20
25.1147
 11
179.405
 21
21.5512
  0
LINE
  8
0
 10
179.405
 20
21.5512
 11
183.461
 21
17.0458
  0
LINE
  8
0
 10
183.461
 20
17.0458
 11
186.493
 21
11.7953
  0
LINE
  8
0
 10
186.493
 20
11.7953
 11
188.366
 21
6.02943
  0
LINE
  8
0
 10
188.366
 20
6.02943
 11
189
 21
0
  0
LINE
  8
0
 10
189
 20
0
 11
188.366
 21
-6.02943
  0
LINE
  8
0
 10
188.366
 20
-6.02943
 11
186.493
 21
-11.7953
  0
LINE
  8
0
 10
186.493
 20
-11.7953
 11
183.461
 21
-17.0458
  0
LINE
  8
0
 10
183.461
 20
-17.0458
 11
179.405
 21
-21.5512
  0
LINE
  8
0
 10
179.405
 20
-21.5512
 11
174.5
 21
-25.1147
  0
LINE
  8
0
 10
174.5
 20
-25.1147
 11
168.961
 21
-27.5806
  0
LINE
  8
0
 10
168.961
 20
-27.5806
 11
163.031
 21
-28.8411
  0
LINE
  8
0
 10
163.031
 20
-28.8411
 11
156.969
 21
-28.8411
  0
LINE
  8
0
 10
236.969
 20
-28.8411
 11
231.038
 21
-27.5806
  0
LINE
  8
0
 10
231.038
 20
-27.5806
 11
225.5
 21
-25.1147
  0
LINE
  8
0
 10
225.5
 20
-25.1147
 11
220.595
 21
-21.5512
  0
LINE
  8
0
 10
220.595
 20
-21.5512
 11
216.538
 21
-17.0458
  0
LINE
  8
0
 10
216.538
 20
-17.0458
 11
213.507
 21
-11.7953
  0
LINE
  8
0
 10
213.507
 20
-11.7953
 11
211.634
 21
-6.02943
  0
LINE
  8
0
 10
211.634
 20
-6.02943
 11
211
 21
0
  0
LINE
  8
0
 10
211
 20
0
 11
211.634
 21
6.02943
  0
LINE
  8
0
 10
211.634
 20
6.02943
 11
213.507
 21
11.7953
  0
LINE
  8
0
 10
213.507
 20
11.7953
 11
216.538
 21
17.0458
  0
LINE
  8
0
 10
216.538
 20
17.0458
 11
220.595
 21
21.5512
  0
LINE
  8
0
 10
220.595
 20
21.5512
 11
225.5
 21
25.1147
  0
LINE
  8
0
 10
225.5
 20
25.1147
 11
231.038
 21
27.5806
  0
LINE
  8
0
 10
231.038
 20
27.5806
 11
236.969
 21
28.8411
  0
LINE
  8
0
 10
236.969
 20
28.8411
 11
243.031
 21
28.8411
  0
LINE
  8
0
 10
243.031
 20
28.8411
 11
248.961
 21
27.5806
  0
LINE
  8
0
 10
248.961
 20
27.5806
 11
254.5
 21
25.1147
  0
LINE
  8
0
 10
254.5
 20
25.1147
 11
259.405
 21
21.5512
  0
LINE
  8
0
 10
259.405
 20
21.5512
 11
263.461
 21
17.0458
  0
LINE
  8
0
 10
263.461
 20
17.0458
 11
266.493
 21
11.7953
  0
LINE
  8
0
 10
266.493
 20
11.7953
 11
268.366
 21
6.02943
  0
LINE
  8
0
 10
268.366
 20
6.02943
 11
269
 21
0
  0
LINE
  8
0
 10
269
 20
0
 11
268.366
 21
-6.02943
  0
LINE
  8
0
 10
268.366
 20
-6.02943
 11
266.493
 21
-11.7953
  0
LINE
  8
0
 10
266.493
 20
-11.7953
 11
263.461
 21
-17.0458
  0
LINE
  8
0
 10
263.461
 20
-17.0458
 11
259.405
 21
-21.5512
  0
LINE
  8
0
 10
259.405
 20
-21.5512
 11
254.5
 21
-25.1147
  0
LINE
  8
0
 10
254.5
 20
-25.1147
 11
248.961
 21
-27.5806
  0
LINE
  8
0
 10
248.961
 20
-27.5806
 11
243.031
 21
-28.8411
  0
LINE
  8
0
 10
243.031
 20
-28.8411
 11
236.969
 21
-28.8411
  0
LINE
  8
0
 10
316.969
 20
-28.8411
 11
311.038
 21
-27.5806
  0
LINE
  8
0
 10
311.038
 20
-27.5806
 11
305.5
 21
-25.1147
  0
LINE
  8
0
 10
305.5
 20
-25.1147
 11
300.595
 21
-21.5512
  0
LINE
  8
0
 10
300.595
 20
-21.5512
 11
296.538
 21
-17.0458
  0
LINE
  8
0
 10
296.538
 20
-17.0458
 11
293.507
 21
-11.7953
  0
LINE
  8
0
 10
293.507
 20
-11.7953
 11
291.634
 21
-6.02943
  0
LINE
  8
0
 10
291.634
 20
-6.02943
 11
291
 21
0
  0
LINE
  8
0
 10
291
 20
0
 11
291.634
 21
6.02943
  0
LINE
  8
0
 10
291.634
 20
6.02943
 11
293.507
 21
11.7953
  0
LINE
  8
0
 10
293.507
 20
11.7953
 11
296.538
 21
17.0458
  0
LINE
  8
0
 10
296.538
 20
17.0458
 11
300.595
 21
21.5512
  0
LINE
  8
0
 10
300.595
 20
21.5512
 11
305.5
 21
25.1147
  0
LINE
  8
0
 10
305.5
 20
25.1147
 11
311.038
 21
27.5806
  0
LINE
  8
0
 10
311.038
 20
27.5806
 11
316.969
 21
28.8411
  0
LINE
  8
0
 10
316.969
 20
28.8411
 11
323.031
 21
28.8411
  0
LINE
  8
0
 10
323.031
 20
28.8411
 11
328.961
 21
27.5806
  0
LINE
  8
0
 10
328.961
 20
27.5806
 11
334.5
 21
25.1147
  0
LINE
  8
0
 10
334.5
 20
25.1147
 11
339.405
 21
21.5512
  0
LINE
  8
0
 10
339.405
 20
21.5512
 11
343.461
 21
17.0458
  0
LINE
  8
0
 10
343.461
 20
17.0458
 11
346.493
 21
11.7953
  0
LINE
  8
0
 10
346.493
 20
11.7953
 11
348.366
 21
6.02943
  0
LINE
  8
0
 10
348.366
 20
6.02943
 11
349
 21
0
  0
LINE
  8
0
 10
349
 20
0
 11
348.366
 21
-6.02943
  0
LINE
  8
0
 10
348.366
 20
-6.02943
 11
346.493
 21
-11.7953
  0
LINE
  8
0
 10
346.493
 20
-11.7953
 11
343.461
 21
-17.0458
  0
LINE
  8
0
 10
343.461
 20
-17.0458
 11
339.405
 21
-21.5512
  0
LINE
  8
0
 10
339.405
 20
-21.5512
 11
334.5
 21
-25.1147
  0
LINE
  8
0
 10
334.5
 20
-25.1147
 11
328.961
 21
-27.5806
  0
LINE
  8
0
 10
328.961
 20
-27.5806
 11
323.031
 21
-28.8411
  0
LINE
  8
0
 10
323.031
 20
-28.8411
 11
316.969
 21
-28.8411
  0
LINE
  8
0
 10
396.969
 20
-28.8411
 11
391.038
 21
-27.5806
  0
LINE
  8
0
 10
391.038
 20
-27.5806
 11
385.5
 21
-25.1147
  0
LINE
  8
0
 10
385.5
 20
-25.1147
 11
380.595
 21
-21.5512
  0
LINE
  8
0
 10
380.595
 20
-21.5512
 11
376.538
 21
-17.0458
  0
LINE
  8
0
 10
376.538
 20
-17.0458
 11
373.507
 21
-11.7953
  0
LINE
  8
0
 10
373.507
 20
-11.7953
 11
371.634
 21
-6.02943
  0
LINE
  8
0
 10
371.634
 20
-6.02943
 11
371
 21
0
  0
LINE
  8
0
 10
371
 20
0
 11
371.634
 21
6.02943
  0
LINE
  8
0
 10
371.634
 20
6.02943
 11
373.507
 21
11.7953
  0
LINE
  8
0
 10
373.507
 20
11.7953
 11
376.538
 21
17.0458
  0
LINE
  8
0
 10
376.538
 20
17.0458
 11
380.595
 21
21.5512
  0
LINE
  8
0
 10
380.595
 20
21.5512
 11
385.5
 21
25.1147
  0
LINE
  8
0
 10
385.5
 20
25.1147
 11
391.038
 21
27.5806
  0
LINE
  8
0
 10
391.038
 20
27.5806
 11
396.969
 21
28.8411
  0
LINE
  8
0
 10
396.969
 20
28.8411
 11
403.031
 21
28.8411
  0
LINE
  8
0
 10
403.031
 20
28.8411
 11
408.961
 21
27.5806
  0
LINE
  8
0
 10
408.961
 20
27.5806
 11
414.5
 21
25.1147
  0
LINE
  8
0
 10
414.5
 20
25.1147
 11
419.405
 21
21.5512
  0
LINE
  8
0
 10
419.405
 20
21.5512
 11
423.461
 21
17.0458
  0
LINE
  8
0
 10
423.461
 20
17.0458
 11
426.493
 21
11.7953
  0
LINE
  8
0
 10
426.493
 20
11.7953
 11
428.366
 21
6.02943
  0
LINE
  8
0
 10
428.366
 20
6.02943
 11
429
 21
0
  0
LINE
  8
0
 10
429
 20
0
 11
428.366
 21
-6.02943
  0
LINE
  8
0
 10
428.366
 20
-6.02943
 11
426.493
 21
-11.7953
  0
LINE
  8
0
 10
426.493
 20
-11.7953
 11
423.461
 21
-17.0458
  0
LINE
  8
0
 10
423.461
 20
-17.0458
 11
419.405
 21
-21.5512
  0
LINE
  8
0
 10
419.405
 20
-21.5512
 11
414.5
 21
-25.1147
  0
LINE
  8
0
 10
414.5
 20
-25.1147
 11
408.961
 21
-27.5806
  0
LINE
  8
0
 10
408.961
 20
-27.5806
 11
403.031
 21
-28.8411
  0
LINE
  8
0
 10
403.031
 20
-28.8411
 11
396.969
 21
-28.8411
  0
ENDSEC
  0
SECTION
  2
OBJECTS
  0
DICTIONARY
  0
ENDSEC
  0
EOF
