  0
SECTION
  2
HEADER
  9
$ACADVER
  1
AC1014
  9
$HANDSEED
  5
FFFF
  9
$MEASUREMENT
 70
     1
  0
ENDSEC
  0
SECTION
  2
TABLES
  0
TABLE
  2
VPORT
  5
8
330
0
100
AcDbSymbolTable
 70
     4
  0
VPORT
  5
2E
330
8
100
AcDbSymbolTableRecord
100
AcDbViewportTableRecord
  2
*ACTIVE
 70
     0
 10
0.0
 20
0.0
 11
1.0
 21
1.0
 12
210.0
 22
148.5
 13
0.0
 23
0.0
 14
10.0
 24
10.0
 15
10.0
 25
10.0
 16
0.0
 26
0.0
 36
1.0
 17
0.0
 27
0.0
 37
0.0
 40
341.0
 41
1.24
 42
50.0
 43
0.0
 44
0.0
 50
0.0
 51
0.0
 71
     0
 72
   100
 73
     1
 74
     3
 75
     0
 76
     0
 77
     0
 78
     0
  0
ENDTAB
  0
TABLE
  2
LTYPE
  5
5
330
0
100
AcDbSymbolTable
 70
     1
  0
LTYPE
  5
14
330
5
100
AcDbSymbolTableRecord
100
AcDbLinetypeTableRecord
  2
BYBLOCK
 70
     0
  3

 72
    65
 73
     0
 40
0.0
  0
LTYPE
  5
15
330
5
100
AcDbSymbolTableRecord
100
AcDbLinetypeTableRecord
  2
BYLAYER
 70
     0
  3

 72
    65
 73
     0
 40
0.0
  0
LTYPE
  5
16
330
5
100
AcDbSymbolTableRecord
100
AcDbLinetypeTableRecord
  2
CONTINUOUS
 70
     0
  3
Solid line
 72
    65
 73
     0
 40
0.0
  0
ENDTAB
  0
TABLE
  2
LAYER
  5
2
100
AcDbSymbolTable
 70
2
  0
LAYER
  5
50
100
AcDbSymbolTableRecord
100
AcDbLayerTableRecord
  2
0
 70
0
  6
CONTINUOUS
  0
LAYER
  5
51
100
AcDbSymbolTableRecord
100
AcDbLayerTableRecord
  2
Layer_1
 70
0
  6
CONTINUOUS
  0
ENDTAB
  0
TABLE
  2
STYLE
  5
3
330
0
100
AcDbSymbolTable
 70
     1
  0
STYLE
  5
11
330
3
100
AcDbSymbolTableRecord
100
AcDbTextStyleTableRecord
  2
STANDARD
 70
     0
 40
0.0
 41
1.0
 50
0.0
 71
     0
 42
2.5
  3
txt
  4

  0
ENDTAB
  0
TABLE
  2
VIEW
  5
6
330
0
100
AcDbSymbolTable
 70
     0
  0
ENDTAB
  0
TABLE
  2
UCS
  5
7
330
0
100
AcDbSymbolTable
 70
     0
  0
ENDTAB
  0
TABLE
  2
APPID
  5
9
330
0
100
AcDbSymbolTable
 70
     2
  0
APPID
  5
12
330
9
100
AcDbSymbolTableRecord
100
AcDbRegAppTableRecord
  2
ACAD
 70
     0
  0
ENDTAB
  0
TABLE
  2
DIMSTYLE
  5
A
330
0
100
AcDbSymbolTable
 70
     1
  0
DIMSTYLE
105
27
330
A
100
AcDbSymbolTableRecord
100
AcDbDimStyleTableRecord
  2
ISO-25
 70
     0
  3

  4

  5

  6

  7

 40
1.0
 41
2.5
 42
0.625
 43
3.75
 44
1.25
 45
0.0
 46
0.0
 47
0.0
 48
0.0
140
2.5
141
2.5
142
0.0
143
0.03937007874016
144
1.0
145
0.0
146
1.0
147
0.625
 71
     0
 72
     0
 73
     0
 74
     0
 75
     0
 76
     0
 77
     1
 78
     8
170
     0
171
     3
172
     1
173
     0
174
     0
175
     0
176
     0
177
     0
178
     0
270
     2
271
     2
272
     2
273
     2
274
     3
340
11
275
     0
280
     0
281
     0
282
     0
283
     0
284
     8
285
     0
286
     0
287
     3
288
     0
  0
ENDTAB
  0
TABLE
  2
BLOCK_RECORD
  5
1
330
0
100
AcDbSymbolTable
 70
     1
  0
BLOCK_RECORD
  5
1F
330
1
100
AcDbSymbolTableRecord
100
AcDbBlockTableRecord
  2
*MODEL_SPACE
  0
BLOCK_RECORD
  5
1B
330
1
100
AcDbSymbolTableRecord
100
AcDbBlockTableRecord
  2
*PAPER_SPACE
  0
ENDTAB
  0
ENDSEC
  0
SECTION
  2
BLOCKS
  0
BLOCK
  5
20
330
1F
100
AcDbEntity
  8
0
100
AcDbBlockBegin
  2
*MODEL_SPACE
 70
     0
 10
0.0
 20
0.0
 30
0.0
  3
*MODEL_SPACE
  1

  0
ENDBLK
  5
21
330
1F
100
AcDbEntity
  8
0
100
AcDbBlockEnd
  0
BLOCK
  5
1C
330
1B
100
AcDbEntity
 67
     1
  8
0
100
AcDbBlockBegin
  2
*PAPER_SPACE
  1

  0
ENDBLK
  5
1D
330
1B
100
AcDbEntity
 67
     1
  8
0
100
AcDbBlockEnd
  0
ENDSEC
  0
SECTION
  2
ENTITIES
  0
SPLINE
  5
100
100
AcDbEntity
  8
Layer_1
 62
7
100
AcDbSpline
 70
0
 71
3
 72
10
 73
6
 74
4
 40
0.000000
 40
0.000000
 40
0.000000
 40
0.000000
 40
7.251141
 40
14.493995
 40
21.740233
 40
21.740233
 40
21.740233
 40
21.740233
 10
71.111818
 20
130.538916
 30
0.0
 10
73.150727
 20
129.207695
 30
0.0
 10
77.226213
 20
126.546777
 30
0.0
 10
84.708032
 20
125.455536
 30
0.0
 10
89.366368
 20
126.867312
 30
0.0
 10
91.696080
 20
127.573364
 30
0.0
 11
71.111818
 21
130.538916
 31
0.0
 11
77.456946
 21
127.029158
 31
0.0
 11
84.624898
 21
125.990218
 31
0.0
 11
91.696080
 21
127.573364
 31
0.0
  0
SPLINE
  5
101
100
AcDbEntity
  8
Layer_1
 62
7
100
AcDbSpline
 70
0
 71
3
 72
10
 73
6
 74
4
 40
0.000000
 40
0.000000
 40
0.000000
 40
0.000000
 40
7.711525
 40
15.420999
 40
23.131823
 40
23.131823
 40
23.131823
 40
23.131823
 10
91.696080
 20
127.573364
 30
0.0
 10
93.947569
 20
128.859833
 30
0.0
 10
98.449948
 20
131.432428
 30
0.0
 10
102.920550
 20
138.178299
 30
0.0
 10
103.530502
 20
143.327978
 30
0.0
 10
103.835505
 20
145.903043
 30
0.0
 11
91.696080
 21
127.573364
 31
0.0
 11
98.069940
 21
131.914045
 31
0.0
 11
102.327825
 21
138.341052
 31
0.0
 11
103.835505
 21
145.903043
 31
0.0
  0
SPLINE
  5
102
100
AcDbEntity
  8
Layer_1
 62
7
100
AcDbSpline
 70
0
 71
3
 72
10
 73
6
 74
4
 40
0.000000
 40
0.000000
 40
0.000000
 40
0.000000
 40
7.880746
 40
15.760918
 40
23.640810
 40
23.640810
 40
23.640810
 40
23.640810
 10
103.835505
 20
145.903043
 30
0.0
 10
103.528361
 20
148.536321
 30
0.0
 10
102.914097
 20
153.802686
 30
0.0
 10
98.281372
 20
160.675954
 30
0.0
 10
93.626604
 20
163.215273
 30
0.0
 10
91.299261
 20
164.484909
 30
0.0
 11
103.835505
 21
145.903043
 31
0.0
 11
102.295456
 21
153.631846
 31
0.0
 11
97.889709
 21
160.165337
 31
0.0
 11
91.299261
 21
164.484909
 31
0.0
  0
SPLINE
  5
103
100
AcDbEntity
  8
Layer_1
 62
7
100
AcDbSpline
 70
0
 71
3
 72
10
 73
6
 74
4
 40
0.000000
 40
0.000000
 40
0.000000
 40
0.000000
 40
7.879899
 40
15.760335
 40
23.639425
 40
23.639425
 40
23.639425
 40
23.639425
 10
91.299261
 20
164.484909
 30
0.0
 10
88.739909
 20
165.175777
 30
0.0
 10
83.621028
 20
166.557559
 30
0.0
 10
75.521359
 20
164.797758
 30
0.0
 10
71.438863
 20
161.414781
 30
0.0
 10
69.397790
 20
159.723437
 30
0.0
 11
91.299261
 21
164.484909
 31
0.0
 11
83.550921
 21
165.918796
 31
0.0
 11
75.850267
 21
164.245118
 31
0.0
 11
69.397790
 21
159.723437
 31
0.0
  0
SPLINE
  5
104
100
AcDbEntity
  8
Layer_1
 62
7
100
AcDbSpline
 70
0
 71
3
 72
10
 73
6
 74
4
 40
0.000000
 40
0.000000
 40
0.000000
 40
0.000000
 40
7.710076
 40
15.419273
 40
23.129704
 40
23.129704
 40
23.129704
 40
23.129704
 10
69.397790
 20
159.723437
 30
0.0
 10
67.837214
 20
157.652649
 30
0.0
 10
64.716240
 20
153.511308
 30
0.0
 10
63.285894
 20
145.546980
 30
0.0
 10
64.756442
 20
140.575269
 30
0.0
 10
65.491775
 20
138.089215
 30
0.0
 11
69.397790
 21
159.723437
 31
0.0
 11
65.257985
 21
153.219032
 31
0.0
 11
63.891899
 21
145.631836
 31
0.0
 11
65.491775
 21
138.089215
 31
0.0
  0
LINE
  5
105
100
AcDbEntity
  8
Layer_1
 62
7
100
AcDbLine
 10
71.111818
 20
130.538916
 30
0.0
 11
71.111818
 21
130.538916
 31
0.0
  0
SPLINE
  5
106
100
AcDbEntity
  8
Layer_1
 62
7
100
AcDbSpline
 70
0
 71
3
 72
10
 73
6
 74
4
 40
0.000000
 40
0.000000
 40
0.000000
 40
0.000000
 40
3.165570
 40
6.320179
 40
9.485559
 40
9.485559
 40
9.485559
 40
9.485559
 10
65.491775
 20
138.089215
 30
0.0
 10
65.952820
 20
137.137952
 30
0.0
 10
66.873313
 20
135.238718
 30
0.0
 10
68.805339
 20
132.705008
 30
0.0
 10
70.342119
 20
131.261766
 30
0.0
 10
71.111818
 20
130.538916
 30
0.0
 11
65.491775
 21
138.089215
 31
0.0
 11
66.966929
 21
135.288366
 31
0.0
 11
68.865313
 21
132.768903
 31
0.0
 11
71.111818
 21
130.538916
 31
0.0
  0
SPLINE
  5
107
100
AcDbEntity
  8
Layer_1
 62
7
100
AcDbSpline
 70
0
 71
3
 72
10
 73
6
 74
4
 40
0.000000
 40
0.000000
 40
0.000000
 40
0.000000
 40
3.205778
 40
6.421886
 40
9.632205
 40
9.632205
 40
9.632205
 40
9.632205
 10
84.797223
 20
141.037780
 30
0.0
 10
83.698317
 20
141.046369
 30
0.0
 10
81.496964
 20
141.063574
 30
0.0
 10
78.936345
 20
143.662426
 30
0.0
 10
78.948970
 20
145.865023
 30
0.0
 10
78.955276
 20
146.965330
 30
0.0
 11
84.797223
 21
141.037780
 31
0.0
 11
81.623648
 21
141.491036
 31
0.0
 11
79.365837
 21
143.781372
 31
0.0
 11
78.955276
 21
146.965330
 31
0.0
  0
SPLINE
  5
108
100
AcDbEntity
  8
Layer_1
 62
7
100
AcDbSpline
 70
0
 71
3
 72
10
 73
6
 74
4
 40
0.000000
 40
0.000000
 40
0.000000
 40
0.000000
 40
3.054660
 40
6.103783
 40
9.151292
 40
9.151292
 40
9.151292
 40
9.151292
 10
78.955276
 20
146.965330
 30
0.0
 10
79.359965
 20
147.924719
 30
0.0
 10
80.168608
 20
149.841757
 30
0.0
 10
83.256977
 20
151.322215
 30
0.0
 10
85.242086
 20
150.674126
 30
0.0
 10
86.234377
 20
150.350168
 30
0.0
 11
78.955276
 21
146.965330
 31
0.0
 11
80.482723
 21
149.610676
 31
0.0
 11
83.239418
 21
150.913666
 31
0.0
 11
86.234377
 21
150.350168
 31
0.0
  0
SPLINE
  5
109
100
AcDbEntity
  8
Layer_1
 62
7
100
AcDbSpline
 70
0
 71
3
 72
10
 73
6
 74
4
 40
0.000000
 40
0.000000
 40
0.000000
 40
0.000000
 40
2.847156
 40
5.679788
 40
8.523768
 40
8.523768
 40
8.523768
 40
8.523768
 10
86.234377
 20
150.350168
 30
0.0
 10
86.990372
 20
149.746934
 30
0.0
 10
88.498504
 20
148.543545
 30
0.0
 10
89.193920
 20
145.475665
 30
0.0
 10
88.280321
 20
143.767178
 30
0.0
 10
87.822608
 20
142.911227
 30
0.0
 11
86.234377
 21
150.350168
 31
0.0
 11
88.239837
 21
148.329170
 31
0.0
 11
88.850187
 21
145.563076
 31
0.0
 11
87.822608
 21
142.911227
 31
0.0
  0
LINE
  5
10a
100
AcDbEntity
  8
Layer_1
 62
7
100
AcDbLine
 10
84.797223
 20
141.037780
 30
0.0
 11
84.797223
 21
141.037780
 31
0.0
  0
SPLINE
  5
10b
100
AcDbEntity
  8
Layer_1
 62
7
100
AcDbSpline
 70
0
 71
3
 72
10
 73
6
 74
4
 40
0.000000
 40
0.000000
 40
0.000000
 40
0.000000
 40
1.209500
 40
2.418903
 40
3.628038
 40
3.628038
 40
3.628038
 40
3.628038
 10
87.822608
 20
142.911227
 30
0.0
 10
87.552996
 20
142.609923
 30
0.0
 10
87.013792
 20
142.007338
 30
0.0
 10
85.968926
 20
141.353572
 30
0.0
 10
85.187762
 20
141.143036
 30
0.0
 10
84.797223
 20
141.037780
 30
0.0
 11
87.822608
 21
142.911227
 31
0.0
 11
86.974408
 21
142.048993
 31
0.0
 11
85.947686
 21
141.409856
 31
0.0
 11
84.797223
 21
141.037780
 31
0.0
  0
ENDSEC
  0
SECTION
  2
OBJECTS
  0
DICTIONARY
  5
C
330
0
100
AcDbDictionary
  3
ACAD_GROUP
350
D
  3
ACAD_MLINESTYLE
350
17
  0
DICTIONARY
  5
D
330
C
100
AcDbDictionary
  0
DICTIONARY
  5
1A
330
C
100
AcDbDictionary
  0
DICTIONARY
  5
17
330
C
100
AcDbDictionary
  3
STANDARD
350
18
  0
DICTIONARY
  5
19
330
C
100
AcDbDictionary
  0
ENDSEC
  0
EOF
