  0
SECTION
  2
BLOCKS
  0
ENDSEC
  0
SECTION
  2
ENTITIES
  0
LINE
  8
0
 10
3.74762
 20
-19.6457
 11
6.18033
 21
-19.0211
  0
LINE
  8
0
 10
6.18033
 20
-19.0211
 11
8.51558
 21
-18.0965
  0
LINE
  8
0
 10
8.51558
 20
-18.0965
 11
10.7165
 21
-16.8866
  0
LINE
  8
0
 10
10.7165
 20
-16.8866
 11
12.7485
 21
-15.4103
  0
LINE
  8
0
 10
12.7485
 20
-15.4103
 11
14.5794
 21
-13.6909
  0
LINE
  8
0
 10
14.5794
 20
-13.6909
 11
16.1803
 21
-11.7557
  0
LINE
  8
0
 10
16.1803
 20
-11.7557
 11
17.5261
 21
-9.63507
  0
LINE
  8
0
 10
17.5261
 20
-9.63507
 11
18.5955
 21
-7.36249
  0
LINE
  8
0
 10
18.5955
 20
-7.36249
 11
19.3717
 21
-4.97379
  0
LINE
  8
0
 10
19.3717
 20
-4.97379
 11
19.8423
 21
-2.50665
  0
LINE
  8
0
 10
19.8423
 20
-2.50665
 11
20
 21
0
  0
LINE
  8
0
 10
20
 20
0
 11
19.8423
 21
2.50665
  0
LINE
  8
0
 10
19.8423
 20
2.50665
 11
19.3717
 21
4.97379
  0
LINE
  8
0
 10
19.3717
 20
4.97379
 11
18.5955
 21
7.36249
  0
LINE
  8
0
 10
18.5955
 20
7.36249
 11
17.5261
 21
9.63507
  0
LINE
  8
0
 10
17.5261
 20
9.63507
 11
16.1803
 21
11.7557
  0
LINE
  8
0
 10
16.1803
 20
11.7557
 11
14.5794
 21
13.6909
  0
LINE
  8
0
 10
14.5794
 20
13.6909
 11
12.7485
 21
15.4103
  0
LINE
  8
0
 10
12.7485
 20
15.4103
 11
10.7165
 21
16.8866
  0
LINE
  8
0
 10
10.7165
 20
16.8866
 11
8.51558
 21
18.0965
  0
LINE
  8
0
 10
8.51558
 20
18.0965
 11
6.18033
 21
19.0211
  0
LINE
  8
0
 10
6.18033
 20
19.0211
 11
3.74762
 21
19.6457
  0
LINE
  8
0
 10
3.74762
 20
19.6457
 11
1.2558
 21
19.9605
  0
LINE
  8
0
 10
1.2558
 20
19.9605
 11
-1.2558
 21
19.9605
  0
LINE
  8
0
 10
-1.2558
 20
19.9605
 11
-3.74762
 21
19.6457
  0
LINE
  8
0
 10
-3.74762
 20
19.6457
 11
-6.18033
 21
19.0211
  0
LINE
  8
0
 10
-6.18033
 20
19.0211
 11
-8.51558
 21
18.0965
  0
LINE
  8
0
 10
-8.51558
 20
18.0965
 11
-10.7165
 21
16.8866
  0
LINE
  8
0
 10
-10.7165
 20
16.8866
 11
-12.7485
 21
15.4103
  0
LINE
  8
0
 10
-12.7485
 20
15.4103
 11
-14.5794
 21
13.6909
  0
LINE
  8
0
 10
-14.5794
 20
13.6909
 11
-16.1803
 21
11.7557
  0
LINE
  8
0
 10
-16.1803
 20
11.7557
 11
-17.5261
 21
9.63507
  0
LINE
  8
0
 10
-17.5261
 20
9.63507
 11
-18.5955
 21
7.36249
  0
LINE
  8
0
 10
-18.5955
 20
7.36249
 11
-19.3717
 21
4.97379
  0
LINE
  8
0
 10
-19.3717
 20
4.97379
 11
-19.8423
 21
2.50665
  0
LINE
  8
0
 10
-19.8423
 20
2.50665
 11
-20
 21
0
  0
LINE
  8
0
 10
-20
 20
0
 11
-19.8423
 21
-2.50665
  0
LINE
  8
0
 10
-19.8423
 20
-2.50665
 11
-19.3717
 21
-4.97379
  0
LINE
  8
0
 10
-19.3717
 20
-4.97379
 11
-18.5955
 21
-7.36249
  0
LINE
  8
0
 10
-18.5955
 20
-7.36249
 11
-17.5261
 21
-9.63507
  0
LINE
  8
0
 10
-17.5261
 20
-9.63507
 11
-16.1803
 21
-11.7557
  0
LINE
  8
0
 10
-16.1803
 20
-11.7557
 11
-14.5794
 21
-13.6909
  0
LINE
  8
0
 10
-14.5794
 20
-13.6909
 11
-12.7485
 21
-15.4103
  0
LINE
  8
0
 10
-12.7485
 20
-15.4103
 11
-10.7165
 21
-16.8866
  0
LINE
  8
0
 10
-10.7165
 20
-16.8866
 11
-8.51558
 21
-18.0965
  0
LINE
  8
0
 10
-8.51558
 20
-18.0965
 11
-6.18033
 21
-19.0211
  0
LINE
  8
0
 10
-6.18033
 20
-19.0211
 11
-3.74762
 21
-19.6457
  0
LINE
  8
0
 10
-3.74762
 20
-19.6457
 11
-1.2558
 21
-19.9605
  0
LINE
  8
0
 10
-1.2558
 20
-19.9605
 11
1.2558
 21
-19.9605
  0
LINE
  8
0
 10
1.2558
 20
-19.9605
 11
3.74762
 21
-19.6457
  0
LINE
  8
0
 10
-0.31395
 20
-4.99013
 11
-0.936905
 21
-4.91142
  0
LINE
  8
0
 10
-0.936905
 20
-4.91142
 11
-1.54507
 21
-4.75528
  0
LINE
  8
0
 10
-1.54507
 20
-4.75528
 11
-2.12889
 21
-4.52412
  0
LINE
  8
0
 10
-2.12889
 20
-4.52412
 11
-2.67912
 21
-4.22163
  0
LINE
  8
0
 10
-2.67912
 20
-4.22163
 11
-3.18712
 21
-3.85255
  0
LINE
  8
0
 10
-3.18712
 20
-3.85255
 11
-3.64484
 21
-3.42273
  0
LINE
  8
0
 10
-3.64484
 20
-3.42273
 11
-4.04507
 21
-2.93892
  0
LINE
  8
0
 10
-4.04507
 20
-2.93892
 11
-4.38153
 21
-2.40877
  0
LINE
  8
0
 10
-4.38153
 20
-2.40877
 11
-4.64888
 21
-1.84062
  0
LINE
  8
0
 10
-4.64888
 20
-1.84062
 11
-4.84291
 21
-1.24344
  0
LINE
  8
0
 10
-4.84291
 20
-1.24344
 11
-4.96057
 21
-0.626663
  0
LINE
  8
0
 10
-4.96057
 20
-0.626663
 11
-5
 21
0
  0
LINE
  8
0
 10
-5
 20
0
 11
-4.96057
 21
0.626663
  0
LINE
  8
0
 10
-4.96057
 20
0.626663
 11
-4.84291
 21
1.24344
  0
LINE
  8
0
 10
-4.84291
 20
1.24344
 11
-4.64888
 21
1.84062
  0
LINE
  8
0
 10
-4.64888
 20
1.84062
 11
-4.38153
 21
2.40877
  0
LINE
  8
0
 10
-4.38153
 20
2.40877
 11
-4.04507
 21
2.93892
  0
LINE
  8
0
 10
-4.04507
 20
2.93892
 11
-3.64484
 21
3.42273
  0
LINE
  8
0
 10
-3.64484
 20
3.42273
 11
-3.18712
 21
3.85255
  0
LINE
  8
0
 10
-3.18712
 20
3.85255
 11
-2.67912
 21
4.22163
  0
LINE
  8
0
 10
-2.67912
 20
4.22163
 11
-2.12889
 21
4.52412
  0
LINE
  8
0
 10
-2.12889
 20
4.52412
 11
-1.54507
 21
4.75528
  0
LINE
  8
0
 10
-1.54507
 20
4.75528
 11
-0.936905
 21
4.91142
  0
LINE
  8
0
 10
-0.936905
 20
4.91142
 11
-0.31395
 21
4.99013
  0
LINE
  8
0
 10
-0.31395
 20
4.99013
 11
0.31395
 21
4.99013
  0
LINE
  8
0
 10
0.31395
 20
4.99013
 11
0.936905
 21
4.91142
  0
LINE
  8
0
 10
0.936905
 20
4.91142
 11
1.54507
 21
4.75528
  0
LINE
  8
0
 10
1.54507
 20
4.75528
 11
2.12889
 21
4.52412
  0
LINE
  8
0
 10
2.12889
 20
4.52412
 11
2.67912
 21
4.22163
  0
LINE
  8
0
 10
2.67912
 20
4.22163
 11
3.18712
 21
3.85255
  0
LINE
  8
0
 10
3.18712
 20
3.85255
 11
3.64484
 21
3.42273
  0
LINE
  8
0
 10
3.64484
 20
3.42273
 11
4.04507
 21
2.93892
  0
LINE
  8
0
 10
4.04507
 20
2.93892
 11
4.38153
 21
2.40877
  0
LINE
  8
0
 10
4.38153
 20
2.40877
 11
4.64888
 21
1.84062
  0
LINE
  8
0
 10
4.64888
 20
1.84062
 11
4.84291
 21
1.24344
  0
LINE
  8
0
 10
4.84291
 20
1.24344
 11
4.96057
 21
0.626663
  0
LINE
  8
0
 10
4.96057
 20
0.626663
 11
5
 21
0
  0
LINE
  8
0
 10
5
 20
0
 11
4.96057
 21
-0.626663
  0
LINE
  8
0
 10
4.96057
 20
-0.626663
 11
4.84291
 21
-1.24344
  0
LINE
  8
0
 10
4.84291
 20
-1.24344
 11
4.64888
 21
-1.84062
  0
LINE
  8
0
 10
4.64888
 20
-1.84062
 11
4.38153
 21
-2.40877
  0
LINE
  8
0
 10
4.38153
 20
-2.40877
 11
4.04507
 21
-2.93892
  0
LINE
  8
0
 10
4.04507
 20
-2.93892
 11
3.64484
 21
-3.42273
  0
LINE
  8
0
 10
3.64484
 20
-3.42273
 11
3.18712
 21
-3.85255
  0
LINE
  8
0
 10
3.18712
 20
-3.85255
 11
2.67912
 21
-4.22163
  0
LINE
  8
0
 10
2.67912
 20
-4.22163
 11
2.12889
 21
-4.52412
  0
LINE
  8
0
 10
2.12889
 20
-4.52412
 11
1.54507
 21
-4.75528
  0
LINE
  8
0
 10
1.54507
 20
-4.75528
 11
0.936905
 21
-4.91142
  0
LINE
  8
0
 10
0.936905
 20
-4.91142
 11
0.31395
 21
-4.99013
  0
LINE
  8
0
 10
0.31395
 20
-4.99013
 11
-0.31395
 21
-4.99013
  0
ENDSEC
  0
SECTION
  2
OBJECTS
  0
DICTIONARY
  0
ENDSEC
  0
EOF
