  0
SECTION
  2
BLOCKS
  0
ENDSEC
  0
SECTION
  2
ENTITIES
  0
LINE
  8
0
 10
17.657
 20
-19.9951
 11
17.8133
 21
-19.9803
  0
LINE
  8
0
 10
17.8133
 20
-19.9803
 11
17.9684
 21
-19.9557
  0
LINE
  8
0
 10
17.9684
 20
-19.9557
 11
18.1217
 21
-19.9214
  0
LINE
  8
0
 10
18.1217
 20
-19.9214
 11
18.2725
 21
-19.8776
  0
LINE
  8
0
 10
18.2725
 20
-19.8776
 11
18.4203
 21
-19.8244
  0
LINE
  8
0
 10
18.4203
 20
-19.8244
 11
18.5644
 21
-19.7621
  0
LINE
  8
0
 10
18.5644
 20
-19.7621
 11
18.7044
 21
-19.6908
  0
LINE
  8
0
 10
18.7044
 20
-19.6908
 11
18.8396
 21
-19.6108
  0
LINE
  8
0
 10
18.8396
 20
-19.6108
 11
18.9695
 21
-19.5225
  0
LINE
  8
0
 10
18.9695
 20
-19.5225
 11
19.0936
 21
-19.4263
  0
LINE
  8
0
 10
19.0936
 20
-19.4263
 11
19.2114
 21
-19.3224
  0
LINE
  8
0
 10
19.2114
 20
-19.3224
 11
19.3224
 21
-19.2114
  0
LINE
  8
0
 10
19.3224
 20
-19.2114
 11
19.4263
 21
-19.0936
  0
LINE
  8
0
 10
19.4263
 20
-19.0936
 11
19.5225
 21
-18.9695
  0
LINE
  8
0
 10
19.5225
 20
-18.9695
 11
19.6108
 21
-18.8396
  0
LINE
  8
0
 10
19.6108
 20
-18.8396
 11
19.6908
 21
-18.7044
  0
LINE
  8
0
 10
19.6908
 20
-18.7044
 11
19.7621
 21
-18.5644
  0
LINE
  8
0
 10
19.7621
 20
-18.5644
 11
19.8244
 21
-18.4203
  0
LINE
  8
0
 10
19.8244
 20
-18.4203
 11
19.8776
 21
-18.2725
  0
LINE
  8
0
 10
19.8776
 20
-18.2725
 11
19.9214
 21
-18.1217
  0
LINE
  8
0
 10
19.9214
 20
-18.1217
 11
19.9557
 21
-17.9684
  0
LINE
  8
0
 10
19.9557
 20
-17.9684
 11
19.9803
 21
-17.8133
  0
LINE
  8
0
 10
19.9803
 20
-17.8133
 11
19.9951
 21
-17.657
  0
LINE
  8
0
 10
19.9951
 20
-17.657
 11
20
 21
-17.5
  0
LINE
  8
0
 10
20
 20
-17.5
 11
20
 21
-10
  0
LINE
  8
0
 10
20
 20
-10
 11
30
 21
-10
  0
LINE
  8
0
 10
30
 20
-10
 11
30.157
 21
-9.99506
  0
LINE
  8
0
 10
30.157
 20
-9.99506
 11
30.3133
 21
-9.98029
  0
LINE
  8
0
 10
30.3133
 20
-9.98029
 11
30.4684
 21
-9.9557
  0
LINE
  8
0
 10
30.4684
 20
-9.9557
 11
30.6217
 21
-9.92145
  0
LINE
  8
0
 10
30.6217
 20
-9.92145
 11
30.7725
 21
-9.87764
  0
LINE
  8
0
 10
30.7725
 20
-9.87764
 11
30.9203
 21
-9.82443
  0
LINE
  8
0
 10
30.9203
 20
-9.82443
 11
31.0644
 21
-9.76205
  0
LINE
  8
0
 10
31.0644
 20
-9.76205
 11
31.2044
 21
-9.69077
  0
LINE
  8
0
 10
31.2044
 20
-9.69077
 11
31.3396
 21
-9.61081
  0
LINE
  8
0
 10
31.3396
 20
-9.61081
 11
31.4695
 21
-9.52254
  0
LINE
  8
0
 10
31.4695
 20
-9.52254
 11
31.5936
 21
-9.42627
  0
LINE
  8
0
 10
31.5936
 20
-9.42627
 11
31.7114
 21
-9.32242
  0
LINE
  8
0
 10
31.7114
 20
-9.32242
 11
31.8224
 21
-9.21136
  0
LINE
  8
0
 10
31.8224
 20
-9.21136
 11
31.9263
 21
-9.09355
  0
LINE
  8
0
 10
31.9263
 20
-9.09355
 11
32.0225
 21
-8.96945
  0
LINE
  8
0
 10
32.0225
 20
-8.96945
 11
32.1108
 21
-8.83955
  0
LINE
  8
0
 10
32.1108
 20
-8.83955
 11
32.1908
 21
-8.70438
  0
LINE
  8
0
 10
32.1908
 20
-8.70438
 11
32.2621
 21
-8.56444
  0
LINE
  8
0
 10
32.2621
 20
-8.56444
 11
32.3244
 21
-8.4203
  0
LINE
  8
0
 10
32.3244
 20
-8.4203
 11
32.3776
 21
-8.27254
  0
LINE
  8
0
 10
32.3776
 20
-8.27254
 11
32.4214
 21
-8.12172
  0
LINE
  8
0
 10
32.4214
 20
-8.12172
 11
32.4557
 21
-7.96844
  0
LINE
  8
0
 10
32.4557
 20
-7.96844
 11
32.4803
 21
-7.81332
  0
LINE
  8
0
 10
32.4803
 20
-7.81332
 11
32.4951
 21
-7.65697
  0
LINE
  8
0
 10
32.4951
 20
-7.65697
 11
32.5
 21
-7.5
  0
LINE
  8
0
 10
32.5
 20
-7.5
 11
32.5
 21
7.5
  0
LINE
  8
0
 10
32.5
 20
7.5
 11
32.4951
 21
7.65697
  0
LINE
  8
0
 10
32.4951
 20
7.65697
 11
32.4803
 21
7.81332
  0
LINE
  8
0
 10
32.4803
 20
7.81332
 11
32.4557
 21
7.96844
  0
LINE
  8
0
 10
32.4557
 20
7.96844
 11
32.4214
 21
8.12172
  0
LINE
  8
0
 10
32.4214
 20
8.12172
 11
32.3776
 21
8.27254
  0
LINE
  8
0
 10
32.3776
 20
8.27254
 11
32.3244
 21
8.4203
  0
LINE
  8
0
 10
32.3244
 20
8.4203
 11
32.2621
 21
8.56444
  0
LINE
  8
0
 10
32.2621
 20
8.56444
 11
32.1908
 21
8.70438
  0
LINE
  8
0
 10
32.1908
 20
8.70438
 11
32.1108
 21
8.83955
  0
LINE
  8
0
 10
32.1108
 20
8.83955
 11
32.0225
 21
8.96945
  0
LINE
  8
0
 10
32.0225
 20
8.96945
 11
31.9263
 21
9.09355
  0
LINE
  8
0
 10
31.9263
 20
9.09355
 11
31.8224
 21
9.21136
  0
LINE
  8
0
 10
31.8224
 20
9.21136
 11
31.7114
 21
9.32242
  0
LINE
  8
0
 10
31.7114
 20
9.32242
 11
31.5936
 21
9.42627
  0
LINE
  8
0
 10
31.5936
 20
9.42627
 11
31.4695
 21
9.52254
  0
LINE
  8
0
 10
31.4695
 20
9.52254
 11
31.3396
 21
9.61081
  0
LINE
  8
0
 10
31.3396
 20
9.61081
 11
31.2044
 21
9.69077
  0
LINE
  8
0
 10
31.2044
 20
9.69077
 11
31.0644
 21
9.76205
  0
LINE
  8
0
 10
31.0644
 20
9.76205
 11
30.9203
 21
9.82443
  0
LINE
  8
0
 10
30.9203
 20
9.82443
 11
30.7725
 21
9.87764
  0
LINE
  8
0
 10
30.7725
 20
9.87764
 11
30.6217
 21
9.92145
  0
LINE
  8
0
 10
30.6217
 20
9.92145
 11
30.4684
 21
9.9557
  0
LINE
  8
0
 10
30.4684
 20
9.9557
 11
30.3133
 21
9.98029
  0
LINE
  8
0
 10
30.3133
 20
9.98029
 11
30.157
 21
9.99506
  0
LINE
  8
0
 10
30.157
 20
9.99506
 11
30
 21
10
  0
LINE
  8
0
 10
30
 20
10
 11
20
 21
10
  0
LINE
  8
0
 10
20
 20
10
 11
20
 21
17.5
  0
LINE
  8
0
 10
20
 20
17.5
 11
19.9951
 21
17.657
  0
LINE
  8
0
 10
19.9951
 20
17.657
 11
19.9803
 21
17.8133
  0
LINE
  8
0
 10
19.9803
 20
17.8133
 11
19.9557
 21
17.9684
  0
LINE
  8
0
 10
19.9557
 20
17.9684
 11
19.9214
 21
18.1217
  0
LINE
  8
0
 10
19.9214
 20
18.1217
 11
19.8776
 21
18.2725
  0
LINE
  8
0
 10
19.8776
 20
18.2725
 11
19.8244
 21
18.4203
  0
LINE
  8
0
 10
19.8244
 20
18.4203
 11
19.7621
 21
18.5644
  0
LINE
  8
0
 10
19.7621
 20
18.5644
 11
19.6908
 21
18.7044
  0
LINE
  8
0
 10
19.6908
 20
18.7044
 11
19.6108
 21
18.8396
  0
LINE
  8
0
 10
19.6108
 20
18.8396
 11
19.5225
 21
18.9695
  0
LINE
  8
0
 10
19.5225
 20
18.9695
 11
19.4263
 21
19.0936
  0
LINE
  8
0
 10
19.4263
 20
19.0936
 11
19.3224
 21
19.2114
  0
LINE
  8
0
 10
19.3224
 20
19.2114
 11
19.2114
 21
19.3224
  0
LINE
  8
0
 10
19.2114
 20
19.3224
 11
19.0936
 21
19.4263
  0
LINE
  8
0
 10
19.0936
 20
19.4263
 11
18.9695
 21
19.5225
  0
LINE
  8
0
 10
18.9695
 20
19.5225
 11
18.8396
 21
19.6108
  0
LINE
  8
0
 10
18.8396
 20
19.6108
 11
18.7044
 21
19.6908
  0
LINE
  8
0
 10
18.7044
 20
19.6908
 11
18.5644
 21
19.7621
  0
LINE
  8
0
 10
18.5644
 20
19.7621
 11
18.4203
 21
19.8244
  0
LINE
  8
0
 10
18.4203
 20
19.8244
 11
18.2725
 21
19.8776
  0
LINE
  8
0
 10
18.2725
 20
19.8776
 11
18.1217
 21
19.9214
  0
LINE
  8
0
 10
18.1217
 20
19.9214
 11
17.9684
 21
19.9557
  0
LINE
  8
0
 10
17.9684
 20
19.9557
 11
17.8133
 21
19.9803
  0
LINE
  8
0
 10
17.8133
 20
19.9803
 11
17.657
 21
19.9951
  0
LINE
  8
0
 10
17.657
 20
19.9951
 11
17.5
 21
20
  0
LINE
  8
0
 10
17.5
 20
20
 11
-17.5
 21
20
  0
LINE
  8
0
 10
-17.5
 20
20
 11
-17.657
 21
19.9951
  0
LINE
  8
0
 10
-17.657
 20
19.9951
 11
-17.8133
 21
19.9803
  0
LINE
  8
0
 10
-17.8133
 20
19.9803
 11
-17.9684
 21
19.9557
  0
LINE
  8
0
 10
-17.9684
 20
19.9557
 11
-18.1217
 21
19.9214
  0
LINE
  8
0
 10
-18.1217
 20
19.9214
 11
-18.2725
 21
19.8776
  0
LINE
  8
0
 10
-18.2725
 20
19.8776
 11
-18.4203
 21
19.8244
  0
LINE
  8
0
 10
-18.4203
 20
19.8244
 11
-18.5644
 21
19.7621
  0
LINE
  8
0
 10
-18.5644
 20
19.7621
 11
-18.7044
 21
19.6908
  0
LINE
  8
0
 10
-18.7044
 20
19.6908
 11
-18.8396
 21
19.6108
  0
LINE
  8
0
 10
-18.8396
 20
19.6108
 11
-18.9695
 21
19.5225
  0
LINE
  8
0
 10
-18.9695
 20
19.5225
 11
-19.0936
 21
19.4263
  0
LINE
  8
0
 10
-19.0936
 20
19.4263
 11
-19.2114
 21
19.3224
  0
LINE
  8
0
 10
-19.2114
 20
19.3224
 11
-19.3224
 21
19.2114
  0
LINE
  8
0
 10
-19.3224
 20
19.2114
 11
-19.4263
 21
19.0936
  0
LINE
  8
0
 10
-19.4263
 20
19.0936
 11
-19.5225
 21
18.9695
  0
LINE
  8
0
 10
-19.5225
 20
18.9695
 11
-19.6108
 21
18.8396
  0
LINE
  8
0
 10
-19.6108
 20
18.8396
 11
-19.6908
 21
18.7044
  0
LINE
  8
0
 10
-19.6908
 20
18.7044
 11
-19.7621
 21
18.5644
  0
LINE
  8
0
 10
-19.7621
 20
18.5644
 11
-19.8244
 21
18.4203
  0
LINE
  8
0
 10
-19.8244
 20
18.4203
 11
-19.8776
 21
18.2725
  0
LINE
  8
0
 10
-19.8776
 20
18.2725
 11
-19.9214
 21
18.1217
  0
LINE
  8
0
 10
-19.9214
 20
18.1217
 11
-19.9557
 21
17.9684
  0
LINE
  8
0
 10
-19.9557
 20
17.9684
 11
-19.9803
 21
17.8133
  0
LINE
  8
0
 10
-19.9803
 20
17.8133
 11
-19.9951
 21
17.657
  0
LINE
  8
0
 10
-19.9951
 20
17.657
 11
-20
 21
17.5
  0
LINE
  8
0
 10
-20
 20
17.5
 11
-20
 21
-17.5
  0
LINE
  8
0
 10
-20
 20
-17.5
 11
-19.9951
 21
-17.657
  0
LINE
  8
0
 10
-19.9951
 20
-17.657
 11
-19.9803
 21
-17.8133
  0
LINE
  8
0
 10
-19.9803
 20
-17.8133
 11
-19.9557
 21
-17.9684
  0
LINE
  8
0
 10
-19.9557
 20
-17.9684
 11
-19.9214
 21
-18.1217
  0
LINE
  8
0
 10
-19.9214
 20
-18.1217
 11
-19.8776
 21
-18.2725
  0
LINE
  8
0
 10
-19.8776
 20
-18.2725
 11
-19.8244
 21
-18.4203
  0
LINE
  8
0
 10
-19.8244
 20
-18.4203
 11
-19.7621
 21
-18.5644
  0
LINE
  8
0
 10
-19.7621
 20
-18.5644
 11
-19.6908
 21
-18.7044
  0
LINE
  8
0
 10
-19.6908
 20
-18.7044
 11
-19.6108
 21
-18.8396
  0
LINE
  8
0
 10
-19.6108
 20
-18.8396
 11
-19.5225
 21
-18.9695
  0
LINE
  8
0
 10
-19.5225
 20
-18.9695
 11
-19.4263
 21
-19.0936
  0
LINE
  8
0
 10
-19.4263
 20
-19.0936
 11
-19.3224
 21
-19.2114
  0
LINE
  8
0
 10
-19.3224
 20
-19.2114
 11
-19.2114
 21
-19.3224
  0
LINE
  8
0
 10
-19.2114
 20
-19.3224
 11
-19.0936
 21
-19.4263
  0
LINE
  8
0
 10
-19.0936
 20
-19.4263
 11
-18.9695
 21
-19.5225
  0
LINE
  8
0
 10
-18.9695
 20
-19.5225
 11
-18.8396
 21
-19.6108
  0
LINE
  8
0
 10
-18.8396
 20
-19.6108
 11
-18.7044
 21
-19.6908
  0
LINE
  8
0
 10
-18.7044
 20
-19.6908
 11
-18.5644
 21
-19.7621
  0
LINE
  8
0
 10
-18.5644
 20
-19.7621
 11
-18.4203
 21
-19.8244
  0
LINE
  8
0
 10
-18.4203
 20
-19.8244
 11
-18.2725
 21
-19.8776
  0
LINE
  8
0
 10
-18.2725
 20
-19.8776
 11
-18.1217
 21
-19.9214
  0
LINE
  8
0
 10
-18.1217
 20
-19.9214
 11
-17.9684
 21
-19.9557
  0
LINE
  8
0
 10
-17.9684
 20
-19.9557
 11
-17.8133
 21
-19.9803
  0
LINE
  8
0
 10
-17.8133
 20
-19.9803
 11
-17.657
 21
-19.9951
  0
LINE
  8
0
 10
-17.657
 20
-19.9951
 11
-17.5
 21
-20
  0
LINE
  8
0
 10
-17.5
 20
-20
 11
17.5
 21
-20
  0
LINE
  8
0
 10
17.5
 20
-20
 11
17.657
 21
-19.9951
  0
LINE
  8
0
 10
-12.5
 20
-15
 11
-12.657
 21
-14.9951
  0
LINE
  8
0
 10
-12.657
 20
-14.9951
 11
-12.8133
 21
-14.9803
  0
LINE
  8
0
 10
-12.8133
 20
-14.9803
 11
-12.9684
 21
-14.9557
  0
LINE
  8
0
 10
-12.9684
 20
-14.9557
 11
-13.1217
 21
-14.9214
  0
LINE
  8
0
 10
-13.1217
 20
-14.9214
 11
-13.2725
 21
-14.8776
  0
LINE
  8
0
 10
-13.2725
 20
-14.8776
 11
-13.4203
 21
-14.8244
  0
LINE
  8
0
 10
-13.4203
 20
-14.8244
 11
-13.5644
 21
-14.7621
  0
LINE
  8
0
 10
-13.5644
 20
-14.7621
 11
-13.7044
 21
-14.6908
  0
LINE
  8
0
 10
-13.7044
 20
-14.6908
 11
-13.8396
 21
-14.6108
  0
LINE
  8
0
 10
-13.8396
 20
-14.6108
 11
-13.9695
 21
-14.5225
  0
LINE
  8
0
 10
-13.9695
 20
-14.5225
 11
-14.0936
 21
-14.4263
  0
LINE
  8
0
 10
-14.0936
 20
-14.4263
 11
-14.2114
 21
-14.3224
  0
LINE
  8
0
 10
-14.2114
 20
-14.3224
 11
-14.3224
 21
-14.2114
  0
LINE
  8
0
 10
-14.3224
 20
-14.2114
 11
-14.4263
 21
-14.0936
  0
LINE
  8
0
 10
-14.4263
 20
-14.0936
 11
-14.5225
 21
-13.9695
  0
LINE
  8
0
 10
-14.5225
 20
-13.9695
 11
-14.6108
 21
-13.8396
  0
LINE
  8
0
 10
-14.6108
 20
-13.8396
 11
-14.6908
 21
-13.7044
  0
LINE
  8
0
 10
-14.6908
 20
-13.7044
 11
-14.7621
 21
-13.5644
  0
LINE
  8
0
 10
-14.7621
 20
-13.5644
 11
-14.8244
 21
-13.4203
  0
LINE
  8
0
 10
-14.8244
 20
-13.4203
 11
-14.8776
 21
-13.2725
  0
LINE
  8
0
 10
-14.8776
 20
-13.2725
 11
-14.9214
 21
-13.1217
  0
LINE
  8
0
 10
-14.9214
 20
-13.1217
 11
-14.9557
 21
-12.9684
  0
LINE
  8
0
 10
-14.9557
 20
-12.9684
 11
-14.9803
 21
-12.8133
  0
LINE
  8
0
 10
-14.9803
 20
-12.8133
 11
-14.9951
 21
-12.657
  0
LINE
  8
0
 10
-14.9951
 20
-12.657
 11
-15
 21
-12.5
  0
LINE
  8
0
 10
-15
 20
-12.5
 11
-14.9951
 21
-12.343
  0
LINE
  8
0
 10
-14.9951
 20
-12.343
 11
-14.9803
 21
-12.1867
  0
LINE
  8
0
 10
-14.9803
 20
-12.1867
 11
-14.9557
 21
-12.0316
  0
LINE
  8
0
 10
-14.9557
 20
-12.0316
 11
-14.9214
 21
-11.8783
  0
LINE
  8
0
 10
-14.9214
 20
-11.8783
 11
-14.8776
 21
-11.7275
  0
LINE
  8
0
 10
-14.8776
 20
-11.7275
 11
-14.8244
 21
-11.5797
  0
LINE
  8
0
 10
-14.8244
 20
-11.5797
 11
-14.7621
 21
-11.4356
  0
LINE
  8
0
 10
-14.7621
 20
-11.4356
 11
-14.6908
 21
-11.2956
  0
LINE
  8
0
 10
-14.6908
 20
-11.2956
 11
-14.6108
 21
-11.1604
  0
LINE
  8
0
 10
-14.6108
 20
-11.1604
 11
-14.5225
 21
-11.0305
  0
LINE
  8
0
 10
-14.5225
 20
-11.0305
 11
-14.4263
 21
-10.9064
  0
LINE
  8
0
 10
-14.4263
 20
-10.9064
 11
-14.3224
 21
-10.7886
  0
LINE
  8
0
 10
-14.3224
 20
-10.7886
 11
-14.2114
 21
-10.6776
  0
LINE
  8
0
 10
-14.2114
 20
-10.6776
 11
-14.0936
 21
-10.5737
  0
LINE
  8
0
 10
-14.0936
 20
-10.5737
 11
-13.9695
 21
-10.4775
  0
LINE
  8
0
 10
-13.9695
 20
-10.4775
 11
-13.8396
 21
-10.3892
  0
LINE
  8
0
 10
-13.8396
 20
-10.3892
 11
-13.7044
 21
-10.3092
  0
LINE
  8
0
 10
-13.7044
 20
-10.3092
 11
-13.5644
 21
-10.2379
  0
LINE
  8
0
 10
-13.5644
 20
-10.2379
 11
-13.4203
 21
-10.1756
  0
LINE
  8
0
 10
-13.4203
 20
-10.1756
 11
-13.2725
 21
-10.1224
  0
LINE
  8
0
 10
-13.2725
 20
-10.1224
 11
-13.1217
 21
-10.0786
  0
LINE
  8
0
 10
-13.1217
 20
-10.0786
 11
-12.9684
 21
-10.0443
  0
LINE
  8
0
 10
-12.9684
 20
-10.0443
 11
-12.8133
 21
-10.0197
  0
LINE
  8
0
 10
-12.8133
 20
-10.0197
 11
-12.657
 21
-10.0049
  0
LINE
  8
0
 10
-12.657
 20
-10.0049
 11
-12.5
 21
-10
  0
LINE
  8
0
 10
-12.5
 20
-10
 11
1.38048
 21
-10
  0
LINE
  8
0
 10
1.38048
 20
-10
 11
1.87381
 21
-9.92108
  0
LINE
  8
0
 10
1.87381
 20
-9.92108
 11
2.48689
 21
-9.78267
  0
LINE
  8
0
 10
2.48689
 20
-9.78267
 11
3.09016
 21
-9.60565
  0
LINE
  8
0
 10
3.09016
 20
-9.60565
 11
3.68124
 21
-9.39073
  0
LINE
  8
0
 10
3.68124
 20
-9.39073
 11
4.25778
 21
-9.13873
  0
LINE
  8
0
 10
4.25778
 20
-9.13873
 11
4.81754
 21
-8.85068
  0
LINE
  8
0
 10
4.81754
 20
-8.85068
 11
5.35826
 21
-8.52769
  0
LINE
  8
0
 10
5.35826
 20
-8.52769
 11
5.87784
 21
-8.17105
  0
LINE
  8
0
 10
5.87784
 20
-8.17105
 11
6.37424
 21
-7.78217
  0
LINE
  8
0
 10
6.37424
 20
-7.78217
 11
6.84546
 21
-7.36256
  0
LINE
  8
0
 10
6.84546
 20
-7.36256
 11
7.28967
 21
-6.91391
  0
LINE
  8
0
 10
7.28967
 20
-6.91391
 11
7.70512
 21
-6.43797
  0
LINE
  8
0
 10
7.70512
 20
-6.43797
 11
8.09016
 21
-5.93661
  0
LINE
  8
0
 10
8.09016
 20
-5.93661
 11
8.44327
 21
-5.41183
  0
LINE
  8
0
 10
8.44327
 20
-5.41183
 11
8.76306
 21
-4.86571
  0
LINE
  8
0
 10
8.76306
 20
-4.86571
 11
9.04826
 21
-4.30035
  0
LINE
  8
0
 10
9.04826
 20
-4.30035
 11
9.29776
 21
-3.71805
  0
LINE
  8
0
 10
9.29776
 20
-3.71805
 11
9.51056
 21
-3.12106
  0
LINE
  8
0
 10
9.51056
 20
-3.12106
 11
9.68582
 21
-2.51175
  0
LINE
  8
0
 10
9.68582
 20
-2.51175
 11
9.82286
 21
-1.89255
  0
LINE
  8
0
 10
9.82286
 20
-1.89255
 11
9.92114
 21
-1.26585
  0
LINE
  8
0
 10
9.92114
 20
-1.26585
 11
9.98026
 21
-0.634171
  0
LINE
  8
0
 10
9.98026
 20
-0.634171
 11
10
 21
0
  0
LINE
  8
0
 10
10
 20
0
 11
9.98026
 21
0.634171
  0
LINE
  8
0
 10
9.98026
 20
0.634171
 11
9.92114
 21
1.26585
  0
LINE
  8
0
 10
9.92114
 20
1.26585
 11
9.82286
 21
1.89255
  0
LINE
  8
0
 10
9.82286
 20
1.89255
 11
9.68582
 21
2.51175
  0
LINE
  8
0
 10
9.68582
 20
2.51175
 11
9.51056
 21
3.12106
  0
LINE
  8
0
 10
9.51056
 20
3.12106
 11
9.29776
 21
3.71805
  0
LINE
  8
0
 10
9.29776
 20
3.71805
 11
9.04826
 21
4.30035
  0
LINE
  8
0
 10
9.04826
 20
4.30035
 11
8.76306
 21
4.86571
  0
LINE
  8
0
 10
8.76306
 20
4.86571
 11
8.44327
 21
5.41183
  0
LINE
  8
0
 10
8.44327
 20
5.41183
 11
8.09016
 21
5.93661
  0
LINE
  8
0
 10
8.09016
 20
5.93661
 11
7.70512
 21
6.43797
  0
LINE
  8
0
 10
7.70512
 20
6.43797
 11
7.28967
 21
6.91391
  0
LINE
  8
0
 10
7.28967
 20
6.91391
 11
6.84546
 21
7.36256
  0
LINE
  8
0
 10
6.84546
 20
7.36256
 11
6.37424
 21
7.78217
  0
LINE
  8
0
 10
6.37424
 20
7.78217
 11
5.87784
 21
8.17105
  0
LINE
  8
0
 10
5.87784
 20
8.17105
 11
5.35826
 21
8.52769
  0
LINE
  8
0
 10
5.35826
 20
8.52769
 11
4.81754
 21
8.85068
  0
LINE
  8
0
 10
4.81754
 20
8.85068
 11
4.25778
 21
9.13873
  0
LINE
  8
0
 10
4.25778
 20
9.13873
 11
3.68124
 21
9.39073
  0
LINE
  8
0
 10
3.68124
 20
9.39073
 11
3.09016
 21
9.60565
  0
LINE
  8
0
 10
3.09016
 20
9.60565
 11
2.48689
 21
9.78267
  0
LINE
  8
0
 10
2.48689
 20
9.78267
 11
1.87381
 21
9.92108
  0
LINE
  8
0
 10
1.87381
 20
9.92108
 11
1.38048
 21
10
  0
LINE
  8
0
 10
1.38048
 20
10
 11
-12.5
 21
10
  0
LINE
  8
0
 10
-12.5
 20
10
 11
-12.657
 21
10.0049
  0
LINE
  8
0
 10
-12.657
 20
10.0049
 11
-12.8133
 21
10.0197
  0
LINE
  8
0
 10
-12.8133
 20
10.0197
 11
-12.9684
 21
10.0443
  0
LINE
  8
0
 10
-12.9684
 20
10.0443
 11
-13.1217
 21
10.0786
  0
LINE
  8
0
 10
-13.1217
 20
10.0786
 11
-13.2725
 21
10.1224
  0
LINE
  8
0
 10
-13.2725
 20
10.1224
 11
-13.4203
 21
10.1756
  0
LINE
  8
0
 10
-13.4203
 20
10.1756
 11
-13.5644
 21
10.2379
  0
LINE
  8
0
 10
-13.5644
 20
10.2379
 11
-13.7044
 21
10.3092
  0
LINE
  8
0
 10
-13.7044
 20
10.3092
 11
-13.8396
 21
10.3892
  0
LINE
  8
0
 10
-13.8396
 20
10.3892
 11
-13.9695
 21
10.4775
  0
LINE
  8
0
 10
-13.9695
 20
10.4775
 11
-14.0936
 21
10.5737
  0
LINE
  8
0
 10
-14.0936
 20
10.5737
 11
-14.2114
 21
10.6776
  0
LINE
  8
0
 10
-14.2114
 20
10.6776
 11
-14.3224
 21
10.7886
  0
LINE
  8
0
 10
-14.3224
 20
10.7886
 11
-14.4263
 21
10.9064
  0
LINE
  8
0
 10
-14.4263
 20
10.9064
 11
-14.5225
 21
11.0305
  0
LINE
  8
0
 10
-14.5225
 20
11.0305
 11
-14.6108
 21
11.1604
  0
LINE
  8
0
 10
-14.6108
 20
11.1604
 11
-14.6908
 21
11.2956
  0
LINE
  8
0
 10
-14.6908
 20
11.2956
 11
-14.7621
 21
11.4356
  0
LINE
  8
0
 10
-14.7621
 20
11.4356
 11
-14.8244
 21
11.5797
  0
LINE
  8
0
 10
-14.8244
 20
11.5797
 11
-14.8776
 21
11.7275
  0
LINE
  8
0
 10
-14.8776
 20
11.7275
 11
-14.9214
 21
11.8783
  0
LINE
  8
0
 10
-14.9214
 20
11.8783
 11
-14.9557
 21
12.0316
  0
LINE
  8
0
 10
-14.9557
 20
12.0316
 11
-14.9803
 21
12.1867
  0
LINE
  8
0
 10
-14.9803
 20
12.1867
 11
-14.9951
 21
12.343
  0
LINE
  8
0
 10
-14.9951
 20
12.343
 11
-15
 21
12.5
  0
LINE
  8
0
 10
-15
 20
12.5
 11
-14.9951
 21
12.657
  0
LINE
  8
0
 10
-14.9951
 20
12.657
 11
-14.9803
 21
12.8133
  0
LINE
  8
0
 10
-14.9803
 20
12.8133
 11
-14.9557
 21
12.9684
  0
LINE
  8
0
 10
-14.9557
 20
12.9684
 11
-14.9214
 21
13.1217
  0
LINE
  8
0
 10
-14.9214
 20
13.1217
 11
-14.8776
 21
13.2725
  0
LINE
  8
0
 10
-14.8776
 20
13.2725
 11
-14.8244
 21
13.4203
  0
LINE
  8
0
 10
-14.8244
 20
13.4203
 11
-14.7621
 21
13.5644
  0
LINE
  8
0
 10
-14.7621
 20
13.5644
 11
-14.6908
 21
13.7044
  0
LINE
  8
0
 10
-14.6908
 20
13.7044
 11
-14.6108
 21
13.8396
  0
LINE
  8
0
 10
-14.6108
 20
13.8396
 11
-14.5225
 21
13.9695
  0
LINE
  8
0
 10
-14.5225
 20
13.9695
 11
-14.4263
 21
14.0936
  0
LINE
  8
0
 10
-14.4263
 20
14.0936
 11
-14.3224
 21
14.2114
  0
LINE
  8
0
 10
-14.3224
 20
14.2114
 11
-14.2114
 21
14.3224
  0
LINE
  8
0
 10
-14.2114
 20
14.3224
 11
-14.0936
 21
14.4263
  0
LINE
  8
0
 10
-14.0936
 20
14.4263
 11
-13.9695
 21
14.5225
  0
LINE
  8
0
 10
-13.9695
 20
14.5225
 11
-13.8396
 21
14.6108
  0
LINE
  8
0
 10
-13.8396
 20
14.6108
 11
-13.7044
 21
14.6908
  0
LINE
  8
0
 10
-13.7044
 20
14.6908
 11
-13.5644
 21
14.7621
  0
LINE
  8
0
 10
-13.5644
 20
14.7621
 11
-13.4203
 21
14.8244
  0
LINE
  8
0
 10
-13.4203
 20
14.8244
 11
-13.2725
 21
14.8776
  0
LINE
  8
0
 10
-13.2725
 20
14.8776
 11
-13.1217
 21
14.9214
  0
LINE
  8
0
 10
-13.1217
 20
14.9214
 11
-12.9684
 21
14.9557
  0
LINE
  8
0
 10
-12.9684
 20
14.9557
 11
-12.8133
 21
14.9803
  0
LINE
  8
0
 10
-12.8133
 20
14.9803
 11
-12.657
 21
14.9951
  0
LINE
  8
0
 10
-12.657
 20
14.9951
 11
-12.5
 21
15
  0
LINE
  8
0
 10
-12.5
 20
15
 11
12.5
 21
15
  0
LINE
  8
0
 10
12.5
 20
15
 11
12.657
 21
14.9951
  0
LINE
  8
0
 10
12.657
 20
14.9951
 11
12.8133
 21
14.9803
  0
LINE
  8
0
 10
12.8133
 20
14.9803
 11
12.9684
 21
14.9557
  0
LINE
  8
0
 10
12.9684
 20
14.9557
 11
13.1217
 21
14.9214
  0
LINE
  8
0
 10
13.1217
 20
14.9214
 11
13.2725
 21
14.8776
  0
LINE
  8
0
 10
13.2725
 20
14.8776
 11
13.4203
 21
14.8244
  0
LINE
  8
0
 10
13.4203
 20
14.8244
 11
13.5644
 21
14.7621
  0
LINE
  8
0
 10
13.5644
 20
14.7621
 11
13.7044
 21
14.6908
  0
LINE
  8
0
 10
13.7044
 20
14.6908
 11
13.8396
 21
14.6108
  0
LINE
  8
0
 10
13.8396
 20
14.6108
 11
13.9695
 21
14.5225
  0
LINE
  8
0
 10
13.9695
 20
14.5225
 11
14.0936
 21
14.4263
  0
LINE
  8
0
 10
14.0936
 20
14.4263
 11
14.2114
 21
14.3224
  0
LINE
  8
0
 10
14.2114
 20
14.3224
 11
14.3224
 21
14.2114
  0
LINE
  8
0
 10
14.3224
 20
14.2114
 11
14.4263
 21
14.0936
  0
LINE
  8
0
 10
14.4263
 20
14.0936
 11
14.5225
 21
13.9695
  0
LINE
  8
0
 10
14.5225
 20
13.9695
 11
14.6108
 21
13.8396
  0
LINE
  8
0
 10
14.6108
 20
13.8396
 11
14.6908
 21
13.7044
  0
LINE
  8
0
 10
14.6908
 20
13.7044
 11
14.7621
 21
13.5644
  0
LINE
  8
0
 10
14.7621
 20
13.5644
 11
14.8244
 21
13.4203
  0
LINE
  8
0
 10
14.8244
 20
13.4203
 11
14.8776
 21
13.2725
  0
LINE
  8
0
 10
14.8776
 20
13.2725
 11
14.9214
 21
13.1217
  0
LINE
  8
0
 10
14.9214
 20
13.1217
 11
14.9557
 21
12.9684
  0
LINE
  8
0
 10
14.9557
 20
12.9684
 11
14.9803
 21
12.8133
  0
LINE
  8
0
 10
14.9803
 20
12.8133
 11
14.9951
 21
12.657
  0
LINE
  8
0
 10
14.9951
 20
12.657
 11
15
 21
12.5
  0
LINE
  8
0
 10
15
 20
12.5
 11
15
 21
-12.5
  0
LINE
  8
0
 10
15
 20
-12.5
 11
14.9951
 21
-12.657
  0
LINE
  8
0
 10
14.9951
 20
-12.657
 11
14.9803
 21
-12.8133
  0
LINE
  8
0
 10
14.9803
 20
-12.8133
 11
14.9557
 21
-12.9684
  0
LINE
  8
0
 10
14.9557
 20
-12.9684
 11
14.9214
 21
-13.1217
  0
LINE
  8
0
 10
14.9214
 20
-13.1217
 11
14.8776
 21
-13.2725
  0
LINE
  8
0
 10
14.8776
 20
-13.2725
 11
14.8244
 21
-13.4203
  0
LINE
  8
0
 10
14.8244
 20
-13.4203
 11
14.7621
 21
-13.5644
  0
LINE
  8
0
 10
14.7621
 20
-13.5644
 11
14.6908
 21
-13.7044
  0
LINE
  8
0
 10
14.6908
 20
-13.7044
 11
14.6108
 21
-13.8396
  0
LINE
  8
0
 10
14.6108
 20
-13.8396
 11
14.5225
 21
-13.9695
  0
LINE
  8
0
 10
14.5225
 20
-13.9695
 11
14.4263
 21
-14.0936
  0
LINE
  8
0
 10
14.4263
 20
-14.0936
 11
14.3224
 21
-14.2114
  0
LINE
  8
0
 10
14.3224
 20
-14.2114
 11
14.2114
 21
-14.3224
  0
LINE
  8
0
 10
14.2114
 20
-14.3224
 11
14.0936
 21
-14.4263
  0
LINE
  8
0
 10
14.0936
 20
-14.4263
 11
13.9695
 21
-14.5225
  0
LINE
  8
0
 10
13.9695
 20
-14.5225
 11
13.8396
 21
-14.6108
  0
LINE
  8
0
 10
13.8396
 20
-14.6108
 11
13.7044
 21
-14.6908
  0
LINE
  8
0
 10
13.7044
 20
-14.6908
 11
13.5644
 21
-14.7621
  0
LINE
  8
0
 10
13.5644
 20
-14.7621
 11
13.4203
 21
-14.8244
  0
LINE
  8
0
 10
13.4203
 20
-14.8244
 11
13.2725
 21
-14.8776
  0
LINE
  8
0
 10
13.2725
 20
-14.8776
 11
13.1217
 21
-14.9214
  0
LINE
  8
0
 10
13.1217
 20
-14.9214
 11
12.9684
 21
-14.9557
  0
LINE
  8
0
 10
12.9684
 20
-14.9557
 11
12.8133
 21
-14.9803
  0
LINE
  8
0
 10
12.8133
 20
-14.9803
 11
12.657
 21
-14.9951
  0
LINE
  8
0
 10
12.657
 20
-14.9951
 11
12.5
 21
-15
  0
LINE
  8
0
 10
12.5
 20
-15
 11
-12.5
 21
-15
  0
LINE
  8
0
 10
24.8116
 20
-2.99408
 11
24.624
 21
-2.97633
  0
LINE
  8
0
 10
24.624
 20
-2.97633
 11
24.4379
 21
-2.94685
  0
LINE
  8
0
 10
24.4379
 20
-2.94685
 11
24.2539
 21
-2.90575
  0
LINE
  8
0
 10
24.2539
 20
-2.90575
 11
24.073
 21
-2.85316
  0
LINE
  8
0
 10
24.073
 20
-2.85316
 11
23.8956
 21
-2.78932
  0
LINE
  8
0
 10
23.8956
 20
-2.78932
 11
23.7227
 21
-2.71448
  0
LINE
  8
0
 10
23.7227
 20
-2.71448
 11
23.5547
 21
-2.62891
  0
LINE
  8
0
 10
23.5547
 20
-2.62891
 11
23.3925
 21
-2.53297
  0
LINE
  8
0
 10
23.3925
 20
-2.53297
 11
23.2366
 21
-2.42705
  0
LINE
  8
0
 10
23.2366
 20
-2.42705
 11
23.0877
 21
-2.31154
  0
LINE
  8
0
 10
23.0877
 20
-2.31154
 11
22.9464
 21
-2.1869
  0
LINE
  8
0
 10
22.9464
 20
-2.1869
 11
22.8131
 21
-2.05363
  0
LINE
  8
0
 10
22.8131
 20
-2.05363
 11
22.6885
 21
-1.91226
  0
LINE
  8
0
 10
22.6885
 20
-1.91226
 11
22.573
 21
-1.76335
  0
LINE
  8
0
 10
22.573
 20
-1.76335
 11
22.467
 21
-1.60747
  0
LINE
  8
0
 10
22.467
 20
-1.60747
 11
22.3711
 21
-1.44525
  0
LINE
  8
0
 10
22.3711
 20
-1.44525
 11
22.2855
 21
-1.27733
  0
LINE
  8
0
 10
22.2855
 20
-1.27733
 11
22.2107
 21
-1.10437
  0
LINE
  8
0
 10
22.2107
 20
-1.10437
 11
22.1468
 21
-0.927048
  0
LINE
  8
0
 10
22.1468
 20
-0.927048
 11
22.0943
 21
-0.746063
  0
LINE
  8
0
 10
22.0943
 20
-0.746063
 11
22.0531
 21
-0.562134
  0
LINE
  8
0
 10
22.0531
 20
-0.562134
 11
22.0237
 21
-0.375992
  0
LINE
  8
0
 10
22.0237
 20
-0.375992
 11
22.0059
 21
-0.18837
  0
LINE
  8
0
 10
22.0059
 20
-0.18837
 11
22
 21
0
  0
LINE
  8
0
 10
22
 20
0
 11
22.0059
 21
0.18837
  0
LINE
  8
0
 10
22.0059
 20
0.18837
 11
22.0237
 21
0.375992
  0
LINE
  8
0
 10
22.0237
 20
0.375992
 11
22.0531
 21
0.562134
  0
LINE
  8
0
 10
22.0531
 20
0.562134
 11
22.0943
 21
0.746063
  0
LINE
  8
0
 10
22.0943
 20
0.746063
 11
22.1468
 21
0.927048
  0
LINE
  8
0
 10
22.1468
 20
0.927048
 11
22.2107
 21
1.10437
  0
LINE
  8
0
 10
22.2107
 20
1.10437
 11
22.2855
 21
1.27733
  0
LINE
  8
0
 10
22.2855
 20
1.27733
 11
22.3711
 21
1.44525
  0
LINE
  8
0
 10
22.3711
 20
1.44525
 11
22.467
 21
1.60747
  0
LINE
  8
0
 10
22.467
 20
1.60747
 11
22.573
 21
1.76335
  0
LINE
  8
0
 10
22.573
 20
1.76335
 11
22.6885
 21
1.91226
  0
LINE
  8
0
 10
22.6885
 20
1.91226
 11
22.8131
 21
2.05363
  0
LINE
  8
0
 10
22.8131
 20
2.05363
 11
22.9464
 21
2.1869
  0
LINE
  8
0
 10
22.9464
 20
2.1869
 11
23.0877
 21
2.31154
  0
LINE
  8
0
 10
23.0877
 20
2.31154
 11
23.2366
 21
2.42705
  0
LINE
  8
0
 10
23.2366
 20
2.42705
 11
23.3925
 21
2.53297
  0
LINE
  8
0
 10
23.3925
 20
2.53297
 11
23.5547
 21
2.62891
  0
LINE
  8
0
 10
23.5547
 20
2.62891
 11
23.7227
 21
2.71448
  0
LINE
  8
0
 10
23.7227
 20
2.71448
 11
23.8956
 21
2.78932
  0
LINE
  8
0
 10
23.8956
 20
2.78932
 11
24.073
 21
2.85316
  0
LINE
  8
0
 10
24.073
 20
2.85316
 11
24.2539
 21
2.90575
  0
LINE
  8
0
 10
24.2539
 20
2.90575
 11
24.4379
 21
2.94685
  0
LINE
  8
0
 10
24.4379
 20
2.94685
 11
24.624
 21
2.97633
  0
LINE
  8
0
 10
24.624
 20
2.97633
 11
24.8116
 21
2.99408
  0
LINE
  8
0
 10
24.8116
 20
2.99408
 11
25
 21
3
  0
LINE
  8
0
 10
25
 20
3
 11
25.1884
 21
2.99408
  0
LINE
  8
0
 10
25.1884
 20
2.99408
 11
25.376
 21
2.97633
  0
LINE
  8
0
 10
25.376
 20
2.97633
 11
25.5621
 21
2.94685
  0
LINE
  8
0
 10
25.5621
 20
2.94685
 11
25.7461
 21
2.90575
  0
LINE
  8
0
 10
25.7461
 20
2.90575
 11
25.927
 21
2.85316
  0
LINE
  8
0
 10
25.927
 20
2.85316
 11
26.1044
 21
2.78932
  0
LINE
  8
0
 10
26.1044
 20
2.78932
 11
26.2773
 21
2.71448
  0
LINE
  8
0
 10
26.2773
 20
2.71448
 11
26.4453
 21
2.62891
  0
LINE
  8
0
 10
26.4453
 20
2.62891
 11
26.6075
 21
2.53297
  0
LINE
  8
0
 10
26.6075
 20
2.53297
 11
26.7634
 21
2.42705
  0
LINE
  8
0
 10
26.7634
 20
2.42705
 11
26.9123
 21
2.31154
  0
LINE
  8
0
 10
26.9123
 20
2.31154
 11
27.0536
 21
2.1869
  0
LINE
  8
0
 10
27.0536
 20
2.1869
 11
27.1869
 21
2.05363
  0
LINE
  8
0
 10
27.1869
 20
2.05363
 11
27.3115
 21
1.91226
  0
LINE
  8
0
 10
27.3115
 20
1.91226
 11
27.427
 21
1.76335
  0
LINE
  8
0
 10
27.427
 20
1.76335
 11
27.533
 21
1.60747
  0
LINE
  8
0
 10
27.533
 20
1.60747
 11
27.6289
 21
1.44525
  0
LINE
  8
0
 10
27.6289
 20
1.44525
 11
27.7145
 21
1.27733
  0
LINE
  8
0
 10
27.7145
 20
1.27733
 11
27.7893
 21
1.10437
  0
LINE
  8
0
 10
27.7893
 20
1.10437
 11
27.8532
 21
0.927048
  0
LINE
  8
0
 10
27.8532
 20
0.927048
 11
27.9057
 21
0.746063
  0
LINE
  8
0
 10
27.9057
 20
0.746063
 11
27.9469
 21
0.562134
  0
LINE
  8
0
 10
27.9469
 20
0.562134
 11
27.9763
 21
0.375992
  0
LINE
  8
0
 10
27.9763
 20
0.375992
 11
27.9941
 21
0.18837
  0
LINE
  8
0
 10
27.9941
 20
0.18837
 11
28
 21
0
  0
LINE
  8
0
 10
28
 20
0
 11
27.9941
 21
-0.18837
  0
LINE
  8
0
 10
27.9941
 20
-0.18837
 11
27.9763
 21
-0.375992
  0
LINE
  8
0
 10
27.9763
 20
-0.375992
 11
27.9469
 21
-0.562134
  0
LINE
  8
0
 10
27.9469
 20
-0.562134
 11
27.9057
 21
-0.746063
  0
LINE
  8
0
 10
27.9057
 20
-0.746063
 11
27.8532
 21
-0.927048
  0
LINE
  8
0
 10
27.8532
 20
-0.927048
 11
27.7893
 21
-1.10437
  0
LINE
  8
0
 10
27.7893
 20
-1.10437
 11
27.7145
 21
-1.27733
  0
LINE
  8
0
 10
27.7145
 20
-1.27733
 11
27.6289
 21
-1.44525
  0
LINE
  8
0
 10
27.6289
 20
-1.44525
 11
27.533
 21
-1.60747
  0
LINE
  8
0
 10
27.533
 20
-1.60747
 11
27.427
 21
-1.76335
  0
LINE
  8
0
 10
27.427
 20
-1.76335
 11
27.3115
 21
-1.91226
  0
LINE
  8
0
 10
27.3115
 20
-1.91226
 11
27.1869
 21
-2.05363
  0
LINE
  8
0
 10
27.1869
 20
-2.05363
 11
27.0536
 21
-2.1869
  0
LINE
  8
0
 10
27.0536
 20
-2.1869
 11
26.9123
 21
-2.31154
  0
LINE
  8
0
 10
26.9123
 20
-2.31154
 11
26.7634
 21
-2.42705
  0
LINE
  8
0
 10
26.7634
 20
-2.42705
 11
26.6075
 21
-2.53297
  0
LINE
  8
0
 10
26.6075
 20
-2.53297
 11
26.4453
 21
-2.62891
  0
LINE
  8
0
 10
26.4453
 20
-2.62891
 11
26.2773
 21
-2.71448
  0
LINE
  8
0
 10
26.2773
 20
-2.71448
 11
26.1044
 21
-2.78932
  0
LINE
  8
0
 10
26.1044
 20
-2.78932
 11
25.927
 21
-2.85316
  0
LINE
  8
0
 10
25.927
 20
-2.85316
 11
25.7461
 21
-2.90575
  0
LINE
  8
0
 10
25.7461
 20
-2.90575
 11
25.5621
 21
-2.94685
  0
LINE
  8
0
 10
25.5621
 20
-2.94685
 11
25.376
 21
-2.97633
  0
LINE
  8
0
 10
25.376
 20
-2.97633
 11
25.1884
 21
-2.99408
  0
LINE
  8
0
 10
25.1884
 20
-2.99408
 11
25
 21
-3
  0
LINE
  8
0
 10
25
 20
-3
 11
24.8116
 21
-2.99408
  0
ENDSEC
  0
SECTION
  2
OBJECTS
  0
DICTIONARY
  0
ENDSEC
  0
EOF
