  0
SECTION
  2
BLOCKS
  0
ENDSEC
  0
SECTION
  2
ENTITIES
  0
LINE
  8
0
 10
-60
 11
-60
 20
-60
 21
60
  0
LINE
  8
0
 10
-60
 11
60
 20
60
 21
60
  0
LINE
  8
0
 10
60
 11
60
 20
60
 21
-60
  0
LINE
  8
0
 10
60
 11
-60
 20
-60
 21
-60
  0
LINE
  8
0
 10
-55
 11
-54.994
 20
-52
 21
-51.812
  0
LINE
  8
0
 10
-54.994
 11
-54.976
 20
-51.812
 21
-51.624
  0
LINE
  8
0
 10
-54.976
 11
-54.947
 20
-51.624
 21
-51.438
  0
LINE
  8
0
 10
-54.947
 11
-54.906
 20
-51.438
 21
-51.254
  0
LINE
  8
0
 10
-54.906
 11
-54.853
 20
-51.254
 21
-51.073
  0
LINE
  8
0
 10
-54.853
 11
-54.789
 20
-51.073
 21
-50.896
  0
LINE
  8
0
 10
-54.789
 11
-54.714
 20
-50.896
 21
-50.723
  0
LINE
  8
0
 10
-54.714
 11
-54.629
 20
-50.723
 21
-50.555
  0
LINE
  8
0
 10
-54.629
 11
-54.533
 20
-50.555
 21
-50.393
  0
LINE
  8
0
 10
-54.533
 11
-54.427
 20
-50.393
 21
-50.237
  0
LINE
  8
0
 10
-54.427
 11
-54.312
 20
-50.237
 21
-50.088
  0
LINE
  8
0
 10
-54.312
 11
-54.187
 20
-50.088
 21
-49.946
  0
LINE
  8
0
 10
-54.187
 11
-54.054
 20
-49.946
 21
-49.813
  0
LINE
  8
0
 10
-54.054
 11
-53.912
 20
-49.813
 21
-49.688
  0
LINE
  8
0
 10
-53.912
 11
-53.763
 20
-49.688
 21
-49.573
  0
LINE
  8
0
 10
-53.763
 11
-53.607
 20
-49.573
 21
-49.467
  0
LINE
  8
0
 10
-53.607
 11
-53.445
 20
-49.467
 21
-49.371
  0
LINE
  8
0
 10
-53.445
 11
-53.277
 20
-49.371
 21
-49.286
  0
LINE
  8
0
 10
-53.277
 11
-53.104
 20
-49.286
 21
-49.211
  0
LINE
  8
0
 10
-53.104
 11
-52.927
 20
-49.211
 21
-49.147
  0
LINE
  8
0
 10
-52.927
 11
-52.746
 20
-49.147
 21
-49.094
  0
LINE
  8
0
 10
-52.746
 11
-52.562
 20
-49.094
 21
-49.053
  0
LINE
  8
0
 10
-52.562
 11
-52.376
 20
-49.053
 21
-49.024
  0
LINE
  8
0
 10
-52.376
 11
-52.188
 20
-49.024
 21
-49.006
  0
LINE
  8
0
 10
-52.188
 11
-52
 20
-49.006
 21
-49
  0
LINE
  8
0
 10
-52
 11
-51.812
 20
-49
 21
-49.006
  0
LINE
  8
0
 10
-51.812
 11
-51.624
 20
-49.006
 21
-49.024
  0
LINE
  8
0
 10
-51.624
 11
-51.438
 20
-49.024
 21
-49.053
  0
LINE
  8
0
 10
-51.438
 11
-51.254
 20
-49.053
 21
-49.094
  0
LINE
  8
0
 10
-51.254
 11
-51.073
 20
-49.094
 21
-49.147
  0
LINE
  8
0
 10
-51.073
 11
-50.896
 20
-49.147
 21
-49.211
  0
LINE
  8
0
 10
-50.896
 11
-50.723
 20
-49.211
 21
-49.286
  0
LINE
  8
0
 10
-50.723
 11
-50.555
 20
-49.286
 21
-49.371
  0
LINE
  8
0
 10
-50.555
 11
-50.393
 20
-49.371
 21
-49.467
  0
LINE
  8
0
 10
-50.393
 11
-50.237
 20
-49.467
 21
-49.573
  0
LINE
  8
0
 10
-50.237
 11
-50.088
 20
-49.573
 21
-49.688
  0
LINE
  8
0
 10
-50.088
 11
-49.946
 20
-49.688
 21
-49.813
  0
LINE
  8
0
 10
-49.946
 11
-49.813
 20
-49.813
 21
-49.946
  0
LINE
  8
0
 10
-49.813
 11
-49.688
 20
-49.946
 21
-50.088
  0
LINE
  8
0
 10
-49.688
 11
-49.573
 20
-50.088
 21
-50.237
  0
LINE
  8
0
 10
-49.573
 11
-49.467
 20
-50.237
 21
-50.393
  0
LINE
  8
0
 10
-49.467
 11
-49.371
 20
-50.393
 21
-50.555
  0
LINE
  8
0
 10
-49.371
 11
-49.286
 20
-50.555
 21
-50.723
  0
LINE
  8
0
 10
-49.286
 11
-49.211
 20
-50.723
 21
-50.896
  0
LINE
  8
0
 10
-49.211
 11
-49.147
 20
-50.896
 21
-51.073
  0
LINE
  8
0
 10
-49.147
 11
-49.094
 20
-51.073
 21
-51.254
  0
LINE
  8
0
 10
-49.094
 11
-49.053
 20
-51.254
 21
-51.438
  0
LINE
  8
0
 10
-49.053
 11
-49.024
 20
-51.438
 21
-51.624
  0
LINE
  8
0
 10
-49.024
 11
-49.006
 20
-51.624
 21
-51.812
  0
LINE
  8
0
 10
-49.006
 11
-49
 20
-51.812
 21
-52
  0
LINE
  8
0
 10
-49
 11
-49.006
 20
-52
 21
-52.188
  0
LINE
  8
0
 10
-49.006
 11
-49.024
 20
-52.188
 21
-52.376
  0
LINE
  8
0
 10
-49.024
 11
-49.053
 20
-52.376
 21
-52.562
  0
LINE
  8
0
 10
-49.053
 11
-49.094
 20
-52.562
 21
-52.746
  0
LINE
  8
0
 10
-49.094
 11
-49.147
 20
-52.746
 21
-52.927
  0
LINE
  8
0
 10
-49.147
 11
-49.211
 20
-52.927
 21
-53.104
  0
LINE
  8
0
 10
-49.211
 11
-49.286
 20
-53.104
 21
-53.277
  0
LINE
  8
0
 10
-49.286
 11
-49.371
 20
-53.277
 21
-53.445
  0
LINE
  8
0
 10
-49.371
 11
-49.467
 20
-53.445
 21
-53.607
  0
LINE
  8
0
 10
-49.467
 11
-49.573
 20
-53.607
 21
-53.763
  0
LINE
  8
0
 10
-49.573
 11
-49.688
 20
-53.763
 21
-53.912
  0
LINE
  8
0
 10
-49.688
 11
-49.813
 20
-53.912
 21
-54.054
  0
LINE
  8
0
 10
-49.813
 11
-49.946
 20
-54.054
 21
-54.187
  0
LINE
  8
0
 10
-49.946
 11
-50.088
 20
-54.187
 21
-54.312
  0
LINE
  8
0
 10
-50.088
 11
-50.237
 20
-54.312
 21
-54.427
  0
LINE
  8
0
 10
-50.237
 11
-50.393
 20
-54.427
 21
-54.533
  0
LINE
  8
0
 10
-50.393
 11
-50.555
 20
-54.533
 21
-54.629
  0
LINE
  8
0
 10
-50.555
 11
-50.723
 20
-54.629
 21
-54.714
  0
LINE
  8
0
 10
-50.723
 11
-50.896
 20
-54.714
 21
-54.789
  0
LINE
  8
0
 10
-50.896
 11
-51.073
 20
-54.789
 21
-54.853
  0
LINE
  8
0
 10
-51.073
 11
-51.254
 20
-54.853
 21
-54.906
  0
LINE
  8
0
 10
-51.254
 11
-51.438
 20
-54.906
 21
-54.947
  0
LINE
  8
0
 10
-51.438
 11
-51.624
 20
-54.947
 21
-54.976
  0
LINE
  8
0
 10
-51.624
 11
-51.812
 20
-54.976
 21
-54.994
  0
LINE
  8
0
 10
-51.812
 11
-52
 20
-54.994
 21
-55
  0
LINE
  8
0
 10
-52
 11
-52.188
 20
-55
 21
-54.994
  0
LINE
  8
0
 10
-52.188
 11
-52.376
 20
-54.994
 21
-54.976
  0
LINE
  8
0
 10
-52.376
 11
-52.562
 20
-54.976
 21
-54.947
  0
LINE
  8
0
 10
-52.562
 11
-52.746
 20
-54.947
 21
-54.906
  0
LINE
  8
0
 10
-52.746
 11
-52.927
 20
-54.906
 21
-54.853
  0
LINE
  8
0
 10
-52.927
 11
-53.104
 20
-54.853
 21
-54.789
  0
LINE
  8
0
 10
-53.104
 11
-53.277
 20
-54.789
 21
-54.714
  0
LINE
  8
0
 10
-53.277
 11
-53.445
 20
-54.714
 21
-54.629
  0
LINE
  8
0
 10
-53.445
 11
-53.607
 20
-54.629
 21
-54.533
  0
LINE
  8
0
 10
-53.607
 11
-53.763
 20
-54.533
 21
-54.427
  0
LINE
  8
0
 10
-53.763
 11
-53.912
 20
-54.427
 21
-54.312
  0
LINE
  8
0
 10
-53.912
 11
-54.054
 20
-54.312
 21
-54.187
  0
LINE
  8
0
 10
-54.054
 11
-54.187
 20
-54.187
 21
-54.054
  0
LINE
  8
0
 10
-54.187
 11
-54.312
 20
-54.054
 21
-53.912
  0
LINE
  8
0
 10
-54.312
 11
-54.427
 20
-53.912
 21
-53.763
  0
LINE
  8
0
 10
-54.427
 11
-54.533
 20
-53.763
 21
-53.607
  0
LINE
  8
0
 10
-54.533
 11
-54.629
 20
-53.607
 21
-53.445
  0
LINE
  8
0
 10
-54.629
 11
-54.714
 20
-53.445
 21
-53.277
  0
LINE
  8
0
 10
-54.714
 11
-54.789
 20
-53.277
 21
-53.104
  0
LINE
  8
0
 10
-54.789
 11
-54.853
 20
-53.104
 21
-52.927
  0
LINE
  8
0
 10
-54.853
 11
-54.906
 20
-52.927
 21
-52.746
  0
LINE
  8
0
 10
-54.906
 11
-54.947
 20
-52.746
 21
-52.562
  0
LINE
  8
0
 10
-54.947
 11
-54.976
 20
-52.562
 21
-52.376
  0
LINE
  8
0
 10
-54.976
 11
-54.994
 20
-52.376
 21
-52.188
  0
LINE
  8
0
 10
-54.994
 11
-55
 20
-52.188
 21
-52
  0
LINE
  8
0
 10
-55
 11
-54.994
 20
52
 21
52.188
  0
LINE
  8
0
 10
-54.994
 11
-54.976
 20
52.188
 21
52.376
  0
LINE
  8
0
 10
-54.976
 11
-54.947
 20
52.376
 21
52.562
  0
LINE
  8
0
 10
-54.947
 11
-54.906
 20
52.562
 21
52.746
  0
LINE
  8
0
 10
-54.906
 11
-54.853
 20
52.746
 21
52.927
  0
LINE
  8
0
 10
-54.853
 11
-54.789
 20
52.927
 21
53.104
  0
LINE
  8
0
 10
-54.789
 11
-54.714
 20
53.104
 21
53.277
  0
LINE
  8
0
 10
-54.714
 11
-54.629
 20
53.277
 21
53.445
  0
LINE
  8
0
 10
-54.629
 11
-54.533
 20
53.445
 21
53.607
  0
LINE
  8
0
 10
-54.533
 11
-54.427
 20
53.607
 21
53.763
  0
LINE
  8
0
 10
-54.427
 11
-54.312
 20
53.763
 21
53.912
  0
LINE
  8
0
 10
-54.312
 11
-54.187
 20
53.912
 21
54.054
  0
LINE
  8
0
 10
-54.187
 11
-54.054
 20
54.054
 21
54.187
  0
LINE
  8
0
 10
-54.054
 11
-53.912
 20
54.187
 21
54.312
  0
LINE
  8
0
 10
-53.912
 11
-53.763
 20
54.312
 21
54.427
  0
LINE
  8
0
 10
-53.763
 11
-53.607
 20
54.427
 21
54.533
  0
LINE
  8
0
 10
-53.607
 11
-53.445
 20
54.533
 21
54.629
  0
LINE
  8
0
 10
-53.445
 11
-53.277
 20
54.629
 21
54.714
  0
LINE
  8
0
 10
-53.277
 11
-53.104
 20
54.714
 21
54.789
  0
LINE
  8
0
 10
-53.104
 11
-52.927
 20
54.789
 21
54.853
  0
LINE
  8
0
 10
-52.927
 11
-52.746
 20
54.853
 21
54.906
  0
LINE
  8
0
 10
-52.746
 11
-52.562
 20
54.906
 21
54.947
  0
LINE
  8
0
 10
-52.562
 11
-52.376
 20
54.947
 21
54.976
  0
LINE
  8
0
 10
-52.376
 11
-52.188
 20
54.976
 21
54.994
  0
LINE
  8
0
 10
-52.188
 11
-52
 20
54.994
 21
55
  0
LINE
  8
0
 10
-52
 11
-51.812
 20
55
 21
54.994
  0
LINE
  8
0
 10
-51.812
 11
-51.624
 20
54.994
 21
54.976
  0
LINE
  8
0
 10
-51.624
 11
-51.438
 20
54.976
 21
54.947
  0
LINE
  8
0
 10
-51.438
 11
-51.254
 20
54.947
 21
54.906
  0
LINE
  8
0
 10
-51.254
 11
-51.073
 20
54.906
 21
54.853
  0
LINE
  8
0
 10
-51.073
 11
-50.896
 20
54.853
 21
54.789
  0
LINE
  8
0
 10
-50.896
 11
-50.723
 20
54.789
 21
54.714
  0
LINE
  8
0
 10
-50.723
 11
-50.555
 20
54.714
 21
54.629
  0
LINE
  8
0
 10
-50.555
 11
-50.393
 20
54.629
 21
54.533
  0
LINE
  8
0
 10
-50.393
 11
-50.237
 20
54.533
 21
54.427
  0
LINE
  8
0
 10
-50.237
 11
-50.088
 20
54.427
 21
54.312
  0
LINE
  8
0
 10
-50.088
 11
-49.946
 20
54.312
 21
54.187
  0
LINE
  8
0
 10
-49.946
 11
-49.813
 20
54.187
 21
54.054
  0
LINE
  8
0
 10
-49.813
 11
-49.688
 20
54.054
 21
53.912
  0
LINE
  8
0
 10
-49.688
 11
-49.573
 20
53.912
 21
53.763
  0
LINE
  8
0
 10
-49.573
 11
-49.467
 20
53.763
 21
53.607
  0
LINE
  8
0
 10
-49.467
 11
-49.371
 20
53.607
 21
53.445
  0
LINE
  8
0
 10
-49.371
 11
-49.286
 20
53.445
 21
53.277
  0
LINE
  8
0
 10
-49.286
 11
-49.211
 20
53.277
 21
53.104
  0
LINE
  8
0
 10
-49.211
 11
-49.147
 20
53.104
 21
52.927
  0
LINE
  8
0
 10
-49.147
 11
-49.094
 20
52.927
 21
52.746
  0
LINE
  8
0
 10
-49.094
 11
-49.053
 20
52.746
 21
52.562
  0
LINE
  8
0
 10
-49.053
 11
-49.024
 20
52.562
 21
52.376
  0
LINE
  8
0
 10
-49.024
 11
-49.006
 20
52.376
 21
52.188
  0
LINE
  8
0
 10
-49.006
 11
-49
 20
52.188
 21
52
  0
LINE
  8
0
 10
-49
 11
-49.006
 20
52
 21
51.812
  0
LINE
  8
0
 10
-49.006
 11
-49.024
 20
51.812
 21
51.624
  0
LINE
  8
0
 10
-49.024
 11
-49.053
 20
51.624
 21
51.438
  0
LINE
  8
0
 10
-49.053
 11
-49.094
 20
51.438
 21
51.254
  0
LINE
  8
0
 10
-49.094
 11
-49.147
 20
51.254
 21
51.073
  0
LINE
  8
0
 10
-49.147
 11
-49.211
 20
51.073
 21
50.896
  0
LINE
  8
0
 10
-49.211
 11
-49.286
 20
50.896
 21
50.723
  0
LINE
  8
0
 10
-49.286
 11
-49.371
 20
50.723
 21
50.555
  0
LINE
  8
0
 10
-49.371
 11
-49.467
 20
50.555
 21
50.393
  0
LINE
  8
0
 10
-49.467
 11
-49.573
 20
50.393
 21
50.237
  0
LINE
  8
0
 10
-49.573
 11
-49.688
 20
50.237
 21
50.088
  0
LINE
  8
0
 10
-49.688
 11
-49.813
 20
50.088
 21
49.946
  0
LINE
  8
0
 10
-49.813
 11
-49.946
 20
49.946
 21
49.813
  0
LINE
  8
0
 10
-49.946
 11
-50.088
 20
49.813
 21
49.688
  0
LINE
  8
0
 10
-50.088
 11
-50.237
 20
49.688
 21
49.573
  0
LINE
  8
0
 10
-50.237
 11
-50.393
 20
49.573
 21
49.467
  0
LINE
  8
0
 10
-50.393
 11
-50.555
 20
49.467
 21
49.371
  0
LINE
  8
0
 10
-50.555
 11
-50.723
 20
49.371
 21
49.286
  0
LINE
  8
0
 10
-50.723
 11
-50.896
 20
49.286
 21
49.211
  0
LINE
  8
0
 10
-50.896
 11
-51.073
 20
49.211
 21
49.147
  0
LINE
  8
0
 10
-51.073
 11
-51.254
 20
49.147
 21
49.094
  0
LINE
  8
0
 10
-51.254
 11
-51.438
 20
49.094
 21
49.053
  0
LINE
  8
0
 10
-51.438
 11
-51.624
 20
49.053
 21
49.024
  0
LINE
  8
0
 10
-51.624
 11
-51.812
 20
49.024
 21
49.006
  0
LINE
  8
0
 10
-51.812
 11
-52
 20
49.006
 21
49
  0
LINE
  8
0
 10
-52
 11
-52.188
 20
49
 21
49.006
  0
LINE
  8
0
 10
-52.188
 11
-52.376
 20
49.006
 21
49.024
  0
LINE
  8
0
 10
-52.376
 11
-52.562
 20
49.024
 21
49.053
  0
LINE
  8
0
 10
-52.562
 11
-52.746
 20
49.053
 21
49.094
  0
LINE
  8
0
 10
-52.746
 11
-52.927
 20
49.094
 21
49.147
  0
LINE
  8
0
 10
-52.927
 11
-53.104
 20
49.147
 21
49.211
  0
LINE
  8
0
 10
-53.104
 11
-53.277
 20
49.211
 21
49.286
  0
LINE
  8
0
 10
-53.277
 11
-53.445
 20
49.286
 21
49.371
  0
LINE
  8
0
 10
-53.445
 11
-53.607
 20
49.371
 21
49.467
  0
LINE
  8
0
 10
-53.607
 11
-53.763
 20
49.467
 21
49.573
  0
LINE
  8
0
 10
-53.763
 11
-53.912
 20
49.573
 21
49.688
  0
LINE
  8
0
 10
-53.912
 11
-54.054
 20
49.688
 21
49.813
  0
LINE
  8
0
 10
-54.054
 11
-54.187
 20
49.813
 21
49.946
  0
LINE
  8
0
 10
-54.187
 11
-54.312
 20
49.946
 21
50.088
  0
LINE
  8
0
 10
-54.312
 11
-54.427
 20
50.088
 21
50.237
  0
LINE
  8
0
 10
-54.427
 11
-54.533
 20
50.237
 21
50.393
  0
LINE
  8
0
 10
-54.533
 11
-54.629
 20
50.393
 21
50.555
  0
LINE
  8
0
 10
-54.629
 11
-54.714
 20
50.555
 21
50.723
  0
LINE
  8
0
 10
-54.714
 11
-54.789
 20
50.723
 21
50.896
  0
LINE
  8
0
 10
-54.789
 11
-54.853
 20
50.896
 21
51.073
  0
LINE
  8
0
 10
-54.853
 11
-54.906
 20
51.073
 21
51.254
  0
LINE
  8
0
 10
-54.906
 11
-54.947
 20
51.254
 21
51.438
  0
LINE
  8
0
 10
-54.947
 11
-54.976
 20
51.438
 21
51.624
  0
LINE
  8
0
 10
-54.976
 11
-54.994
 20
51.624
 21
51.812
  0
LINE
  8
0
 10
-54.994
 11
-55
 20
51.812
 21
52
  0
LINE
  8
0
 10
-41
 11
-40.919
 20
0
 21
2.574
  0
LINE
  8
0
 10
-40.919
 11
-40.677
 20
2.574
 21
5.139
  0
LINE
  8
0
 10
-40.677
 11
-40.274
 20
5.139
 21
7.683
  0
LINE
  8
0
 10
-40.274
 11
-39.712
 20
7.683
 21
10.196
  0
LINE
  8
0
 10
-39.712
 11
-38.993
 20
10.196
 21
12.67
  0
LINE
  8
0
 10
-38.993
 11
-38.121
 20
12.67
 21
15.093
  0
LINE
  8
0
 10
-38.121
 11
-37.098
 20
15.093
 21
17.457
  0
LINE
  8
0
 10
-37.098
 11
-35.929
 20
17.457
 21
19.752
  0
LINE
  8
0
 10
-35.929
 11
-34.617
 20
19.752
 21
21.969
  0
LINE
  8
0
 10
-34.617
 11
-33.17
 20
21.969
 21
24.099
  0
LINE
  8
0
 10
-33.17
 11
-31.591
 20
24.099
 21
26.134
  0
LINE
  8
0
 10
-31.591
 11
-29.888
 20
26.134
 21
28.066
  0
LINE
  8
0
 10
-29.888
 11
-28.066
 20
28.066
 21
29.888
  0
LINE
  8
0
 10
-28.066
 11
-26.134
 20
29.888
 21
31.591
  0
LINE
  8
0
 10
-26.134
 11
-24.099
 20
31.591
 21
33.17
  0
LINE
  8
0
 10
-24.099
 11
-21.969
 20
33.17
 21
34.617
  0
LINE
  8
0
 10
-21.969
 11
-19.752
 20
34.617
 21
35.929
  0
LINE
  8
0
 10
-19.752
 11
-17.457
 20
35.929
 21
37.098
  0
LINE
  8
0
 10
-17.457
 11
-15.093
 20
37.098
 21
38.121
  0
LINE
  8
0
 10
-15.093
 11
-12.67
 20
38.121
 21
38.993
  0
LINE
  8
0
 10
-12.67
 11
-10.196
 20
38.993
 21
39.712
  0
LINE
  8
0
 10
-10.196
 11
-7.683
 20
39.712
 21
40.274
  0
LINE
  8
0
 10
-7.683
 11
-5.139
 20
40.274
 21
40.677
  0
LINE
  8
0
 10
-5.139
 11
-2.574
 20
40.677
 21
40.919
  0
LINE
  8
0
 10
-2.574
 11
0
 20
40.919
 21
41
  0
LINE
  8
0
 10
0
 11
2.574
 20
41
 21
40.919
  0
LINE
  8
0
 10
2.574
 11
5.139
 20
40.919
 21
40.677
  0
LINE
  8
0
 10
5.139
 11
7.683
 20
40.677
 21
40.274
  0
LINE
  8
0
 10
7.683
 11
10.196
 20
40.274
 21
39.712
  0
LINE
  8
0
 10
10.196
 11
12.67
 20
39.712
 21
38.993
  0
LINE
  8
0
 10
12.67
 11
15.093
 20
38.993
 21
38.121
  0
LINE
  8
0
 10
15.093
 11
17.457
 20
38.121
 21
37.098
  0
LINE
  8
0
 10
17.457
 11
19.752
 20
37.098
 21
35.929
  0
LINE
  8
0
 10
19.752
 11
21.969
 20
35.929
 21
34.617
  0
LINE
  8
0
 10
21.969
 11
24.099
 20
34.617
 21
33.17
  0
LINE
  8
0
 10
24.099
 11
26.134
 20
33.17
 21
31.591
  0
LINE
  8
0
 10
26.134
 11
28.066
 20
31.591
 21
29.888
  0
LINE
  8
0
 10
28.066
 11
29.888
 20
29.888
 21
28.066
  0
LINE
  8
0
 10
29.888
 11
31.591
 20
28.066
 21
26.134
  0
LINE
  8
0
 10
31.591
 11
33.17
 20
26.134
 21
24.099
  0
LINE
  8
0
 10
33.17
 11
34.617
 20
24.099
 21
21.969
  0
LINE
  8
0
 10
34.617
 11
35.929
 20
21.969
 21
19.752
  0
LINE
  8
0
 10
35.929
 11
37.098
 20
19.752
 21
17.457
  0
LINE
  8
0
 10
37.098
 11
38.121
 20
17.457
 21
15.093
  0
LINE
  8
0
 10
38.121
 11
38.993
 20
15.093
 21
12.67
  0
LINE
  8
0
 10
38.993
 11
39.712
 20
12.67
 21
10.196
  0
LINE
  8
0
 10
39.712
 11
40.274
 20
10.196
 21
7.683
  0
LINE
  8
0
 10
40.274
 11
40.677
 20
7.683
 21
5.139
  0
LINE
  8
0
 10
40.677
 11
40.919
 20
5.139
 21
2.574
  0
LINE
  8
0
 10
40.919
 11
41
 20
2.574
 21
0
  0
LINE
  8
0
 10
41
 11
40.919
 20
0
 21
-2.574
  0
LINE
  8
0
 10
40.919
 11
40.677
 20
-2.574
 21
-5.139
  0
LINE
  8
0
 10
40.677
 11
40.274
 20
-5.139
 21
-7.683
  0
LINE
  8
0
 10
40.274
 11
39.712
 20
-7.683
 21
-10.196
  0
LINE
  8
0
 10
39.712
 11
38.993
 20
-10.196
 21
-12.67
  0
LINE
  8
0
 10
38.993
 11
38.121
 20
-12.67
 21
-15.093
  0
LINE
  8
0
 10
38.121
 11
37.098
 20
-15.093
 21
-17.457
  0
LINE
  8
0
 10
37.098
 11
35.929
 20
-17.457
 21
-19.752
  0
LINE
  8
0
 10
35.929
 11
34.617
 20
-19.752
 21
-21.969
  0
LINE
  8
0
 10
34.617
 11
33.17
 20
-21.969
 21
-24.099
  0
LINE
  8
0
 10
33.17
 11
31.591
 20
-24.099
 21
-26.134
  0
LINE
  8
0
 10
31.591
 11
29.888
 20
-26.134
 21
-28.066
  0
LINE
  8
0
 10
29.888
 11
28.066
 20
-28.066
 21
-29.888
  0
LINE
  8
0
 10
28.066
 11
26.134
 20
-29.888
 21
-31.591
  0
LINE
  8
0
 10
26.134
 11
24.099
 20
-31.591
 21
-33.17
  0
LINE
  8
0
 10
24.099
 11
21.969
 20
-33.17
 21
-34.617
  0
LINE
  8
0
 10
21.969
 11
19.752
 20
-34.617
 21
-35.929
  0
LINE
  8
0
 10
19.752
 11
17.457
 20
-35.929
 21
-37.098
  0
LINE
  8
0
 10
17.457
 11
15.093
 20
-37.098
 21
-38.121
  0
LINE
  8
0
 10
15.093
 11
12.67
 20
-38.121
 21
-38.993
  0
LINE
  8
0
 10
12.67
 11
10.196
 20
-38.993
 21
-39.712
  0
LINE
  8
0
 10
10.196
 11
7.683
 20
-39.712
 21
-40.274
  0
LINE
  8
0
 10
7.683
 11
5.139
 20
-40.274
 21
-40.677
  0
LINE
  8
0
 10
5.139
 11
2.574
 20
-40.677
 21
-40.919
  0
LINE
  8
0
 10
2.574
 11
0
 20
-40.919
 21
-41
  0
LINE
  8
0
 10
0
 11
-2.574
 20
-41
 21
-40.919
  0
LINE
  8
0
 10
-2.574
 11
-5.139
 20
-40.919
 21
-40.677
  0
LINE
  8
0
 10
-5.139
 11
-7.683
 20
-40.677
 21
-40.274
  0
LINE
  8
0
 10
-7.683
 11
-10.196
 20
-40.274
 21
-39.712
  0
LINE
  8
0
 10
-10.196
 11
-12.67
 20
-39.712
 21
-38.993
  0
LINE
  8
0
 10
-12.67
 11
-15.093
 20
-38.993
 21
-38.121
  0
LINE
  8
0
 10
-15.093
 11
-17.457
 20
-38.121
 21
-37.098
  0
LINE
  8
0
 10
-17.457
 11
-19.752
 20
-37.098
 21
-35.929
  0
LINE
  8
0
 10
-19.752
 11
-21.969
 20
-35.929
 21
-34.617
  0
LINE
  8
0
 10
-21.969
 11
-24.099
 20
-34.617
 21
-33.17
  0
LINE
  8
0
 10
-24.099
 11
-26.134
 20
-33.17
 21
-31.591
  0
LINE
  8
0
 10
-26.134
 11
-28.066
 20
-31.591
 21
-29.888
  0
LINE
  8
0
 10
-28.066
 11
-29.888
 20
-29.888
 21
-28.066
  0
LINE
  8
0
 10
-29.888
 11
-31.591
 20
-28.066
 21
-26.134
  0
LINE
  8
0
 10
-31.591
 11
-33.17
 20
-26.134
 21
-24.099
  0
LINE
  8
0
 10
-33.17
 11
-34.617
 20
-24.099
 21
-21.969
  0
LINE
  8
0
 10
-34.617
 11
-35.929
 20
-21.969
 21
-19.752
  0
LINE
  8
0
 10
-35.929
 11
-37.098
 20
-19.752
 21
-17.457
  0
LINE
  8
0
 10
-37.098
 11
-38.121
 20
-17.457
 21
-15.093
  0
LINE
  8
0
 10
-38.121
 11
-38.993
 20
-15.093
 21
-12.67
  0
LINE
  8
0
 10
-38.993
 11
-39.712
 20
-12.67
 21
-10.196
  0
LINE
  8
0
 10
-39.712
 11
-40.274
 20
-10.196
 21
-7.683
  0
LINE
  8
0
 10
-40.274
 11
-40.677
 20
-7.683
 21
-5.139
  0
LINE
  8
0
 10
-40.677
 11
-40.919
 20
-5.139
 21
-2.574
  0
LINE
  8
0
 10
-40.919
 11
-41
 20
-2.574
 21
0
  0
LINE
  8
0
 10
-38.25
 11
-38.245
 20
-35.75
 21
-35.593
  0
LINE
  8
0
 10
-38.245
 11
-38.23
 20
-35.593
 21
-35.437
  0
LINE
  8
0
 10
-38.23
 11
-38.206
 20
-35.437
 21
-35.282
  0
LINE
  8
0
 10
-38.206
 11
-38.171
 20
-35.282
 21
-35.128
  0
LINE
  8
0
 10
-38.171
 11
-38.128
 20
-35.128
 21
-34.977
  0
LINE
  8
0
 10
-38.128
 11
-38.074
 20
-34.977
 21
-34.83
  0
LINE
  8
0
 10
-38.074
 11
-38.012
 20
-34.83
 21
-34.686
  0
LINE
  8
0
 10
-38.012
 11
-37.941
 20
-34.686
 21
-34.546
  0
LINE
  8
0
 10
-37.941
 11
-37.861
 20
-34.546
 21
-34.41
  0
LINE
  8
0
 10
-37.861
 11
-37.773
 20
-34.41
 21
-34.281
  0
LINE
  8
0
 10
-37.773
 11
-37.676
 20
-34.281
 21
-34.156
  0
LINE
  8
0
 10
-37.676
 11
-37.572
 20
-34.156
 21
-34.039
  0
LINE
  8
0
 10
-37.572
 11
-37.461
 20
-34.039
 21
-33.928
  0
LINE
  8
0
 10
-37.461
 11
-37.344
 20
-33.928
 21
-33.824
  0
LINE
  8
0
 10
-37.344
 11
-37.219
 20
-33.824
 21
-33.727
  0
LINE
  8
0
 10
-37.219
 11
-37.09
 20
-33.727
 21
-33.639
  0
LINE
  8
0
 10
-37.09
 11
-36.954
 20
-33.639
 21
-33.559
  0
LINE
  8
0
 10
-36.954
 11
-36.814
 20
-33.559
 21
-33.488
  0
LINE
  8
0
 10
-36.814
 11
-36.67
 20
-33.488
 21
-33.426
  0
LINE
  8
0
 10
-36.67
 11
-36.523
 20
-33.426
 21
-33.372
  0
LINE
  8
0
 10
-36.523
 11
-36.372
 20
-33.372
 21
-33.329
  0
LINE
  8
0
 10
-36.372
 11
-36.218
 20
-33.329
 21
-33.294
  0
LINE
  8
0
 10
-36.218
 11
-36.063
 20
-33.294
 21
-33.27
  0
LINE
  8
0
 10
-36.063
 11
-35.907
 20
-33.27
 21
-33.255
  0
LINE
  8
0
 10
-35.907
 11
-35.75
 20
-33.255
 21
-33.25
  0
LINE
  8
0
 10
-35.75
 11
-35.593
 20
-33.25
 21
-33.255
  0
LINE
  8
0
 10
-35.593
 11
-35.437
 20
-33.255
 21
-33.27
  0
LINE
  8
0
 10
-35.437
 11
-35.282
 20
-33.27
 21
-33.294
  0
LINE
  8
0
 10
-35.282
 11
-35.128
 20
-33.294
 21
-33.329
  0
LINE
  8
0
 10
-35.128
 11
-34.977
 20
-33.329
 21
-33.372
  0
LINE
  8
0
 10
-34.977
 11
-34.83
 20
-33.372
 21
-33.426
  0
LINE
  8
0
 10
-34.83
 11
-34.686
 20
-33.426
 21
-33.488
  0
LINE
  8
0
 10
-34.686
 11
-34.546
 20
-33.488
 21
-33.559
  0
LINE
  8
0
 10
-34.546
 11
-34.41
 20
-33.559
 21
-33.639
  0
LINE
  8
0
 10
-34.41
 11
-34.281
 20
-33.639
 21
-33.727
  0
LINE
  8
0
 10
-34.281
 11
-34.156
 20
-33.727
 21
-33.824
  0
LINE
  8
0
 10
-34.156
 11
-34.039
 20
-33.824
 21
-33.928
  0
LINE
  8
0
 10
-34.039
 11
-33.928
 20
-33.928
 21
-34.039
  0
LINE
  8
0
 10
-33.928
 11
-33.824
 20
-34.039
 21
-34.156
  0
LINE
  8
0
 10
-33.824
 11
-33.727
 20
-34.156
 21
-34.281
  0
LINE
  8
0
 10
-33.727
 11
-33.639
 20
-34.281
 21
-34.41
  0
LINE
  8
0
 10
-33.639
 11
-33.559
 20
-34.41
 21
-34.546
  0
LINE
  8
0
 10
-33.559
 11
-33.488
 20
-34.546
 21
-34.686
  0
LINE
  8
0
 10
-33.488
 11
-33.426
 20
-34.686
 21
-34.83
  0
LINE
  8
0
 10
-33.426
 11
-33.372
 20
-34.83
 21
-34.977
  0
LINE
  8
0
 10
-33.372
 11
-33.329
 20
-34.977
 21
-35.128
  0
LINE
  8
0
 10
-33.329
 11
-33.294
 20
-35.128
 21
-35.282
  0
LINE
  8
0
 10
-33.294
 11
-33.27
 20
-35.282
 21
-35.437
  0
LINE
  8
0
 10
-33.27
 11
-33.255
 20
-35.437
 21
-35.593
  0
LINE
  8
0
 10
-33.255
 11
-33.25
 20
-35.593
 21
-35.75
  0
LINE
  8
0
 10
-33.25
 11
-33.255
 20
-35.75
 21
-35.907
  0
LINE
  8
0
 10
-33.255
 11
-33.27
 20
-35.907
 21
-36.063
  0
LINE
  8
0
 10
-33.27
 11
-33.294
 20
-36.063
 21
-36.218
  0
LINE
  8
0
 10
-33.294
 11
-33.329
 20
-36.218
 21
-36.372
  0
LINE
  8
0
 10
-33.329
 11
-33.372
 20
-36.372
 21
-36.523
  0
LINE
  8
0
 10
-33.372
 11
-33.426
 20
-36.523
 21
-36.67
  0
LINE
  8
0
 10
-33.426
 11
-33.488
 20
-36.67
 21
-36.814
  0
LINE
  8
0
 10
-33.488
 11
-33.559
 20
-36.814
 21
-36.954
  0
LINE
  8
0
 10
-33.559
 11
-33.639
 20
-36.954
 21
-37.09
  0
LINE
  8
0
 10
-33.639
 11
-33.727
 20
-37.09
 21
-37.219
  0
LINE
  8
0
 10
-33.727
 11
-33.824
 20
-37.219
 21
-37.344
  0
LINE
  8
0
 10
-33.824
 11
-33.928
 20
-37.344
 21
-37.461
  0
LINE
  8
0
 10
-33.928
 11
-34.039
 20
-37.461
 21
-37.572
  0
LINE
  8
0
 10
-34.039
 11
-34.156
 20
-37.572
 21
-37.676
  0
LINE
  8
0
 10
-34.156
 11
-34.281
 20
-37.676
 21
-37.773
  0
LINE
  8
0
 10
-34.281
 11
-34.41
 20
-37.773
 21
-37.861
  0
LINE
  8
0
 10
-34.41
 11
-34.546
 20
-37.861
 21
-37.941
  0
LINE
  8
0
 10
-34.546
 11
-34.686
 20
-37.941
 21
-38.012
  0
LINE
  8
0
 10
-34.686
 11
-34.83
 20
-38.012
 21
-38.074
  0
LINE
  8
0
 10
-34.83
 11
-34.977
 20
-38.074
 21
-38.128
  0
LINE
  8
0
 10
-34.977
 11
-35.128
 20
-38.128
 21
-38.171
  0
LINE
  8
0
 10
-35.128
 11
-35.282
 20
-38.171
 21
-38.206
  0
LINE
  8
0
 10
-35.282
 11
-35.437
 20
-38.206
 21
-38.23
  0
LINE
  8
0
 10
-35.437
 11
-35.593
 20
-38.23
 21
-38.245
  0
LINE
  8
0
 10
-35.593
 11
-35.75
 20
-38.245
 21
-38.25
  0
LINE
  8
0
 10
-35.75
 11
-35.907
 20
-38.25
 21
-38.245
  0
LINE
  8
0
 10
-35.907
 11
-36.063
 20
-38.245
 21
-38.23
  0
LINE
  8
0
 10
-36.063
 11
-36.218
 20
-38.23
 21
-38.206
  0
LINE
  8
0
 10
-36.218
 11
-36.372
 20
-38.206
 21
-38.171
  0
LINE
  8
0
 10
-36.372
 11
-36.523
 20
-38.171
 21
-38.128
  0
LINE
  8
0
 10
-36.523
 11
-36.67
 20
-38.128
 21
-38.074
  0
LINE
  8
0
 10
-36.67
 11
-36.814
 20
-38.074
 21
-38.012
  0
LINE
  8
0
 10
-36.814
 11
-36.954
 20
-38.012
 21
-37.941
  0
LINE
  8
0
 10
-36.954
 11
-37.09
 20
-37.941
 21
-37.861
  0
LINE
  8
0
 10
-37.09
 11
-37.219
 20
-37.861
 21
-37.773
  0
LINE
  8
0
 10
-37.219
 11
-37.344
 20
-37.773
 21
-37.676
  0
LINE
  8
0
 10
-37.344
 11
-37.461
 20
-37.676
 21
-37.572
  0
LINE
  8
0
 10
-37.461
 11
-37.572
 20
-37.572
 21
-37.461
  0
LINE
  8
0
 10
-37.572
 11
-37.676
 20
-37.461
 21
-37.344
  0
LINE
  8
0
 10
-37.676
 11
-37.773
 20
-37.344
 21
-37.219
  0
LINE
  8
0
 10
-37.773
 11
-37.861
 20
-37.219
 21
-37.09
  0
LINE
  8
0
 10
-37.861
 11
-37.941
 20
-37.09
 21
-36.954
  0
LINE
  8
0
 10
-37.941
 11
-38.012
 20
-36.954
 21
-36.814
  0
LINE
  8
0
 10
-38.012
 11
-38.074
 20
-36.814
 21
-36.67
  0
LINE
  8
0
 10
-38.074
 11
-38.128
 20
-36.67
 21
-36.523
  0
LINE
  8
0
 10
-38.128
 11
-38.171
 20
-36.523
 21
-36.372
  0
LINE
  8
0
 10
-38.171
 11
-38.206
 20
-36.372
 21
-36.218
  0
LINE
  8
0
 10
-38.206
 11
-38.23
 20
-36.218
 21
-36.063
  0
LINE
  8
0
 10
-38.23
 11
-38.245
 20
-36.063
 21
-35.907
  0
LINE
  8
0
 10
-38.245
 11
-38.25
 20
-35.907
 21
-35.75
  0
LINE
  8
0
 10
-38.25
 11
-38.245
 20
35.75
 21
35.907
  0
LINE
  8
0
 10
-38.245
 11
-38.23
 20
35.907
 21
36.063
  0
LINE
  8
0
 10
-38.23
 11
-38.206
 20
36.063
 21
36.218
  0
LINE
  8
0
 10
-38.206
 11
-38.171
 20
36.218
 21
36.372
  0
LINE
  8
0
 10
-38.171
 11
-38.128
 20
36.372
 21
36.523
  0
LINE
  8
0
 10
-38.128
 11
-38.074
 20
36.523
 21
36.67
  0
LINE
  8
0
 10
-38.074
 11
-38.012
 20
36.67
 21
36.814
  0
LINE
  8
0
 10
-38.012
 11
-37.941
 20
36.814
 21
36.954
  0
LINE
  8
0
 10
-37.941
 11
-37.861
 20
36.954
 21
37.09
  0
LINE
  8
0
 10
-37.861
 11
-37.773
 20
37.09
 21
37.219
  0
LINE
  8
0
 10
-37.773
 11
-37.676
 20
37.219
 21
37.344
  0
LINE
  8
0
 10
-37.676
 11
-37.572
 20
37.344
 21
37.461
  0
LINE
  8
0
 10
-37.572
 11
-37.461
 20
37.461
 21
37.572
  0
LINE
  8
0
 10
-37.461
 11
-37.344
 20
37.572
 21
37.676
  0
LINE
  8
0
 10
-37.344
 11
-37.219
 20
37.676
 21
37.773
  0
LINE
  8
0
 10
-37.219
 11
-37.09
 20
37.773
 21
37.861
  0
LINE
  8
0
 10
-37.09
 11
-36.954
 20
37.861
 21
37.941
  0
LINE
  8
0
 10
-36.954
 11
-36.814
 20
37.941
 21
38.012
  0
LINE
  8
0
 10
-36.814
 11
-36.67
 20
38.012
 21
38.074
  0
LINE
  8
0
 10
-36.67
 11
-36.523
 20
38.074
 21
38.128
  0
LINE
  8
0
 10
-36.523
 11
-36.372
 20
38.128
 21
38.171
  0
LINE
  8
0
 10
-36.372
 11
-36.218
 20
38.171
 21
38.206
  0
LINE
  8
0
 10
-36.218
 11
-36.063
 20
38.206
 21
38.23
  0
LINE
  8
0
 10
-36.063
 11
-35.907
 20
38.23
 21
38.245
  0
LINE
  8
0
 10
-35.907
 11
-35.75
 20
38.245
 21
38.25
  0
LINE
  8
0
 10
-35.75
 11
-35.593
 20
38.25
 21
38.245
  0
LINE
  8
0
 10
-35.593
 11
-35.437
 20
38.245
 21
38.23
  0
LINE
  8
0
 10
-35.437
 11
-35.282
 20
38.23
 21
38.206
  0
LINE
  8
0
 10
-35.282
 11
-35.128
 20
38.206
 21
38.171
  0
LINE
  8
0
 10
-35.128
 11
-34.977
 20
38.171
 21
38.128
  0
LINE
  8
0
 10
-34.977
 11
-34.83
 20
38.128
 21
38.074
  0
LINE
  8
0
 10
-34.83
 11
-34.686
 20
38.074
 21
38.012
  0
LINE
  8
0
 10
-34.686
 11
-34.546
 20
38.012
 21
37.941
  0
LINE
  8
0
 10
-34.546
 11
-34.41
 20
37.941
 21
37.861
  0
LINE
  8
0
 10
-34.41
 11
-34.281
 20
37.861
 21
37.773
  0
LINE
  8
0
 10
-34.281
 11
-34.156
 20
37.773
 21
37.676
  0
LINE
  8
0
 10
-34.156
 11
-34.039
 20
37.676
 21
37.572
  0
LINE
  8
0
 10
-34.039
 11
-33.928
 20
37.572
 21
37.461
  0
LINE
  8
0
 10
-33.928
 11
-33.824
 20
37.461
 21
37.344
  0
LINE
  8
0
 10
-33.824
 11
-33.727
 20
37.344
 21
37.219
  0
LINE
  8
0
 10
-33.727
 11
-33.639
 20
37.219
 21
37.09
  0
LINE
  8
0
 10
-33.639
 11
-33.559
 20
37.09
 21
36.954
  0
LINE
  8
0
 10
-33.559
 11
-33.488
 20
36.954
 21
36.814
  0
LINE
  8
0
 10
-33.488
 11
-33.426
 20
36.814
 21
36.67
  0
LINE
  8
0
 10
-33.426
 11
-33.372
 20
36.67
 21
36.523
  0
LINE
  8
0
 10
-33.372
 11
-33.329
 20
36.523
 21
36.372
  0
LINE
  8
0
 10
-33.329
 11
-33.294
 20
36.372
 21
36.218
  0
LINE
  8
0
 10
-33.294
 11
-33.27
 20
36.218
 21
36.063
  0
LINE
  8
0
 10
-33.27
 11
-33.255
 20
36.063
 21
35.907
  0
LINE
  8
0
 10
-33.255
 11
-33.25
 20
35.907
 21
35.75
  0
LINE
  8
0
 10
-33.25
 11
-33.255
 20
35.75
 21
35.593
  0
LINE
  8
0
 10
-33.255
 11
-33.27
 20
35.593
 21
35.437
  0
LINE
  8
0
 10
-33.27
 11
-33.294
 20
35.437
 21
35.282
  0
LINE
  8
0
 10
-33.294
 11
-33.329
 20
35.282
 21
35.128
  0
LINE
  8
0
 10
-33.329
 11
-33.372
 20
35.128
 21
34.977
  0
LINE
  8
0
 10
-33.372
 11
-33.426
 20
34.977
 21
34.83
  0
LINE
  8
0
 10
-33.426
 11
-33.488
 20
34.83
 21
34.686
  0
LINE
  8
0
 10
-33.488
 11
-33.559
 20
34.686
 21
34.546
  0
LINE
  8
0
 10
-33.559
 11
-33.639
 20
34.546
 21
34.41
  0
LINE
  8
0
 10
-33.639
 11
-33.727
 20
34.41
 21
34.281
  0
LINE
  8
0
 10
-33.727
 11
-33.824
 20
34.281
 21
34.156
  0
LINE
  8
0
 10
-33.824
 11
-33.928
 20
34.156
 21
34.039
  0
LINE
  8
0
 10
-33.928
 11
-34.039
 20
34.039
 21
33.928
  0
LINE
  8
0
 10
-34.039
 11
-34.156
 20
33.928
 21
33.824
  0
LINE
  8
0
 10
-34.156
 11
-34.281
 20
33.824
 21
33.727
  0
LINE
  8
0
 10
-34.281
 11
-34.41
 20
33.727
 21
33.639
  0
LINE
  8
0
 10
-34.41
 11
-34.546
 20
33.639
 21
33.559
  0
LINE
  8
0
 10
-34.546
 11
-34.686
 20
33.559
 21
33.488
  0
LINE
  8
0
 10
-34.686
 11
-34.83
 20
33.488
 21
33.426
  0
LINE
  8
0
 10
-34.83
 11
-34.977
 20
33.426
 21
33.372
  0
LINE
  8
0
 10
-34.977
 11
-35.128
 20
33.372
 21
33.329
  0
LINE
  8
0
 10
-35.128
 11
-35.282
 20
33.329
 21
33.294
  0
LINE
  8
0
 10
-35.282
 11
-35.437
 20
33.294
 21
33.27
  0
LINE
  8
0
 10
-35.437
 11
-35.593
 20
33.27
 21
33.255
  0
LINE
  8
0
 10
-35.593
 11
-35.75
 20
33.255
 21
33.25
  0
LINE
  8
0
 10
-35.75
 11
-35.907
 20
33.25
 21
33.255
  0
LINE
  8
0
 10
-35.907
 11
-36.063
 20
33.255
 21
33.27
  0
LINE
  8
0
 10
-36.063
 11
-36.218
 20
33.27
 21
33.294
  0
LINE
  8
0
 10
-36.218
 11
-36.372
 20
33.294
 21
33.329
  0
LINE
  8
0
 10
-36.372
 11
-36.523
 20
33.329
 21
33.372
  0
LINE
  8
0
 10
-36.523
 11
-36.67
 20
33.372
 21
33.426
  0
LINE
  8
0
 10
-36.67
 11
-36.814
 20
33.426
 21
33.488
  0
LINE
  8
0
 10
-36.814
 11
-36.954
 20
33.488
 21
33.559
  0
LINE
  8
0
 10
-36.954
 11
-37.09
 20
33.559
 21
33.639
  0
LINE
  8
0
 10
-37.09
 11
-37.219
 20
33.639
 21
33.727
  0
LINE
  8
0
 10
-37.219
 11
-37.344
 20
33.727
 21
33.824
  0
LINE
  8
0
 10
-37.344
 11
-37.461
 20
33.824
 21
33.928
  0
LINE
  8
0
 10
-37.461
 11
-37.572
 20
33.928
 21
34.039
  0
LINE
  8
0
 10
-37.572
 11
-37.676
 20
34.039
 21
34.156
  0
LINE
  8
0
 10
-37.676
 11
-37.773
 20
34.156
 21
34.281
  0
LINE
  8
0
 10
-37.773
 11
-37.861
 20
34.281
 21
34.41
  0
LINE
  8
0
 10
-37.861
 11
-37.941
 20
34.41
 21
34.546
  0
LINE
  8
0
 10
-37.941
 11
-38.012
 20
34.546
 21
34.686
  0
LINE
  8
0
 10
-38.012
 11
-38.074
 20
34.686
 21
34.83
  0
LINE
  8
0
 10
-38.074
 11
-38.128
 20
34.83
 21
34.977
  0
LINE
  8
0
 10
-38.128
 11
-38.171
 20
34.977
 21
35.128
  0
LINE
  8
0
 10
-38.171
 11
-38.206
 20
35.128
 21
35.282
  0
LINE
  8
0
 10
-38.206
 11
-38.23
 20
35.282
 21
35.437
  0
LINE
  8
0
 10
-38.23
 11
-38.245
 20
35.437
 21
35.593
  0
LINE
  8
0
 10
-38.245
 11
-38.25
 20
35.593
 21
35.75
  0
LINE
  8
0
 10
33.25
 11
33.255
 20
-35.75
 21
-35.593
  0
LINE
  8
0
 10
33.255
 11
33.27
 20
-35.593
 21
-35.437
  0
LINE
  8
0
 10
33.27
 11
33.294
 20
-35.437
 21
-35.282
  0
LINE
  8
0
 10
33.294
 11
33.329
 20
-35.282
 21
-35.128
  0
LINE
  8
0
 10
33.329
 11
33.372
 20
-35.128
 21
-34.977
  0
LINE
  8
0
 10
33.372
 11
33.426
 20
-34.977
 21
-34.83
  0
LINE
  8
0
 10
33.426
 11
33.488
 20
-34.83
 21
-34.686
  0
LINE
  8
0
 10
33.488
 11
33.559
 20
-34.686
 21
-34.546
  0
LINE
  8
0
 10
33.559
 11
33.639
 20
-34.546
 21
-34.41
  0
LINE
  8
0
 10
33.639
 11
33.727
 20
-34.41
 21
-34.281
  0
LINE
  8
0
 10
33.727
 11
33.824
 20
-34.281
 21
-34.156
  0
LINE
  8
0
 10
33.824
 11
33.928
 20
-34.156
 21
-34.039
  0
LINE
  8
0
 10
33.928
 11
34.039
 20
-34.039
 21
-33.928
  0
LINE
  8
0
 10
34.039
 11
34.156
 20
-33.928
 21
-33.824
  0
LINE
  8
0
 10
34.156
 11
34.281
 20
-33.824
 21
-33.727
  0
LINE
  8
0
 10
34.281
 11
34.41
 20
-33.727
 21
-33.639
  0
LINE
  8
0
 10
34.41
 11
34.546
 20
-33.639
 21
-33.559
  0
LINE
  8
0
 10
34.546
 11
34.686
 20
-33.559
 21
-33.488
  0
LINE
  8
0
 10
34.686
 11
34.83
 20
-33.488
 21
-33.426
  0
LINE
  8
0
 10
34.83
 11
34.977
 20
-33.426
 21
-33.372
  0
LINE
  8
0
 10
34.977
 11
35.128
 20
-33.372
 21
-33.329
  0
LINE
  8
0
 10
35.128
 11
35.282
 20
-33.329
 21
-33.294
  0
LINE
  8
0
 10
35.282
 11
35.437
 20
-33.294
 21
-33.27
  0
LINE
  8
0
 10
35.437
 11
35.593
 20
-33.27
 21
-33.255
  0
LINE
  8
0
 10
35.593
 11
35.75
 20
-33.255
 21
-33.25
  0
LINE
  8
0
 10
35.75
 11
35.907
 20
-33.25
 21
-33.255
  0
LINE
  8
0
 10
35.907
 11
36.063
 20
-33.255
 21
-33.27
  0
LINE
  8
0
 10
36.063
 11
36.218
 20
-33.27
 21
-33.294
  0
LINE
  8
0
 10
36.218
 11
36.372
 20
-33.294
 21
-33.329
  0
LINE
  8
0
 10
36.372
 11
36.523
 20
-33.329
 21
-33.372
  0
LINE
  8
0
 10
36.523
 11
36.67
 20
-33.372
 21
-33.426
  0
LINE
  8
0
 10
36.67
 11
36.814
 20
-33.426
 21
-33.488
  0
LINE
  8
0
 10
36.814
 11
36.954
 20
-33.488
 21
-33.559
  0
LINE
  8
0
 10
36.954
 11
37.09
 20
-33.559
 21
-33.639
  0
LINE
  8
0
 10
37.09
 11
37.219
 20
-33.639
 21
-33.727
  0
LINE
  8
0
 10
37.219
 11
37.344
 20
-33.727
 21
-33.824
  0
LINE
  8
0
 10
37.344
 11
37.461
 20
-33.824
 21
-33.928
  0
LINE
  8
0
 10
37.461
 11
37.572
 20
-33.928
 21
-34.039
  0
LINE
  8
0
 10
37.572
 11
37.676
 20
-34.039
 21
-34.156
  0
LINE
  8
0
 10
37.676
 11
37.773
 20
-34.156
 21
-34.281
  0
LINE
  8
0
 10
37.773
 11
37.861
 20
-34.281
 21
-34.41
  0
LINE
  8
0
 10
37.861
 11
37.941
 20
-34.41
 21
-34.546
  0
LINE
  8
0
 10
37.941
 11
38.012
 20
-34.546
 21
-34.686
  0
LINE
  8
0
 10
38.012
 11
38.074
 20
-34.686
 21
-34.83
  0
LINE
  8
0
 10
38.074
 11
38.128
 20
-34.83
 21
-34.977
  0
LINE
  8
0
 10
38.128
 11
38.171
 20
-34.977
 21
-35.128
  0
LINE
  8
0
 10
38.171
 11
38.206
 20
-35.128
 21
-35.282
  0
LINE
  8
0
 10
38.206
 11
38.23
 20
-35.282
 21
-35.437
  0
LINE
  8
0
 10
38.23
 11
38.245
 20
-35.437
 21
-35.593
  0
LINE
  8
0
 10
38.245
 11
38.25
 20
-35.593
 21
-35.75
  0
LINE
  8
0
 10
38.25
 11
38.245
 20
-35.75
 21
-35.907
  0
LINE
  8
0
 10
38.245
 11
38.23
 20
-35.907
 21
-36.063
  0
LINE
  8
0
 10
38.23
 11
38.206
 20
-36.063
 21
-36.218
  0
LINE
  8
0
 10
38.206
 11
38.171
 20
-36.218
 21
-36.372
  0
LINE
  8
0
 10
38.171
 11
38.128
 20
-36.372
 21
-36.523
  0
LINE
  8
0
 10
38.128
 11
38.074
 20
-36.523
 21
-36.67
  0
LINE
  8
0
 10
38.074
 11
38.012
 20
-36.67
 21
-36.814
  0
LINE
  8
0
 10
38.012
 11
37.941
 20
-36.814
 21
-36.954
  0
LINE
  8
0
 10
37.941
 11
37.861
 20
-36.954
 21
-37.09
  0
LINE
  8
0
 10
37.861
 11
37.773
 20
-37.09
 21
-37.219
  0
LINE
  8
0
 10
37.773
 11
37.676
 20
-37.219
 21
-37.344
  0
LINE
  8
0
 10
37.676
 11
37.572
 20
-37.344
 21
-37.461
  0
LINE
  8
0
 10
37.572
 11
37.461
 20
-37.461
 21
-37.572
  0
LINE
  8
0
 10
37.461
 11
37.344
 20
-37.572
 21
-37.676
  0
LINE
  8
0
 10
37.344
 11
37.219
 20
-37.676
 21
-37.773
  0
LINE
  8
0
 10
37.219
 11
37.09
 20
-37.773
 21
-37.861
  0
LINE
  8
0
 10
37.09
 11
36.954
 20
-37.861
 21
-37.941
  0
LINE
  8
0
 10
36.954
 11
36.814
 20
-37.941
 21
-38.012
  0
LINE
  8
0
 10
36.814
 11
36.67
 20
-38.012
 21
-38.074
  0
LINE
  8
0
 10
36.67
 11
36.523
 20
-38.074
 21
-38.128
  0
LINE
  8
0
 10
36.523
 11
36.372
 20
-38.128
 21
-38.171
  0
LINE
  8
0
 10
36.372
 11
36.218
 20
-38.171
 21
-38.206
  0
LINE
  8
0
 10
36.218
 11
36.063
 20
-38.206
 21
-38.23
  0
LINE
  8
0
 10
36.063
 11
35.907
 20
-38.23
 21
-38.245
  0
LINE
  8
0
 10
35.907
 11
35.75
 20
-38.245
 21
-38.25
  0
LINE
  8
0
 10
35.75
 11
35.593
 20
-38.25
 21
-38.245
  0
LINE
  8
0
 10
35.593
 11
35.437
 20
-38.245
 21
-38.23
  0
LINE
  8
0
 10
35.437
 11
35.282
 20
-38.23
 21
-38.206
  0
LINE
  8
0
 10
35.282
 11
35.128
 20
-38.206
 21
-38.171
  0
LINE
  8
0
 10
35.128
 11
34.977
 20
-38.171
 21
-38.128
  0
LINE
  8
0
 10
34.977
 11
34.83
 20
-38.128
 21
-38.074
  0
LINE
  8
0
 10
34.83
 11
34.686
 20
-38.074
 21
-38.012
  0
LINE
  8
0
 10
34.686
 11
34.546
 20
-38.012
 21
-37.941
  0
LINE
  8
0
 10
34.546
 11
34.41
 20
-37.941
 21
-37.861
  0
LINE
  8
0
 10
34.41
 11
34.281
 20
-37.861
 21
-37.773
  0
LINE
  8
0
 10
34.281
 11
34.156
 20
-37.773
 21
-37.676
  0
LINE
  8
0
 10
34.156
 11
34.039
 20
-37.676
 21
-37.572
  0
LINE
  8
0
 10
34.039
 11
33.928
 20
-37.572
 21
-37.461
  0
LINE
  8
0
 10
33.928
 11
33.824
 20
-37.461
 21
-37.344
  0
LINE
  8
0
 10
33.824
 11
33.727
 20
-37.344
 21
-37.219
  0
LINE
  8
0
 10
33.727
 11
33.639
 20
-37.219
 21
-37.09
  0
LINE
  8
0
 10
33.639
 11
33.559
 20
-37.09
 21
-36.954
  0
LINE
  8
0
 10
33.559
 11
33.488
 20
-36.954
 21
-36.814
  0
LINE
  8
0
 10
33.488
 11
33.426
 20
-36.814
 21
-36.67
  0
LINE
  8
0
 10
33.426
 11
33.372
 20
-36.67
 21
-36.523
  0
LINE
  8
0
 10
33.372
 11
33.329
 20
-36.523
 21
-36.372
  0
LINE
  8
0
 10
33.329
 11
33.294
 20
-36.372
 21
-36.218
  0
LINE
  8
0
 10
33.294
 11
33.27
 20
-36.218
 21
-36.063
  0
LINE
  8
0
 10
33.27
 11
33.255
 20
-36.063
 21
-35.907
  0
LINE
  8
0
 10
33.255
 11
33.25
 20
-35.907
 21
-35.75
  0
LINE
  8
0
 10
33.25
 11
33.255
 20
35.75
 21
35.907
  0
LINE
  8
0
 10
33.255
 11
33.27
 20
35.907
 21
36.063
  0
LINE
  8
0
 10
33.27
 11
33.294
 20
36.063
 21
36.218
  0
LINE
  8
0
 10
33.294
 11
33.329
 20
36.218
 21
36.372
  0
LINE
  8
0
 10
33.329
 11
33.372
 20
36.372
 21
36.523
  0
LINE
  8
0
 10
33.372
 11
33.426
 20
36.523
 21
36.67
  0
LINE
  8
0
 10
33.426
 11
33.488
 20
36.67
 21
36.814
  0
LINE
  8
0
 10
33.488
 11
33.559
 20
36.814
 21
36.954
  0
LINE
  8
0
 10
33.559
 11
33.639
 20
36.954
 21
37.09
  0
LINE
  8
0
 10
33.639
 11
33.727
 20
37.09
 21
37.219
  0
LINE
  8
0
 10
33.727
 11
33.824
 20
37.219
 21
37.344
  0
LINE
  8
0
 10
33.824
 11
33.928
 20
37.344
 21
37.461
  0
LINE
  8
0
 10
33.928
 11
34.039
 20
37.461
 21
37.572
  0
LINE
  8
0
 10
34.039
 11
34.156
 20
37.572
 21
37.676
  0
LINE
  8
0
 10
34.156
 11
34.281
 20
37.676
 21
37.773
  0
LINE
  8
0
 10
34.281
 11
34.41
 20
37.773
 21
37.861
  0
LINE
  8
0
 10
34.41
 11
34.546
 20
37.861
 21
37.941
  0
LINE
  8
0
 10
34.546
 11
34.686
 20
37.941
 21
38.012
  0
LINE
  8
0
 10
34.686
 11
34.83
 20
38.012
 21
38.074
  0
LINE
  8
0
 10
34.83
 11
34.977
 20
38.074
 21
38.128
  0
LINE
  8
0
 10
34.977
 11
35.128
 20
38.128
 21
38.171
  0
LINE
  8
0
 10
35.128
 11
35.282
 20
38.171
 21
38.206
  0
LINE
  8
0
 10
35.282
 11
35.437
 20
38.206
 21
38.23
  0
LINE
  8
0
 10
35.437
 11
35.593
 20
38.23
 21
38.245
  0
LINE
  8
0
 10
35.593
 11
35.75
 20
38.245
 21
38.25
  0
LINE
  8
0
 10
35.75
 11
35.907
 20
38.25
 21
38.245
  0
LINE
  8
0
 10
35.907
 11
36.063
 20
38.245
 21
38.23
  0
LINE
  8
0
 10
36.063
 11
36.218
 20
38.23
 21
38.206
  0
LINE
  8
0
 10
36.218
 11
36.372
 20
38.206
 21
38.171
  0
LINE
  8
0
 10
36.372
 11
36.523
 20
38.171
 21
38.128
  0
LINE
  8
0
 10
36.523
 11
36.67
 20
38.128
 21
38.074
  0
LINE
  8
0
 10
36.67
 11
36.814
 20
38.074
 21
38.012
  0
LINE
  8
0
 10
36.814
 11
36.954
 20
38.012
 21
37.941
  0
LINE
  8
0
 10
36.954
 11
37.09
 20
37.941
 21
37.861
  0
LINE
  8
0
 10
37.09
 11
37.219
 20
37.861
 21
37.773
  0
LINE
  8
0
 10
37.219
 11
37.344
 20
37.773
 21
37.676
  0
LINE
  8
0
 10
37.344
 11
37.461
 20
37.676
 21
37.572
  0
LINE
  8
0
 10
37.461
 11
37.572
 20
37.572
 21
37.461
  0
LINE
  8
0
 10
37.572
 11
37.676
 20
37.461
 21
37.344
  0
LINE
  8
0
 10
37.676
 11
37.773
 20
37.344
 21
37.219
  0
LINE
  8
0
 10
37.773
 11
37.861
 20
37.219
 21
37.09
  0
LINE
  8
0
 10
37.861
 11
37.941
 20
37.09
 21
36.954
  0
LINE
  8
0
 10
37.941
 11
38.012
 20
36.954
 21
36.814
  0
LINE
  8
0
 10
38.012
 11
38.074
 20
36.814
 21
36.67
  0
LINE
  8
0
 10
38.074
 11
38.128
 20
36.67
 21
36.523
  0
LINE
  8
0
 10
38.128
 11
38.171
 20
36.523
 21
36.372
  0
LINE
  8
0
 10
38.171
 11
38.206
 20
36.372
 21
36.218
  0
LINE
  8
0
 10
38.206
 11
38.23
 20
36.218
 21
36.063
  0
LINE
  8
0
 10
38.23
 11
38.245
 20
36.063
 21
35.907
  0
LINE
  8
0
 10
38.245
 11
38.25
 20
35.907
 21
35.75
  0
LINE
  8
0
 10
38.25
 11
38.245
 20
35.75
 21
35.593
  0
LINE
  8
0
 10
38.245
 11
38.23
 20
35.593
 21
35.437
  0
LINE
  8
0
 10
38.23
 11
38.206
 20
35.437
 21
35.282
  0
LINE
  8
0
 10
38.206
 11
38.171
 20
35.282
 21
35.128
  0
LINE
  8
0
 10
38.171
 11
38.128
 20
35.128
 21
34.977
  0
LINE
  8
0
 10
38.128
 11
38.074
 20
34.977
 21
34.83
  0
LINE
  8
0
 10
38.074
 11
38.012
 20
34.83
 21
34.686
  0
LINE
  8
0
 10
38.012
 11
37.941
 20
34.686
 21
34.546
  0
LINE
  8
0
 10
37.941
 11
37.861
 20
34.546
 21
34.41
  0
LINE
  8
0
 10
37.861
 11
37.773
 20
34.41
 21
34.281
  0
LINE
  8
0
 10
37.773
 11
37.676
 20
34.281
 21
34.156
  0
LINE
  8
0
 10
37.676
 11
37.572
 20
34.156
 21
34.039
  0
LINE
  8
0
 10
37.572
 11
37.461
 20
34.039
 21
33.928
  0
LINE
  8
0
 10
37.461
 11
37.344
 20
33.928
 21
33.824
  0
LINE
  8
0
 10
37.344
 11
37.219
 20
33.824
 21
33.727
  0
LINE
  8
0
 10
37.219
 11
37.09
 20
33.727
 21
33.639
  0
LINE
  8
0
 10
37.09
 11
36.954
 20
33.639
 21
33.559
  0
LINE
  8
0
 10
36.954
 11
36.814
 20
33.559
 21
33.488
  0
LINE
  8
0
 10
36.814
 11
36.67
 20
33.488
 21
33.426
  0
LINE
  8
0
 10
36.67
 11
36.523
 20
33.426
 21
33.372
  0
LINE
  8
0
 10
36.523
 11
36.372
 20
33.372
 21
33.329
  0
LINE
  8
0
 10
36.372
 11
36.218
 20
33.329
 21
33.294
  0
LINE
  8
0
 10
36.218
 11
36.063
 20
33.294
 21
33.27
  0
LINE
  8
0
 10
36.063
 11
35.907
 20
33.27
 21
33.255
  0
LINE
  8
0
 10
35.907
 11
35.75
 20
33.255
 21
33.25
  0
LINE
  8
0
 10
35.75
 11
35.593
 20
33.25
 21
33.255
  0
LINE
  8
0
 10
35.593
 11
35.437
 20
33.255
 21
33.27
  0
LINE
  8
0
 10
35.437
 11
35.282
 20
33.27
 21
33.294
  0
LINE
  8
0
 10
35.282
 11
35.128
 20
33.294
 21
33.329
  0
LINE
  8
0
 10
35.128
 11
34.977
 20
33.329
 21
33.372
  0
LINE
  8
0
 10
34.977
 11
34.83
 20
33.372
 21
33.426
  0
LINE
  8
0
 10
34.83
 11
34.686
 20
33.426
 21
33.488
  0
LINE
  8
0
 10
34.686
 11
34.546
 20
33.488
 21
33.559
  0
LINE
  8
0
 10
34.546
 11
34.41
 20
33.559
 21
33.639
  0
LINE
  8
0
 10
34.41
 11
34.281
 20
33.639
 21
33.727
  0
LINE
  8
0
 10
34.281
 11
34.156
 20
33.727
 21
33.824
  0
LINE
  8
0
 10
34.156
 11
34.039
 20
33.824
 21
33.928
  0
LINE
  8
0
 10
34.039
 11
33.928
 20
33.928
 21
34.039
  0
LINE
  8
0
 10
33.928
 11
33.824
 20
34.039
 21
34.156
  0
LINE
  8
0
 10
33.824
 11
33.727
 20
34.156
 21
34.281
  0
LINE
  8
0
 10
33.727
 11
33.639
 20
34.281
 21
34.41
  0
LINE
  8
0
 10
33.639
 11
33.559
 20
34.41
 21
34.546
  0
LINE
  8
0
 10
33.559
 11
33.488
 20
34.546
 21
34.686
  0
LINE
  8
0
 10
33.488
 11
33.426
 20
34.686
 21
34.83
  0
LINE
  8
0
 10
33.426
 11
33.372
 20
34.83
 21
34.977
  0
LINE
  8
0
 10
33.372
 11
33.329
 20
34.977
 21
35.128
  0
LINE
  8
0
 10
33.329
 11
33.294
 20
35.128
 21
35.282
  0
LINE
  8
0
 10
33.294
 11
33.27
 20
35.282
 21
35.437
  0
LINE
  8
0
 10
33.27
 11
33.255
 20
35.437
 21
35.593
  0
LINE
  8
0
 10
33.255
 11
33.25
 20
35.593
 21
35.75
  0
LINE
  8
0
 10
49
 11
49.006
 20
-52
 21
-51.812
  0
LINE
  8
0
 10
49.006
 11
49.024
 20
-51.812
 21
-51.624
  0
LINE
  8
0
 10
49.024
 11
49.053
 20
-51.624
 21
-51.438
  0
LINE
  8
0
 10
49.053
 11
49.094
 20
-51.438
 21
-51.254
  0
LINE
  8
0
 10
49.094
 11
49.147
 20
-51.254
 21
-51.073
  0
LINE
  8
0
 10
49.147
 11
49.211
 20
-51.073
 21
-50.896
  0
LINE
  8
0
 10
49.211
 11
49.286
 20
-50.896
 21
-50.723
  0
LINE
  8
0
 10
49.286
 11
49.371
 20
-50.723
 21
-50.555
  0
LINE
  8
0
 10
49.371
 11
49.467
 20
-50.555
 21
-50.393
  0
LINE
  8
0
 10
49.467
 11
49.573
 20
-50.393
 21
-50.237
  0
LINE
  8
0
 10
49.573
 11
49.688
 20
-50.237
 21
-50.088
  0
LINE
  8
0
 10
49.688
 11
49.813
 20
-50.088
 21
-49.946
  0
LINE
  8
0
 10
49.813
 11
49.946
 20
-49.946
 21
-49.813
  0
LINE
  8
0
 10
49.946
 11
50.088
 20
-49.813
 21
-49.688
  0
LINE
  8
0
 10
50.088
 11
50.237
 20
-49.688
 21
-49.573
  0
LINE
  8
0
 10
50.237
 11
50.393
 20
-49.573
 21
-49.467
  0
LINE
  8
0
 10
50.393
 11
50.555
 20
-49.467
 21
-49.371
  0
LINE
  8
0
 10
50.555
 11
50.723
 20
-49.371
 21
-49.286
  0
LINE
  8
0
 10
50.723
 11
50.896
 20
-49.286
 21
-49.211
  0
LINE
  8
0
 10
50.896
 11
51.073
 20
-49.211
 21
-49.147
  0
LINE
  8
0
 10
51.073
 11
51.254
 20
-49.147
 21
-49.094
  0
LINE
  8
0
 10
51.254
 11
51.438
 20
-49.094
 21
-49.053
  0
LINE
  8
0
 10
51.438
 11
51.624
 20
-49.053
 21
-49.024
  0
LINE
  8
0
 10
51.624
 11
51.812
 20
-49.024
 21
-49.006
  0
LINE
  8
0
 10
51.812
 11
52
 20
-49.006
 21
-49
  0
LINE
  8
0
 10
52
 11
52.188
 20
-49
 21
-49.006
  0
LINE
  8
0
 10
52.188
 11
52.376
 20
-49.006
 21
-49.024
  0
LINE
  8
0
 10
52.376
 11
52.562
 20
-49.024
 21
-49.053
  0
LINE
  8
0
 10
52.562
 11
52.746
 20
-49.053
 21
-49.094
  0
LINE
  8
0
 10
52.746
 11
52.927
 20
-49.094
 21
-49.147
  0
LINE
  8
0
 10
52.927
 11
53.104
 20
-49.147
 21
-49.211
  0
LINE
  8
0
 10
53.104
 11
53.277
 20
-49.211
 21
-49.286
  0
LINE
  8
0
 10
53.277
 11
53.445
 20
-49.286
 21
-49.371
  0
LINE
  8
0
 10
53.445
 11
53.607
 20
-49.371
 21
-49.467
  0
LINE
  8
0
 10
53.607
 11
53.763
 20
-49.467
 21
-49.573
  0
LINE
  8
0
 10
53.763
 11
53.912
 20
-49.573
 21
-49.688
  0
LINE
  8
0
 10
53.912
 11
54.054
 20
-49.688
 21
-49.813
  0
LINE
  8
0
 10
54.054
 11
54.187
 20
-49.813
 21
-49.946
  0
LINE
  8
0
 10
54.187
 11
54.312
 20
-49.946
 21
-50.088
  0
LINE
  8
0
 10
54.312
 11
54.427
 20
-50.088
 21
-50.237
  0
LINE
  8
0
 10
54.427
 11
54.533
 20
-50.237
 21
-50.393
  0
LINE
  8
0
 10
54.533
 11
54.629
 20
-50.393
 21
-50.555
  0
LINE
  8
0
 10
54.629
 11
54.714
 20
-50.555
 21
-50.723
  0
LINE
  8
0
 10
54.714
 11
54.789
 20
-50.723
 21
-50.896
  0
LINE
  8
0
 10
54.789
 11
54.853
 20
-50.896
 21
-51.073
  0
LINE
  8
0
 10
54.853
 11
54.906
 20
-51.073
 21
-51.254
  0
LINE
  8
0
 10
54.906
 11
54.947
 20
-51.254
 21
-51.438
  0
LINE
  8
0
 10
54.947
 11
54.976
 20
-51.438
 21
-51.624
  0
LINE
  8
0
 10
54.976
 11
54.994
 20
-51.624
 21
-51.812
  0
LINE
  8
0
 10
54.994
 11
55
 20
-51.812
 21
-52
  0
LINE
  8
0
 10
55
 11
54.994
 20
-52
 21
-52.188
  0
LINE
  8
0
 10
54.994
 11
54.976
 20
-52.188
 21
-52.376
  0
LINE
  8
0
 10
54.976
 11
54.947
 20
-52.376
 21
-52.562
  0
LINE
  8
0
 10
54.947
 11
54.906
 20
-52.562
 21
-52.746
  0
LINE
  8
0
 10
54.906
 11
54.853
 20
-52.746
 21
-52.927
  0
LINE
  8
0
 10
54.853
 11
54.789
 20
-52.927
 21
-53.104
  0
LINE
  8
0
 10
54.789
 11
54.714
 20
-53.104
 21
-53.277
  0
LINE
  8
0
 10
54.714
 11
54.629
 20
-53.277
 21
-53.445
  0
LINE
  8
0
 10
54.629
 11
54.533
 20
-53.445
 21
-53.607
  0
LINE
  8
0
 10
54.533
 11
54.427
 20
-53.607
 21
-53.763
  0
LINE
  8
0
 10
54.427
 11
54.312
 20
-53.763
 21
-53.912
  0
LINE
  8
0
 10
54.312
 11
54.187
 20
-53.912
 21
-54.054
  0
LINE
  8
0
 10
54.187
 11
54.054
 20
-54.054
 21
-54.187
  0
LINE
  8
0
 10
54.054
 11
53.912
 20
-54.187
 21
-54.312
  0
LINE
  8
0
 10
53.912
 11
53.763
 20
-54.312
 21
-54.427
  0
LINE
  8
0
 10
53.763
 11
53.607
 20
-54.427
 21
-54.533
  0
LINE
  8
0
 10
53.607
 11
53.445
 20
-54.533
 21
-54.629
  0
LINE
  8
0
 10
53.445
 11
53.277
 20
-54.629
 21
-54.714
  0
LINE
  8
0
 10
53.277
 11
53.104
 20
-54.714
 21
-54.789
  0
LINE
  8
0
 10
53.104
 11
52.927
 20
-54.789
 21
-54.853
  0
LINE
  8
0
 10
52.927
 11
52.746
 20
-54.853
 21
-54.906
  0
LINE
  8
0
 10
52.746
 11
52.562
 20
-54.906
 21
-54.947
  0
LINE
  8
0
 10
52.562
 11
52.376
 20
-54.947
 21
-54.976
  0
LINE
  8
0
 10
52.376
 11
52.188
 20
-54.976
 21
-54.994
  0
LINE
  8
0
 10
52.188
 11
52
 20
-54.994
 21
-55
  0
LINE
  8
0
 10
52
 11
51.812
 20
-55
 21
-54.994
  0
LINE
  8
0
 10
51.812
 11
51.624
 20
-54.994
 21
-54.976
  0
LINE
  8
0
 10
51.624
 11
51.438
 20
-54.976
 21
-54.947
  0
LINE
  8
0
 10
51.438
 11
51.254
 20
-54.947
 21
-54.906
  0
LINE
  8
0
 10
51.254
 11
51.073
 20
-54.906
 21
-54.853
  0
LINE
  8
0
 10
51.073
 11
50.896
 20
-54.853
 21
-54.789
  0
LINE
  8
0
 10
50.896
 11
50.723
 20
-54.789
 21
-54.714
  0
LINE
  8
0
 10
50.723
 11
50.555
 20
-54.714
 21
-54.629
  0
LINE
  8
0
 10
50.555
 11
50.393
 20
-54.629
 21
-54.533
  0
LINE
  8
0
 10
50.393
 11
50.237
 20
-54.533
 21
-54.427
  0
LINE
  8
0
 10
50.237
 11
50.088
 20
-54.427
 21
-54.312
  0
LINE
  8
0
 10
50.088
 11
49.946
 20
-54.312
 21
-54.187
  0
LINE
  8
0
 10
49.946
 11
49.813
 20
-54.187
 21
-54.054
  0
LINE
  8
0
 10
49.813
 11
49.688
 20
-54.054
 21
-53.912
  0
LINE
  8
0
 10
49.688
 11
49.573
 20
-53.912
 21
-53.763
  0
LINE
  8
0
 10
49.573
 11
49.467
 20
-53.763
 21
-53.607
  0
LINE
  8
0
 10
49.467
 11
49.371
 20
-53.607
 21
-53.445
  0
LINE
  8
0
 10
49.371
 11
49.286
 20
-53.445
 21
-53.277
  0
LINE
  8
0
 10
49.286
 11
49.211
 20
-53.277
 21
-53.104
  0
LINE
  8
0
 10
49.211
 11
49.147
 20
-53.104
 21
-52.927
  0
LINE
  8
0
 10
49.147
 11
49.094
 20
-52.927
 21
-52.746
  0
LINE
  8
0
 10
49.094
 11
49.053
 20
-52.746
 21
-52.562
  0
LINE
  8
0
 10
49.053
 11
49.024
 20
-52.562
 21
-52.376
  0
LINE
  8
0
 10
49.024
 11
49.006
 20
-52.376
 21
-52.188
  0
LINE
  8
0
 10
49.006
 11
49
 20
-52.188
 21
-52
  0
LINE
  8
0
 10
49
 11
49.006
 20
52
 21
52.188
  0
LINE
  8
0
 10
49.006
 11
49.024
 20
52.188
 21
52.376
  0
LINE
  8
0
 10
49.024
 11
49.053
 20
52.376
 21
52.562
  0
LINE
  8
0
 10
49.053
 11
49.094
 20
52.562
 21
52.746
  0
LINE
  8
0
 10
49.094
 11
49.147
 20
52.746
 21
52.927
  0
LINE
  8
0
 10
49.147
 11
49.211
 20
52.927
 21
53.104
  0
LINE
  8
0
 10
49.211
 11
49.286
 20
53.104
 21
53.277
  0
LINE
  8
0
 10
49.286
 11
49.371
 20
53.277
 21
53.445
  0
LINE
  8
0
 10
49.371
 11
49.467
 20
53.445
 21
53.607
  0
LINE
  8
0
 10
49.467
 11
49.573
 20
53.607
 21
53.763
  0
LINE
  8
0
 10
49.573
 11
49.688
 20
53.763
 21
53.912
  0
LINE
  8
0
 10
49.688
 11
49.813
 20
53.912
 21
54.054
  0
LINE
  8
0
 10
49.813
 11
49.946
 20
54.054
 21
54.187
  0
LINE
  8
0
 10
49.946
 11
50.088
 20
54.187
 21
54.312
  0
LINE
  8
0
 10
50.088
 11
50.237
 20
54.312
 21
54.427
  0
LINE
  8
0
 10
50.237
 11
50.393
 20
54.427
 21
54.533
  0
LINE
  8
0
 10
50.393
 11
50.555
 20
54.533
 21
54.629
  0
LINE
  8
0
 10
50.555
 11
50.723
 20
54.629
 21
54.714
  0
LINE
  8
0
 10
50.723
 11
50.896
 20
54.714
 21
54.789
  0
LINE
  8
0
 10
50.896
 11
51.073
 20
54.789
 21
54.853
  0
LINE
  8
0
 10
51.073
 11
51.254
 20
54.853
 21
54.906
  0
LINE
  8
0
 10
51.254
 11
51.438
 20
54.906
 21
54.947
  0
LINE
  8
0
 10
51.438
 11
51.624
 20
54.947
 21
54.976
  0
LINE
  8
0
 10
51.624
 11
51.812
 20
54.976
 21
54.994
  0
LINE
  8
0
 10
51.812
 11
52
 20
54.994
 21
55
  0
LINE
  8
0
 10
52
 11
52.188
 20
55
 21
54.994
  0
LINE
  8
0
 10
52.188
 11
52.376
 20
54.994
 21
54.976
  0
LINE
  8
0
 10
52.376
 11
52.562
 20
54.976
 21
54.947
  0
LINE
  8
0
 10
52.562
 11
52.746
 20
54.947
 21
54.906
  0
LINE
  8
0
 10
52.746
 11
52.927
 20
54.906
 21
54.853
  0
LINE
  8
0
 10
52.927
 11
53.104
 20
54.853
 21
54.789
  0
LINE
  8
0
 10
53.104
 11
53.277
 20
54.789
 21
54.714
  0
LINE
  8
0
 10
53.277
 11
53.445
 20
54.714
 21
54.629
  0
LINE
  8
0
 10
53.445
 11
53.607
 20
54.629
 21
54.533
  0
LINE
  8
0
 10
53.607
 11
53.763
 20
54.533
 21
54.427
  0
LINE
  8
0
 10
53.763
 11
53.912
 20
54.427
 21
54.312
  0
LINE
  8
0
 10
53.912
 11
54.054
 20
54.312
 21
54.187
  0
LINE
  8
0
 10
54.054
 11
54.187
 20
54.187
 21
54.054
  0
LINE
  8
0
 10
54.187
 11
54.312
 20
54.054
 21
53.912
  0
LINE
  8
0
 10
54.312
 11
54.427
 20
53.912
 21
53.763
  0
LINE
  8
0
 10
54.427
 11
54.533
 20
53.763
 21
53.607
  0
LINE
  8
0
 10
54.533
 11
54.629
 20
53.607
 21
53.445
  0
LINE
  8
0
 10
54.629
 11
54.714
 20
53.445
 21
53.277
  0
LINE
  8
0
 10
54.714
 11
54.789
 20
53.277
 21
53.104
  0
LINE
  8
0
 10
54.789
 11
54.853
 20
53.104
 21
52.927
  0
LINE
  8
0
 10
54.853
 11
54.906
 20
52.927
 21
52.746
  0
LINE
  8
0
 10
54.906
 11
54.947
 20
52.746
 21
52.562
  0
LINE
  8
0
 10
54.947
 11
54.976
 20
52.562
 21
52.376
  0
LINE
  8
0
 10
54.976
 11
54.994
 20
52.376
 21
52.188
  0
LINE
  8
0
 10
54.994
 11
55
 20
52.188
 21
52
  0
LINE
  8
0
 10
55
 11
54.994
 20
52
 21
51.812
  0
LINE
  8
0
 10
54.994
 11
54.976
 20
51.812
 21
51.624
  0
LINE
  8
0
 10
54.976
 11
54.947
 20
51.624
 21
51.438
  0
LINE
  8
0
 10
54.947
 11
54.906
 20
51.438
 21
51.254
  0
LINE
  8
0
 10
54.906
 11
54.853
 20
51.254
 21
51.073
  0
LINE
  8
0
 10
54.853
 11
54.789
 20
51.073
 21
50.896
  0
LINE
  8
0
 10
54.789
 11
54.714
 20
50.896
 21
50.723
  0
LINE
  8
0
 10
54.714
 11
54.629
 20
50.723
 21
50.555
  0
LINE
  8
0
 10
54.629
 11
54.533
 20
50.555
 21
50.393
  0
LINE
  8
0
 10
54.533
 11
54.427
 20
50.393
 21
50.237
  0
LINE
  8
0
 10
54.427
 11
54.312
 20
50.237
 21
50.088
  0
LINE
  8
0
 10
54.312
 11
54.187
 20
50.088
 21
49.946
  0
LINE
  8
0
 10
54.187
 11
54.054
 20
49.946
 21
49.813
  0
LINE
  8
0
 10
54.054
 11
53.912
 20
49.813
 21
49.688
  0
LINE
  8
0
 10
53.912
 11
53.763
 20
49.688
 21
49.573
  0
LINE
  8
0
 10
53.763
 11
53.607
 20
49.573
 21
49.467
  0
LINE
  8
0
 10
53.607
 11
53.445
 20
49.467
 21
49.371
  0
LINE
  8
0
 10
53.445
 11
53.277
 20
49.371
 21
49.286
  0
LINE
  8
0
 10
53.277
 11
53.104
 20
49.286
 21
49.211
  0
LINE
  8
0
 10
53.104
 11
52.927
 20
49.211
 21
49.147
  0
LINE
  8
0
 10
52.927
 11
52.746
 20
49.147
 21
49.094
  0
LINE
  8
0
 10
52.746
 11
52.562
 20
49.094
 21
49.053
  0
LINE
  8
0
 10
52.562
 11
52.376
 20
49.053
 21
49.024
  0
LINE
  8
0
 10
52.376
 11
52.188
 20
49.024
 21
49.006
  0
LINE
  8
0
 10
52.188
 11
52
 20
49.006
 21
49
  0
LINE
  8
0
 10
52
 11
51.812
 20
49
 21
49.006
  0
LINE
  8
0
 10
51.812
 11
51.624
 20
49.006
 21
49.024
  0
LINE
  8
0
 10
51.624
 11
51.438
 20
49.024
 21
49.053
  0
LINE
  8
0
 10
51.438
 11
51.254
 20
49.053
 21
49.094
  0
LINE
  8
0
 10
51.254
 11
51.073
 20
49.094
 21
49.147
  0
LINE
  8
0
 10
51.073
 11
50.896
 20
49.147
 21
49.211
  0
LINE
  8
0
 10
50.896
 11
50.723
 20
49.211
 21
49.286
  0
LINE
  8
0
 10
50.723
 11
50.555
 20
49.286
 21
49.371
  0
LINE
  8
0
 10
50.555
 11
50.393
 20
49.371
 21
49.467
  0
LINE
  8
0
 10
50.393
 11
50.237
 20
49.467
 21
49.573
  0
LINE
  8
0
 10
50.237
 11
50.088
 20
49.573
 21
49.688
  0
LINE
  8
0
 10
50.088
 11
49.946
 20
49.688
 21
49.813
  0
LINE
  8
0
 10
49.946
 11
49.813
 20
49.813
 21
49.946
  0
LINE
  8
0
 10
49.813
 11
49.688
 20
49.946
 21
50.088
  0
LINE
  8
0
 10
49.688
 11
49.573
 20
50.088
 21
50.237
  0
LINE
  8
0
 10
49.573
 11
49.467
 20
50.237
 21
50.393
  0
LINE
  8
0
 10
49.467
 11
49.371
 20
50.393
 21
50.555
  0
LINE
  8
0
 10
49.371
 11
49.286
 20
50.555
 21
50.723
  0
LINE
  8
0
 10
49.286
 11
49.211
 20
50.723
 21
50.896
  0
LINE
  8
0
 10
49.211
 11
49.147
 20
50.896
 21
51.073
  0
LINE
  8
0
 10
49.147
 11
49.094
 20
51.073
 21
51.254
  0
LINE
  8
0
 10
49.094
 11
49.053
 20
51.254
 21
51.438
  0
LINE
  8
0
 10
49.053
 11
49.024
 20
51.438
 21
51.624
  0
LINE
  8
0
 10
49.024
 11
49.006
 20
51.624
 21
51.812
  0
LINE
  8
0
 10
49.006
 11
49
 20
51.812
 21
52
  0
ENDSEC
  0
SECTION
  2
OBJECTS
  0
DICTIONARY
  0
ENDSEC
  0
EOF
