  0
SECTION
  2
BLOCKS
  0
ENDSEC
  0
SECTION
  2
ENTITIES
  0
LINE
  8
0
 10
13
 20
5
 11
-13
 21
5
  0
LINE
  8
0
 10
-13
 20
5
 11
-13
 21
-5
  0
LINE
  8
0
 10
-13
 20
-5
 11
13
 21
-5
  0
LINE
  8
0
 10
13
 20
-5
 11
13
 21
5
  0
LINE
  8
0
 10
-5.16953
 20
-2.69467
 11
-5.50592
 21
-2.65216
  0
LINE
  8
0
 10
-5.50592
 20
-2.65216
 11
-5.83434
 21
-2.56784
  0
LINE
  8
0
 10
-5.83434
 20
-2.56784
 11
-6.1496
 21
-2.44302
  0
LINE
  8
0
 10
-6.1496
 20
-2.44302
 11
-6.44673
 21
-2.27968
  0
LINE
  8
0
 10
-6.44673
 20
-2.27968
 11
-6.72104
 21
-2.08038
  0
LINE
  8
0
 10
-6.72104
 20
-2.08038
 11
-6.9682
 21
-1.84827
  0
LINE
  8
0
 10
-6.9682
 20
-1.84827
 11
-7.18434
 21
-1.58701
  0
LINE
  8
0
 10
-7.18434
 20
-1.58701
 11
-7.36603
 21
-1.30072
  0
LINE
  8
0
 10
-7.36603
 20
-1.30072
 11
-7.51039
 21
-0.993927
  0
LINE
  8
0
 10
-7.51039
 20
-0.993927
 11
-7.61517
 21
-0.671448
  0
LINE
  8
0
 10
-7.61517
 20
-0.671448
 11
-7.6787
 21
-0.338394
  0
LINE
  8
0
 10
-7.6787
 20
-0.338394
 11
-7.7
 21
0
  0
LINE
  8
0
 10
-7.7
 20
0
 11
-7.6787
 21
0.338394
  0
LINE
  8
0
 10
-7.6787
 20
0.338394
 11
-7.61517
 21
0.671448
  0
LINE
  8
0
 10
-7.61517
 20
0.671448
 11
-7.51039
 21
0.993927
  0
LINE
  8
0
 10
-7.51039
 20
0.993927
 11
-7.36603
 21
1.30072
  0
LINE
  8
0
 10
-7.36603
 20
1.30072
 11
-7.18434
 21
1.58701
  0
LINE
  8
0
 10
-7.18434
 20
1.58701
 11
-6.9682
 21
1.84827
  0
LINE
  8
0
 10
-6.9682
 20
1.84827
 11
-6.72104
 21
2.08038
  0
LINE
  8
0
 10
-6.72104
 20
2.08038
 11
-6.44673
 21
2.27968
  0
LINE
  8
0
 10
-6.44673
 20
2.27968
 11
-6.1496
 21
2.44302
  0
LINE
  8
0
 10
-6.1496
 20
2.44302
 11
-5.83434
 21
2.56784
  0
LINE
  8
0
 10
-5.83434
 20
2.56784
 11
-5.50592
 21
2.65216
  0
LINE
  8
0
 10
-5.50592
 20
2.65216
 11
-5.16953
 21
2.69467
  0
LINE
  8
0
 10
-5.16953
 20
2.69467
 11
-4.83046
 21
2.69467
  0
LINE
  8
0
 10
-4.83046
 20
2.69467
 11
-4.49406
 21
2.65216
  0
LINE
  8
0
 10
-4.49406
 20
2.65216
 11
-4.16565
 21
2.56784
  0
LINE
  8
0
 10
-4.16565
 20
2.56784
 11
-3.85039
 21
2.44302
  0
LINE
  8
0
 10
-3.85039
 20
2.44302
 11
-3.55325
 21
2.27968
  0
LINE
  8
0
 10
-3.55325
 20
2.27968
 11
-3.27895
 21
2.08038
  0
LINE
  8
0
 10
-3.27895
 20
2.08038
 11
-3.03178
 21
1.84827
  0
LINE
  8
0
 10
-3.03178
 20
1.84827
 11
-2.81564
 21
1.58701
  0
LINE
  8
0
 10
-2.81564
 20
1.58701
 11
-2.63396
 21
1.30072
  0
LINE
  8
0
 10
-2.63396
 20
1.30072
 11
-2.48959
 21
0.993927
  0
LINE
  8
0
 10
-2.48959
 20
0.993927
 11
-2.38481
 21
0.671448
  0
LINE
  8
0
 10
-2.38481
 20
0.671448
 11
-2.32129
 21
0.338394
  0
LINE
  8
0
 10
-2.32129
 20
0.338394
 11
-2.29999
 21
0
  0
LINE
  8
0
 10
-2.29999
 20
0
 11
-2.32129
 21
-0.338394
  0
LINE
  8
0
 10
-2.32129
 20
-0.338394
 11
-2.38481
 21
-0.671448
  0
LINE
  8
0
 10
-2.38481
 20
-0.671448
 11
-2.48959
 21
-0.993927
  0
LINE
  8
0
 10
-2.48959
 20
-0.993927
 11
-2.63396
 21
-1.30072
  0
LINE
  8
0
 10
-2.63396
 20
-1.30072
 11
-2.81564
 21
-1.58701
  0
LINE
  8
0
 10
-2.81564
 20
-1.58701
 11
-3.03178
 21
-1.84827
  0
LINE
  8
0
 10
-3.03178
 20
-1.84827
 11
-3.27895
 21
-2.08038
  0
LINE
  8
0
 10
-3.27895
 20
-2.08038
 11
-3.55325
 21
-2.27968
  0
LINE
  8
0
 10
-3.55325
 20
-2.27968
 11
-3.85039
 21
-2.44302
  0
LINE
  8
0
 10
-3.85039
 20
-2.44302
 11
-4.16565
 21
-2.56784
  0
LINE
  8
0
 10
-4.16565
 20
-2.56784
 11
-4.49406
 21
-2.65216
  0
LINE
  8
0
 10
-4.49406
 20
-2.65216
 11
-4.83046
 21
-2.69467
  0
LINE
  8
0
 10
-4.83046
 20
-2.69467
 11
-5.16953
 21
-2.69467
  0
LINE
  8
0
 10
4.83046
 20
-2.69467
 11
4.49406
 21
-2.65216
  0
LINE
  8
0
 10
4.49406
 20
-2.65216
 11
4.16565
 21
-2.56784
  0
LINE
  8
0
 10
4.16565
 20
-2.56784
 11
3.85039
 21
-2.44302
  0
LINE
  8
0
 10
3.85039
 20
-2.44302
 11
3.55325
 21
-2.27968
  0
LINE
  8
0
 10
3.55325
 20
-2.27968
 11
3.27895
 21
-2.08038
  0
LINE
  8
0
 10
3.27895
 20
-2.08038
 11
3.03178
 21
-1.84827
  0
LINE
  8
0
 10
3.03178
 20
-1.84827
 11
2.81564
 21
-1.58701
  0
LINE
  8
0
 10
2.81564
 20
-1.58701
 11
2.63396
 21
-1.30072
  0
LINE
  8
0
 10
2.63396
 20
-1.30072
 11
2.48959
 21
-0.993927
  0
LINE
  8
0
 10
2.48959
 20
-0.993927
 11
2.38481
 21
-0.671448
  0
LINE
  8
0
 10
2.38481
 20
-0.671448
 11
2.32129
 21
-0.338394
  0
LINE
  8
0
 10
2.32129
 20
-0.338394
 11
2.29999
 21
0
  0
LINE
  8
0
 10
2.29999
 20
0
 11
2.32129
 21
0.338394
  0
LINE
  8
0
 10
2.32129
 20
0.338394
 11
2.38481
 21
0.671448
  0
LINE
  8
0
 10
2.38481
 20
0.671448
 11
2.48959
 21
0.993927
  0
LINE
  8
0
 10
2.48959
 20
0.993927
 11
2.63396
 21
1.30072
  0
LINE
  8
0
 10
2.63396
 20
1.30072
 11
2.81564
 21
1.58701
  0
LINE
  8
0
 10
2.81564
 20
1.58701
 11
3.03178
 21
1.84827
  0
LINE
  8
0
 10
3.03178
 20
1.84827
 11
3.27895
 21
2.08038
  0
LINE
  8
0
 10
3.27895
 20
2.08038
 11
3.55325
 21
2.27968
  0
LINE
  8
0
 10
3.55325
 20
2.27968
 11
3.85039
 21
2.44302
  0
LINE
  8
0
 10
3.85039
 20
2.44302
 11
4.16565
 21
2.56784
  0
LINE
  8
0
 10
4.16565
 20
2.56784
 11
4.49406
 21
2.65216
  0
LINE
  8
0
 10
4.49406
 20
2.65216
 11
4.83046
 21
2.69467
  0
LINE
  8
0
 10
4.83046
 20
2.69467
 11
5.16953
 21
2.69467
  0
LINE
  8
0
 10
5.16953
 20
2.69467
 11
5.50592
 21
2.65216
  0
LINE
  8
0
 10
5.50592
 20
2.65216
 11
5.83434
 21
2.56784
  0
LINE
  8
0
 10
5.83434
 20
2.56784
 11
6.1496
 21
2.44302
  0
LINE
  8
0
 10
6.1496
 20
2.44302
 11
6.44673
 21
2.27968
  0
LINE
  8
0
 10
6.44673
 20
2.27968
 11
6.72104
 21
2.08038
  0
LINE
  8
0
 10
6.72104
 20
2.08038
 11
6.9682
 21
1.84827
  0
LINE
  8
0
 10
6.9682
 20
1.84827
 11
7.18434
 21
1.58701
  0
LINE
  8
0
 10
7.18434
 20
1.58701
 11
7.36603
 21
1.30072
  0
LINE
  8
0
 10
7.36603
 20
1.30072
 11
7.51039
 21
0.993927
  0
LINE
  8
0
 10
7.51039
 20
0.993927
 11
7.61517
 21
0.671448
  0
LINE
  8
0
 10
7.61517
 20
0.671448
 11
7.6787
 21
0.338394
  0
LINE
  8
0
 10
7.6787
 20
0.338394
 11
7.7
 21
0
  0
LINE
  8
0
 10
7.7
 20
0
 11
7.6787
 21
-0.338394
  0
LINE
  8
0
 10
7.6787
 20
-0.338394
 11
7.61517
 21
-0.671448
  0
LINE
  8
0
 10
7.61517
 20
-0.671448
 11
7.51039
 21
-0.993927
  0
LINE
  8
0
 10
7.51039
 20
-0.993927
 11
7.36603
 21
-1.30072
  0
LINE
  8
0
 10
7.36603
 20
-1.30072
 11
7.18434
 21
-1.58701
  0
LINE
  8
0
 10
7.18434
 20
-1.58701
 11
6.9682
 21
-1.84827
  0
LINE
  8
0
 10
6.9682
 20
-1.84827
 11
6.72104
 21
-2.08038
  0
LINE
  8
0
 10
6.72104
 20
-2.08038
 11
6.44673
 21
-2.27968
  0
LINE
  8
0
 10
6.44673
 20
-2.27968
 11
6.1496
 21
-2.44302
  0
LINE
  8
0
 10
6.1496
 20
-2.44302
 11
5.83434
 21
-2.56784
  0
LINE
  8
0
 10
5.83434
 20
-2.56784
 11
5.50592
 21
-2.65216
  0
LINE
  8
0
 10
5.50592
 20
-2.65216
 11
5.16953
 21
-2.69467
  0
LINE
  8
0
 10
5.16953
 20
-2.69467
 11
4.83046
 21
-2.69467
  0
ENDSEC
  0
SECTION
  2
OBJECTS
  0
DICTIONARY
  0
ENDSEC
  0
EOF
