  0
SECTION
  2
BLOCKS
  0
ENDSEC
  0
SECTION
  2
ENTITIES
  0
LINE
  8
0
 10
13
 20
5
 11
-13
 21
5
  0
LINE
  8
0
 10
-13
 20
5
 11
-13
 21
-5
  0
LINE
  8
0
 10
-13
 20
-5
 11
13
 21
-5
  0
LINE
  8
0
 10
13
 20
-5
 11
13
 21
5
  0
LINE
  8
0
 10
-5.17894
 20
-2.84438
 11
-5.53403
 21
-2.79951
  0
LINE
  8
0
 10
-5.53403
 20
-2.79951
 11
-5.88069
 21
-2.71051
  0
LINE
  8
0
 10
-5.88069
 20
-2.71051
 11
-6.21347
 21
-2.57875
  0
LINE
  8
0
 10
-6.21347
 20
-2.57875
 11
-6.5271
 21
-2.40633
  0
LINE
  8
0
 10
-6.5271
 20
-2.40633
 11
-6.81665
 21
-2.19595
  0
LINE
  8
0
 10
-6.81665
 20
-2.19595
 11
-7.07756
 21
-1.95096
  0
LINE
  8
0
 10
-7.07756
 20
-1.95096
 11
-7.30569
 21
-1.67519
  0
LINE
  8
0
 10
-7.30569
 20
-1.67519
 11
-7.49747
 21
-1.37299
  0
LINE
  8
0
 10
-7.49747
 20
-1.37299
 11
-7.64986
 21
-1.04915
  0
LINE
  8
0
 10
-7.64986
 20
-1.04915
 11
-7.76045
 21
-0.708755
  0
LINE
  8
0
 10
-7.76045
 20
-0.708755
 11
-7.82751
 21
-0.357193
  0
LINE
  8
0
 10
-7.82751
 20
-0.357193
 11
-7.84999
 21
0
  0
LINE
  8
0
 10
-7.84999
 20
0
 11
-7.82751
 21
0.357193
  0
LINE
  8
0
 10
-7.82751
 20
0.357193
 11
-7.76045
 21
0.708755
  0
LINE
  8
0
 10
-7.76045
 20
0.708755
 11
-7.64986
 21
1.04915
  0
LINE
  8
0
 10
-7.64986
 20
1.04915
 11
-7.49747
 21
1.37299
  0
LINE
  8
0
 10
-7.49747
 20
1.37299
 11
-7.30569
 21
1.67519
  0
LINE
  8
0
 10
-7.30569
 20
1.67519
 11
-7.07756
 21
1.95096
  0
LINE
  8
0
 10
-7.07756
 20
1.95096
 11
-6.81665
 21
2.19595
  0
LINE
  8
0
 10
-6.81665
 20
2.19595
 11
-6.5271
 21
2.40633
  0
LINE
  8
0
 10
-6.5271
 20
2.40633
 11
-6.21347
 21
2.57875
  0
LINE
  8
0
 10
-6.21347
 20
2.57875
 11
-5.88069
 21
2.71051
  0
LINE
  8
0
 10
-5.88069
 20
2.71051
 11
-5.53403
 21
2.79951
  0
LINE
  8
0
 10
-5.53403
 20
2.79951
 11
-5.17894
 21
2.84438
  0
LINE
  8
0
 10
-5.17894
 20
2.84438
 11
-4.82104
 21
2.84438
  0
LINE
  8
0
 10
-4.82104
 20
2.84438
 11
-4.46596
 21
2.79951
  0
LINE
  8
0
 10
-4.46596
 20
2.79951
 11
-4.11929
 21
2.71051
  0
LINE
  8
0
 10
-4.11929
 20
2.71051
 11
-3.78651
 21
2.57875
  0
LINE
  8
0
 10
-3.78651
 20
2.57875
 11
-3.47289
 21
2.40633
  0
LINE
  8
0
 10
-3.47289
 20
2.40633
 11
-3.18333
 21
2.19595
  0
LINE
  8
0
 10
-3.18333
 20
2.19595
 11
-2.92242
 21
1.95096
  0
LINE
  8
0
 10
-2.92242
 20
1.95096
 11
-2.69429
 21
1.67519
  0
LINE
  8
0
 10
-2.69429
 20
1.67519
 11
-2.50252
 21
1.37299
  0
LINE
  8
0
 10
-2.50252
 20
1.37299
 11
-2.35013
 21
1.04915
  0
LINE
  8
0
 10
-2.35013
 20
1.04915
 11
-2.23953
 21
0.708755
  0
LINE
  8
0
 10
-2.23953
 20
0.708755
 11
-2.17247
 21
0.357193
  0
LINE
  8
0
 10
-2.17247
 20
0.357193
 11
-2.14999
 21
0
  0
LINE
  8
0
 10
-2.14999
 20
0
 11
-2.17247
 21
-0.357193
  0
LINE
  8
0
 10
-2.17247
 20
-0.357193
 11
-2.23953
 21
-0.708755
  0
LINE
  8
0
 10
-2.23953
 20
-0.708755
 11
-2.35013
 21
-1.04915
  0
LINE
  8
0
 10
-2.35013
 20
-1.04915
 11
-2.50252
 21
-1.37299
  0
LINE
  8
0
 10
-2.50252
 20
-1.37299
 11
-2.69429
 21
-1.67519
  0
LINE
  8
0
 10
-2.69429
 20
-1.67519
 11
-2.92242
 21
-1.95096
  0
LINE
  8
0
 10
-2.92242
 20
-1.95096
 11
-3.18333
 21
-2.19595
  0
LINE
  8
0
 10
-3.18333
 20
-2.19595
 11
-3.47289
 21
-2.40633
  0
LINE
  8
0
 10
-3.47289
 20
-2.40633
 11
-3.78651
 21
-2.57875
  0
LINE
  8
0
 10
-3.78651
 20
-2.57875
 11
-4.11929
 21
-2.71051
  0
LINE
  8
0
 10
-4.11929
 20
-2.71051
 11
-4.46596
 21
-2.79951
  0
LINE
  8
0
 10
-4.46596
 20
-2.79951
 11
-4.82104
 21
-2.84438
  0
LINE
  8
0
 10
-4.82104
 20
-2.84438
 11
-5.17894
 21
-2.84438
  0
LINE
  8
0
 10
4.82104
 20
-2.84438
 11
4.46596
 21
-2.79951
  0
LINE
  8
0
 10
4.46596
 20
-2.79951
 11
4.11929
 21
-2.71051
  0
LINE
  8
0
 10
4.11929
 20
-2.71051
 11
3.78651
 21
-2.57875
  0
LINE
  8
0
 10
3.78651
 20
-2.57875
 11
3.47289
 21
-2.40633
  0
LINE
  8
0
 10
3.47289
 20
-2.40633
 11
3.18333
 21
-2.19595
  0
LINE
  8
0
 10
3.18333
 20
-2.19595
 11
2.92242
 21
-1.95096
  0
LINE
  8
0
 10
2.92242
 20
-1.95096
 11
2.69429
 21
-1.67519
  0
LINE
  8
0
 10
2.69429
 20
-1.67519
 11
2.50252
 21
-1.37299
  0
LINE
  8
0
 10
2.50252
 20
-1.37299
 11
2.35013
 21
-1.04915
  0
LINE
  8
0
 10
2.35013
 20
-1.04915
 11
2.23953
 21
-0.708755
  0
LINE
  8
0
 10
2.23953
 20
-0.708755
 11
2.17247
 21
-0.357193
  0
LINE
  8
0
 10
2.17247
 20
-0.357193
 11
2.14999
 21
0
  0
LINE
  8
0
 10
2.14999
 20
0
 11
2.17247
 21
0.357193
  0
LINE
  8
0
 10
2.17247
 20
0.357193
 11
2.23953
 21
0.708755
  0
LINE
  8
0
 10
2.23953
 20
0.708755
 11
2.35013
 21
1.04915
  0
LINE
  8
0
 10
2.35013
 20
1.04915
 11
2.50252
 21
1.37299
  0
LINE
  8
0
 10
2.50252
 20
1.37299
 11
2.69429
 21
1.67519
  0
LINE
  8
0
 10
2.69429
 20
1.67519
 11
2.92242
 21
1.95096
  0
LINE
  8
0
 10
2.92242
 20
1.95096
 11
3.18333
 21
2.19595
  0
LINE
  8
0
 10
3.18333
 20
2.19595
 11
3.47289
 21
2.40633
  0
LINE
  8
0
 10
3.47289
 20
2.40633
 11
3.78651
 21
2.57875
  0
LINE
  8
0
 10
3.78651
 20
2.57875
 11
4.11929
 21
2.71051
  0
LINE
  8
0
 10
4.11929
 20
2.71051
 11
4.46596
 21
2.79951
  0
LINE
  8
0
 10
4.46596
 20
2.79951
 11
4.82104
 21
2.84438
  0
LINE
  8
0
 10
4.82104
 20
2.84438
 11
5.17894
 21
2.84438
  0
LINE
  8
0
 10
5.17894
 20
2.84438
 11
5.53403
 21
2.79951
  0
LINE
  8
0
 10
5.53403
 20
2.79951
 11
5.88069
 21
2.71051
  0
LINE
  8
0
 10
5.88069
 20
2.71051
 11
6.21347
 21
2.57875
  0
LINE
  8
0
 10
6.21347
 20
2.57875
 11
6.5271
 21
2.40633
  0
LINE
  8
0
 10
6.5271
 20
2.40633
 11
6.81665
 21
2.19595
  0
LINE
  8
0
 10
6.81665
 20
2.19595
 11
7.07756
 21
1.95096
  0
LINE
  8
0
 10
7.07756
 20
1.95096
 11
7.30569
 21
1.67519
  0
LINE
  8
0
 10
7.30569
 20
1.67519
 11
7.49747
 21
1.37299
  0
LINE
  8
0
 10
7.49747
 20
1.37299
 11
7.64986
 21
1.04915
  0
LINE
  8
0
 10
7.64986
 20
1.04915
 11
7.76045
 21
0.708755
  0
LINE
  8
0
 10
7.76045
 20
0.708755
 11
7.82751
 21
0.357193
  0
LINE
  8
0
 10
7.82751
 20
0.357193
 11
7.84999
 21
0
  0
LINE
  8
0
 10
7.84999
 20
0
 11
7.82751
 21
-0.357193
  0
LINE
  8
0
 10
7.82751
 20
-0.357193
 11
7.76045
 21
-0.708755
  0
LINE
  8
0
 10
7.76045
 20
-0.708755
 11
7.64986
 21
-1.04915
  0
LINE
  8
0
 10
7.64986
 20
-1.04915
 11
7.49747
 21
-1.37299
  0
LINE
  8
0
 10
7.49747
 20
-1.37299
 11
7.30569
 21
-1.67519
  0
LINE
  8
0
 10
7.30569
 20
-1.67519
 11
7.07756
 21
-1.95096
  0
LINE
  8
0
 10
7.07756
 20
-1.95096
 11
6.81665
 21
-2.19595
  0
LINE
  8
0
 10
6.81665
 20
-2.19595
 11
6.5271
 21
-2.40633
  0
LINE
  8
0
 10
6.5271
 20
-2.40633
 11
6.21347
 21
-2.57875
  0
LINE
  8
0
 10
6.21347
 20
-2.57875
 11
5.88069
 21
-2.71051
  0
LINE
  8
0
 10
5.88069
 20
-2.71051
 11
5.53403
 21
-2.79951
  0
LINE
  8
0
 10
5.53403
 20
-2.79951
 11
5.17894
 21
-2.84438
  0
LINE
  8
0
 10
5.17894
 20
-2.84438
 11
4.82104
 21
-2.84438
  0
ENDSEC
  0
SECTION
  2
OBJECTS
  0
DICTIONARY
  0
ENDSEC
  0
EOF
