  0
SECTION
  2
BLOCKS
  0
ENDSEC
  0
SECTION
  2
ENTITIES
  0
LINE
  8
0
 10
13
 20
5
 11
-13
 21
5
  0
LINE
  8
0
 10
-13
 20
5
 11
-13
 21
-5
  0
LINE
  8
0
 10
-13
 20
-5
 11
13
 21
-5
  0
LINE
  8
0
 10
13
 20
-5
 11
13
 21
5
  0
LINE
  8
0
 10
-5.09135
 20
-1.45212
 11
-5.27263
 21
-1.42921
  0
LINE
  8
0
 10
-5.27263
 20
-1.42921
 11
-5.44962
 21
-1.38377
  0
LINE
  8
0
 10
-5.44962
 20
-1.38377
 11
-5.61951
 21
-1.31651
  0
LINE
  8
0
 10
-5.61951
 20
-1.31651
 11
-5.77962
 21
-1.22849
  0
LINE
  8
0
 10
-5.77962
 20
-1.22849
 11
-5.92744
 21
-1.12109
  0
LINE
  8
0
 10
-5.92744
 20
-1.12109
 11
-6.06064
 21
-0.996002
  0
LINE
  8
0
 10
-6.06064
 20
-0.996002
 11
-6.17711
 21
-0.855225
  0
LINE
  8
0
 10
-6.17711
 20
-0.855225
 11
-6.27502
 21
-0.700943
  0
LINE
  8
0
 10
-6.27502
 20
-0.700943
 11
-6.35281
 21
-0.535614
  0
LINE
  8
0
 10
-6.35281
 20
-0.535614
 11
-6.40929
 21
-0.361832
  0
LINE
  8
0
 10
-6.40929
 20
-0.361832
 11
-6.44351
 21
-0.182358
  0
LINE
  8
0
 10
-6.44351
 20
-0.182358
 11
-6.45499
 21
0
  0
LINE
  8
0
 10
-6.45499
 20
0
 11
-6.44351
 21
0.182358
  0
LINE
  8
0
 10
-6.44351
 20
0.182358
 11
-6.40929
 21
0.361832
  0
LINE
  8
0
 10
-6.40929
 20
0.361832
 11
-6.35281
 21
0.535614
  0
LINE
  8
0
 10
-6.35281
 20
0.535614
 11
-6.27502
 21
0.700943
  0
LINE
  8
0
 10
-6.27502
 20
0.700943
 11
-6.17711
 21
0.855225
  0
LINE
  8
0
 10
-6.17711
 20
0.855225
 11
-6.06064
 21
0.996002
  0
LINE
  8
0
 10
-6.06064
 20
0.996002
 11
-5.92744
 21
1.12109
  0
LINE
  8
0
 10
-5.92744
 20
1.12109
 11
-5.77962
 21
1.22849
  0
LINE
  8
0
 10
-5.77962
 20
1.22849
 11
-5.61951
 21
1.31651
  0
LINE
  8
0
 10
-5.61951
 20
1.31651
 11
-5.44962
 21
1.38377
  0
LINE
  8
0
 10
-5.44962
 20
1.38377
 11
-5.27263
 21
1.42921
  0
LINE
  8
0
 10
-5.27263
 20
1.42921
 11
-5.09135
 21
1.45212
  0
LINE
  8
0
 10
-5.09135
 20
1.45212
 11
-4.90863
 21
1.45212
  0
LINE
  8
0
 10
-4.90863
 20
1.45212
 11
-4.72736
 21
1.42921
  0
LINE
  8
0
 10
-4.72736
 20
1.42921
 11
-4.55037
 21
1.38377
  0
LINE
  8
0
 10
-4.55037
 20
1.38377
 11
-4.38048
 21
1.31651
  0
LINE
  8
0
 10
-4.38048
 20
1.31651
 11
-4.22037
 21
1.22849
  0
LINE
  8
0
 10
-4.22037
 20
1.22849
 11
-4.07254
 21
1.12109
  0
LINE
  8
0
 10
-4.07254
 20
1.12109
 11
-3.93935
 21
0.996002
  0
LINE
  8
0
 10
-3.93935
 20
0.996002
 11
-3.82288
 21
0.855225
  0
LINE
  8
0
 10
-3.82288
 20
0.855225
 11
-3.72496
 21
0.700943
  0
LINE
  8
0
 10
-3.72496
 20
0.700943
 11
-3.64717
 21
0.535614
  0
LINE
  8
0
 10
-3.64717
 20
0.535614
 11
-3.5907
 21
0.361832
  0
LINE
  8
0
 10
-3.5907
 20
0.361832
 11
-3.55647
 21
0.182358
  0
LINE
  8
0
 10
-3.55647
 20
0.182358
 11
-3.545
 21
0
  0
LINE
  8
0
 10
-3.545
 20
0
 11
-3.55647
 21
-0.182358
  0
LINE
  8
0
 10
-3.55647
 20
-0.182358
 11
-3.5907
 21
-0.361832
  0
LINE
  8
0
 10
-3.5907
 20
-0.361832
 11
-3.64717
 21
-0.535614
  0
LINE
  8
0
 10
-3.64717
 20
-0.535614
 11
-3.72496
 21
-0.700943
  0
LINE
  8
0
 10
-3.72496
 20
-0.700943
 11
-3.82288
 21
-0.855225
  0
LINE
  8
0
 10
-3.82288
 20
-0.855225
 11
-3.93935
 21
-0.996002
  0
LINE
  8
0
 10
-3.93935
 20
-0.996002
 11
-4.07254
 21
-1.12109
  0
LINE
  8
0
 10
-4.07254
 20
-1.12109
 11
-4.22037
 21
-1.22849
  0
LINE
  8
0
 10
-4.22037
 20
-1.22849
 11
-4.38048
 21
-1.31651
  0
LINE
  8
0
 10
-4.38048
 20
-1.31651
 11
-4.55037
 21
-1.38377
  0
LINE
  8
0
 10
-4.55037
 20
-1.38377
 11
-4.72736
 21
-1.42921
  0
LINE
  8
0
 10
-4.72736
 20
-1.42921
 11
-4.90863
 21
-1.45212
  0
LINE
  8
0
 10
-4.90863
 20
-1.45212
 11
-5.09135
 21
-1.45212
  0
LINE
  8
0
 10
4.90863
 20
-1.45212
 11
4.72736
 21
-1.42921
  0
LINE
  8
0
 10
4.72736
 20
-1.42921
 11
4.55037
 21
-1.38377
  0
LINE
  8
0
 10
4.55037
 20
-1.38377
 11
4.38048
 21
-1.31651
  0
LINE
  8
0
 10
4.38048
 20
-1.31651
 11
4.22037
 21
-1.22849
  0
LINE
  8
0
 10
4.22037
 20
-1.22849
 11
4.07254
 21
-1.12109
  0
LINE
  8
0
 10
4.07254
 20
-1.12109
 11
3.93935
 21
-0.996002
  0
LINE
  8
0
 10
3.93935
 20
-0.996002
 11
3.82288
 21
-0.855225
  0
LINE
  8
0
 10
3.82288
 20
-0.855225
 11
3.72496
 21
-0.700943
  0
LINE
  8
0
 10
3.72496
 20
-0.700943
 11
3.64717
 21
-0.535614
  0
LINE
  8
0
 10
3.64717
 20
-0.535614
 11
3.5907
 21
-0.361832
  0
LINE
  8
0
 10
3.5907
 20
-0.361832
 11
3.55647
 21
-0.182358
  0
LINE
  8
0
 10
3.55647
 20
-0.182358
 11
3.545
 21
0
  0
LINE
  8
0
 10
3.545
 20
0
 11
3.55647
 21
0.182358
  0
LINE
  8
0
 10
3.55647
 20
0.182358
 11
3.5907
 21
0.361832
  0
LINE
  8
0
 10
3.5907
 20
0.361832
 11
3.64717
 21
0.535614
  0
LINE
  8
0
 10
3.64717
 20
0.535614
 11
3.72496
 21
0.700943
  0
LINE
  8
0
 10
3.72496
 20
0.700943
 11
3.82288
 21
0.855225
  0
LINE
  8
0
 10
3.82288
 20
0.855225
 11
3.93935
 21
0.996002
  0
LINE
  8
0
 10
3.93935
 20
0.996002
 11
4.07254
 21
1.12109
  0
LINE
  8
0
 10
4.07254
 20
1.12109
 11
4.22037
 21
1.22849
  0
LINE
  8
0
 10
4.22037
 20
1.22849
 11
4.38048
 21
1.31651
  0
LINE
  8
0
 10
4.38048
 20
1.31651
 11
4.55037
 21
1.38377
  0
LINE
  8
0
 10
4.55037
 20
1.38377
 11
4.72736
 21
1.42921
  0
LINE
  8
0
 10
4.72736
 20
1.42921
 11
4.90863
 21
1.45212
  0
LINE
  8
0
 10
4.90863
 20
1.45212
 11
5.09135
 21
1.45212
  0
LINE
  8
0
 10
5.09135
 20
1.45212
 11
5.27263
 21
1.42921
  0
LINE
  8
0
 10
5.27263
 20
1.42921
 11
5.44962
 21
1.38377
  0
LINE
  8
0
 10
5.44962
 20
1.38377
 11
5.61951
 21
1.31651
  0
LINE
  8
0
 10
5.61951
 20
1.31651
 11
5.77962
 21
1.22849
  0
LINE
  8
0
 10
5.77962
 20
1.22849
 11
5.92744
 21
1.12109
  0
LINE
  8
0
 10
5.92744
 20
1.12109
 11
6.06064
 21
0.996002
  0
LINE
  8
0
 10
6.06064
 20
0.996002
 11
6.17711
 21
0.855225
  0
LINE
  8
0
 10
6.17711
 20
0.855225
 11
6.27502
 21
0.700943
  0
LINE
  8
0
 10
6.27502
 20
0.700943
 11
6.35281
 21
0.535614
  0
LINE
  8
0
 10
6.35281
 20
0.535614
 11
6.40929
 21
0.361832
  0
LINE
  8
0
 10
6.40929
 20
0.361832
 11
6.44351
 21
0.182358
  0
LINE
  8
0
 10
6.44351
 20
0.182358
 11
6.45499
 21
0
  0
LINE
  8
0
 10
6.45499
 20
0
 11
6.44351
 21
-0.182358
  0
LINE
  8
0
 10
6.44351
 20
-0.182358
 11
6.40929
 21
-0.361832
  0
LINE
  8
0
 10
6.40929
 20
-0.361832
 11
6.35281
 21
-0.535614
  0
LINE
  8
0
 10
6.35281
 20
-0.535614
 11
6.27502
 21
-0.700943
  0
LINE
  8
0
 10
6.27502
 20
-0.700943
 11
6.17711
 21
-0.855225
  0
LINE
  8
0
 10
6.17711
 20
-0.855225
 11
6.06064
 21
-0.996002
  0
LINE
  8
0
 10
6.06064
 20
-0.996002
 11
5.92744
 21
-1.12109
  0
LINE
  8
0
 10
5.92744
 20
-1.12109
 11
5.77962
 21
-1.22849
  0
LINE
  8
0
 10
5.77962
 20
-1.22849
 11
5.61951
 21
-1.31651
  0
LINE
  8
0
 10
5.61951
 20
-1.31651
 11
5.44962
 21
-1.38377
  0
LINE
  8
0
 10
5.44962
 20
-1.38377
 11
5.27263
 21
-1.42921
  0
LINE
  8
0
 10
5.27263
 20
-1.42921
 11
5.09135
 21
-1.45212
  0
LINE
  8
0
 10
5.09135
 20
-1.45212
 11
4.90863
 21
-1.45212
  0
ENDSEC
  0
SECTION
  2
OBJECTS
  0
DICTIONARY
  0
ENDSEC
  0
EOF
