  0
SECTION
  2
HEADER
  9
$ACADVER
  1
AC1014
  9
$HANDSEED
  5
FFFF
  9
$MEASUREMENT
 70
     1
  0
ENDSEC
  0
SECTION
  2
TABLES
  0
TABLE
  2
VPORT
  5
8
330
0
100
AcDbSymbolTable
 70
     4
  0
VPORT
  5
2E
330
8
100
AcDbSymbolTableRecord
100
AcDbViewportTableRecord
  2
*ACTIVE
 70
     0
 10
0.0
 20
0.0
 11
1.0
 21
1.0
 12
210.0
 22
148.5
 13
0.0
 23
0.0
 14
10.0
 24
10.0
 15
10.0
 25
10.0
 16
0.0
 26
0.0
 36
1.0
 17
0.0
 27
0.0
 37
0.0
 40
341.0
 41
1.24
 42
50.0
 43
0.0
 44
0.0
 50
0.0
 51
0.0
 71
     0
 72
   100
 73
     1
 74
     3
 75
     0
 76
     0
 77
     0
 78
     0
  0
ENDTAB
  0
TABLE
  2
LTYPE
  5
5
330
0
100
AcDbSymbolTable
 70
     1
  0
LTYPE
  5
14
330
5
100
AcDbSymbolTableRecord
100
AcDbLinetypeTableRecord
  2
BYBLOCK
 70
     0
  3

 72
    65
 73
     0
 40
0.0
  0
LTYPE
  5
15
330
5
100
AcDbSymbolTableRecord
100
AcDbLinetypeTableRecord
  2
BYLAYER
 70
     0
  3

 72
    65
 73
     0
 40
0.0
  0
LTYPE
  5
16
330
5
100
AcDbSymbolTableRecord
100
AcDbLinetypeTableRecord
  2
CONTINUOUS
 70
     0
  3
Solid line
 72
    65
 73
     0
 40
0.0
  0
ENDTAB
  0
TABLE
  2
LAYER
  5
2
100
AcDbSymbolTable
 70
2
  0
LAYER
  5
50
100
AcDbSymbolTableRecord
100
AcDbLayerTableRecord
  2
0
 70
0
  6
CONTINUOUS
  0
LAYER
  5
51
100
AcDbSymbolTableRecord
100
AcDbLayerTableRecord
  2
Ebene_1
 70
0
  6
CONTINUOUS
  0
ENDTAB
  0
TABLE
  2
STYLE
  5
3
330
0
100
AcDbSymbolTable
 70
     1
  0
STYLE
  5
11
330
3
100
AcDbSymbolTableRecord
100
AcDbTextStyleTableRecord
  2
STANDARD
 70
     0
 40
0.0
 41
1.0
 50
0.0
 71
     0
 42
2.5
  3
txt
  4

  0
ENDTAB
  0
TABLE
  2
VIEW
  5
6
330
0
100
AcDbSymbolTable
 70
     0
  0
ENDTAB
  0
TABLE
  2
UCS
  5
7
330
0
100
AcDbSymbolTable
 70
     0
  0
ENDTAB
  0
TABLE
  2
APPID
  5
9
330
0
100
AcDbSymbolTable
 70
     2
  0
APPID
  5
12
330
9
100
AcDbSymbolTableRecord
100
AcDbRegAppTableRecord
  2
ACAD
 70
     0
  0
ENDTAB
  0
TABLE
  2
DIMSTYLE
  5
A
330
0
100
AcDbSymbolTable
 70
     1
  0
DIMSTYLE
105
27
330
A
100
AcDbSymbolTableRecord
100
AcDbDimStyleTableRecord
  2
ISO-25
 70
     0
  3

  4

  5

  6

  7

 40
1.0
 41
2.5
 42
0.625
 43
3.75
 44
1.25
 45
0.0
 46
0.0
 47
0.0
 48
0.0
140
2.5
141
2.5
142
0.0
143
0.03937007874016
144
1.0
145
0.0
146
1.0
147
0.625
 71
     0
 72
     0
 73
     0
 74
     0
 75
     0
 76
     0
 77
     1
 78
     8
170
     0
171
     3
172
     1
173
     0
174
     0
175
     0
176
     0
177
     0
178
     0
270
     2
271
     2
272
     2
273
     2
274
     3
340
11
275
     0
280
     0
281
     0
282
     0
283
     0
284
     8
285
     0
286
     0
287
     3
288
     0
  0
ENDTAB
  0
TABLE
  2
BLOCK_RECORD
  5
1
330
0
100
AcDbSymbolTable
 70
     1
  0
BLOCK_RECORD
  5
1F
330
1
100
AcDbSymbolTableRecord
100
AcDbBlockTableRecord
  2
*MODEL_SPACE
  0
BLOCK_RECORD
  5
1B
330
1
100
AcDbSymbolTableRecord
100
AcDbBlockTableRecord
  2
*PAPER_SPACE
  0
ENDTAB
  0
ENDSEC
  0
SECTION
  2
BLOCKS
  0
BLOCK
  5
20
330
1F
100
AcDbEntity
  8
0
100
AcDbBlockBegin
  2
*MODEL_SPACE
 70
     0
 10
0.0
 20
0.0
 30
0.0
  3
*MODEL_SPACE
  1

  0
ENDBLK
  5
21
330
1F
100
AcDbEntity
  8
0
100
AcDbBlockEnd
  0
BLOCK
  5
1C
330
1B
100
AcDbEntity
 67
     1
  8
0
100
AcDbBlockBegin
  2
*PAPER_SPACE
  1

  0
ENDBLK
  5
1D
330
1B
100
AcDbEntity
 67
     1
  8
0
100
AcDbBlockEnd
  0
ENDSEC
  0
SECTION
  2
ENTITIES
  0
LWPOLYLINE
  5
100
100
AcDbEntity
  8
Ebene_1
 62
7
100
AcDbPolyline
 90
5
 70
0
 10
107.777778
 20
150.755555
 30
0.0
 10
89.777778
 20
150.755555
 30
0.0
 10
89.777778
 20
142.755571
 30
0.0
 10
107.777778
 20
142.755571
 30
0.0
 10
107.777778
 20
150.755555
 30
0.0
  0
LWPOLYLINE
  5
101
100
AcDbEntity
  8
Ebene_1
 62
7
100
AcDbPolyline
 90
2
 70
0
 10
93.688318
 20
145.333388
 30
0.0
 10
93.510768
 20
145.355966
 30
0.0
  0
LWPOLYLINE
  5
102
100
AcDbEntity
  8
Ebene_1
 62
7
100
AcDbPolyline
 90
24
 70
0
 10
93.510768
 20
145.355825
 30
0.0
 10
93.337438
 20
145.400303
 30
0.0
 10
93.171038
 20
145.466202
 30
0.0
 10
93.014228
 20
145.552393
 30
0.0
 10
92.869448
 20
145.657577
 30
0.0
 10
92.739008
 20
145.780090
 30
0.0
 10
92.624928
 20
145.917983
 30
0.0
 10
92.529048
 20
146.069057
 30
0.0
 10
92.452858
 20
146.230996
 30
0.0
 10
92.397558
 20
146.401204
 30
0.0
 10
92.364018
 20
146.576972
 30
0.0
 10
92.352788
 20
146.755563
 30
0.0
 10
92.364017
 20
146.934153
 30
0.0
 10
92.397558
 20
147.109921
 30
0.0
 10
92.452858
 20
147.280129
 30
0.0
 10
92.529048
 20
147.442068
 30
0.0
 10
92.624928
 20
147.593142
 30
0.0
 10
92.739008
 20
147.731035
 30
0.0
 10
92.869448
 20
147.853548
 30
0.0
 10
93.014228
 20
147.958732
 30
0.0
 10
93.171038
 20
148.044923
 30
0.0
 10
93.337438
 20
148.110822
 30
0.0
 10
93.510768
 20
148.155300
 30
0.0
 10
93.688318
 20
148.177596
 30
0.0
  0
LWPOLYLINE
  5
103
100
AcDbEntity
  8
Ebene_1
 62
7
100
AcDbPolyline
 90
3
 70
0
 10
93.688318
 20
148.177737
 30
0.0
 10
93.867258
 20
148.177737
 30
0.0
 10
94.044808
 20
148.155441
 30
0.0
  0
LWPOLYLINE
  5
104
100
AcDbEntity
  8
Ebene_1
 62
7
100
AcDbPolyline
 90
24
 70
0
 10
94.044808
 20
148.155300
 30
0.0
 10
94.218128
 20
148.110822
 30
0.0
 10
94.384528
 20
148.044923
 30
0.0
 10
94.541348
 20
147.958732
 30
0.0
 10
94.686118
 20
147.853548
 30
0.0
 10
94.816568
 20
147.731035
 30
0.0
 10
94.930638
 20
147.593142
 30
0.0
 10
95.026528
 20
147.442068
 30
0.0
 10
95.102718
 20
147.280129
 30
0.0
 10
95.158008
 20
147.109921
 30
0.0
 10
95.191548
 20
146.934153
 30
0.0
 10
95.202777
 20
146.755563
 30
0.0
 10
95.191548
 20
146.576972
 30
0.0
 10
95.158008
 20
146.401204
 30
0.0
 10
95.102718
 20
146.230996
 30
0.0
 10
95.026528
 20
146.069057
 30
0.0
 10
94.930638
 20
145.917983
 30
0.0
 10
94.816568
 20
145.780090
 30
0.0
 10
94.686118
 20
145.657577
 30
0.0
 10
94.541348
 20
145.552393
 30
0.0
 10
94.384528
 20
145.466202
 30
0.0
 10
94.218128
 20
145.400303
 30
0.0
 10
94.044808
 20
145.355825
 30
0.0
 10
93.867258
 20
145.333247
 30
0.0
  0
LWPOLYLINE
  5
105
100
AcDbEntity
  8
Ebene_1
 62
7
100
AcDbPolyline
 90
2
 70
0
 10
93.867258
 20
145.333388
 30
0.0
 10
93.688318
 20
145.333388
 30
0.0
  0
LWPOLYLINE
  5
106
100
AcDbEntity
  8
Ebene_1
 62
7
100
AcDbPolyline
 90
2
 70
0
 10
103.688298
 20
145.333388
 30
0.0
 10
103.510748
 20
145.355966
 30
0.0
  0
LWPOLYLINE
  5
107
100
AcDbEntity
  8
Ebene_1
 62
7
100
AcDbPolyline
 90
24
 70
0
 10
103.510748
 20
145.355825
 30
0.0
 10
103.337428
 20
145.400303
 30
0.0
 10
103.171028
 20
145.466202
 30
0.0
 10
103.014208
 20
145.552393
 30
0.0
 10
102.869438
 20
145.657577
 30
0.0
 10
102.738988
 20
145.780090
 30
0.0
 10
102.624918
 20
145.917983
 30
0.0
 10
102.529028
 20
146.069057
 30
0.0
 10
102.452838
 20
146.230996
 30
0.0
 10
102.397548
 20
146.401204
 30
0.0
 10
102.364008
 20
146.576972
 30
0.0
 10
102.352778
 20
146.755563
 30
0.0
 10
102.364007
 20
146.934153
 30
0.0
 10
102.397548
 20
147.109921
 30
0.0
 10
102.452838
 20
147.280129
 30
0.0
 10
102.529028
 20
147.442068
 30
0.0
 10
102.624918
 20
147.593142
 30
0.0
 10
102.738988
 20
147.731035
 30
0.0
 10
102.869438
 20
147.853548
 30
0.0
 10
103.014208
 20
147.958732
 30
0.0
 10
103.171028
 20
148.044923
 30
0.0
 10
103.337428
 20
148.110822
 30
0.0
 10
103.510748
 20
148.155300
 30
0.0
 10
103.688298
 20
148.177596
 30
0.0
  0
LWPOLYLINE
  5
108
100
AcDbEntity
  8
Ebene_1
 62
7
100
AcDbPolyline
 90
3
 70
0
 10
103.688298
 20
148.177737
 30
0.0
 10
103.867238
 20
148.177737
 30
0.0
 10
104.044788
 20
148.155441
 30
0.0
  0
LWPOLYLINE
  5
109
100
AcDbEntity
  8
Ebene_1
 62
7
100
AcDbPolyline
 90
24
 70
0
 10
104.044788
 20
148.155300
 30
0.0
 10
104.218118
 20
148.110822
 30
0.0
 10
104.384518
 20
148.044923
 30
0.0
 10
104.541328
 20
147.958732
 30
0.0
 10
104.686108
 20
147.853548
 30
0.0
 10
104.816548
 20
147.731035
 30
0.0
 10
104.930628
 20
147.593142
 30
0.0
 10
105.026508
 20
147.442068
 30
0.0
 10
105.102698
 20
147.280129
 30
0.0
 10
105.157998
 20
147.109921
 30
0.0
 10
105.191538
 20
146.934153
 30
0.0
 10
105.202767
 20
146.755563
 30
0.0
 10
105.191538
 20
146.576972
 30
0.0
 10
105.157998
 20
146.401204
 30
0.0
 10
105.102698
 20
146.230996
 30
0.0
 10
105.026508
 20
146.069057
 30
0.0
 10
104.930628
 20
145.917983
 30
0.0
 10
104.816548
 20
145.780090
 30
0.0
 10
104.686108
 20
145.657577
 30
0.0
 10
104.541328
 20
145.552393
 30
0.0
 10
104.384518
 20
145.466202
 30
0.0
 10
104.218118
 20
145.400303
 30
0.0
 10
104.044788
 20
145.355825
 30
0.0
 10
103.867238
 20
145.333247
 30
0.0
  0
LWPOLYLINE
  5
10a
100
AcDbEntity
  8
Ebene_1
 62
7
100
AcDbPolyline
 90
2
 70
0
 10
103.867238
 20
145.333388
 30
0.0
 10
103.688298
 20
145.333388
 30
0.0
  0
LWPOLYLINE
  5
10b
100
AcDbEntity
  8
Ebene_1
 62
7
100
AcDbPolyline
 90
4
 70
0
 10
89.777778
 20
142.755571
 30
0.0
 10
89.777778
 20
134.755587
 30
0.0
 10
107.777778
 20
134.755587
 30
0.0
 10
107.777778
 20
142.755571
 30
0.0
  0
LWPOLYLINE
  5
10c
100
AcDbEntity
  8
Ebene_1
 62
7
100
AcDbPolyline
 90
2
 70
0
 10
93.688318
 20
137.333404
 30
0.0
 10
93.510768
 20
137.355982
 30
0.0
  0
LWPOLYLINE
  5
10d
100
AcDbEntity
  8
Ebene_1
 62
7
100
AcDbPolyline
 90
24
 70
0
 10
93.510768
 20
137.355841
 30
0.0
 10
93.337438
 20
137.400319
 30
0.0
 10
93.171038
 20
137.466218
 30
0.0
 10
93.014228
 20
137.552409
 30
0.0
 10
92.869448
 20
137.657593
 30
0.0
 10
92.739008
 20
137.780106
 30
0.0
 10
92.624928
 20
137.917999
 30
0.0
 10
92.529048
 20
138.069073
 30
0.0
 10
92.452858
 20
138.231012
 30
0.0
 10
92.397558
 20
138.401220
 30
0.0
 10
92.364018
 20
138.576988
 30
0.0
 10
92.352788
 20
138.755579
 30
0.0
 10
92.364017
 20
138.934169
 30
0.0
 10
92.397558
 20
139.109937
 30
0.0
 10
92.452858
 20
139.280145
 30
0.0
 10
92.529048
 20
139.442084
 30
0.0
 10
92.624928
 20
139.593158
 30
0.0
 10
92.739008
 20
139.731051
 30
0.0
 10
92.869448
 20
139.853564
 30
0.0
 10
93.014228
 20
139.958748
 30
0.0
 10
93.171038
 20
140.044939
 30
0.0
 10
93.337438
 20
140.110838
 30
0.0
 10
93.510768
 20
140.155316
 30
0.0
 10
93.688318
 20
140.177612
 30
0.0
  0
LWPOLYLINE
  5
10e
100
AcDbEntity
  8
Ebene_1
 62
7
100
AcDbPolyline
 90
3
 70
0
 10
93.688318
 20
140.177753
 30
0.0
 10
93.867258
 20
140.177753
 30
0.0
 10
94.044808
 20
140.155457
 30
0.0
  0
LWPOLYLINE
  5
10f
100
AcDbEntity
  8
Ebene_1
 62
7
100
AcDbPolyline
 90
24
 70
0
 10
94.044808
 20
140.155316
 30
0.0
 10
94.218128
 20
140.110838
 30
0.0
 10
94.384528
 20
140.044939
 30
0.0
 10
94.541348
 20
139.958748
 30
0.0
 10
94.686118
 20
139.853564
 30
0.0
 10
94.816568
 20
139.731051
 30
0.0
 10
94.930638
 20
139.593158
 30
0.0
 10
95.026528
 20
139.442084
 30
0.0
 10
95.102718
 20
139.280145
 30
0.0
 10
95.158008
 20
139.109937
 30
0.0
 10
95.191548
 20
138.934169
 30
0.0
 10
95.202777
 20
138.755579
 30
0.0
 10
95.191548
 20
138.576988
 30
0.0
 10
95.158008
 20
138.401220
 30
0.0
 10
95.102718
 20
138.231012
 30
0.0
 10
95.026528
 20
138.069073
 30
0.0
 10
94.930638
 20
137.917999
 30
0.0
 10
94.816568
 20
137.780106
 30
0.0
 10
94.686118
 20
137.657593
 30
0.0
 10
94.541348
 20
137.552409
 30
0.0
 10
94.384528
 20
137.466218
 30
0.0
 10
94.218128
 20
137.400319
 30
0.0
 10
94.044808
 20
137.355841
 30
0.0
 10
93.867258
 20
137.333263
 30
0.0
  0
LWPOLYLINE
  5
110
100
AcDbEntity
  8
Ebene_1
 62
7
100
AcDbPolyline
 90
2
 70
0
 10
93.867258
 20
137.333404
 30
0.0
 10
93.688318
 20
137.333404
 30
0.0
  0
LWPOLYLINE
  5
111
100
AcDbEntity
  8
Ebene_1
 62
7
100
AcDbPolyline
 90
2
 70
0
 10
103.688298
 20
137.333404
 30
0.0
 10
103.510748
 20
137.355982
 30
0.0
  0
LWPOLYLINE
  5
112
100
AcDbEntity
  8
Ebene_1
 62
7
100
AcDbPolyline
 90
24
 70
0
 10
103.510748
 20
137.355841
 30
0.0
 10
103.337428
 20
137.400319
 30
0.0
 10
103.171028
 20
137.466218
 30
0.0
 10
103.014208
 20
137.552409
 30
0.0
 10
102.869438
 20
137.657593
 30
0.0
 10
102.738988
 20
137.780106
 30
0.0
 10
102.624918
 20
137.917999
 30
0.0
 10
102.529028
 20
138.069073
 30
0.0
 10
102.452838
 20
138.231012
 30
0.0
 10
102.397548
 20
138.401220
 30
0.0
 10
102.364008
 20
138.576988
 30
0.0
 10
102.352778
 20
138.755579
 30
0.0
 10
102.364007
 20
138.934169
 30
0.0
 10
102.397548
 20
139.109937
 30
0.0
 10
102.452838
 20
139.280145
 30
0.0
 10
102.529028
 20
139.442084
 30
0.0
 10
102.624918
 20
139.593158
 30
0.0
 10
102.738988
 20
139.731051
 30
0.0
 10
102.869438
 20
139.853564
 30
0.0
 10
103.014208
 20
139.958748
 30
0.0
 10
103.171028
 20
140.044939
 30
0.0
 10
103.337428
 20
140.110838
 30
0.0
 10
103.510748
 20
140.155316
 30
0.0
 10
103.688298
 20
140.177612
 30
0.0
  0
LWPOLYLINE
  5
113
100
AcDbEntity
  8
Ebene_1
 62
7
100
AcDbPolyline
 90
3
 70
0
 10
103.688298
 20
140.177753
 30
0.0
 10
103.867238
 20
140.177753
 30
0.0
 10
104.044788
 20
140.155457
 30
0.0
  0
LWPOLYLINE
  5
114
100
AcDbEntity
  8
Ebene_1
 62
7
100
AcDbPolyline
 90
24
 70
0
 10
104.044788
 20
140.155316
 30
0.0
 10
104.218118
 20
140.110838
 30
0.0
 10
104.384518
 20
140.044939
 30
0.0
 10
104.541328
 20
139.958748
 30
0.0
 10
104.686108
 20
139.853564
 30
0.0
 10
104.816548
 20
139.731051
 30
0.0
 10
104.930628
 20
139.593158
 30
0.0
 10
105.026508
 20
139.442084
 30
0.0
 10
105.102698
 20
139.280145
 30
0.0
 10
105.157998
 20
139.109937
 30
0.0
 10
105.191538
 20
138.934169
 30
0.0
 10
105.202767
 20
138.755579
 30
0.0
 10
105.191538
 20
138.576988
 30
0.0
 10
105.157998
 20
138.401220
 30
0.0
 10
105.102698
 20
138.231012
 30
0.0
 10
105.026508
 20
138.069073
 30
0.0
 10
104.930628
 20
137.917999
 30
0.0
 10
104.816548
 20
137.780106
 30
0.0
 10
104.686108
 20
137.657593
 30
0.0
 10
104.541328
 20
137.552409
 30
0.0
 10
104.384518
 20
137.466218
 30
0.0
 10
104.218118
 20
137.400319
 30
0.0
 10
104.044788
 20
137.355841
 30
0.0
 10
103.867238
 20
137.333263
 30
0.0
  0
LWPOLYLINE
  5
115
100
AcDbEntity
  8
Ebene_1
 62
7
100
AcDbPolyline
 90
2
 70
0
 10
103.867238
 20
137.333404
 30
0.0
 10
103.688298
 20
137.333404
 30
0.0
  0
LWPOLYLINE
  5
116
100
AcDbEntity
  8
Ebene_1
 62
7
100
AcDbPolyline
 90
2
 70
0
 10
125.777778
 20
150.755555
 30
0.0
 10
107.777778
 20
150.755555
 30
0.0
  0
LWPOLYLINE
  5
117
100
AcDbEntity
  8
Ebene_1
 62
7
100
AcDbPolyline
 90
3
 70
0
 10
107.777778
 20
142.755571
 30
0.0
 10
125.777778
 20
142.755571
 30
0.0
 10
125.777778
 20
150.755555
 30
0.0
  0
LWPOLYLINE
  5
118
100
AcDbEntity
  8
Ebene_1
 62
7
100
AcDbPolyline
 90
2
 70
0
 10
111.688318
 20
145.333388
 30
0.0
 10
111.510768
 20
145.355966
 30
0.0
  0
LWPOLYLINE
  5
119
100
AcDbEntity
  8
Ebene_1
 62
7
100
AcDbPolyline
 90
24
 70
0
 10
111.510768
 20
145.355825
 30
0.0
 10
111.337438
 20
145.400303
 30
0.0
 10
111.171038
 20
145.466202
 30
0.0
 10
111.014228
 20
145.552393
 30
0.0
 10
110.869448
 20
145.657577
 30
0.0
 10
110.739008
 20
145.780090
 30
0.0
 10
110.624928
 20
145.917983
 30
0.0
 10
110.529048
 20
146.069057
 30
0.0
 10
110.452858
 20
146.230996
 30
0.0
 10
110.397558
 20
146.401204
 30
0.0
 10
110.364018
 20
146.576972
 30
0.0
 10
110.352788
 20
146.755563
 30
0.0
 10
110.364017
 20
146.934153
 30
0.0
 10
110.397558
 20
147.109921
 30
0.0
 10
110.452858
 20
147.280129
 30
0.0
 10
110.529048
 20
147.442068
 30
0.0
 10
110.624928
 20
147.593142
 30
0.0
 10
110.739008
 20
147.731035
 30
0.0
 10
110.869448
 20
147.853548
 30
0.0
 10
111.014228
 20
147.958732
 30
0.0
 10
111.171038
 20
148.044923
 30
0.0
 10
111.337438
 20
148.110822
 30
0.0
 10
111.510768
 20
148.155300
 30
0.0
 10
111.688318
 20
148.177596
 30
0.0
  0
LWPOLYLINE
  5
11a
100
AcDbEntity
  8
Ebene_1
 62
7
100
AcDbPolyline
 90
3
 70
0
 10
111.688318
 20
148.177737
 30
0.0
 10
111.867258
 20
148.177737
 30
0.0
 10
112.044808
 20
148.155441
 30
0.0
  0
LWPOLYLINE
  5
11b
100
AcDbEntity
  8
Ebene_1
 62
7
100
AcDbPolyline
 90
24
 70
0
 10
112.044808
 20
148.155300
 30
0.0
 10
112.218128
 20
148.110822
 30
0.0
 10
112.384528
 20
148.044923
 30
0.0
 10
112.541348
 20
147.958732
 30
0.0
 10
112.686118
 20
147.853548
 30
0.0
 10
112.816568
 20
147.731035
 30
0.0
 10
112.930638
 20
147.593142
 30
0.0
 10
113.026528
 20
147.442068
 30
0.0
 10
113.102718
 20
147.280129
 30
0.0
 10
113.158008
 20
147.109921
 30
0.0
 10
113.191548
 20
146.934153
 30
0.0
 10
113.202778
 20
146.755563
 30
0.0
 10
113.191548
 20
146.576972
 30
0.0
 10
113.158008
 20
146.401204
 30
0.0
 10
113.102718
 20
146.230996
 30
0.0
 10
113.026528
 20
146.069057
 30
0.0
 10
112.930638
 20
145.917983
 30
0.0
 10
112.816568
 20
145.780090
 30
0.0
 10
112.686118
 20
145.657577
 30
0.0
 10
112.541348
 20
145.552393
 30
0.0
 10
112.384528
 20
145.466202
 30
0.0
 10
112.218128
 20
145.400303
 30
0.0
 10
112.044808
 20
145.355825
 30
0.0
 10
111.867258
 20
145.333247
 30
0.0
  0
LWPOLYLINE
  5
11c
100
AcDbEntity
  8
Ebene_1
 62
7
100
AcDbPolyline
 90
2
 70
0
 10
111.867258
 20
145.333388
 30
0.0
 10
111.688318
 20
145.333388
 30
0.0
  0
LWPOLYLINE
  5
11d
100
AcDbEntity
  8
Ebene_1
 62
7
100
AcDbPolyline
 90
2
 70
0
 10
121.688298
 20
145.333388
 30
0.0
 10
121.510748
 20
145.355966
 30
0.0
  0
LWPOLYLINE
  5
11e
100
AcDbEntity
  8
Ebene_1
 62
7
100
AcDbPolyline
 90
24
 70
0
 10
121.510748
 20
145.355825
 30
0.0
 10
121.337428
 20
145.400303
 30
0.0
 10
121.171028
 20
145.466202
 30
0.0
 10
121.014208
 20
145.552393
 30
0.0
 10
120.869438
 20
145.657577
 30
0.0
 10
120.738988
 20
145.780090
 30
0.0
 10
120.624918
 20
145.917983
 30
0.0
 10
120.529028
 20
146.069057
 30
0.0
 10
120.452838
 20
146.230996
 30
0.0
 10
120.397548
 20
146.401204
 30
0.0
 10
120.364008
 20
146.576972
 30
0.0
 10
120.352778
 20
146.755563
 30
0.0
 10
120.364008
 20
146.934153
 30
0.0
 10
120.397548
 20
147.109921
 30
0.0
 10
120.452838
 20
147.280129
 30
0.0
 10
120.529028
 20
147.442068
 30
0.0
 10
120.624918
 20
147.593142
 30
0.0
 10
120.738988
 20
147.731035
 30
0.0
 10
120.869438
 20
147.853548
 30
0.0
 10
121.014208
 20
147.958732
 30
0.0
 10
121.171028
 20
148.044923
 30
0.0
 10
121.337428
 20
148.110822
 30
0.0
 10
121.510748
 20
148.155300
 30
0.0
 10
121.688298
 20
148.177596
 30
0.0
  0
LWPOLYLINE
  5
11f
100
AcDbEntity
  8
Ebene_1
 62
7
100
AcDbPolyline
 90
3
 70
0
 10
121.688298
 20
148.177737
 30
0.0
 10
121.867238
 20
148.177737
 30
0.0
 10
122.044788
 20
148.155441
 30
0.0
  0
LWPOLYLINE
  5
120
100
AcDbEntity
  8
Ebene_1
 62
7
100
AcDbPolyline
 90
24
 70
0
 10
122.044788
 20
148.155300
 30
0.0
 10
122.218118
 20
148.110822
 30
0.0
 10
122.384518
 20
148.044923
 30
0.0
 10
122.541328
 20
147.958732
 30
0.0
 10
122.686108
 20
147.853548
 30
0.0
 10
122.816548
 20
147.731035
 30
0.0
 10
122.930628
 20
147.593142
 30
0.0
 10
123.026508
 20
147.442068
 30
0.0
 10
123.102698
 20
147.280129
 30
0.0
 10
123.157998
 20
147.109921
 30
0.0
 10
123.191538
 20
146.934153
 30
0.0
 10
123.202767
 20
146.755563
 30
0.0
 10
123.191538
 20
146.576972
 30
0.0
 10
123.157998
 20
146.401204
 30
0.0
 10
123.102698
 20
146.230996
 30
0.0
 10
123.026508
 20
146.069057
 30
0.0
 10
122.930628
 20
145.917983
 30
0.0
 10
122.816548
 20
145.780090
 30
0.0
 10
122.686108
 20
145.657577
 30
0.0
 10
122.541328
 20
145.552393
 30
0.0
 10
122.384518
 20
145.466202
 30
0.0
 10
122.218118
 20
145.400303
 30
0.0
 10
122.044788
 20
145.355825
 30
0.0
 10
121.867238
 20
145.333247
 30
0.0
  0
LWPOLYLINE
  5
121
100
AcDbEntity
  8
Ebene_1
 62
7
100
AcDbPolyline
 90
2
 70
0
 10
121.867238
 20
145.333388
 30
0.0
 10
121.688298
 20
145.333388
 30
0.0
  0
LWPOLYLINE
  5
122
100
AcDbEntity
  8
Ebene_1
 62
7
100
AcDbPolyline
 90
3
 70
0
 10
107.777778
 20
134.755587
 30
0.0
 10
125.777778
 20
134.755587
 30
0.0
 10
125.777778
 20
142.755571
 30
0.0
  0
LWPOLYLINE
  5
123
100
AcDbEntity
  8
Ebene_1
 62
7
100
AcDbPolyline
 90
2
 70
0
 10
111.688318
 20
137.333404
 30
0.0
 10
111.510768
 20
137.355982
 30
0.0
  0
LWPOLYLINE
  5
124
100
AcDbEntity
  8
Ebene_1
 62
7
100
AcDbPolyline
 90
24
 70
0
 10
111.510768
 20
137.355841
 30
0.0
 10
111.337438
 20
137.400319
 30
0.0
 10
111.171038
 20
137.466218
 30
0.0
 10
111.014228
 20
137.552409
 30
0.0
 10
110.869448
 20
137.657593
 30
0.0
 10
110.739008
 20
137.780106
 30
0.0
 10
110.624928
 20
137.917999
 30
0.0
 10
110.529048
 20
138.069073
 30
0.0
 10
110.452858
 20
138.231012
 30
0.0
 10
110.397558
 20
138.401220
 30
0.0
 10
110.364018
 20
138.576988
 30
0.0
 10
110.352788
 20
138.755579
 30
0.0
 10
110.364017
 20
138.934169
 30
0.0
 10
110.397558
 20
139.109937
 30
0.0
 10
110.452858
 20
139.280145
 30
0.0
 10
110.529048
 20
139.442084
 30
0.0
 10
110.624928
 20
139.593158
 30
0.0
 10
110.739008
 20
139.731051
 30
0.0
 10
110.869448
 20
139.853564
 30
0.0
 10
111.014228
 20
139.958748
 30
0.0
 10
111.171038
 20
140.044939
 30
0.0
 10
111.337438
 20
140.110838
 30
0.0
 10
111.510768
 20
140.155316
 30
0.0
 10
111.688318
 20
140.177612
 30
0.0
  0
LWPOLYLINE
  5
125
100
AcDbEntity
  8
Ebene_1
 62
7
100
AcDbPolyline
 90
3
 70
0
 10
111.688318
 20
140.177753
 30
0.0
 10
111.867258
 20
140.177753
 30
0.0
 10
112.044808
 20
140.155457
 30
0.0
  0
LWPOLYLINE
  5
126
100
AcDbEntity
  8
Ebene_1
 62
7
100
AcDbPolyline
 90
24
 70
0
 10
112.044808
 20
140.155316
 30
0.0
 10
112.218128
 20
140.110838
 30
0.0
 10
112.384528
 20
140.044939
 30
0.0
 10
112.541348
 20
139.958748
 30
0.0
 10
112.686118
 20
139.853564
 30
0.0
 10
112.816568
 20
139.731051
 30
0.0
 10
112.930638
 20
139.593158
 30
0.0
 10
113.026528
 20
139.442084
 30
0.0
 10
113.102718
 20
139.280145
 30
0.0
 10
113.158008
 20
139.109937
 30
0.0
 10
113.191548
 20
138.934169
 30
0.0
 10
113.202778
 20
138.755579
 30
0.0
 10
113.191548
 20
138.576988
 30
0.0
 10
113.158008
 20
138.401220
 30
0.0
 10
113.102718
 20
138.231012
 30
0.0
 10
113.026528
 20
138.069073
 30
0.0
 10
112.930638
 20
137.917999
 30
0.0
 10
112.816568
 20
137.780106
 30
0.0
 10
112.686118
 20
137.657593
 30
0.0
 10
112.541348
 20
137.552409
 30
0.0
 10
112.384528
 20
137.466218
 30
0.0
 10
112.218128
 20
137.400319
 30
0.0
 10
112.044808
 20
137.355841
 30
0.0
 10
111.867258
 20
137.333263
 30
0.0
  0
LWPOLYLINE
  5
127
100
AcDbEntity
  8
Ebene_1
 62
7
100
AcDbPolyline
 90
2
 70
0
 10
111.867258
 20
137.333404
 30
0.0
 10
111.688318
 20
137.333404
 30
0.0
  0
LWPOLYLINE
  5
128
100
AcDbEntity
  8
Ebene_1
 62
7
100
AcDbPolyline
 90
2
 70
0
 10
121.688298
 20
137.333404
 30
0.0
 10
121.510748
 20
137.355982
 30
0.0
  0
LWPOLYLINE
  5
129
100
AcDbEntity
  8
Ebene_1
 62
7
100
AcDbPolyline
 90
24
 70
0
 10
121.510748
 20
137.355841
 30
0.0
 10
121.337428
 20
137.400319
 30
0.0
 10
121.171028
 20
137.466218
 30
0.0
 10
121.014208
 20
137.552409
 30
0.0
 10
120.869438
 20
137.657593
 30
0.0
 10
120.738988
 20
137.780106
 30
0.0
 10
120.624918
 20
137.917999
 30
0.0
 10
120.529028
 20
138.069073
 30
0.0
 10
120.452838
 20
138.231012
 30
0.0
 10
120.397548
 20
138.401220
 30
0.0
 10
120.364008
 20
138.576988
 30
0.0
 10
120.352778
 20
138.755579
 30
0.0
 10
120.364008
 20
138.934169
 30
0.0
 10
120.397548
 20
139.109937
 30
0.0
 10
120.452838
 20
139.280145
 30
0.0
 10
120.529028
 20
139.442084
 30
0.0
 10
120.624918
 20
139.593158
 30
0.0
 10
120.738988
 20
139.731051
 30
0.0
 10
120.869438
 20
139.853564
 30
0.0
 10
121.014208
 20
139.958748
 30
0.0
 10
121.171028
 20
140.044939
 30
0.0
 10
121.337428
 20
140.110838
 30
0.0
 10
121.510748
 20
140.155316
 30
0.0
 10
121.688298
 20
140.177612
 30
0.0
  0
LWPOLYLINE
  5
12a
100
AcDbEntity
  8
Ebene_1
 62
7
100
AcDbPolyline
 90
3
 70
0
 10
121.688298
 20
140.177753
 30
0.0
 10
121.867238
 20
140.177753
 30
0.0
 10
122.044788
 20
140.155457
 30
0.0
  0
LWPOLYLINE
  5
12b
100
AcDbEntity
  8
Ebene_1
 62
7
100
AcDbPolyline
 90
24
 70
0
 10
122.044788
 20
140.155316
 30
0.0
 10
122.218118
 20
140.110838
 30
0.0
 10
122.384518
 20
140.044939
 30
0.0
 10
122.541328
 20
139.958748
 30
0.0
 10
122.686108
 20
139.853564
 30
0.0
 10
122.816548
 20
139.731051
 30
0.0
 10
122.930628
 20
139.593158
 30
0.0
 10
123.026508
 20
139.442084
 30
0.0
 10
123.102698
 20
139.280145
 30
0.0
 10
123.157998
 20
139.109937
 30
0.0
 10
123.191538
 20
138.934169
 30
0.0
 10
123.202767
 20
138.755579
 30
0.0
 10
123.191538
 20
138.576988
 30
0.0
 10
123.157998
 20
138.401220
 30
0.0
 10
123.102698
 20
138.231012
 30
0.0
 10
123.026508
 20
138.069073
 30
0.0
 10
122.930628
 20
137.917999
 30
0.0
 10
122.816548
 20
137.780106
 30
0.0
 10
122.686108
 20
137.657593
 30
0.0
 10
122.541328
 20
137.552409
 30
0.0
 10
122.384518
 20
137.466218
 30
0.0
 10
122.218118
 20
137.400319
 30
0.0
 10
122.044788
 20
137.355841
 30
0.0
 10
121.867238
 20
137.333263
 30
0.0
  0
LWPOLYLINE
  5
12c
100
AcDbEntity
  8
Ebene_1
 62
7
100
AcDbPolyline
 90
2
 70
0
 10
121.867238
 20
137.333404
 30
0.0
 10
121.688298
 20
137.333404
 30
0.0
  0
LWPOLYLINE
  5
12d
100
AcDbEntity
  8
Ebene_1
 62
7
100
AcDbPolyline
 90
2
 70
0
 10
143.777779
 20
150.755555
 30
0.0
 10
125.777779
 20
150.755555
 30
0.0
  0
LWPOLYLINE
  5
12e
100
AcDbEntity
  8
Ebene_1
 62
7
100
AcDbPolyline
 90
3
 70
0
 10
125.777779
 20
142.755571
 30
0.0
 10
143.777779
 20
142.755571
 30
0.0
 10
143.777779
 20
150.755555
 30
0.0
  0
LWPOLYLINE
  5
12f
100
AcDbEntity
  8
Ebene_1
 62
7
100
AcDbPolyline
 90
2
 70
0
 10
129.688319
 20
145.333388
 30
0.0
 10
129.510769
 20
145.355966
 30
0.0
  0
LWPOLYLINE
  5
130
100
AcDbEntity
  8
Ebene_1
 62
7
100
AcDbPolyline
 90
24
 70
0
 10
129.510769
 20
145.355825
 30
0.0
 10
129.337439
 20
145.400303
 30
0.0
 10
129.171039
 20
145.466202
 30
0.0
 10
129.014229
 20
145.552393
 30
0.0
 10
128.869449
 20
145.657577
 30
0.0
 10
128.739009
 20
145.780090
 30
0.0
 10
128.624929
 20
145.917983
 30
0.0
 10
128.529049
 20
146.069057
 30
0.0
 10
128.452859
 20
146.230996
 30
0.0
 10
128.397559
 20
146.401204
 30
0.0
 10
128.364019
 20
146.576972
 30
0.0
 10
128.352790
 20
146.755563
 30
0.0
 10
128.364019
 20
146.934153
 30
0.0
 10
128.397559
 20
147.109921
 30
0.0
 10
128.452859
 20
147.280129
 30
0.0
 10
128.529049
 20
147.442068
 30
0.0
 10
128.624929
 20
147.593142
 30
0.0
 10
128.739009
 20
147.731035
 30
0.0
 10
128.869449
 20
147.853548
 30
0.0
 10
129.014229
 20
147.958732
 30
0.0
 10
129.171039
 20
148.044923
 30
0.0
 10
129.337439
 20
148.110822
 30
0.0
 10
129.510769
 20
148.155300
 30
0.0
 10
129.688319
 20
148.177596
 30
0.0
  0
LWPOLYLINE
  5
131
100
AcDbEntity
  8
Ebene_1
 62
7
100
AcDbPolyline
 90
3
 70
0
 10
129.688319
 20
148.177737
 30
0.0
 10
129.867259
 20
148.177737
 30
0.0
 10
130.044809
 20
148.155441
 30
0.0
  0
LWPOLYLINE
  5
132
100
AcDbEntity
  8
Ebene_1
 62
7
100
AcDbPolyline
 90
24
 70
0
 10
130.044809
 20
148.155300
 30
0.0
 10
130.218129
 20
148.110822
 30
0.0
 10
130.384529
 20
148.044923
 30
0.0
 10
130.541349
 20
147.958732
 30
0.0
 10
130.686119
 20
147.853548
 30
0.0
 10
130.816569
 20
147.731035
 30
0.0
 10
130.930639
 20
147.593142
 30
0.0
 10
131.026529
 20
147.442068
 30
0.0
 10
131.102719
 20
147.280129
 30
0.0
 10
131.158009
 20
147.109921
 30
0.0
 10
131.191549
 20
146.934153
 30
0.0
 10
131.202779
 20
146.755563
 30
0.0
 10
131.191549
 20
146.576972
 30
0.0
 10
131.158009
 20
146.401204
 30
0.0
 10
131.102719
 20
146.230996
 30
0.0
 10
131.026529
 20
146.069057
 30
0.0
 10
130.930639
 20
145.917983
 30
0.0
 10
130.816569
 20
145.780090
 30
0.0
 10
130.686119
 20
145.657577
 30
0.0
 10
130.541349
 20
145.552393
 30
0.0
 10
130.384529
 20
145.466202
 30
0.0
 10
130.218129
 20
145.400303
 30
0.0
 10
130.044809
 20
145.355825
 30
0.0
 10
129.867259
 20
145.333247
 30
0.0
  0
LWPOLYLINE
  5
133
100
AcDbEntity
  8
Ebene_1
 62
7
100
AcDbPolyline
 90
2
 70
0
 10
129.867259
 20
145.333388
 30
0.0
 10
129.688319
 20
145.333388
 30
0.0
  0
LWPOLYLINE
  5
134
100
AcDbEntity
  8
Ebene_1
 62
7
100
AcDbPolyline
 90
2
 70
0
 10
139.688299
 20
145.333388
 30
0.0
 10
139.510749
 20
145.355966
 30
0.0
  0
LWPOLYLINE
  5
135
100
AcDbEntity
  8
Ebene_1
 62
7
100
AcDbPolyline
 90
24
 70
0
 10
139.510749
 20
145.355825
 30
0.0
 10
139.337429
 20
145.400303
 30
0.0
 10
139.171029
 20
145.466202
 30
0.0
 10
139.014209
 20
145.552393
 30
0.0
 10
138.869439
 20
145.657577
 30
0.0
 10
138.738989
 20
145.780090
 30
0.0
 10
138.624919
 20
145.917983
 30
0.0
 10
138.529029
 20
146.069057
 30
0.0
 10
138.452839
 20
146.230996
 30
0.0
 10
138.397549
 20
146.401204
 30
0.0
 10
138.364009
 20
146.576972
 30
0.0
 10
138.352779
 20
146.755563
 30
0.0
 10
138.364009
 20
146.934153
 30
0.0
 10
138.397549
 20
147.109921
 30
0.0
 10
138.452839
 20
147.280129
 30
0.0
 10
138.529029
 20
147.442068
 30
0.0
 10
138.624919
 20
147.593142
 30
0.0
 10
138.738989
 20
147.731035
 30
0.0
 10
138.869439
 20
147.853548
 30
0.0
 10
139.014209
 20
147.958732
 30
0.0
 10
139.171029
 20
148.044923
 30
0.0
 10
139.337429
 20
148.110822
 30
0.0
 10
139.510749
 20
148.155300
 30
0.0
 10
139.688299
 20
148.177596
 30
0.0
  0
LWPOLYLINE
  5
136
100
AcDbEntity
  8
Ebene_1
 62
7
100
AcDbPolyline
 90
3
 70
0
 10
139.688299
 20
148.177737
 30
0.0
 10
139.867239
 20
148.177737
 30
0.0
 10
140.044789
 20
148.155441
 30
0.0
  0
LWPOLYLINE
  5
137
100
AcDbEntity
  8
Ebene_1
 62
7
100
AcDbPolyline
 90
24
 70
0
 10
140.044789
 20
148.155300
 30
0.0
 10
140.218119
 20
148.110822
 30
0.0
 10
140.384519
 20
148.044923
 30
0.0
 10
140.541329
 20
147.958732
 30
0.0
 10
140.686109
 20
147.853548
 30
0.0
 10
140.816549
 20
147.731035
 30
0.0
 10
140.930629
 20
147.593142
 30
0.0
 10
141.026509
 20
147.442068
 30
0.0
 10
141.102699
 20
147.280129
 30
0.0
 10
141.157999
 20
147.109921
 30
0.0
 10
141.191539
 20
146.934153
 30
0.0
 10
141.202769
 20
146.755563
 30
0.0
 10
141.191540
 20
146.576972
 30
0.0
 10
141.157999
 20
146.401204
 30
0.0
 10
141.102699
 20
146.230996
 30
0.0
 10
141.026509
 20
146.069057
 30
0.0
 10
140.930629
 20
145.917983
 30
0.0
 10
140.816549
 20
145.780090
 30
0.0
 10
140.686109
 20
145.657577
 30
0.0
 10
140.541329
 20
145.552393
 30
0.0
 10
140.384519
 20
145.466202
 30
0.0
 10
140.218119
 20
145.400303
 30
0.0
 10
140.044789
 20
145.355825
 30
0.0
 10
139.867239
 20
145.333247
 30
0.0
  0
LWPOLYLINE
  5
138
100
AcDbEntity
  8
Ebene_1
 62
7
100
AcDbPolyline
 90
2
 70
0
 10
139.867239
 20
145.333388
 30
0.0
 10
139.688299
 20
145.333388
 30
0.0
  0
LWPOLYLINE
  5
139
100
AcDbEntity
  8
Ebene_1
 62
7
100
AcDbPolyline
 90
3
 70
0
 10
125.777779
 20
134.755587
 30
0.0
 10
143.777779
 20
134.755587
 30
0.0
 10
143.777779
 20
142.755571
 30
0.0
  0
LWPOLYLINE
  5
13a
100
AcDbEntity
  8
Ebene_1
 62
7
100
AcDbPolyline
 90
2
 70
0
 10
129.688319
 20
137.333404
 30
0.0
 10
129.510769
 20
137.355982
 30
0.0
  0
LWPOLYLINE
  5
13b
100
AcDbEntity
  8
Ebene_1
 62
7
100
AcDbPolyline
 90
24
 70
0
 10
129.510769
 20
137.355841
 30
0.0
 10
129.337439
 20
137.400319
 30
0.0
 10
129.171039
 20
137.466218
 30
0.0
 10
129.014229
 20
137.552409
 30
0.0
 10
128.869449
 20
137.657593
 30
0.0
 10
128.739009
 20
137.780106
 30
0.0
 10
128.624929
 20
137.917999
 30
0.0
 10
128.529049
 20
138.069073
 30
0.0
 10
128.452859
 20
138.231012
 30
0.0
 10
128.397559
 20
138.401220
 30
0.0
 10
128.364019
 20
138.576988
 30
0.0
 10
128.352790
 20
138.755579
 30
0.0
 10
128.364019
 20
138.934169
 30
0.0
 10
128.397559
 20
139.109937
 30
0.0
 10
128.452859
 20
139.280145
 30
0.0
 10
128.529049
 20
139.442084
 30
0.0
 10
128.624929
 20
139.593158
 30
0.0
 10
128.739009
 20
139.731051
 30
0.0
 10
128.869449
 20
139.853564
 30
0.0
 10
129.014229
 20
139.958748
 30
0.0
 10
129.171039
 20
140.044939
 30
0.0
 10
129.337439
 20
140.110838
 30
0.0
 10
129.510769
 20
140.155316
 30
0.0
 10
129.688319
 20
140.177612
 30
0.0
  0
LWPOLYLINE
  5
13c
100
AcDbEntity
  8
Ebene_1
 62
7
100
AcDbPolyline
 90
3
 70
0
 10
129.688319
 20
140.177753
 30
0.0
 10
129.867259
 20
140.177753
 30
0.0
 10
130.044809
 20
140.155457
 30
0.0
  0
LWPOLYLINE
  5
13d
100
AcDbEntity
  8
Ebene_1
 62
7
100
AcDbPolyline
 90
24
 70
0
 10
130.044809
 20
140.155316
 30
0.0
 10
130.218129
 20
140.110838
 30
0.0
 10
130.384529
 20
140.044939
 30
0.0
 10
130.541349
 20
139.958748
 30
0.0
 10
130.686119
 20
139.853564
 30
0.0
 10
130.816569
 20
139.731051
 30
0.0
 10
130.930639
 20
139.593158
 30
0.0
 10
131.026529
 20
139.442084
 30
0.0
 10
131.102719
 20
139.280145
 30
0.0
 10
131.158009
 20
139.109937
 30
0.0
 10
131.191549
 20
138.934169
 30
0.0
 10
131.202779
 20
138.755579
 30
0.0
 10
131.191549
 20
138.576988
 30
0.0
 10
131.158009
 20
138.401220
 30
0.0
 10
131.102719
 20
138.231012
 30
0.0
 10
131.026529
 20
138.069073
 30
0.0
 10
130.930639
 20
137.917999
 30
0.0
 10
130.816569
 20
137.780106
 30
0.0
 10
130.686119
 20
137.657593
 30
0.0
 10
130.541349
 20
137.552409
 30
0.0
 10
130.384529
 20
137.466218
 30
0.0
 10
130.218129
 20
137.400319
 30
0.0
 10
130.044809
 20
137.355841
 30
0.0
 10
129.867259
 20
137.333263
 30
0.0
  0
LWPOLYLINE
  5
13e
100
AcDbEntity
  8
Ebene_1
 62
7
100
AcDbPolyline
 90
2
 70
0
 10
129.867259
 20
137.333404
 30
0.0
 10
129.688319
 20
137.333404
 30
0.0
  0
LWPOLYLINE
  5
13f
100
AcDbEntity
  8
Ebene_1
 62
7
100
AcDbPolyline
 90
2
 70
0
 10
139.688299
 20
137.333404
 30
0.0
 10
139.510749
 20
137.355982
 30
0.0
  0
LWPOLYLINE
  5
140
100
AcDbEntity
  8
Ebene_1
 62
7
100
AcDbPolyline
 90
24
 70
0
 10
139.510749
 20
137.355841
 30
0.0
 10
139.337429
 20
137.400319
 30
0.0
 10
139.171029
 20
137.466218
 30
0.0
 10
139.014209
 20
137.552409
 30
0.0
 10
138.869439
 20
137.657593
 30
0.0
 10
138.738989
 20
137.780106
 30
0.0
 10
138.624919
 20
137.917999
 30
0.0
 10
138.529029
 20
138.069073
 30
0.0
 10
138.452839
 20
138.231012
 30
0.0
 10
138.397549
 20
138.401220
 30
0.0
 10
138.364009
 20
138.576988
 30
0.0
 10
138.352779
 20
138.755579
 30
0.0
 10
138.364009
 20
138.934169
 30
0.0
 10
138.397549
 20
139.109937
 30
0.0
 10
138.452839
 20
139.280145
 30
0.0
 10
138.529029
 20
139.442084
 30
0.0
 10
138.624919
 20
139.593158
 30
0.0
 10
138.738989
 20
139.731051
 30
0.0
 10
138.869439
 20
139.853564
 30
0.0
 10
139.014209
 20
139.958748
 30
0.0
 10
139.171029
 20
140.044939
 30
0.0
 10
139.337429
 20
140.110838
 30
0.0
 10
139.510749
 20
140.155316
 30
0.0
 10
139.688299
 20
140.177612
 30
0.0
  0
LWPOLYLINE
  5
141
100
AcDbEntity
  8
Ebene_1
 62
7
100
AcDbPolyline
 90
3
 70
0
 10
139.688299
 20
140.177753
 30
0.0
 10
139.867239
 20
140.177753
 30
0.0
 10
140.044789
 20
140.155457
 30
0.0
  0
LWPOLYLINE
  5
142
100
AcDbEntity
  8
Ebene_1
 62
7
100
AcDbPolyline
 90
24
 70
0
 10
140.044789
 20
140.155316
 30
0.0
 10
140.218119
 20
140.110838
 30
0.0
 10
140.384519
 20
140.044939
 30
0.0
 10
140.541329
 20
139.958748
 30
0.0
 10
140.686109
 20
139.853564
 30
0.0
 10
140.816549
 20
139.731051
 30
0.0
 10
140.930629
 20
139.593158
 30
0.0
 10
141.026509
 20
139.442084
 30
0.0
 10
141.102699
 20
139.280145
 30
0.0
 10
141.157999
 20
139.109937
 30
0.0
 10
141.191539
 20
138.934169
 30
0.0
 10
141.202769
 20
138.755579
 30
0.0
 10
141.191540
 20
138.576988
 30
0.0
 10
141.157999
 20
138.401220
 30
0.0
 10
141.102699
 20
138.231012
 30
0.0
 10
141.026509
 20
138.069073
 30
0.0
 10
140.930629
 20
137.917999
 30
0.0
 10
140.816549
 20
137.780106
 30
0.0
 10
140.686109
 20
137.657593
 30
0.0
 10
140.541329
 20
137.552409
 30
0.0
 10
140.384519
 20
137.466218
 30
0.0
 10
140.218119
 20
137.400319
 30
0.0
 10
140.044789
 20
137.355841
 30
0.0
 10
139.867239
 20
137.333263
 30
0.0
  0
LWPOLYLINE
  5
143
100
AcDbEntity
  8
Ebene_1
 62
7
100
AcDbPolyline
 90
2
 70
0
 10
139.867239
 20
137.333404
 30
0.0
 10
139.688299
 20
137.333404
 30
0.0
  0
LWPOLYLINE
  5
144
100
AcDbEntity
  8
Ebene_1
 62
7
100
AcDbPolyline
 90
2
 70
0
 10
161.777780
 20
150.755555
 30
0.0
 10
143.777780
 20
150.755555
 30
0.0
  0
LWPOLYLINE
  5
145
100
AcDbEntity
  8
Ebene_1
 62
7
100
AcDbPolyline
 90
3
 70
0
 10
143.777780
 20
142.755571
 30
0.0
 10
161.777780
 20
142.755571
 30
0.0
 10
161.777780
 20
150.755555
 30
0.0
  0
LWPOLYLINE
  5
146
100
AcDbEntity
  8
Ebene_1
 62
7
100
AcDbPolyline
 90
2
 70
0
 10
147.688320
 20
145.333388
 30
0.0
 10
147.510770
 20
145.355966
 30
0.0
  0
LWPOLYLINE
  5
147
100
AcDbEntity
  8
Ebene_1
 62
7
100
AcDbPolyline
 90
24
 70
0
 10
147.510770
 20
145.355825
 30
0.0
 10
147.337440
 20
145.400303
 30
0.0
 10
147.171040
 20
145.466202
 30
0.0
 10
147.014230
 20
145.552393
 30
0.0
 10
146.869450
 20
145.657577
 30
0.0
 10
146.739010
 20
145.780090
 30
0.0
 10
146.624930
 20
145.917983
 30
0.0
 10
146.529050
 20
146.069057
 30
0.0
 10
146.452860
 20
146.230996
 30
0.0
 10
146.397560
 20
146.401204
 30
0.0
 10
146.364020
 20
146.576972
 30
0.0
 10
146.352790
 20
146.755563
 30
0.0
 10
146.364019
 20
146.934153
 30
0.0
 10
146.397560
 20
147.109921
 30
0.0
 10
146.452860
 20
147.280129
 30
0.0
 10
146.529050
 20
147.442068
 30
0.0
 10
146.624930
 20
147.593142
 30
0.0
 10
146.739010
 20
147.731035
 30
0.0
 10
146.869450
 20
147.853548
 30
0.0
 10
147.014230
 20
147.958732
 30
0.0
 10
147.171040
 20
148.044923
 30
0.0
 10
147.337440
 20
148.110822
 30
0.0
 10
147.510770
 20
148.155300
 30
0.0
 10
147.688320
 20
148.177596
 30
0.0
  0
LWPOLYLINE
  5
148
100
AcDbEntity
  8
Ebene_1
 62
7
100
AcDbPolyline
 90
3
 70
0
 10
147.688320
 20
148.177737
 30
0.0
 10
147.867260
 20
148.177737
 30
0.0
 10
148.044810
 20
148.155441
 30
0.0
  0
LWPOLYLINE
  5
149
100
AcDbEntity
  8
Ebene_1
 62
7
100
AcDbPolyline
 90
24
 70
0
 10
148.044810
 20
148.155300
 30
0.0
 10
148.218130
 20
148.110822
 30
0.0
 10
148.384530
 20
148.044923
 30
0.0
 10
148.541350
 20
147.958732
 30
0.0
 10
148.686120
 20
147.853548
 30
0.0
 10
148.816570
 20
147.731035
 30
0.0
 10
148.930640
 20
147.593142
 30
0.0
 10
149.026530
 20
147.442068
 30
0.0
 10
149.102720
 20
147.280129
 30
0.0
 10
149.158010
 20
147.109921
 30
0.0
 10
149.191550
 20
146.934153
 30
0.0
 10
149.202780
 20
146.755563
 30
0.0
 10
149.191550
 20
146.576972
 30
0.0
 10
149.158010
 20
146.401204
 30
0.0
 10
149.102720
 20
146.230996
 30
0.0
 10
149.026530
 20
146.069057
 30
0.0
 10
148.930640
 20
145.917983
 30
0.0
 10
148.816570
 20
145.780090
 30
0.0
 10
148.686120
 20
145.657577
 30
0.0
 10
148.541350
 20
145.552393
 30
0.0
 10
148.384530
 20
145.466202
 30
0.0
 10
148.218130
 20
145.400303
 30
0.0
 10
148.044810
 20
145.355825
 30
0.0
 10
147.867260
 20
145.333247
 30
0.0
  0
LWPOLYLINE
  5
14a
100
AcDbEntity
  8
Ebene_1
 62
7
100
AcDbPolyline
 90
2
 70
0
 10
147.867260
 20
145.333388
 30
0.0
 10
147.688320
 20
145.333388
 30
0.0
  0
LWPOLYLINE
  5
14b
100
AcDbEntity
  8
Ebene_1
 62
7
100
AcDbPolyline
 90
2
 70
0
 10
157.688300
 20
145.333388
 30
0.0
 10
157.510750
 20
145.355966
 30
0.0
  0
LWPOLYLINE
  5
14c
100
AcDbEntity
  8
Ebene_1
 62
7
100
AcDbPolyline
 90
24
 70
0
 10
157.510750
 20
145.355825
 30
0.0
 10
157.337430
 20
145.400303
 30
0.0
 10
157.171030
 20
145.466202
 30
0.0
 10
157.014210
 20
145.552393
 30
0.0
 10
156.869440
 20
145.657577
 30
0.0
 10
156.738990
 20
145.780090
 30
0.0
 10
156.624920
 20
145.917983
 30
0.0
 10
156.529030
 20
146.069057
 30
0.0
 10
156.452840
 20
146.230996
 30
0.0
 10
156.397550
 20
146.401204
 30
0.0
 10
156.364010
 20
146.576972
 30
0.0
 10
156.352780
 20
146.755563
 30
0.0
 10
156.364010
 20
146.934153
 30
0.0
 10
156.397550
 20
147.109921
 30
0.0
 10
156.452840
 20
147.280129
 30
0.0
 10
156.529030
 20
147.442068
 30
0.0
 10
156.624920
 20
147.593142
 30
0.0
 10
156.738990
 20
147.731035
 30
0.0
 10
156.869440
 20
147.853548
 30
0.0
 10
157.014210
 20
147.958732
 30
0.0
 10
157.171030
 20
148.044923
 30
0.0
 10
157.337430
 20
148.110822
 30
0.0
 10
157.510750
 20
148.155300
 30
0.0
 10
157.688300
 20
148.177596
 30
0.0
  0
LWPOLYLINE
  5
14d
100
AcDbEntity
  8
Ebene_1
 62
7
100
AcDbPolyline
 90
3
 70
0
 10
157.688300
 20
148.177737
 30
0.0
 10
157.867240
 20
148.177737
 30
0.0
 10
158.044790
 20
148.155441
 30
0.0
  0
LWPOLYLINE
  5
14e
100
AcDbEntity
  8
Ebene_1
 62
7
100
AcDbPolyline
 90
24
 70
0
 10
158.044790
 20
148.155300
 30
0.0
 10
158.218120
 20
148.110822
 30
0.0
 10
158.384520
 20
148.044923
 30
0.0
 10
158.541330
 20
147.958732
 30
0.0
 10
158.686110
 20
147.853548
 30
0.0
 10
158.816550
 20
147.731035
 30
0.0
 10
158.930630
 20
147.593142
 30
0.0
 10
159.026510
 20
147.442068
 30
0.0
 10
159.102700
 20
147.280129
 30
0.0
 10
159.158000
 20
147.109921
 30
0.0
 10
159.191540
 20
146.934153
 30
0.0
 10
159.202769
 20
146.755563
 30
0.0
 10
159.191540
 20
146.576972
 30
0.0
 10
159.158000
 20
146.401204
 30
0.0
 10
159.102700
 20
146.230996
 30
0.0
 10
159.026510
 20
146.069057
 30
0.0
 10
158.930630
 20
145.917983
 30
0.0
 10
158.816550
 20
145.780090
 30
0.0
 10
158.686110
 20
145.657577
 30
0.0
 10
158.541330
 20
145.552393
 30
0.0
 10
158.384520
 20
145.466202
 30
0.0
 10
158.218120
 20
145.400303
 30
0.0
 10
158.044790
 20
145.355825
 30
0.0
 10
157.867240
 20
145.333247
 30
0.0
  0
LWPOLYLINE
  5
14f
100
AcDbEntity
  8
Ebene_1
 62
7
100
AcDbPolyline
 90
2
 70
0
 10
157.867240
 20
145.333388
 30
0.0
 10
157.688300
 20
145.333388
 30
0.0
  0
LWPOLYLINE
  5
150
100
AcDbEntity
  8
Ebene_1
 62
7
100
AcDbPolyline
 90
3
 70
0
 10
143.777780
 20
134.755587
 30
0.0
 10
161.777780
 20
134.755587
 30
0.0
 10
161.777780
 20
142.755571
 30
0.0
  0
LWPOLYLINE
  5
151
100
AcDbEntity
  8
Ebene_1
 62
7
100
AcDbPolyline
 90
2
 70
0
 10
147.688320
 20
137.333404
 30
0.0
 10
147.510770
 20
137.355982
 30
0.0
  0
LWPOLYLINE
  5
152
100
AcDbEntity
  8
Ebene_1
 62
7
100
AcDbPolyline
 90
24
 70
0
 10
147.510770
 20
137.355841
 30
0.0
 10
147.337440
 20
137.400319
 30
0.0
 10
147.171040
 20
137.466218
 30
0.0
 10
147.014230
 20
137.552409
 30
0.0
 10
146.869450
 20
137.657593
 30
0.0
 10
146.739010
 20
137.780106
 30
0.0
 10
146.624930
 20
137.917999
 30
0.0
 10
146.529050
 20
138.069073
 30
0.0
 10
146.452860
 20
138.231012
 30
0.0
 10
146.397560
 20
138.401220
 30
0.0
 10
146.364020
 20
138.576988
 30
0.0
 10
146.352790
 20
138.755579
 30
0.0
 10
146.364019
 20
138.934169
 30
0.0
 10
146.397560
 20
139.109937
 30
0.0
 10
146.452860
 20
139.280145
 30
0.0
 10
146.529050
 20
139.442084
 30
0.0
 10
146.624930
 20
139.593158
 30
0.0
 10
146.739010
 20
139.731051
 30
0.0
 10
146.869450
 20
139.853564
 30
0.0
 10
147.014230
 20
139.958748
 30
0.0
 10
147.171040
 20
140.044939
 30
0.0
 10
147.337440
 20
140.110838
 30
0.0
 10
147.510770
 20
140.155316
 30
0.0
 10
147.688320
 20
140.177612
 30
0.0
  0
LWPOLYLINE
  5
153
100
AcDbEntity
  8
Ebene_1
 62
7
100
AcDbPolyline
 90
3
 70
0
 10
147.688320
 20
140.177753
 30
0.0
 10
147.867260
 20
140.177753
 30
0.0
 10
148.044810
 20
140.155457
 30
0.0
  0
LWPOLYLINE
  5
154
100
AcDbEntity
  8
Ebene_1
 62
7
100
AcDbPolyline
 90
24
 70
0
 10
148.044810
 20
140.155316
 30
0.0
 10
148.218130
 20
140.110838
 30
0.0
 10
148.384530
 20
140.044939
 30
0.0
 10
148.541350
 20
139.958748
 30
0.0
 10
148.686120
 20
139.853564
 30
0.0
 10
148.816570
 20
139.731051
 30
0.0
 10
148.930640
 20
139.593158
 30
0.0
 10
149.026530
 20
139.442084
 30
0.0
 10
149.102720
 20
139.280145
 30
0.0
 10
149.158010
 20
139.109937
 30
0.0
 10
149.191550
 20
138.934169
 30
0.0
 10
149.202780
 20
138.755579
 30
0.0
 10
149.191550
 20
138.576988
 30
0.0
 10
149.158010
 20
138.401220
 30
0.0
 10
149.102720
 20
138.231012
 30
0.0
 10
149.026530
 20
138.069073
 30
0.0
 10
148.930640
 20
137.917999
 30
0.0
 10
148.816570
 20
137.780106
 30
0.0
 10
148.686120
 20
137.657593
 30
0.0
 10
148.541350
 20
137.552409
 30
0.0
 10
148.384530
 20
137.466218
 30
0.0
 10
148.218130
 20
137.400319
 30
0.0
 10
148.044810
 20
137.355841
 30
0.0
 10
147.867260
 20
137.333263
 30
0.0
  0
LWPOLYLINE
  5
155
100
AcDbEntity
  8
Ebene_1
 62
7
100
AcDbPolyline
 90
2
 70
0
 10
147.867260
 20
137.333404
 30
0.0
 10
147.688320
 20
137.333404
 30
0.0
  0
LWPOLYLINE
  5
156
100
AcDbEntity
  8
Ebene_1
 62
7
100
AcDbPolyline
 90
2
 70
0
 10
157.688300
 20
137.333404
 30
0.0
 10
157.510750
 20
137.355982
 30
0.0
  0
LWPOLYLINE
  5
157
100
AcDbEntity
  8
Ebene_1
 62
7
100
AcDbPolyline
 90
24
 70
0
 10
157.510750
 20
137.355841
 30
0.0
 10
157.337430
 20
137.400319
 30
0.0
 10
157.171030
 20
137.466218
 30
0.0
 10
157.014210
 20
137.552409
 30
0.0
 10
156.869440
 20
137.657593
 30
0.0
 10
156.738990
 20
137.780106
 30
0.0
 10
156.624920
 20
137.917999
 30
0.0
 10
156.529030
 20
138.069073
 30
0.0
 10
156.452840
 20
138.231012
 30
0.0
 10
156.397550
 20
138.401220
 30
0.0
 10
156.364010
 20
138.576988
 30
0.0
 10
156.352780
 20
138.755579
 30
0.0
 10
156.364010
 20
138.934169
 30
0.0
 10
156.397550
 20
139.109937
 30
0.0
 10
156.452840
 20
139.280145
 30
0.0
 10
156.529030
 20
139.442084
 30
0.0
 10
156.624920
 20
139.593158
 30
0.0
 10
156.738990
 20
139.731051
 30
0.0
 10
156.869440
 20
139.853564
 30
0.0
 10
157.014210
 20
139.958748
 30
0.0
 10
157.171030
 20
140.044939
 30
0.0
 10
157.337430
 20
140.110838
 30
0.0
 10
157.510750
 20
140.155316
 30
0.0
 10
157.688300
 20
140.177612
 30
0.0
  0
LWPOLYLINE
  5
158
100
AcDbEntity
  8
Ebene_1
 62
7
100
AcDbPolyline
 90
3
 70
0
 10
157.688300
 20
140.177753
 30
0.0
 10
157.867240
 20
140.177753
 30
0.0
 10
158.044790
 20
140.155457
 30
0.0
  0
LWPOLYLINE
  5
159
100
AcDbEntity
  8
Ebene_1
 62
7
100
AcDbPolyline
 90
24
 70
0
 10
158.044790
 20
140.155316
 30
0.0
 10
158.218120
 20
140.110838
 30
0.0
 10
158.384520
 20
140.044939
 30
0.0
 10
158.541330
 20
139.958748
 30
0.0
 10
158.686110
 20
139.853564
 30
0.0
 10
158.816550
 20
139.731051
 30
0.0
 10
158.930630
 20
139.593158
 30
0.0
 10
159.026510
 20
139.442084
 30
0.0
 10
159.102700
 20
139.280145
 30
0.0
 10
159.158000
 20
139.109937
 30
0.0
 10
159.191540
 20
138.934169
 30
0.0
 10
159.202769
 20
138.755579
 30
0.0
 10
159.191540
 20
138.576988
 30
0.0
 10
159.158000
 20
138.401220
 30
0.0
 10
159.102700
 20
138.231012
 30
0.0
 10
159.026510
 20
138.069073
 30
0.0
 10
158.930630
 20
137.917999
 30
0.0
 10
158.816550
 20
137.780106
 30
0.0
 10
158.686110
 20
137.657593
 30
0.0
 10
158.541330
 20
137.552409
 30
0.0
 10
158.384520
 20
137.466218
 30
0.0
 10
158.218120
 20
137.400319
 30
0.0
 10
158.044790
 20
137.355841
 30
0.0
 10
157.867240
 20
137.333263
 30
0.0
  0
LWPOLYLINE
  5
15a
100
AcDbEntity
  8
Ebene_1
 62
7
100
AcDbPolyline
 90
2
 70
0
 10
157.867240
 20
137.333404
 30
0.0
 10
157.688300
 20
137.333404
 30
0.0
  0
LWPOLYLINE
  5
15b
100
AcDbEntity
  8
Ebene_1
 62
7
100
AcDbPolyline
 90
4
 70
0
 10
89.777778
 20
150.755555
 30
0.0
 10
71.777778
 20
150.755555
 30
0.0
 10
71.777778
 20
142.755571
 30
0.0
 10
89.777778
 20
142.755571
 30
0.0
  0
LWPOLYLINE
  5
15c
100
AcDbEntity
  8
Ebene_1
 62
7
100
AcDbPolyline
 90
2
 70
0
 10
75.688318
 20
145.333388
 30
0.0
 10
75.510768
 20
145.355966
 30
0.0
  0
LWPOLYLINE
  5
15d
100
AcDbEntity
  8
Ebene_1
 62
7
100
AcDbPolyline
 90
24
 70
0
 10
75.510768
 20
145.355825
 30
0.0
 10
75.337438
 20
145.400303
 30
0.0
 10
75.171038
 20
145.466202
 30
0.0
 10
75.014228
 20
145.552393
 30
0.0
 10
74.869448
 20
145.657577
 30
0.0
 10
74.739008
 20
145.780090
 30
0.0
 10
74.624928
 20
145.917983
 30
0.0
 10
74.529048
 20
146.069057
 30
0.0
 10
74.452858
 20
146.230996
 30
0.0
 10
74.397558
 20
146.401204
 30
0.0
 10
74.364018
 20
146.576972
 30
0.0
 10
74.352788
 20
146.755563
 30
0.0
 10
74.364017
 20
146.934153
 30
0.0
 10
74.397558
 20
147.109921
 30
0.0
 10
74.452858
 20
147.280129
 30
0.0
 10
74.529048
 20
147.442068
 30
0.0
 10
74.624928
 20
147.593142
 30
0.0
 10
74.739008
 20
147.731035
 30
0.0
 10
74.869448
 20
147.853548
 30
0.0
 10
75.014228
 20
147.958732
 30
0.0
 10
75.171038
 20
148.044923
 30
0.0
 10
75.337438
 20
148.110822
 30
0.0
 10
75.510768
 20
148.155300
 30
0.0
 10
75.688318
 20
148.177596
 30
0.0
  0
LWPOLYLINE
  5
15e
100
AcDbEntity
  8
Ebene_1
 62
7
100
AcDbPolyline
 90
3
 70
0
 10
75.688318
 20
148.177737
 30
0.0
 10
75.867258
 20
148.177737
 30
0.0
 10
76.044808
 20
148.155441
 30
0.0
  0
LWPOLYLINE
  5
15f
100
AcDbEntity
  8
Ebene_1
 62
7
100
AcDbPolyline
 90
24
 70
0
 10
76.044808
 20
148.155300
 30
0.0
 10
76.218128
 20
148.110822
 30
0.0
 10
76.384528
 20
148.044923
 30
0.0
 10
76.541348
 20
147.958732
 30
0.0
 10
76.686118
 20
147.853548
 30
0.0
 10
76.816568
 20
147.731035
 30
0.0
 10
76.930638
 20
147.593142
 30
0.0
 10
77.026528
 20
147.442068
 30
0.0
 10
77.102718
 20
147.280129
 30
0.0
 10
77.158008
 20
147.109921
 30
0.0
 10
77.191548
 20
146.934153
 30
0.0
 10
77.202777
 20
146.755563
 30
0.0
 10
77.191548
 20
146.576972
 30
0.0
 10
77.158008
 20
146.401204
 30
0.0
 10
77.102718
 20
146.230996
 30
0.0
 10
77.026528
 20
146.069057
 30
0.0
 10
76.930638
 20
145.917983
 30
0.0
 10
76.816568
 20
145.780090
 30
0.0
 10
76.686118
 20
145.657577
 30
0.0
 10
76.541348
 20
145.552393
 30
0.0
 10
76.384528
 20
145.466202
 30
0.0
 10
76.218128
 20
145.400303
 30
0.0
 10
76.044808
 20
145.355825
 30
0.0
 10
75.867258
 20
145.333247
 30
0.0
  0
LWPOLYLINE
  5
160
100
AcDbEntity
  8
Ebene_1
 62
7
100
AcDbPolyline
 90
2
 70
0
 10
75.867258
 20
145.333388
 30
0.0
 10
75.688318
 20
145.333388
 30
0.0
  0
LWPOLYLINE
  5
161
100
AcDbEntity
  8
Ebene_1
 62
7
100
AcDbPolyline
 90
2
 70
0
 10
85.688298
 20
145.333388
 30
0.0
 10
85.510748
 20
145.355966
 30
0.0
  0
LWPOLYLINE
  5
162
100
AcDbEntity
  8
Ebene_1
 62
7
100
AcDbPolyline
 90
24
 70
0
 10
85.510748
 20
145.355825
 30
0.0
 10
85.337428
 20
145.400303
 30
0.0
 10
85.171028
 20
145.466202
 30
0.0
 10
85.014208
 20
145.552393
 30
0.0
 10
84.869438
 20
145.657577
 30
0.0
 10
84.738988
 20
145.780090
 30
0.0
 10
84.624918
 20
145.917983
 30
0.0
 10
84.529028
 20
146.069057
 30
0.0
 10
84.452838
 20
146.230996
 30
0.0
 10
84.397548
 20
146.401204
 30
0.0
 10
84.364008
 20
146.576972
 30
0.0
 10
84.352778
 20
146.755563
 30
0.0
 10
84.364007
 20
146.934153
 30
0.0
 10
84.397548
 20
147.109921
 30
0.0
 10
84.452838
 20
147.280129
 30
0.0
 10
84.529028
 20
147.442068
 30
0.0
 10
84.624918
 20
147.593142
 30
0.0
 10
84.738988
 20
147.731035
 30
0.0
 10
84.869438
 20
147.853548
 30
0.0
 10
85.014208
 20
147.958732
 30
0.0
 10
85.171028
 20
148.044923
 30
0.0
 10
85.337428
 20
148.110822
 30
0.0
 10
85.510748
 20
148.155300
 30
0.0
 10
85.688298
 20
148.177596
 30
0.0
  0
LWPOLYLINE
  5
163
100
AcDbEntity
  8
Ebene_1
 62
7
100
AcDbPolyline
 90
3
 70
0
 10
85.688298
 20
148.177737
 30
0.0
 10
85.867238
 20
148.177737
 30
0.0
 10
86.044788
 20
148.155441
 30
0.0
  0
LWPOLYLINE
  5
164
100
AcDbEntity
  8
Ebene_1
 62
7
100
AcDbPolyline
 90
24
 70
0
 10
86.044788
 20
148.155300
 30
0.0
 10
86.218118
 20
148.110822
 30
0.0
 10
86.384518
 20
148.044923
 30
0.0
 10
86.541328
 20
147.958732
 30
0.0
 10
86.686108
 20
147.853548
 30
0.0
 10
86.816548
 20
147.731035
 30
0.0
 10
86.930628
 20
147.593142
 30
0.0
 10
87.026508
 20
147.442068
 30
0.0
 10
87.102698
 20
147.280129
 30
0.0
 10
87.157998
 20
147.109921
 30
0.0
 10
87.191538
 20
146.934153
 30
0.0
 10
87.202767
 20
146.755563
 30
0.0
 10
87.191538
 20
146.576972
 30
0.0
 10
87.157998
 20
146.401204
 30
0.0
 10
87.102698
 20
146.230996
 30
0.0
 10
87.026508
 20
146.069057
 30
0.0
 10
86.930628
 20
145.917983
 30
0.0
 10
86.816548
 20
145.780090
 30
0.0
 10
86.686108
 20
145.657577
 30
0.0
 10
86.541328
 20
145.552393
 30
0.0
 10
86.384518
 20
145.466202
 30
0.0
 10
86.218118
 20
145.400303
 30
0.0
 10
86.044788
 20
145.355825
 30
0.0
 10
85.867238
 20
145.333247
 30
0.0
  0
LWPOLYLINE
  5
165
100
AcDbEntity
  8
Ebene_1
 62
7
100
AcDbPolyline
 90
2
 70
0
 10
85.867238
 20
145.333388
 30
0.0
 10
85.688298
 20
145.333388
 30
0.0
  0
LWPOLYLINE
  5
166
100
AcDbEntity
  8
Ebene_1
 62
7
100
AcDbPolyline
 90
3
 70
0
 10
71.777778
 20
142.755571
 30
0.0
 10
71.777778
 20
134.755587
 30
0.0
 10
89.777778
 20
134.755587
 30
0.0
  0
LWPOLYLINE
  5
167
100
AcDbEntity
  8
Ebene_1
 62
7
100
AcDbPolyline
 90
2
 70
0
 10
75.688318
 20
137.333404
 30
0.0
 10
75.510768
 20
137.355982
 30
0.0
  0
LWPOLYLINE
  5
168
100
AcDbEntity
  8
Ebene_1
 62
7
100
AcDbPolyline
 90
24
 70
0
 10
75.510768
 20
137.355841
 30
0.0
 10
75.337438
 20
137.400319
 30
0.0
 10
75.171038
 20
137.466218
 30
0.0
 10
75.014228
 20
137.552409
 30
0.0
 10
74.869448
 20
137.657593
 30
0.0
 10
74.739008
 20
137.780106
 30
0.0
 10
74.624928
 20
137.917999
 30
0.0
 10
74.529048
 20
138.069073
 30
0.0
 10
74.452858
 20
138.231012
 30
0.0
 10
74.397558
 20
138.401220
 30
0.0
 10
74.364018
 20
138.576988
 30
0.0
 10
74.352788
 20
138.755579
 30
0.0
 10
74.364017
 20
138.934169
 30
0.0
 10
74.397558
 20
139.109937
 30
0.0
 10
74.452858
 20
139.280145
 30
0.0
 10
74.529048
 20
139.442084
 30
0.0
 10
74.624928
 20
139.593158
 30
0.0
 10
74.739008
 20
139.731051
 30
0.0
 10
74.869448
 20
139.853564
 30
0.0
 10
75.014228
 20
139.958748
 30
0.0
 10
75.171038
 20
140.044939
 30
0.0
 10
75.337438
 20
140.110838
 30
0.0
 10
75.510768
 20
140.155316
 30
0.0
 10
75.688318
 20
140.177612
 30
0.0
  0
LWPOLYLINE
  5
169
100
AcDbEntity
  8
Ebene_1
 62
7
100
AcDbPolyline
 90
3
 70
0
 10
75.688318
 20
140.177753
 30
0.0
 10
75.867258
 20
140.177753
 30
0.0
 10
76.044808
 20
140.155457
 30
0.0
  0
LWPOLYLINE
  5
16a
100
AcDbEntity
  8
Ebene_1
 62
7
100
AcDbPolyline
 90
24
 70
0
 10
76.044808
 20
140.155316
 30
0.0
 10
76.218128
 20
140.110838
 30
0.0
 10
76.384528
 20
140.044939
 30
0.0
 10
76.541348
 20
139.958748
 30
0.0
 10
76.686118
 20
139.853564
 30
0.0
 10
76.816568
 20
139.731051
 30
0.0
 10
76.930638
 20
139.593158
 30
0.0
 10
77.026528
 20
139.442084
 30
0.0
 10
77.102718
 20
139.280145
 30
0.0
 10
77.158008
 20
139.109937
 30
0.0
 10
77.191548
 20
138.934169
 30
0.0
 10
77.202777
 20
138.755579
 30
0.0
 10
77.191548
 20
138.576988
 30
0.0
 10
77.158008
 20
138.401220
 30
0.0
 10
77.102718
 20
138.231012
 30
0.0
 10
77.026528
 20
138.069073
 30
0.0
 10
76.930638
 20
137.917999
 30
0.0
 10
76.816568
 20
137.780106
 30
0.0
 10
76.686118
 20
137.657593
 30
0.0
 10
76.541348
 20
137.552409
 30
0.0
 10
76.384528
 20
137.466218
 30
0.0
 10
76.218128
 20
137.400319
 30
0.0
 10
76.044808
 20
137.355841
 30
0.0
 10
75.867258
 20
137.333263
 30
0.0
  0
LWPOLYLINE
  5
16b
100
AcDbEntity
  8
Ebene_1
 62
7
100
AcDbPolyline
 90
2
 70
0
 10
75.867258
 20
137.333404
 30
0.0
 10
75.688318
 20
137.333404
 30
0.0
  0
LWPOLYLINE
  5
16c
100
AcDbEntity
  8
Ebene_1
 62
7
100
AcDbPolyline
 90
2
 70
0
 10
85.688298
 20
137.333404
 30
0.0
 10
85.510748
 20
137.355982
 30
0.0
  0
LWPOLYLINE
  5
16d
100
AcDbEntity
  8
Ebene_1
 62
7
100
AcDbPolyline
 90
24
 70
0
 10
85.510748
 20
137.355841
 30
0.0
 10
85.337428
 20
137.400319
 30
0.0
 10
85.171028
 20
137.466218
 30
0.0
 10
85.014208
 20
137.552409
 30
0.0
 10
84.869438
 20
137.657593
 30
0.0
 10
84.738988
 20
137.780106
 30
0.0
 10
84.624918
 20
137.917999
 30
0.0
 10
84.529028
 20
138.069073
 30
0.0
 10
84.452838
 20
138.231012
 30
0.0
 10
84.397548
 20
138.401220
 30
0.0
 10
84.364008
 20
138.576988
 30
0.0
 10
84.352778
 20
138.755579
 30
0.0
 10
84.364007
 20
138.934169
 30
0.0
 10
84.397548
 20
139.109937
 30
0.0
 10
84.452838
 20
139.280145
 30
0.0
 10
84.529028
 20
139.442084
 30
0.0
 10
84.624918
 20
139.593158
 30
0.0
 10
84.738988
 20
139.731051
 30
0.0
 10
84.869438
 20
139.853564
 30
0.0
 10
85.014208
 20
139.958748
 30
0.0
 10
85.171028
 20
140.044939
 30
0.0
 10
85.337428
 20
140.110838
 30
0.0
 10
85.510748
 20
140.155316
 30
0.0
 10
85.688298
 20
140.177612
 30
0.0
  0
LWPOLYLINE
  5
16e
100
AcDbEntity
  8
Ebene_1
 62
7
100
AcDbPolyline
 90
3
 70
0
 10
85.688298
 20
140.177753
 30
0.0
 10
85.867238
 20
140.177753
 30
0.0
 10
86.044788
 20
140.155457
 30
0.0
  0
LWPOLYLINE
  5
16f
100
AcDbEntity
  8
Ebene_1
 62
7
100
AcDbPolyline
 90
24
 70
0
 10
86.044788
 20
140.155316
 30
0.0
 10
86.218118
 20
140.110838
 30
0.0
 10
86.384518
 20
140.044939
 30
0.0
 10
86.541328
 20
139.958748
 30
0.0
 10
86.686108
 20
139.853564
 30
0.0
 10
86.816548
 20
139.731051
 30
0.0
 10
86.930628
 20
139.593158
 30
0.0
 10
87.026508
 20
139.442084
 30
0.0
 10
87.102698
 20
139.280145
 30
0.0
 10
87.157998
 20
139.109937
 30
0.0
 10
87.191538
 20
138.934169
 30
0.0
 10
87.202767
 20
138.755579
 30
0.0
 10
87.191538
 20
138.576988
 30
0.0
 10
87.157998
 20
138.401220
 30
0.0
 10
87.102698
 20
138.231012
 30
0.0
 10
87.026508
 20
138.069073
 30
0.0
 10
86.930628
 20
137.917999
 30
0.0
 10
86.816548
 20
137.780106
 30
0.0
 10
86.686108
 20
137.657593
 30
0.0
 10
86.541328
 20
137.552409
 30
0.0
 10
86.384518
 20
137.466218
 30
0.0
 10
86.218118
 20
137.400319
 30
0.0
 10
86.044788
 20
137.355841
 30
0.0
 10
85.867238
 20
137.333263
 30
0.0
  0
LWPOLYLINE
  5
170
100
AcDbEntity
  8
Ebene_1
 62
7
100
AcDbPolyline
 90
2
 70
0
 10
85.867238
 20
137.333404
 30
0.0
 10
85.688298
 20
137.333404
 30
0.0
  0
ENDSEC
  0
SECTION
  2
OBJECTS
  0
DICTIONARY
  5
C
330
0
100
AcDbDictionary
  3
ACAD_GROUP
350
D
  3
ACAD_MLINESTYLE
350
17
  0
DICTIONARY
  5
D
330
C
100
AcDbDictionary
  0
DICTIONARY
  5
1A
330
C
100
AcDbDictionary
  0
DICTIONARY
  5
17
330
C
100
AcDbDictionary
  3
STANDARD
350
18
  0
DICTIONARY
  5
19
330
C
100
AcDbDictionary
  0
ENDSEC
  0
EOF
