  0
SECTION
  2
HEADER
  9
$ACADVER
  1
AC1014
  9
$HANDSEED
  5
FFFF
  9
$MEASUREMENT
 70
     1
  0
ENDSEC
  0
SECTION
  2
TABLES
  0
TABLE
  2
VPORT
  5
8
330
0
100
AcDbSymbolTable
 70
     4
  0
VPORT
  5
2E
330
8
100
AcDbSymbolTableRecord
100
AcDbViewportTableRecord
  2
*ACTIVE
 70
     0
 10
0.0
 20
0.0
 11
1.0
 21
1.0
 12
210.0
 22
148.5
 13
0.0
 23
0.0
 14
10.0
 24
10.0
 15
10.0
 25
10.0
 16
0.0
 26
0.0
 36
1.0
 17
0.0
 27
0.0
 37
0.0
 40
341.0
 41
1.24
 42
50.0
 43
0.0
 44
0.0
 50
0.0
 51
0.0
 71
     0
 72
   100
 73
     1
 74
     3
 75
     0
 76
     0
 77
     0
 78
     0
  0
ENDTAB
  0
TABLE
  2
LTYPE
  5
5
330
0
100
AcDbSymbolTable
 70
     1
  0
LTYPE
  5
14
330
5
100
AcDbSymbolTableRecord
100
AcDbLinetypeTableRecord
  2
BYBLOCK
 70
     0
  3

 72
    65
 73
     0
 40
0.0
  0
LTYPE
  5
15
330
5
100
AcDbSymbolTableRecord
100
AcDbLinetypeTableRecord
  2
BYLAYER
 70
     0
  3

 72
    65
 73
     0
 40
0.0
  0
LTYPE
  5
16
330
5
100
AcDbSymbolTableRecord
100
AcDbLinetypeTableRecord
  2
CONTINUOUS
 70
     0
  3
Solid line
 72
    65
 73
     0
 40
0.0
  0
ENDTAB
  0
TABLE
  2
LAYER
  5
2
100
AcDbSymbolTable
 70
1
  0
LAYER
  5
50
100
AcDbSymbolTableRecord
100
AcDbLayerTableRecord
  2
0
 70
0
  6
CONTINUOUS
  0
ENDTAB
  0
TABLE
  2
STYLE
  5
3
330
0
100
AcDbSymbolTable
 70
     1
  0
STYLE
  5
11
330
3
100
AcDbSymbolTableRecord
100
AcDbTextStyleTableRecord
  2
STANDARD
 70
     0
 40
0.0
 41
1.0
 50
0.0
 71
     0
 42
2.5
  3
txt
  4

  0
ENDTAB
  0
TABLE
  2
VIEW
  5
6
330
0
100
AcDbSymbolTable
 70
     0
  0
ENDTAB
  0
TABLE
  2
UCS
  5
7
330
0
100
AcDbSymbolTable
 70
     0
  0
ENDTAB
  0
TABLE
  2
APPID
  5
9
330
0
100
AcDbSymbolTable
 70
     2
  0
APPID
  5
12
330
9
100
AcDbSymbolTableRecord
100
AcDbRegAppTableRecord
  2
ACAD
 70
     0
  0
ENDTAB
  0
TABLE
  2
DIMSTYLE
  5
A
330
0
100
AcDbSymbolTable
 70
     1
  0
DIMSTYLE
105
27
330
A
100
AcDbSymbolTableRecord
100
AcDbDimStyleTableRecord
  2
ISO-25
 70
     0
  3

  4

  5

  6

  7

 40
1.0
 41
2.5
 42
0.625
 43
3.75
 44
1.25
 45
0.0
 46
0.0
 47
0.0
 48
0.0
140
2.5
141
2.5
142
0.0
143
0.03937007874016
144
1.0
145
0.0
146
1.0
147
0.625
 71
     0
 72
     0
 73
     0
 74
     0
 75
     0
 76
     0
 77
     1
 78
     8
170
     0
171
     3
172
     1
173
     0
174
     0
175
     0
176
     0
177
     0
178
     0
270
     2
271
     2
272
     2
273
     2
274
     3
340
11
275
     0
280
     0
281
     0
282
     0
283
     0
284
     8
285
     0
286
     0
287
     3
288
     0
  0
ENDTAB
  0
TABLE
  2
BLOCK_RECORD
  5
1
330
0
100
AcDbSymbolTable
 70
     1
  0
BLOCK_RECORD
  5
1F
330
1
100
AcDbSymbolTableRecord
100
AcDbBlockTableRecord
  2
*MODEL_SPACE
  0
BLOCK_RECORD
  5
1B
330
1
100
AcDbSymbolTableRecord
100
AcDbBlockTableRecord
  2
*PAPER_SPACE
  0
ENDTAB
  0
ENDSEC
  0
SECTION
  2
BLOCKS
  0
BLOCK
  5
20
330
1F
100
AcDbEntity
  8
0
100
AcDbBlockBegin
  2
*MODEL_SPACE
 70
     0
 10
0.0
 20
0.0
 30
0.0
  3
*MODEL_SPACE
  1

  0
ENDBLK
  5
21
330
1F
100
AcDbEntity
  8
0
100
AcDbBlockEnd
  0
BLOCK
  5
1C
330
1B
100
AcDbEntity
 67
     1
  8
0
100
AcDbBlockBegin
  2
*PAPER_SPACE
  1

  0
ENDBLK
  5
1D
330
1B
100
AcDbEntity
 67
     1
  8
0
100
AcDbBlockEnd
  0
ENDSEC
  0
SECTION
  2
ENTITIES
  0
LINE
  5
100
100
AcDbEntity
  8
0
 62
7
100
AcDbLine
 10
13.000000
 20
5.000000
 30
0.0
 11
-13.000000
 21
5.000000
 31
0.0
  0
LINE
  5
101
100
AcDbEntity
  8
0
 62
7
100
AcDbLine
 10
-13.000000
 20
5.000000
 30
0.0
 11
-13.000000
 21
-5.000000
 31
0.0
  0
LINE
  5
102
100
AcDbEntity
  8
0
 62
7
100
AcDbLine
 10
-13.000000
 20
-5.000000
 30
0.0
 11
13.000000
 21
-5.000000
 31
0.0
  0
LINE
  5
103
100
AcDbEntity
  8
0
 62
7
100
AcDbLine
 10
13.000000
 20
-5.000000
 30
0.0
 11
13.000000
 21
5.000000
 31
0.0
  0
SPLINE
  5
104
100
AcDbEntity
  8
0
 62
7
100
AcDbSpline
 70
8
 71
3
 72
8
 73
4
 74
0
 40
0
 40
0
 40
0
 40
0
 40
1
 40
1
 40
1
 40
1
 10
-3.744800
 20
-0.496964
 30
0.0
 10
-3.995467
 20
-1.170120
 30
0.0
 10
-4.829061
 20
-1.536501
 30
0.0
 10
-5.491669
 20
-1.254420
 30
0.0
  0
SPLINE
  5
105
100
AcDbEntity
  8
0
 62
7
100
AcDbSpline
 70
8
 71
3
 72
8
 73
4
 74
0
 40
0
 40
0
 40
0
 40
0
 40
1
 40
1
 40
1
 40
1
 10
-5.491669
 20
-1.254420
 30
0.0
 10
-6.190288
 20
-1.005190
 30
0.0
 10
-6.552463
 20
-0.123443
 30
0.0
 10
-6.232443
 20
0.545311
 30
0.0
  0
SPLINE
  5
106
100
AcDbEntity
  8
0
 62
7
100
AcDbSpline
 70
8
 71
3
 72
8
 73
4
 74
0
 40
0
 40
0
 40
0
 40
0
 40
1
 40
1
 40
1
 40
1
 10
-6.232443
 20
0.545311
 30
0.0
 10
-5.956380
 20
1.220810
 30
0.0
 10
-5.087774
 20
1.545535
 30
0.0
 10
-4.433802
 20
1.224930
 30
0.0
  0
SPLINE
  5
107
100
AcDbEntity
  8
0
 62
7
100
AcDbSpline
 70
8
 71
3
 72
8
 73
4
 74
0
 40
0
 40
0
 40
0
 40
0
 40
1
 40
1
 40
1
 40
1
 10
-4.433802
 20
1.224930
 30
0.0
 10
-3.795111
 20
0.941128
 30
0.0
 10
-3.479165
 20
0.149551
 30
0.0
 10
-3.744800
 20
-0.496964
 30
0.0
  0
LINE
  5
108
100
AcDbEntity
  8
0
 62
7
100
AcDbLine
 10
-3.744800
 20
-0.496964
 30
0.0
 11
-3.744800
 21
-0.496964
 31
0.0
  0
SPLINE
  5
109
100
AcDbEntity
  8
0
 62
7
100
AcDbSpline
 70
8
 71
3
 72
8
 73
4
 74
0
 40
0
 40
0
 40
0
 40
0
 40
1
 40
1
 40
1
 40
1
 10
4.139470
 20
1.040188
 30
0.0
 10
4.683393
 20
1.509185
 30
0.0
 10
5.590514
 20
1.428892
 30
0.0
 10
6.035175
 20
0.862388
 30
0.0
  0
SPLINE
  5
10a
100
AcDbEntity
  8
0
 62
7
100
AcDbSpline
 70
8
 71
3
 72
8
 73
4
 74
0
 40
0
 40
0
 40
0
 40
0
 40
1
 40
1
 40
1
 40
1
 10
6.035175
 20
0.862388
 30
0.0
 10
6.527317
 20
0.307426
 30
0.0
 10
6.419897
 20
-0.639712
 30
0.0
 10
5.817300
 20
-1.071596
 30
0.0
  0
SPLINE
  5
10b
100
AcDbEntity
  8
0
 62
7
100
AcDbSpline
 70
8
 71
3
 72
8
 73
4
 74
0
 40
0
 40
0
 40
0
 40
0
 40
1
 40
1
 40
1
 40
1
 10
5.817300
 20
-1.071596
 30
0.0
 10
5.249983
 20
-1.530433
 30
0.0
 10
4.332250
 20
-1.396773
 30
0.0
 10
3.913729
 20
-0.800635
 30
0.0
  0
SPLINE
  5
10c
100
AcDbEntity
  8
0
 62
7
100
AcDbSpline
 70
8
 71
3
 72
8
 73
4
 74
0
 40
0
 40
0
 40
0
 40
0
 40
1
 40
1
 40
1
 40
1
 10
3.913729
 20
-0.800635
 30
0.0
 10
3.490735
 20
-0.244262
 30
0.0
 10
3.595243
 20
0.601586
 30
0.0
 10
4.139470
 20
1.040188
 30
0.0
  0
LINE
  5
10d
100
AcDbEntity
  8
0
 62
7
100
AcDbLine
 10
4.139470
 20
1.040188
 30
0.0
 11
4.139470
 21
1.040188
 31
0.0
  0
LINE
  5
10e
100
AcDbEntity
  8
0
 62
7
100
AcDbLine
 10
13.000000
 20
-5.000000
 30
0.0
 11
-13.000000
 21
-5.000000
 31
0.0
  0
LINE
  5
10f
100
AcDbEntity
  8
0
 62
7
100
AcDbLine
 10
-13.000000
 20
-5.000000
 30
0.0
 11
-13.000000
 21
-14.999980
 31
0.0
  0
LINE
  5
110
100
AcDbEntity
  8
0
 62
7
100
AcDbLine
 10
-13.000000
 20
-14.999980
 30
0.0
 11
13.000000
 21
-14.999980
 31
0.0
  0
LINE
  5
111
100
AcDbEntity
  8
0
 62
7
100
AcDbLine
 10
13.000000
 20
-14.999980
 30
0.0
 11
13.000000
 21
-5.000000
 31
0.0
  0
SPLINE
  5
112
100
AcDbEntity
  8
0
 62
7
100
AcDbSpline
 70
8
 71
3
 72
8
 73
4
 74
0
 40
0
 40
0
 40
0
 40
0
 40
1
 40
1
 40
1
 40
1
 10
-5.606740
 20
-11.289350
 30
0.0
 10
-6.297995
 20
-10.980938
 30
0.0
 10
-6.629127
 20
-10.081072
 30
0.0
 10
-6.290348
 20
-9.401933
 30
0.0
  0
SPLINE
  5
113
100
AcDbEntity
  8
0
 62
7
100
AcDbSpline
 70
8
 71
3
 72
8
 73
4
 74
0
 40
0
 40
0
 40
0
 40
0
 40
1
 40
1
 40
1
 40
1
 10
-6.290348
 20
-9.401933
 30
0.0
 10
-5.991347
 20
-8.704929
 30
0.0
 10
-5.089935
 20
-8.374588
 30
0.0
 10
-4.408644
 20
-8.704534
 30
0.0
  0
SPLINE
  5
114
100
AcDbEntity
  8
0
 62
7
100
AcDbSpline
 70
8
 71
3
 72
8
 73
4
 74
0
 40
0
 40
0
 40
0
 40
0
 40
1
 40
1
 40
1
 40
1
 10
-4.408644
 20
-8.704534
 30
0.0
 10
-3.707270
 20
-9.004903
 30
0.0
 10
-3.368135
 20
-9.914194
 30
0.0
 10
-3.709632
 20
-10.598047
 30
0.0
  0
SPLINE
  5
115
100
AcDbEntity
  8
0
 62
7
100
AcDbSpline
 70
8
 71
3
 72
8
 73
4
 74
0
 40
0
 40
0
 40
0
 40
0
 40
1
 40
1
 40
1
 40
1
 10
-3.709632
 20
-10.598047
 30
0.0
 10
-4.020685
 20
-11.306227
 30
0.0
 10
-4.912090
 20
-11.625844
 30
0.0
 10
-5.606740
 20
-11.289350
 30
0.0
  0
LINE
  5
116
100
AcDbEntity
  8
0
 62
7
100
AcDbLine
 10
-5.606740
 20
-11.289350
 30
0.0
 11
-5.606740
 21
-11.289350
 31
0.0
  0
SPLINE
  5
117
100
AcDbEntity
  8
0
 62
7
100
AcDbSpline
 70
8
 71
3
 72
8
 73
4
 74
0
 40
0
 40
0
 40
0
 40
0
 40
1
 40
1
 40
1
 40
1
 10
6.380220
 20
-10.354348
 30
0.0
 10
6.206817
 20
-11.091089
 30
0.0
 10
5.384869
 20
-11.585232
 30
0.0
 10
4.654310
 20
-11.379549
 30
0.0
  0
SPLINE
  5
118
100
AcDbEntity
  8
0
 62
7
100
AcDbSpline
 70
8
 71
3
 72
8
 73
4
 74
0
 40
0
 40
0
 40
0
 40
0
 40
1
 40
1
 40
1
 40
1
 10
4.654310
 20
-11.379549
 30
0.0
 10
3.913686
 20
-11.216424
 30
0.0
 10
3.420033
 20
-10.392928
 30
0.0
 10
3.616673
 20
-9.661860
 30
0.0
  0
SPLINE
  5
119
100
AcDbEntity
  8
0
 62
7
100
AcDbSpline
 70
8
 71
3
 72
8
 73
4
 74
0
 40
0
 40
0
 40
0
 40
0
 40
1
 40
1
 40
1
 40
1
 10
3.616673
 20
-9.661860
 30
0.0
 10
3.780299
 20
-8.916539
 30
0.0
 10
4.609900
 20
-8.413280
 30
0.0
 10
5.345670
 20
-8.620431
 30
0.0
  0
SPLINE
  5
11a
100
AcDbEntity
  8
0
 62
7
100
AcDbSpline
 70
8
 71
3
 72
8
 73
4
 74
0
 40
0
 40
0
 40
0
 40
0
 40
1
 40
1
 40
1
 40
1
 10
5.345670
 20
-8.620431
 30
0.0
 10
6.099675
 20
-8.793264
 30
0.0
 10
6.580399
 20
-9.608971
 30
0.0
 10
6.380220
 20
-10.354348
 30
0.0
  0
LINE
  5
11b
100
AcDbEntity
  8
0
 62
7
100
AcDbLine
 10
6.380220
 20
-10.354348
 30
0.0
 11
6.380220
 21
-10.354348
 31
0.0
  0
LINE
  5
11c
100
AcDbEntity
  8
0
 62
7
100
AcDbLine
 10
39.000001
 20
4.999991
 30
0.0
 11
13.000000
 21
4.999991
 31
0.0
  0
LINE
  5
11d
100
AcDbEntity
  8
0
 62
7
100
AcDbLine
 10
13.000000
 20
4.999991
 30
0.0
 11
13.000000
 21
-4.999989
 31
0.0
  0
LINE
  5
11e
100
AcDbEntity
  8
0
 62
7
100
AcDbLine
 10
13.000000
 20
-4.999989
 30
0.0
 11
39.000001
 21
-4.999989
 31
0.0
  0
LINE
  5
11f
100
AcDbEntity
  8
0
 62
7
100
AcDbLine
 10
39.000001
 20
-4.999989
 30
0.0
 11
39.000001
 21
4.999991
 31
0.0
  0
SPLINE
  5
120
100
AcDbEntity
  8
0
 62
7
100
AcDbSpline
 70
8
 71
3
 72
8
 73
4
 74
0
 40
0
 40
0
 40
0
 40
0
 40
1
 40
1
 40
1
 40
1
 10
22.255200
 20
-0.496964
 30
0.0
 10
22.004533
 20
-1.170120
 30
0.0
 10
21.170939
 20
-1.536501
 30
0.0
 10
20.508331
 20
-1.254420
 30
0.0
  0
SPLINE
  5
121
100
AcDbEntity
  8
0
 62
7
100
AcDbSpline
 70
8
 71
3
 72
8
 73
4
 74
0
 40
0
 40
0
 40
0
 40
0
 40
1
 40
1
 40
1
 40
1
 10
20.508331
 20
-1.254420
 30
0.0
 10
19.809712
 20
-1.005190
 30
0.0
 10
19.447537
 20
-0.123443
 30
0.0
 10
19.767557
 20
0.545311
 30
0.0
  0
SPLINE
  5
122
100
AcDbEntity
  8
0
 62
7
100
AcDbSpline
 70
8
 71
3
 72
8
 73
4
 74
0
 40
0
 40
0
 40
0
 40
0
 40
1
 40
1
 40
1
 40
1
 10
19.767557
 20
0.545311
 30
0.0
 10
20.043620
 20
1.220810
 30
0.0
 10
20.912226
 20
1.545535
 30
0.0
 10
21.566198
 20
1.224930
 30
0.0
  0
SPLINE
  5
123
100
AcDbEntity
  8
0
 62
7
100
AcDbSpline
 70
8
 71
3
 72
8
 73
4
 74
0
 40
0
 40
0
 40
0
 40
0
 40
1
 40
1
 40
1
 40
1
 10
21.566198
 20
1.224930
 30
0.0
 10
22.204889
 20
0.941128
 30
0.0
 10
22.520835
 20
0.149551
 30
0.0
 10
22.255200
 20
-0.496964
 30
0.0
  0
LINE
  5
124
100
AcDbEntity
  8
0
 62
7
100
AcDbLine
 10
22.255200
 20
-0.496964
 30
0.0
 11
22.255200
 21
-0.496964
 31
0.0
  0
SPLINE
  5
125
100
AcDbEntity
  8
0
 62
7
100
AcDbSpline
 70
8
 71
3
 72
8
 73
4
 74
0
 40
0
 40
0
 40
0
 40
0
 40
1
 40
1
 40
1
 40
1
 10
30.139471
 20
1.040188
 30
0.0
 10
30.683392
 20
1.509185
 30
0.0
 10
31.590513
 20
1.428892
 30
0.0
 10
32.035174
 20
0.862388
 30
0.0
  0
SPLINE
  5
126
100
AcDbEntity
  8
0
 62
7
100
AcDbSpline
 70
8
 71
3
 72
8
 73
4
 74
0
 40
0
 40
0
 40
0
 40
0
 40
1
 40
1
 40
1
 40
1
 10
32.035174
 20
0.862388
 30
0.0
 10
32.527316
 20
0.307426
 30
0.0
 10
32.419897
 20
-0.639712
 30
0.0
 10
31.817299
 20
-1.071596
 30
0.0
  0
SPLINE
  5
127
100
AcDbEntity
  8
0
 62
7
100
AcDbSpline
 70
8
 71
3
 72
8
 73
4
 74
0
 40
0
 40
0
 40
0
 40
0
 40
1
 40
1
 40
1
 40
1
 10
31.817299
 20
-1.071596
 30
0.0
 10
31.249984
 20
-1.530433
 30
0.0
 10
30.332248
 20
-1.396773
 30
0.0
 10
29.913730
 20
-0.800635
 30
0.0
  0
SPLINE
  5
128
100
AcDbEntity
  8
0
 62
7
100
AcDbSpline
 70
8
 71
3
 72
8
 73
4
 74
0
 40
0
 40
0
 40
0
 40
0
 40
1
 40
1
 40
1
 40
1
 10
29.913730
 20
-0.800635
 30
0.0
 10
29.490735
 20
-0.244262
 30
0.0
 10
29.595242
 20
0.601586
 30
0.0
 10
30.139471
 20
1.040188
 30
0.0
  0
LINE
  5
129
100
AcDbEntity
  8
0
 62
7
100
AcDbLine
 10
30.139471
 20
1.040188
 30
0.0
 11
30.139471
 21
1.040188
 31
0.0
  0
LINE
  5
12a
100
AcDbEntity
  8
0
 62
7
100
AcDbLine
 10
39.000000
 20
-5.000006
 30
0.0
 11
13.000000
 21
-5.000006
 31
0.0
  0
LINE
  5
12b
100
AcDbEntity
  8
0
 62
7
100
AcDbLine
 10
13.000000
 20
-5.000006
 30
0.0
 11
13.000000
 21
-14.999986
 31
0.0
  0
LINE
  5
12c
100
AcDbEntity
  8
0
 62
7
100
AcDbLine
 10
13.000000
 20
-14.999986
 30
0.0
 11
39.000000
 21
-14.999986
 31
0.0
  0
LINE
  5
12d
100
AcDbEntity
  8
0
 62
7
100
AcDbLine
 10
39.000000
 20
-14.999986
 30
0.0
 11
39.000000
 21
-5.000006
 31
0.0
  0
SPLINE
  5
12e
100
AcDbEntity
  8
0
 62
7
100
AcDbSpline
 70
8
 71
3
 72
8
 73
4
 74
0
 40
0
 40
0
 40
0
 40
0
 40
1
 40
1
 40
1
 40
1
 10
20.393260
 20
-11.289357
 30
0.0
 10
19.702005
 20
-10.980944
 30
0.0
 10
19.370873
 20
-10.081079
 30
0.0
 10
19.709652
 20
-9.401939
 30
0.0
  0
SPLINE
  5
12f
100
AcDbEntity
  8
0
 62
7
100
AcDbSpline
 70
8
 71
3
 72
8
 73
4
 74
0
 40
0
 40
0
 40
0
 40
0
 40
1
 40
1
 40
1
 40
1
 10
19.709652
 20
-9.401939
 30
0.0
 10
20.008653
 20
-8.704935
 30
0.0
 10
20.910065
 20
-8.374594
 30
0.0
 10
21.591356
 20
-8.704540
 30
0.0
  0
SPLINE
  5
130
100
AcDbEntity
  8
0
 62
7
100
AcDbSpline
 70
8
 71
3
 72
8
 73
4
 74
0
 40
0
 40
0
 40
0
 40
0
 40
1
 40
1
 40
1
 40
1
 10
21.591356
 20
-8.704540
 30
0.0
 10
22.292730
 20
-9.004909
 30
0.0
 10
22.631865
 20
-9.914201
 30
0.0
 10
22.290368
 20
-10.598054
 30
0.0
  0
SPLINE
  5
131
100
AcDbEntity
  8
0
 62
7
100
AcDbSpline
 70
8
 71
3
 72
8
 73
4
 74
0
 40
0
 40
0
 40
0
 40
0
 40
1
 40
1
 40
1
 40
1
 10
22.290368
 20
-10.598054
 30
0.0
 10
21.979315
 20
-11.306234
 30
0.0
 10
21.087910
 20
-11.625850
 30
0.0
 10
20.393260
 20
-11.289357
 30
0.0
  0
LINE
  5
132
100
AcDbEntity
  8
0
 62
7
100
AcDbLine
 10
20.393260
 20
-11.289357
 30
0.0
 11
20.393260
 21
-11.289357
 31
0.0
  0
SPLINE
  5
133
100
AcDbEntity
  8
0
 62
7
100
AcDbSpline
 70
8
 71
3
 72
8
 73
4
 74
0
 40
0
 40
0
 40
0
 40
0
 40
1
 40
1
 40
1
 40
1
 10
32.380220
 20
-10.354355
 30
0.0
 10
32.206817
 20
-11.091096
 30
0.0
 10
31.384869
 20
-11.585239
 30
0.0
 10
30.654310
 20
-11.379555
 30
0.0
  0
SPLINE
  5
134
100
AcDbEntity
  8
0
 62
7
100
AcDbSpline
 70
8
 71
3
 72
8
 73
4
 74
0
 40
0
 40
0
 40
0
 40
0
 40
1
 40
1
 40
1
 40
1
 10
30.654310
 20
-11.379555
 30
0.0
 10
29.913686
 20
-11.216431
 30
0.0
 10
29.420033
 20
-10.392934
 30
0.0
 10
29.616673
 20
-9.661866
 30
0.0
  0
SPLINE
  5
135
100
AcDbEntity
  8
0
 62
7
100
AcDbSpline
 70
8
 71
3
 72
8
 73
4
 74
0
 40
0
 40
0
 40
0
 40
0
 40
1
 40
1
 40
1
 40
1
 10
29.616673
 20
-9.661866
 30
0.0
 10
29.780299
 20
-8.916545
 30
0.0
 10
30.609900
 20
-8.413287
 30
0.0
 10
31.345670
 20
-8.620438
 30
0.0
  0
SPLINE
  5
136
100
AcDbEntity
  8
0
 62
7
100
AcDbSpline
 70
8
 71
3
 72
8
 73
4
 74
0
 40
0
 40
0
 40
0
 40
0
 40
1
 40
1
 40
1
 40
1
 10
31.345670
 20
-8.620438
 30
0.0
 10
32.099675
 20
-8.793271
 30
0.0
 10
32.580399
 20
-9.608978
 30
0.0
 10
32.380220
 20
-10.354355
 30
0.0
  0
LINE
  5
137
100
AcDbEntity
  8
0
 62
7
100
AcDbLine
 10
32.380220
 20
-10.354355
 30
0.0
 11
32.380220
 21
-10.354355
 31
0.0
  0
LINE
  5
138
100
AcDbEntity
  8
0
 62
7
100
AcDbLine
 10
65.000003
 20
4.999991
 30
0.0
 11
39.000001
 21
4.999991
 31
0.0
  0
LINE
  5
139
100
AcDbEntity
  8
0
 62
7
100
AcDbLine
 10
39.000001
 20
4.999991
 30
0.0
 11
39.000001
 21
-4.999989
 31
0.0
  0
LINE
  5
13a
100
AcDbEntity
  8
0
 62
7
100
AcDbLine
 10
39.000001
 20
-4.999989
 30
0.0
 11
65.000003
 21
-4.999989
 31
0.0
  0
LINE
  5
13b
100
AcDbEntity
  8
0
 62
7
100
AcDbLine
 10
65.000003
 20
-4.999989
 30
0.0
 11
65.000003
 21
4.999991
 31
0.0
  0
SPLINE
  5
13c
100
AcDbEntity
  8
0
 62
7
100
AcDbSpline
 70
8
 71
3
 72
8
 73
4
 74
0
 40
0
 40
0
 40
0
 40
0
 40
1
 40
1
 40
1
 40
1
 10
48.255202
 20
-0.496964
 30
0.0
 10
48.004535
 20
-1.170120
 30
0.0
 10
47.170941
 20
-1.536501
 30
0.0
 10
46.508331
 20
-1.254420
 30
0.0
  0
SPLINE
  5
13d
100
AcDbEntity
  8
0
 62
7
100
AcDbSpline
 70
8
 71
3
 72
8
 73
4
 74
0
 40
0
 40
0
 40
0
 40
0
 40
1
 40
1
 40
1
 40
1
 10
46.508331
 20
-1.254420
 30
0.0
 10
45.809713
 20
-1.005190
 30
0.0
 10
45.447537
 20
-0.123443
 30
0.0
 10
45.767557
 20
0.545311
 30
0.0
  0
SPLINE
  5
13e
100
AcDbEntity
  8
0
 62
7
100
AcDbSpline
 70
8
 71
3
 72
8
 73
4
 74
0
 40
0
 40
0
 40
0
 40
0
 40
1
 40
1
 40
1
 40
1
 10
45.767557
 20
0.545311
 30
0.0
 10
46.043621
 20
1.220810
 30
0.0
 10
46.912228
 20
1.545535
 30
0.0
 10
47.566199
 20
1.224930
 30
0.0
  0
SPLINE
  5
13f
100
AcDbEntity
  8
0
 62
7
100
AcDbSpline
 70
8
 71
3
 72
8
 73
4
 74
0
 40
0
 40
0
 40
0
 40
0
 40
1
 40
1
 40
1
 40
1
 10
47.566199
 20
1.224930
 30
0.0
 10
48.204890
 20
0.941128
 30
0.0
 10
48.520838
 20
0.149551
 30
0.0
 10
48.255202
 20
-0.496964
 30
0.0
  0
LINE
  5
140
100
AcDbEntity
  8
0
 62
7
100
AcDbLine
 10
48.255202
 20
-0.496964
 30
0.0
 11
48.255202
 21
-0.496964
 31
0.0
  0
SPLINE
  5
141
100
AcDbEntity
  8
0
 62
7
100
AcDbSpline
 70
8
 71
3
 72
8
 73
4
 74
0
 40
0
 40
0
 40
0
 40
0
 40
1
 40
1
 40
1
 40
1
 10
56.139472
 20
1.040188
 30
0.0
 10
56.683394
 20
1.509185
 30
0.0
 10
57.590515
 20
1.428892
 30
0.0
 10
58.035176
 20
0.862388
 30
0.0
  0
SPLINE
  5
142
100
AcDbEntity
  8
0
 62
7
100
AcDbSpline
 70
8
 71
3
 72
8
 73
4
 74
0
 40
0
 40
0
 40
0
 40
0
 40
1
 40
1
 40
1
 40
1
 10
58.035176
 20
0.862388
 30
0.0
 10
58.527318
 20
0.307426
 30
0.0
 10
58.419898
 20
-0.639712
 30
0.0
 10
57.817300
 20
-1.071596
 30
0.0
  0
SPLINE
  5
143
100
AcDbEntity
  8
0
 62
7
100
AcDbSpline
 70
8
 71
3
 72
8
 73
4
 74
0
 40
0
 40
0
 40
0
 40
0
 40
1
 40
1
 40
1
 40
1
 10
57.817300
 20
-1.071596
 30
0.0
 10
57.249986
 20
-1.530433
 30
0.0
 10
56.332253
 20
-1.396773
 30
0.0
 10
55.913731
 20
-0.800635
 30
0.0
  0
SPLINE
  5
144
100
AcDbEntity
  8
0
 62
7
100
AcDbSpline
 70
8
 71
3
 72
8
 73
4
 74
0
 40
0
 40
0
 40
0
 40
0
 40
1
 40
1
 40
1
 40
1
 10
55.913731
 20
-0.800635
 30
0.0
 10
55.490737
 20
-0.244262
 30
0.0
 10
55.595243
 20
0.601586
 30
0.0
 10
56.139472
 20
1.040188
 30
0.0
  0
LINE
  5
145
100
AcDbEntity
  8
0
 62
7
100
AcDbLine
 10
56.139472
 20
1.040188
 30
0.0
 11
56.139472
 21
1.040188
 31
0.0
  0
LINE
  5
146
100
AcDbEntity
  8
0
 62
7
100
AcDbLine
 10
65.000000
 20
-4.999986
 30
0.0
 11
39.000000
 21
-4.999986
 31
0.0
  0
LINE
  5
147
100
AcDbEntity
  8
0
 62
7
100
AcDbLine
 10
39.000000
 20
-4.999986
 30
0.0
 11
39.000000
 21
-14.999966
 31
0.0
  0
LINE
  5
148
100
AcDbEntity
  8
0
 62
7
100
AcDbLine
 10
39.000000
 20
-14.999966
 30
0.0
 11
65.000000
 21
-14.999966
 31
0.0
  0
LINE
  5
149
100
AcDbEntity
  8
0
 62
7
100
AcDbLine
 10
65.000000
 20
-14.999966
 30
0.0
 11
65.000000
 21
-4.999986
 31
0.0
  0
SPLINE
  5
14a
100
AcDbEntity
  8
0
 62
7
100
AcDbSpline
 70
8
 71
3
 72
8
 73
4
 74
0
 40
0
 40
0
 40
0
 40
0
 40
1
 40
1
 40
1
 40
1
 10
46.393260
 20
-11.289336
 30
0.0
 10
45.702006
 20
-10.980924
 30
0.0
 10
45.370873
 20
-10.081058
 30
0.0
 10
45.709653
 20
-9.401919
 30
0.0
  0
SPLINE
  5
14b
100
AcDbEntity
  8
0
 62
7
100
AcDbSpline
 70
8
 71
3
 72
8
 73
4
 74
0
 40
0
 40
0
 40
0
 40
0
 40
1
 40
1
 40
1
 40
1
 10
45.709653
 20
-9.401919
 30
0.0
 10
46.008653
 20
-8.704915
 30
0.0
 10
46.910066
 20
-8.374573
 30
0.0
 10
47.591357
 20
-8.704519
 30
0.0
  0
SPLINE
  5
14c
100
AcDbEntity
  8
0
 62
7
100
AcDbSpline
 70
8
 71
3
 72
8
 73
4
 74
0
 40
0
 40
0
 40
0
 40
0
 40
1
 40
1
 40
1
 40
1
 10
47.591357
 20
-8.704519
 30
0.0
 10
48.292730
 20
-9.004889
 30
0.0
 10
48.631865
 20
-9.914180
 30
0.0
 10
48.290368
 20
-10.598033
 30
0.0
  0
SPLINE
  5
14d
100
AcDbEntity
  8
0
 62
7
100
AcDbSpline
 70
8
 71
3
 72
8
 73
4
 74
0
 40
0
 40
0
 40
0
 40
0
 40
1
 40
1
 40
1
 40
1
 10
48.290368
 20
-10.598033
 30
0.0
 10
47.979315
 20
-11.306213
 30
0.0
 10
47.087911
 20
-11.625830
 30
0.0
 10
46.393260
 20
-11.289336
 30
0.0
  0
LINE
  5
14e
100
AcDbEntity
  8
0
 62
7
100
AcDbLine
 10
46.393260
 20
-11.289336
 30
0.0
 11
46.393260
 21
-11.289336
 31
0.0
  0
SPLINE
  5
14f
100
AcDbEntity
  8
0
 62
7
100
AcDbSpline
 70
8
 71
3
 72
8
 73
4
 74
0
 40
0
 40
0
 40
0
 40
0
 40
1
 40
1
 40
1
 40
1
 10
58.380220
 20
-10.354334
 30
0.0
 10
58.206817
 20
-11.091075
 30
0.0
 10
57.384869
 20
-11.585218
 30
0.0
 10
56.654311
 20
-11.379535
 30
0.0
  0
SPLINE
  5
150
100
AcDbEntity
  8
0
 62
7
100
AcDbSpline
 70
8
 71
3
 72
8
 73
4
 74
0
 40
0
 40
0
 40
0
 40
0
 40
1
 40
1
 40
1
 40
1
 10
56.654311
 20
-11.379535
 30
0.0
 10
55.913687
 20
-11.216410
 30
0.0
 10
55.420033
 20
-10.392914
 30
0.0
 10
55.616674
 20
-9.661845
 30
0.0
  0
SPLINE
  5
151
100
AcDbEntity
  8
0
 62
7
100
AcDbSpline
 70
8
 71
3
 72
8
 73
4
 74
0
 40
0
 40
0
 40
0
 40
0
 40
1
 40
1
 40
1
 40
1
 10
55.616674
 20
-9.661845
 30
0.0
 10
55.780300
 20
-8.916525
 30
0.0
 10
56.609900
 20
-8.413266
 30
0.0
 10
57.345671
 20
-8.620417
 30
0.0
  0
SPLINE
  5
152
100
AcDbEntity
  8
0
 62
7
100
AcDbSpline
 70
8
 71
3
 72
8
 73
4
 74
0
 40
0
 40
0
 40
0
 40
0
 40
1
 40
1
 40
1
 40
1
 10
57.345671
 20
-8.620417
 30
0.0
 10
58.099676
 20
-8.793250
 30
0.0
 10
58.580400
 20
-9.608957
 30
0.0
 10
58.380220
 20
-10.354334
 30
0.0
  0
LINE
  5
153
100
AcDbEntity
  8
0
 62
7
100
AcDbLine
 10
58.380220
 20
-10.354334
 30
0.0
 11
58.380220
 21
-10.354334
 31
0.0
  0
LINE
  5
154
100
AcDbEntity
  8
0
 62
7
100
AcDbLine
 10
91.000001
 20
4.999991
 30
0.0
 11
65.000003
 21
4.999991
 31
0.0
  0
LINE
  5
155
100
AcDbEntity
  8
0
 62
7
100
AcDbLine
 10
65.000003
 20
4.999991
 30
0.0
 11
65.000003
 21
-4.999989
 31
0.0
  0
LINE
  5
156
100
AcDbEntity
  8
0
 62
7
100
AcDbLine
 10
65.000003
 20
-4.999989
 30
0.0
 11
91.000001
 21
-4.999989
 31
0.0
  0
LINE
  5
157
100
AcDbEntity
  8
0
 62
7
100
AcDbLine
 10
91.000001
 20
-4.999989
 30
0.0
 11
91.000001
 21
4.999991
 31
0.0
  0
SPLINE
  5
158
100
AcDbEntity
  8
0
 62
7
100
AcDbSpline
 70
8
 71
3
 72
8
 73
4
 74
0
 40
0
 40
0
 40
0
 40
0
 40
1
 40
1
 40
1
 40
1
 10
74.255201
 20
-0.496964
 30
0.0
 10
74.004534
 20
-1.170120
 30
0.0
 10
73.170940
 20
-1.536501
 30
0.0
 10
72.508330
 20
-1.254420
 30
0.0
  0
SPLINE
  5
159
100
AcDbEntity
  8
0
 62
7
100
AcDbSpline
 70
8
 71
3
 72
8
 73
4
 74
0
 40
0
 40
0
 40
0
 40
0
 40
1
 40
1
 40
1
 40
1
 10
72.508330
 20
-1.254420
 30
0.0
 10
71.809712
 20
-1.005190
 30
0.0
 10
71.447539
 20
-0.123443
 30
0.0
 10
71.767559
 20
0.545311
 30
0.0
  0
SPLINE
  5
15a
100
AcDbEntity
  8
0
 62
7
100
AcDbSpline
 70
8
 71
3
 72
8
 73
4
 74
0
 40
0
 40
0
 40
0
 40
0
 40
1
 40
1
 40
1
 40
1
 10
71.767559
 20
0.545311
 30
0.0
 10
72.043620
 20
1.220810
 30
0.0
 10
72.912227
 20
1.545535
 30
0.0
 10
73.566198
 20
1.224930
 30
0.0
  0
SPLINE
  5
15b
100
AcDbEntity
  8
0
 62
7
100
AcDbSpline
 70
8
 71
3
 72
8
 73
4
 74
0
 40
0
 40
0
 40
0
 40
0
 40
1
 40
1
 40
1
 40
1
 10
73.566198
 20
1.224930
 30
0.0
 10
74.204889
 20
0.941128
 30
0.0
 10
74.520837
 20
0.149551
 30
0.0
 10
74.255201
 20
-0.496964
 30
0.0
  0
LINE
  5
15c
100
AcDbEntity
  8
0
 62
7
100
AcDbLine
 10
74.255201
 20
-0.496964
 30
0.0
 11
74.255201
 21
-0.496964
 31
0.0
  0
SPLINE
  5
15d
100
AcDbEntity
  8
0
 62
7
100
AcDbSpline
 70
8
 71
3
 72
8
 73
4
 74
0
 40
0
 40
0
 40
0
 40
0
 40
1
 40
1
 40
1
 40
1
 10
82.139471
 20
1.040188
 30
0.0
 10
82.683392
 20
1.509185
 30
0.0
 10
83.590514
 20
1.428892
 30
0.0
 10
84.035175
 20
0.862388
 30
0.0
  0
SPLINE
  5
15e
100
AcDbEntity
  8
0
 62
7
100
AcDbSpline
 70
8
 71
3
 72
8
 73
4
 74
0
 40
0
 40
0
 40
0
 40
0
 40
1
 40
1
 40
1
 40
1
 10
84.035175
 20
0.862388
 30
0.0
 10
84.527317
 20
0.307426
 30
0.0
 10
84.419897
 20
-0.639712
 30
0.0
 10
83.817299
 20
-1.071596
 30
0.0
  0
SPLINE
  5
15f
100
AcDbEntity
  8
0
 62
7
100
AcDbSpline
 70
8
 71
3
 72
8
 73
4
 74
0
 40
0
 40
0
 40
0
 40
0
 40
1
 40
1
 40
1
 40
1
 10
83.817299
 20
-1.071596
 30
0.0
 10
83.249984
 20
-1.530433
 30
0.0
 10
82.332249
 20
-1.396773
 30
0.0
 10
81.913730
 20
-0.800635
 30
0.0
  0
SPLINE
  5
160
100
AcDbEntity
  8
0
 62
7
100
AcDbSpline
 70
8
 71
3
 72
8
 73
4
 74
0
 40
0
 40
0
 40
0
 40
0
 40
1
 40
1
 40
1
 40
1
 10
81.913730
 20
-0.800635
 30
0.0
 10
81.490735
 20
-0.244262
 30
0.0
 10
81.595242
 20
0.601586
 30
0.0
 10
82.139471
 20
1.040188
 30
0.0
  0
LINE
  5
161
100
AcDbEntity
  8
0
 62
7
100
AcDbLine
 10
82.139471
 20
1.040188
 30
0.0
 11
82.139471
 21
1.040188
 31
0.0
  0
LINE
  5
162
100
AcDbEntity
  8
0
 62
7
100
AcDbLine
 10
91.000002
 20
-4.999991
 30
0.0
 11
65.000002
 21
-4.999991
 31
0.0
  0
LINE
  5
163
100
AcDbEntity
  8
0
 62
7
100
AcDbLine
 10
65.000002
 20
-4.999991
 30
0.0
 11
65.000002
 21
-14.999971
 31
0.0
  0
LINE
  5
164
100
AcDbEntity
  8
0
 62
7
100
AcDbLine
 10
65.000002
 20
-14.999971
 30
0.0
 11
91.000002
 21
-14.999971
 31
0.0
  0
LINE
  5
165
100
AcDbEntity
  8
0
 62
7
100
AcDbLine
 10
91.000002
 20
-14.999971
 30
0.0
 11
91.000002
 21
-4.999991
 31
0.0
  0
SPLINE
  5
166
100
AcDbEntity
  8
0
 62
7
100
AcDbSpline
 70
8
 71
3
 72
8
 73
4
 74
0
 40
0
 40
0
 40
0
 40
0
 40
1
 40
1
 40
1
 40
1
 10
72.393262
 20
-11.289342
 30
0.0
 10
71.702007
 20
-10.980929
 30
0.0
 10
71.370875
 20
-10.081064
 30
0.0
 10
71.709654
 20
-9.401924
 30
0.0
  0
SPLINE
  5
167
100
AcDbEntity
  8
0
 62
7
100
AcDbSpline
 70
8
 71
3
 72
8
 73
4
 74
0
 40
0
 40
0
 40
0
 40
0
 40
1
 40
1
 40
1
 40
1
 10
71.709654
 20
-9.401924
 30
0.0
 10
72.008655
 20
-8.704920
 30
0.0
 10
72.910067
 20
-8.374579
 30
0.0
 10
73.591358
 20
-8.704525
 30
0.0
  0
SPLINE
  5
168
100
AcDbEntity
  8
0
 62
7
100
AcDbSpline
 70
8
 71
3
 72
8
 73
4
 74
0
 40
0
 40
0
 40
0
 40
0
 40
1
 40
1
 40
1
 40
1
 10
73.591358
 20
-8.704525
 30
0.0
 10
74.292732
 20
-9.004894
 30
0.0
 10
74.631867
 20
-9.914186
 30
0.0
 10
74.290370
 20
-10.598039
 30
0.0
  0
SPLINE
  5
169
100
AcDbEntity
  8
0
 62
7
100
AcDbSpline
 70
8
 71
3
 72
8
 73
4
 74
0
 40
0
 40
0
 40
0
 40
0
 40
1
 40
1
 40
1
 40
1
 10
74.290370
 20
-10.598039
 30
0.0
 10
73.979317
 20
-11.306219
 30
0.0
 10
73.087912
 20
-11.625835
 30
0.0
 10
72.393262
 20
-11.289342
 30
0.0
  0
LINE
  5
16a
100
AcDbEntity
  8
0
 62
7
100
AcDbLine
 10
72.393262
 20
-11.289342
 30
0.0
 11
72.393262
 21
-11.289342
 31
0.0
  0
SPLINE
  5
16b
100
AcDbEntity
  8
0
 62
7
100
AcDbSpline
 70
8
 71
3
 72
8
 73
4
 74
0
 40
0
 40
0
 40
0
 40
0
 40
1
 40
1
 40
1
 40
1
 10
84.380222
 20
-10.354340
 30
0.0
 10
84.206819
 20
-11.091081
 30
0.0
 10
83.384871
 20
-11.585224
 30
0.0
 10
82.654312
 20
-11.379540
 30
0.0
  0
SPLINE
  5
16c
100
AcDbEntity
  8
0
 62
7
100
AcDbSpline
 70
8
 71
3
 72
8
 73
4
 74
0
 40
0
 40
0
 40
0
 40
0
 40
1
 40
1
 40
1
 40
1
 10
82.654312
 20
-11.379540
 30
0.0
 10
81.913689
 20
-11.216416
 30
0.0
 10
81.420035
 20
-10.392919
 30
0.0
 10
81.616675
 20
-9.661851
 30
0.0
  0
SPLINE
  5
16d
100
AcDbEntity
  8
0
 62
7
100
AcDbSpline
 70
8
 71
3
 72
8
 73
4
 74
0
 40
0
 40
0
 40
0
 40
0
 40
1
 40
1
 40
1
 40
1
 10
81.616675
 20
-9.661851
 30
0.0
 10
81.780302
 20
-8.916530
 30
0.0
 10
82.609902
 20
-8.413272
 30
0.0
 10
83.345672
 20
-8.620423
 30
0.0
  0
SPLINE
  5
16e
100
AcDbEntity
  8
0
 62
7
100
AcDbSpline
 70
8
 71
3
 72
8
 73
4
 74
0
 40
0
 40
0
 40
0
 40
0
 40
1
 40
1
 40
1
 40
1
 10
83.345672
 20
-8.620423
 30
0.0
 10
84.099677
 20
-8.793256
 30
0.0
 10
84.580401
 20
-9.608963
 30
0.0
 10
84.380222
 20
-10.354340
 30
0.0
  0
LINE
  5
16f
100
AcDbEntity
  8
0
 62
7
100
AcDbLine
 10
84.380222
 20
-10.354340
 30
0.0
 11
84.380222
 21
-10.354340
 31
0.0
  0
LINE
  5
170
100
AcDbEntity
  8
0
 62
7
100
AcDbLine
 10
117.000003
 20
4.999991
 30
0.0
 11
91.000001
 21
4.999991
 31
0.0
  0
LINE
  5
171
100
AcDbEntity
  8
0
 62
7
100
AcDbLine
 10
91.000001
 20
4.999991
 30
0.0
 11
91.000001
 21
-4.999989
 31
0.0
  0
LINE
  5
172
100
AcDbEntity
  8
0
 62
7
100
AcDbLine
 10
91.000001
 20
-4.999989
 30
0.0
 11
117.000003
 21
-4.999989
 31
0.0
  0
LINE
  5
173
100
AcDbEntity
  8
0
 62
7
100
AcDbLine
 10
117.000003
 20
-4.999989
 30
0.0
 11
117.000003
 21
4.999991
 31
0.0
  0
SPLINE
  5
174
100
AcDbEntity
  8
0
 62
7
100
AcDbSpline
 70
8
 71
3
 72
8
 73
4
 74
0
 40
0
 40
0
 40
0
 40
0
 40
1
 40
1
 40
1
 40
1
 10
100.255203
 20
-0.496964
 30
0.0
 10
100.004536
 20
-1.170120
 30
0.0
 10
99.170942
 20
-1.536501
 30
0.0
 10
98.508332
 20
-1.254420
 30
0.0
  0
SPLINE
  5
175
100
AcDbEntity
  8
0
 62
7
100
AcDbSpline
 70
8
 71
3
 72
8
 73
4
 74
0
 40
0
 40
0
 40
0
 40
0
 40
1
 40
1
 40
1
 40
1
 10
98.508332
 20
-1.254420
 30
0.0
 10
97.809713
 20
-1.005190
 30
0.0
 10
97.447537
 20
-0.123443
 30
0.0
 10
97.767558
 20
0.545311
 30
0.0
  0
SPLINE
  5
176
100
AcDbEntity
  8
0
 62
7
100
AcDbSpline
 70
8
 71
3
 72
8
 73
4
 74
0
 40
0
 40
0
 40
0
 40
0
 40
1
 40
1
 40
1
 40
1
 10
97.767558
 20
0.545311
 30
0.0
 10
98.043622
 20
1.220810
 30
0.0
 10
98.912228
 20
1.545535
 30
0.0
 10
99.566199
 20
1.224930
 30
0.0
  0
SPLINE
  5
177
100
AcDbEntity
  8
0
 62
7
100
AcDbSpline
 70
8
 71
3
 72
8
 73
4
 74
0
 40
0
 40
0
 40
0
 40
0
 40
1
 40
1
 40
1
 40
1
 10
99.566199
 20
1.224930
 30
0.0
 10
100.204891
 20
0.941128
 30
0.0
 10
100.520836
 20
0.149551
 30
0.0
 10
100.255203
 20
-0.496964
 30
0.0
  0
LINE
  5
178
100
AcDbEntity
  8
0
 62
7
100
AcDbLine
 10
100.255203
 20
-0.496964
 30
0.0
 11
100.255203
 21
-0.496964
 31
0.0
  0
SPLINE
  5
179
100
AcDbEntity
  8
0
 62
7
100
AcDbSpline
 70
8
 71
3
 72
8
 73
4
 74
0
 40
0
 40
0
 40
0
 40
0
 40
1
 40
1
 40
1
 40
1
 10
108.139473
 20
1.040188
 30
0.0
 10
108.683394
 20
1.509185
 30
0.0
 10
109.590515
 20
1.428892
 30
0.0
 10
110.035176
 20
0.862388
 30
0.0
  0
SPLINE
  5
17a
100
AcDbEntity
  8
0
 62
7
100
AcDbSpline
 70
8
 71
3
 72
8
 73
4
 74
0
 40
0
 40
0
 40
0
 40
0
 40
1
 40
1
 40
1
 40
1
 10
110.035176
 20
0.862388
 30
0.0
 10
110.527318
 20
0.307426
 30
0.0
 10
110.419899
 20
-0.639712
 30
0.0
 10
109.817301
 20
-1.071596
 30
0.0
  0
SPLINE
  5
17b
100
AcDbEntity
  8
0
 62
7
100
AcDbSpline
 70
8
 71
3
 72
8
 73
4
 74
0
 40
0
 40
0
 40
0
 40
0
 40
1
 40
1
 40
1
 40
1
 10
109.817301
 20
-1.071596
 30
0.0
 10
109.249986
 20
-1.530433
 30
0.0
 10
108.332253
 20
-1.396773
 30
0.0
 10
107.913732
 20
-0.800635
 30
0.0
  0
SPLINE
  5
17c
100
AcDbEntity
  8
0
 62
7
100
AcDbSpline
 70
8
 71
3
 72
8
 73
4
 74
0
 40
0
 40
0
 40
0
 40
0
 40
1
 40
1
 40
1
 40
1
 10
107.913732
 20
-0.800635
 30
0.0
 10
107.490737
 20
-0.244262
 30
0.0
 10
107.595244
 20
0.601586
 30
0.0
 10
108.139473
 20
1.040188
 30
0.0
  0
LINE
  5
17d
100
AcDbEntity
  8
0
 62
7
100
AcDbLine
 10
108.139473
 20
1.040188
 30
0.0
 11
108.139473
 21
1.040188
 31
0.0
  0
LINE
  5
17e
100
AcDbEntity
  8
0
 62
7
100
AcDbLine
 10
117.000001
 20
-4.999991
 30
0.0
 11
91.000001
 21
-4.999991
 31
0.0
  0
LINE
  5
17f
100
AcDbEntity
  8
0
 62
7
100
AcDbLine
 10
91.000001
 20
-4.999991
 30
0.0
 11
91.000001
 21
-14.999971
 31
0.0
  0
LINE
  5
180
100
AcDbEntity
  8
0
 62
7
100
AcDbLine
 10
91.000001
 20
-14.999971
 30
0.0
 11
117.000001
 21
-14.999971
 31
0.0
  0
LINE
  5
181
100
AcDbEntity
  8
0
 62
7
100
AcDbLine
 10
117.000001
 20
-14.999971
 30
0.0
 11
117.000001
 21
-4.999991
 31
0.0
  0
SPLINE
  5
182
100
AcDbEntity
  8
0
 62
7
100
AcDbSpline
 70
8
 71
3
 72
8
 73
4
 74
0
 40
0
 40
0
 40
0
 40
0
 40
1
 40
1
 40
1
 40
1
 10
98.393261
 20
-11.289342
 30
0.0
 10
97.702006
 20
-10.980929
 30
0.0
 10
97.370873
 20
-10.081064
 30
0.0
 10
97.709653
 20
-9.401924
 30
0.0
  0
SPLINE
  5
183
100
AcDbEntity
  8
0
 62
7
100
AcDbSpline
 70
8
 71
3
 72
8
 73
4
 74
0
 40
0
 40
0
 40
0
 40
0
 40
1
 40
1
 40
1
 40
1
 10
97.709653
 20
-9.401924
 30
0.0
 10
98.008654
 20
-8.704920
 30
0.0
 10
98.910066
 20
-8.374579
 30
0.0
 10
99.591357
 20
-8.704525
 30
0.0
  0
SPLINE
  5
184
100
AcDbEntity
  8
0
 62
7
100
AcDbSpline
 70
8
 71
3
 72
8
 73
4
 74
0
 40
0
 40
0
 40
0
 40
0
 40
1
 40
1
 40
1
 40
1
 10
99.591357
 20
-8.704525
 30
0.0
 10
100.292731
 20
-9.004894
 30
0.0
 10
100.631866
 20
-9.914186
 30
0.0
 10
100.290369
 20
-10.598039
 30
0.0
  0
SPLINE
  5
185
100
AcDbEntity
  8
0
 62
7
100
AcDbSpline
 70
8
 71
3
 72
8
 73
4
 74
0
 40
0
 40
0
 40
0
 40
0
 40
1
 40
1
 40
1
 40
1
 10
100.290369
 20
-10.598039
 30
0.0
 10
99.979315
 20
-11.306219
 30
0.0
 10
99.087911
 20
-11.625835
 30
0.0
 10
98.393261
 20
-11.289342
 30
0.0
  0
LINE
  5
186
100
AcDbEntity
  8
0
 62
7
100
AcDbLine
 10
98.393261
 20
-11.289342
 30
0.0
 11
98.393261
 21
-11.289342
 31
0.0
  0
SPLINE
  5
187
100
AcDbEntity
  8
0
 62
7
100
AcDbSpline
 70
8
 71
3
 72
8
 73
4
 74
0
 40
0
 40
0
 40
0
 40
0
 40
1
 40
1
 40
1
 40
1
 10
110.380221
 20
-10.354340
 30
0.0
 10
110.206818
 20
-11.091081
 30
0.0
 10
109.384869
 20
-11.585224
 30
0.0
 10
108.654311
 20
-11.379540
 30
0.0
  0
SPLINE
  5
188
100
AcDbEntity
  8
0
 62
7
100
AcDbSpline
 70
8
 71
3
 72
8
 73
4
 74
0
 40
0
 40
0
 40
0
 40
0
 40
1
 40
1
 40
1
 40
1
 10
108.654311
 20
-11.379540
 30
0.0
 10
107.913687
 20
-11.216416
 30
0.0
 10
107.420034
 20
-10.392919
 30
0.0
 10
107.616674
 20
-9.661851
 30
0.0
  0
SPLINE
  5
189
100
AcDbEntity
  8
0
 62
7
100
AcDbSpline
 70
8
 71
3
 72
8
 73
4
 74
0
 40
0
 40
0
 40
0
 40
0
 40
1
 40
1
 40
1
 40
1
 10
107.616674
 20
-9.661851
 30
0.0
 10
107.780300
 20
-8.916530
 30
0.0
 10
108.609901
 20
-8.413272
 30
0.0
 10
109.345671
 20
-8.620423
 30
0.0
  0
SPLINE
  5
18a
100
AcDbEntity
  8
0
 62
7
100
AcDbSpline
 70
8
 71
3
 72
8
 73
4
 74
0
 40
0
 40
0
 40
0
 40
0
 40
1
 40
1
 40
1
 40
1
 10
109.345671
 20
-8.620423
 30
0.0
 10
110.099676
 20
-8.793256
 30
0.0
 10
110.580400
 20
-9.608963
 30
0.0
 10
110.380221
 20
-10.354340
 30
0.0
  0
LINE
  5
18b
100
AcDbEntity
  8
0
 62
7
100
AcDbLine
 10
110.380221
 20
-10.354340
 30
0.0
 11
110.380221
 21
-10.354340
 31
0.0
  0
LINE
  5
18c
100
AcDbEntity
  8
0
 62
7
100
AcDbLine
 10
117.000003
 20
4.999991
 30
0.0
 11
117.000003
 21
-4.999989
 31
0.0
  0
ENDSEC
  0
SECTION
  2
OBJECTS
  0
DICTIONARY
  5
C
330
0
100
AcDbDictionary
  3
ACAD_GROUP
350
D
  3
ACAD_MLINESTYLE
350
17
  0
DICTIONARY
  5
D
330
C
100
AcDbDictionary
  0
DICTIONARY
  5
1A
330
C
100
AcDbDictionary
  0
DICTIONARY
  5
17
330
C
100
AcDbDictionary
  3
STANDARD
350
18
  0
DICTIONARY
  5
19
330
C
100
AcDbDictionary
  0
ENDSEC
  0
EOF
