  0
SECTION
  2
BLOCKS
  0
ENDSEC
  0
SECTION
  2
ENTITIES
  0
LINE
  8
0
 10
9
 20
4
 11
-9
 21
4
  0
LINE
  8
0
 10
-9
 20
4
 11
-9
 21
-4
  0
LINE
  8
0
 10
-9
 20
-4
 11
9
 21
-4
  0
LINE
  8
0
 10
9
 20
-4
 11
9
 21
4
  0
LINE
  8
0
 10
-5.08946
 20
-1.42218
 11
-5.26701
 21
-1.39975
  0
LINE
  8
0
 10
-5.26701
 20
-1.39975
 11
-5.44034
 21
-1.35526
  0
LINE
  8
0
 10
-5.44034
 20
-1.35526
 11
-5.60674
 21
-1.28937
  0
LINE
  8
0
 10
-5.60674
 20
-1.28937
 11
-5.76355
 21
-1.20316
  0
LINE
  8
0
 10
-5.76355
 20
-1.20316
 11
-5.90833
 21
-1.09798
  0
LINE
  8
0
 10
-5.90833
 20
-1.09798
 11
-6.03877
 21
-0.975479
  0
LINE
  8
0
 10
-6.03877
 20
-0.975479
 11
-6.15285
 21
-0.837585
  0
LINE
  8
0
 10
-6.15285
 20
-0.837585
 11
-6.24873
 21
-0.686493
  0
LINE
  8
0
 10
-6.24873
 20
-0.686493
 11
-6.32492
 21
-0.524567
  0
LINE
  8
0
 10
-6.32492
 20
-0.524567
 11
-6.38022
 21
-0.35437
  0
LINE
  8
0
 10
-6.38022
 20
-0.35437
 11
-6.41376
 21
-0.178589
  0
LINE
  8
0
 10
-6.41376
 20
-0.178589
 11
-6.42499
 21
0
  0
LINE
  8
0
 10
-6.42499
 20
0
 11
-6.41376
 21
0.178589
  0
LINE
  8
0
 10
-6.41376
 20
0.178589
 11
-6.38022
 21
0.35437
  0
LINE
  8
0
 10
-6.38022
 20
0.35437
 11
-6.32492
 21
0.524567
  0
LINE
  8
0
 10
-6.32492
 20
0.524567
 11
-6.24873
 21
0.686493
  0
LINE
  8
0
 10
-6.24873
 20
0.686493
 11
-6.15285
 21
0.837585
  0
LINE
  8
0
 10
-6.15285
 20
0.837585
 11
-6.03877
 21
0.975479
  0
LINE
  8
0
 10
-6.03877
 20
0.975479
 11
-5.90833
 21
1.09798
  0
LINE
  8
0
 10
-5.90833
 20
1.09798
 11
-5.76355
 21
1.20316
  0
LINE
  8
0
 10
-5.76355
 20
1.20316
 11
-5.60674
 21
1.28937
  0
LINE
  8
0
 10
-5.60674
 20
1.28937
 11
-5.44034
 21
1.35526
  0
LINE
  8
0
 10
-5.44034
 20
1.35526
 11
-5.26701
 21
1.39975
  0
LINE
  8
0
 10
-5.26701
 20
1.39975
 11
-5.08946
 21
1.42218
  0
LINE
  8
0
 10
-5.08946
 20
1.42218
 11
-4.91052
 21
1.42218
  0
LINE
  8
0
 10
-4.91052
 20
1.42218
 11
-4.73297
 21
1.39975
  0
LINE
  8
0
 10
-4.73297
 20
1.39975
 11
-4.55965
 21
1.35526
  0
LINE
  8
0
 10
-4.55965
 20
1.35526
 11
-4.39325
 21
1.28937
  0
LINE
  8
0
 10
-4.39325
 20
1.28937
 11
-4.23643
 21
1.20316
  0
LINE
  8
0
 10
-4.23643
 20
1.20316
 11
-4.09166
 21
1.09798
  0
LINE
  8
0
 10
-4.09166
 20
1.09798
 11
-3.96121
 21
0.975479
  0
LINE
  8
0
 10
-3.96121
 20
0.975479
 11
-3.84714
 21
0.837585
  0
LINE
  8
0
 10
-3.84714
 20
0.837585
 11
-3.75125
 21
0.686493
  0
LINE
  8
0
 10
-3.75125
 20
0.686493
 11
-3.67506
 21
0.524567
  0
LINE
  8
0
 10
-3.67506
 20
0.524567
 11
-3.61977
 21
0.35437
  0
LINE
  8
0
 10
-3.61977
 20
0.35437
 11
-3.58623
 21
0.178589
  0
LINE
  8
0
 10
-3.58623
 20
0.178589
 11
-3.575
 21
0
  0
LINE
  8
0
 10
-3.575
 20
0
 11
-3.58623
 21
-0.178589
  0
LINE
  8
0
 10
-3.58623
 20
-0.178589
 11
-3.61977
 21
-0.35437
  0
LINE
  8
0
 10
-3.61977
 20
-0.35437
 11
-3.67506
 21
-0.524567
  0
LINE
  8
0
 10
-3.67506
 20
-0.524567
 11
-3.75125
 21
-0.686493
  0
LINE
  8
0
 10
-3.75125
 20
-0.686493
 11
-3.84714
 21
-0.837585
  0
LINE
  8
0
 10
-3.84714
 20
-0.837585
 11
-3.96121
 21
-0.975479
  0
LINE
  8
0
 10
-3.96121
 20
-0.975479
 11
-4.09166
 21
-1.09798
  0
LINE
  8
0
 10
-4.09166
 20
-1.09798
 11
-4.23643
 21
-1.20316
  0
LINE
  8
0
 10
-4.23643
 20
-1.20316
 11
-4.39325
 21
-1.28937
  0
LINE
  8
0
 10
-4.39325
 20
-1.28937
 11
-4.55965
 21
-1.35526
  0
LINE
  8
0
 10
-4.55965
 20
-1.35526
 11
-4.73297
 21
-1.39975
  0
LINE
  8
0
 10
-4.73297
 20
-1.39975
 11
-4.91052
 21
-1.42218
  0
LINE
  8
0
 10
-4.91052
 20
-1.42218
 11
-5.08946
 21
-1.42218
  0
LINE
  8
0
 10
4.91052
 20
-1.42218
 11
4.73297
 21
-1.39975
  0
LINE
  8
0
 10
4.73297
 20
-1.39975
 11
4.55965
 21
-1.35526
  0
LINE
  8
0
 10
4.55965
 20
-1.35526
 11
4.39325
 21
-1.28937
  0
LINE
  8
0
 10
4.39325
 20
-1.28937
 11
4.23643
 21
-1.20316
  0
LINE
  8
0
 10
4.23643
 20
-1.20316
 11
4.09166
 21
-1.09798
  0
LINE
  8
0
 10
4.09166
 20
-1.09798
 11
3.96121
 21
-0.975479
  0
LINE
  8
0
 10
3.96121
 20
-0.975479
 11
3.84714
 21
-0.837585
  0
LINE
  8
0
 10
3.84714
 20
-0.837585
 11
3.75125
 21
-0.686493
  0
LINE
  8
0
 10
3.75125
 20
-0.686493
 11
3.67506
 21
-0.524567
  0
LINE
  8
0
 10
3.67506
 20
-0.524567
 11
3.61977
 21
-0.35437
  0
LINE
  8
0
 10
3.61977
 20
-0.35437
 11
3.58623
 21
-0.178589
  0
LINE
  8
0
 10
3.58623
 20
-0.178589
 11
3.575
 21
0
  0
LINE
  8
0
 10
3.575
 20
0
 11
3.58623
 21
0.178589
  0
LINE
  8
0
 10
3.58623
 20
0.178589
 11
3.61977
 21
0.35437
  0
LINE
  8
0
 10
3.61977
 20
0.35437
 11
3.67506
 21
0.524567
  0
LINE
  8
0
 10
3.67506
 20
0.524567
 11
3.75125
 21
0.686493
  0
LINE
  8
0
 10
3.75125
 20
0.686493
 11
3.84714
 21
0.837585
  0
LINE
  8
0
 10
3.84714
 20
0.837585
 11
3.96121
 21
0.975479
  0
LINE
  8
0
 10
3.96121
 20
0.975479
 11
4.09166
 21
1.09798
  0
LINE
  8
0
 10
4.09166
 20
1.09798
 11
4.23643
 21
1.20316
  0
LINE
  8
0
 10
4.23643
 20
1.20316
 11
4.39325
 21
1.28937
  0
LINE
  8
0
 10
4.39325
 20
1.28937
 11
4.55965
 21
1.35526
  0
LINE
  8
0
 10
4.55965
 20
1.35526
 11
4.73297
 21
1.39975
  0
LINE
  8
0
 10
4.73297
 20
1.39975
 11
4.91052
 21
1.42218
  0
LINE
  8
0
 10
4.91052
 20
1.42218
 11
5.08946
 21
1.42218
  0
LINE
  8
0
 10
5.08946
 20
1.42218
 11
5.26701
 21
1.39975
  0
LINE
  8
0
 10
5.26701
 20
1.39975
 11
5.44034
 21
1.35526
  0
LINE
  8
0
 10
5.44034
 20
1.35526
 11
5.60674
 21
1.28937
  0
LINE
  8
0
 10
5.60674
 20
1.28937
 11
5.76355
 21
1.20316
  0
LINE
  8
0
 10
5.76355
 20
1.20316
 11
5.90833
 21
1.09798
  0
LINE
  8
0
 10
5.90833
 20
1.09798
 11
6.03877
 21
0.975479
  0
LINE
  8
0
 10
6.03877
 20
0.975479
 11
6.15285
 21
0.837585
  0
LINE
  8
0
 10
6.15285
 20
0.837585
 11
6.24873
 21
0.686493
  0
LINE
  8
0
 10
6.24873
 20
0.686493
 11
6.32492
 21
0.524567
  0
LINE
  8
0
 10
6.32492
 20
0.524567
 11
6.38022
 21
0.35437
  0
LINE
  8
0
 10
6.38022
 20
0.35437
 11
6.41376
 21
0.178589
  0
LINE
  8
0
 10
6.41376
 20
0.178589
 11
6.42499
 21
0
  0
LINE
  8
0
 10
6.42499
 20
0
 11
6.41376
 21
-0.178589
  0
LINE
  8
0
 10
6.41376
 20
-0.178589
 11
6.38022
 21
-0.35437
  0
LINE
  8
0
 10
6.38022
 20
-0.35437
 11
6.32492
 21
-0.524567
  0
LINE
  8
0
 10
6.32492
 20
-0.524567
 11
6.24873
 21
-0.686493
  0
LINE
  8
0
 10
6.24873
 20
-0.686493
 11
6.15285
 21
-0.837585
  0
LINE
  8
0
 10
6.15285
 20
-0.837585
 11
6.03877
 21
-0.975479
  0
LINE
  8
0
 10
6.03877
 20
-0.975479
 11
5.90833
 21
-1.09798
  0
LINE
  8
0
 10
5.90833
 20
-1.09798
 11
5.76355
 21
-1.20316
  0
LINE
  8
0
 10
5.76355
 20
-1.20316
 11
5.60674
 21
-1.28937
  0
LINE
  8
0
 10
5.60674
 20
-1.28937
 11
5.44034
 21
-1.35526
  0
LINE
  8
0
 10
5.44034
 20
-1.35526
 11
5.26701
 21
-1.39975
  0
LINE
  8
0
 10
5.26701
 20
-1.39975
 11
5.08946
 21
-1.42218
  0
LINE
  8
0
 10
5.08946
 20
-1.42218
 11
4.91052
 21
-1.42218
  0
ENDSEC
  0
SECTION
  2
OBJECTS
  0
DICTIONARY
  0
ENDSEC
  0
EOF
