  0
SECTION
  2
BLOCKS
  0
ENDSEC
  0
SECTION
  2
ENTITIES
  0
LINE
  8
0
 10
5.53403
 20
-2.79951
 11
5.88069
 21
-2.71051
  0
LINE
  8
0
 10
5.88069
 20
-2.71051
 11
6.21347
 21
-2.57875
  0
LINE
  8
0
 10
6.21347
 20
-2.57875
 11
6.5271
 21
-2.40633
  0
LINE
  8
0
 10
6.5271
 20
-2.40633
 11
6.81665
 21
-2.19595
  0
LINE
  8
0
 10
6.81665
 20
-2.19595
 11
7.07756
 21
-1.95096
  0
LINE
  8
0
 10
7.07756
 20
-1.95096
 11
7.30569
 21
-1.67519
  0
LINE
  8
0
 10
7.30569
 20
-1.67519
 11
7.49747
 21
-1.37299
  0
LINE
  8
0
 10
7.49747
 20
-1.37299
 11
7.64986
 21
-1.04915
  0
LINE
  8
0
 10
7.64986
 20
-1.04915
 11
7.76045
 21
-0.708755
  0
LINE
  8
0
 10
7.76045
 20
-0.708755
 11
7.82751
 21
-0.357193
  0
LINE
  8
0
 10
7.82751
 20
-0.357193
 11
7.84999
 21
0
  0
LINE
  8
0
 10
7.84999
 20
0
 11
7.82751
 21
0.357193
  0
LINE
  8
0
 10
7.82751
 20
0.357193
 11
7.76045
 21
0.708755
  0
LINE
  8
0
 10
7.76045
 20
0.708755
 11
7.64986
 21
1.04915
  0
LINE
  8
0
 10
7.64986
 20
1.04915
 11
7.49747
 21
1.37299
  0
LINE
  8
0
 10
7.49747
 20
1.37299
 11
7.30569
 21
1.67519
  0
LINE
  8
0
 10
7.30569
 20
1.67519
 11
7.07756
 21
1.95096
  0
LINE
  8
0
 10
7.07756
 20
1.95096
 11
6.81665
 21
2.19595
  0
LINE
  8
0
 10
6.81665
 20
2.19595
 11
6.5271
 21
2.40633
  0
LINE
  8
0
 10
6.5271
 20
2.40633
 11
6.21347
 21
2.57875
  0
LINE
  8
0
 10
6.21347
 20
2.57875
 11
5.88069
 21
2.71051
  0
LINE
  8
0
 10
5.88069
 20
2.71051
 11
5.53403
 21
2.79951
  0
LINE
  8
0
 10
5.53403
 20
2.79951
 11
5.17894
 21
2.84438
  0
LINE
  8
0
 10
5.17894
 20
2.84438
 11
-5.17894
 21
2.84438
  0
LINE
  8
0
 10
-5.17894
 20
2.84438
 11
-5.53403
 21
2.79951
  0
LINE
  8
0
 10
-5.53403
 20
2.79951
 11
-5.88069
 21
2.71051
  0
LINE
  8
0
 10
-5.88069
 20
2.71051
 11
-6.21347
 21
2.57875
  0
LINE
  8
0
 10
-6.21347
 20
2.57875
 11
-6.5271
 21
2.40633
  0
LINE
  8
0
 10
-6.5271
 20
2.40633
 11
-6.81665
 21
2.19595
  0
LINE
  8
0
 10
-6.81665
 20
2.19595
 11
-7.07756
 21
1.95096
  0
LINE
  8
0
 10
-7.07756
 20
1.95096
 11
-7.30569
 21
1.67519
  0
LINE
  8
0
 10
-7.30569
 20
1.67519
 11
-7.49747
 21
1.37299
  0
LINE
  8
0
 10
-7.49747
 20
1.37299
 11
-7.64986
 21
1.04915
  0
LINE
  8
0
 10
-7.64986
 20
1.04915
 11
-7.76045
 21
0.708755
  0
LINE
  8
0
 10
-7.76045
 20
0.708755
 11
-7.82751
 21
0.357193
  0
LINE
  8
0
 10
-7.82751
 20
0.357193
 11
-7.84999
 21
0
  0
LINE
  8
0
 10
-7.84999
 20
0
 11
-7.82751
 21
-0.357193
  0
LINE
  8
0
 10
-7.82751
 20
-0.357193
 11
-7.76045
 21
-0.708755
  0
LINE
  8
0
 10
-7.76045
 20
-0.708755
 11
-7.64986
 21
-1.04915
  0
LINE
  8
0
 10
-7.64986
 20
-1.04915
 11
-7.49747
 21
-1.37299
  0
LINE
  8
0
 10
-7.49747
 20
-1.37299
 11
-7.30569
 21
-1.67519
  0
LINE
  8
0
 10
-7.30569
 20
-1.67519
 11
-7.07756
 21
-1.95096
  0
LINE
  8
0
 10
-7.07756
 20
-1.95096
 11
-6.81665
 21
-2.19595
  0
LINE
  8
0
 10
-6.81665
 20
-2.19595
 11
-6.5271
 21
-2.40633
  0
LINE
  8
0
 10
-6.5271
 20
-2.40633
 11
-6.21347
 21
-2.57875
  0
LINE
  8
0
 10
-6.21347
 20
-2.57875
 11
-5.88069
 21
-2.71051
  0
LINE
  8
0
 10
-5.88069
 20
-2.71051
 11
-5.53403
 21
-2.79951
  0
LINE
  8
0
 10
-5.53403
 20
-2.79951
 11
-5.17894
 21
-2.84438
  0
LINE
  8
0
 10
-5.17894
 20
-2.84438
 11
5.17894
 21
-2.84438
  0
LINE
  8
0
 10
5.17894
 20
-2.84438
 11
5.53403
 21
-2.79951
  0
LINE
  8
0
 10
-5.08946
 20
-1.42218
 11
-5.26701
 21
-1.39975
  0
LINE
  8
0
 10
-5.26701
 20
-1.39975
 11
-5.44034
 21
-1.35526
  0
LINE
  8
0
 10
-5.44034
 20
-1.35526
 11
-5.60674
 21
-1.28937
  0
LINE
  8
0
 10
-5.60674
 20
-1.28937
 11
-5.76355
 21
-1.20316
  0
LINE
  8
0
 10
-5.76355
 20
-1.20316
 11
-5.90833
 21
-1.09798
  0
LINE
  8
0
 10
-5.90833
 20
-1.09798
 11
-6.03877
 21
-0.975479
  0
LINE
  8
0
 10
-6.03877
 20
-0.975479
 11
-6.15285
 21
-0.837585
  0
LINE
  8
0
 10
-6.15285
 20
-0.837585
 11
-6.24873
 21
-0.686493
  0
LINE
  8
0
 10
-6.24873
 20
-0.686493
 11
-6.32492
 21
-0.524567
  0
LINE
  8
0
 10
-6.32492
 20
-0.524567
 11
-6.38022
 21
-0.35437
  0
LINE
  8
0
 10
-6.38022
 20
-0.35437
 11
-6.41376
 21
-0.178589
  0
LINE
  8
0
 10
-6.41376
 20
-0.178589
 11
-6.42499
 21
0
  0
LINE
  8
0
 10
-6.42499
 20
0
 11
-6.41376
 21
0.178589
  0
LINE
  8
0
 10
-6.41376
 20
0.178589
 11
-6.38022
 21
0.35437
  0
LINE
  8
0
 10
-6.38022
 20
0.35437
 11
-6.32492
 21
0.524567
  0
LINE
  8
0
 10
-6.32492
 20
0.524567
 11
-6.24873
 21
0.686493
  0
LINE
  8
0
 10
-6.24873
 20
0.686493
 11
-6.15285
 21
0.837585
  0
LINE
  8
0
 10
-6.15285
 20
0.837585
 11
-6.03877
 21
0.975479
  0
LINE
  8
0
 10
-6.03877
 20
0.975479
 11
-5.90833
 21
1.09798
  0
LINE
  8
0
 10
-5.90833
 20
1.09798
 11
-5.76355
 21
1.20316
  0
LINE
  8
0
 10
-5.76355
 20
1.20316
 11
-5.60674
 21
1.28937
  0
LINE
  8
0
 10
-5.60674
 20
1.28937
 11
-5.44034
 21
1.35526
  0
LINE
  8
0
 10
-5.44034
 20
1.35526
 11
-5.26701
 21
1.39975
  0
LINE
  8
0
 10
-5.26701
 20
1.39975
 11
-5.08946
 21
1.42218
  0
LINE
  8
0
 10
-5.08946
 20
1.42218
 11
-4.91052
 21
1.42218
  0
LINE
  8
0
 10
-4.91052
 20
1.42218
 11
-4.73297
 21
1.39975
  0
LINE
  8
0
 10
-4.73297
 20
1.39975
 11
-4.55965
 21
1.35526
  0
LINE
  8
0
 10
-4.55965
 20
1.35526
 11
-4.39325
 21
1.28937
  0
LINE
  8
0
 10
-4.39325
 20
1.28937
 11
-4.23643
 21
1.20316
  0
LINE
  8
0
 10
-4.23643
 20
1.20316
 11
-4.09166
 21
1.09798
  0
LINE
  8
0
 10
-4.09166
 20
1.09798
 11
-3.96121
 21
0.975479
  0
LINE
  8
0
 10
-3.96121
 20
0.975479
 11
-3.84714
 21
0.837585
  0
LINE
  8
0
 10
-3.84714
 20
0.837585
 11
-3.75125
 21
0.686493
  0
LINE
  8
0
 10
-3.75125
 20
0.686493
 11
-3.67506
 21
0.524567
  0
LINE
  8
0
 10
-3.67506
 20
0.524567
 11
-3.61977
 21
0.35437
  0
LINE
  8
0
 10
-3.61977
 20
0.35437
 11
-3.58623
 21
0.178589
  0
LINE
  8
0
 10
-3.58623
 20
0.178589
 11
-3.575
 21
0
  0
LINE
  8
0
 10
-3.575
 20
0
 11
-3.58623
 21
-0.178589
  0
LINE
  8
0
 10
-3.58623
 20
-0.178589
 11
-3.61977
 21
-0.35437
  0
LINE
  8
0
 10
-3.61977
 20
-0.35437
 11
-3.67506
 21
-0.524567
  0
LINE
  8
0
 10
-3.67506
 20
-0.524567
 11
-3.75125
 21
-0.686493
  0
LINE
  8
0
 10
-3.75125
 20
-0.686493
 11
-3.84714
 21
-0.837585
  0
LINE
  8
0
 10
-3.84714
 20
-0.837585
 11
-3.96121
 21
-0.975479
  0
LINE
  8
0
 10
-3.96121
 20
-0.975479
 11
-4.09166
 21
-1.09798
  0
LINE
  8
0
 10
-4.09166
 20
-1.09798
 11
-4.23643
 21
-1.20316
  0
LINE
  8
0
 10
-4.23643
 20
-1.20316
 11
-4.39325
 21
-1.28937
  0
LINE
  8
0
 10
-4.39325
 20
-1.28937
 11
-4.55965
 21
-1.35526
  0
LINE
  8
0
 10
-4.55965
 20
-1.35526
 11
-4.73297
 21
-1.39975
  0
LINE
  8
0
 10
-4.73297
 20
-1.39975
 11
-4.91052
 21
-1.42218
  0
LINE
  8
0
 10
-4.91052
 20
-1.42218
 11
-5.08946
 21
-1.42218
  0
LINE
  8
0
 10
4.91052
 20
-1.42218
 11
4.73297
 21
-1.39975
  0
LINE
  8
0
 10
4.73297
 20
-1.39975
 11
4.55965
 21
-1.35526
  0
LINE
  8
0
 10
4.55965
 20
-1.35526
 11
4.39325
 21
-1.28937
  0
LINE
  8
0
 10
4.39325
 20
-1.28937
 11
4.23643
 21
-1.20316
  0
LINE
  8
0
 10
4.23643
 20
-1.20316
 11
4.09166
 21
-1.09798
  0
LINE
  8
0
 10
4.09166
 20
-1.09798
 11
3.96121
 21
-0.975479
  0
LINE
  8
0
 10
3.96121
 20
-0.975479
 11
3.84714
 21
-0.837585
  0
LINE
  8
0
 10
3.84714
 20
-0.837585
 11
3.75125
 21
-0.686493
  0
LINE
  8
0
 10
3.75125
 20
-0.686493
 11
3.67506
 21
-0.524567
  0
LINE
  8
0
 10
3.67506
 20
-0.524567
 11
3.61977
 21
-0.35437
  0
LINE
  8
0
 10
3.61977
 20
-0.35437
 11
3.58623
 21
-0.178589
  0
LINE
  8
0
 10
3.58623
 20
-0.178589
 11
3.575
 21
0
  0
LINE
  8
0
 10
3.575
 20
0
 11
3.58623
 21
0.178589
  0
LINE
  8
0
 10
3.58623
 20
0.178589
 11
3.61977
 21
0.35437
  0
LINE
  8
0
 10
3.61977
 20
0.35437
 11
3.67506
 21
0.524567
  0
LINE
  8
0
 10
3.67506
 20
0.524567
 11
3.75125
 21
0.686493
  0
LINE
  8
0
 10
3.75125
 20
0.686493
 11
3.84714
 21
0.837585
  0
LINE
  8
0
 10
3.84714
 20
0.837585
 11
3.96121
 21
0.975479
  0
LINE
  8
0
 10
3.96121
 20
0.975479
 11
4.09166
 21
1.09798
  0
LINE
  8
0
 10
4.09166
 20
1.09798
 11
4.23643
 21
1.20316
  0
LINE
  8
0
 10
4.23643
 20
1.20316
 11
4.39325
 21
1.28937
  0
LINE
  8
0
 10
4.39325
 20
1.28937
 11
4.55965
 21
1.35526
  0
LINE
  8
0
 10
4.55965
 20
1.35526
 11
4.73297
 21
1.39975
  0
LINE
  8
0
 10
4.73297
 20
1.39975
 11
4.91052
 21
1.42218
  0
LINE
  8
0
 10
4.91052
 20
1.42218
 11
5.08946
 21
1.42218
  0
LINE
  8
0
 10
5.08946
 20
1.42218
 11
5.26701
 21
1.39975
  0
LINE
  8
0
 10
5.26701
 20
1.39975
 11
5.44034
 21
1.35526
  0
LINE
  8
0
 10
5.44034
 20
1.35526
 11
5.60674
 21
1.28937
  0
LINE
  8
0
 10
5.60674
 20
1.28937
 11
5.76355
 21
1.20316
  0
LINE
  8
0
 10
5.76355
 20
1.20316
 11
5.90833
 21
1.09798
  0
LINE
  8
0
 10
5.90833
 20
1.09798
 11
6.03877
 21
0.975479
  0
LINE
  8
0
 10
6.03877
 20
0.975479
 11
6.15285
 21
0.837585
  0
LINE
  8
0
 10
6.15285
 20
0.837585
 11
6.24873
 21
0.686493
  0
LINE
  8
0
 10
6.24873
 20
0.686493
 11
6.32492
 21
0.524567
  0
LINE
  8
0
 10
6.32492
 20
0.524567
 11
6.38022
 21
0.35437
  0
LINE
  8
0
 10
6.38022
 20
0.35437
 11
6.41376
 21
0.178589
  0
LINE
  8
0
 10
6.41376
 20
0.178589
 11
6.42499
 21
0
  0
LINE
  8
0
 10
6.42499
 20
0
 11
6.41376
 21
-0.178589
  0
LINE
  8
0
 10
6.41376
 20
-0.178589
 11
6.38022
 21
-0.35437
  0
LINE
  8
0
 10
6.38022
 20
-0.35437
 11
6.32492
 21
-0.524567
  0
LINE
  8
0
 10
6.32492
 20
-0.524567
 11
6.24873
 21
-0.686493
  0
LINE
  8
0
 10
6.24873
 20
-0.686493
 11
6.15285
 21
-0.837585
  0
LINE
  8
0
 10
6.15285
 20
-0.837585
 11
6.03877
 21
-0.975479
  0
LINE
  8
0
 10
6.03877
 20
-0.975479
 11
5.90833
 21
-1.09798
  0
LINE
  8
0
 10
5.90833
 20
-1.09798
 11
5.76355
 21
-1.20316
  0
LINE
  8
0
 10
5.76355
 20
-1.20316
 11
5.60674
 21
-1.28937
  0
LINE
  8
0
 10
5.60674
 20
-1.28937
 11
5.44034
 21
-1.35526
  0
LINE
  8
0
 10
5.44034
 20
-1.35526
 11
5.26701
 21
-1.39975
  0
LINE
  8
0
 10
5.26701
 20
-1.39975
 11
5.08946
 21
-1.42218
  0
LINE
  8
0
 10
5.08946
 20
-1.42218
 11
4.91052
 21
-1.42218
  0
ENDSEC
  0
SECTION
  2
OBJECTS
  0
DICTIONARY
  0
ENDSEC
  0
EOF
