  0
SECTION
  2
BLOCKS
  0
ENDSEC
  0
SECTION
  2
ENTITIES
  0
LINE
  8
0
 10
2.5
 20
-5
 11
12.5
 21
-5
  0
LINE
  8
0
 10
12.5
 20
-5
 11
12.5
 21
5
  0
LINE
  8
0
 10
12.5
 20
5
 11
-12.5
 21
5
  0
LINE
  8
0
 10
-12.5
 20
5
 11
-12.5
 21
-5
  0
LINE
  8
0
 10
-12.5
 20
-5
 11
-2.5
 21
-5
  0
LINE
  8
0
 10
-2.5
 20
-5
 11
-2.5
 21
-15
  0
LINE
  8
0
 10
-2.5
 20
-15
 11
2.5
 21
-15
  0
LINE
  8
0
 10
2.5
 20
-15
 11
2.5
 21
-5
  0
LINE
  8
0
 10
-7.56279
 20
-0.998016
 11
-7.62532
 21
-0.992111
  0
LINE
  8
0
 10
-7.62532
 20
-0.992111
 11
-7.68738
 21
-0.982285
  0
LINE
  8
0
 10
-7.68738
 20
-0.982285
 11
-7.74869
 21
-0.968582
  0
LINE
  8
0
 10
-7.74869
 20
-0.968582
 11
-7.80901
 21
-0.95105
  0
LINE
  8
0
 10
-7.80901
 20
-0.95105
 11
-7.86812
 21
-0.929764
  0
LINE
  8
0
 10
-7.86812
 20
-0.929764
 11
-7.92577
 21
-0.904816
  0
LINE
  8
0
 10
-7.92577
 20
-0.904816
 11
-7.98175
 21
-0.876297
  0
LINE
  8
0
 10
-7.98175
 20
-0.876297
 11
-8.03581
 21
-0.844315
  0
LINE
  8
0
 10
-8.03581
 20
-0.844315
 11
-8.08778
 21
-0.809006
  0
LINE
  8
0
 10
-8.08778
 20
-0.809006
 11
-8.13742
 21
-0.770508
  0
LINE
  8
0
 10
-8.13742
 20
-0.770508
 11
-8.18454
 21
-0.728958
  0
LINE
  8
0
 10
-8.18454
 20
-0.728958
 11
-8.22896
 21
-0.68454
  0
LINE
  8
0
 10
-8.22896
 20
-0.68454
 11
-8.27051
 21
-0.637421
  0
LINE
  8
0
 10
-8.27051
 20
-0.637421
 11
-8.30901
 21
-0.587784
  0
LINE
  8
0
 10
-8.30901
 20
-0.587784
 11
-8.34431
 21
-0.535812
  0
LINE
  8
0
 10
-8.34431
 20
-0.535812
 11
-8.3763
 21
-0.48175
  0
LINE
  8
0
 10
-8.3763
 20
-0.48175
 11
-8.40482
 21
-0.425766
  0
LINE
  8
0
 10
-8.40482
 20
-0.425766
 11
-8.42976
 21
-0.368118
  0
LINE
  8
0
 10
-8.42976
 20
-0.368118
 11
-8.45105
 21
-0.309006
  0
LINE
  8
0
 10
-8.45105
 20
-0.309006
 11
-8.46858
 21
-0.248688
  0
LINE
  8
0
 10
-8.46858
 20
-0.248688
 11
-8.48228
 21
-0.187378
  0
LINE
  8
0
 10
-8.48228
 20
-0.187378
 11
-8.49211
 21
-0.12532
  0
LINE
  8
0
 10
-8.49211
 20
-0.12532
 11
-8.49802
 21
-0.0627899
  0
LINE
  8
0
 10
-8.49802
 20
-0.0627899
 11
-8.5
 21
0
  0
LINE
  8
0
 10
-8.5
 20
0
 11
-8.49802
 21
0.0627899
  0
LINE
  8
0
 10
-8.49802
 20
0.0627899
 11
-8.49211
 21
0.12532
  0
LINE
  8
0
 10
-8.49211
 20
0.12532
 11
-8.48228
 21
0.187378
  0
LINE
  8
0
 10
-8.48228
 20
0.187378
 11
-8.46858
 21
0.248688
  0
LINE
  8
0
 10
-8.46858
 20
0.248688
 11
-8.45105
 21
0.309006
  0
LINE
  8
0
 10
-8.45105
 20
0.309006
 11
-8.42976
 21
0.368118
  0
LINE
  8
0
 10
-8.42976
 20
0.368118
 11
-8.40482
 21
0.425766
  0
LINE
  8
0
 10
-8.40482
 20
0.425766
 11
-8.3763
 21
0.48175
  0
LINE
  8
0
 10
-8.3763
 20
0.48175
 11
-8.34431
 21
0.535812
  0
LINE
  8
0
 10
-8.34431
 20
0.535812
 11
-8.30901
 21
0.587784
  0
LINE
  8
0
 10
-8.30901
 20
0.587784
 11
-8.27051
 21
0.637421
  0
LINE
  8
0
 10
-8.27051
 20
0.637421
 11
-8.22896
 21
0.68454
  0
LINE
  8
0
 10
-8.22896
 20
0.68454
 11
-8.18454
 21
0.728958
  0
LINE
  8
0
 10
-8.18454
 20
0.728958
 11
-8.13742
 21
0.770508
  0
LINE
  8
0
 10
-8.13742
 20
0.770508
 11
-8.08778
 21
0.809006
  0
LINE
  8
0
 10
-8.08778
 20
0.809006
 11
-8.03581
 21
0.844315
  0
LINE
  8
0
 10
-8.03581
 20
0.844315
 11
-7.98175
 21
0.876297
  0
LINE
  8
0
 10
-7.98175
 20
0.876297
 11
-7.92577
 21
0.904816
  0
LINE
  8
0
 10
-7.92577
 20
0.904816
 11
-7.86812
 21
0.929764
  0
LINE
  8
0
 10
-7.86812
 20
0.929764
 11
-7.80901
 21
0.95105
  0
LINE
  8
0
 10
-7.80901
 20
0.95105
 11
-7.74869
 21
0.968582
  0
LINE
  8
0
 10
-7.74869
 20
0.968582
 11
-7.68738
 21
0.982285
  0
LINE
  8
0
 10
-7.68738
 20
0.982285
 11
-7.62532
 21
0.992111
  0
LINE
  8
0
 10
-7.62532
 20
0.992111
 11
-7.56279
 21
0.998016
  0
LINE
  8
0
 10
-7.56279
 20
0.998016
 11
-7.5
 21
1
  0
LINE
  8
0
 10
-7.5
 20
1
 11
-7.43719
 21
0.998016
  0
LINE
  8
0
 10
-7.43719
 20
0.998016
 11
-7.37466
 21
0.992111
  0
LINE
  8
0
 10
-7.37466
 20
0.992111
 11
-7.31261
 21
0.982285
  0
LINE
  8
0
 10
-7.31261
 20
0.982285
 11
-7.2513
 21
0.968582
  0
LINE
  8
0
 10
-7.2513
 20
0.968582
 11
-7.19098
 21
0.95105
  0
LINE
  8
0
 10
-7.19098
 20
0.95105
 11
-7.13187
 21
0.929764
  0
LINE
  8
0
 10
-7.13187
 20
0.929764
 11
-7.07422
 21
0.904816
  0
LINE
  8
0
 10
-7.07422
 20
0.904816
 11
-7.01823
 21
0.876297
  0
LINE
  8
0
 10
-7.01823
 20
0.876297
 11
-6.96417
 21
0.844315
  0
LINE
  8
0
 10
-6.96417
 20
0.844315
 11
-6.9122
 21
0.809006
  0
LINE
  8
0
 10
-6.9122
 20
0.809006
 11
-6.86256
 21
0.770508
  0
LINE
  8
0
 10
-6.86256
 20
0.770508
 11
-6.81544
 21
0.728958
  0
LINE
  8
0
 10
-6.81544
 20
0.728958
 11
-6.77103
 21
0.68454
  0
LINE
  8
0
 10
-6.77103
 20
0.68454
 11
-6.72948
 21
0.637421
  0
LINE
  8
0
 10
-6.72948
 20
0.637421
 11
-6.69098
 21
0.587784
  0
LINE
  8
0
 10
-6.69098
 20
0.587784
 11
-6.65567
 21
0.535812
  0
LINE
  8
0
 10
-6.65567
 20
0.535812
 11
-6.62369
 21
0.48175
  0
LINE
  8
0
 10
-6.62369
 20
0.48175
 11
-6.59517
 21
0.425766
  0
LINE
  8
0
 10
-6.59517
 20
0.425766
 11
-6.57022
 21
0.368118
  0
LINE
  8
0
 10
-6.57022
 20
0.368118
 11
-6.54893
 21
0.309006
  0
LINE
  8
0
 10
-6.54893
 20
0.309006
 11
-6.5314
 21
0.248688
  0
LINE
  8
0
 10
-6.5314
 20
0.248688
 11
-6.5177
 21
0.187378
  0
LINE
  8
0
 10
-6.5177
 20
0.187378
 11
-6.50787
 21
0.12532
  0
LINE
  8
0
 10
-6.50787
 20
0.12532
 11
-6.50197
 21
0.0627899
  0
LINE
  8
0
 10
-6.50197
 20
0.0627899
 11
-6.5
 21
0
  0
LINE
  8
0
 10
-6.5
 20
0
 11
-6.50197
 21
-0.0627899
  0
LINE
  8
0
 10
-6.50197
 20
-0.0627899
 11
-6.50787
 21
-0.12532
  0
LINE
  8
0
 10
-6.50787
 20
-0.12532
 11
-6.5177
 21
-0.187378
  0
LINE
  8
0
 10
-6.5177
 20
-0.187378
 11
-6.5314
 21
-0.248688
  0
LINE
  8
0
 10
-6.5314
 20
-0.248688
 11
-6.54893
 21
-0.309006
  0
LINE
  8
0
 10
-6.54893
 20
-0.309006
 11
-6.57022
 21
-0.368118
  0
LINE
  8
0
 10
-6.57022
 20
-0.368118
 11
-6.59517
 21
-0.425766
  0
LINE
  8
0
 10
-6.59517
 20
-0.425766
 11
-6.62369
 21
-0.48175
  0
LINE
  8
0
 10
-6.62369
 20
-0.48175
 11
-6.65567
 21
-0.535812
  0
LINE
  8
0
 10
-6.65567
 20
-0.535812
 11
-6.69098
 21
-0.587784
  0
LINE
  8
0
 10
-6.69098
 20
-0.587784
 11
-6.72948
 21
-0.637421
  0
LINE
  8
0
 10
-6.72948
 20
-0.637421
 11
-6.77103
 21
-0.68454
  0
LINE
  8
0
 10
-6.77103
 20
-0.68454
 11
-6.81544
 21
-0.728958
  0
LINE
  8
0
 10
-6.81544
 20
-0.728958
 11
-6.86256
 21
-0.770508
  0
LINE
  8
0
 10
-6.86256
 20
-0.770508
 11
-6.9122
 21
-0.809006
  0
LINE
  8
0
 10
-6.9122
 20
-0.809006
 11
-6.96417
 21
-0.844315
  0
LINE
  8
0
 10
-6.96417
 20
-0.844315
 11
-7.01823
 21
-0.876297
  0
LINE
  8
0
 10
-7.01823
 20
-0.876297
 11
-7.07422
 21
-0.904816
  0
LINE
  8
0
 10
-7.07422
 20
-0.904816
 11
-7.13187
 21
-0.929764
  0
LINE
  8
0
 10
-7.13187
 20
-0.929764
 11
-7.19098
 21
-0.95105
  0
LINE
  8
0
 10
-7.19098
 20
-0.95105
 11
-7.2513
 21
-0.968582
  0
LINE
  8
0
 10
-7.2513
 20
-0.968582
 11
-7.31261
 21
-0.982285
  0
LINE
  8
0
 10
-7.31261
 20
-0.982285
 11
-7.37466
 21
-0.992111
  0
LINE
  8
0
 10
-7.37466
 20
-0.992111
 11
-7.43719
 21
-0.998016
  0
LINE
  8
0
 10
-7.43719
 20
-0.998016
 11
-7.5
 21
-1
  0
LINE
  8
0
 10
-7.5
 20
-1
 11
-7.56279
 21
-0.998016
  0
LINE
  8
0
 10
7.43719
 20
-0.998016
 11
7.37466
 21
-0.992111
  0
LINE
  8
0
 10
7.37466
 20
-0.992111
 11
7.31261
 21
-0.982285
  0
LINE
  8
0
 10
7.31261
 20
-0.982285
 11
7.2513
 21
-0.968582
  0
LINE
  8
0
 10
7.2513
 20
-0.968582
 11
7.19098
 21
-0.95105
  0
LINE
  8
0
 10
7.19098
 20
-0.95105
 11
7.13187
 21
-0.929764
  0
LINE
  8
0
 10
7.13187
 20
-0.929764
 11
7.07422
 21
-0.904816
  0
LINE
  8
0
 10
7.07422
 20
-0.904816
 11
7.01823
 21
-0.876297
  0
LINE
  8
0
 10
7.01823
 20
-0.876297
 11
6.96417
 21
-0.844315
  0
LINE
  8
0
 10
6.96417
 20
-0.844315
 11
6.9122
 21
-0.809006
  0
LINE
  8
0
 10
6.9122
 20
-0.809006
 11
6.86256
 21
-0.770508
  0
LINE
  8
0
 10
6.86256
 20
-0.770508
 11
6.81544
 21
-0.728958
  0
LINE
  8
0
 10
6.81544
 20
-0.728958
 11
6.77103
 21
-0.68454
  0
LINE
  8
0
 10
6.77103
 20
-0.68454
 11
6.72948
 21
-0.637421
  0
LINE
  8
0
 10
6.72948
 20
-0.637421
 11
6.69098
 21
-0.587784
  0
LINE
  8
0
 10
6.69098
 20
-0.587784
 11
6.65567
 21
-0.535812
  0
LINE
  8
0
 10
6.65567
 20
-0.535812
 11
6.62369
 21
-0.48175
  0
LINE
  8
0
 10
6.62369
 20
-0.48175
 11
6.59517
 21
-0.425766
  0
LINE
  8
0
 10
6.59517
 20
-0.425766
 11
6.57022
 21
-0.368118
  0
LINE
  8
0
 10
6.57022
 20
-0.368118
 11
6.54893
 21
-0.309006
  0
LINE
  8
0
 10
6.54893
 20
-0.309006
 11
6.5314
 21
-0.248688
  0
LINE
  8
0
 10
6.5314
 20
-0.248688
 11
6.5177
 21
-0.187378
  0
LINE
  8
0
 10
6.5177
 20
-0.187378
 11
6.50787
 21
-0.12532
  0
LINE
  8
0
 10
6.50787
 20
-0.12532
 11
6.50197
 21
-0.0627899
  0
LINE
  8
0
 10
6.50197
 20
-0.0627899
 11
6.5
 21
0
  0
LINE
  8
0
 10
6.5
 20
0
 11
6.50197
 21
0.0627899
  0
LINE
  8
0
 10
6.50197
 20
0.0627899
 11
6.50787
 21
0.12532
  0
LINE
  8
0
 10
6.50787
 20
0.12532
 11
6.5177
 21
0.187378
  0
LINE
  8
0
 10
6.5177
 20
0.187378
 11
6.5314
 21
0.248688
  0
LINE
  8
0
 10
6.5314
 20
0.248688
 11
6.54893
 21
0.309006
  0
LINE
  8
0
 10
6.54893
 20
0.309006
 11
6.57022
 21
0.368118
  0
LINE
  8
0
 10
6.57022
 20
0.368118
 11
6.59517
 21
0.425766
  0
LINE
  8
0
 10
6.59517
 20
0.425766
 11
6.62369
 21
0.48175
  0
LINE
  8
0
 10
6.62369
 20
0.48175
 11
6.65567
 21
0.535812
  0
LINE
  8
0
 10
6.65567
 20
0.535812
 11
6.69098
 21
0.587784
  0
LINE
  8
0
 10
6.69098
 20
0.587784
 11
6.72948
 21
0.637421
  0
LINE
  8
0
 10
6.72948
 20
0.637421
 11
6.77103
 21
0.68454
  0
LINE
  8
0
 10
6.77103
 20
0.68454
 11
6.81544
 21
0.728958
  0
LINE
  8
0
 10
6.81544
 20
0.728958
 11
6.86256
 21
0.770508
  0
LINE
  8
0
 10
6.86256
 20
0.770508
 11
6.9122
 21
0.809006
  0
LINE
  8
0
 10
6.9122
 20
0.809006
 11
6.96417
 21
0.844315
  0
LINE
  8
0
 10
6.96417
 20
0.844315
 11
7.01823
 21
0.876297
  0
LINE
  8
0
 10
7.01823
 20
0.876297
 11
7.07422
 21
0.904816
  0
LINE
  8
0
 10
7.07422
 20
0.904816
 11
7.13187
 21
0.929764
  0
LINE
  8
0
 10
7.13187
 20
0.929764
 11
7.19098
 21
0.95105
  0
LINE
  8
0
 10
7.19098
 20
0.95105
 11
7.2513
 21
0.968582
  0
LINE
  8
0
 10
7.2513
 20
0.968582
 11
7.31261
 21
0.982285
  0
LINE
  8
0
 10
7.31261
 20
0.982285
 11
7.37466
 21
0.992111
  0
LINE
  8
0
 10
7.37466
 20
0.992111
 11
7.43719
 21
0.998016
  0
LINE
  8
0
 10
7.43719
 20
0.998016
 11
7.5
 21
1
  0
LINE
  8
0
 10
7.5
 20
1
 11
7.56279
 21
0.998016
  0
LINE
  8
0
 10
7.56279
 20
0.998016
 11
7.62532
 21
0.992111
  0
LINE
  8
0
 10
7.62532
 20
0.992111
 11
7.68738
 21
0.982285
  0
LINE
  8
0
 10
7.68738
 20
0.982285
 11
7.74869
 21
0.968582
  0
LINE
  8
0
 10
7.74869
 20
0.968582
 11
7.80901
 21
0.95105
  0
LINE
  8
0
 10
7.80901
 20
0.95105
 11
7.86812
 21
0.929764
  0
LINE
  8
0
 10
7.86812
 20
0.929764
 11
7.92577
 21
0.904816
  0
LINE
  8
0
 10
7.92577
 20
0.904816
 11
7.98175
 21
0.876297
  0
LINE
  8
0
 10
7.98175
 20
0.876297
 11
8.03581
 21
0.844315
  0
LINE
  8
0
 10
8.03581
 20
0.844315
 11
8.08778
 21
0.809006
  0
LINE
  8
0
 10
8.08778
 20
0.809006
 11
8.13742
 21
0.770508
  0
LINE
  8
0
 10
8.13742
 20
0.770508
 11
8.18454
 21
0.728958
  0
LINE
  8
0
 10
8.18454
 20
0.728958
 11
8.22896
 21
0.68454
  0
LINE
  8
0
 10
8.22896
 20
0.68454
 11
8.27051
 21
0.637421
  0
LINE
  8
0
 10
8.27051
 20
0.637421
 11
8.30901
 21
0.587784
  0
LINE
  8
0
 10
8.30901
 20
0.587784
 11
8.34431
 21
0.535812
  0
LINE
  8
0
 10
8.34431
 20
0.535812
 11
8.3763
 21
0.48175
  0
LINE
  8
0
 10
8.3763
 20
0.48175
 11
8.40482
 21
0.425766
  0
LINE
  8
0
 10
8.40482
 20
0.425766
 11
8.42976
 21
0.368118
  0
LINE
  8
0
 10
8.42976
 20
0.368118
 11
8.45105
 21
0.309006
  0
LINE
  8
0
 10
8.45105
 20
0.309006
 11
8.46858
 21
0.248688
  0
LINE
  8
0
 10
8.46858
 20
0.248688
 11
8.48228
 21
0.187378
  0
LINE
  8
0
 10
8.48228
 20
0.187378
 11
8.49211
 21
0.12532
  0
LINE
  8
0
 10
8.49211
 20
0.12532
 11
8.49802
 21
0.0627899
  0
LINE
  8
0
 10
8.49802
 20
0.0627899
 11
8.5
 21
0
  0
LINE
  8
0
 10
8.5
 20
0
 11
8.49802
 21
-0.0627899
  0
LINE
  8
0
 10
8.49802
 20
-0.0627899
 11
8.49211
 21
-0.12532
  0
LINE
  8
0
 10
8.49211
 20
-0.12532
 11
8.48228
 21
-0.187378
  0
LINE
  8
0
 10
8.48228
 20
-0.187378
 11
8.46858
 21
-0.248688
  0
LINE
  8
0
 10
8.46858
 20
-0.248688
 11
8.45105
 21
-0.309006
  0
LINE
  8
0
 10
8.45105
 20
-0.309006
 11
8.42976
 21
-0.368118
  0
LINE
  8
0
 10
8.42976
 20
-0.368118
 11
8.40482
 21
-0.425766
  0
LINE
  8
0
 10
8.40482
 20
-0.425766
 11
8.3763
 21
-0.48175
  0
LINE
  8
0
 10
8.3763
 20
-0.48175
 11
8.34431
 21
-0.535812
  0
LINE
  8
0
 10
8.34431
 20
-0.535812
 11
8.30901
 21
-0.587784
  0
LINE
  8
0
 10
8.30901
 20
-0.587784
 11
8.27051
 21
-0.637421
  0
LINE
  8
0
 10
8.27051
 20
-0.637421
 11
8.22896
 21
-0.68454
  0
LINE
  8
0
 10
8.22896
 20
-0.68454
 11
8.18454
 21
-0.728958
  0
LINE
  8
0
 10
8.18454
 20
-0.728958
 11
8.13742
 21
-0.770508
  0
LINE
  8
0
 10
8.13742
 20
-0.770508
 11
8.08778
 21
-0.809006
  0
LINE
  8
0
 10
8.08778
 20
-0.809006
 11
8.03581
 21
-0.844315
  0
LINE
  8
0
 10
8.03581
 20
-0.844315
 11
7.98175
 21
-0.876297
  0
LINE
  8
0
 10
7.98175
 20
-0.876297
 11
7.92577
 21
-0.904816
  0
LINE
  8
0
 10
7.92577
 20
-0.904816
 11
7.86812
 21
-0.929764
  0
LINE
  8
0
 10
7.86812
 20
-0.929764
 11
7.80901
 21
-0.95105
  0
LINE
  8
0
 10
7.80901
 20
-0.95105
 11
7.74869
 21
-0.968582
  0
LINE
  8
0
 10
7.74869
 20
-0.968582
 11
7.68738
 21
-0.982285
  0
LINE
  8
0
 10
7.68738
 20
-0.982285
 11
7.62532
 21
-0.992111
  0
LINE
  8
0
 10
7.62532
 20
-0.992111
 11
7.56279
 21
-0.998016
  0
LINE
  8
0
 10
7.56279
 20
-0.998016
 11
7.5
 21
-1
  0
LINE
  8
0
 10
7.5
 20
-1
 11
7.43719
 21
-0.998016
  0
ENDSEC
  0
SECTION
  2
OBJECTS
  0
DICTIONARY
  0
ENDSEC
  0
EOF
