  0
SECTION
  2
BLOCKS
  0
ENDSEC
  0
SECTION
  2
ENTITIES
  0
LINE
  8
0
 10
22.5
 20
18.5
 11
22.5
 21
21.5
  0
LINE
  8
0
 10
22.5
 20
21.5
 11
-22.5
 21
21.5
  0
LINE
  8
0
 10
-22.5
 20
21.5
 11
-22.5
 21
18.5
  0
LINE
  8
0
 10
-22.5
 20
18.5
 11
-25.5
 21
18.5
  0
LINE
  8
0
 10
-25.5
 20
18.5
 11
-25.5
 21
11.5
  0
LINE
  8
0
 10
-25.5
 20
11.5
 11
-22.5
 21
11.5
  0
LINE
  8
0
 10
-22.5
 20
11.5
 11
-22.5
 21
8.5
  0
LINE
  8
0
 10
-22.5
 20
8.5
 11
-25.5
 21
8.5
  0
LINE
  8
0
 10
-25.5
 20
8.5
 11
-25.5
 21
-8.5
  0
LINE
  8
0
 10
-25.5
 20
-8.5
 11
-22.5
 21
-8.5
  0
LINE
  8
0
 10
-22.5
 20
-8.5
 11
-22.5
 21
-11.5
  0
LINE
  8
0
 10
-22.5
 20
-11.5
 11
-25.5
 21
-11.5
  0
LINE
  8
0
 10
-25.5
 20
-11.5
 11
-25.5
 21
-18.5
  0
LINE
  8
0
 10
-25.5
 20
-18.5
 11
-22.5
 21
-18.5
  0
LINE
  8
0
 10
-22.5
 20
-18.5
 11
-22.5
 21
-21.5
  0
LINE
  8
0
 10
-22.5
 20
-21.5
 11
22.5
 21
-21.5
  0
LINE
  8
0
 10
22.5
 20
-21.5
 11
22.5
 21
-18.5
  0
LINE
  8
0
 10
22.5
 20
-18.5
 11
25.5
 21
-18.5
  0
LINE
  8
0
 10
25.5
 20
-18.5
 11
25.5
 21
-11.5
  0
LINE
  8
0
 10
25.5
 20
-11.5
 11
22.5
 21
-11.5
  0
LINE
  8
0
 10
22.5
 20
-11.5
 11
22.5
 21
-8.5
  0
LINE
  8
0
 10
22.5
 20
-8.5
 11
25.5
 21
-8.5
  0
LINE
  8
0
 10
25.5
 20
-8.5
 11
25.5
 21
8.5
  0
LINE
  8
0
 10
25.5
 20
8.5
 11
22.5
 21
8.5
  0
LINE
  8
0
 10
22.5
 20
8.5
 11
22.5
 21
11.5
  0
LINE
  8
0
 10
22.5
 20
11.5
 11
25.5
 21
11.5
  0
LINE
  8
0
 10
25.5
 20
11.5
 11
25.5
 21
18.5
  0
LINE
  8
0
 10
25.5
 20
18.5
 11
22.5
 21
18.5
  0
LINE
  8
0
 10
-2.5
 20
16
 11
-2.5
 21
18
  0
LINE
  8
0
 10
-2.5
 20
18
 11
2.5
 21
18
  0
LINE
  8
0
 10
2.5
 20
18
 11
2.5
 21
16
  0
LINE
  8
0
 10
2.5
 20
16
 11
-2.5
 21
16
  0
LINE
  8
0
 10
-0.0941772
 20
-1.49704
 11
-0.281067
 21
-1.47342
  0
LINE
  8
0
 10
-0.281067
 20
-1.47342
 11
-0.463516
 21
-1.42657
  0
LINE
  8
0
 10
-0.463516
 20
-1.42657
 11
-0.638657
 21
-1.35724
  0
LINE
  8
0
 10
-0.638657
 20
-1.35724
 11
-0.803726
 21
-1.26648
  0
LINE
  8
0
 10
-0.803726
 20
-1.26648
 11
-0.956131
 21
-1.15576
  0
LINE
  8
0
 10
-0.956131
 20
-1.15576
 11
-1.09344
 21
-1.02681
  0
LINE
  8
0
 10
-1.09344
 20
-1.02681
 11
-1.21352
 21
-0.881668
  0
LINE
  8
0
 10
-1.21352
 20
-0.881668
 11
-1.31445
 21
-0.722626
  0
LINE
  8
0
 10
-1.31445
 20
-0.722626
 11
-1.39465
 21
-0.552185
  0
LINE
  8
0
 10
-1.39465
 20
-0.552185
 11
-1.45287
 21
-0.373032
  0
LINE
  8
0
 10
-1.45287
 20
-0.373032
 11
-1.48816
 21
-0.187988
  0
LINE
  8
0
 10
-1.48816
 20
-0.187988
 11
-1.5
 21
0
  0
LINE
  8
0
 10
-1.5
 20
0
 11
-1.48816
 21
0.187988
  0
LINE
  8
0
 10
-1.48816
 20
0.187988
 11
-1.45287
 21
0.373032
  0
LINE
  8
0
 10
-1.45287
 20
0.373032
 11
-1.39465
 21
0.552185
  0
LINE
  8
0
 10
-1.39465
 20
0.552185
 11
-1.31445
 21
0.722626
  0
LINE
  8
0
 10
-1.31445
 20
0.722626
 11
-1.21352
 21
0.881668
  0
LINE
  8
0
 10
-1.21352
 20
0.881668
 11
-1.09344
 21
1.02681
  0
LINE
  8
0
 10
-1.09344
 20
1.02681
 11
-0.956131
 21
1.15576
  0
LINE
  8
0
 10
-0.956131
 20
1.15576
 11
-0.803726
 21
1.26648
  0
LINE
  8
0
 10
-0.803726
 20
1.26648
 11
-0.638657
 21
1.35724
  0
LINE
  8
0
 10
-0.638657
 20
1.35724
 11
-0.463516
 21
1.42657
  0
LINE
  8
0
 10
-0.463516
 20
1.42657
 11
-0.281067
 21
1.47342
  0
LINE
  8
0
 10
-0.281067
 20
1.47342
 11
-0.0941772
 21
1.49704
  0
LINE
  8
0
 10
-0.0941772
 20
1.49704
 11
0.0941772
 21
1.49704
  0
LINE
  8
0
 10
0.0941772
 20
1.49704
 11
0.281067
 21
1.47342
  0
LINE
  8
0
 10
0.281067
 20
1.47342
 11
0.463516
 21
1.42657
  0
LINE
  8
0
 10
0.463516
 20
1.42657
 11
0.638657
 21
1.35724
  0
LINE
  8
0
 10
0.638657
 20
1.35724
 11
0.803726
 21
1.26648
  0
LINE
  8
0
 10
0.803726
 20
1.26648
 11
0.956131
 21
1.15576
  0
LINE
  8
0
 10
0.956131
 20
1.15576
 11
1.09344
 21
1.02681
  0
LINE
  8
0
 10
1.09344
 20
1.02681
 11
1.21352
 21
0.881668
  0
LINE
  8
0
 10
1.21352
 20
0.881668
 11
1.31445
 21
0.722626
  0
LINE
  8
0
 10
1.31445
 20
0.722626
 11
1.39465
 21
0.552185
  0
LINE
  8
0
 10
1.39465
 20
0.552185
 11
1.45287
 21
0.373032
  0
LINE
  8
0
 10
1.45287
 20
0.373032
 11
1.48816
 21
0.187988
  0
LINE
  8
0
 10
1.48816
 20
0.187988
 11
1.5
 21
0
  0
LINE
  8
0
 10
1.5
 20
0
 11
1.48816
 21
-0.187988
  0
LINE
  8
0
 10
1.48816
 20
-0.187988
 11
1.45287
 21
-0.373032
  0
LINE
  8
0
 10
1.45287
 20
-0.373032
 11
1.39465
 21
-0.552185
  0
LINE
  8
0
 10
1.39465
 20
-0.552185
 11
1.31445
 21
-0.722626
  0
LINE
  8
0
 10
1.31445
 20
-0.722626
 11
1.21352
 21
-0.881668
  0
LINE
  8
0
 10
1.21352
 20
-0.881668
 11
1.09344
 21
-1.02681
  0
LINE
  8
0
 10
1.09344
 20
-1.02681
 11
0.956131
 21
-1.15576
  0
LINE
  8
0
 10
0.956131
 20
-1.15576
 11
0.803726
 21
-1.26648
  0
LINE
  8
0
 10
0.803726
 20
-1.26648
 11
0.638657
 21
-1.35724
  0
LINE
  8
0
 10
0.638657
 20
-1.35724
 11
0.463516
 21
-1.42657
  0
LINE
  8
0
 10
0.463516
 20
-1.42657
 11
0.281067
 21
-1.47342
  0
LINE
  8
0
 10
0.281067
 20
-1.47342
 11
0.0941772
 21
-1.49704
  0
LINE
  8
0
 10
0.0941772
 20
-1.49704
 11
-0.0941772
 21
-1.49704
  0
ENDSEC
  0
SECTION
  2
OBJECTS
  0
DICTIONARY
  0
ENDSEC
  0
EOF
