  0
SECTION
  2
BLOCKS
  0
ENDSEC
  0
SECTION
  2
ENTITIES
  0
LINE
  8
0
 10
22.5
 20
18.5
 11
22.5
 21
21.5
  0
LINE
  8
0
 10
22.5
 20
21.5
 11
-22.5
 21
21.5
  0
LINE
  8
0
 10
-22.5
 20
21.5
 11
-22.5
 21
18.5
  0
LINE
  8
0
 10
-22.5
 20
18.5
 11
-25.5
 21
18.5
  0
LINE
  8
0
 10
-25.5
 20
18.5
 11
-25.5
 21
11.5
  0
LINE
  8
0
 10
-25.5
 20
11.5
 11
-22.5
 21
11.5
  0
LINE
  8
0
 10
-22.5
 20
11.5
 11
-22.5
 21
8.5
  0
LINE
  8
0
 10
-22.5
 20
8.5
 11
-25.5
 21
8.5
  0
LINE
  8
0
 10
-25.5
 20
8.5
 11
-25.5
 21
-8.5
  0
LINE
  8
0
 10
-25.5
 20
-8.5
 11
-22.5
 21
-8.5
  0
LINE
  8
0
 10
-22.5
 20
-8.5
 11
-22.5
 21
-11.5
  0
LINE
  8
0
 10
-22.5
 20
-11.5
 11
-25.5
 21
-11.5
  0
LINE
  8
0
 10
-25.5
 20
-11.5
 11
-25.5
 21
-18.5
  0
LINE
  8
0
 10
-25.5
 20
-18.5
 11
-22.5
 21
-18.5
  0
LINE
  8
0
 10
-22.5
 20
-18.5
 11
-22.5
 21
-21.5
  0
LINE
  8
0
 10
-22.5
 20
-21.5
 11
22.5
 21
-21.5
  0
LINE
  8
0
 10
22.5
 20
-21.5
 11
22.5
 21
-18.5
  0
LINE
  8
0
 10
22.5
 20
-18.5
 11
25.5
 21
-18.5
  0
LINE
  8
0
 10
25.5
 20
-18.5
 11
25.5
 21
-11.5
  0
LINE
  8
0
 10
25.5
 20
-11.5
 11
22.5
 21
-11.5
  0
LINE
  8
0
 10
22.5
 20
-11.5
 11
22.5
 21
-8.5
  0
LINE
  8
0
 10
22.5
 20
-8.5
 11
25.5
 21
-8.5
  0
LINE
  8
0
 10
25.5
 20
-8.5
 11
25.5
 21
8.5
  0
LINE
  8
0
 10
25.5
 20
8.5
 11
22.5
 21
8.5
  0
LINE
  8
0
 10
22.5
 20
8.5
 11
22.5
 21
11.5
  0
LINE
  8
0
 10
22.5
 20
11.5
 11
25.5
 21
11.5
  0
LINE
  8
0
 10
25.5
 20
11.5
 11
25.5
 21
18.5
  0
LINE
  8
0
 10
25.5
 20
18.5
 11
22.5
 21
18.5
  0
LINE
  8
0
 10
-2.5
 20
16
 11
-2.5
 21
18
  0
LINE
  8
0
 10
-2.5
 20
18
 11
2.5
 21
18
  0
LINE
  8
0
 10
2.5
 20
18
 11
2.5
 21
16
  0
LINE
  8
0
 10
2.5
 20
16
 11
-2.5
 21
16
  0
ENDSEC
  0
SECTION
  2
OBJECTS
  0
DICTIONARY
  0
ENDSEC
  0
EOF
