  0
SECTION
  2
BLOCKS
  0
ENDSEC
  0
SECTION
  2
ENTITIES
  0
LINE
  8
0
 10
21.5
 20
-21.5
 11
21.5
 21
-18.5
  0
LINE
  8
0
 10
21.5
 20
-18.5
 11
18.5
 21
-18.5
  0
LINE
  8
0
 10
18.5
 20
-18.5
 11
18.5
 21
18.5
  0
LINE
  8
0
 10
18.5
 20
18.5
 11
21.5
 21
18.5
  0
LINE
  8
0
 10
21.5
 20
18.5
 11
21.5
 21
21.5
  0
LINE
  8
0
 10
21.5
 20
21.5
 11
18.5
 21
21.5
  0
LINE
  8
0
 10
18.5
 20
21.5
 11
18.5
 21
48.5
  0
LINE
  8
0
 10
18.5
 20
48.5
 11
21.5
 21
48.5
  0
LINE
  8
0
 10
21.5
 20
48.5
 11
21.5
 21
51.5
  0
LINE
  8
0
 10
21.5
 20
51.5
 11
18.5
 21
51.5
  0
LINE
  8
0
 10
18.5
 20
51.5
 11
18.5
 21
63
  0
LINE
  8
0
 10
18.5
 20
63
 11
11.5
 21
63
  0
LINE
  8
0
 10
11.5
 20
63
 11
11.5
 21
66
  0
LINE
  8
0
 10
11.5
 20
66
 11
8.5
 21
66
  0
LINE
  8
0
 10
8.5
 20
66
 11
8.5
 21
63
  0
LINE
  8
0
 10
8.5
 20
63
 11
-8.5
 21
63
  0
LINE
  8
0
 10
-8.5
 20
63
 11
-8.5
 21
66
  0
LINE
  8
0
 10
-8.5
 20
66
 11
-11.5
 21
66
  0
LINE
  8
0
 10
-11.5
 20
66
 11
-11.5
 21
63
  0
LINE
  8
0
 10
-11.5
 20
63
 11
-18.5
 21
63
  0
LINE
  8
0
 10
-18.5
 20
63
 11
-18.5
 21
51.5
  0
LINE
  8
0
 10
-18.5
 20
51.5
 11
-21.5
 21
51.5
  0
LINE
  8
0
 10
-21.5
 20
51.5
 11
-21.5
 21
48.5
  0
LINE
  8
0
 10
-21.5
 20
48.5
 11
-18.5
 21
48.5
  0
LINE
  8
0
 10
-18.5
 20
48.5
 11
-18.5
 21
21.5
  0
LINE
  8
0
 10
-18.5
 20
21.5
 11
-21.5
 21
21.5
  0
LINE
  8
0
 10
-21.5
 20
21.5
 11
-21.5
 21
18.5
  0
LINE
  8
0
 10
-21.5
 20
18.5
 11
-18.5
 21
18.5
  0
LINE
  8
0
 10
-18.5
 20
18.5
 11
-18.5
 21
-18.5
  0
LINE
  8
0
 10
-18.5
 20
-18.5
 11
-21.5
 21
-18.5
  0
LINE
  8
0
 10
-21.5
 20
-18.5
 11
-21.5
 21
-21.5
  0
LINE
  8
0
 10
-21.5
 20
-21.5
 11
-18.5
 21
-21.5
  0
LINE
  8
0
 10
-18.5
 20
-21.5
 11
-18.5
 21
-48.5
  0
LINE
  8
0
 10
-18.5
 20
-48.5
 11
-21.5
 21
-48.5
  0
LINE
  8
0
 10
-21.5
 20
-48.5
 11
-21.5
 21
-51.5
  0
LINE
  8
0
 10
-21.5
 20
-51.5
 11
-18.5
 21
-51.5
  0
LINE
  8
0
 10
-18.5
 20
-51.5
 11
-18.5
 21
-63
  0
LINE
  8
0
 10
-18.5
 20
-63
 11
-11.5
 21
-63
  0
LINE
  8
0
 10
-11.5
 20
-63
 11
-11.5
 21
-66
  0
LINE
  8
0
 10
-11.5
 20
-66
 11
-8.5
 21
-66
  0
LINE
  8
0
 10
-8.5
 20
-66
 11
-8.5
 21
-63
  0
LINE
  8
0
 10
-8.5
 20
-63
 11
8.5
 21
-63
  0
LINE
  8
0
 10
8.5
 20
-63
 11
8.5
 21
-66
  0
LINE
  8
0
 10
8.5
 20
-66
 11
11.5
 21
-66
  0
LINE
  8
0
 10
11.5
 20
-66
 11
11.5
 21
-63
  0
LINE
  8
0
 10
11.5
 20
-63
 11
18.5
 21
-63
  0
LINE
  8
0
 10
18.5
 20
-63
 11
18.5
 21
-51.5
  0
LINE
  8
0
 10
18.5
 20
-51.5
 11
21.5
 21
-51.5
  0
LINE
  8
0
 10
21.5
 20
-51.5
 11
21.5
 21
-48.5
  0
LINE
  8
0
 10
21.5
 20
-48.5
 11
18.5
 21
-48.5
  0
LINE
  8
0
 10
18.5
 20
-48.5
 11
18.5
 21
-21.5
  0
LINE
  8
0
 10
18.5
 20
-21.5
 11
21.5
 21
-21.5
  0
ENDSEC
  0
SECTION
  2
OBJECTS
  0
DICTIONARY
  0
ENDSEC
  0
EOF
