  0
SECTION
  2
BLOCKS
  0
ENDSEC
  0
SECTION
  2
ENTITIES
  0
LINE
  8
0
 10
4.75948
 20
-24.9501
 11
7.84903
 21
-24.1568
  0
LINE
  8
0
 10
7.84903
 20
-24.1568
 11
10.8148
 21
-22.9826
  0
LINE
  8
0
 10
10.8148
 20
-22.9826
 11
13.61
 21
-21.4459
  0
LINE
  8
0
 10
13.61
 20
-21.4459
 11
16.1906
 21
-19.571
  0
LINE
  8
0
 10
16.1906
 20
-19.571
 11
18.5158
 21
-17.3875
  0
LINE
  8
0
 10
18.5158
 20
-17.3875
 11
20.549
 21
-14.9297
  0
LINE
  8
0
 10
20.549
 20
-14.9297
 11
22.2582
 21
-12.2365
  0
LINE
  8
0
 10
22.2582
 20
-12.2365
 11
23.6163
 21
-9.35036
  0
LINE
  8
0
 10
23.6163
 20
-9.35036
 11
24.602
 21
-6.31671
  0
LINE
  8
0
 10
24.602
 20
-6.31671
 11
25.1997
 21
-3.18346
  0
LINE
  8
0
 10
25.1997
 20
-3.18346
 11
25.3937
 21
-0.0999908
  0
LINE
  8
0
 10
25.3937
 20
-0.0999908
 11
1.99371
 21
-0.0999908
  0
LINE
  8
0
 10
1.99371
 20
-0.0999908
 11
1.98422
 21
-0.250656
  0
LINE
  8
0
 10
1.98422
 20
-0.250656
 11
1.93716
 21
-0.497375
  0
LINE
  8
0
 10
1.93716
 20
-0.497375
 11
1.85954
 21
-0.736237
  0
LINE
  8
0
 10
1.85954
 20
-0.736237
 11
1.75261
 21
-0.963501
  0
LINE
  8
0
 10
1.75261
 20
-0.963501
 11
1.61803
 21
-1.17557
  0
LINE
  8
0
 10
1.61803
 20
-1.17557
 11
1.45793
 21
-1.36908
  0
LINE
  8
0
 10
1.45793
 20
-1.36908
 11
1.27484
 21
-1.54102
  0
LINE
  8
0
 10
1.27484
 20
-1.54102
 11
1.07164
 21
-1.68864
  0
LINE
  8
0
 10
1.07164
 20
-1.68864
 11
0.851547
 21
-1.80965
  0
LINE
  8
0
 10
0.851547
 20
-1.80965
 11
0.618027
 21
-1.9021
  0
LINE
  8
0
 10
0.618027
 20
-1.9021
 11
0.374756
 21
-1.96457
  0
LINE
  8
0
 10
0.374756
 20
-1.96457
 11
0.12558
 21
-1.99605
  0
LINE
  8
0
 10
0.12558
 20
-1.99605
 11
-0.12558
 21
-1.99605
  0
LINE
  8
0
 10
-0.12558
 20
-1.99605
 11
-0.374756
 21
-1.96457
  0
LINE
  8
0
 10
-0.374756
 20
-1.96457
 11
-0.618027
 21
-1.9021
  0
LINE
  8
0
 10
-0.618027
 20
-1.9021
 11
-0.851547
 21
-1.80965
  0
LINE
  8
0
 10
-0.851547
 20
-1.80965
 11
-1.07164
 21
-1.68864
  0
LINE
  8
0
 10
-1.07164
 20
-1.68864
 11
-1.27484
 21
-1.54102
  0
LINE
  8
0
 10
-1.27484
 20
-1.54102
 11
-1.45793
 21
-1.36908
  0
LINE
  8
0
 10
-1.45793
 20
-1.36908
 11
-1.61803
 21
-1.17557
  0
LINE
  8
0
 10
-1.61803
 20
-1.17557
 11
-1.75261
 21
-0.963501
  0
LINE
  8
0
 10
-1.75261
 20
-0.963501
 11
-1.85954
 21
-0.736237
  0
LINE
  8
0
 10
-1.85954
 20
-0.736237
 11
-1.93716
 21
-0.497375
  0
LINE
  8
0
 10
-1.93716
 20
-0.497375
 11
-1.98422
 21
-0.250656
  0
LINE
  8
0
 10
-1.98422
 20
-0.250656
 11
-2
 21
0
  0
LINE
  8
0
 10
-2
 20
0
 11
-1.98422
 21
0.250656
  0
LINE
  8
0
 10
-1.98422
 20
0.250656
 11
-1.93716
 21
0.497375
  0
LINE
  8
0
 10
-1.93716
 20
0.497375
 11
-1.85954
 21
0.736237
  0
LINE
  8
0
 10
-1.85954
 20
0.736237
 11
-1.75261
 21
0.963501
  0
LINE
  8
0
 10
-1.75261
 20
0.963501
 11
-1.61803
 21
1.17557
  0
LINE
  8
0
 10
-1.61803
 20
1.17557
 11
-1.45793
 21
1.36908
  0
LINE
  8
0
 10
-1.45793
 20
1.36908
 11
-1.27484
 21
1.54102
  0
LINE
  8
0
 10
-1.27484
 20
1.54102
 11
-1.07164
 21
1.68864
  0
LINE
  8
0
 10
-1.07164
 20
1.68864
 11
-0.851547
 21
1.80965
  0
LINE
  8
0
 10
-0.851547
 20
1.80965
 11
-0.618027
 21
1.9021
  0
LINE
  8
0
 10
-0.618027
 20
1.9021
 11
-0.374756
 21
1.96457
  0
LINE
  8
0
 10
-0.374756
 20
1.96457
 11
-0.12558
 21
1.99605
  0
LINE
  8
0
 10
-0.12558
 20
1.99605
 11
0.12558
 21
1.99605
  0
LINE
  8
0
 10
0.12558
 20
1.99605
 11
0.374756
 21
1.96457
  0
LINE
  8
0
 10
0.374756
 20
1.96457
 11
0.618027
 21
1.9021
  0
LINE
  8
0
 10
0.618027
 20
1.9021
 11
0.851547
 21
1.80965
  0
LINE
  8
0
 10
0.851547
 20
1.80965
 11
1.07164
 21
1.68864
  0
LINE
  8
0
 10
1.07164
 20
1.68864
 11
1.27484
 21
1.54102
  0
LINE
  8
0
 10
1.27484
 20
1.54102
 11
1.45793
 21
1.36908
  0
LINE
  8
0
 10
1.45793
 20
1.36908
 11
1.61803
 21
1.17557
  0
LINE
  8
0
 10
1.61803
 20
1.17557
 11
1.75261
 21
0.963501
  0
LINE
  8
0
 10
1.75261
 20
0.963501
 11
1.85954
 21
0.736237
  0
LINE
  8
0
 10
1.85954
 20
0.736237
 11
1.93716
 21
0.497375
  0
LINE
  8
0
 10
1.93716
 20
0.497375
 11
1.98422
 21
0.250656
  0
LINE
  8
0
 10
1.98422
 20
0.250656
 11
1.99371
 21
0.0999908
  0
LINE
  8
0
 10
1.99371
 20
0.0999908
 11
25.3937
 21
0.0999908
  0
LINE
  8
0
 10
25.3937
 20
0.0999908
 11
25.1997
 21
3.18346
  0
LINE
  8
0
 10
25.1997
 20
3.18346
 11
24.602
 21
6.31671
  0
LINE
  8
0
 10
24.602
 20
6.31671
 11
23.6163
 21
9.35036
  0
LINE
  8
0
 10
23.6163
 20
9.35036
 11
22.2582
 21
12.2365
  0
LINE
  8
0
 10
22.2582
 20
12.2365
 11
20.549
 21
14.9297
  0
LINE
  8
0
 10
20.549
 20
14.9297
 11
18.5158
 21
17.3875
  0
LINE
  8
0
 10
18.5158
 20
17.3875
 11
16.1906
 21
19.571
  0
LINE
  8
0
 10
16.1906
 20
19.571
 11
13.61
 21
21.4459
  0
LINE
  8
0
 10
13.61
 20
21.4459
 11
10.8148
 21
22.9826
  0
LINE
  8
0
 10
10.8148
 20
22.9826
 11
7.84903
 21
24.1568
  0
LINE
  8
0
 10
7.84903
 20
24.1568
 11
4.75948
 21
24.9501
  0
LINE
  8
0
 10
4.75948
 20
24.9501
 11
1.59488
 21
25.3499
  0
LINE
  8
0
 10
1.59488
 20
25.3499
 11
-1.59488
 21
25.3499
  0
LINE
  8
0
 10
-1.59488
 20
25.3499
 11
-4.75948
 21
24.9501
  0
LINE
  8
0
 10
-4.75948
 20
24.9501
 11
-7.84903
 21
24.1568
  0
LINE
  8
0
 10
-7.84903
 20
24.1568
 11
-10.8148
 21
22.9826
  0
LINE
  8
0
 10
-10.8148
 20
22.9826
 11
-13.61
 21
21.4459
  0
LINE
  8
0
 10
-13.61
 20
21.4459
 11
-16.1906
 21
19.571
  0
LINE
  8
0
 10
-16.1906
 20
19.571
 11
-18.5158
 21
17.3875
  0
LINE
  8
0
 10
-18.5158
 20
17.3875
 11
-20.549
 21
14.9297
  0
LINE
  8
0
 10
-20.549
 20
14.9297
 11
-22.2582
 21
12.2365
  0
LINE
  8
0
 10
-22.2582
 20
12.2365
 11
-23.6163
 21
9.35036
  0
LINE
  8
0
 10
-23.6163
 20
9.35036
 11
-24.602
 21
6.31671
  0
LINE
  8
0
 10
-24.602
 20
6.31671
 11
-25.1997
 21
3.18346
  0
LINE
  8
0
 10
-25.1997
 20
3.18346
 11
-25.4
 21
0
  0
LINE
  8
0
 10
-25.4
 20
0
 11
-25.1997
 21
-3.18346
  0
LINE
  8
0
 10
-25.1997
 20
-3.18346
 11
-24.602
 21
-6.31671
  0
LINE
  8
0
 10
-24.602
 20
-6.31671
 11
-23.6163
 21
-9.35036
  0
LINE
  8
0
 10
-23.6163
 20
-9.35036
 11
-22.2582
 21
-12.2365
  0
LINE
  8
0
 10
-22.2582
 20
-12.2365
 11
-20.549
 21
-14.9297
  0
LINE
  8
0
 10
-20.549
 20
-14.9297
 11
-18.5158
 21
-17.3875
  0
LINE
  8
0
 10
-18.5158
 20
-17.3875
 11
-16.1906
 21
-19.571
  0
LINE
  8
0
 10
-16.1906
 20
-19.571
 11
-13.61
 21
-21.4459
  0
LINE
  8
0
 10
-13.61
 20
-21.4459
 11
-10.8148
 21
-22.9826
  0
LINE
  8
0
 10
-10.8148
 20
-22.9826
 11
-7.84903
 21
-24.1568
  0
LINE
  8
0
 10
-7.84903
 20
-24.1568
 11
-4.75948
 21
-24.9501
  0
LINE
  8
0
 10
-4.75948
 20
-24.9501
 11
-1.59488
 21
-25.3499
  0
LINE
  8
0
 10
-1.59488
 20
-25.3499
 11
1.59488
 21
-25.3499
  0
LINE
  8
0
 10
1.59488
 20
-25.3499
 11
4.75948
 21
-24.9501
  0
ENDSEC
  0
SECTION
  2
OBJECTS
  0
DICTIONARY
  0
ENDSEC
  0
EOF
