  0
SECTION
  2
HEADER
  9
$ACADVER
  1
AC1014
  9
$HANDSEED
  5
FFFF
  9
$MEASUREMENT
 70
     1
  0
ENDSEC
  0
SECTION
  2
TABLES
  0
TABLE
  2
VPORT
  5
8
330
0
100
AcDbSymbolTable
 70
     4
  0
VPORT
  5
2E
330
8
100
AcDbSymbolTableRecord
100
AcDbViewportTableRecord
  2
*ACTIVE
 70
     0
 10
0.0
 20
0.0
 11
1.0
 21
1.0
 12
210.0
 22
148.5
 13
0.0
 23
0.0
 14
10.0
 24
10.0
 15
10.0
 25
10.0
 16
0.0
 26
0.0
 36
1.0
 17
0.0
 27
0.0
 37
0.0
 40
341.0
 41
1.24
 42
50.0
 43
0.0
 44
0.0
 50
0.0
 51
0.0
 71
     0
 72
   100
 73
     1
 74
     3
 75
     0
 76
     0
 77
     0
 78
     0
  0
ENDTAB
  0
TABLE
  2
LTYPE
  5
5
330
0
100
AcDbSymbolTable
 70
     1
  0
LTYPE
  5
14
330
5
100
AcDbSymbolTableRecord
100
AcDbLinetypeTableRecord
  2
BYBLOCK
 70
     0
  3

 72
    65
 73
     0
 40
0.0
  0
LTYPE
  5
15
330
5
100
AcDbSymbolTableRecord
100
AcDbLinetypeTableRecord
  2
BYLAYER
 70
     0
  3

 72
    65
 73
     0
 40
0.0
  0
LTYPE
  5
16
330
5
100
AcDbSymbolTableRecord
100
AcDbLinetypeTableRecord
  2
CONTINUOUS
 70
     0
  3
Solid line
 72
    65
 73
     0
 40
0.0
  0
ENDTAB
  0
TABLE
  2
LAYER
  5
2
100
AcDbSymbolTable
 70
1
  0
LAYER
  5
50
100
AcDbSymbolTableRecord
100
AcDbLayerTableRecord
  2
0
 70
0
  6
CONTINUOUS
  0
ENDTAB
  0
TABLE
  2
STYLE
  5
3
330
0
100
AcDbSymbolTable
 70
     1
  0
STYLE
  5
11
330
3
100
AcDbSymbolTableRecord
100
AcDbTextStyleTableRecord
  2
STANDARD
 70
     0
 40
0.0
 41
1.0
 50
0.0
 71
     0
 42
2.5
  3
txt
  4

  0
ENDTAB
  0
TABLE
  2
VIEW
  5
6
330
0
100
AcDbSymbolTable
 70
     0
  0
ENDTAB
  0
TABLE
  2
UCS
  5
7
330
0
100
AcDbSymbolTable
 70
     0
  0
ENDTAB
  0
TABLE
  2
APPID
  5
9
330
0
100
AcDbSymbolTable
 70
     2
  0
APPID
  5
12
330
9
100
AcDbSymbolTableRecord
100
AcDbRegAppTableRecord
  2
ACAD
 70
     0
  0
ENDTAB
  0
TABLE
  2
DIMSTYLE
  5
A
330
0
100
AcDbSymbolTable
 70
     1
  0
DIMSTYLE
105
27
330
A
100
AcDbSymbolTableRecord
100
AcDbDimStyleTableRecord
  2
ISO-25
 70
     0
  3

  4

  5

  6

  7

 40
1.0
 41
2.5
 42
0.625
 43
3.75
 44
1.25
 45
0.0
 46
0.0
 47
0.0
 48
0.0
140
2.5
141
2.5
142
0.0
143
0.03937007874016
144
1.0
145
0.0
146
1.0
147
0.625
 71
     0
 72
     0
 73
     0
 74
     0
 75
     0
 76
     0
 77
     1
 78
     8
170
     0
171
     3
172
     1
173
     0
174
     0
175
     0
176
     0
177
     0
178
     0
270
     2
271
     2
272
     2
273
     2
274
     3
340
11
275
     0
280
     0
281
     0
282
     0
283
     0
284
     8
285
     0
286
     0
287
     3
288
     0
  0
ENDTAB
  0
TABLE
  2
BLOCK_RECORD
  5
1
330
0
100
AcDbSymbolTable
 70
     1
  0
BLOCK_RECORD
  5
1F
330
1
100
AcDbSymbolTableRecord
100
AcDbBlockTableRecord
  2
*MODEL_SPACE
  0
BLOCK_RECORD
  5
1B
330
1
100
AcDbSymbolTableRecord
100
AcDbBlockTableRecord
  2
*PAPER_SPACE
  0
ENDTAB
  0
ENDSEC
  0
SECTION
  2
BLOCKS
  0
BLOCK
  5
20
330
1F
100
AcDbEntity
  8
0
100
AcDbBlockBegin
  2
*MODEL_SPACE
 70
     0
 10
0.0
 20
0.0
 30
0.0
  3
*MODEL_SPACE
  1

  0
ENDBLK
  5
21
330
1F
100
AcDbEntity
  8
0
100
AcDbBlockEnd
  0
BLOCK
  5
1C
330
1B
100
AcDbEntity
 67
     1
  8
0
100
AcDbBlockBegin
  2
*PAPER_SPACE
  1

  0
ENDBLK
  5
1D
330
1B
100
AcDbEntity
 67
     1
  8
0
100
AcDbBlockEnd
  0
ENDSEC
  0
SECTION
  2
ENTITIES
  0
SPLINE
  5
100
100
AcDbEntity
  8
0
 62
7
100
AcDbSpline
 70
8
 71
3
 72
8
 73
4
 74
0
 40
0
 40
0
 40
0
 40
0
 40
1
 40
1
 40
1
 40
1
 10
-308.226996
 20
201.965999
 30
0.0
 10
-303.065406
 20
183.118033
 30
0.0
 10
-275.707083
 20
177.675973
 30
0.0
 10
-263.728643
 20
193.117920
 30
0.0
  0
SPLINE
  5
101
100
AcDbEntity
  8
0
 62
7
100
AcDbSpline
 70
8
 71
3
 72
8
 73
4
 74
0
 40
0
 40
0
 40
0
 40
0
 40
1
 40
1
 40
1
 40
1
 10
-263.728643
 20
193.117920
 30
0.0
 10
-250.356226
 20
207.364441
 30
0.0
 10
-260.012321
 20
233.532202
 30
0.0
 10
-279.433226
 20
235.677731
 30
0.0
  0
SPLINE
  5
102
100
AcDbEntity
  8
0
 62
7
100
AcDbSpline
 70
8
 71
3
 72
8
 73
4
 74
0
 40
0
 40
0
 40
0
 40
0
 40
1
 40
1
 40
1
 40
1
 10
-279.433226
 20
235.677731
 30
0.0
 10
-297.997965
 20
239.182237
 30
0.0
 10
-314.590458
 20
219.774752
 30
0.0
 10
-308.226996
 20
201.965999
 30
0.0
  0
LINE
  5
103
100
AcDbEntity
  8
0
 62
7
100
AcDbLine
 10
-308.226996
 20
201.965999
 30
0.0
 11
-308.226996
 21
201.965999
 31
0.0
  0
SPLINE
  5
104
100
AcDbEntity
  8
0
 62
7
100
AcDbSpline
 70
8
 71
3
 72
8
 73
4
 74
0
 40
0
 40
0
 40
0
 40
0
 40
1
 40
1
 40
1
 40
1
 10
-73.465501
 20
194.717999
 30
0.0
 10
-61.250884
 20
209.972691
 30
0.0
 10
-72.930472
 20
235.303674
 30
0.0
 10
-92.463312
 20
235.918944
 30
0.0
  0
SPLINE
  5
105
100
AcDbEntity
  8
0
 62
7
100
AcDbSpline
 70
8
 71
3
 72
8
 73
4
 74
0
 40
0
 40
0
 40
0
 40
0
 40
1
 40
1
 40
1
 40
1
 10
-92.463312
 20
235.918944
 30
0.0
 10
-111.847853
 20
238.362189
 30
0.0
 10
-127.345045
 20
215.170330
 30
0.0
 10
-117.663928
 20
198.197581
 30
0.0
  0
SPLINE
  5
106
100
AcDbEntity
  8
0
 62
7
100
AcDbSpline
 70
8
 71
3
 72
8
 73
4
 74
0
 40
0
 40
0
 40
0
 40
0
 40
1
 40
1
 40
1
 40
1
 10
-117.663928
 20
198.197581
 30
0.0
 10
-109.586251
 20
181.117058
 30
0.0
 10
-84.134300
 20
179.101839
 30
0.0
 10
-73.465501
 20
194.717999
 30
0.0
  0
LINE
  5
107
100
AcDbEntity
  8
0
 62
7
100
AcDbLine
 10
-73.465501
 20
194.717999
 30
0.0
 11
-73.465501
 21
194.717999
 31
0.0
  0
SPLINE
  5
108
100
AcDbEntity
  8
0
 62
7
100
AcDbSpline
 70
8
 71
3
 72
8
 73
4
 74
0
 40
0
 40
0
 40
0
 40
0
 40
1
 40
1
 40
1
 40
1
 10
-183.500000
 20
209.999999
 30
0.0
 10
-184.414120
 20
190.480226
 30
0.0
 10
-160.077170
 20
176.849615
 30
0.0
 10
-143.913315
 20
187.834429
 30
0.0
  0
SPLINE
  5
109
100
AcDbEntity
  8
0
 62
7
100
AcDbSpline
 70
8
 71
3
 72
8
 73
4
 74
0
 40
0
 40
0
 40
0
 40
0
 40
1
 40
1
 40
1
 40
1
 10
-143.913315
 20
187.834429
 30
0.0
 10
-126.793306
 20
197.251423
 30
0.0
 10
-127.889285
 20
225.122645
 30
0.0
 10
-145.697581
 20
233.163927
 30
0.0
  0
SPLINE
  5
10a
100
AcDbEntity
  8
0
 62
7
100
AcDbSpline
 70
8
 71
3
 72
8
 73
4
 74
0
 40
0
 40
0
 40
0
 40
0
 40
1
 40
1
 40
1
 40
1
 10
-145.697581
 20
233.163927
 30
0.0
 10
-162.271730
 20
242.235187
 30
0.0
 10
-184.046622
 20
228.903179
 30
0.0
 10
-183.500000
 20
209.999999
 30
0.0
  0
LINE
  5
10b
100
AcDbEntity
  8
0
 62
7
100
AcDbLine
 10
-183.500000
 20
209.999999
 30
0.0
 11
-183.500000
 21
209.999999
 31
0.0
  0
SPLINE
  5
10c
100
AcDbEntity
  8
0
 62
7
100
AcDbSpline
 70
8
 71
3
 72
8
 73
4
 74
0
 40
0
 40
0
 40
0
 40
0
 40
1
 40
1
 40
1
 40
1
 10
-39.534400
 20
185.273000
 30
0.0
 10
-21.252562
 20
178.369749
 30
0.0
 10
-0.768624
 20
197.305310
 30
0.0
 10
-6.220214
 20
216.072095
 30
0.0
  0
SPLINE
  5
10d
100
AcDbEntity
  8
0
 62
7
100
AcDbSpline
 70
8
 71
3
 72
8
 73
4
 74
0
 40
0
 40
0
 40
0
 40
0
 40
1
 40
1
 40
1
 40
1
 10
-6.220214
 20
216.072095
 30
0.0
 10
-9.886233
 20
235.264036
 30
0.0
 10
-36.732422
 20
242.835031
 30
0.0
 10
-49.883351
 20
228.382953
 30
0.0
  0
SPLINE
  5
10e
100
AcDbEntity
  8
0
 62
7
100
AcDbSpline
 70
8
 71
3
 72
8
 73
4
 74
0
 40
0
 40
0
 40
0
 40
0
 40
1
 40
1
 40
1
 40
1
 10
-49.883351
 20
228.382953
 30
0.0
 10
-63.631837
 20
215.422800
 30
0.0
 10
-57.682607
 20
190.593657
 30
0.0
 10
-39.534400
 20
185.273000
 30
0.0
  0
LINE
  5
10f
100
AcDbEntity
  8
0
 62
7
100
AcDbLine
 10
-39.534400
 20
185.273000
 30
0.0
 11
-39.534400
 21
185.273000
 31
0.0
  0
SPLINE
  5
110
100
AcDbEntity
  8
0
 62
7
100
AcDbSpline
 70
8
 71
3
 72
8
 73
4
 74
0
 40
0
 40
0
 40
0
 40
0
 40
1
 40
1
 40
1
 40
1
 10
46.782400
 20
188.965999
 30
0.0
 10
63.113099
 20
199.699229
 30
0.0
 10
59.833671
 20
227.400289
 30
0.0
 10
41.446346
 20
234.020573
 30
0.0
  0
SPLINE
  5
111
100
AcDbEntity
  8
0
 62
7
100
AcDbSpline
 70
8
 71
3
 72
8
 73
4
 74
0
 40
0
 40
0
 40
0
 40
0
 40
1
 40
1
 40
1
 40
1
 10
41.446346
 20
234.020573
 30
0.0
 10
23.765436
 20
242.336135
 30
0.0
 10
1.860482
 20
225.066616
 30
0.0
 10
5.822061
 20
205.933236
 30
0.0
  0
SPLINE
  5
112
100
AcDbEntity
  8
0
 62
7
100
AcDbSpline
 70
8
 71
3
 72
8
 73
4
 74
0
 40
0
 40
0
 40
0
 40
0
 40
1
 40
1
 40
1
 40
1
 10
5.822061
 20
205.933236
 30
0.0
 10
8.226279
 20
187.193051
 30
0.0
 10
31.810525
 20
177.410583
 30
0.0
 10
46.782400
 20
188.965999
 30
0.0
  0
LINE
  5
113
100
AcDbEntity
  8
0
 62
7
100
AcDbLine
 10
46.782400
 20
188.965999
 30
0.0
 11
46.782400
 21
188.965999
 31
0.0
  0
SPLINE
  5
114
100
AcDbEntity
  8
0
 62
7
100
AcDbSpline
 70
8
 71
3
 72
8
 73
4
 74
0
 40
0
 40
0
 40
0
 40
0
 40
1
 40
1
 40
1
 40
1
 10
119.226999
 20
201.965999
 30
0.0
 10
126.130183
 20
220.247691
 30
0.0
 10
107.193743
 20
240.731216
 30
0.0
 10
88.427523
 20
235.279439
 30
0.0
  0
SPLINE
  5
115
100
AcDbEntity
  8
0
 62
7
100
AcDbSpline
 70
8
 71
3
 72
8
 73
4
 74
0
 40
0
 40
0
 40
0
 40
0
 40
1
 40
1
 40
1
 40
1
 10
88.427523
 20
235.279439
 30
0.0
 10
69.235839
 20
231.613469
 30
0.0
 10
61.664782
 20
204.767828
 30
0.0
 10
76.116595
 20
191.617043
 30
0.0
  0
SPLINE
  5
116
100
AcDbEntity
  8
0
 62
7
100
AcDbSpline
 70
8
 71
3
 72
8
 73
4
 74
0
 40
0
 40
0
 40
0
 40
0
 40
1
 40
1
 40
1
 40
1
 10
76.116595
 20
191.617043
 30
0.0
 10
89.077055
 20
177.868347
 30
0.0
 10
113.906049
 20
183.817631
 30
0.0
 10
119.226999
 20
201.965999
 30
0.0
  0
LINE
  5
117
100
AcDbEntity
  8
0
 62
7
100
AcDbLine
 10
119.226999
 20
201.965999
 30
0.0
 11
119.226999
 21
201.965999
 31
0.0
  0
SPLINE
  5
118
100
AcDbEntity
  8
0
 62
7
100
AcDbSpline
 70
8
 71
3
 72
8
 73
4
 74
0
 40
0
 40
0
 40
0
 40
0
 40
1
 40
1
 40
1
 40
1
 10
-212.465999
 20
185.273000
 30
0.0
 10
-193.618036
 20
190.434594
 30
0.0
 10
-188.175971
 20
217.792914
 30
0.0
 10
-203.617920
 20
229.771356
 30
0.0
  0
SPLINE
  5
119
100
AcDbEntity
  8
0
 62
7
100
AcDbSpline
 70
8
 71
3
 72
8
 73
4
 74
0
 40
0
 40
0
 40
0
 40
0
 40
1
 40
1
 40
1
 40
1
 10
-203.617920
 20
229.771356
 30
0.0
 10
-217.864442
 20
243.143776
 30
0.0
 10
-244.032199
 20
233.487678
 30
0.0
 10
-246.177731
 20
214.066773
 30
0.0
  0
SPLINE
  5
11a
100
AcDbEntity
  8
0
 62
7
100
AcDbSpline
 70
8
 71
3
 72
8
 73
4
 74
0
 40
0
 40
0
 40
0
 40
0
 40
1
 40
1
 40
1
 40
1
 10
-246.177731
 20
214.066773
 30
0.0
 10
-249.682240
 20
195.502060
 30
0.0
 10
-230.274741
 20
178.909535
 30
0.0
 10
-212.465999
 20
185.273000
 30
0.0
  0
LINE
  5
11b
100
AcDbEntity
  8
0
 62
7
100
AcDbLine
 10
-212.465999
 20
185.273000
 30
0.0
 11
-212.465999
 21
185.273000
 31
0.0
  0
SPLINE
  5
11c
100
AcDbEntity
  8
0
 62
7
100
AcDbSpline
 70
8
 71
3
 72
8
 73
4
 74
0
 40
0
 40
0
 40
0
 40
0
 40
1
 40
1
 40
1
 40
1
 10
165.533999
 20
234.727001
 30
0.0
 10
147.252515
 20
241.630128
 30
0.0
 10
126.768888
 20
222.694007
 30
0.0
 10
132.220583
 20
203.927900
 30
0.0
  0
SPLINE
  5
11d
100
AcDbEntity
  8
0
 62
7
100
AcDbSpline
 70
8
 71
3
 72
8
 73
4
 74
0
 40
0
 40
0
 40
0
 40
0
 40
1
 40
1
 40
1
 40
1
 10
132.220583
 20
203.927900
 30
0.0
 10
135.886729
 20
184.736338
 30
0.0
 10
162.732119
 20
177.164908
 30
0.0
 10
175.882955
 20
191.617043
 30
0.0
  0
SPLINE
  5
11e
100
AcDbEntity
  8
0
 62
7
100
AcDbSpline
 70
8
 71
3
 72
8
 73
4
 74
0
 40
0
 40
0
 40
0
 40
0
 40
1
 40
1
 40
1
 40
1
 10
175.882955
 20
191.617043
 30
0.0
 10
189.631678
 20
204.577415
 30
0.0
 10
183.682205
 20
229.406096
 30
0.0
 10
165.533999
 20
234.727001
 30
0.0
  0
LINE
  5
11f
100
AcDbEntity
  8
0
 62
7
100
AcDbLine
 10
165.533999
 20
234.727001
 30
0.0
 11
165.533999
 21
234.727001
 31
0.0
  0
SPLINE
  5
120
100
AcDbEntity
  8
0
 62
7
100
AcDbSpline
 70
8
 71
3
 72
8
 73
4
 74
0
 40
0
 40
0
 40
0
 40
0
 40
1
 40
1
 40
1
 40
1
 10
195.773000
 20
218.033999
 30
0.0
 10
188.869870
 20
199.752516
 30
0.0
 10
207.805991
 20
179.268886
 30
0.0
 10
226.572098
 20
184.720584
 30
0.0
  0
SPLINE
  5
121
100
AcDbEntity
  8
0
 62
7
100
AcDbSpline
 70
8
 71
3
 72
8
 73
4
 74
0
 40
0
 40
0
 40
0
 40
0
 40
1
 40
1
 40
1
 40
1
 10
226.572098
 20
184.720584
 30
0.0
 10
245.763661
 20
188.386730
 30
0.0
 10
253.335096
 20
215.232117
 30
0.0
 10
238.882956
 20
228.382956
 30
0.0
  0
SPLINE
  5
122
100
AcDbEntity
  8
0
 62
7
100
AcDbSpline
 70
8
 71
3
 72
8
 73
4
 74
0
 40
0
 40
0
 40
0
 40
0
 40
1
 40
1
 40
1
 40
1
 10
238.882956
 20
228.382956
 30
0.0
 10
225.922586
 20
242.131679
 30
0.0
 10
201.093903
 20
236.182206
 30
0.0
 10
195.773000
 20
218.033999
 30
0.0
  0
LINE
  5
123
100
AcDbEntity
  8
0
 62
7
100
AcDbLine
 10
195.773000
 20
218.033999
 30
0.0
 11
195.773000
 21
218.033999
 31
0.0
  0
SPLINE
  5
124
100
AcDbEntity
  8
0
 62
7
100
AcDbSpline
 70
8
 71
3
 72
8
 73
4
 74
0
 40
0
 40
0
 40
0
 40
0
 40
1
 40
1
 40
1
 40
1
 10
298.782006
 20
231.034001
 30
0.0
 10
283.527472
 20
243.249070
 30
0.0
 10
258.196687
 20
231.569055
 30
0.0
 10
257.581067
 20
212.036563
 30
0.0
  0
SPLINE
  5
125
100
AcDbEntity
  8
0
 62
7
100
AcDbSpline
 70
8
 71
3
 72
8
 73
4
 74
0
 40
0
 40
0
 40
0
 40
0
 40
1
 40
1
 40
1
 40
1
 10
257.581067
 20
212.036563
 30
0.0
 10
255.137875
 20
192.652061
 30
0.0
 10
278.329734
 20
177.154982
 30
0.0
 10
295.302432
 20
186.836074
 30
0.0
  0
SPLINE
  5
126
100
AcDbEntity
  8
0
 62
7
100
AcDbSpline
 70
8
 71
3
 72
8
 73
4
 74
0
 40
0
 40
0
 40
0
 40
0
 40
1
 40
1
 40
1
 40
1
 10
295.302432
 20
186.836074
 30
0.0
 10
312.382803
 20
194.913655
 30
0.0
 10
314.398180
 20
220.365350
 30
0.0
 10
298.782006
 20
231.034001
 30
0.0
  0
LINE
  5
127
100
AcDbEntity
  8
0
 62
7
100
AcDbLine
 10
298.782006
 20
231.034001
 30
0.0
 11
298.782006
 21
231.034001
 31
0.0
  0
SPLINE
  5
128
100
AcDbEntity
  8
0
 62
7
100
AcDbSpline
 70
8
 71
3
 72
8
 73
4
 74
0
 40
0
 40
0
 40
0
 40
0
 40
1
 40
1
 40
1
 40
1
 10
165.533999
 20
174.726999
 30
0.0
 10
147.252518
 20
181.630127
 30
0.0
 10
126.768885
 20
162.694009
 30
0.0
 10
132.220583
 20
143.927902
 30
0.0
  0
SPLINE
  5
129
100
AcDbEntity
  8
0
 62
7
100
AcDbSpline
 70
8
 71
3
 72
8
 73
4
 74
0
 40
0
 40
0
 40
0
 40
0
 40
1
 40
1
 40
1
 40
1
 10
132.220583
 20
143.927902
 30
0.0
 10
135.886729
 20
124.736339
 30
0.0
 10
162.732119
 20
117.164904
 30
0.0
 10
175.882955
 20
131.617044
 30
0.0
  0
SPLINE
  5
12a
100
AcDbEntity
  8
0
 62
7
100
AcDbSpline
 70
8
 71
3
 72
8
 73
4
 74
0
 40
0
 40
0
 40
0
 40
0
 40
1
 40
1
 40
1
 40
1
 10
175.882955
 20
131.617044
 30
0.0
 10
189.631678
 20
144.577417
 30
0.0
 10
183.682205
 20
169.406097
 30
0.0
 10
165.533999
 20
174.726999
 30
0.0
  0
LINE
  5
12b
100
AcDbEntity
  8
0
 62
7
100
AcDbLine
 10
165.533999
 20
174.726999
 30
0.0
 11
165.533999
 21
174.726999
 31
0.0
  0
SPLINE
  5
12c
100
AcDbEntity
  8
0
 62
7
100
AcDbSpline
 70
8
 71
3
 72
8
 73
4
 74
0
 40
0
 40
0
 40
0
 40
0
 40
1
 40
1
 40
1
 40
1
 10
119.226999
 20
141.966000
 30
0.0
 10
126.130183
 20
160.247693
 30
0.0
 10
107.193743
 20
180.731215
 30
0.0
 10
88.427523
 20
175.279438
 30
0.0
  0
SPLINE
  5
12d
100
AcDbEntity
  8
0
 62
7
100
AcDbSpline
 70
8
 71
3
 72
8
 73
4
 74
0
 40
0
 40
0
 40
0
 40
0
 40
1
 40
1
 40
1
 40
1
 10
88.427523
 20
175.279438
 30
0.0
 10
69.235839
 20
171.613467
 30
0.0
 10
61.664782
 20
144.767826
 30
0.0
 10
76.116595
 20
131.617044
 30
0.0
  0
SPLINE
  5
12e
100
AcDbEntity
  8
0
 62
7
100
AcDbSpline
 70
8
 71
3
 72
8
 73
4
 74
0
 40
0
 40
0
 40
0
 40
0
 40
1
 40
1
 40
1
 40
1
 10
76.116595
 20
131.617044
 30
0.0
 10
89.077055
 20
117.868346
 30
0.0
 10
113.906049
 20
123.817633
 30
0.0
 10
119.226999
 20
141.966000
 30
0.0
  0
LINE
  5
12f
100
AcDbEntity
  8
0
 62
7
100
AcDbLine
 10
119.226999
 20
141.966000
 30
0.0
 11
119.226999
 21
141.966000
 31
0.0
  0
SPLINE
  5
130
100
AcDbEntity
  8
0
 62
7
100
AcDbSpline
 70
8
 71
3
 72
8
 73
4
 74
0
 40
0
 40
0
 40
0
 40
0
 40
1
 40
1
 40
1
 40
1
 10
39.534400
 20
174.726999
 30
0.0
 10
21.252562
 20
181.630251
 30
0.0
 10
0.768624
 20
162.694689
 30
0.0
 10
6.220214
 20
143.927905
 30
0.0
  0
SPLINE
  5
131
100
AcDbEntity
  8
0
 62
7
100
AcDbSpline
 70
8
 71
3
 72
8
 73
4
 74
0
 40
0
 40
0
 40
0
 40
0
 40
1
 40
1
 40
1
 40
1
 10
6.220214
 20
143.927905
 30
0.0
 10
9.886234
 20
124.735967
 30
0.0
 10
36.732422
 20
117.164969
 30
0.0
 10
49.883351
 20
131.617047
 30
0.0
  0
SPLINE
  5
132
100
AcDbEntity
  8
0
 62
7
100
AcDbSpline
 70
8
 71
3
 72
8
 73
4
 74
0
 40
0
 40
0
 40
0
 40
0
 40
1
 40
1
 40
1
 40
1
 10
49.883351
 20
131.617047
 30
0.0
 10
63.631834
 20
144.577199
 30
0.0
 10
57.682607
 20
169.406346
 30
0.0
 10
39.534400
 20
174.726999
 30
0.0
  0
LINE
  5
133
100
AcDbEntity
  8
0
 62
7
100
AcDbLine
 10
39.534400
 20
174.726999
 30
0.0
 11
39.534400
 21
174.726999
 31
0.0
  0
SPLINE
  5
134
100
AcDbEntity
  8
0
 62
7
100
AcDbSpline
 70
8
 71
3
 72
8
 73
4
 74
0
 40
0
 40
0
 40
0
 40
0
 40
1
 40
1
 40
1
 40
1
 10
246.500001
 20
150.000000
 30
0.0
 10
247.414121
 20
169.519771
 30
0.0
 10
223.077168
 20
183.150384
 30
0.0
 10
206.913316
 20
172.165570
 30
0.0
  0
SPLINE
  5
135
100
AcDbEntity
  8
0
 62
7
100
AcDbSpline
 70
8
 71
3
 72
8
 73
4
 74
0
 40
0
 40
0
 40
0
 40
0
 40
1
 40
1
 40
1
 40
1
 10
206.913316
 20
172.165570
 30
0.0
 10
189.793307
 20
162.748579
 30
0.0
 10
190.889286
 20
134.877351
 30
0.0
 10
208.697582
 20
126.836073
 30
0.0
  0
SPLINE
  5
136
100
AcDbEntity
  8
0
 62
7
100
AcDbSpline
 70
8
 71
3
 72
8
 73
4
 74
0
 40
0
 40
0
 40
0
 40
0
 40
1
 40
1
 40
1
 40
1
 10
208.697582
 20
126.836073
 30
0.0
 10
225.271728
 20
117.764810
 30
0.0
 10
247.046623
 20
131.096827
 30
0.0
 10
246.500001
 20
150.000000
 30
0.0
  0
LINE
  5
137
100
AcDbEntity
  8
0
 62
7
100
AcDbLine
 10
246.500001
 20
150.000000
 30
0.0
 11
246.500001
 21
150.000000
 31
0.0
  0
SPLINE
  5
138
100
AcDbEntity
  8
0
 62
7
100
AcDbSpline
 70
8
 71
3
 72
8
 73
4
 74
0
 40
0
 40
0
 40
0
 40
0
 40
1
 40
1
 40
1
 40
1
 10
-52.534399
 20
165.282001
 30
0.0
 10
-64.749231
 20
150.027393
 30
0.0
 10
-53.069439
 20
124.696340
 30
0.0
 10
-33.536661
 20
124.081064
 30
0.0
  0
SPLINE
  5
139
100
AcDbEntity
  8
0
 62
7
100
AcDbSpline
 70
8
 71
3
 72
8
 73
4
 74
0
 40
0
 40
0
 40
0
 40
0
 40
1
 40
1
 40
1
 40
1
 10
-33.536661
 20
124.081064
 30
0.0
 10
-14.151693
 20
121.637536
 30
0.0
 10
1.344985
 20
144.829311
 30
0.0
 10
-8.335551
 20
161.802429
 30
0.0
  0
SPLINE
  5
13a
100
AcDbEntity
  8
0
 62
7
100
AcDbSpline
 70
8
 71
3
 72
8
 73
4
 74
0
 40
0
 40
0
 40
0
 40
0
 40
1
 40
1
 40
1
 40
1
 10
-8.335551
 20
161.802429
 30
0.0
 10
-16.413349
 20
178.882908
 30
0.0
 10
-41.865592
 20
180.898271
 30
0.0
 10
-52.534399
 20
165.282001
 30
0.0
  0
LINE
  5
13b
100
AcDbEntity
  8
0
 62
7
100
AcDbLine
 10
-52.534399
 20
165.282001
 30
0.0
 11
-52.534399
 21
165.282001
 31
0.0
  0
SPLINE
  5
13c
100
AcDbEntity
  8
0
 62
7
100
AcDbSpline
 70
8
 71
3
 72
8
 73
4
 74
0
 40
0
 40
0
 40
0
 40
0
 40
1
 40
1
 40
1
 40
1
 10
-73.465501
 20
134.718000
 30
0.0
 10
-61.250881
 20
149.972693
 30
0.0
 10
-72.930475
 20
175.303672
 30
0.0
 10
-92.463312
 20
175.918942
 30
0.0
  0
SPLINE
  5
13d
100
AcDbEntity
  8
0
 62
7
100
AcDbSpline
 70
8
 71
3
 72
8
 73
4
 74
0
 40
0
 40
0
 40
0
 40
0
 40
1
 40
1
 40
1
 40
1
 10
-92.463312
 20
175.918942
 30
0.0
 10
-111.847853
 20
178.362188
 30
0.0
 10
-127.345045
 20
155.170331
 30
0.0
 10
-117.663928
 20
138.197580
 30
0.0
  0
SPLINE
  5
13e
100
AcDbEntity
  8
0
 62
7
100
AcDbSpline
 70
8
 71
3
 72
8
 73
4
 74
0
 40
0
 40
0
 40
0
 40
0
 40
1
 40
1
 40
1
 40
1
 10
-117.663928
 20
138.197580
 30
0.0
 10
-109.586248
 20
121.117059
 30
0.0
 10
-84.134300
 20
119.101837
 30
0.0
 10
-73.465501
 20
134.718000
 30
0.0
  0
LINE
  5
13f
100
AcDbEntity
  8
0
 62
7
100
AcDbLine
 10
-73.465501
 20
134.718000
 30
0.0
 11
-73.465501
 21
134.718000
 31
0.0
  0
SPLINE
  5
140
100
AcDbEntity
  8
0
 62
7
100
AcDbSpline
 70
8
 71
3
 72
8
 73
4
 74
0
 40
0
 40
0
 40
0
 40
0
 40
1
 40
1
 40
1
 40
1
 10
262.466001
 20
134.718000
 30
0.0
 10
273.199329
 20
118.387135
 30
0.0
 10
300.900169
 20
121.666698
 30
0.0
 10
307.520566
 20
140.054058
 30
0.0
  0
SPLINE
  5
141
100
AcDbEntity
  8
0
 62
7
100
AcDbSpline
 70
8
 71
3
 72
8
 73
4
 74
0
 40
0
 40
0
 40
0
 40
0
 40
1
 40
1
 40
1
 40
1
 10
307.520566
 20
140.054058
 30
0.0
 10
315.836074
 20
157.734789
 30
0.0
 10
298.565965
 20
179.638975
 30
0.0
 10
279.433226
 20
175.677730
 30
0.0
  0
SPLINE
  5
142
100
AcDbEntity
  8
0
 62
7
100
AcDbSpline
 70
8
 71
3
 72
8
 73
4
 74
0
 40
0
 40
0
 40
0
 40
0
 40
1
 40
1
 40
1
 40
1
 10
279.433226
 20
175.677730
 30
0.0
 10
260.693572
 20
173.272858
 30
0.0
 10
250.910423
 20
149.690030
 30
0.0
 10
262.466001
 20
134.718000
 30
0.0
  0
LINE
  5
143
100
AcDbEntity
  8
0
 62
7
100
AcDbLine
 10
262.466001
 20
134.718000
 30
0.0
 11
262.466001
 21
134.718000
 31
0.0
  0
SPLINE
  5
144
100
AcDbEntity
  8
0
 62
7
100
AcDbSpline
 70
8
 71
3
 72
8
 73
4
 74
0
 40
0
 40
0
 40
0
 40
0
 40
1
 40
1
 40
1
 40
1
 10
-268.218000
 20
128.966001
 30
0.0
 10
-251.887135
 20
139.699327
 30
0.0
 10
-255.166698
 20
167.400172
 30
0.0
 10
-273.554057
 20
174.020569
 30
0.0
  0
SPLINE
  5
145
100
AcDbEntity
  8
0
 62
7
100
AcDbSpline
 70
8
 71
3
 72
8
 73
4
 74
0
 40
0
 40
0
 40
0
 40
0
 40
1
 40
1
 40
1
 40
1
 10
-273.554057
 20
174.020569
 30
0.0
 10
-291.234791
 20
182.336097
 30
0.0
 10
-313.138989
 20
165.065971
 30
0.0
 10
-309.177718
 20
145.933226
 30
0.0
  0
SPLINE
  5
146
100
AcDbEntity
  8
0
 62
7
100
AcDbSpline
 70
8
 71
3
 72
8
 73
4
 74
0
 40
0
 40
0
 40
0
 40
0
 40
1
 40
1
 40
1
 40
1
 10
-309.177718
 20
145.933226
 30
0.0
 10
-306.772874
 20
127.193563
 30
0.0
 10
-283.190019
 20
117.410429
 30
0.0
 10
-268.218000
 20
128.966001
 30
0.0
  0
LINE
  5
147
100
AcDbEntity
  8
0
 62
7
100
AcDbLine
 10
-268.218000
 20
128.966001
 30
0.0
 11
-268.218000
 21
128.966001
 31
0.0
  0
SPLINE
  5
148
100
AcDbEntity
  8
0
 62
7
100
AcDbSpline
 70
8
 71
3
 72
8
 73
4
 74
0
 40
0
 40
0
 40
0
 40
0
 40
1
 40
1
 40
1
 40
1
 10
-165.533999
 20
174.726999
 30
0.0
 10
-184.381961
 20
169.565409
 30
0.0
 10
-189.824030
 20
142.207086
 30
0.0
 10
-174.382080
 20
130.228643
 30
0.0
  0
SPLINE
  5
149
100
AcDbEntity
  8
0
 62
7
100
AcDbSpline
 70
8
 71
3
 72
8
 73
4
 74
0
 40
0
 40
0
 40
0
 40
0
 40
1
 40
1
 40
1
 40
1
 10
-174.382080
 20
130.228643
 30
0.0
 10
-160.135559
 20
116.856226
 30
0.0
 10
-133.967801
 20
126.512321
 30
0.0
 10
-131.822269
 20
145.933226
 30
0.0
  0
SPLINE
  5
14a
100
AcDbEntity
  8
0
 62
7
100
AcDbSpline
 70
8
 71
3
 72
8
 73
4
 74
0
 40
0
 40
0
 40
0
 40
0
 40
1
 40
1
 40
1
 40
1
 10
-131.822269
 20
145.933226
 30
0.0
 10
-128.317760
 20
164.497937
 30
0.0
 10
-147.725257
 20
181.090461
 30
0.0
 10
-165.533999
 20
174.726999
 30
0.0
  0
LINE
  5
14b
100
AcDbEntity
  8
0
 62
7
100
AcDbLine
 10
-165.533999
 20
174.726999
 30
0.0
 11
-165.533999
 21
174.726999
 31
0.0
  0
SPLINE
  5
14c
100
AcDbEntity
  8
0
 62
7
100
AcDbSpline
 70
8
 71
3
 72
8
 73
4
 74
0
 40
0
 40
0
 40
0
 40
0
 40
1
 40
1
 40
1
 40
1
 10
-212.465999
 20
174.726999
 30
0.0
 10
-230.747480
 20
181.630127
 30
0.0
 10
-251.231115
 20
162.694012
 30
0.0
 10
-245.779417
 20
143.927902
 30
0.0
  0
SPLINE
  5
14d
100
AcDbEntity
  8
0
 62
7
100
AcDbSpline
 70
8
 71
3
 72
8
 73
4
 74
0
 40
0
 40
0
 40
0
 40
0
 40
1
 40
1
 40
1
 40
1
 10
-245.779417
 20
143.927902
 30
0.0
 10
-242.113268
 20
124.736339
 30
0.0
 10
-215.267881
 20
117.164901
 30
0.0
 10
-202.117043
 20
131.617044
 30
0.0
  0
SPLINE
  5
14e
100
AcDbEntity
  8
0
 62
7
100
AcDbSpline
 70
8
 71
3
 72
8
 73
4
 74
0
 40
0
 40
0
 40
0
 40
0
 40
1
 40
1
 40
1
 40
1
 10
-202.117043
 20
131.617044
 30
0.0
 10
-188.368322
 20
144.577417
 30
0.0
 10
-194.317792
 20
169.406094
 30
0.0
 10
-212.465999
 20
174.726999
 30
0.0
  0
LINE
  5
14f
100
AcDbEntity
  8
0
 62
7
100
AcDbLine
 10
-212.465999
 20
174.726999
 30
0.0
 11
-212.465999
 21
174.726999
 31
0.0
  0
SPLINE
  5
150
100
AcDbEntity
  8
0
 62
7
100
AcDbSpline
 70
8
 71
3
 72
8
 73
4
 74
0
 40
0
 40
0
 40
0
 40
0
 40
1
 40
1
 40
1
 40
1
 10
-172.782001
 20
68.965500
 30
0.0
 10
-157.527309
 20
56.750888
 30
0.0
 10
-132.196326
 20
68.430472
 30
0.0
 10
-131.581062
 20
87.963311
 30
0.0
  0
SPLINE
  5
151
100
AcDbEntity
  8
0
 62
7
100
AcDbSpline
 70
8
 71
3
 72
8
 73
4
 74
0
 40
0
 40
0
 40
0
 40
0
 40
1
 40
1
 40
1
 40
1
 10
-131.581062
 20
87.963311
 30
0.0
 10
-129.137647
 20
107.347858
 30
0.0
 10
-152.329741
 20
122.845027
 30
0.0
 10
-169.302419
 20
113.163927
 30
0.0
  0
SPLINE
  5
152
100
AcDbEntity
  8
0
 62
7
100
AcDbSpline
 70
8
 71
3
 72
8
 73
4
 74
0
 40
0
 40
0
 40
0
 40
0
 40
1
 40
1
 40
1
 40
1
 10
-169.302419
 20
113.163927
 30
0.0
 10
-186.383066
 20
105.086239
 30
0.0
 10
-188.398136
 20
79.634366
 30
0.0
 10
-172.782001
 20
68.965500
 30
0.0
  0
LINE
  5
153
100
AcDbEntity
  8
0
 62
7
100
AcDbLine
 10
-172.782001
 20
68.965500
 30
0.0
 11
-172.782001
 21
68.965500
 31
0.0
  0
SPLINE
  5
154
100
AcDbEntity
  8
0
 62
7
100
AcDbSpline
 70
8
 71
3
 72
8
 73
4
 74
0
 40
0
 40
0
 40
0
 40
0
 40
1
 40
1
 40
1
 40
1
 10
298.782006
 20
111.033999
 30
0.0
 10
283.527556
 20
123.249048
 30
0.0
 10
258.196656
 20
111.569084
 30
0.0
 10
257.581061
 20
92.036664
 30
0.0
  0
SPLINE
  5
155
100
AcDbEntity
  8
0
 62
7
100
AcDbSpline
 70
8
 71
3
 72
8
 73
4
 74
0
 40
0
 40
0
 40
0
 40
0
 40
1
 40
1
 40
1
 40
1
 10
257.581061
 20
92.036664
 30
0.0
 10
255.137547
 20
72.651698
 30
0.0
 10
278.329300
 20
57.155002
 30
0.0
 10
295.302432
 20
66.835541
 30
0.0
  0
SPLINE
  5
156
100
AcDbEntity
  8
0
 62
7
100
AcDbSpline
 70
8
 71
3
 72
8
 73
4
 74
0
 40
0
 40
0
 40
0
 40
0
 40
1
 40
1
 40
1
 40
1
 10
295.302432
 20
66.835541
 30
0.0
 10
312.382747
 20
74.913299
 30
0.0
 10
314.398378
 20
100.365290
 30
0.0
 10
298.782006
 20
111.033999
 30
0.0
  0
LINE
  5
157
100
AcDbEntity
  8
0
 62
7
100
AcDbLine
 10
298.782006
 20
111.033999
 30
0.0
 11
298.782006
 21
111.033999
 31
0.0
  0
SPLINE
  5
158
100
AcDbEntity
  8
0
 62
7
100
AcDbSpline
 70
8
 71
3
 72
8
 73
4
 74
0
 40
0
 40
0
 40
0
 40
0
 40
1
 40
1
 40
1
 40
1
 10
-298.782006
 20
68.965500
 30
0.0
 10
-283.527302
 20
56.750891
 30
0.0
 10
-258.196328
 20
68.430469
 30
0.0
 10
-257.581061
 20
87.963311
 30
0.0
  0
SPLINE
  5
159
100
AcDbEntity
  8
0
 62
7
100
AcDbSpline
 70
8
 71
3
 72
8
 73
4
 74
0
 40
0
 40
0
 40
0
 40
0
 40
1
 40
1
 40
1
 40
1
 10
-257.581061
 20
87.963311
 30
0.0
 10
-255.137643
 20
107.347863
 30
0.0
 10
-278.329746
 20
122.845024
 30
0.0
 10
-295.302432
 20
113.163927
 30
0.0
  0
SPLINE
  5
15a
100
AcDbEntity
  8
0
 62
7
100
AcDbSpline
 70
8
 71
3
 72
8
 73
4
 74
0
 40
0
 40
0
 40
0
 40
0
 40
1
 40
1
 40
1
 40
1
 10
-295.302432
 20
113.163927
 30
0.0
 10
-312.383057
 20
105.086236
 30
0.0
 10
-314.398124
 20
79.634364
 30
0.0
 10
-298.782006
 20
68.965500
 30
0.0
  0
LINE
  5
15b
100
AcDbEntity
  8
0
 62
7
100
AcDbLine
 10
-298.782006
 20
68.965500
 30
0.0
 11
-298.782006
 21
68.965500
 31
0.0
  0
SPLINE
  5
15c
100
AcDbEntity
  8
0
 62
7
100
AcDbSpline
 70
8
 71
3
 72
8
 73
4
 74
0
 40
0
 40
0
 40
0
 40
0
 40
1
 40
1
 40
1
 40
1
 10
52.534399
 20
105.281999
 30
0.0
 10
41.800842
 20
121.612856
 30
0.0
 10
14.099955
 20
118.333456
 30
0.0
 10
7.478912
 20
99.946258
 30
0.0
  0
SPLINE
  5
15d
100
AcDbEntity
  8
0
 62
7
100
AcDbSpline
 70
8
 71
3
 72
8
 73
4
 74
0
 40
0
 40
0
 40
0
 40
0
 40
1
 40
1
 40
1
 40
1
 10
7.478912
 20
99.946258
 30
0.0
 10
-0.836120
 20
82.264847
 30
0.0
 10
16.433160
 20
60.360209
 30
0.0
 10
35.566965
 20
64.322041
 30
0.0
  0
SPLINE
  5
15e
100
AcDbEntity
  8
0
 62
7
100
AcDbSpline
 70
8
 71
3
 72
8
 73
4
 74
0
 40
0
 40
0
 40
0
 40
0
 40
1
 40
1
 40
1
 40
1
 10
35.566965
 20
64.322041
 30
0.0
 10
54.307119
 20
66.725897
 30
0.0
 10
64.089698
 20
90.310342
 30
0.0
 10
52.534399
 20
105.281999
 30
0.0
  0
LINE
  5
15f
100
AcDbEntity
  8
0
 62
7
100
AcDbLine
 10
52.534399
 20
105.281999
 30
0.0
 11
52.534399
 21
105.281999
 31
0.0
  0
SPLINE
  5
160
100
AcDbEntity
  8
0
 62
7
100
AcDbSpline
 70
8
 71
3
 72
8
 73
4
 74
0
 40
0
 40
0
 40
0
 40
0
 40
1
 40
1
 40
1
 40
1
 10
-69.772499
 20
81.965499
 30
0.0
 10
-62.869600
 20
100.247638
 30
0.0
 10
-81.805388
 20
120.731216
 30
0.0
 10
-100.572099
 20
115.279414
 30
0.0
  0
SPLINE
  5
161
100
AcDbEntity
  8
0
 62
7
100
AcDbSpline
 70
8
 71
3
 72
8
 73
4
 74
0
 40
0
 40
0
 40
0
 40
0
 40
1
 40
1
 40
1
 40
1
 10
-100.572099
 20
115.279414
 30
0.0
 10
-119.763915
 20
111.613201
 30
0.0
 10
-127.335094
 20
84.767588
 30
0.0
 10
-112.882957
 20
71.616597
 30
0.0
  0
SPLINE
  5
162
100
AcDbEntity
  8
0
 62
7
100
AcDbSpline
 70
8
 71
3
 72
8
 73
4
 74
0
 40
0
 40
0
 40
0
 40
0
 40
1
 40
1
 40
1
 40
1
 10
-112.882957
 20
71.616597
 30
0.0
 10
-99.922776
 20
57.868237
 30
0.0
 10
-75.093232
 20
63.817208
 30
0.0
 10
-69.772499
 20
81.965499
 30
0.0
  0
LINE
  5
163
100
AcDbEntity
  8
0
 62
7
100
AcDbLine
 10
-69.772499
 20
81.965499
 30
0.0
 11
-69.772499
 21
81.965499
 31
0.0
  0
SPLINE
  5
164
100
AcDbEntity
  8
0
 62
7
100
AcDbSpline
 70
8
 71
3
 72
8
 73
4
 74
0
 40
0
 40
0
 40
0
 40
0
 40
1
 40
1
 40
1
 40
1
 10
235.782000
 20
68.965500
 30
0.0
 10
252.112825
 20
79.699032
 30
0.0
 10
248.833550
 20
107.400072
 30
0.0
 10
230.445942
 20
114.020570
 30
0.0
  0
SPLINE
  5
165
100
AcDbEntity
  8
0
 62
7
100
AcDbSpline
 70
8
 71
3
 72
8
 73
4
 74
0
 40
0
 40
0
 40
0
 40
0
 40
1
 40
1
 40
1
 40
1
 10
230.445942
 20
114.020570
 30
0.0
 10
212.765155
 20
122.336115
 30
0.0
 10
190.860765
 20
105.065814
 30
0.0
 10
194.822250
 20
85.932974
 30
0.0
  0
SPLINE
  5
166
100
AcDbEntity
  8
0
 62
7
100
AcDbSpline
 70
8
 71
3
 72
8
 73
4
 74
0
 40
0
 40
0
 40
0
 40
0
 40
1
 40
1
 40
1
 40
1
 10
194.822250
 20
85.932974
 30
0.0
 10
197.226908
 20
67.192947
 30
0.0
 10
220.809831
 20
57.410487
 30
0.0
 10
235.782000
 20
68.965500
 30
0.0
  0
LINE
  5
167
100
AcDbEntity
  8
0
 62
7
100
AcDbLine
 10
235.782000
 20
68.965500
 30
0.0
 11
235.782000
 21
68.965500
 31
0.0
  0
SPLINE
  5
168
100
AcDbEntity
  8
0
 62
7
100
AcDbSpline
 70
8
 71
3
 72
8
 73
4
 74
0
 40
0
 40
0
 40
0
 40
0
 40
1
 40
1
 40
1
 40
1
 10
-16.217600
 20
68.965500
 30
0.0
 10
0.113036
 20
79.698834
 30
0.0
 10
-3.166045
 20
107.400196
 30
0.0
 10
-21.553580
 20
114.020573
 30
0.0
  0
SPLINE
  5
169
100
AcDbEntity
  8
0
 62
7
100
AcDbSpline
 70
8
 71
3
 72
8
 73
4
 74
0
 40
0
 40
0
 40
0
 40
0
 40
1
 40
1
 40
1
 40
1
 10
-21.553580
 20
114.020573
 30
0.0
 10
-39.234553
 20
122.336149
 30
0.0
 10
-61.139742
 20
105.066466
 30
0.0
 10
-57.177974
 20
85.932982
 30
0.0
  0
SPLINE
  5
16a
100
AcDbEntity
  8
0
 62
7
100
AcDbSpline
 70
8
 71
3
 72
8
 73
4
 74
0
 40
0
 40
0
 40
0
 40
0
 40
1
 40
1
 40
1
 40
1
 10
-57.177974
 20
85.932982
 30
0.0
 10
-54.773867
 20
67.192521
 30
0.0
 10
-31.189614
 20
57.410583
 30
0.0
 10
-16.217600
 20
68.965500
 30
0.0
  0
LINE
  5
16b
100
AcDbEntity
  8
0
 62
7
100
AcDbLine
 10
-16.217600
 20
68.965500
 30
0.0
 11
-16.217600
 21
68.965500
 31
0.0
  0
SPLINE
  5
16c
100
AcDbEntity
  8
0
 62
7
100
AcDbSpline
 70
8
 71
3
 72
8
 73
4
 74
0
 40
0
 40
0
 40
0
 40
0
 40
1
 40
1
 40
1
 40
1
 10
165.533999
 20
114.727001
 30
0.0
 10
147.252363
 20
121.630145
 30
0.0
 10
126.768623
 20
102.693776
 30
0.0
 10
132.220564
 20
83.927522
 30
0.0
  0
SPLINE
  5
16d
100
AcDbEntity
  8
0
 62
7
100
AcDbSpline
 70
8
 71
3
 72
8
 73
4
 74
0
 40
0
 40
0
 40
0
 40
0
 40
1
 40
1
 40
1
 40
1
 10
132.220564
 20
83.927522
 30
0.0
 10
135.886534
 20
64.735838
 30
0.0
 10
162.732175
 20
57.164787
 30
0.0
 10
175.882958
 20
71.616597
 30
0.0
  0
SPLINE
  5
16e
100
AcDbEntity
  8
0
 62
7
100
AcDbSpline
 70
8
 71
3
 72
8
 73
4
 74
0
 40
0
 40
0
 40
0
 40
0
 40
1
 40
1
 40
1
 40
1
 10
175.882958
 20
71.616597
 30
0.0
 10
189.631661
 20
84.577147
 30
0.0
 10
183.682471
 20
109.406006
 30
0.0
 10
165.533999
 20
114.727001
 30
0.0
  0
LINE
  5
16f
100
AcDbEntity
  8
0
 62
7
100
AcDbLine
 10
165.533999
 20
114.727001
 30
0.0
 11
165.533999
 21
114.727001
 31
0.0
  0
SPLINE
  5
170
100
AcDbEntity
  8
0
 62
7
100
AcDbSpline
 70
8
 71
3
 72
8
 73
4
 74
0
 40
0
 40
0
 40
0
 40
0
 40
1
 40
1
 40
1
 40
1
 10
-195.773000
 20
81.965499
 30
0.0
 10
-188.869614
 20
100.247155
 30
0.0
 10
-207.805754
 20
120.731126
 30
0.0
 10
-226.572098
 20
115.279417
 30
0.0
  0
SPLINE
  5
171
100
AcDbEntity
  8
0
 62
7
100
AcDbSpline
 70
8
 71
3
 72
8
 73
4
 74
0
 40
0
 40
0
 40
0
 40
0
 40
1
 40
1
 40
1
 40
1
 10
-226.572098
 20
115.279417
 30
0.0
 10
-245.763915
 20
111.613195
 30
0.0
 10
-253.335099
 20
84.767591
 30
0.0
 10
-238.882956
 20
71.616597
 30
0.0
  0
SPLINE
  5
172
100
AcDbEntity
  8
0
 62
7
100
AcDbSpline
 70
8
 71
3
 72
8
 73
4
 74
0
 40
0
 40
0
 40
0
 40
0
 40
1
 40
1
 40
1
 40
1
 10
-238.882956
 20
71.616597
 30
0.0
 10
-225.922843
 20
57.868234
 30
0.0
 10
-201.093674
 20
63.817321
 30
0.0
 10
-195.773000
 20
81.965499
 30
0.0
  0
LINE
  5
173
100
AcDbEntity
  8
0
 62
7
100
AcDbLine
 10
-195.773000
 20
81.965499
 30
0.0
 11
-195.773000
 21
81.965499
 31
0.0
  0
SPLINE
  5
174
100
AcDbEntity
  8
0
 62
7
100
AcDbSpline
 70
8
 71
3
 72
8
 73
4
 74
0
 40
0
 40
0
 40
0
 40
0
 40
1
 40
1
 40
1
 40
1
 10
79.217599
 20
68.965500
 30
0.0
 10
94.472362
 20
56.750883
 30
0.0
 10
119.803658
 20
68.430277
 30
0.0
 10
120.418936
 20
87.963311
 30
0.0
  0
SPLINE
  5
175
100
AcDbEntity
  8
0
 62
7
100
AcDbSpline
 70
8
 71
3
 72
8
 73
4
 74
0
 40
0
 40
0
 40
0
 40
0
 40
1
 40
1
 40
1
 40
1
 10
120.418936
 20
87.963311
 30
0.0
 10
122.862365
 20
107.348112
 30
0.0
 10
99.669908
 20
122.845058
 30
0.0
 10
82.697134
 20
113.163924
 30
0.0
  0
SPLINE
  5
176
100
AcDbEntity
  8
0
 62
7
100
AcDbSpline
 70
8
 71
3
 72
8
 73
4
 74
0
 40
0
 40
0
 40
0
 40
0
 40
1
 40
1
 40
1
 40
1
 10
82.697134
 20
113.163924
 30
0.0
 10
65.616588
 20
105.086586
 30
0.0
 10
63.601631
 20
79.633957
 30
0.0
 10
79.217599
 20
68.965500
 30
0.0
  0
LINE
  5
177
100
AcDbEntity
  8
0
 62
7
100
AcDbLine
 10
79.217599
 20
68.965500
 30
0.0
 11
79.217599
 21
68.965500
 31
0.0
  0
SPLINE
  5
178
100
AcDbEntity
  8
0
 62
7
100
AcDbSpline
 70
8
 71
3
 72
8
 73
4
 74
0
 40
0
 40
0
 40
0
 40
0
 40
1
 40
1
 40
1
 40
1
 10
-246.500001
 20
30.000001
 30
0.0
 10
-247.499505
 20
10.509421
 30
0.0
 10
-222.955604
 20
-3.295677
 30
0.0
 10
-206.936207
 20
7.889241
 30
0.0
  0
SPLINE
  5
179
100
AcDbEntity
  8
0
 62
7
100
AcDbSpline
 70
8
 71
3
 72
8
 73
4
 74
0
 40
0
 40
0
 40
0
 40
0
 40
1
 40
1
 40
1
 40
1
 10
-206.936207
 20
7.889241
 30
0.0
 10
-189.769369
 20
17.259759
 30
0.0
 10
-190.871526
 20
45.105629
 30
0.0
 10
-208.697570
 20
53.164408
 30
0.0
  0
SPLINE
  5
17a
100
AcDbEntity
  8
0
 62
7
100
AcDbSpline
 70
8
 71
3
 72
8
 73
4
 74
0
 40
0
 40
0
 40
0
 40
0
 40
1
 40
1
 40
1
 40
1
 10
-208.697570
 20
53.164408
 30
0.0
 10
-225.272129
 20
62.235090
 30
0.0
 10
-247.046823
 20
48.903722
 30
0.0
 10
-246.500001
 20
30.000001
 30
0.0
  0
LINE
  5
17b
100
AcDbEntity
  8
0
 62
7
100
AcDbLine
 10
-246.500001
 20
30.000001
 30
0.0
 11
-246.500001
 21
30.000001
 31
0.0
  0
SPLINE
  5
17c
100
AcDbEntity
  8
0
 62
7
100
AcDbSpline
 70
8
 71
3
 72
8
 73
4
 74
0
 40
0
 40
0
 40
0
 40
0
 40
1
 40
1
 40
1
 40
1
 10
-165.533999
 20
54.727499
 30
0.0
 10
-184.382170
 20
49.565632
 30
0.0
 10
-189.824055
 20
22.206894
 30
0.0
 10
-174.382080
 20
10.228214
 30
0.0
  0
SPLINE
  5
17d
100
AcDbEntity
  8
0
 62
7
100
AcDbSpline
 70
8
 71
3
 72
8
 73
4
 74
0
 40
0
 40
0
 40
0
 40
0
 40
1
 40
1
 40
1
 40
1
 10
-174.382080
 20
10.228214
 30
0.0
 10
-160.135528
 20
-3.143870
 30
0.0
 10
-133.967530
 20
6.511856
 30
0.0
 10
-131.822249
 20
25.932975
 30
0.0
  0
SPLINE
  5
17e
100
AcDbEntity
  8
0
 62
7
100
AcDbSpline
 70
8
 71
3
 72
8
 73
4
 74
0
 40
0
 40
0
 40
0
 40
0
 40
1
 40
1
 40
1
 40
1
 10
-131.822249
 20
25.932975
 30
0.0
 10
-128.317710
 20
44.498332
 30
0.0
 10
-147.724472
 20
61.090315
 30
0.0
 10
-165.533999
 20
54.727499
 30
0.0
  0
LINE
  5
17f
100
AcDbEntity
  8
0
 62
7
100
AcDbLine
 10
-165.533999
 20
54.727499
 30
0.0
 11
-165.533999
 21
54.727499
 31
0.0
  0
SPLINE
  5
180
100
AcDbEntity
  8
0
 62
7
100
AcDbSpline
 70
8
 71
3
 72
8
 73
4
 74
0
 40
0
 40
0
 40
0
 40
0
 40
1
 40
1
 40
1
 40
1
 10
52.534399
 20
14.717608
 30
0.0
 10
64.749155
 20
29.972106
 30
0.0
 10
53.069933
 20
55.304499
 30
0.0
 10
33.536650
 20
55.919002
 30
0.0
  0
SPLINE
  5
181
100
AcDbEntity
  8
0
 62
7
100
AcDbSpline
 70
8
 71
3
 72
8
 73
4
 74
0
 40
0
 40
0
 40
0
 40
0
 40
1
 40
1
 40
1
 40
1
 10
33.536650
 20
55.919002
 30
0.0
 10
14.151089
 20
58.363232
 30
0.0
 10
-1.344964
 20
35.170241
 30
0.0
 10
8.335552
 20
18.197120
 30
0.0
  0
SPLINE
  5
182
100
AcDbEntity
  8
0
 62
7
100
AcDbSpline
 70
8
 71
3
 72
8
 73
4
 74
0
 40
0
 40
0
 40
0
 40
0
 40
1
 40
1
 40
1
 40
1
 10
8.335552
 20
18.197120
 30
0.0
 10
16.413091
 20
1.116783
 30
0.0
 10
41.865925
 20
-0.898481
 30
0.0
 10
52.534399
 20
14.717608
 30
0.0
  0
LINE
  5
183
100
AcDbEntity
  8
0
 62
7
100
AcDbLine
 10
52.534399
 20
14.717608
 30
0.0
 11
52.534399
 21
14.717608
 31
0.0
  0
SPLINE
  5
184
100
AcDbEntity
  8
0
 62
7
100
AcDbSpline
 70
8
 71
3
 72
8
 73
4
 74
0
 40
0
 40
0
 40
0
 40
0
 40
1
 40
1
 40
1
 40
1
 10
109.782000
 20
51.034401
 30
0.0
 10
94.527579
 20
63.249128
 30
0.0
 10
69.195405
 20
51.569799
 30
0.0
 10
68.580999
 20
32.036652
 30
0.0
  0
SPLINE
  5
185
100
AcDbEntity
  8
0
 62
7
100
AcDbSpline
 70
8
 71
3
 72
8
 73
4
 74
0
 40
0
 40
0
 40
0
 40
0
 40
1
 40
1
 40
1
 40
1
 10
68.580999
 20
32.036652
 30
0.0
 10
66.136718
 20
12.651318
 30
0.0
 10
89.329441
 20
-2.844968
 30
0.0
 10
106.302429
 20
6.835565
 30
0.0
  0
SPLINE
  5
186
100
AcDbEntity
  8
0
 62
7
100
AcDbSpline
 70
8
 71
3
 72
8
 73
4
 74
0
 40
0
 40
0
 40
0
 40
0
 40
1
 40
1
 40
1
 40
1
 10
106.302429
 20
6.835565
 30
0.0
 10
123.382921
 20
14.913383
 30
0.0
 10
125.398262
 20
40.365583
 30
0.0
 10
109.782000
 20
51.034401
 30
0.0
  0
LINE
  5
187
100
AcDbEntity
  8
0
 62
7
100
AcDbLine
 10
109.782000
 20
51.034401
 30
0.0
 11
109.782000
 21
51.034401
 31
0.0
  0
SPLINE
  5
188
100
AcDbEntity
  8
0
 62
7
100
AcDbSpline
 70
8
 71
3
 72
8
 73
4
 74
0
 40
0
 40
0
 40
0
 40
0
 40
1
 40
1
 40
1
 40
1
 10
178.534001
 20
45.282399
 30
0.0
 10
167.800771
 20
61.613097
 30
0.0
 10
140.099711
 20
58.333670
 30
0.0
 10
133.479427
 20
39.946344
 30
0.0
  0
SPLINE
  5
189
100
AcDbEntity
  8
0
 62
7
100
AcDbSpline
 70
8
 71
3
 72
8
 73
4
 74
0
 40
0
 40
0
 40
0
 40
0
 40
1
 40
1
 40
1
 40
1
 10
133.479427
 20
39.946344
 30
0.0
 10
125.163854
 20
22.265435
 30
0.0
 10
142.433415
 20
0.360512
 30
0.0
 10
161.566764
 20
4.322065
 30
0.0
  0
SPLINE
  5
18a
100
AcDbEntity
  8
0
 62
7
100
AcDbSpline
 70
8
 71
3
 72
8
 73
4
 74
0
 40
0
 40
0
 40
0
 40
0
 40
1
 40
1
 40
1
 40
1
 10
161.566764
 20
4.322065
 30
0.0
 10
180.306926
 20
6.726373
 30
0.0
 10
190.089434
 20
30.310482
 30
0.0
 10
178.534001
 20
45.282399
 30
0.0
  0
LINE
  5
18b
100
AcDbEntity
  8
0
 62
7
100
AcDbLine
 10
178.534001
 20
45.282399
 30
0.0
 11
178.534001
 21
45.282399
 31
0.0
  0
SPLINE
  5
18c
100
AcDbEntity
  8
0
 62
7
100
AcDbSpline
 70
8
 71
3
 72
8
 73
4
 74
0
 40
0
 40
0
 40
0
 40
0
 40
1
 40
1
 40
1
 40
1
 10
241.533999
 20
45.282399
 30
0.0
 10
230.800772
 20
61.613097
 30
0.0
 10
203.099710
 20
58.333670
 30
0.0
 10
196.479425
 20
39.946344
 30
0.0
  0
SPLINE
  5
18d
100
AcDbEntity
  8
0
 62
7
100
AcDbSpline
 70
8
 71
3
 72
8
 73
4
 74
0
 40
0
 40
0
 40
0
 40
0
 40
1
 40
1
 40
1
 40
1
 10
196.479425
 20
39.946344
 30
0.0
 10
188.163855
 20
22.265432
 30
0.0
 10
205.433414
 20
0.360512
 30
0.0
 10
224.566765
 20
4.322065
 30
0.0
  0
SPLINE
  5
18e
100
AcDbEntity
  8
0
 62
7
100
AcDbSpline
 70
8
 71
3
 72
8
 73
4
 74
0
 40
0
 40
0
 40
0
 40
0
 40
1
 40
1
 40
1
 40
1
 10
224.566765
 20
4.322065
 30
0.0
 10
243.306925
 20
6.726373
 30
0.0
 10
253.089438
 20
30.310485
 30
0.0
 10
241.533999
 20
45.282399
 30
0.0
  0
LINE
  5
18f
100
AcDbEntity
  8
0
 62
7
100
AcDbLine
 10
241.533999
 20
45.282399
 30
0.0
 11
241.533999
 21
45.282399
 31
0.0
  0
SPLINE
  5
190
100
AcDbEntity
  8
0
 62
7
100
AcDbSpline
 70
8
 71
3
 72
8
 73
4
 74
0
 40
0
 40
0
 40
0
 40
0
 40
1
 40
1
 40
1
 40
1
 10
-298.782006
 20
8.965552
 30
0.0
 10
-283.527359
 20
-3.249138
 30
0.0
 10
-258.196334
 20
8.430515
 30
0.0
 10
-257.581061
 20
27.963313
 30
0.0
  0
SPLINE
  5
191
100
AcDbEntity
  8
0
 62
7
100
AcDbSpline
 70
8
 71
3
 72
8
 73
4
 74
0
 40
0
 40
0
 40
0
 40
0
 40
1
 40
1
 40
1
 40
1
 10
-257.581061
 20
27.963313
 30
0.0
 10
-255.137564
 20
47.348226
 30
0.0
 10
-278.329362
 20
62.845068
 30
0.0
 10
-295.302432
 20
53.164405
 30
0.0
  0
SPLINE
  5
192
100
AcDbEntity
  8
0
 62
7
100
AcDbSpline
 70
8
 71
3
 72
8
 73
4
 74
0
 40
0
 40
0
 40
0
 40
0
 40
1
 40
1
 40
1
 40
1
 10
-295.302432
 20
53.164405
 30
0.0
 10
-312.382916
 20
45.086556
 30
0.0
 10
-314.398265
 20
19.634413
 30
0.0
 10
-298.782006
 20
8.965552
 30
0.0
  0
LINE
  5
193
100
AcDbEntity
  8
0
 62
7
100
AcDbLine
 10
-298.782006
 20
8.965552
 30
0.0
 11
-298.782006
 21
8.965552
 31
0.0
  0
SPLINE
  5
194
100
AcDbEntity
  8
0
 62
7
100
AcDbSpline
 70
8
 71
3
 72
8
 73
4
 74
0
 40
0
 40
0
 40
0
 40
0
 40
1
 40
1
 40
1
 40
1
 10
268.218000
 20
8.965552
 30
0.0
 10
283.472636
 20
-3.249138
 30
0.0
 10
308.803661
 20
8.430515
 30
0.0
 10
309.418934
 20
27.963313
 30
0.0
  0
SPLINE
  5
195
100
AcDbEntity
  8
0
 62
7
100
AcDbSpline
 70
8
 71
3
 72
8
 73
4
 74
0
 40
0
 40
0
 40
0
 40
0
 40
1
 40
1
 40
1
 40
1
 10
309.418934
 20
27.963313
 30
0.0
 10
311.862414
 20
47.348232
 30
0.0
 10
288.670661
 20
62.845068
 30
0.0
 10
271.697571
 20
53.164405
 30
0.0
  0
SPLINE
  5
196
100
AcDbEntity
  8
0
 62
7
100
AcDbSpline
 70
8
 71
3
 72
8
 73
4
 74
0
 40
0
 40
0
 40
0
 40
0
 40
1
 40
1
 40
1
 40
1
 10
271.697571
 20
53.164405
 30
0.0
 10
254.617082
 20
45.086551
 30
0.0
 10
252.601733
 20
19.634416
 30
0.0
 10
268.218000
 20
8.965552
 30
0.0
  0
LINE
  5
197
100
AcDbEntity
  8
0
 62
7
100
AcDbLine
 10
268.218000
 20
8.965552
 30
0.0
 11
268.218000
 21
8.965552
 31
0.0
  0
SPLINE
  5
198
100
AcDbEntity
  8
0
 62
7
100
AcDbSpline
 70
8
 71
3
 72
8
 73
4
 74
0
 40
0
 40
0
 40
0
 40
0
 40
1
 40
1
 40
1
 40
1
 10
-102.534000
 20
5.272533
 30
0.0
 10
-84.251665
 20
-1.630199
 30
0.0
 10
-63.768472
 20
17.305397
 30
0.0
 10
-69.220184
 20
36.072398
 30
0.0
  0
SPLINE
  5
199
100
AcDbEntity
  8
0
 62
7
100
AcDbSpline
 70
8
 71
3
 72
8
 73
4
 74
0
 40
0
 40
0
 40
0
 40
0
 40
1
 40
1
 40
1
 40
1
 10
-69.220184
 20
36.072398
 30
0.0
 10
-72.885975
 20
55.264288
 30
0.0
 10
-99.732149
 20
62.835233
 30
0.0
 10
-112.882954
 20
48.383352
 30
0.0
  0
SPLINE
  5
19a
100
AcDbEntity
  8
0
 62
7
100
AcDbSpline
 70
8
 71
3
 72
8
 73
4
 74
0
 40
0
 40
0
 40
0
 40
0
 40
1
 40
1
 40
1
 40
1
 10
-112.882954
 20
48.383352
 30
0.0
 10
-126.631652
 20
35.422850
 30
0.0
 10
-120.682467
 20
10.593523
 30
0.0
 10
-102.534000
 20
5.272533
 30
0.0
  0
LINE
  5
19b
100
AcDbEntity
  8
0
 62
7
100
AcDbLine
 10
-102.534000
 20
5.272533
 30
0.0
 11
-102.534000
 21
5.272533
 31
0.0
  0
SPLINE
  5
19c
100
AcDbEntity
  8
0
 62
7
100
AcDbSpline
 70
8
 71
3
 72
8
 73
4
 74
0
 40
0
 40
0
 40
0
 40
0
 40
1
 40
1
 40
1
 40
1
 10
-10.465500
 20
45.282399
 30
0.0
 10
-21.199047
 20
61.613128
 30
0.0
 10
-48.900430
 20
58.333839
 30
0.0
 10
-55.521087
 20
39.946358
 30
0.0
  0
SPLINE
  5
19d
100
AcDbEntity
  8
0
 62
7
100
AcDbSpline
 70
8
 71
3
 72
8
 73
4
 74
0
 40
0
 40
0
 40
0
 40
0
 40
1
 40
1
 40
1
 40
1
 10
-55.521087
 20
39.946358
 30
0.0
 10
-63.836161
 20
22.264908
 30
0.0
 10
-46.566791
 20
0.360258
 30
0.0
 10
-27.432982
 20
4.322037
 30
0.0
  0
SPLINE
  5
19e
100
AcDbEntity
  8
0
 62
7
100
AcDbSpline
 70
8
 71
3
 72
8
 73
4
 74
0
 40
0
 40
0
 40
0
 40
0
 40
1
 40
1
 40
1
 40
1
 10
-27.432982
 20
4.322037
 30
0.0
 10
-8.692448
 20
6.726119
 30
0.0
 10
1.089346
 20
30.310346
 30
0.0
 10
-10.465500
 20
45.282399
 30
0.0
  0
LINE
  5
19f
100
AcDbEntity
  8
0
 62
7
100
AcDbLine
 10
-10.465500
 20
45.282399
 30
0.0
 11
-10.465500
 21
45.282399
 31
0.0
  0
SPLINE
  5
1a0
100
AcDbEntity
  8
0
 62
7
100
AcDbSpline
 70
8
 71
3
 72
8
 73
4
 74
0
 40
0
 40
0
 40
0
 40
0
 40
1
 40
1
 40
1
 40
1
 10
-86.465500
 20
-54.727488
 30
0.0
 10
-67.617343
 20
-49.565756
 30
0.0
 10
-62.175788
 20
-22.206739
 30
0.0
 10
-77.617501
 20
-10.228212
 30
0.0
  0
SPLINE
  5
1a1
100
AcDbEntity
  8
0
 62
7
100
AcDbSpline
 70
8
 71
3
 72
8
 73
4
 74
0
 40
0
 40
0
 40
0
 40
0
 40
1
 40
1
 40
1
 40
1
 10
-77.617501
 20
-10.228212
 30
0.0
 10
-91.864121
 20
3.143844
 30
0.0
 10
-118.032437
 20
-6.511656
 30
0.0
 10
-120.177749
 20
-25.932975
 30
0.0
  0
SPLINE
  5
1a2
100
AcDbEntity
  8
0
 62
7
100
AcDbSpline
 70
8
 71
3
 72
8
 73
4
 74
0
 40
0
 40
0
 40
0
 40
0
 40
1
 40
1
 40
1
 40
1
 10
-120.177749
 20
-25.932975
 30
0.0
 10
-123.682323
 20
-44.498654
 30
0.0
 10
-104.275179
 20
-61.090385
 30
0.0
 10
-86.465500
 20
-54.727488
 30
0.0
  0
LINE
  5
1a3
100
AcDbEntity
  8
0
 62
7
100
AcDbLine
 10
-86.465500
 20
-54.727488
 30
0.0
 11
-86.465500
 21
-54.727488
 31
0.0
  0
SPLINE
  5
1a4
100
AcDbEntity
  8
0
 62
7
100
AcDbSpline
 70
8
 71
3
 72
8
 73
4
 74
0
 40
0
 40
0
 40
0
 40
0
 40
1
 40
1
 40
1
 40
1
 10
-268.218000
 20
-51.034412
 30
0.0
 10
-251.887087
 20
-40.300852
 30
0.0
 10
-255.166523
 20
-12.599612
 30
0.0
 10
-273.554043
 20
-5.978933
 30
0.0
  0
SPLINE
  5
1a5
100
AcDbEntity
  8
0
 62
7
100
AcDbSpline
 70
8
 71
3
 72
8
 73
4
 74
0
 40
0
 40
0
 40
0
 40
0
 40
1
 40
1
 40
1
 40
1
 10
-273.554043
 20
-5.978933
 30
0.0
 10
-291.235271
 20
2.336096
 30
0.0
 10
-313.139243
 20
-14.933788
 30
0.0
 10
-309.177718
 20
-34.066987
 30
0.0
  0
SPLINE
  5
1a6
100
AcDbEntity
  8
0
 62
7
100
AcDbSpline
 70
8
 71
3
 72
8
 73
4
 74
0
 40
0
 40
0
 40
0
 40
0
 40
1
 40
1
 40
1
 40
1
 10
-309.177718
 20
-34.066987
 30
0.0
 10
-306.773157
 20
-52.806937
 30
0.0
 10
-283.190075
 20
-62.589634
 30
0.0
 10
-268.218000
 20
-51.034412
 30
0.0
  0
LINE
  5
1a7
100
AcDbEntity
  8
0
 62
7
100
AcDbLine
 10
-268.218000
 20
-51.034412
 30
0.0
 11
-268.218000
 21
-51.034412
 31
0.0
  0
SPLINE
  5
1a8
100
AcDbEntity
  8
0
 62
7
100
AcDbSpline
 70
8
 71
3
 72
8
 73
4
 74
0
 40
0
 40
0
 40
0
 40
0
 40
1
 40
1
 40
1
 40
1
 10
283.500012
 20
-56.000000
 30
0.0
 10
303.020335
 20
-56.915020
 30
0.0
 10
316.650314
 20
-32.576628
 30
0.0
 10
305.665576
 20
-16.412886
 30
0.0
  0
SPLINE
  5
1a9
100
AcDbEntity
  8
0
 62
7
100
AcDbSpline
 70
8
 71
3
 72
8
 73
4
 74
0
 40
0
 40
0
 40
0
 40
0
 40
1
 40
1
 40
1
 40
1
 10
305.665576
 20
-16.412886
 30
0.0
 10
296.248723
 20
0.706968
 30
0.0
 10
268.377258
 20
-0.388957
 30
0.0
 10
260.336075
 20
-18.197123
 30
0.0
  0
SPLINE
  5
1aa
100
AcDbEntity
  8
0
 62
7
100
AcDbSpline
 70
8
 71
3
 72
8
 73
4
 74
0
 40
0
 40
0
 40
0
 40
0
 40
1
 40
1
 40
1
 40
1
 10
260.336075
 20
-18.197123
 30
0.0
 10
251.264908
 20
-34.771103
 30
0.0
 10
264.596214
 20
-56.547652
 30
0.0
 10
283.500012
 20
-56.000000
 30
0.0
  0
LINE
  5
1ab
100
AcDbEntity
  8
0
 62
7
100
AcDbLine
 10
283.500012
 20
-56.000000
 30
0.0
 11
283.500012
 21
-56.000000
 31
0.0
  0
SPLINE
  5
1ac
100
AcDbEntity
  8
0
 62
7
100
AcDbSpline
 70
8
 71
3
 72
8
 73
4
 74
0
 40
0
 40
0
 40
0
 40
0
 40
1
 40
1
 40
1
 40
1
 10
120.499999
 20
-29.999995
 30
0.0
 10
121.414498
 20
-10.479615
 30
0.0
 10
97.077067
 20
3.150420
 30
0.0
 10
80.912888
 20
-7.833951
 30
0.0
  0
SPLINE
  5
1ad
100
AcDbEntity
  8
0
 62
7
100
AcDbSpline
 70
8
 71
3
 72
8
 73
4
 74
0
 40
0
 40
0
 40
0
 40
0
 40
1
 40
1
 40
1
 40
1
 10
80.912888
 20
-7.833951
 30
0.0
 10
63.792924
 20
-17.251058
 30
0.0
 10
64.888832
 20
-45.122958
 30
0.0
 10
82.697122
 20
-53.164428
 30
0.0
  0
SPLINE
  5
1ae
100
AcDbEntity
  8
0
 62
7
100
AcDbSpline
 70
8
 71
3
 72
8
 73
4
 74
0
 40
0
 40
0
 40
0
 40
0
 40
1
 40
1
 40
1
 40
1
 10
82.697122
 20
-53.164428
 30
0.0
 10
99.271802
 20
-62.235050
 30
0.0
 10
121.046824
 20
-48.904002
 30
0.0
 10
120.499999
 20
-29.999995
 30
0.0
  0
LINE
  5
1af
100
AcDbEntity
  8
0
 62
7
100
AcDbLine
 10
120.499999
 20
-29.999995
 30
0.0
 11
120.499999
 21
-29.999995
 31
0.0
  0
SPLINE
  5
1b0
100
AcDbEntity
  8
0
 62
7
100
AcDbSpline
 70
8
 71
3
 72
8
 73
4
 74
0
 40
0
 40
0
 40
0
 40
0
 40
1
 40
1
 40
1
 40
1
 10
-149.466001
 20
-54.727488
 30
0.0
 10
-130.617818
 20
-49.565643
 30
0.0
 10
-125.175950
 20
-22.206880
 30
0.0
 10
-140.617922
 20
-10.228212
 30
0.0
  0
SPLINE
  5
1b1
100
AcDbEntity
  8
0
 62
7
100
AcDbSpline
 70
8
 71
3
 72
8
 73
4
 74
0
 40
0
 40
0
 40
0
 40
0
 40
1
 40
1
 40
1
 40
1
 10
-140.617922
 20
-10.228212
 30
0.0
 10
-154.864477
 20
3.143872
 30
0.0
 10
-181.032469
 20
-6.511853
 30
0.0
 10
-183.177750
 20
-25.932975
 30
0.0
  0
SPLINE
  5
1b2
100
AcDbEntity
  8
0
 62
7
100
AcDbSpline
 70
8
 71
3
 72
8
 73
4
 74
0
 40
0
 40
0
 40
0
 40
0
 40
1
 40
1
 40
1
 40
1
 10
-183.177750
 20
-25.932975
 30
0.0
 10
-186.682298
 20
-44.498343
 30
0.0
 10
-167.275524
 20
-61.090329
 30
0.0
 10
-149.466001
 20
-54.727488
 30
0.0
  0
LINE
  5
1b3
100
AcDbEntity
  8
0
 62
7
100
AcDbLine
 10
-149.466001
 20
-54.727488
 30
0.0
 11
-149.466001
 21
-54.727488
 31
0.0
  0
SPLINE
  5
1b4
100
AcDbEntity
  8
0
 62
7
100
AcDbSpline
 70
8
 71
3
 72
8
 73
4
 74
0
 40
0
 40
0
 40
0
 40
0
 40
1
 40
1
 40
1
 40
1
 10
228.534000
 20
-54.727488
 30
0.0
 10
247.382182
 20
-49.565643
 30
0.0
 10
252.824051
 20
-22.206880
 30
0.0
 10
237.382078
 20
-10.228212
 30
0.0
  0
SPLINE
  5
1b5
100
AcDbEntity
  8
0
 62
7
100
AcDbSpline
 70
8
 71
3
 72
8
 73
4
 74
0
 40
0
 40
0
 40
0
 40
0
 40
1
 40
1
 40
1
 40
1
 10
237.382078
 20
-10.228212
 30
0.0
 10
223.135523
 20
3.143872
 30
0.0
 10
196.967529
 20
-6.511853
 30
0.0
 10
194.822250
 20
-25.932975
 30
0.0
  0
SPLINE
  5
1b6
100
AcDbEntity
  8
0
 62
7
100
AcDbSpline
 70
8
 71
3
 72
8
 73
4
 74
0
 40
0
 40
0
 40
0
 40
0
 40
1
 40
1
 40
1
 40
1
 10
194.822250
 20
-25.932975
 30
0.0
 10
191.317702
 20
-44.498343
 30
0.0
 10
210.724476
 20
-61.090329
 30
0.0
 10
228.534000
 20
-54.727488
 30
0.0
  0
LINE
  5
1b7
100
AcDbEntity
  8
0
 62
7
100
AcDbLine
 10
228.534000
 20
-54.727488
 30
0.0
 11
228.534000
 21
-54.727488
 31
0.0
  0
SPLINE
  5
1b8
100
AcDbEntity
  8
0
 62
7
100
AcDbSpline
 70
8
 71
3
 72
8
 73
4
 74
0
 40
0
 40
0
 40
0
 40
0
 40
1
 40
1
 40
1
 40
1
 10
136.466001
 20
-14.717605
 30
0.0
 10
124.250998
 20
-29.972027
 30
0.0
 10
135.930451
 20
-55.304152
 30
0.0
 10
155.463449
 20
-55.919002
 30
0.0
  0
SPLINE
  5
1b9
100
AcDbEntity
  8
0
 62
7
100
AcDbSpline
 70
8
 71
3
 72
8
 73
4
 74
0
 40
0
 40
0
 40
0
 40
0
 40
1
 40
1
 40
1
 40
1
 10
155.463449
 20
-55.919002
 30
0.0
 10
174.848543
 20
-58.362877
 30
0.0
 10
190.345001
 20
-35.169826
 30
0.0
 10
180.663926
 20
-18.197123
 30
0.0
  0
SPLINE
  5
1ba
100
AcDbEntity
  8
0
 62
7
100
AcDbSpline
 70
8
 71
3
 72
8
 73
4
 74
0
 40
0
 40
0
 40
0
 40
0
 40
1
 40
1
 40
1
 40
1
 10
180.663926
 20
-18.197123
 30
0.0
 10
172.586596
 20
-1.116865
 30
0.0
 10
147.134332
 20
0.898399
 30
0.0
 10
136.466001
 20
-14.717605
 30
0.0
  0
LINE
  5
1bb
100
AcDbEntity
  8
0
 62
7
100
AcDbLine
 10
136.466001
 20
-14.717605
 30
0.0
 11
136.466001
 21
-14.717605
 31
0.0
  0
SPLINE
  5
1bc
100
AcDbEntity
  8
0
 62
7
100
AcDbSpline
 70
8
 71
3
 72
8
 73
4
 74
0
 40
0
 40
0
 40
0
 40
0
 40
1
 40
1
 40
1
 40
1
 10
23.465500
 20
-54.727488
 30
0.0
 10
41.747996
 20
-61.630305
 30
0.0
 10
62.231524
 20
-42.694774
 30
0.0
 10
56.779829
 20
-23.927532
 30
0.0
  0
SPLINE
  5
1bd
100
AcDbEntity
  8
0
 62
7
100
AcDbSpline
 70
8
 71
3
 72
8
 73
4
 74
0
 40
0
 40
0
 40
0
 40
0
 40
1
 40
1
 40
1
 40
1
 10
56.779829
 20
-23.927532
 30
0.0
 10
53.113807
 20
-4.735546
 30
0.0
 10
26.267534
 20
2.835178
 30
0.0
 10
13.116596
 20
-11.616632
 30
0.0
  0
SPLINE
  5
1be
100
AcDbEntity
  8
0
 62
7
100
AcDbSpline
 70
8
 71
3
 72
8
 73
4
 74
0
 40
0
 40
0
 40
0
 40
0
 40
1
 40
1
 40
1
 40
1
 10
13.116596
 20
-11.616632
 30
0.0
 10
-0.631754
 20
-24.576898
 30
0.0
 10
5.317108
 20
-49.406639
 30
0.0
 10
23.465500
 20
-54.727488
 30
0.0
  0
LINE
  5
1bf
100
AcDbEntity
  8
0
 62
7
100
AcDbLine
 10
23.465500
 20
-54.727488
 30
0.0
 11
23.465500
 21
-54.727488
 31
0.0
  0
SPLINE
  5
1c0
100
AcDbEntity
  8
0
 62
7
100
AcDbSpline
 70
8
 71
3
 72
8
 73
4
 74
0
 40
0
 40
0
 40
0
 40
0
 40
1
 40
1
 40
1
 40
1
 10
-52.534399
 20
-45.282413
 30
0.0
 10
-41.800938
 20
-61.613146
 30
0.0
 10
-14.099437
 20
-58.333836
 30
0.0
 10
-7.478909
 20
-39.946353
 30
0.0
  0
SPLINE
  5
1c1
100
AcDbEntity
  8
0
 62
7
100
AcDbSpline
 70
8
 71
3
 72
8
 73
4
 74
0
 40
0
 40
0
 40
0
 40
0
 40
1
 40
1
 40
1
 40
1
 10
-7.478909
 20
-39.946353
 30
0.0
 10
0.836130
 20
-22.264905
 30
0.0
 10
-16.433128
 20
-0.360255
 30
0.0
 10
-35.566965
 20
-4.322034
 30
0.0
  0
SPLINE
  5
1c2
100
AcDbEntity
  8
0
 62
7
100
AcDbSpline
 70
8
 71
3
 72
8
 73
4
 74
0
 40
0
 40
0
 40
0
 40
0
 40
1
 40
1
 40
1
 40
1
 10
-35.566965
 20
-4.322034
 30
0.0
 10
-54.307430
 20
-6.726088
 30
0.0
 10
-64.089520
 20
-30.310468
 30
0.0
 10
-52.534399
 20
-45.282413
 30
0.0
  0
LINE
  5
1c3
100
AcDbEntity
  8
0
 62
7
100
AcDbLine
 10
-52.534399
 20
-45.282413
 30
0.0
 11
-52.534399
 21
-45.282413
 31
0.0
  0
SPLINE
  5
1c4
100
AcDbEntity
  8
0
 62
7
100
AcDbSpline
 70
8
 71
3
 72
8
 73
4
 74
0
 40
0
 40
0
 40
0
 40
0
 40
1
 40
1
 40
1
 40
1
 10
-220.499999
 20
-56.000000
 30
0.0
 10
-201.376060
 20
-56.980101
 30
0.0
 10
-187.697576
 20
-33.509062
 30
0.0
 10
-197.933742
 20
-17.374502
 30
0.0
  0
SPLINE
  5
1c5
100
AcDbEntity
  8
0
 62
7
100
AcDbSpline
 70
8
 71
3
 72
8
 73
4
 74
0
 40
0
 40
0
 40
0
 40
0
 40
1
 40
1
 40
1
 40
1
 10
-197.933742
 20
-17.374502
 30
0.0
 10
-206.423740
 20
0.840967
 30
0.0
 10
-236.703193
 20
0.102843
 30
0.0
 10
-243.691354
 20
-18.951644
 30
0.0
  0
SPLINE
  5
1c6
100
AcDbEntity
  8
0
 62
7
100
AcDbSpline
 70
8
 71
3
 72
8
 73
4
 74
0
 40
0
 40
0
 40
0
 40
0
 40
1
 40
1
 40
1
 40
1
 10
-243.691354
 20
-18.951644
 30
0.0
 10
-251.800812
 20
-33.174148
 30
0.0
 10
-241.201039
 20
-54.209158
 30
0.0
 10
-224.529520
 20
-55.522818
 30
0.0
  0
LINE
  5
1c7
100
AcDbEntity
  8
0
 62
7
100
AcDbLine
 10
-224.529520
 20
-55.522818
 30
0.0
 11
-222.522584
 21
-55.860808
 31
0.0
  0
LINE
  5
1c8
100
AcDbEntity
  8
0
 62
7
100
AcDbLine
 10
-222.522584
 20
-55.860808
 30
0.0
 11
-220.499999
 21
-56.000000
 31
0.0
  0
LINE
  5
1c9
100
AcDbEntity
  8
0
 62
7
100
AcDbLine
 10
-220.499999
 20
-56.000000
 30
0.0
 11
-220.499999
 21
-56.000000
 31
0.0
  0
SPLINE
  5
1ca
100
AcDbEntity
  8
0
 62
7
100
AcDbSpline
 70
8
 71
3
 72
8
 73
4
 74
0
 40
0
 40
0
 40
0
 40
0
 40
1
 40
1
 40
1
 40
1
 10
309.499988
 20
-89.999988
 30
0.0
 10
310.414529
 20
-70.479778
 30
0.0
 10
286.077434
 20
-56.849601
 30
0.0
 10
269.913309
 20
-67.833916
 30
0.0
  0
SPLINE
  5
1cb
100
AcDbEntity
  8
0
 62
7
100
AcDbSpline
 70
8
 71
3
 72
8
 73
4
 74
0
 40
0
 40
0
 40
0
 40
0
 40
1
 40
1
 40
1
 40
1
 10
269.913309
 20
-67.833916
 30
0.0
 10
252.793345
 20
-77.251135
 30
0.0
 10
253.889056
 20
-105.122555
 30
0.0
 10
271.697580
 20
-113.163913
 30
0.0
  0
SPLINE
  5
1cc
100
AcDbEntity
  8
0
 62
7
100
AcDbSpline
 70
8
 71
3
 72
8
 73
4
 74
0
 40
0
 40
0
 40
0
 40
0
 40
1
 40
1
 40
1
 40
1
 10
271.697580
 20
-113.163913
 30
0.0
 10
288.271599
 20
-122.235184
 30
0.0
 10
310.046850
 20
-108.903148
 30
0.0
 10
309.499988
 20
-89.999988
 30
0.0
  0
LINE
  5
1cd
100
AcDbEntity
  8
0
 62
7
100
AcDbLine
 10
309.499988
 20
-89.999988
 30
0.0
 11
309.499988
 21
-89.999988
 31
0.0
  0
SPLINE
  5
1ce
100
AcDbEntity
  8
0
 62
7
100
AcDbSpline
 70
8
 71
3
 72
8
 73
4
 74
0
 40
0
 40
0
 40
0
 40
0
 40
1
 40
1
 40
1
 40
1
 10
-86.465500
 20
-114.727001
 30
0.0
 10
-67.617298
 20
-109.565410
 30
0.0
 10
-62.175839
 20
-82.206647
 30
0.0
 10
-77.617498
 20
-70.228176
 30
0.0
  0
SPLINE
  5
1cf
100
AcDbEntity
  8
0
 62
7
100
AcDbSpline
 70
8
 71
3
 72
8
 73
4
 74
0
 40
0
 40
0
 40
0
 40
0
 40
1
 40
1
 40
1
 40
1
 10
-77.617498
 20
-70.228176
 30
0.0
 10
-91.864152
 20
-56.856149
 30
0.0
 10
-118.032454
 20
-66.511648
 30
0.0
 10
-120.177749
 20
-85.932968
 30
0.0
  0
SPLINE
  5
1d0
100
AcDbEntity
  8
0
 62
7
100
AcDbSpline
 70
8
 71
3
 72
8
 73
4
 74
0
 40
0
 40
0
 40
0
 40
0
 40
1
 40
1
 40
1
 40
1
 10
-120.177749
 20
-85.932968
 30
0.0
 10
-123.682526
 20
-104.498110
 30
0.0
 10
-104.274456
 20
-121.090519
 30
0.0
 10
-86.465500
 20
-114.727001
 30
0.0
  0
LINE
  5
1d1
100
AcDbEntity
  8
0
 62
7
100
AcDbLine
 10
-86.465500
 20
-114.727001
 30
0.0
 11
-86.465500
 21
-114.727001
 31
0.0
  0
SPLINE
  5
1d2
100
AcDbEntity
  8
0
 62
7
100
AcDbSpline
 70
8
 71
3
 72
8
 73
4
 74
0
 40
0
 40
0
 40
0
 40
0
 40
1
 40
1
 40
1
 40
1
 10
-283.500012
 20
-64.000012
 30
0.0
 10
-303.020194
 20
-63.084878
 30
0.0
 10
-316.650370
 20
-87.423186
 30
0.0
 10
-305.665547
 20
-103.586787
 30
0.0
  0
SPLINE
  5
1d3
100
AcDbEntity
  8
0
 62
7
100
AcDbSpline
 70
8
 71
3
 72
8
 73
4
 74
0
 40
0
 40
0
 40
0
 40
0
 40
1
 40
1
 40
1
 40
1
 10
-305.665547
 20
-103.586787
 30
0.0
 10
-296.248441
 20
-120.706641
 30
0.0
 10
-268.377622
 20
-119.610659
 30
0.0
 10
-260.336084
 20
-101.802606
 30
0.0
  0
SPLINE
  5
1d4
100
AcDbEntity
  8
0
 62
7
100
AcDbSpline
 70
8
 71
3
 72
8
 73
4
 74
0
 40
0
 40
0
 40
0
 40
0
 40
1
 40
1
 40
1
 40
1
 10
-260.336084
 20
-101.802606
 30
0.0
 10
-251.264846
 20
-85.228796
 30
0.0
 10
-264.596364
 20
-63.452218
 30
0.0
 10
-283.500012
 20
-64.000012
 30
0.0
  0
LINE
  5
1d5
100
AcDbEntity
  8
0
 62
7
100
AcDbLine
 10
-283.500012
 20
-64.000012
 30
0.0
 11
-283.500012
 21
-64.000012
 31
0.0
  0
SPLINE
  5
1d6
100
AcDbEntity
  8
0
 62
7
100
AcDbSpline
 70
8
 71
3
 72
8
 73
4
 74
0
 40
0
 40
0
 40
0
 40
0
 40
1
 40
1
 40
1
 40
1
 10
183.500000
 20
-89.999988
 30
0.0
 10
184.414499
 20
-70.479806
 30
0.0
 10
160.077446
 20
-56.849601
 30
0.0
 10
143.913310
 20
-67.833916
 30
0.0
  0
SPLINE
  5
1d7
100
AcDbEntity
  8
0
 62
7
100
AcDbSpline
 70
8
 71
3
 72
8
 73
4
 74
0
 40
0
 40
0
 40
0
 40
0
 40
1
 40
1
 40
1
 40
1
 10
143.913310
 20
-67.833916
 30
0.0
 10
126.793343
 20
-77.251135
 30
0.0
 10
127.889056
 20
-105.122555
 30
0.0
 10
145.697581
 20
-113.163913
 30
0.0
  0
SPLINE
  5
1d8
100
AcDbEntity
  8
0
 62
7
100
AcDbSpline
 70
8
 71
3
 72
8
 73
4
 74
0
 40
0
 40
0
 40
0
 40
0
 40
1
 40
1
 40
1
 40
1
 10
145.697581
 20
-113.163913
 30
0.0
 10
162.271611
 20
-122.235184
 30
0.0
 10
184.046845
 20
-108.903148
 30
0.0
 10
183.500000
 20
-89.999988
 30
0.0
  0
LINE
  5
1d9
100
AcDbEntity
  8
0
 62
7
100
AcDbLine
 10
183.500000
 20
-89.999988
 30
0.0
 11
183.500000
 21
-89.999988
 31
0.0
  0
SPLINE
  5
1da
100
AcDbEntity
  8
0
 62
7
100
AcDbSpline
 70
8
 71
3
 72
8
 73
4
 74
0
 40
0
 40
0
 40
0
 40
0
 40
1
 40
1
 40
1
 40
1
 10
-136.466001
 20
-74.717598
 30
0.0
 10
-147.199136
 20
-58.386922
 30
0.0
 10
-174.900291
 20
-61.666288
 30
0.0
 10
-181.520572
 20
-80.053574
 30
0.0
  0
SPLINE
  5
1db
100
AcDbEntity
  8
0
 62
7
100
AcDbSpline
 70
8
 71
3
 72
8
 73
4
 74
0
 40
0
 40
0
 40
0
 40
0
 40
1
 40
1
 40
1
 40
1
 10
-181.520572
 20
-80.053574
 30
0.0
 10
-189.836284
 20
-97.734457
 30
0.0
 10
-172.566217
 20
-119.638966
 30
0.0
 10
-153.433227
 20
-115.677723
 30
0.0
  0
SPLINE
  5
1dc
100
AcDbEntity
  8
0
 62
7
100
AcDbSpline
 70
8
 71
3
 72
8
 73
4
 74
0
 40
0
 40
0
 40
0
 40
0
 40
1
 40
1
 40
1
 40
1
 10
-153.433227
 20
-115.677723
 30
0.0
 10
-134.693310
 20
-113.272794
 30
0.0
 10
-124.910382
 20
-89.689769
 30
0.0
 10
-136.466001
 20
-74.717598
 30
0.0
  0
LINE
  5
1dd
100
AcDbEntity
  8
0
 62
7
100
AcDbLine
 10
-136.466001
 20
-74.717598
 30
0.0
 11
-136.466001
 21
-74.717598
 31
0.0
  0
SPLINE
  5
1de
100
AcDbEntity
  8
0
 62
7
100
AcDbSpline
 70
8
 71
3
 72
8
 73
4
 74
0
 40
0
 40
0
 40
0
 40
0
 40
1
 40
1
 40
1
 40
1
 10
94.500000
 20
-64.000012
 30
0.0
 10
74.979403
 20
-63.084483
 30
0.0
 10
61.349588
 20
-87.422904
 30
0.0
 10
72.333931
 20
-103.586787
 30
0.0
  0
SPLINE
  5
1df
100
AcDbEntity
  8
0
 62
7
100
AcDbSpline
 70
8
 71
3
 72
8
 73
4
 74
0
 40
0
 40
0
 40
0
 40
0
 40
1
 40
1
 40
1
 40
1
 10
72.333931
 20
-103.586787
 30
0.0
 10
81.751241
 20
-120.706641
 30
0.0
 10
109.622249
 20
-119.610772
 30
0.0
 10
117.663917
 20
-101.802606
 30
0.0
  0
SPLINE
  5
1e0
100
AcDbEntity
  8
0
 62
7
100
AcDbSpline
 70
8
 71
3
 72
8
 73
4
 74
0
 40
0
 40
0
 40
0
 40
0
 40
1
 40
1
 40
1
 40
1
 10
117.663917
 20
-101.802606
 30
0.0
 10
126.735149
 20
-85.228796
 30
0.0
 10
113.403645
 20
-63.452218
 30
0.0
 10
94.500000
 20
-64.000012
 30
0.0
  0
LINE
  5
1e1
100
AcDbEntity
  8
0
 62
7
100
AcDbLine
 10
94.500000
 20
-64.000012
 30
0.0
 11
94.500000
 21
-64.000012
 31
0.0
  0
SPLINE
  5
1e2
100
AcDbEntity
  8
0
 62
7
100
AcDbSpline
 70
8
 71
3
 72
8
 73
4
 74
0
 40
0
 40
0
 40
0
 40
0
 40
1
 40
1
 40
1
 40
1
 10
-245.227001
 20
-98.034403
 30
0.0
 10
-240.244260
 20
-116.985287
 30
0.0
 10
-212.660611
 20
-122.109313
 30
0.0
 10
-200.575593
 20
-106.975824
 30
0.0
  0
SPLINE
  5
1e3
100
AcDbEntity
  8
0
 62
7
100
AcDbSpline
 70
8
 71
3
 72
8
 73
4
 74
0
 40
0
 40
0
 40
0
 40
0
 40
1
 40
1
 40
1
 40
1
 10
-200.575593
 20
-106.975824
 30
0.0
 10
-190.266343
 20
-95.012198
 30
0.0
 10
-193.519165
 20
-73.482509
 30
0.0
 10
-208.605236
 20
-67.239612
 30
0.0
  0
SPLINE
  5
1e4
100
AcDbEntity
  8
0
 62
7
100
AcDbSpline
 70
8
 71
3
 72
8
 73
4
 74
0
 40
0
 40
0
 40
0
 40
0
 40
1
 40
1
 40
1
 40
1
 10
-208.605236
 20
-67.239612
 30
0.0
 10
-221.270319
 20
-59.200936
 30
0.0
 10
-239.883984
 20
-66.756081
 30
0.0
 10
-244.554296
 20
-80.645253
 30
0.0
  0
SPLINE
  5
1e5
100
AcDbEntity
  8
0
 62
7
100
AcDbSpline
 70
8
 71
3
 72
8
 73
4
 74
0
 40
0
 40
0
 40
0
 40
0
 40
1
 40
1
 40
1
 40
1
 10
-244.554296
 20
-80.645253
 30
0.0
 10
-248.143553
 20
-86.036967
 30
0.0
 10
-246.000826
 20
-92.214219
 30
0.0
 10
-245.227001
 20
-98.034403
 30
0.0
  0
LINE
  5
1e6
100
AcDbEntity
  8
0
 62
7
100
AcDbLine
 10
-245.227001
 20
-98.034403
 30
0.0
 11
-245.227001
 21
-98.034403
 31
0.0
  0
SPLINE
  5
1e7
100
AcDbEntity
  8
0
 62
7
100
AcDbSpline
 70
8
 71
3
 72
8
 73
4
 74
0
 40
0
 40
0
 40
0
 40
0
 40
1
 40
1
 40
1
 40
1
 10
199.466000
 20
-105.282011
 30
0.0
 10
210.199348
 20
-121.612800
 30
0.0
 10
237.899787
 20
-118.333293
 30
0.0
 10
244.520570
 20
-99.946233
 30
0.0
  0
SPLINE
  5
1e8
100
AcDbEntity
  8
0
 62
7
100
AcDbSpline
 70
8
 71
3
 72
8
 73
4
 74
0
 40
0
 40
0
 40
0
 40
0
 40
1
 40
1
 40
1
 40
1
 10
244.520570
 20
-99.946233
 30
0.0
 10
252.836141
 20
-82.265378
 30
0.0
 10
235.566551
 20
-60.360474
 30
0.0
 10
216.433236
 20
-64.322056
 30
0.0
  0
SPLINE
  5
1e9
100
AcDbEntity
  8
0
 62
7
100
AcDbSpline
 70
8
 71
3
 72
8
 73
4
 74
0
 40
0
 40
0
 40
0
 40
0
 40
1
 40
1
 40
1
 40
1
 10
216.433236
 20
-64.322056
 30
0.0
 10
197.693362
 20
-66.726166
 30
0.0
 10
187.910399
 20
-90.310376
 30
0.0
 10
199.466000
 20
-105.282011
 30
0.0
  0
LINE
  5
1ea
100
AcDbEntity
  8
0
 62
7
100
AcDbLine
 10
199.466000
 20
-105.282011
 30
0.0
 11
199.466000
 21
-105.282011
 31
0.0
  0
SPLINE
  5
1eb
100
AcDbEntity
  8
0
 62
7
100
AcDbSpline
 70
8
 71
3
 72
8
 73
4
 74
0
 40
0
 40
0
 40
0
 40
0
 40
1
 40
1
 40
1
 40
1
 10
10.465500
 20
-105.282011
 30
0.0
 10
21.199163
 20
-121.612828
 30
0.0
 10
48.899919
 20
-118.333462
 30
0.0
 10
55.521084
 20
-99.946261
 30
0.0
  0
SPLINE
  5
1ec
100
AcDbEntity
  8
0
 62
7
100
AcDbSpline
 70
8
 71
3
 72
8
 73
4
 74
0
 40
0
 40
0
 40
0
 40
0
 40
1
 40
1
 40
1
 40
1
 10
55.521084
 20
-99.946261
 30
0.0
 10
63.836158
 20
-82.264841
 30
0.0
 10
46.566763
 20
-60.360248
 30
0.0
 10
27.432983
 20
-64.322027
 30
0.0
  0
SPLINE
  5
1ed
100
AcDbEntity
  8
0
 62
7
100
AcDbSpline
 70
8
 71
3
 72
8
 73
4
 74
0
 40
0
 40
0
 40
0
 40
0
 40
1
 40
1
 40
1
 40
1
 10
27.432983
 20
-64.322027
 30
0.0
 10
8.692739
 20
-66.725940
 30
0.0
 10
-1.089515
 20
-90.310207
 30
0.0
 10
10.465500
 20
-105.282011
 30
0.0
  0
LINE
  5
1ee
100
AcDbEntity
  8
0
 62
7
100
AcDbLine
 10
10.465500
 20
-105.282011
 30
0.0
 11
10.465500
 21
-105.282011
 31
0.0
  0
SPLINE
  5
1ef
100
AcDbEntity
  8
0
 62
7
100
AcDbSpline
 70
8
 71
3
 72
8
 73
4
 74
0
 40
0
 40
0
 40
0
 40
0
 40
1
 40
1
 40
1
 40
1
 10
-23.465500
 20
-65.272495
 30
0.0
 10
-41.747996
 20
-58.369707
 30
0.0
 10
-62.231513
 20
-77.305124
 30
0.0
 10
-56.779832
 20
-96.072394
 30
0.0
  0
SPLINE
  5
1f0
100
AcDbEntity
  8
0
 62
7
100
AcDbSpline
 70
8
 71
3
 72
8
 73
4
 74
0
 40
0
 40
0
 40
0
 40
0
 40
1
 40
1
 40
1
 40
1
 10
-56.779832
 20
-96.072394
 30
0.0
 10
-53.113353
 20
-115.264042
 30
0.0
 10
-26.267545
 20
-122.834991
 30
0.0
 10
-13.116603
 20
-108.382956
 30
0.0
  0
SPLINE
  5
1f1
100
AcDbEntity
  8
0
 62
7
100
AcDbSpline
 70
8
 71
3
 72
8
 73
4
 74
0
 40
0
 40
0
 40
0
 40
0
 40
1
 40
1
 40
1
 40
1
 10
-13.116603
 20
-108.382956
 30
0.0
 10
0.631898
 20
-95.422916
 30
0.0
 10
-5.317304
 20
-70.593174
 30
0.0
 10
-23.465500
 20
-65.272495
 30
0.0
  0
LINE
  5
1f2
100
AcDbEntity
  8
0
 62
7
100
AcDbLine
 10
-23.465500
 20
-65.272495
 30
0.0
 11
-23.465500
 21
-65.272495
 31
0.0
  0
SPLINE
  5
1f3
100
AcDbEntity
  8
0
 62
7
100
AcDbSpline
 70
8
 71
3
 72
8
 73
4
 74
0
 40
0
 40
0
 40
0
 40
0
 40
1
 40
1
 40
1
 40
1
 10
-5.500000
 20
-150.000009
 30
0.0
 10
-4.584921
 20
-130.479629
 30
0.0
 10
-28.923307
 20
-116.849707
 30
0.0
 10
-45.087083
 20
-127.834417
 30
0.0
  0
SPLINE
  5
1f4
100
AcDbEntity
  8
0
 62
7
100
AcDbSpline
 70
8
 71
3
 72
8
 73
4
 74
0
 40
0
 40
0
 40
0
 40
0
 40
1
 40
1
 40
1
 40
1
 10
-45.087083
 20
-127.834417
 30
0.0
 10
-62.206971
 20
-137.251298
 30
0.0
 10
-61.111043
 20
-165.122774
 30
0.0
 10
-43.302820
 20
-173.163934
 30
0.0
  0
SPLINE
  5
1f5
100
AcDbEntity
  8
0
 62
7
100
AcDbSpline
 70
8
 71
3
 72
8
 73
4
 74
0
 40
0
 40
0
 40
0
 40
0
 40
1
 40
1
 40
1
 40
1
 10
-43.302820
 20
-173.163934
 30
0.0
 10
-26.728833
 20
-182.235064
 30
0.0
 10
-4.952334
 20
-168.903846
 30
0.0
 10
-5.500000
 20
-150.000009
 30
0.0
  0
LINE
  5
1f6
100
AcDbEntity
  8
0
 62
7
100
AcDbLine
 10
-5.500000
 20
-150.000009
 30
0.0
 11
-5.500000
 21
-150.000009
 31
0.0
  0
SPLINE
  5
1f7
100
AcDbEntity
  8
0
 62
7
100
AcDbSpline
 70
8
 71
3
 72
8
 73
4
 74
0
 40
0
 40
0
 40
0
 40
0
 40
1
 40
1
 40
1
 40
1
 10
-136.466001
 20
-165.282004
 30
0.0
 10
-124.250930
 20
-150.027469
 30
0.0
 10
-135.930936
 20
-124.696670
 30
0.0
 10
-155.463438
 20
-124.081087
 30
0.0
  0
SPLINE
  5
1f8
100
AcDbEntity
  8
0
 62
7
100
AcDbSpline
 70
8
 71
3
 72
8
 73
4
 74
0
 40
0
 40
0
 40
0
 40
0
 40
1
 40
1
 40
1
 40
1
 10
-155.463438
 20
-124.081087
 30
0.0
 10
-174.847944
 20
-121.637861
 30
0.0
 10
-190.345018
 20
-144.829726
 30
0.0
 10
-180.663926
 20
-161.802430
 30
0.0
  0
SPLINE
  5
1f9
100
AcDbEntity
  8
0
 62
7
100
AcDbSpline
 70
8
 71
3
 72
8
 73
4
 74
0
 40
0
 40
0
 40
0
 40
0
 40
1
 40
1
 40
1
 40
1
 10
-180.663926
 20
-161.802430
 30
0.0
 10
-172.586328
 20
-178.882801
 30
0.0
 10
-147.134665
 20
-180.898206
 30
0.0
 10
-136.466001
 20
-165.282004
 30
0.0
  0
LINE
  5
1fa
100
AcDbEntity
  8
0
 62
7
100
AcDbLine
 10
-136.466001
 20
-165.282004
 30
0.0
 11
-136.466001
 21
-165.282004
 31
0.0
  0
SPLINE
  5
1fb
100
AcDbEntity
  8
0
 62
7
100
AcDbSpline
 70
8
 71
3
 72
8
 73
4
 74
0
 40
0
 40
0
 40
0
 40
0
 40
1
 40
1
 40
1
 40
1
 10
205.217999
 20
-128.965987
 30
0.0
 10
188.887140
 20
-139.699321
 30
0.0
 10
192.166694
 20
-167.400166
 30
0.0
 10
210.554056
 20
-174.020563
 30
0.0
  0
SPLINE
  5
1fc
100
AcDbEntity
  8
0
 62
7
100
AcDbSpline
 70
8
 71
3
 72
8
 73
4
 74
0
 40
0
 40
0
 40
0
 40
0
 40
1
 40
1
 40
1
 40
1
 10
210.554056
 20
-174.020563
 30
0.0
 10
228.234776
 20
-182.336100
 30
0.0
 10
250.138977
 20
-165.065963
 30
0.0
 10
246.177731
 20
-145.933215
 30
0.0
  0
SPLINE
  5
1fd
100
AcDbEntity
  8
0
 62
7
100
AcDbSpline
 70
8
 71
3
 72
8
 73
4
 74
0
 40
0
 40
0
 40
0
 40
0
 40
1
 40
1
 40
1
 40
1
 10
246.177731
 20
-145.933215
 30
0.0
 10
243.772865
 20
-127.193547
 30
0.0
 10
220.190043
 20
-117.410454
 30
0.0
 10
205.217999
 20
-128.965987
 30
0.0
  0
LINE
  5
1fe
100
AcDbEntity
  8
0
 62
7
100
AcDbLine
 10
205.217999
 20
-128.965987
 30
0.0
 11
205.217999
 21
-128.965987
 31
0.0
  0
SPLINE
  5
1ff
100
AcDbEntity
  8
0
 62
7
100
AcDbSpline
 70
8
 71
3
 72
8
 73
4
 74
0
 40
0
 40
0
 40
0
 40
0
 40
1
 40
1
 40
1
 40
1
 10
142.218001
 20
-171.034003
 30
0.0
 10
157.472530
 20
-183.249089
 30
0.0
 10
182.803315
 20
-171.569040
 30
0.0
 10
183.418932
 20
-152.036553
 30
0.0
  0
SPLINE
  5
200
100
AcDbEntity
  8
0
 62
7
100
AcDbSpline
 70
8
 71
3
 72
8
 73
4
 74
0
 40
0
 40
0
 40
0
 40
0
 40
1
 40
1
 40
1
 40
1
 10
183.418932
 20
-152.036553
 30
0.0
 10
185.862132
 20
-132.652063
 30
0.0
 10
162.670276
 20
-117.154987
 30
0.0
 10
145.697581
 20
-126.836056
 30
0.0
  0
SPLINE
  5
201
100
AcDbEntity
  8
0
 62
7
100
AcDbSpline
 70
8
 71
3
 72
8
 73
4
 74
0
 40
0
 40
0
 40
0
 40
0
 40
1
 40
1
 40
1
 40
1
 10
145.697581
 20
-126.836056
 30
0.0
 10
128.617184
 20
-134.913651
 30
0.0
 10
126.601813
 20
-160.365354
 30
0.0
 10
142.218001
 20
-171.034003
 30
0.0
  0
LINE
  5
202
100
AcDbEntity
  8
0
 62
7
100
AcDbLine
 10
142.218001
 20
-171.034003
 30
0.0
 11
142.218001
 21
-171.034003
 31
0.0
  0
SPLINE
  5
203
100
AcDbEntity
  8
0
 62
7
100
AcDbSpline
 70
8
 71
3
 72
8
 73
4
 74
0
 40
0
 40
0
 40
0
 40
0
 40
1
 40
1
 40
1
 40
1
 10
-283.500012
 20
-176.000014
 30
0.0
 10
-263.980233
 20
-176.914103
 30
0.0
 10
-250.349608
 20
-152.577178
 30
0.0
 10
-261.334428
 20
-136.413295
 30
0.0
  0
SPLINE
  5
204
100
AcDbEntity
  8
0
 62
7
100
AcDbSpline
 70
8
 71
3
 72
8
 73
4
 74
0
 40
0
 40
0
 40
0
 40
0
 40
1
 40
1
 40
1
 40
1
 10
-261.334428
 20
-136.413295
 30
0.0
 10
-270.751421
 20
-119.293300
 30
0.0
 10
-298.622664
 20
-120.389282
 30
0.0
 10
-306.663937
 20
-138.197589
 30
0.0
  0
SPLINE
  5
205
100
AcDbEntity
  8
0
 62
7
100
AcDbSpline
 70
8
 71
3
 72
8
 73
4
 74
0
 40
0
 40
0
 40
0
 40
0
 40
1
 40
1
 40
1
 40
1
 10
-306.663937
 20
-138.197589
 30
0.0
 10
-315.735152
 20
-154.771738
 30
0.0
 10
-302.403200
 20
-176.546593
 30
0.0
 10
-283.500012
 20
-176.000014
 30
0.0
  0
LINE
  5
206
100
AcDbEntity
  8
0
 62
7
100
AcDbLine
 10
-283.500012
 20
-176.000014
 30
0.0
 11
-283.500012
 21
-176.000014
 31
0.0
  0
SPLINE
  5
207
100
AcDbEntity
  8
0
 62
7
100
AcDbSpline
 70
8
 71
3
 72
8
 73
4
 74
0
 40
0
 40
0
 40
0
 40
0
 40
1
 40
1
 40
1
 40
1
 10
120.499999
 20
-150.000009
 30
0.0
 10
121.414134
 20
-130.479996
 30
0.0
 10
97.076830
 20
-116.849594
 30
0.0
 10
80.912894
 20
-127.834417
 30
0.0
  0
SPLINE
  5
208
100
AcDbEntity
  8
0
 62
7
100
AcDbSpline
 70
8
 71
3
 72
8
 73
4
 74
0
 40
0
 40
0
 40
0
 40
0
 40
1
 40
1
 40
1
 40
1
 10
80.912894
 20
-127.834417
 30
0.0
 10
63.793020
 20
-137.251241
 30
0.0
 10
64.888928
 20
-165.122802
 30
0.0
 10
82.697134
 20
-173.163934
 30
0.0
  0
SPLINE
  5
209
100
AcDbEntity
  8
0
 62
7
100
AcDbSpline
 70
8
 71
3
 72
8
 73
4
 74
0
 40
0
 40
0
 40
0
 40
0
 40
1
 40
1
 40
1
 40
1
 10
82.697134
 20
-173.163934
 30
0.0
 10
99.271379
 20
-182.235177
 30
0.0
 10
121.046610
 20
-168.903451
 30
0.0
 10
120.499999
 20
-150.000009
 30
0.0
  0
LINE
  5
20a
100
AcDbEntity
  8
0
 62
7
100
AcDbLine
 10
120.499999
 20
-150.000009
 30
0.0
 11
120.499999
 21
-150.000009
 31
0.0
  0
SPLINE
  5
20b
100
AcDbEntity
  8
0
 62
7
100
AcDbSpline
 70
8
 71
3
 72
8
 73
4
 74
0
 40
0
 40
0
 40
0
 40
0
 40
1
 40
1
 40
1
 40
1
 10
-73.465501
 20
-165.282004
 30
0.0
 10
-61.250884
 20
-150.027300
 30
0.0
 10
-72.930470
 20
-124.696332
 30
0.0
 10
-92.463312
 20
-124.081059
 30
0.0
  0
SPLINE
  5
20c
100
AcDbEntity
  8
0
 62
7
100
AcDbSpline
 70
8
 71
3
 72
8
 73
4
 74
0
 40
0
 40
0
 40
0
 40
0
 40
1
 40
1
 40
1
 40
1
 10
-92.463312
 20
-124.081059
 30
0.0
 10
-111.847864
 20
-121.637805
 30
0.0
 10
-127.345042
 20
-144.829670
 30
0.0
 10
-117.663928
 20
-161.802430
 30
0.0
  0
SPLINE
  5
20d
100
AcDbEntity
  8
0
 62
7
100
AcDbSpline
 70
8
 71
3
 72
8
 73
4
 74
0
 40
0
 40
0
 40
0
 40
0
 40
1
 40
1
 40
1
 40
1
 10
-117.663928
 20
-161.802430
 30
0.0
 10
-109.586243
 20
-178.882942
 30
0.0
 10
-84.134305
 20
-180.898150
 30
0.0
 10
-73.465501
 20
-165.282004
 30
0.0
  0
LINE
  5
20e
100
AcDbEntity
  8
0
 62
7
100
AcDbLine
 10
-73.465501
 20
-165.282004
 30
0.0
 11
-73.465501
 21
-165.282004
 31
0.0
  0
SPLINE
  5
20f
100
AcDbEntity
  8
0
 62
7
100
AcDbSpline
 70
8
 71
3
 72
8
 73
4
 74
0
 40
0
 40
0
 40
0
 40
0
 40
1
 40
1
 40
1
 40
1
 10
-212.465999
 20
-125.272996
 30
0.0
 10
-227.927366
 20
-119.812843
 30
0.0
 10
-246.299022
 20
-131.974335
 30
0.0
 10
-246.268150
 20
-148.536772
 30
0.0
  0
SPLINE
  5
210
100
AcDbEntity
  8
0
 62
7
100
AcDbSpline
 70
8
 71
3
 72
8
 73
4
 74
0
 40
0
 40
0
 40
0
 40
0
 40
1
 40
1
 40
1
 40
1
 10
-246.268150
 20
-148.536772
 30
0.0
 10
-249.119105
 20
-169.264103
 30
0.0
 10
-221.418077
 20
-184.499446
 30
0.0
 10
-205.217999
 20
-171.034003
 30
0.0
  0
SPLINE
  5
211
100
AcDbEntity
  8
0
 62
7
100
AcDbSpline
 70
8
 71
3
 72
8
 73
4
 74
0
 40
0
 40
0
 40
0
 40
0
 40
1
 40
1
 40
1
 40
1
 10
-205.217999
 20
-171.034003
 30
0.0
 10
-190.149630
 20
-161.044776
 30
0.0
 10
-191.513785
 20
-136.628151
 30
0.0
 10
-206.899363
 20
-127.776251
 30
0.0
  0
SPLINE
  5
212
100
AcDbEntity
  8
0
 62
7
100
AcDbSpline
 70
8
 71
3
 72
8
 73
4
 74
0
 40
0
 40
0
 40
0
 40
0
 40
1
 40
1
 40
1
 40
1
 10
-206.899363
 20
-127.776251
 30
0.0
 10
-208.587617
 20
-126.636299
 30
0.0
 10
-210.422213
 20
-125.598963
 30
0.0
 10
-212.465999
 20
-125.272996
 30
0.0
  0
LINE
  5
213
100
AcDbEntity
  8
0
 62
7
100
AcDbLine
 10
-212.465999
 20
-125.272996
 30
0.0
 11
-212.465999
 21
-125.272996
 31
0.0
  0
SPLINE
  5
214
100
AcDbEntity
  8
0
 62
7
100
AcDbSpline
 70
8
 71
3
 72
8
 73
4
 74
0
 40
0
 40
0
 40
0
 40
0
 40
1
 40
1
 40
1
 40
1
 10
258.772999
 20
-141.965989
 30
0.0
 10
251.869869
 20
-160.247470
 30
0.0
 10
270.805986
 20
-180.731130
 30
0.0
 10
289.572107
 20
-175.279416
 30
0.0
  0
SPLINE
  5
215
100
AcDbEntity
  8
0
 62
7
100
AcDbSpline
 70
8
 71
3
 72
8
 73
4
 74
0
 40
0
 40
0
 40
0
 40
0
 40
1
 40
1
 40
1
 40
1
 10
289.572107
 20
-175.279416
 30
0.0
 10
308.763670
 20
-171.613292
 30
0.0
 10
316.335071
 20
-144.767863
 30
0.0
 10
301.882951
 20
-131.617041
 30
0.0
  0
SPLINE
  5
216
100
AcDbEntity
  8
0
 62
7
100
AcDbSpline
 70
8
 71
3
 72
8
 73
4
 74
0
 40
0
 40
0
 40
0
 40
0
 40
1
 40
1
 40
1
 40
1
 10
301.882951
 20
-131.617041
 30
0.0
 10
288.922601
 20
-117.868332
 30
0.0
 10
264.093898
 20
-123.817802
 30
0.0
 10
258.772999
 20
-141.965989
 30
0.0
  0
LINE
  5
217
100
AcDbEntity
  8
0
 62
7
100
AcDbLine
 10
258.772999
 20
-141.965989
 30
0.0
 11
258.772999
 21
-141.965989
 31
0.0
  0
SPLINE
  5
218
100
AcDbEntity
  8
0
 62
7
100
AcDbSpline
 70
8
 71
3
 72
8
 73
4
 74
0
 40
0
 40
0
 40
0
 40
0
 40
1
 40
1
 40
1
 40
1
 10
52.534399
 20
-165.282004
 30
0.0
 10
64.749226
 20
-150.027413
 30
0.0
 10
53.069456
 20
-124.696332
 30
0.0
 10
33.536661
 20
-124.081059
 30
0.0
  0
SPLINE
  5
219
100
AcDbEntity
  8
0
 62
7
100
AcDbSpline
 70
8
 71
3
 72
8
 73
4
 74
0
 40
0
 40
0
 40
0
 40
0
 40
1
 40
1
 40
1
 40
1
 10
33.536661
 20
-124.081059
 30
0.0
 10
14.151692
 20
-121.637522
 30
0.0
 10
-1.344985
 20
-144.829303
 30
0.0
 10
8.335551
 20
-161.802430
 30
0.0
  0
SPLINE
  5
21a
100
AcDbEntity
  8
0
 62
7
100
AcDbSpline
 70
8
 71
3
 72
8
 73
4
 74
0
 40
0
 40
0
 40
0
 40
0
 40
1
 40
1
 40
1
 40
1
 10
8.335551
 20
-161.802430
 30
0.0
 10
16.413337
 20
-178.882914
 30
0.0
 10
41.865587
 20
-180.898262
 30
0.0
 10
52.534399
 20
-165.282004
 30
0.0
  0
LINE
  5
21b
100
AcDbEntity
  8
0
 62
7
100
AcDbLine
 10
52.534399
 20
-165.282004
 30
0.0
 11
52.534399
 21
-165.282004
 31
0.0
  0
SPLINE
  5
21c
100
AcDbEntity
  8
0
 62
7
100
AcDbSpline
 70
8
 71
3
 72
8
 73
4
 74
0
 40
0
 40
0
 40
0
 40
0
 40
1
 40
1
 40
1
 40
1
 10
258.772999
 20
-218.033994
 30
0.0
 10
263.934595
 20
-236.881951
 30
0.0
 10
291.292901
 20
-242.324042
 30
0.0
 10
303.271343
 20
-226.882084
 30
0.0
  0
SPLINE
  5
21d
100
AcDbEntity
  8
0
 62
7
100
AcDbSpline
 70
8
 71
3
 72
8
 73
4
 74
0
 40
0
 40
0
 40
0
 40
0
 40
1
 40
1
 40
1
 40
1
 10
303.271343
 20
-226.882084
 30
0.0
 10
316.643766
 20
-212.635562
 30
0.0
 10
306.987674
 20
-186.467805
 30
0.0
 10
287.566777
 20
-184.322267
 30
0.0
  0
SPLINE
  5
21e
100
AcDbEntity
  8
0
 62
7
100
AcDbSpline
 70
8
 71
3
 72
8
 73
4
 74
0
 40
0
 40
0
 40
0
 40
0
 40
1
 40
1
 40
1
 40
1
 10
287.566777
 20
-184.322267
 30
0.0
 10
269.002067
 20
-180.817773
 30
0.0
 10
252.409537
 20
-200.225264
 30
0.0
 10
258.772999
 20
-218.033994
 30
0.0
  0
LINE
  5
21f
100
AcDbEntity
  8
0
 62
7
100
AcDbLine
 10
258.772999
 20
-218.033994
 30
0.0
 11
258.772999
 21
-218.033994
 31
0.0
  0
SPLINE
  5
220
100
AcDbEntity
  8
0
 62
7
100
AcDbSpline
 70
8
 71
3
 72
8
 73
4
 74
0
 40
0
 40
0
 40
0
 40
0
 40
1
 40
1
 40
1
 40
1
 10
-132.772999
 20
-201.966010
 30
0.0
 10
-137.934590
 20
-183.118053
 30
0.0
 10
-165.292907
 20
-177.675962
 30
0.0
 10
-177.271355
 20
-193.117920
 30
0.0
  0
SPLINE
  5
221
100
AcDbEntity
  8
0
 62
7
100
AcDbSpline
 70
8
 71
3
 72
8
 73
4
 74
0
 40
0
 40
0
 40
0
 40
0
 40
1
 40
1
 40
1
 40
1
 10
-177.271355
 20
-193.117920
 30
0.0
 10
-190.643770
 20
-207.364442
 30
0.0
 10
-180.987680
 20
-233.532171
 30
0.0
 10
-161.566775
 20
-235.677737
 30
0.0
  0
SPLINE
  5
222
100
AcDbEntity
  8
0
 62
7
100
AcDbSpline
 70
8
 71
3
 72
8
 73
4
 74
0
 40
0
 40
0
 40
0
 40
0
 40
1
 40
1
 40
1
 40
1
 10
-161.566775
 20
-235.677737
 30
0.0
 10
-143.002076
 20
-239.182231
 30
0.0
 10
-126.409535
 20
-219.774740
 30
0.0
 10
-132.772999
 20
-201.966010
 30
0.0
  0
LINE
  5
223
100
AcDbEntity
  8
0
 62
7
100
AcDbLine
 10
-132.772999
 20
-201.966010
 30
0.0
 11
-132.772999
 21
-201.966010
 31
0.0
  0
SPLINE
  5
224
100
AcDbEntity
  8
0
 62
7
100
AcDbSpline
 70
8
 71
3
 72
8
 73
4
 74
0
 40
0
 40
0
 40
0
 40
0
 40
1
 40
1
 40
1
 40
1
 10
241.533999
 20
-194.718007
 30
0.0
 10
230.800679
 20
-178.387134
 30
0.0
 10
203.099822
 20
-181.666697
 30
0.0
 10
196.479431
 20
-200.054068
 30
0.0
  0
SPLINE
  5
225
100
AcDbEntity
  8
0
 62
7
100
AcDbSpline
 70
8
 71
3
 72
8
 73
4
 74
0
 40
0
 40
0
 40
0
 40
0
 40
1
 40
1
 40
1
 40
1
 10
196.479431
 20
-200.054068
 30
0.0
 10
188.163900
 20
-217.734782
 30
0.0
 10
205.434046
 20
-239.638952
 30
0.0
 10
224.566774
 20
-235.677737
 30
0.0
  0
SPLINE
  5
226
100
AcDbEntity
  8
0
 62
7
100
AcDbSpline
 70
8
 71
3
 72
8
 73
4
 74
0
 40
0
 40
0
 40
0
 40
0
 40
1
 40
1
 40
1
 40
1
 10
224.566774
 20
-235.677737
 30
0.0
 10
243.306422
 20
-233.272837
 30
0.0
 10
253.089579
 20
-209.690037
 30
0.0
 10
241.533999
 20
-194.718007
 30
0.0
  0
LINE
  5
227
100
AcDbEntity
  8
0
 62
7
100
AcDbLine
 10
241.533999
 20
-194.718007
 30
0.0
 11
241.533999
 21
-194.718007
 31
0.0
  0
SPLINE
  5
228
100
AcDbEntity
  8
0
 62
7
100
AcDbSpline
 70
8
 71
3
 72
8
 73
4
 74
0
 40
0
 40
0
 40
0
 40
0
 40
1
 40
1
 40
1
 40
1
 10
-235.782000
 20
-231.033996
 30
0.0
 10
-221.267596
 20
-242.830066
 30
0.0
 10
-195.794833
 20
-232.298577
 30
0.0
 10
-195.029322
 20
-213.340582
 30
0.0
  0
SPLINE
  5
229
100
AcDbEntity
  8
0
 62
7
100
AcDbSpline
 70
8
 71
3
 72
8
 73
4
 74
0
 40
0
 40
0
 40
0
 40
0
 40
1
 40
1
 40
1
 40
1
 10
-195.029322
 20
-213.340582
 30
0.0
 10
-190.925602
 20
-194.557225
 30
0.0
 10
-213.254545
 20
-177.785464
 30
0.0
 10
-230.484804
 20
-185.933925
 30
0.0
  0
SPLINE
  5
22a
100
AcDbEntity
  8
0
 62
7
100
AcDbSpline
 70
8
 71
3
 72
8
 73
4
 74
0
 40
0
 40
0
 40
0
 40
0
 40
1
 40
1
 40
1
 40
1
 10
-230.484804
 20
-185.933925
 30
0.0
 10
-242.466162
 20
-191.111348
 30
0.0
 10
-249.715576
 20
-205.278170
 30
0.0
 10
-245.227001
 20
-218.033994
 30
0.0
  0
SPLINE
  5
22b
100
AcDbEntity
  8
0
 62
7
100
AcDbSpline
 70
8
 71
3
 72
8
 73
4
 74
0
 40
0
 40
0
 40
0
 40
0
 40
1
 40
1
 40
1
 40
1
 10
-245.227001
 20
-218.033994
 30
0.0
 10
-243.467611
 20
-223.046712
 30
0.0
 10
-240.372702
 20
-228.129619
 30
0.0
 10
-235.782000
 20
-231.033996
 30
0.0
  0
LINE
  5
22c
100
AcDbEntity
  8
0
 62
7
100
AcDbLine
 10
-235.782000
 20
-231.033996
 30
0.0
 11
-235.782000
 21
-231.033996
 31
0.0
  0
SPLINE
  5
22d
100
AcDbEntity
  8
0
 62
7
100
AcDbSpline
 70
8
 71
3
 72
8
 73
4
 74
0
 40
0
 40
0
 40
0
 40
0
 40
1
 40
1
 40
1
 40
1
 10
157.500001
 20
-183.999998
 30
0.0
 10
137.980237
 20
-183.085880
 30
0.0
 10
124.349612
 20
-207.422833
 30
0.0
 10
135.334429
 20
-223.586688
 30
0.0
  0
SPLINE
  5
22e
100
AcDbEntity
  8
0
 62
7
100
AcDbSpline
 70
8
 71
3
 72
8
 73
4
 74
0
 40
0
 40
0
 40
0
 40
0
 40
1
 40
1
 40
1
 40
1
 10
135.334429
 20
-223.586688
 30
0.0
 10
144.751422
 20
-240.706683
 30
0.0
 10
172.622645
 20
-239.610701
 30
0.0
 10
180.663926
 20
-221.802422
 30
0.0
  0
SPLINE
  5
22f
100
AcDbEntity
  8
0
 62
7
100
AcDbSpline
 70
8
 71
3
 72
8
 73
4
 74
0
 40
0
 40
0
 40
0
 40
0
 40
1
 40
1
 40
1
 40
1
 10
180.663926
 20
-221.802422
 30
0.0
 10
189.735189
 20
-205.228273
 30
0.0
 10
176.403169
 20
-183.453361
 30
0.0
 10
157.500001
 20
-183.999998
 30
0.0
  0
LINE
  5
230
100
AcDbEntity
  8
0
 62
7
100
AcDbLine
 10
157.500001
 20
-183.999998
 30
0.0
 11
157.500001
 21
-183.999998
 31
0.0
  0
SPLINE
  5
231
100
AcDbEntity
  8
0
 62
7
100
AcDbSpline
 70
8
 71
3
 72
8
 73
4
 74
0
 40
0
 40
0
 40
0
 40
0
 40
1
 40
1
 40
1
 40
1
 10
-275.466000
 20
-185.272989
 30
0.0
 10
-293.747500
 20
-178.369862
 30
0.0
 10
-314.231105
 20
-197.305985
 30
0.0
 10
-308.779418
 20
-216.072098
 30
0.0
  0
SPLINE
  5
232
100
AcDbEntity
  8
0
 62
7
100
AcDbSpline
 70
8
 71
3
 72
8
 73
4
 74
0
 40
0
 40
0
 40
0
 40
0
 40
1
 40
1
 40
1
 40
1
 10
-308.779418
 20
-216.072098
 30
0.0
 10
-305.113267
 20
-235.263660
 30
0.0
 10
-278.267880
 20
-242.835090
 30
0.0
 10
-265.117044
 20
-228.382942
 30
0.0
  0
SPLINE
  5
233
100
AcDbEntity
  8
0
 62
7
100
AcDbSpline
 70
8
 71
3
 72
8
 73
4
 74
0
 40
0
 40
0
 40
0
 40
0
 40
1
 40
1
 40
1
 40
1
 10
-265.117044
 20
-228.382942
 30
0.0
 10
-251.368314
 20
-215.422563
 30
0.0
 10
-257.317804
 20
-190.593922
 30
0.0
 10
-275.466000
 20
-185.272989
 30
0.0
  0
LINE
  5
234
100
AcDbEntity
  8
0
 62
7
100
AcDbLine
 10
-275.466000
 20
-185.272989
 30
0.0
 11
-275.466000
 21
-185.272989
 31
0.0
  0
SPLINE
  5
235
100
AcDbEntity
  8
0
 62
7
100
AcDbSpline
 70
8
 71
3
 72
8
 73
4
 74
0
 40
0
 40
0
 40
0
 40
0
 40
1
 40
1
 40
1
 40
1
 10
94.500000
 20
-183.999998
 30
0.0
 10
74.979801
 20
-183.085485
 30
0.0
 10
61.349602
 20
-207.422551
 30
0.0
 10
72.333914
 20
-223.586688
 30
0.0
  0
SPLINE
  5
236
100
AcDbEntity
  8
0
 62
7
100
AcDbSpline
 70
8
 71
3
 72
8
 73
4
 74
0
 40
0
 40
0
 40
0
 40
0
 40
1
 40
1
 40
1
 40
1
 10
72.333914
 20
-223.586688
 30
0.0
 10
81.751119
 20
-240.706655
 30
0.0
 10
109.622517
 20
-239.610842
 30
0.0
 10
117.663928
 20
-221.802422
 30
0.0
  0
SPLINE
  5
237
100
AcDbEntity
  8
0
 62
7
100
AcDbSpline
 70
8
 71
3
 72
8
 73
4
 74
0
 40
0
 40
0
 40
0
 40
0
 40
1
 40
1
 40
1
 40
1
 10
117.663928
 20
-221.802422
 30
0.0
 10
126.735188
 20
-205.228273
 30
0.0
 10
113.403174
 20
-183.453390
 30
0.0
 10
94.500000
 20
-183.999998
 30
0.0
  0
LINE
  5
238
100
AcDbEntity
  8
0
 62
7
100
AcDbLine
 10
94.500000
 20
-183.999998
 30
0.0
 11
94.500000
 21
-183.999998
 31
0.0
  0
SPLINE
  5
239
100
AcDbEntity
  8
0
 62
7
100
AcDbSpline
 70
8
 71
3
 72
8
 73
4
 74
0
 40
0
 40
0
 40
0
 40
0
 40
1
 40
1
 40
1
 40
1
 10
-68.499998
 20
-210.000002
 30
0.0
 10
-67.584899
 20
-190.479848
 30
0.0
 10
-91.923032
 20
-176.849672
 30
0.0
 10
-108.086683
 20
-187.834438
 30
0.0
  0
SPLINE
  5
23a
100
AcDbEntity
  8
0
 62
7
100
AcDbSpline
 70
8
 71
3
 72
8
 73
4
 74
0
 40
0
 40
0
 40
0
 40
0
 40
1
 40
1
 40
1
 40
1
 10
-108.086683
 20
-187.834438
 30
0.0
 10
-125.206692
 20
-197.251432
 30
0.0
 10
-124.110713
 20
-225.122654
 30
0.0
 10
-106.302418
 20
-233.163927
 30
0.0
  0
SPLINE
  5
23b
100
AcDbEntity
  8
0
 62
7
100
AcDbSpline
 70
8
 71
3
 72
8
 73
4
 74
0
 40
0
 40
0
 40
0
 40
0
 40
1
 40
1
 40
1
 40
1
 10
-106.302418
 20
-233.163927
 30
0.0
 10
-89.728582
 20
-242.235086
 30
0.0
 10
-67.952270
 20
-228.903557
 30
0.0
 10
-68.499998
 20
-210.000002
 30
0.0
  0
LINE
  5
23c
100
AcDbEntity
  8
0
 62
7
100
AcDbLine
 10
-68.499998
 20
-210.000002
 30
0.0
 11
-68.499998
 21
-210.000002
 31
0.0
  0
SPLINE
  5
23d
100
AcDbEntity
  8
0
 62
7
100
AcDbSpline
 70
8
 71
3
 72
8
 73
4
 74
0
 40
0
 40
0
 40
0
 40
0
 40
1
 40
1
 40
1
 40
1
 10
31.499999
 20
-236.000006
 30
0.0
 10
51.020108
 20
-236.914435
 30
0.0
 10
64.650501
 20
-212.577396
 30
0.0
 10
53.666003
 20
-196.413316
 30
0.0
  0
SPLINE
  5
23e
100
AcDbEntity
  8
0
 62
7
100
AcDbSpline
 70
8
 71
3
 72
8
 73
4
 74
0
 40
0
 40
0
 40
0
 40
0
 40
1
 40
1
 40
1
 40
1
 10
53.666003
 20
-196.413316
 30
0.0
 10
44.248742
 20
-179.293208
 30
0.0
 10
16.377141
 20
-180.389162
 30
0.0
 10
8.335551
 20
-198.197582
 30
0.0
  0
SPLINE
  5
23f
100
AcDbEntity
  8
0
 62
7
100
AcDbSpline
 70
8
 71
3
 72
8
 73
4
 74
0
 40
0
 40
0
 40
0
 40
0
 40
1
 40
1
 40
1
 40
1
 10
8.335551
 20
-198.197582
 30
0.0
 10
-0.734987
 20
-214.772239
 30
0.0
 10
12.596169
 20
-236.546812
 30
0.0
 10
31.499999
 20
-236.000006
 30
0.0
  0
LINE
  5
240
100
AcDbEntity
  8
0
 62
7
100
AcDbLine
 10
31.499999
 20
-236.000006
 30
0.0
 11
31.499999
 21
-236.000006
 31
0.0
  0
SPLINE
  5
241
100
AcDbEntity
  8
0
 62
7
100
AcDbSpline
 70
8
 71
3
 72
8
 73
4
 74
0
 40
0
 40
0
 40
0
 40
0
 40
1
 40
1
 40
1
 40
1
 10
-16.217600
 20
-231.033996
 30
0.0
 10
0.113087
 20
-220.300859
 30
0.0
 10
-3.166308
 20
-192.599704
 30
0.0
 10
-21.553580
 20
-185.979420
 30
0.0
  0
SPLINE
  5
242
100
AcDbEntity
  8
0
 62
7
100
AcDbSpline
 70
8
 71
3
 72
8
 73
4
 74
0
 40
0
 40
0
 40
0
 40
0
 40
1
 40
1
 40
1
 40
1
 10
-21.553580
 20
-185.979420
 30
0.0
 10
-39.234497
 20
-177.663883
 30
0.0
 10
-61.139474
 20
-194.933399
 30
0.0
 10
-57.177954
 20
-214.066768
 30
0.0
  0
SPLINE
  5
243
100
AcDbEntity
  8
0
 62
7
100
AcDbSpline
 70
8
 71
3
 72
8
 73
4
 74
0
 40
0
 40
0
 40
0
 40
0
 40
1
 40
1
 40
1
 40
1
 10
-57.177954
 20
-214.066768
 30
0.0
 10
-54.773616
 20
-232.806860
 30
0.0
 10
-31.189481
 20
-242.589472
 30
0.0
 10
-16.217600
 20
-231.033996
 30
0.0
  0
LINE
  5
244
100
AcDbEntity
  8
0
 62
7
100
AcDbLine
 10
-16.217600
 20
-231.033996
 30
0.0
 11
-16.217600
 21
-231.033996
 31
0.0
  0
ENDSEC
  0
SECTION
  2
OBJECTS
  0
DICTIONARY
  5
C
330
0
100
AcDbDictionary
  3
ACAD_GROUP
350
D
  3
ACAD_MLINESTYLE
350
17
  0
DICTIONARY
  5
D
330
C
100
AcDbDictionary
  0
DICTIONARY
  5
1A
330
C
100
AcDbDictionary
  0
DICTIONARY
  5
17
330
C
100
AcDbDictionary
  3
STANDARD
350
18
  0
DICTIONARY
  5
19
330
C
100
AcDbDictionary
  0
ENDSEC
  0
EOF
