<?xml version="1.0" encoding="UTF-8" standalone="no"?>
<svg
   xmlns:dc="http://purl.org/dc/elements/1.1/"
   xmlns:cc="http://creativecommons.org/ns#"
   xmlns:rdf="http://www.w3.org/1999/02/22-rdf-syntax-ns#"
   xmlns:svg="http://www.w3.org/2000/svg"
   xmlns="http://www.w3.org/2000/svg"
   xmlns:sodipodi="http://sodipodi.sourceforge.net/DTD/sodipodi-0.dtd"
   xmlns:inkscape="http://www.inkscape.org/namespaces/inkscape"
   width="744.094488189"
   height="1052.36220472"
   id="svg3336"
   version="1.1"
   inkscape:version="0.91 r13725"
   sodipodi:docname="lid_cut2.svg">
  <metadata
     id="metadata6556">
    <rdf:RDF>
      <cc:Work
         rdf:about="">
        <dc:format>image/svg+xml</dc:format>
        <dc:type
           rdf:resource="http://purl.org/dc/dcmitype/StillImage" />
        <dc:title></dc:title>
      </cc:Work>
    </rdf:RDF>
  </metadata>
  <sodipodi:namedview
     pagecolor="#ffffff"
     bordercolor="#666666"
     borderopacity="1"
     objecttolerance="10"
     gridtolerance="10"
     guidetolerance="10"
     inkscape:pageopacity="0"
     inkscape:pageshadow="2"
     inkscape:window-width="1920"
     inkscape:window-height="1017"
     id="namedview6554"
     showgrid="false"
     inkscape:zoom="0.28287975"
     inkscape:cx="1589.6802"
     inkscape:cy="125.2899"
     inkscape:window-x="-8"
     inkscape:window-y="-8"
     inkscape:window-maximized="1"
     inkscape:current-layer="g3352" />
  <desc
     id="desc3338">C:\Users\Moritz\Documents\GitHub\MyOpenSCADLibrary\Propagator\lid_cut2.dxf - scale = 1.000000, origin = (0.000000, 0.000000), auto = False</desc>
  <defs
     id="defs3340">
    <marker
       refY="0.0"
       refX="0.0"
       style="overflow:visible"
       id="DistanceX"
       orient="auto">
      <path
         style="stroke:#000000; stroke-width:0.5"
         d="M 3,-3 L -3,3 M 0,-5 L  0,5"
         id="path3343" />
    </marker>
    <pattern
       height="8"
       width="8"
       patternUnits="userSpaceOnUse"
       y="0"
       x="0"
       id="Hatch">
      <path
         linecap="square"
         stroke="#000000"
         stroke-width="0.25"
         d="M8 4 l-4,4"
         id="path3346" />
      <path
         linecap="square"
         stroke="#000000"
         stroke-width="0.25"
         d="M6 2 l-4,4"
         id="path3348" />
      <path
         linecap="square"
         stroke="#000000"
         stroke-width="0.25"
         d="M4 0 l-4,4"
         id="path3350" />
    </pattern>
  </defs>
  <g
     inkscape:label="0"
     inkscape:groupmode="layer"
     id="g3352">
    <path
       style="fill:none;stroke:#000000"
       d="m -1092.1429,336.73465 c 18.2891,66.78413 115.22804,86.06702 157.67133,31.35146 47.38258,-50.4798 13.16807,-143.20021 -55.64616,-150.80248 -65.78057,-12.41754 -124.57287,56.34914 -102.02517,119.45102 z"
       id="path3382"
       inkscape:connector-curvature="0" />
    <path
       style="fill:none;stroke:#000000"
       d="m -260.31083,362.41654 c 43.28014,-54.05206 1.89577,-143.80751 -67.31508,-145.9876 -68.68538,-8.65717 -123.59669,73.51871 -89.29352,133.65837 28.62169,60.52154 118.80577,67.66208 156.6086,12.32923 z"
       id="path3396"
       inkscape:connector-curvature="0" />
    <path
       style="fill:none;stroke:#000000"
       d="m -650.19685,308.26772 c -3.23901,69.16455 82.99428,117.46199 140.26778,78.53942 60.66145,-33.3673 56.77806,-132.1236 -6.3222,-160.61633 -58.7273,-32.14226 -135.88243,15.09714 -133.94558,82.07691 z"
       id="path3460"
       inkscape:connector-curvature="0" />
    <path
       style="fill:none;stroke:#000000"
       d="m -140.08252,395.88307 c 64.778167,24.46034 137.3590487,-42.63417 118.04239,-109.13065 -12.989829,-68.00294 -108.11412,-94.8293 -154.7119,-43.62115 -48.71511,45.9218 -27.63516,133.89908 36.66951,152.7518 z"
       id="path3508"
       inkscape:connector-curvature="0" />
    <path
       style="fill:none;stroke:#000000"
       d="M 165.76441,382.79764 C 223.62909,344.76651 212.00907,246.61315 146.85713,223.15545 84.208238,193.69086 6.5922608,254.88207 20.629349,322.67751 c 8.518882,66.40223 92.085111,101.06452 145.135061,60.12013 z"
       id="path3514"
       inkscape:connector-curvature="0" />
    <path
       style="fill:none;stroke:#000000"
       d="m 422.45787,336.73465 c 24.4601,-64.77765 -42.63752,-137.35707 -109.132,-118.03975 -68.00203,12.98966 -94.82861,108.11201 -43.6214,154.70928 45.92289,48.71585 133.89964,27.63571 152.7534,-36.66953 z"
       id="path3558"
       inkscape:connector-curvature="0" />
    <path
       style="fill:none;stroke:#000000"
       d="m -752.83228,395.88307 c 66.78412,-18.28911 86.06703,-115.22804 31.35146,-157.67134 -50.4798,-47.38259 -143.2002,-13.16807 -150.80248,55.64616 -12.41755,65.78048 56.34918,124.57289 119.45102,102.02518 z"
       id="path3632"
       inkscape:connector-curvature="0" />
    <path
       style="fill:none;stroke:#000000"
       d="m 586.53779,220.65236 c -64.77691,-24.4599 -137.35669,42.63659 -118.03966,109.13067 12.99028,68.0016 108.11174,94.8295 154.70919,43.62115 48.71595,-45.92258 27.63514,-133.89822 -36.66953,-152.75182 z"
       id="path3648"
       inkscape:connector-curvature="0" />
    <path
       style="fill:none;stroke:#000000"
       d="m 693.68386,279.80079 c -24.45991,64.77691 42.63658,137.3567 109.13066,118.03966 68.0016,-12.99028 94.82952,-108.11173 43.62115,-154.70919 -45.92257,-48.71595 -133.89822,-27.63514 -152.75181,36.66953 z"
       id="path3698"
       inkscape:connector-curvature="0" />
    <path
       style="fill:none;stroke:#000000"
       d="m 1058.6764,233.73779 c -54.0515,-43.28174 -143.80625,-1.89586 -145.98758,67.31376 -8.65698,68.68524 73.5189,123.59615 133.65838,89.29307 60.521,-28.62135 67.6621,-118.80452 12.3292,-156.60683 z"
       id="path3726"
       inkscape:connector-curvature="0" />
    <path
       style="fill:none;stroke:#000000"
       d="m 586.53779,433.25079 c -64.7769,-24.4599 -137.3567,42.63658 -118.03966,109.13066 12.99028,68.0016 108.11174,94.82952 154.70919,43.62115 48.71595,-45.92258 27.63514,-133.89822 -36.66953,-152.75181 z"
       id="path3768"
       inkscape:connector-curvature="0" />
    <path
       style="fill:none;stroke:#000000"
       d="m 422.45787,549.33307 c 24.4601,-64.77765 -42.63752,-137.35706 -109.132,-118.03974 -68.00203,12.98966 -94.82861,108.11201 -43.6214,154.70927 45.92289,48.71586 133.89964,27.63571 152.7534,-36.66953 z"
       id="path3798"
       inkscape:connector-curvature="0" />
    <path
       style="fill:none;stroke:#000000"
       d="M 140.08252,433.25079 C 75.304353,408.79045 2.7234708,475.88496 22.04013,542.38144 c 12.989833,68.00293 108.11412,94.8293 154.7119,43.62115 48.7151,-45.9218 27.63516,-133.89909 -36.66951,-152.7518 z"
       id="path3848"
       inkscape:connector-curvature="0" />
    <path
       style="fill:none;stroke:#000000"
       d="m 873.4252,520.86614 c 3.23901,-69.16454 -82.99429,-117.46199 -140.26778,-78.53942 -60.66145,33.36729 -56.77806,132.12361 6.3222,160.61633 58.72729,32.14227 135.88243,-15.09716 133.94558,-82.07691 z"
       id="path3880"
       inkscape:connector-curvature="0" />
    <path
       style="fill:none;stroke:#000000"
       d="m -186.14551,466.71732 c -43.2809,54.05176 -1.89581,143.80746 67.31482,145.98757 68.686895,8.65817 123.5963866,-73.51741 89.295273,-133.65838 -28.622119,-60.52138 -118.807233,-67.66243 -156.610093,-12.32919 z"
       id="path3936"
       inkscape:connector-curvature="0" />
    <path
       style="fill:none;stroke:#000000"
       d="m -260.31083,575.01496 c 43.28015,-54.05206 1.89576,-143.8075 -67.31508,-145.98759 -68.68538,-8.65717 -123.59669,73.5187 -89.29352,133.65837 28.6217,60.52153 118.80577,67.66208 156.6086,12.32922 z"
       id="path3956"
       inkscape:connector-curvature="0" />
    <path
       style="fill:none;stroke:#000000"
       d="m 929.99764,575.01496 c 38.03148,57.86527 136.18406,46.24477 159.64216,-18.90729 29.4644,-62.64826 -31.7289,-140.26152 -99.52207,-126.22561 -66.40035,8.5212 -101.06505,92.0824 -60.12009,145.1329 z"
       id="path4024"
       inkscape:connector-curvature="0" />
    <path
       style="fill:none;stroke:#000000"
       d="m -950.37874,595.39606 c 57.86527,-38.03147 46.24477,-136.18407 -18.90729,-159.64217 -62.64827,-29.46447 -140.26157,31.72889 -126.22557,99.52208 8.5211,66.40038 92.0824,101.06503 145.13286,60.12009 z"
       id="path4034"
       inkscape:connector-curvature="0" />
    <path
       style="fill:none;stroke:#000000"
       d="m -586.53779,433.25079 c -66.78412,18.2891 -86.06704,115.22804 -31.35147,157.67134 50.4798,47.38258 143.2002,13.16807 150.80248,-55.64616 12.41755,-65.78047 -56.34917,-124.57288 -119.45101,-102.02518 z"
       id="path4092"
       inkscape:connector-curvature="0" />
    <path
       style="fill:none;stroke:#000000"
       d="m -752.83228,433.25079 c -64.7769,-24.4599 -137.35671,42.63657 -118.03967,109.13066 12.99029,68.0016 108.11174,94.82953 154.7092,43.62115 48.71594,-45.92258 27.63514,-133.89821 -36.66953,-152.75181 z"
       id="path4128"
       inkscape:connector-curvature="0" />
    <path
       style="fill:none;stroke:#000000"
       d="m -612.21969,807.99626 c 54.05206,43.28012 143.80751,1.89577 145.98758,-67.31508 8.65777,-68.6854 -73.51894,-123.59663 -133.65835,-89.29352 -60.52198,28.62173 -67.66199,118.80553 -12.32923,156.6086 z"
       id="path4186"
       inkscape:connector-curvature="0" />
    <path
       style="fill:none;stroke:#000000"
       d="m 1058.6764,658.93465 c -54.0512,-43.28167 -143.80636,-1.89597 -145.9876,67.31339 -8.65812,68.68689 73.51738,123.59644 133.6584,89.29532 60.5208,-28.62198 67.6628,-118.8062 12.3292,-156.60871 z"
       id="path4206"
       inkscape:connector-curvature="0" />
    <path
       style="fill:none;stroke:#000000"
       d="m -1058.6764,807.99626 c 54.0521,43.28011 143.80752,1.89578 145.9876,-67.31508 8.65778,-68.68542 -73.51896,-123.59662 -133.6584,-89.29352 -60.5219,28.62174 -67.6619,118.80554 -12.3292,156.6086 z"
       id="path4266"
       inkscape:connector-curvature="0" />
    <path
       style="fill:none;stroke:#000000"
       d="M 186.14551,679.31575 C 148.11322,621.45051 49.960471,633.07043 26.500082,698.22192 c -29.4627107,62.65067 31.72765,140.26553 99.524598,126.22754 66.40212,-8.5176 101.0648,-92.08453 60.12083,-145.13371 z"
       id="path4284"
       inkscape:connector-curvature="0" />
    <path
       style="fill:none;stroke:#000000"
       d="m -247.22539,761.93327 c 24.45909,-64.77923 -42.63622,-137.35884 -109.13244,-118.04143 -68.0025,12.99052 -94.82951,108.11277 -43.62115,154.71077 45.9219,48.71466 133.9006,27.63563 152.75359,-36.66934 z"
       id="path4318"
       inkscape:connector-curvature="0" />
    <path
       style="fill:none;stroke:#000000"
       d="m 835.44803,807.99626 c 57.86513,-38.0322 46.24565,-136.18549 -18.90729,-159.64395 -62.64846,-29.46453 -140.26244,31.72945 -126.22568,99.52298 8.52044,66.40167 92.08198,101.06393 145.13297,60.12097 z"
       id="path4354"
       inkscape:connector-curvature="0" />
    <path
       style="fill:none;stroke:#000000"
       d="m -57.463937,807.99626 c 57.86445872,-38.0315 46.245669,-136.18593 -18.907017,-159.64396 -62.649116,-29.46464 -140.265926,31.72715 -126.228166,99.52296 8.51849,66.40321 92.08474,101.06362 145.135183,60.121 z"
       id="path4394"
       inkscape:connector-curvature="0" />
    <path
       style="fill:none;stroke:#000000"
       d="m 586.53779,645.84921 c -64.77745,-24.45996 -137.35763,42.63741 -118.03973,109.13201 12.98966,68.00203 108.11201,94.82859 154.70927,43.62139 48.71588,-45.92321 27.63607,-133.89948 -36.66954,-152.7534 z"
       id="path4448"
       inkscape:connector-curvature="0" />
    <path
       style="fill:none;stroke:#000000"
       d="m -693.68386,761.93327 c 24.46082,-64.77752 -42.63574,-137.35852 -109.13066,-118.04144 -68.0025,12.99055 -94.82953,108.11277 -43.62115,154.71078 45.92166,48.71467 133.89903,27.63523 152.75181,-36.66934 z"
       id="path4478"
       inkscape:connector-curvature="0" />
    <path
       style="fill:none;stroke:#000000"
       d="m 280.69228,807.99626 c 54.05231,43.28014 143.80887,1.89646 145.98899,-67.31508 8.65782,-68.6863 -73.52018,-123.59674 -133.65993,-89.29351 -60.52162,28.62049 -67.66123,118.80697 -12.32906,156.60859 z"
       id="path4546"
       inkscape:connector-curvature="0" />
    <path
       style="fill:none;stroke:#000000"
       d="m -873.4252,946.06299 c -3.54155,69.06111 83.42503,117.97681 140.18667,78.34521 60.82738,-33.20262 56.9221,-131.86909 -6.24105,-160.42382 -58.72875,-32.14021 -135.88318,15.09692 -133.94562,82.07861 z"
       id="path4580"
       inkscape:connector-curvature="0" />
    <path
       style="fill:none;stroke:#000000"
       d="m -586.53779,858.44587 c -66.78486,18.29008 -86.06713,115.23049 -31.35147,157.67463 50.47991,47.3814 143.20116,13.1682 150.80255,-55.64679 12.41766,-65.78276 -56.34646,-124.57325 -119.45108,-102.02784 z"
       id="path4612"
       inkscape:connector-curvature="0" />
    <path
       style="fill:none;stroke:#000000"
       d="m 186.14551,1000.2132 c 43.28063,-54.05137 1.89756,-143.81182 -67.31486,-145.98919 -68.688996,-8.66066 -123.5962707,73.51923 -89.29523,133.66021 28.621202,60.52088 118.80841,67.66158 156.61009,12.32898 z"
       id="path4636"
       inkscape:connector-curvature="0" />
    <path
       style="fill:none;stroke:#000000"
       d="m 388.99134,871.53165 c -54.0511,-43.28053 -143.81077,-1.89708 -145.9878,67.31486 -8.66084,68.68819 73.5181,123.59629 133.65861,89.29519 60.52143,-28.62219 67.6624,-118.80715 12.32919,-156.61005 z"
       id="path4686"
       inkscape:connector-curvature="0" />
    <path
       style="fill:none;stroke:#000000"
       d="M 632.60079,891.91276 C 594.56966,834.04808 496.4163,845.6681 472.9586,910.82004 c -29.46463,62.64889 31.72673,140.26476 99.52206,126.22776 66.40215,-8.5192 101.06458,-92.08494 60.12013,-145.13504 z"
       id="path4724"
       inkscape:connector-curvature="0" />
    <path
       style="fill:none;stroke:#000000"
       d="m 855.82913,891.91276 c -38.03112,-57.86468 -136.18449,-46.24466 -159.64219,18.90728 -29.46462,62.6489 31.72673,140.26476 99.52207,126.22776 66.40214,-8.5192 101.06459,-92.08495 60.12012,-145.13504 z"
       id="path4764"
       inkscape:connector-curvature="0" />
    <path
       style="fill:none;stroke:#000000"
       d="m -1058.6764,1020.5945 c 54.0519,43.2804 143.8075,1.8958 145.9876,-67.3149 8.65806,-68.6867 -73.5176,-123.59677 -133.6584,-89.29521 -60.5214,28.6223 -67.6624,118.80706 -12.3292,156.61011 z"
       id="path4826"
       inkscape:connector-curvature="0" />
    <path
       style="fill:none;stroke:#000000"
       d="m 950.37874,1020.5945 c 54.05186,43.2804 143.80746,1.8958 145.98756,-67.3149 8.658,-68.68672 -73.5175,-123.59677 -133.65837,-89.29521 -60.52142,28.62232 -67.66242,118.80705 -12.32919,156.61011 z"
       id="path4866"
       inkscape:connector-curvature="0" />
    <path
       style="fill:none;stroke:#000000"
       d="m -363.30945,1033.68 c 64.77993,24.4585 137.35817,-42.63613 118.04108,-109.13338 -12.98902,-68.00276 -108.11326,-94.82894 -154.7106,-43.62149 -48.71586,45.92304 -27.63607,133.90097 36.66952,152.75487 z"
       id="path4908"
       inkscape:connector-curvature="0" />
    <path
       style="fill:none;stroke:#000000"
       d="m -37.08248,891.91276 c -38.032253,-57.86479 -136.18676,-46.24526 -159.64578,18.90723 -29.46286,62.65081 31.72782,140.26571 99.52478,126.22791 66.403466,-8.5184 101.0633678,-92.08456 60.121,-145.13514 z"
       id="path4924"
       inkscape:connector-curvature="0" />
    <path
       style="fill:none;stroke:#000000"
       d="m -306.37382,1246.2785 c 66.78481,-18.2896 86.06591,-115.231 31.35118,-157.6746 -50.48015,-47.3813 -143.20253,-13.1689 -150.80403,55.6468 -12.41778,65.7839 56.34769,124.5735 119.45285,102.0278 z"
       id="path4992"
       inkscape:connector-curvature="0" />
    <path
       style="fill:none;stroke:#000000"
       d="m -950.37874,1233.1928 c 57.86544,-38.0323 46.24539,-136.1863 -18.90724,-159.6454 -62.65002,-29.4627 -140.26252,31.7298 -126.22562,99.5246 8.5201,66.4014 92.0822,101.0645 145.13286,60.1208 z"
       id="path4994"
       inkscape:connector-curvature="0" />
    <path
       style="fill:none;stroke:#000000"
       d="m 1004.5276,1250.7874 c 69.1665,3.2422 117.4617,-82.9962 78.5394,-140.2693 -33.3668,-60.6609 -132.12396,-56.7777 -160.61634,6.3221 -32.14193,58.7267 15.09498,135.8877 82.07694,133.9472 z"
       id="path5070"
       inkscape:connector-curvature="0" />
    <path
       style="fill:none;stroke:#000000"
       d="m 426.9685,1158.6614 c 3.24035,-69.1667 -82.99464,-117.4621 -140.26929,-78.5411 -60.66129,33.3677 -56.77815,132.1264 6.32209,160.6198 58.72918,32.14 135.88477,-15.096 133.9472,-82.0787 z"
       id="path5080"
       inkscape:connector-curvature="0" />
    <path
       style="fill:none;stroke:#000000"
       d="m -529.60394,1246.2785 c 66.7849,-18.29 86.06711,-115.2305 31.35146,-157.6746 -50.47992,-47.3814 -143.20115,-13.1682 -150.80254,55.6468 -12.41769,65.7828 56.34647,124.5733 119.45108,102.0278 z"
       id="path5152"
       inkscape:connector-curvature="0" />
    <path
       style="fill:none;stroke:#000000"
       d="m 809.76614,1246.2785 c 66.7849,-18.29 86.06711,-115.2305 31.35146,-157.6746 -50.47992,-47.3814 -143.20116,-13.1682 -150.80254,55.6468 -12.41769,65.7828 56.34647,124.5733 119.45108,102.0278 z"
       id="path5192"
       inkscape:connector-curvature="0" />
    <path
       style="fill:none;stroke:#000000"
       d="m 483.54095,1104.5112 c -43.28151,54.0511 -1.89762,143.8106 67.31379,145.9892 68.68734,8.6594 123.59605,-73.5207 89.29303,-133.6602 -28.62046,-60.5206 -118.80565,-67.6613 -156.60682,-12.329 z"
       id="path5216"
       inkscape:connector-curvature="0" />
    <path
       style="fill:none;stroke:#000000"
       d="m 83.145472,1246.2785 c 64.780498,24.4588 137.359928,-42.6356 118.042898,-109.1337 -12.98984,-68.0031 -108.114431,-94.8285 -154.712244,-43.6213 -48.7146252,45.9222 -27.63598,133.9016 36.669346,152.755 z"
       id="path5268"
       inkscape:connector-curvature="0" />
    <path
       style="fill:none;stroke:#000000"
       d="m -186.14551,1212.8117 c 38.03195,57.8648 136.186874,46.2452 159.645439,-18.9073 29.4627346,-62.6508 -31.727549,-140.2657 -99.524609,-126.2279 -66.40322,8.5183 -101.06417,92.085 -60.12083,145.1352 z"
       id="path5304"
       inkscape:connector-curvature="0" />
    <path
       style="fill:none;stroke:#000000"
       d="m -781.29921,1250.7874 c 67.76199,3.4728 116.22906,-79.6923 79.95918,-136.862 -30.08267,-64.543 -137.37207,-61.9276 -162.13327,5.5883 -28.7343,50.3947 8.82395,124.9282 67.89626,129.5829 l 7.11119,1.1976 7.16664,0.4932 z"
       id="path5350"
       inkscape:connector-curvature="0" />
    <path
       style="fill:none;stroke:#000000"
       d="m 1096.6535,1371.2598 c 3.2405,-69.1661 -82.9933,-117.462 -140.26776,-78.5412 -60.66129,33.3681 -56.77885,132.1251 6.32222,160.6181 58.72684,32.1423 135.88324,-15.0972 133.94554,-82.0769 z"
       id="path5360"
       inkscape:connector-curvature="0" />
    <path
       style="fill:none;stroke:#000000"
       d="m -306.37382,1458.8752 c 66.78497,-18.2891 86.06573,-115.2296 31.35119,-157.673 -50.48027,-47.3812 -143.2026,-13.1688 -150.80404,55.6469 -12.4185,65.782 56.35025,124.574 119.45285,102.0261 z"
       id="path5432"
       inkscape:connector-curvature="0" />
    <path
       style="fill:none;stroke:#000000"
       d="m -1004.5276,1279.1339 c -69.166,-3.2426 -117.4619,82.9955 -78.5393,140.2681 33.3677,60.6609 132.12257,56.7775 160.61621,-6.3219 32.14218,-58.7261 -15.09548,-135.8872 -82.07691,-133.9462 z"
       id="path5450"
       inkscape:connector-curvature="0" />
    <path
       style="fill:none;stroke:#000000"
       d="m 650.19685,1371.2598 c 3.24035,-69.166 -82.9933,-117.462 -140.2678,-78.5412 -60.6613,33.3681 -56.77885,132.1251 6.32222,160.6181 58.72688,32.1423 135.88322,-15.0972 133.94558,-82.0769 z"
       id="path5480"
       inkscape:connector-curvature="0" />
    <path
       style="fill:none;stroke:#000000"
       d="m -483.54095,1317.1096 c -38.03079,-57.8646 -136.18449,-46.2448 -159.64218,18.907 -29.46512,62.6488 31.72803,140.2632 99.52209,126.2273 66.40128,-8.5214 101.0652,-92.0833 60.12009,-145.1343 z"
       id="path5524"
       inkscape:connector-curvature="0" />
    <path
       style="fill:none;stroke:#000000"
       d="m 334.84252,1279.1339 c -69.16747,-3.244 -117.46209,82.9945 -78.54119,140.2681 33.36842,60.6609 132.12396,56.7779 160.61806,-6.3219 32.14216,-58.7261 -15.09545,-135.8872 -82.07687,-133.9462 z"
       id="path5570"
       inkscape:connector-curvature="0" />
    <path
       style="fill:none;stroke:#000000"
       d="m -868.91457,1399.7282 c 17.65538,67.1488 115.39272,85.3048 158.21365,31.6822 36.52884,-42.3908 25.00309,-118.6771 -28.45149,-140.7976 -44.87628,-28.4835 -110.83021,-1.7133 -127.37856,47.5003 -12.71784,19.1045 -5.1255,40.9924 -2.3836,61.6151 z"
       id="path5622"
       inkscape:connector-curvature="0" />
    <path
       style="fill:none;stroke:#000000"
       d="m 706.76929,1425.4087 c 38.03155,57.865 136.18271,46.2447 159.64218,-18.9063 29.46462,-62.6487 -31.72684,-140.2645 -99.52205,-126.2274 -66.40113,8.5185 -101.06517,92.0846 -60.12013,145.1337 z"
       id="path5664"
       inkscape:connector-curvature="0" />
    <path
       style="fill:none;stroke:#000000"
       d="m 37.08248,1425.4087 c 38.032663,57.8651 136.18495,46.2453 159.64577,-18.9062 29.46286,-62.6507 -31.72791,-140.2654 -99.524768,-126.2276 -66.402439,8.5178 -101.0639695,92.0841 -60.121002,145.1338 z"
       id="path5704"
       inkscape:connector-curvature="0" />
    <path
       style="fill:none;stroke:#000000"
       d="m -83.145472,1283.6427 c -64.780498,-24.4587 -137.359888,42.6353 -118.042908,109.1335 12.99146,68.0019 108.114402,94.8281 154.712228,43.6201 48.7151618,-45.9214 27.635311,-133.9008 -36.66932,-152.7536 z"
       id="path5728"
       inkscape:connector-curvature="0" />
    <path
       style="fill:none;stroke:#000000"
       d="m -19.488189,1583.8583 c 3.242406,-69.1667 -82.995971,-117.4617 -140.269191,-78.5395 -60.66102,33.3669 -56.77781,132.1241 6.32219,160.6164 58.726726,32.1418 135.88755,-15.0948 133.947001,-82.0769 z"
       id="path5760"
       inkscape:connector-curvature="0" />
    <path
       style="fill:none;stroke:#000000"
       d="m -483.54095,1638.0071 c 43.28175,-54.0515 1.8959,-143.8063 -67.31375,-145.9875 -68.68526,-8.6571 -123.59615,73.5188 -89.29307,133.6583 28.62141,60.521 118.80447,67.6622 156.60682,12.3292 z"
       id="path5796"
       inkscape:connector-curvature="0" />
    <path
       style="fill:none;stroke:#000000"
       d="m 727.15039,1509.3283 c -57.86525,38.0315 -46.24478,136.1841 18.90729,159.6422 62.64822,29.4645 140.26153,-31.7289 126.22562,-99.5221 -8.52118,-66.4004 -92.08236,-101.0649 -145.13291,-60.1201 z"
       id="path5854"
       inkscape:connector-curvature="0" />
    <path
       style="fill:none;stroke:#000000"
       d="m 503.92205,1658.3882 c 54.05148,43.2818 143.80623,1.8958 145.98755,-67.3138 8.65701,-68.6852 -73.51886,-123.5961 -133.65833,-89.2931 -60.52109,28.6214 -67.66217,118.8046 -12.32922,156.6069 z"
       id="path5906"
       inkscape:connector-curvature="0" />
    <path
       style="fill:none;stroke:#000000"
       d="m -1004.5276,1675.9843 c 69.16457,3.2389 117.46206,-82.9943 78.53947,-140.2679 -33.3673,-60.6614 -132.12367,-56.778 -160.61637,6.3223 -32.1421,58.7273 15.0971,135.8823 82.0769,133.9456 z"
       id="path5950"
       inkscape:connector-curvature="0" />
    <path
       style="fill:none;stroke:#000000"
       d="m 426.9685,1583.8583 c 3.23906,-69.1654 -82.99548,-117.4621 -140.26927,-78.5395 -60.66097,33.3667 -56.77783,132.1242 6.32211,160.6164 58.72764,32.1422 135.88397,-15.0962 133.94716,-82.0769 z"
       id="path5960"
       inkscape:connector-curvature="0" />
    <path
       style="fill:none;stroke:#000000"
       d="m -260.31083,1638.0071 c 43.28014,-54.0521 1.89578,-143.8075 -67.31508,-145.9876 -68.68542,-8.6572 -123.59668,73.5187 -89.29352,133.6584 28.62172,60.5215 118.80575,67.662 156.6086,12.3292 z"
       id="path5996"
       inkscape:connector-curvature="0" />
    <path
       style="fill:none;stroke:#000000"
       d="m -752.83228,1496.2429 c -54.78437,-19.347 -119.88079,23.7449 -119.7714,82.4307 -10.10181,73.4433 88.05144,127.4268 145.45329,79.7146 53.39186,-35.3949 48.55824,-121.9105 -5.95759,-153.2755 -5.982,-4.0392 -12.48254,-7.7148 -19.7243,-8.8698 z"
       id="path6048"
       inkscape:connector-curvature="0" />
    <path
       style="fill:none;stroke:#000000"
       d="m 916.9122,1555.3913 c -24.45991,64.7769 42.63657,137.3568 109.1307,118.0397 68.0016,-12.9902 94.8294,-108.1118 43.6211,-154.7092 -45.9225,-48.7159 -133.89822,-27.6351 -152.7518,36.6695 z"
       id="path6098"
       inkscape:connector-curvature="0" />
    <path
       style="fill:none;stroke:#000000"
       d="m 186.14551,1638.0071 c 43.28088,-54.0517 1.89587,-143.8075 -67.31482,-145.9876 -68.686899,-8.6582 -123.5963835,73.5174 -89.295273,133.6584 28.622078,60.5214 118.807213,67.6624 156.610093,12.3292 z"
       id="path6116"
       inkscape:connector-curvature="0" />
    <path
       style="fill:none;stroke:#000000"
       d="m 916.9122,1824.9236 c 18.28912,66.7841 115.228,86.0671 157.6713,31.3515 47.3826,-50.4798 13.1681,-143.2002 -55.6461,-150.8025 -65.78047,-12.4175 -124.5729,56.3492 -102.0252,119.451 z"
       id="path6182"
       inkscape:connector-curvature="0" />
    <path
       style="fill:none;stroke:#000000"
       d="m -470.45551,1767.9898 c -18.2891,-66.7841 -115.22802,-86.0671 -157.67134,-31.3515 -47.38257,50.4798 -13.16808,143.2001 55.64615,150.8025 65.78043,12.4175 124.5729,-56.3492 102.02519,-119.451 z"
       id="path6202"
       inkscape:connector-curvature="0" />
    <path
       style="fill:none;stroke:#000000"
       d="m 855.82913,1742.3079 c -38.03145,-57.8653 -136.18409,-46.2448 -159.64217,18.9073 -29.46448,62.6482 31.72895,140.2614 99.52208,126.2256 66.40033,-8.5213 101.06506,-92.0824 60.12009,-145.1329 z"
       id="path6244"
       inkscape:connector-curvature="0" />
    <path
       style="fill:none;stroke:#000000"
       d="m -835.44803,1870.9866 c 51.42899,41.7971 141.68681,4.4808 144.39925,-62.6932 14.54074,-66.5552 -64.57756,-125.9827 -125.62966,-97.1102 -42.45363,18.3452 -68.14053,68.5426 -52.23613,113.7404 6.23406,17.7616 17.20027,35.7719 33.46654,46.063 z"
       id="path6306"
       inkscape:connector-curvature="0" />
    <path
       style="fill:none;stroke:#000000"
       d="m 558.07087,1704.3307 c -69.16452,-3.239 -117.46201,82.9943 -78.53943,140.2678 33.3673,60.6614 132.1236,56.778 160.61633,-6.3222 32.14227,-58.7273 -15.09717,-135.8825 -82.0769,-133.9456 z"
       id="path6330"
       inkscape:connector-curvature="0" />
    <path
       style="fill:none;stroke:#000000"
       d="m -976.06063,1708.8413 c -64.77697,-24.4599 -137.35667,42.6366 -118.03967,109.1307 12.9903,68.0016 108.11175,94.8295 154.7092,43.6211 48.71597,-45.9226 27.6351,-133.8981 -36.66953,-152.7518 z"
       id="path6368"
       inkscape:connector-curvature="0" />
    <path
       style="fill:none;stroke:#000000"
       d="m 334.84252,1704.3307 c -69.16606,-3.2404 -117.46204,82.9933 -78.54125,140.2678 33.36805,60.6613 132.12497,56.7785 160.61816,-6.3222 32.14226,-58.7273 -15.09716,-135.8824 -82.07691,-133.9456 z"
       id="path6410"
       inkscape:connector-curvature="0" />
    <path
       style="fill:none;stroke:#000000"
       d="m -242.71653,1796.4567 c 3.24248,-69.1659 -82.995,-117.4618 -140.26778,-78.5394 -60.66145,33.3673 -56.77806,132.1236 6.3222,160.6163 58.72619,32.1419 135.88635,-15.0958 133.94558,-82.0769 z"
       id="path6440"
       inkscape:connector-curvature="0" />
    <path
       style="fill:none;stroke:#000000"
       d="m 111.61417,1888.5827 c 69.16574,3.2401 117.46241,-82.9935 78.54096,-140.2678 -33.36825,-60.6618 -132.12589,-56.7785 -160.619713,6.3222 -32.1397018,58.7291 15.096677,135.8831 82.078753,133.9456 z"
       id="path6510"
       inkscape:connector-curvature="0" />
    <path
       style="fill:none;stroke:#000000"
       d="m -57.463937,1870.9866 c 57.8646402,-38.0308 46.244737,-136.1845 -18.907017,-159.6422 -62.648916,-29.4645 -140.264976,31.7267 -126.228096,99.5221 8.51931,66.4019 92.08514,101.0647 145.135113,60.1201 z"
       id="path6514"
       inkscape:connector-curvature="0" />
  </g>
</svg>
