  0
SECTION
  2
BLOCKS
  0
ENDSEC
  0
SECTION
  2
ENTITIES
  0
LINE
  8
0
 10
302.5
 20
202.5
 11
-302.5
 21
202.5
  0
LINE
  8
0
 10
-302.5
 20
202.5
 11
-302.5
 21
-202.5
  0
LINE
  8
0
 10
-302.5
 20
-202.5
 11
302.5
 21
-202.5
  0
LINE
  8
0
 10
302.5
 20
-202.5
 11
302.5
 21
202.5
  0
LINE
  8
0
 10
-302.45
 20
-202.45
 11
-302.45
 21
202.45
  0
LINE
  8
0
 10
-302.45
 20
202.45
 11
302.45
 21
202.45
  0
LINE
  8
0
 10
302.45
 20
202.45
 11
302.45
 21
-202.45
  0
LINE
  8
0
 10
302.45
 20
-202.45
 11
-302.45
 21
-202.45
  0
LINE
  8
0
 10
64.7595
 20
125.05
 11
67.849
 21
125.843
  0
LINE
  8
0
 10
67.849
 20
125.843
 11
70.8148
 21
127.017
  0
LINE
  8
0
 10
70.8148
 20
127.017
 11
73.61
 21
128.554
  0
LINE
  8
0
 10
73.61
 20
128.554
 11
76.1906
 21
130.429
  0
LINE
  8
0
 10
76.1906
 20
130.429
 11
78.5158
 21
132.613
  0
LINE
  8
0
 10
78.5158
 20
132.613
 11
80.549
 21
135.07
  0
LINE
  8
0
 10
80.549
 20
135.07
 11
82.2582
 21
137.763
  0
LINE
  8
0
 10
82.2582
 20
137.763
 11
83.6163
 21
140.65
  0
LINE
  8
0
 10
83.6163
 20
140.65
 11
84.602
 21
143.683
  0
LINE
  8
0
 10
84.602
 20
143.683
 11
85.1997
 21
146.817
  0
LINE
  8
0
 10
85.1997
 20
146.817
 11
85.4
 21
150
  0
LINE
  8
0
 10
85.4
 20
150
 11
85.1997
 21
153.183
  0
LINE
  8
0
 10
85.1997
 20
153.183
 11
84.602
 21
156.317
  0
LINE
  8
0
 10
84.602
 20
156.317
 11
83.6163
 21
159.35
  0
LINE
  8
0
 10
83.6163
 20
159.35
 11
82.2582
 21
162.237
  0
LINE
  8
0
 10
82.2582
 20
162.237
 11
80.549
 21
164.93
  0
LINE
  8
0
 10
80.549
 20
164.93
 11
78.5158
 21
167.387
  0
LINE
  8
0
 10
78.5158
 20
167.387
 11
76.1906
 21
169.571
  0
LINE
  8
0
 10
76.1906
 20
169.571
 11
73.61
 21
171.446
  0
LINE
  8
0
 10
73.61
 20
171.446
 11
70.8148
 21
172.983
  0
LINE
  8
0
 10
70.8148
 20
172.983
 11
67.849
 21
174.157
  0
LINE
  8
0
 10
67.849
 20
174.157
 11
64.7595
 21
174.95
  0
LINE
  8
0
 10
64.7595
 20
174.95
 11
61.5949
 21
175.35
  0
LINE
  8
0
 10
61.5949
 20
175.35
 11
58.4051
 21
175.35
  0
LINE
  8
0
 10
58.4051
 20
175.35
 11
55.2405
 21
174.95
  0
LINE
  8
0
 10
55.2405
 20
174.95
 11
52.151
 21
174.157
  0
LINE
  8
0
 10
52.151
 20
174.157
 11
49.1852
 21
172.983
  0
LINE
  8
0
 10
49.1852
 20
172.983
 11
46.39
 21
171.446
  0
LINE
  8
0
 10
46.39
 20
171.446
 11
43.8094
 21
169.571
  0
LINE
  8
0
 10
43.8094
 20
169.571
 11
41.4842
 21
167.387
  0
LINE
  8
0
 10
41.4842
 20
167.387
 11
39.451
 21
164.93
  0
LINE
  8
0
 10
39.451
 20
164.93
 11
37.7418
 21
162.237
  0
LINE
  8
0
 10
37.7418
 20
162.237
 11
36.3837
 21
159.35
  0
LINE
  8
0
 10
36.3837
 20
159.35
 11
35.398
 21
156.317
  0
LINE
  8
0
 10
35.398
 20
156.317
 11
34.8003
 21
153.183
  0
LINE
  8
0
 10
34.8003
 20
153.183
 11
34.6
 21
150
  0
LINE
  8
0
 10
34.6
 20
150
 11
34.8003
 21
146.817
  0
LINE
  8
0
 10
34.8003
 20
146.817
 11
35.398
 21
143.683
  0
LINE
  8
0
 10
35.398
 20
143.683
 11
36.3837
 21
140.65
  0
LINE
  8
0
 10
36.3837
 20
140.65
 11
37.7418
 21
137.763
  0
LINE
  8
0
 10
37.7418
 20
137.763
 11
39.451
 21
135.07
  0
LINE
  8
0
 10
39.451
 20
135.07
 11
41.4842
 21
132.613
  0
LINE
  8
0
 10
41.4842
 20
132.613
 11
43.8094
 21
130.429
  0
LINE
  8
0
 10
43.8094
 20
130.429
 11
46.39
 21
128.554
  0
LINE
  8
0
 10
46.39
 20
128.554
 11
49.1852
 21
127.017
  0
LINE
  8
0
 10
49.1852
 20
127.017
 11
52.151
 21
125.843
  0
LINE
  8
0
 10
52.151
 20
125.843
 11
55.2405
 21
125.05
  0
LINE
  8
0
 10
55.2405
 20
125.05
 11
58.4051
 21
124.65
  0
LINE
  8
0
 10
58.4051
 20
124.65
 11
61.5949
 21
124.65
  0
LINE
  8
0
 10
61.5949
 20
124.65
 11
64.7595
 21
125.05
  0
LINE
  8
0
 10
-235.241
 20
125.05
 11
-232.151
 21
125.843
  0
LINE
  8
0
 10
-232.151
 20
125.843
 11
-229.185
 21
127.017
  0
LINE
  8
0
 10
-229.185
 20
127.017
 11
-226.39
 21
128.554
  0
LINE
  8
0
 10
-226.39
 20
128.554
 11
-223.809
 21
130.429
  0
LINE
  8
0
 10
-223.809
 20
130.429
 11
-221.484
 21
132.613
  0
LINE
  8
0
 10
-221.484
 20
132.613
 11
-219.451
 21
135.07
  0
LINE
  8
0
 10
-219.451
 20
135.07
 11
-217.742
 21
137.763
  0
LINE
  8
0
 10
-217.742
 20
137.763
 11
-216.384
 21
140.65
  0
LINE
  8
0
 10
-216.384
 20
140.65
 11
-215.398
 21
143.683
  0
LINE
  8
0
 10
-215.398
 20
143.683
 11
-214.8
 21
146.817
  0
LINE
  8
0
 10
-214.8
 20
146.817
 11
-214.6
 21
150
  0
LINE
  8
0
 10
-214.6
 20
150
 11
-214.8
 21
153.183
  0
LINE
  8
0
 10
-214.8
 20
153.183
 11
-215.398
 21
156.317
  0
LINE
  8
0
 10
-215.398
 20
156.317
 11
-216.384
 21
159.35
  0
LINE
  8
0
 10
-216.384
 20
159.35
 11
-217.742
 21
162.237
  0
LINE
  8
0
 10
-217.742
 20
162.237
 11
-219.451
 21
164.93
  0
LINE
  8
0
 10
-219.451
 20
164.93
 11
-221.484
 21
167.387
  0
LINE
  8
0
 10
-221.484
 20
167.387
 11
-223.809
 21
169.571
  0
LINE
  8
0
 10
-223.809
 20
169.571
 11
-226.39
 21
171.446
  0
LINE
  8
0
 10
-226.39
 20
171.446
 11
-229.185
 21
172.983
  0
LINE
  8
0
 10
-229.185
 20
172.983
 11
-232.151
 21
174.157
  0
LINE
  8
0
 10
-232.151
 20
174.157
 11
-235.241
 21
174.95
  0
LINE
  8
0
 10
-235.241
 20
174.95
 11
-238.405
 21
175.35
  0
LINE
  8
0
 10
-238.405
 20
175.35
 11
-241.595
 21
175.35
  0
LINE
  8
0
 10
-241.595
 20
175.35
 11
-244.759
 21
174.95
  0
LINE
  8
0
 10
-244.759
 20
174.95
 11
-247.849
 21
174.157
  0
LINE
  8
0
 10
-247.849
 20
174.157
 11
-250.815
 21
172.983
  0
LINE
  8
0
 10
-250.815
 20
172.983
 11
-253.61
 21
171.446
  0
LINE
  8
0
 10
-253.61
 20
171.446
 11
-256.191
 21
169.571
  0
LINE
  8
0
 10
-256.191
 20
169.571
 11
-258.516
 21
167.387
  0
LINE
  8
0
 10
-258.516
 20
167.387
 11
-260.549
 21
164.93
  0
LINE
  8
0
 10
-260.549
 20
164.93
 11
-262.258
 21
162.237
  0
LINE
  8
0
 10
-262.258
 20
162.237
 11
-263.616
 21
159.35
  0
LINE
  8
0
 10
-263.616
 20
159.35
 11
-264.602
 21
156.317
  0
LINE
  8
0
 10
-264.602
 20
156.317
 11
-265.2
 21
153.183
  0
LINE
  8
0
 10
-265.2
 20
153.183
 11
-265.4
 21
150
  0
LINE
  8
0
 10
-265.4
 20
150
 11
-265.2
 21
146.817
  0
LINE
  8
0
 10
-265.2
 20
146.817
 11
-264.602
 21
143.683
  0
LINE
  8
0
 10
-264.602
 20
143.683
 11
-263.616
 21
140.65
  0
LINE
  8
0
 10
-263.616
 20
140.65
 11
-262.258
 21
137.763
  0
LINE
  8
0
 10
-262.258
 20
137.763
 11
-260.549
 21
135.07
  0
LINE
  8
0
 10
-260.549
 20
135.07
 11
-258.516
 21
132.613
  0
LINE
  8
0
 10
-258.516
 20
132.613
 11
-256.191
 21
130.429
  0
LINE
  8
0
 10
-256.191
 20
130.429
 11
-253.61
 21
128.554
  0
LINE
  8
0
 10
-253.61
 20
128.554
 11
-250.815
 21
127.017
  0
LINE
  8
0
 10
-250.815
 20
127.017
 11
-247.849
 21
125.843
  0
LINE
  8
0
 10
-247.849
 20
125.843
 11
-244.759
 21
125.05
  0
LINE
  8
0
 10
-244.759
 20
125.05
 11
-241.595
 21
124.65
  0
LINE
  8
0
 10
-241.595
 20
124.65
 11
-238.405
 21
124.65
  0
LINE
  8
0
 10
-238.405
 20
124.65
 11
-235.241
 21
125.05
  0
LINE
  8
0
 10
4.75948
 20
125.05
 11
7.84903
 21
125.843
  0
LINE
  8
0
 10
7.84903
 20
125.843
 11
10.8148
 21
127.017
  0
LINE
  8
0
 10
10.8148
 20
127.017
 11
13.61
 21
128.554
  0
LINE
  8
0
 10
13.61
 20
128.554
 11
16.1906
 21
130.429
  0
LINE
  8
0
 10
16.1906
 20
130.429
 11
18.5158
 21
132.613
  0
LINE
  8
0
 10
18.5158
 20
132.613
 11
20.549
 21
135.07
  0
LINE
  8
0
 10
20.549
 20
135.07
 11
22.2582
 21
137.763
  0
LINE
  8
0
 10
22.2582
 20
137.763
 11
23.6163
 21
140.65
  0
LINE
  8
0
 10
23.6163
 20
140.65
 11
24.602
 21
143.683
  0
LINE
  8
0
 10
24.602
 20
143.683
 11
25.1997
 21
146.817
  0
LINE
  8
0
 10
25.1997
 20
146.817
 11
25.4
 21
150
  0
LINE
  8
0
 10
25.4
 20
150
 11
25.1997
 21
153.183
  0
LINE
  8
0
 10
25.1997
 20
153.183
 11
24.602
 21
156.317
  0
LINE
  8
0
 10
24.602
 20
156.317
 11
23.6163
 21
159.35
  0
LINE
  8
0
 10
23.6163
 20
159.35
 11
22.2582
 21
162.237
  0
LINE
  8
0
 10
22.2582
 20
162.237
 11
20.549
 21
164.93
  0
LINE
  8
0
 10
20.549
 20
164.93
 11
18.5158
 21
167.387
  0
LINE
  8
0
 10
18.5158
 20
167.387
 11
16.1906
 21
169.571
  0
LINE
  8
0
 10
16.1906
 20
169.571
 11
13.61
 21
171.446
  0
LINE
  8
0
 10
13.61
 20
171.446
 11
10.8148
 21
172.983
  0
LINE
  8
0
 10
10.8148
 20
172.983
 11
7.84903
 21
174.157
  0
LINE
  8
0
 10
7.84903
 20
174.157
 11
4.75948
 21
174.95
  0
LINE
  8
0
 10
4.75948
 20
174.95
 11
1.59488
 21
175.35
  0
LINE
  8
0
 10
1.59488
 20
175.35
 11
-1.59488
 21
175.35
  0
LINE
  8
0
 10
-1.59488
 20
175.35
 11
-4.75948
 21
174.95
  0
LINE
  8
0
 10
-4.75948
 20
174.95
 11
-7.84903
 21
174.157
  0
LINE
  8
0
 10
-7.84903
 20
174.157
 11
-10.8148
 21
172.983
  0
LINE
  8
0
 10
-10.8148
 20
172.983
 11
-13.61
 21
171.446
  0
LINE
  8
0
 10
-13.61
 20
171.446
 11
-16.1906
 21
169.571
  0
LINE
  8
0
 10
-16.1906
 20
169.571
 11
-18.5158
 21
167.387
  0
LINE
  8
0
 10
-18.5158
 20
167.387
 11
-20.549
 21
164.93
  0
LINE
  8
0
 10
-20.549
 20
164.93
 11
-22.2582
 21
162.237
  0
LINE
  8
0
 10
-22.2582
 20
162.237
 11
-23.6163
 21
159.35
  0
LINE
  8
0
 10
-23.6163
 20
159.35
 11
-24.602
 21
156.317
  0
LINE
  8
0
 10
-24.602
 20
156.317
 11
-25.1997
 21
153.183
  0
LINE
  8
0
 10
-25.1997
 20
153.183
 11
-25.4
 21
150
  0
LINE
  8
0
 10
-25.4
 20
150
 11
-25.1997
 21
146.817
  0
LINE
  8
0
 10
-25.1997
 20
146.817
 11
-24.602
 21
143.683
  0
LINE
  8
0
 10
-24.602
 20
143.683
 11
-23.6163
 21
140.65
  0
LINE
  8
0
 10
-23.6163
 20
140.65
 11
-22.2582
 21
137.763
  0
LINE
  8
0
 10
-22.2582
 20
137.763
 11
-20.549
 21
135.07
  0
LINE
  8
0
 10
-20.549
 20
135.07
 11
-18.5158
 21
132.613
  0
LINE
  8
0
 10
-18.5158
 20
132.613
 11
-16.1906
 21
130.429
  0
LINE
  8
0
 10
-16.1906
 20
130.429
 11
-13.61
 21
128.554
  0
LINE
  8
0
 10
-13.61
 20
128.554
 11
-10.8148
 21
127.017
  0
LINE
  8
0
 10
-10.8148
 20
127.017
 11
-7.84903
 21
125.843
  0
LINE
  8
0
 10
-7.84903
 20
125.843
 11
-4.75948
 21
125.05
  0
LINE
  8
0
 10
-4.75948
 20
125.05
 11
-1.59488
 21
124.65
  0
LINE
  8
0
 10
-1.59488
 20
124.65
 11
1.59488
 21
124.65
  0
LINE
  8
0
 10
1.59488
 20
124.65
 11
4.75948
 21
125.05
  0
LINE
  8
0
 10
124.759
 20
125.05
 11
127.849
 21
125.843
  0
LINE
  8
0
 10
127.849
 20
125.843
 11
130.815
 21
127.017
  0
LINE
  8
0
 10
130.815
 20
127.017
 11
133.61
 21
128.554
  0
LINE
  8
0
 10
133.61
 20
128.554
 11
136.191
 21
130.429
  0
LINE
  8
0
 10
136.191
 20
130.429
 11
138.516
 21
132.613
  0
LINE
  8
0
 10
138.516
 20
132.613
 11
140.549
 21
135.07
  0
LINE
  8
0
 10
140.549
 20
135.07
 11
142.258
 21
137.763
  0
LINE
  8
0
 10
142.258
 20
137.763
 11
143.616
 21
140.65
  0
LINE
  8
0
 10
143.616
 20
140.65
 11
144.602
 21
143.683
  0
LINE
  8
0
 10
144.602
 20
143.683
 11
145.2
 21
146.817
  0
LINE
  8
0
 10
145.2
 20
146.817
 11
145.4
 21
150
  0
LINE
  8
0
 10
145.4
 20
150
 11
145.2
 21
153.183
  0
LINE
  8
0
 10
145.2
 20
153.183
 11
144.602
 21
156.317
  0
LINE
  8
0
 10
144.602
 20
156.317
 11
143.616
 21
159.35
  0
LINE
  8
0
 10
143.616
 20
159.35
 11
142.258
 21
162.237
  0
LINE
  8
0
 10
142.258
 20
162.237
 11
140.549
 21
164.93
  0
LINE
  8
0
 10
140.549
 20
164.93
 11
138.516
 21
167.387
  0
LINE
  8
0
 10
138.516
 20
167.387
 11
136.191
 21
169.571
  0
LINE
  8
0
 10
136.191
 20
169.571
 11
133.61
 21
171.446
  0
LINE
  8
0
 10
133.61
 20
171.446
 11
130.815
 21
172.983
  0
LINE
  8
0
 10
130.815
 20
172.983
 11
127.849
 21
174.157
  0
LINE
  8
0
 10
127.849
 20
174.157
 11
124.759
 21
174.95
  0
LINE
  8
0
 10
124.759
 20
174.95
 11
121.595
 21
175.35
  0
LINE
  8
0
 10
121.595
 20
175.35
 11
118.405
 21
175.35
  0
LINE
  8
0
 10
118.405
 20
175.35
 11
115.241
 21
174.95
  0
LINE
  8
0
 10
115.241
 20
174.95
 11
112.151
 21
174.157
  0
LINE
  8
0
 10
112.151
 20
174.157
 11
109.185
 21
172.983
  0
LINE
  8
0
 10
109.185
 20
172.983
 11
106.39
 21
171.446
  0
LINE
  8
0
 10
106.39
 20
171.446
 11
103.809
 21
169.571
  0
LINE
  8
0
 10
103.809
 20
169.571
 11
101.484
 21
167.387
  0
LINE
  8
0
 10
101.484
 20
167.387
 11
99.451
 21
164.93
  0
LINE
  8
0
 10
99.451
 20
164.93
 11
97.7418
 21
162.237
  0
LINE
  8
0
 10
97.7418
 20
162.237
 11
96.3837
 21
159.35
  0
LINE
  8
0
 10
96.3837
 20
159.35
 11
95.398
 21
156.317
  0
LINE
  8
0
 10
95.398
 20
156.317
 11
94.8003
 21
153.183
  0
LINE
  8
0
 10
94.8003
 20
153.183
 11
94.6
 21
150
  0
LINE
  8
0
 10
94.6
 20
150
 11
94.8003
 21
146.817
  0
LINE
  8
0
 10
94.8003
 20
146.817
 11
95.398
 21
143.683
  0
LINE
  8
0
 10
95.398
 20
143.683
 11
96.3837
 21
140.65
  0
LINE
  8
0
 10
96.3837
 20
140.65
 11
97.7418
 21
137.763
  0
LINE
  8
0
 10
97.7418
 20
137.763
 11
99.451
 21
135.07
  0
LINE
  8
0
 10
99.451
 20
135.07
 11
101.484
 21
132.613
  0
LINE
  8
0
 10
101.484
 20
132.613
 11
103.809
 21
130.429
  0
LINE
  8
0
 10
103.809
 20
130.429
 11
106.39
 21
128.554
  0
LINE
  8
0
 10
106.39
 20
128.554
 11
109.185
 21
127.017
  0
LINE
  8
0
 10
109.185
 20
127.017
 11
112.151
 21
125.843
  0
LINE
  8
0
 10
112.151
 20
125.843
 11
115.241
 21
125.05
  0
LINE
  8
0
 10
115.241
 20
125.05
 11
118.405
 21
124.65
  0
LINE
  8
0
 10
118.405
 20
124.65
 11
121.595
 21
124.65
  0
LINE
  8
0
 10
121.595
 20
124.65
 11
124.759
 21
125.05
  0
LINE
  8
0
 10
-175.241
 20
125.05
 11
-172.151
 21
125.843
  0
LINE
  8
0
 10
-172.151
 20
125.843
 11
-169.185
 21
127.017
  0
LINE
  8
0
 10
-169.185
 20
127.017
 11
-166.39
 21
128.554
  0
LINE
  8
0
 10
-166.39
 20
128.554
 11
-163.809
 21
130.429
  0
LINE
  8
0
 10
-163.809
 20
130.429
 11
-161.484
 21
132.613
  0
LINE
  8
0
 10
-161.484
 20
132.613
 11
-159.451
 21
135.07
  0
LINE
  8
0
 10
-159.451
 20
135.07
 11
-157.742
 21
137.763
  0
LINE
  8
0
 10
-157.742
 20
137.763
 11
-156.384
 21
140.65
  0
LINE
  8
0
 10
-156.384
 20
140.65
 11
-155.398
 21
143.683
  0
LINE
  8
0
 10
-155.398
 20
143.683
 11
-154.8
 21
146.817
  0
LINE
  8
0
 10
-154.8
 20
146.817
 11
-154.6
 21
150
  0
LINE
  8
0
 10
-154.6
 20
150
 11
-154.8
 21
153.183
  0
LINE
  8
0
 10
-154.8
 20
153.183
 11
-155.398
 21
156.317
  0
LINE
  8
0
 10
-155.398
 20
156.317
 11
-156.384
 21
159.35
  0
LINE
  8
0
 10
-156.384
 20
159.35
 11
-157.742
 21
162.237
  0
LINE
  8
0
 10
-157.742
 20
162.237
 11
-159.451
 21
164.93
  0
LINE
  8
0
 10
-159.451
 20
164.93
 11
-161.484
 21
167.387
  0
LINE
  8
0
 10
-161.484
 20
167.387
 11
-163.809
 21
169.571
  0
LINE
  8
0
 10
-163.809
 20
169.571
 11
-166.39
 21
171.446
  0
LINE
  8
0
 10
-166.39
 20
171.446
 11
-169.185
 21
172.983
  0
LINE
  8
0
 10
-169.185
 20
172.983
 11
-172.151
 21
174.157
  0
LINE
  8
0
 10
-172.151
 20
174.157
 11
-175.241
 21
174.95
  0
LINE
  8
0
 10
-175.241
 20
174.95
 11
-178.405
 21
175.35
  0
LINE
  8
0
 10
-178.405
 20
175.35
 11
-181.595
 21
175.35
  0
LINE
  8
0
 10
-181.595
 20
175.35
 11
-184.759
 21
174.95
  0
LINE
  8
0
 10
-184.759
 20
174.95
 11
-187.849
 21
174.157
  0
LINE
  8
0
 10
-187.849
 20
174.157
 11
-190.815
 21
172.983
  0
LINE
  8
0
 10
-190.815
 20
172.983
 11
-193.61
 21
171.446
  0
LINE
  8
0
 10
-193.61
 20
171.446
 11
-196.191
 21
169.571
  0
LINE
  8
0
 10
-196.191
 20
169.571
 11
-198.516
 21
167.387
  0
LINE
  8
0
 10
-198.516
 20
167.387
 11
-200.549
 21
164.93
  0
LINE
  8
0
 10
-200.549
 20
164.93
 11
-202.258
 21
162.237
  0
LINE
  8
0
 10
-202.258
 20
162.237
 11
-203.616
 21
159.35
  0
LINE
  8
0
 10
-203.616
 20
159.35
 11
-204.602
 21
156.317
  0
LINE
  8
0
 10
-204.602
 20
156.317
 11
-205.2
 21
153.183
  0
LINE
  8
0
 10
-205.2
 20
153.183
 11
-205.4
 21
150
  0
LINE
  8
0
 10
-205.4
 20
150
 11
-205.2
 21
146.817
  0
LINE
  8
0
 10
-205.2
 20
146.817
 11
-204.602
 21
143.683
  0
LINE
  8
0
 10
-204.602
 20
143.683
 11
-203.616
 21
140.65
  0
LINE
  8
0
 10
-203.616
 20
140.65
 11
-202.258
 21
137.763
  0
LINE
  8
0
 10
-202.258
 20
137.763
 11
-200.549
 21
135.07
  0
LINE
  8
0
 10
-200.549
 20
135.07
 11
-198.516
 21
132.613
  0
LINE
  8
0
 10
-198.516
 20
132.613
 11
-196.191
 21
130.429
  0
LINE
  8
0
 10
-196.191
 20
130.429
 11
-193.61
 21
128.554
  0
LINE
  8
0
 10
-193.61
 20
128.554
 11
-190.815
 21
127.017
  0
LINE
  8
0
 10
-190.815
 20
127.017
 11
-187.849
 21
125.843
  0
LINE
  8
0
 10
-187.849
 20
125.843
 11
-184.759
 21
125.05
  0
LINE
  8
0
 10
-184.759
 20
125.05
 11
-181.595
 21
124.65
  0
LINE
  8
0
 10
-181.595
 20
124.65
 11
-178.405
 21
124.65
  0
LINE
  8
0
 10
-178.405
 20
124.65
 11
-175.241
 21
125.05
  0
LINE
  8
0
 10
244.759
 20
125.05
 11
247.849
 21
125.843
  0
LINE
  8
0
 10
247.849
 20
125.843
 11
250.815
 21
127.017
  0
LINE
  8
0
 10
250.815
 20
127.017
 11
253.61
 21
128.554
  0
LINE
  8
0
 10
253.61
 20
128.554
 11
256.191
 21
130.429
  0
LINE
  8
0
 10
256.191
 20
130.429
 11
258.516
 21
132.613
  0
LINE
  8
0
 10
258.516
 20
132.613
 11
260.549
 21
135.07
  0
LINE
  8
0
 10
260.549
 20
135.07
 11
262.258
 21
137.763
  0
LINE
  8
0
 10
262.258
 20
137.763
 11
263.616
 21
140.65
  0
LINE
  8
0
 10
263.616
 20
140.65
 11
264.602
 21
143.683
  0
LINE
  8
0
 10
264.602
 20
143.683
 11
265.2
 21
146.817
  0
LINE
  8
0
 10
265.2
 20
146.817
 11
265.4
 21
150
  0
LINE
  8
0
 10
265.4
 20
150
 11
265.2
 21
153.183
  0
LINE
  8
0
 10
265.2
 20
153.183
 11
264.602
 21
156.317
  0
LINE
  8
0
 10
264.602
 20
156.317
 11
263.616
 21
159.35
  0
LINE
  8
0
 10
263.616
 20
159.35
 11
262.258
 21
162.237
  0
LINE
  8
0
 10
262.258
 20
162.237
 11
260.549
 21
164.93
  0
LINE
  8
0
 10
260.549
 20
164.93
 11
258.516
 21
167.387
  0
LINE
  8
0
 10
258.516
 20
167.387
 11
256.191
 21
169.571
  0
LINE
  8
0
 10
256.191
 20
169.571
 11
253.61
 21
171.446
  0
LINE
  8
0
 10
253.61
 20
171.446
 11
250.815
 21
172.983
  0
LINE
  8
0
 10
250.815
 20
172.983
 11
247.849
 21
174.157
  0
LINE
  8
0
 10
247.849
 20
174.157
 11
244.759
 21
174.95
  0
LINE
  8
0
 10
244.759
 20
174.95
 11
241.595
 21
175.35
  0
LINE
  8
0
 10
241.595
 20
175.35
 11
238.405
 21
175.35
  0
LINE
  8
0
 10
238.405
 20
175.35
 11
235.241
 21
174.95
  0
LINE
  8
0
 10
235.241
 20
174.95
 11
232.151
 21
174.157
  0
LINE
  8
0
 10
232.151
 20
174.157
 11
229.185
 21
172.983
  0
LINE
  8
0
 10
229.185
 20
172.983
 11
226.39
 21
171.446
  0
LINE
  8
0
 10
226.39
 20
171.446
 11
223.809
 21
169.571
  0
LINE
  8
0
 10
223.809
 20
169.571
 11
221.484
 21
167.387
  0
LINE
  8
0
 10
221.484
 20
167.387
 11
219.451
 21
164.93
  0
LINE
  8
0
 10
219.451
 20
164.93
 11
217.742
 21
162.237
  0
LINE
  8
0
 10
217.742
 20
162.237
 11
216.384
 21
159.35
  0
LINE
  8
0
 10
216.384
 20
159.35
 11
215.398
 21
156.317
  0
LINE
  8
0
 10
215.398
 20
156.317
 11
214.8
 21
153.183
  0
LINE
  8
0
 10
214.8
 20
153.183
 11
214.6
 21
150
  0
LINE
  8
0
 10
214.6
 20
150
 11
214.8
 21
146.817
  0
LINE
  8
0
 10
214.8
 20
146.817
 11
215.398
 21
143.683
  0
LINE
  8
0
 10
215.398
 20
143.683
 11
216.384
 21
140.65
  0
LINE
  8
0
 10
216.384
 20
140.65
 11
217.742
 21
137.763
  0
LINE
  8
0
 10
217.742
 20
137.763
 11
219.451
 21
135.07
  0
LINE
  8
0
 10
219.451
 20
135.07
 11
221.484
 21
132.613
  0
LINE
  8
0
 10
221.484
 20
132.613
 11
223.809
 21
130.429
  0
LINE
  8
0
 10
223.809
 20
130.429
 11
226.39
 21
128.554
  0
LINE
  8
0
 10
226.39
 20
128.554
 11
229.185
 21
127.017
  0
LINE
  8
0
 10
229.185
 20
127.017
 11
232.151
 21
125.843
  0
LINE
  8
0
 10
232.151
 20
125.843
 11
235.241
 21
125.05
  0
LINE
  8
0
 10
235.241
 20
125.05
 11
238.405
 21
124.65
  0
LINE
  8
0
 10
238.405
 20
124.65
 11
241.595
 21
124.65
  0
LINE
  8
0
 10
241.595
 20
124.65
 11
244.759
 21
125.05
  0
LINE
  8
0
 10
-55.2405
 20
125.05
 11
-52.151
 21
125.843
  0
LINE
  8
0
 10
-52.151
 20
125.843
 11
-49.1852
 21
127.017
  0
LINE
  8
0
 10
-49.1852
 20
127.017
 11
-46.39
 21
128.554
  0
LINE
  8
0
 10
-46.39
 20
128.554
 11
-43.8094
 21
130.429
  0
LINE
  8
0
 10
-43.8094
 20
130.429
 11
-41.4842
 21
132.613
  0
LINE
  8
0
 10
-41.4842
 20
132.613
 11
-39.451
 21
135.07
  0
LINE
  8
0
 10
-39.451
 20
135.07
 11
-37.7418
 21
137.763
  0
LINE
  8
0
 10
-37.7418
 20
137.763
 11
-36.3837
 21
140.65
  0
LINE
  8
0
 10
-36.3837
 20
140.65
 11
-35.398
 21
143.683
  0
LINE
  8
0
 10
-35.398
 20
143.683
 11
-34.8003
 21
146.817
  0
LINE
  8
0
 10
-34.8003
 20
146.817
 11
-34.6
 21
150
  0
LINE
  8
0
 10
-34.6
 20
150
 11
-34.8003
 21
153.183
  0
LINE
  8
0
 10
-34.8003
 20
153.183
 11
-35.398
 21
156.317
  0
LINE
  8
0
 10
-35.398
 20
156.317
 11
-36.3837
 21
159.35
  0
LINE
  8
0
 10
-36.3837
 20
159.35
 11
-37.7418
 21
162.237
  0
LINE
  8
0
 10
-37.7418
 20
162.237
 11
-39.451
 21
164.93
  0
LINE
  8
0
 10
-39.451
 20
164.93
 11
-41.4842
 21
167.387
  0
LINE
  8
0
 10
-41.4842
 20
167.387
 11
-43.8094
 21
169.571
  0
LINE
  8
0
 10
-43.8094
 20
169.571
 11
-46.39
 21
171.446
  0
LINE
  8
0
 10
-46.39
 20
171.446
 11
-49.1852
 21
172.983
  0
LINE
  8
0
 10
-49.1852
 20
172.983
 11
-52.151
 21
174.157
  0
LINE
  8
0
 10
-52.151
 20
174.157
 11
-55.2405
 21
174.95
  0
LINE
  8
0
 10
-55.2405
 20
174.95
 11
-58.4051
 21
175.35
  0
LINE
  8
0
 10
-58.4051
 20
175.35
 11
-61.5949
 21
175.35
  0
LINE
  8
0
 10
-61.5949
 20
175.35
 11
-64.7595
 21
174.95
  0
LINE
  8
0
 10
-64.7595
 20
174.95
 11
-67.849
 21
174.157
  0
LINE
  8
0
 10
-67.849
 20
174.157
 11
-70.8148
 21
172.983
  0
LINE
  8
0
 10
-70.8148
 20
172.983
 11
-73.61
 21
171.446
  0
LINE
  8
0
 10
-73.61
 20
171.446
 11
-76.1906
 21
169.571
  0
LINE
  8
0
 10
-76.1906
 20
169.571
 11
-78.5158
 21
167.387
  0
LINE
  8
0
 10
-78.5158
 20
167.387
 11
-80.549
 21
164.93
  0
LINE
  8
0
 10
-80.549
 20
164.93
 11
-82.2582
 21
162.237
  0
LINE
  8
0
 10
-82.2582
 20
162.237
 11
-83.6163
 21
159.35
  0
LINE
  8
0
 10
-83.6163
 20
159.35
 11
-84.602
 21
156.317
  0
LINE
  8
0
 10
-84.602
 20
156.317
 11
-85.1997
 21
153.183
  0
LINE
  8
0
 10
-85.1997
 20
153.183
 11
-85.4
 21
150
  0
LINE
  8
0
 10
-85.4
 20
150
 11
-85.1997
 21
146.817
  0
LINE
  8
0
 10
-85.1997
 20
146.817
 11
-84.602
 21
143.683
  0
LINE
  8
0
 10
-84.602
 20
143.683
 11
-83.6163
 21
140.65
  0
LINE
  8
0
 10
-83.6163
 20
140.65
 11
-82.2582
 21
137.763
  0
LINE
  8
0
 10
-82.2582
 20
137.763
 11
-80.549
 21
135.07
  0
LINE
  8
0
 10
-80.549
 20
135.07
 11
-78.5158
 21
132.613
  0
LINE
  8
0
 10
-78.5158
 20
132.613
 11
-76.1906
 21
130.429
  0
LINE
  8
0
 10
-76.1906
 20
130.429
 11
-73.61
 21
128.554
  0
LINE
  8
0
 10
-73.61
 20
128.554
 11
-70.8148
 21
127.017
  0
LINE
  8
0
 10
-70.8148
 20
127.017
 11
-67.849
 21
125.843
  0
LINE
  8
0
 10
-67.849
 20
125.843
 11
-64.7595
 21
125.05
  0
LINE
  8
0
 10
-64.7595
 20
125.05
 11
-61.5949
 21
124.65
  0
LINE
  8
0
 10
-61.5949
 20
124.65
 11
-58.4051
 21
124.65
  0
LINE
  8
0
 10
-58.4051
 20
124.65
 11
-55.2405
 21
125.05
  0
LINE
  8
0
 10
184.759
 20
125.05
 11
187.849
 21
125.843
  0
LINE
  8
0
 10
187.849
 20
125.843
 11
190.815
 21
127.017
  0
LINE
  8
0
 10
190.815
 20
127.017
 11
193.61
 21
128.554
  0
LINE
  8
0
 10
193.61
 20
128.554
 11
196.191
 21
130.429
  0
LINE
  8
0
 10
196.191
 20
130.429
 11
198.516
 21
132.613
  0
LINE
  8
0
 10
198.516
 20
132.613
 11
200.549
 21
135.07
  0
LINE
  8
0
 10
200.549
 20
135.07
 11
202.258
 21
137.763
  0
LINE
  8
0
 10
202.258
 20
137.763
 11
203.616
 21
140.65
  0
LINE
  8
0
 10
203.616
 20
140.65
 11
204.602
 21
143.683
  0
LINE
  8
0
 10
204.602
 20
143.683
 11
205.2
 21
146.817
  0
LINE
  8
0
 10
205.2
 20
146.817
 11
205.4
 21
150
  0
LINE
  8
0
 10
205.4
 20
150
 11
205.2
 21
153.183
  0
LINE
  8
0
 10
205.2
 20
153.183
 11
204.602
 21
156.317
  0
LINE
  8
0
 10
204.602
 20
156.317
 11
203.616
 21
159.35
  0
LINE
  8
0
 10
203.616
 20
159.35
 11
202.258
 21
162.237
  0
LINE
  8
0
 10
202.258
 20
162.237
 11
200.549
 21
164.93
  0
LINE
  8
0
 10
200.549
 20
164.93
 11
198.516
 21
167.387
  0
LINE
  8
0
 10
198.516
 20
167.387
 11
196.191
 21
169.571
  0
LINE
  8
0
 10
196.191
 20
169.571
 11
193.61
 21
171.446
  0
LINE
  8
0
 10
193.61
 20
171.446
 11
190.815
 21
172.983
  0
LINE
  8
0
 10
190.815
 20
172.983
 11
187.849
 21
174.157
  0
LINE
  8
0
 10
187.849
 20
174.157
 11
184.759
 21
174.95
  0
LINE
  8
0
 10
184.759
 20
174.95
 11
181.595
 21
175.35
  0
LINE
  8
0
 10
181.595
 20
175.35
 11
178.405
 21
175.35
  0
LINE
  8
0
 10
178.405
 20
175.35
 11
175.241
 21
174.95
  0
LINE
  8
0
 10
175.241
 20
174.95
 11
172.151
 21
174.157
  0
LINE
  8
0
 10
172.151
 20
174.157
 11
169.185
 21
172.983
  0
LINE
  8
0
 10
169.185
 20
172.983
 11
166.39
 21
171.446
  0
LINE
  8
0
 10
166.39
 20
171.446
 11
163.809
 21
169.571
  0
LINE
  8
0
 10
163.809
 20
169.571
 11
161.484
 21
167.387
  0
LINE
  8
0
 10
161.484
 20
167.387
 11
159.451
 21
164.93
  0
LINE
  8
0
 10
159.451
 20
164.93
 11
157.742
 21
162.237
  0
LINE
  8
0
 10
157.742
 20
162.237
 11
156.384
 21
159.35
  0
LINE
  8
0
 10
156.384
 20
159.35
 11
155.398
 21
156.317
  0
LINE
  8
0
 10
155.398
 20
156.317
 11
154.8
 21
153.183
  0
LINE
  8
0
 10
154.8
 20
153.183
 11
154.6
 21
150
  0
LINE
  8
0
 10
154.6
 20
150
 11
154.8
 21
146.817
  0
LINE
  8
0
 10
154.8
 20
146.817
 11
155.398
 21
143.683
  0
LINE
  8
0
 10
155.398
 20
143.683
 11
156.384
 21
140.65
  0
LINE
  8
0
 10
156.384
 20
140.65
 11
157.742
 21
137.763
  0
LINE
  8
0
 10
157.742
 20
137.763
 11
159.451
 21
135.07
  0
LINE
  8
0
 10
159.451
 20
135.07
 11
161.484
 21
132.613
  0
LINE
  8
0
 10
161.484
 20
132.613
 11
163.809
 21
130.429
  0
LINE
  8
0
 10
163.809
 20
130.429
 11
166.39
 21
128.554
  0
LINE
  8
0
 10
166.39
 20
128.554
 11
169.185
 21
127.017
  0
LINE
  8
0
 10
169.185
 20
127.017
 11
172.151
 21
125.843
  0
LINE
  8
0
 10
172.151
 20
125.843
 11
175.241
 21
125.05
  0
LINE
  8
0
 10
175.241
 20
125.05
 11
178.405
 21
124.65
  0
LINE
  8
0
 10
178.405
 20
124.65
 11
181.595
 21
124.65
  0
LINE
  8
0
 10
181.595
 20
124.65
 11
184.759
 21
125.05
  0
LINE
  8
0
 10
-115.241
 20
125.05
 11
-112.151
 21
125.843
  0
LINE
  8
0
 10
-112.151
 20
125.843
 11
-109.185
 21
127.017
  0
LINE
  8
0
 10
-109.185
 20
127.017
 11
-106.39
 21
128.554
  0
LINE
  8
0
 10
-106.39
 20
128.554
 11
-103.809
 21
130.429
  0
LINE
  8
0
 10
-103.809
 20
130.429
 11
-101.484
 21
132.613
  0
LINE
  8
0
 10
-101.484
 20
132.613
 11
-99.451
 21
135.07
  0
LINE
  8
0
 10
-99.451
 20
135.07
 11
-97.7418
 21
137.763
  0
LINE
  8
0
 10
-97.7418
 20
137.763
 11
-96.3837
 21
140.65
  0
LINE
  8
0
 10
-96.3837
 20
140.65
 11
-95.398
 21
143.683
  0
LINE
  8
0
 10
-95.398
 20
143.683
 11
-94.8003
 21
146.817
  0
LINE
  8
0
 10
-94.8003
 20
146.817
 11
-94.6
 21
150
  0
LINE
  8
0
 10
-94.6
 20
150
 11
-94.8003
 21
153.183
  0
LINE
  8
0
 10
-94.8003
 20
153.183
 11
-95.398
 21
156.317
  0
LINE
  8
0
 10
-95.398
 20
156.317
 11
-96.3837
 21
159.35
  0
LINE
  8
0
 10
-96.3837
 20
159.35
 11
-97.7418
 21
162.237
  0
LINE
  8
0
 10
-97.7418
 20
162.237
 11
-99.451
 21
164.93
  0
LINE
  8
0
 10
-99.451
 20
164.93
 11
-101.484
 21
167.387
  0
LINE
  8
0
 10
-101.484
 20
167.387
 11
-103.809
 21
169.571
  0
LINE
  8
0
 10
-103.809
 20
169.571
 11
-106.39
 21
171.446
  0
LINE
  8
0
 10
-106.39
 20
171.446
 11
-109.185
 21
172.983
  0
LINE
  8
0
 10
-109.185
 20
172.983
 11
-112.151
 21
174.157
  0
LINE
  8
0
 10
-112.151
 20
174.157
 11
-115.241
 21
174.95
  0
LINE
  8
0
 10
-115.241
 20
174.95
 11
-118.405
 21
175.35
  0
LINE
  8
0
 10
-118.405
 20
175.35
 11
-121.595
 21
175.35
  0
LINE
  8
0
 10
-121.595
 20
175.35
 11
-124.759
 21
174.95
  0
LINE
  8
0
 10
-124.759
 20
174.95
 11
-127.849
 21
174.157
  0
LINE
  8
0
 10
-127.849
 20
174.157
 11
-130.815
 21
172.983
  0
LINE
  8
0
 10
-130.815
 20
172.983
 11
-133.61
 21
171.446
  0
LINE
  8
0
 10
-133.61
 20
171.446
 11
-136.191
 21
169.571
  0
LINE
  8
0
 10
-136.191
 20
169.571
 11
-138.516
 21
167.387
  0
LINE
  8
0
 10
-138.516
 20
167.387
 11
-140.549
 21
164.93
  0
LINE
  8
0
 10
-140.549
 20
164.93
 11
-142.258
 21
162.237
  0
LINE
  8
0
 10
-142.258
 20
162.237
 11
-143.616
 21
159.35
  0
LINE
  8
0
 10
-143.616
 20
159.35
 11
-144.602
 21
156.317
  0
LINE
  8
0
 10
-144.602
 20
156.317
 11
-145.2
 21
153.183
  0
LINE
  8
0
 10
-145.2
 20
153.183
 11
-145.4
 21
150
  0
LINE
  8
0
 10
-145.4
 20
150
 11
-145.2
 21
146.817
  0
LINE
  8
0
 10
-145.2
 20
146.817
 11
-144.602
 21
143.683
  0
LINE
  8
0
 10
-144.602
 20
143.683
 11
-143.616
 21
140.65
  0
LINE
  8
0
 10
-143.616
 20
140.65
 11
-142.258
 21
137.763
  0
LINE
  8
0
 10
-142.258
 20
137.763
 11
-140.549
 21
135.07
  0
LINE
  8
0
 10
-140.549
 20
135.07
 11
-138.516
 21
132.613
  0
LINE
  8
0
 10
-138.516
 20
132.613
 11
-136.191
 21
130.429
  0
LINE
  8
0
 10
-136.191
 20
130.429
 11
-133.61
 21
128.554
  0
LINE
  8
0
 10
-133.61
 20
128.554
 11
-130.815
 21
127.017
  0
LINE
  8
0
 10
-130.815
 20
127.017
 11
-127.849
 21
125.843
  0
LINE
  8
0
 10
-127.849
 20
125.843
 11
-124.759
 21
125.05
  0
LINE
  8
0
 10
-124.759
 20
125.05
 11
-121.595
 21
124.65
  0
LINE
  8
0
 10
-121.595
 20
124.65
 11
-118.405
 21
124.65
  0
LINE
  8
0
 10
-118.405
 20
124.65
 11
-115.241
 21
125.05
  0
LINE
  8
0
 10
4.75948
 20
65.0499
 11
7.84903
 21
65.8432
  0
LINE
  8
0
 10
7.84903
 20
65.8432
 11
10.8148
 21
67.0174
  0
LINE
  8
0
 10
10.8148
 20
67.0174
 11
13.61
 21
68.5541
  0
LINE
  8
0
 10
13.61
 20
68.5541
 11
16.1906
 21
70.429
  0
LINE
  8
0
 10
16.1906
 20
70.429
 11
18.5158
 21
72.6125
  0
LINE
  8
0
 10
18.5158
 20
72.6125
 11
20.549
 21
75.0703
  0
LINE
  8
0
 10
20.549
 20
75.0703
 11
22.2582
 21
77.7634
  0
LINE
  8
0
 10
22.2582
 20
77.7634
 11
23.6163
 21
80.6496
  0
LINE
  8
0
 10
23.6163
 20
80.6496
 11
24.602
 21
83.6833
  0
LINE
  8
0
 10
24.602
 20
83.6833
 11
25.1997
 21
86.8165
  0
LINE
  8
0
 10
25.1997
 20
86.8165
 11
25.4
 21
90
  0
LINE
  8
0
 10
25.4
 20
90
 11
25.1997
 21
93.1835
  0
LINE
  8
0
 10
25.1997
 20
93.1835
 11
24.602
 21
96.3167
  0
LINE
  8
0
 10
24.602
 20
96.3167
 11
23.6163
 21
99.3504
  0
LINE
  8
0
 10
23.6163
 20
99.3504
 11
22.2582
 21
102.237
  0
LINE
  8
0
 10
22.2582
 20
102.237
 11
20.549
 21
104.93
  0
LINE
  8
0
 10
20.549
 20
104.93
 11
18.5158
 21
107.387
  0
LINE
  8
0
 10
18.5158
 20
107.387
 11
16.1906
 21
109.571
  0
LINE
  8
0
 10
16.1906
 20
109.571
 11
13.61
 21
111.446
  0
LINE
  8
0
 10
13.61
 20
111.446
 11
10.8148
 21
112.983
  0
LINE
  8
0
 10
10.8148
 20
112.983
 11
7.84903
 21
114.157
  0
LINE
  8
0
 10
7.84903
 20
114.157
 11
4.75948
 21
114.95
  0
LINE
  8
0
 10
4.75948
 20
114.95
 11
1.59488
 21
115.35
  0
LINE
  8
0
 10
1.59488
 20
115.35
 11
-1.59488
 21
115.35
  0
LINE
  8
0
 10
-1.59488
 20
115.35
 11
-4.75948
 21
114.95
  0
LINE
  8
0
 10
-4.75948
 20
114.95
 11
-7.84903
 21
114.157
  0
LINE
  8
0
 10
-7.84903
 20
114.157
 11
-10.8148
 21
112.983
  0
LINE
  8
0
 10
-10.8148
 20
112.983
 11
-13.61
 21
111.446
  0
LINE
  8
0
 10
-13.61
 20
111.446
 11
-16.1906
 21
109.571
  0
LINE
  8
0
 10
-16.1906
 20
109.571
 11
-18.5158
 21
107.387
  0
LINE
  8
0
 10
-18.5158
 20
107.387
 11
-20.549
 21
104.93
  0
LINE
  8
0
 10
-20.549
 20
104.93
 11
-22.2582
 21
102.237
  0
LINE
  8
0
 10
-22.2582
 20
102.237
 11
-23.6163
 21
99.3504
  0
LINE
  8
0
 10
-23.6163
 20
99.3504
 11
-24.602
 21
96.3167
  0
LINE
  8
0
 10
-24.602
 20
96.3167
 11
-25.1997
 21
93.1835
  0
LINE
  8
0
 10
-25.1997
 20
93.1835
 11
-25.4
 21
90
  0
LINE
  8
0
 10
-25.4
 20
90
 11
-25.1997
 21
86.8165
  0
LINE
  8
0
 10
-25.1997
 20
86.8165
 11
-24.602
 21
83.6833
  0
LINE
  8
0
 10
-24.602
 20
83.6833
 11
-23.6163
 21
80.6496
  0
LINE
  8
0
 10
-23.6163
 20
80.6496
 11
-22.2582
 21
77.7634
  0
LINE
  8
0
 10
-22.2582
 20
77.7634
 11
-20.549
 21
75.0703
  0
LINE
  8
0
 10
-20.549
 20
75.0703
 11
-18.5158
 21
72.6125
  0
LINE
  8
0
 10
-18.5158
 20
72.6125
 11
-16.1906
 21
70.429
  0
LINE
  8
0
 10
-16.1906
 20
70.429
 11
-13.61
 21
68.5541
  0
LINE
  8
0
 10
-13.61
 20
68.5541
 11
-10.8148
 21
67.0174
  0
LINE
  8
0
 10
-10.8148
 20
67.0174
 11
-7.84903
 21
65.8432
  0
LINE
  8
0
 10
-7.84903
 20
65.8432
 11
-4.75948
 21
65.0499
  0
LINE
  8
0
 10
-4.75948
 20
65.0499
 11
-1.59488
 21
64.6501
  0
LINE
  8
0
 10
-1.59488
 20
64.6501
 11
1.59488
 21
64.6501
  0
LINE
  8
0
 10
1.59488
 20
64.6501
 11
4.75948
 21
65.0499
  0
LINE
  8
0
 10
-175.241
 20
65.0499
 11
-172.151
 21
65.8432
  0
LINE
  8
0
 10
-172.151
 20
65.8432
 11
-169.185
 21
67.0174
  0
LINE
  8
0
 10
-169.185
 20
67.0174
 11
-166.39
 21
68.5541
  0
LINE
  8
0
 10
-166.39
 20
68.5541
 11
-163.809
 21
70.429
  0
LINE
  8
0
 10
-163.809
 20
70.429
 11
-161.484
 21
72.6125
  0
LINE
  8
0
 10
-161.484
 20
72.6125
 11
-159.451
 21
75.0703
  0
LINE
  8
0
 10
-159.451
 20
75.0703
 11
-157.742
 21
77.7634
  0
LINE
  8
0
 10
-157.742
 20
77.7634
 11
-156.384
 21
80.6496
  0
LINE
  8
0
 10
-156.384
 20
80.6496
 11
-155.398
 21
83.6833
  0
LINE
  8
0
 10
-155.398
 20
83.6833
 11
-154.8
 21
86.8165
  0
LINE
  8
0
 10
-154.8
 20
86.8165
 11
-154.6
 21
90
  0
LINE
  8
0
 10
-154.6
 20
90
 11
-154.8
 21
93.1835
  0
LINE
  8
0
 10
-154.8
 20
93.1835
 11
-155.398
 21
96.3167
  0
LINE
  8
0
 10
-155.398
 20
96.3167
 11
-156.384
 21
99.3504
  0
LINE
  8
0
 10
-156.384
 20
99.3504
 11
-157.742
 21
102.237
  0
LINE
  8
0
 10
-157.742
 20
102.237
 11
-159.451
 21
104.93
  0
LINE
  8
0
 10
-159.451
 20
104.93
 11
-161.484
 21
107.387
  0
LINE
  8
0
 10
-161.484
 20
107.387
 11
-163.809
 21
109.571
  0
LINE
  8
0
 10
-163.809
 20
109.571
 11
-166.39
 21
111.446
  0
LINE
  8
0
 10
-166.39
 20
111.446
 11
-169.185
 21
112.983
  0
LINE
  8
0
 10
-169.185
 20
112.983
 11
-172.151
 21
114.157
  0
LINE
  8
0
 10
-172.151
 20
114.157
 11
-175.241
 21
114.95
  0
LINE
  8
0
 10
-175.241
 20
114.95
 11
-178.405
 21
115.35
  0
LINE
  8
0
 10
-178.405
 20
115.35
 11
-181.595
 21
115.35
  0
LINE
  8
0
 10
-181.595
 20
115.35
 11
-184.759
 21
114.95
  0
LINE
  8
0
 10
-184.759
 20
114.95
 11
-187.849
 21
114.157
  0
LINE
  8
0
 10
-187.849
 20
114.157
 11
-190.815
 21
112.983
  0
LINE
  8
0
 10
-190.815
 20
112.983
 11
-193.61
 21
111.446
  0
LINE
  8
0
 10
-193.61
 20
111.446
 11
-196.191
 21
109.571
  0
LINE
  8
0
 10
-196.191
 20
109.571
 11
-198.516
 21
107.387
  0
LINE
  8
0
 10
-198.516
 20
107.387
 11
-200.549
 21
104.93
  0
LINE
  8
0
 10
-200.549
 20
104.93
 11
-202.258
 21
102.237
  0
LINE
  8
0
 10
-202.258
 20
102.237
 11
-203.616
 21
99.3504
  0
LINE
  8
0
 10
-203.616
 20
99.3504
 11
-204.602
 21
96.3167
  0
LINE
  8
0
 10
-204.602
 20
96.3167
 11
-205.2
 21
93.1835
  0
LINE
  8
0
 10
-205.2
 20
93.1835
 11
-205.4
 21
90
  0
LINE
  8
0
 10
-205.4
 20
90
 11
-205.2
 21
86.8165
  0
LINE
  8
0
 10
-205.2
 20
86.8165
 11
-204.602
 21
83.6833
  0
LINE
  8
0
 10
-204.602
 20
83.6833
 11
-203.616
 21
80.6496
  0
LINE
  8
0
 10
-203.616
 20
80.6496
 11
-202.258
 21
77.7634
  0
LINE
  8
0
 10
-202.258
 20
77.7634
 11
-200.549
 21
75.0703
  0
LINE
  8
0
 10
-200.549
 20
75.0703
 11
-198.516
 21
72.6125
  0
LINE
  8
0
 10
-198.516
 20
72.6125
 11
-196.191
 21
70.429
  0
LINE
  8
0
 10
-196.191
 20
70.429
 11
-193.61
 21
68.5541
  0
LINE
  8
0
 10
-193.61
 20
68.5541
 11
-190.815
 21
67.0174
  0
LINE
  8
0
 10
-190.815
 20
67.0174
 11
-187.849
 21
65.8432
  0
LINE
  8
0
 10
-187.849
 20
65.8432
 11
-184.759
 21
65.0499
  0
LINE
  8
0
 10
-184.759
 20
65.0499
 11
-181.595
 21
64.6501
  0
LINE
  8
0
 10
-181.595
 20
64.6501
 11
-178.405
 21
64.6501
  0
LINE
  8
0
 10
-178.405
 20
64.6501
 11
-175.241
 21
65.0499
  0
LINE
  8
0
 10
244.759
 20
65.0499
 11
247.849
 21
65.8432
  0
LINE
  8
0
 10
247.849
 20
65.8432
 11
250.815
 21
67.0174
  0
LINE
  8
0
 10
250.815
 20
67.0174
 11
253.61
 21
68.5541
  0
LINE
  8
0
 10
253.61
 20
68.5541
 11
256.191
 21
70.429
  0
LINE
  8
0
 10
256.191
 20
70.429
 11
258.516
 21
72.6125
  0
LINE
  8
0
 10
258.516
 20
72.6125
 11
260.549
 21
75.0703
  0
LINE
  8
0
 10
260.549
 20
75.0703
 11
262.258
 21
77.7634
  0
LINE
  8
0
 10
262.258
 20
77.7634
 11
263.616
 21
80.6496
  0
LINE
  8
0
 10
263.616
 20
80.6496
 11
264.602
 21
83.6833
  0
LINE
  8
0
 10
264.602
 20
83.6833
 11
265.2
 21
86.8165
  0
LINE
  8
0
 10
265.2
 20
86.8165
 11
265.4
 21
90
  0
LINE
  8
0
 10
265.4
 20
90
 11
265.2
 21
93.1835
  0
LINE
  8
0
 10
265.2
 20
93.1835
 11
264.602
 21
96.3167
  0
LINE
  8
0
 10
264.602
 20
96.3167
 11
263.616
 21
99.3504
  0
LINE
  8
0
 10
263.616
 20
99.3504
 11
262.258
 21
102.237
  0
LINE
  8
0
 10
262.258
 20
102.237
 11
260.549
 21
104.93
  0
LINE
  8
0
 10
260.549
 20
104.93
 11
258.516
 21
107.387
  0
LINE
  8
0
 10
258.516
 20
107.387
 11
256.191
 21
109.571
  0
LINE
  8
0
 10
256.191
 20
109.571
 11
253.61
 21
111.446
  0
LINE
  8
0
 10
253.61
 20
111.446
 11
250.815
 21
112.983
  0
LINE
  8
0
 10
250.815
 20
112.983
 11
247.849
 21
114.157
  0
LINE
  8
0
 10
247.849
 20
114.157
 11
244.759
 21
114.95
  0
LINE
  8
0
 10
244.759
 20
114.95
 11
241.595
 21
115.35
  0
LINE
  8
0
 10
241.595
 20
115.35
 11
238.405
 21
115.35
  0
LINE
  8
0
 10
238.405
 20
115.35
 11
235.241
 21
114.95
  0
LINE
  8
0
 10
235.241
 20
114.95
 11
232.151
 21
114.157
  0
LINE
  8
0
 10
232.151
 20
114.157
 11
229.185
 21
112.983
  0
LINE
  8
0
 10
229.185
 20
112.983
 11
226.39
 21
111.446
  0
LINE
  8
0
 10
226.39
 20
111.446
 11
223.809
 21
109.571
  0
LINE
  8
0
 10
223.809
 20
109.571
 11
221.484
 21
107.387
  0
LINE
  8
0
 10
221.484
 20
107.387
 11
219.451
 21
104.93
  0
LINE
  8
0
 10
219.451
 20
104.93
 11
217.742
 21
102.237
  0
LINE
  8
0
 10
217.742
 20
102.237
 11
216.384
 21
99.3504
  0
LINE
  8
0
 10
216.384
 20
99.3504
 11
215.398
 21
96.3167
  0
LINE
  8
0
 10
215.398
 20
96.3167
 11
214.8
 21
93.1835
  0
LINE
  8
0
 10
214.8
 20
93.1835
 11
214.6
 21
90
  0
LINE
  8
0
 10
214.6
 20
90
 11
214.8
 21
86.8165
  0
LINE
  8
0
 10
214.8
 20
86.8165
 11
215.398
 21
83.6833
  0
LINE
  8
0
 10
215.398
 20
83.6833
 11
216.384
 21
80.6496
  0
LINE
  8
0
 10
216.384
 20
80.6496
 11
217.742
 21
77.7634
  0
LINE
  8
0
 10
217.742
 20
77.7634
 11
219.451
 21
75.0703
  0
LINE
  8
0
 10
219.451
 20
75.0703
 11
221.484
 21
72.6125
  0
LINE
  8
0
 10
221.484
 20
72.6125
 11
223.809
 21
70.429
  0
LINE
  8
0
 10
223.809
 20
70.429
 11
226.39
 21
68.5541
  0
LINE
  8
0
 10
226.39
 20
68.5541
 11
229.185
 21
67.0174
  0
LINE
  8
0
 10
229.185
 20
67.0174
 11
232.151
 21
65.8432
  0
LINE
  8
0
 10
232.151
 20
65.8432
 11
235.241
 21
65.0499
  0
LINE
  8
0
 10
235.241
 20
65.0499
 11
238.405
 21
64.6501
  0
LINE
  8
0
 10
238.405
 20
64.6501
 11
241.595
 21
64.6501
  0
LINE
  8
0
 10
241.595
 20
64.6501
 11
244.759
 21
65.0499
  0
LINE
  8
0
 10
-235.241
 20
65.0499
 11
-232.151
 21
65.8432
  0
LINE
  8
0
 10
-232.151
 20
65.8432
 11
-229.185
 21
67.0174
  0
LINE
  8
0
 10
-229.185
 20
67.0174
 11
-226.39
 21
68.5541
  0
LINE
  8
0
 10
-226.39
 20
68.5541
 11
-223.809
 21
70.429
  0
LINE
  8
0
 10
-223.809
 20
70.429
 11
-221.484
 21
72.6125
  0
LINE
  8
0
 10
-221.484
 20
72.6125
 11
-219.451
 21
75.0703
  0
LINE
  8
0
 10
-219.451
 20
75.0703
 11
-217.742
 21
77.7634
  0
LINE
  8
0
 10
-217.742
 20
77.7634
 11
-216.384
 21
80.6496
  0
LINE
  8
0
 10
-216.384
 20
80.6496
 11
-215.398
 21
83.6833
  0
LINE
  8
0
 10
-215.398
 20
83.6833
 11
-214.8
 21
86.8165
  0
LINE
  8
0
 10
-214.8
 20
86.8165
 11
-214.6
 21
90
  0
LINE
  8
0
 10
-214.6
 20
90
 11
-214.8
 21
93.1835
  0
LINE
  8
0
 10
-214.8
 20
93.1835
 11
-215.398
 21
96.3167
  0
LINE
  8
0
 10
-215.398
 20
96.3167
 11
-216.384
 21
99.3504
  0
LINE
  8
0
 10
-216.384
 20
99.3504
 11
-217.742
 21
102.237
  0
LINE
  8
0
 10
-217.742
 20
102.237
 11
-219.451
 21
104.93
  0
LINE
  8
0
 10
-219.451
 20
104.93
 11
-221.484
 21
107.387
  0
LINE
  8
0
 10
-221.484
 20
107.387
 11
-223.809
 21
109.571
  0
LINE
  8
0
 10
-223.809
 20
109.571
 11
-226.39
 21
111.446
  0
LINE
  8
0
 10
-226.39
 20
111.446
 11
-229.185
 21
112.983
  0
LINE
  8
0
 10
-229.185
 20
112.983
 11
-232.151
 21
114.157
  0
LINE
  8
0
 10
-232.151
 20
114.157
 11
-235.241
 21
114.95
  0
LINE
  8
0
 10
-235.241
 20
114.95
 11
-238.405
 21
115.35
  0
LINE
  8
0
 10
-238.405
 20
115.35
 11
-241.595
 21
115.35
  0
LINE
  8
0
 10
-241.595
 20
115.35
 11
-244.759
 21
114.95
  0
LINE
  8
0
 10
-244.759
 20
114.95
 11
-247.849
 21
114.157
  0
LINE
  8
0
 10
-247.849
 20
114.157
 11
-250.815
 21
112.983
  0
LINE
  8
0
 10
-250.815
 20
112.983
 11
-253.61
 21
111.446
  0
LINE
  8
0
 10
-253.61
 20
111.446
 11
-256.191
 21
109.571
  0
LINE
  8
0
 10
-256.191
 20
109.571
 11
-258.516
 21
107.387
  0
LINE
  8
0
 10
-258.516
 20
107.387
 11
-260.549
 21
104.93
  0
LINE
  8
0
 10
-260.549
 20
104.93
 11
-262.258
 21
102.237
  0
LINE
  8
0
 10
-262.258
 20
102.237
 11
-263.616
 21
99.3504
  0
LINE
  8
0
 10
-263.616
 20
99.3504
 11
-264.602
 21
96.3167
  0
LINE
  8
0
 10
-264.602
 20
96.3167
 11
-265.2
 21
93.1835
  0
LINE
  8
0
 10
-265.2
 20
93.1835
 11
-265.4
 21
90
  0
LINE
  8
0
 10
-265.4
 20
90
 11
-265.2
 21
86.8165
  0
LINE
  8
0
 10
-265.2
 20
86.8165
 11
-264.602
 21
83.6833
  0
LINE
  8
0
 10
-264.602
 20
83.6833
 11
-263.616
 21
80.6496
  0
LINE
  8
0
 10
-263.616
 20
80.6496
 11
-262.258
 21
77.7634
  0
LINE
  8
0
 10
-262.258
 20
77.7634
 11
-260.549
 21
75.0703
  0
LINE
  8
0
 10
-260.549
 20
75.0703
 11
-258.516
 21
72.6125
  0
LINE
  8
0
 10
-258.516
 20
72.6125
 11
-256.191
 21
70.429
  0
LINE
  8
0
 10
-256.191
 20
70.429
 11
-253.61
 21
68.5541
  0
LINE
  8
0
 10
-253.61
 20
68.5541
 11
-250.815
 21
67.0174
  0
LINE
  8
0
 10
-250.815
 20
67.0174
 11
-247.849
 21
65.8432
  0
LINE
  8
0
 10
-247.849
 20
65.8432
 11
-244.759
 21
65.0499
  0
LINE
  8
0
 10
-244.759
 20
65.0499
 11
-241.595
 21
64.6501
  0
LINE
  8
0
 10
-241.595
 20
64.6501
 11
-238.405
 21
64.6501
  0
LINE
  8
0
 10
-238.405
 20
64.6501
 11
-235.241
 21
65.0499
  0
LINE
  8
0
 10
-115.241
 20
65.0499
 11
-112.151
 21
65.8432
  0
LINE
  8
0
 10
-112.151
 20
65.8432
 11
-109.185
 21
67.0174
  0
LINE
  8
0
 10
-109.185
 20
67.0174
 11
-106.39
 21
68.5541
  0
LINE
  8
0
 10
-106.39
 20
68.5541
 11
-103.809
 21
70.429
  0
LINE
  8
0
 10
-103.809
 20
70.429
 11
-101.484
 21
72.6125
  0
LINE
  8
0
 10
-101.484
 20
72.6125
 11
-99.451
 21
75.0703
  0
LINE
  8
0
 10
-99.451
 20
75.0703
 11
-97.7418
 21
77.7634
  0
LINE
  8
0
 10
-97.7418
 20
77.7634
 11
-96.3837
 21
80.6496
  0
LINE
  8
0
 10
-96.3837
 20
80.6496
 11
-95.398
 21
83.6833
  0
LINE
  8
0
 10
-95.398
 20
83.6833
 11
-94.8003
 21
86.8165
  0
LINE
  8
0
 10
-94.8003
 20
86.8165
 11
-94.6
 21
90
  0
LINE
  8
0
 10
-94.6
 20
90
 11
-94.8003
 21
93.1835
  0
LINE
  8
0
 10
-94.8003
 20
93.1835
 11
-95.398
 21
96.3167
  0
LINE
  8
0
 10
-95.398
 20
96.3167
 11
-96.3837
 21
99.3504
  0
LINE
  8
0
 10
-96.3837
 20
99.3504
 11
-97.7418
 21
102.237
  0
LINE
  8
0
 10
-97.7418
 20
102.237
 11
-99.451
 21
104.93
  0
LINE
  8
0
 10
-99.451
 20
104.93
 11
-101.484
 21
107.387
  0
LINE
  8
0
 10
-101.484
 20
107.387
 11
-103.809
 21
109.571
  0
LINE
  8
0
 10
-103.809
 20
109.571
 11
-106.39
 21
111.446
  0
LINE
  8
0
 10
-106.39
 20
111.446
 11
-109.185
 21
112.983
  0
LINE
  8
0
 10
-109.185
 20
112.983
 11
-112.151
 21
114.157
  0
LINE
  8
0
 10
-112.151
 20
114.157
 11
-115.241
 21
114.95
  0
LINE
  8
0
 10
-115.241
 20
114.95
 11
-118.405
 21
115.35
  0
LINE
  8
0
 10
-118.405
 20
115.35
 11
-121.595
 21
115.35
  0
LINE
  8
0
 10
-121.595
 20
115.35
 11
-124.759
 21
114.95
  0
LINE
  8
0
 10
-124.759
 20
114.95
 11
-127.849
 21
114.157
  0
LINE
  8
0
 10
-127.849
 20
114.157
 11
-130.815
 21
112.983
  0
LINE
  8
0
 10
-130.815
 20
112.983
 11
-133.61
 21
111.446
  0
LINE
  8
0
 10
-133.61
 20
111.446
 11
-136.191
 21
109.571
  0
LINE
  8
0
 10
-136.191
 20
109.571
 11
-138.516
 21
107.387
  0
LINE
  8
0
 10
-138.516
 20
107.387
 11
-140.549
 21
104.93
  0
LINE
  8
0
 10
-140.549
 20
104.93
 11
-142.258
 21
102.237
  0
LINE
  8
0
 10
-142.258
 20
102.237
 11
-143.616
 21
99.3504
  0
LINE
  8
0
 10
-143.616
 20
99.3504
 11
-144.602
 21
96.3167
  0
LINE
  8
0
 10
-144.602
 20
96.3167
 11
-145.2
 21
93.1835
  0
LINE
  8
0
 10
-145.2
 20
93.1835
 11
-145.4
 21
90
  0
LINE
  8
0
 10
-145.4
 20
90
 11
-145.2
 21
86.8165
  0
LINE
  8
0
 10
-145.2
 20
86.8165
 11
-144.602
 21
83.6833
  0
LINE
  8
0
 10
-144.602
 20
83.6833
 11
-143.616
 21
80.6496
  0
LINE
  8
0
 10
-143.616
 20
80.6496
 11
-142.258
 21
77.7634
  0
LINE
  8
0
 10
-142.258
 20
77.7634
 11
-140.549
 21
75.0703
  0
LINE
  8
0
 10
-140.549
 20
75.0703
 11
-138.516
 21
72.6125
  0
LINE
  8
0
 10
-138.516
 20
72.6125
 11
-136.191
 21
70.429
  0
LINE
  8
0
 10
-136.191
 20
70.429
 11
-133.61
 21
68.5541
  0
LINE
  8
0
 10
-133.61
 20
68.5541
 11
-130.815
 21
67.0174
  0
LINE
  8
0
 10
-130.815
 20
67.0174
 11
-127.849
 21
65.8432
  0
LINE
  8
0
 10
-127.849
 20
65.8432
 11
-124.759
 21
65.0499
  0
LINE
  8
0
 10
-124.759
 20
65.0499
 11
-121.595
 21
64.6501
  0
LINE
  8
0
 10
-121.595
 20
64.6501
 11
-118.405
 21
64.6501
  0
LINE
  8
0
 10
-118.405
 20
64.6501
 11
-115.241
 21
65.0499
  0
LINE
  8
0
 10
184.759
 20
65.0499
 11
187.849
 21
65.8432
  0
LINE
  8
0
 10
187.849
 20
65.8432
 11
190.815
 21
67.0174
  0
LINE
  8
0
 10
190.815
 20
67.0174
 11
193.61
 21
68.5541
  0
LINE
  8
0
 10
193.61
 20
68.5541
 11
196.191
 21
70.429
  0
LINE
  8
0
 10
196.191
 20
70.429
 11
198.516
 21
72.6125
  0
LINE
  8
0
 10
198.516
 20
72.6125
 11
200.549
 21
75.0703
  0
LINE
  8
0
 10
200.549
 20
75.0703
 11
202.258
 21
77.7634
  0
LINE
  8
0
 10
202.258
 20
77.7634
 11
203.616
 21
80.6496
  0
LINE
  8
0
 10
203.616
 20
80.6496
 11
204.602
 21
83.6833
  0
LINE
  8
0
 10
204.602
 20
83.6833
 11
205.2
 21
86.8165
  0
LINE
  8
0
 10
205.2
 20
86.8165
 11
205.4
 21
90
  0
LINE
  8
0
 10
205.4
 20
90
 11
205.2
 21
93.1835
  0
LINE
  8
0
 10
205.2
 20
93.1835
 11
204.602
 21
96.3167
  0
LINE
  8
0
 10
204.602
 20
96.3167
 11
203.616
 21
99.3504
  0
LINE
  8
0
 10
203.616
 20
99.3504
 11
202.258
 21
102.237
  0
LINE
  8
0
 10
202.258
 20
102.237
 11
200.549
 21
104.93
  0
LINE
  8
0
 10
200.549
 20
104.93
 11
198.516
 21
107.387
  0
LINE
  8
0
 10
198.516
 20
107.387
 11
196.191
 21
109.571
  0
LINE
  8
0
 10
196.191
 20
109.571
 11
193.61
 21
111.446
  0
LINE
  8
0
 10
193.61
 20
111.446
 11
190.815
 21
112.983
  0
LINE
  8
0
 10
190.815
 20
112.983
 11
187.849
 21
114.157
  0
LINE
  8
0
 10
187.849
 20
114.157
 11
184.759
 21
114.95
  0
LINE
  8
0
 10
184.759
 20
114.95
 11
181.595
 21
115.35
  0
LINE
  8
0
 10
181.595
 20
115.35
 11
178.405
 21
115.35
  0
LINE
  8
0
 10
178.405
 20
115.35
 11
175.241
 21
114.95
  0
LINE
  8
0
 10
175.241
 20
114.95
 11
172.151
 21
114.157
  0
LINE
  8
0
 10
172.151
 20
114.157
 11
169.185
 21
112.983
  0
LINE
  8
0
 10
169.185
 20
112.983
 11
166.39
 21
111.446
  0
LINE
  8
0
 10
166.39
 20
111.446
 11
163.809
 21
109.571
  0
LINE
  8
0
 10
163.809
 20
109.571
 11
161.484
 21
107.387
  0
LINE
  8
0
 10
161.484
 20
107.387
 11
159.451
 21
104.93
  0
LINE
  8
0
 10
159.451
 20
104.93
 11
157.742
 21
102.237
  0
LINE
  8
0
 10
157.742
 20
102.237
 11
156.384
 21
99.3504
  0
LINE
  8
0
 10
156.384
 20
99.3504
 11
155.398
 21
96.3167
  0
LINE
  8
0
 10
155.398
 20
96.3167
 11
154.8
 21
93.1835
  0
LINE
  8
0
 10
154.8
 20
93.1835
 11
154.6
 21
90
  0
LINE
  8
0
 10
154.6
 20
90
 11
154.8
 21
86.8165
  0
LINE
  8
0
 10
154.8
 20
86.8165
 11
155.398
 21
83.6833
  0
LINE
  8
0
 10
155.398
 20
83.6833
 11
156.384
 21
80.6496
  0
LINE
  8
0
 10
156.384
 20
80.6496
 11
157.742
 21
77.7634
  0
LINE
  8
0
 10
157.742
 20
77.7634
 11
159.451
 21
75.0703
  0
LINE
  8
0
 10
159.451
 20
75.0703
 11
161.484
 21
72.6125
  0
LINE
  8
0
 10
161.484
 20
72.6125
 11
163.809
 21
70.429
  0
LINE
  8
0
 10
163.809
 20
70.429
 11
166.39
 21
68.5541
  0
LINE
  8
0
 10
166.39
 20
68.5541
 11
169.185
 21
67.0174
  0
LINE
  8
0
 10
169.185
 20
67.0174
 11
172.151
 21
65.8432
  0
LINE
  8
0
 10
172.151
 20
65.8432
 11
175.241
 21
65.0499
  0
LINE
  8
0
 10
175.241
 20
65.0499
 11
178.405
 21
64.6501
  0
LINE
  8
0
 10
178.405
 20
64.6501
 11
181.595
 21
64.6501
  0
LINE
  8
0
 10
181.595
 20
64.6501
 11
184.759
 21
65.0499
  0
LINE
  8
0
 10
-55.2405
 20
65.0499
 11
-52.151
 21
65.8432
  0
LINE
  8
0
 10
-52.151
 20
65.8432
 11
-49.1852
 21
67.0174
  0
LINE
  8
0
 10
-49.1852
 20
67.0174
 11
-46.39
 21
68.5541
  0
LINE
  8
0
 10
-46.39
 20
68.5541
 11
-43.8094
 21
70.429
  0
LINE
  8
0
 10
-43.8094
 20
70.429
 11
-41.4842
 21
72.6125
  0
LINE
  8
0
 10
-41.4842
 20
72.6125
 11
-39.451
 21
75.0703
  0
LINE
  8
0
 10
-39.451
 20
75.0703
 11
-37.7418
 21
77.7634
  0
LINE
  8
0
 10
-37.7418
 20
77.7634
 11
-36.3837
 21
80.6496
  0
LINE
  8
0
 10
-36.3837
 20
80.6496
 11
-35.398
 21
83.6833
  0
LINE
  8
0
 10
-35.398
 20
83.6833
 11
-34.8003
 21
86.8165
  0
LINE
  8
0
 10
-34.8003
 20
86.8165
 11
-34.6
 21
90
  0
LINE
  8
0
 10
-34.6
 20
90
 11
-34.8003
 21
93.1835
  0
LINE
  8
0
 10
-34.8003
 20
93.1835
 11
-35.398
 21
96.3167
  0
LINE
  8
0
 10
-35.398
 20
96.3167
 11
-36.3837
 21
99.3504
  0
LINE
  8
0
 10
-36.3837
 20
99.3504
 11
-37.7418
 21
102.237
  0
LINE
  8
0
 10
-37.7418
 20
102.237
 11
-39.451
 21
104.93
  0
LINE
  8
0
 10
-39.451
 20
104.93
 11
-41.4842
 21
107.387
  0
LINE
  8
0
 10
-41.4842
 20
107.387
 11
-43.8094
 21
109.571
  0
LINE
  8
0
 10
-43.8094
 20
109.571
 11
-46.39
 21
111.446
  0
LINE
  8
0
 10
-46.39
 20
111.446
 11
-49.1852
 21
112.983
  0
LINE
  8
0
 10
-49.1852
 20
112.983
 11
-52.151
 21
114.157
  0
LINE
  8
0
 10
-52.151
 20
114.157
 11
-55.2405
 21
114.95
  0
LINE
  8
0
 10
-55.2405
 20
114.95
 11
-58.4051
 21
115.35
  0
LINE
  8
0
 10
-58.4051
 20
115.35
 11
-61.5949
 21
115.35
  0
LINE
  8
0
 10
-61.5949
 20
115.35
 11
-64.7595
 21
114.95
  0
LINE
  8
0
 10
-64.7595
 20
114.95
 11
-67.849
 21
114.157
  0
LINE
  8
0
 10
-67.849
 20
114.157
 11
-70.8148
 21
112.983
  0
LINE
  8
0
 10
-70.8148
 20
112.983
 11
-73.61
 21
111.446
  0
LINE
  8
0
 10
-73.61
 20
111.446
 11
-76.1906
 21
109.571
  0
LINE
  8
0
 10
-76.1906
 20
109.571
 11
-78.5158
 21
107.387
  0
LINE
  8
0
 10
-78.5158
 20
107.387
 11
-80.549
 21
104.93
  0
LINE
  8
0
 10
-80.549
 20
104.93
 11
-82.2582
 21
102.237
  0
LINE
  8
0
 10
-82.2582
 20
102.237
 11
-83.6163
 21
99.3504
  0
LINE
  8
0
 10
-83.6163
 20
99.3504
 11
-84.602
 21
96.3167
  0
LINE
  8
0
 10
-84.602
 20
96.3167
 11
-85.1997
 21
93.1835
  0
LINE
  8
0
 10
-85.1997
 20
93.1835
 11
-85.4
 21
90
  0
LINE
  8
0
 10
-85.4
 20
90
 11
-85.1997
 21
86.8165
  0
LINE
  8
0
 10
-85.1997
 20
86.8165
 11
-84.602
 21
83.6833
  0
LINE
  8
0
 10
-84.602
 20
83.6833
 11
-83.6163
 21
80.6496
  0
LINE
  8
0
 10
-83.6163
 20
80.6496
 11
-82.2582
 21
77.7634
  0
LINE
  8
0
 10
-82.2582
 20
77.7634
 11
-80.549
 21
75.0703
  0
LINE
  8
0
 10
-80.549
 20
75.0703
 11
-78.5158
 21
72.6125
  0
LINE
  8
0
 10
-78.5158
 20
72.6125
 11
-76.1906
 21
70.429
  0
LINE
  8
0
 10
-76.1906
 20
70.429
 11
-73.61
 21
68.5541
  0
LINE
  8
0
 10
-73.61
 20
68.5541
 11
-70.8148
 21
67.0174
  0
LINE
  8
0
 10
-70.8148
 20
67.0174
 11
-67.849
 21
65.8432
  0
LINE
  8
0
 10
-67.849
 20
65.8432
 11
-64.7595
 21
65.0499
  0
LINE
  8
0
 10
-64.7595
 20
65.0499
 11
-61.5949
 21
64.6501
  0
LINE
  8
0
 10
-61.5949
 20
64.6501
 11
-58.4051
 21
64.6501
  0
LINE
  8
0
 10
-58.4051
 20
64.6501
 11
-55.2405
 21
65.0499
  0
LINE
  8
0
 10
124.759
 20
65.0499
 11
127.849
 21
65.8432
  0
LINE
  8
0
 10
127.849
 20
65.8432
 11
130.815
 21
67.0174
  0
LINE
  8
0
 10
130.815
 20
67.0174
 11
133.61
 21
68.5541
  0
LINE
  8
0
 10
133.61
 20
68.5541
 11
136.191
 21
70.429
  0
LINE
  8
0
 10
136.191
 20
70.429
 11
138.516
 21
72.6125
  0
LINE
  8
0
 10
138.516
 20
72.6125
 11
140.549
 21
75.0703
  0
LINE
  8
0
 10
140.549
 20
75.0703
 11
142.258
 21
77.7634
  0
LINE
  8
0
 10
142.258
 20
77.7634
 11
143.616
 21
80.6496
  0
LINE
  8
0
 10
143.616
 20
80.6496
 11
144.602
 21
83.6833
  0
LINE
  8
0
 10
144.602
 20
83.6833
 11
145.2
 21
86.8165
  0
LINE
  8
0
 10
145.2
 20
86.8165
 11
145.4
 21
90
  0
LINE
  8
0
 10
145.4
 20
90
 11
145.2
 21
93.1835
  0
LINE
  8
0
 10
145.2
 20
93.1835
 11
144.602
 21
96.3167
  0
LINE
  8
0
 10
144.602
 20
96.3167
 11
143.616
 21
99.3504
  0
LINE
  8
0
 10
143.616
 20
99.3504
 11
142.258
 21
102.237
  0
LINE
  8
0
 10
142.258
 20
102.237
 11
140.549
 21
104.93
  0
LINE
  8
0
 10
140.549
 20
104.93
 11
138.516
 21
107.387
  0
LINE
  8
0
 10
138.516
 20
107.387
 11
136.191
 21
109.571
  0
LINE
  8
0
 10
136.191
 20
109.571
 11
133.61
 21
111.446
  0
LINE
  8
0
 10
133.61
 20
111.446
 11
130.815
 21
112.983
  0
LINE
  8
0
 10
130.815
 20
112.983
 11
127.849
 21
114.157
  0
LINE
  8
0
 10
127.849
 20
114.157
 11
124.759
 21
114.95
  0
LINE
  8
0
 10
124.759
 20
114.95
 11
121.595
 21
115.35
  0
LINE
  8
0
 10
121.595
 20
115.35
 11
118.405
 21
115.35
  0
LINE
  8
0
 10
118.405
 20
115.35
 11
115.241
 21
114.95
  0
LINE
  8
0
 10
115.241
 20
114.95
 11
112.151
 21
114.157
  0
LINE
  8
0
 10
112.151
 20
114.157
 11
109.185
 21
112.983
  0
LINE
  8
0
 10
109.185
 20
112.983
 11
106.39
 21
111.446
  0
LINE
  8
0
 10
106.39
 20
111.446
 11
103.809
 21
109.571
  0
LINE
  8
0
 10
103.809
 20
109.571
 11
101.484
 21
107.387
  0
LINE
  8
0
 10
101.484
 20
107.387
 11
99.451
 21
104.93
  0
LINE
  8
0
 10
99.451
 20
104.93
 11
97.7418
 21
102.237
  0
LINE
  8
0
 10
97.7418
 20
102.237
 11
96.3837
 21
99.3504
  0
LINE
  8
0
 10
96.3837
 20
99.3504
 11
95.398
 21
96.3167
  0
LINE
  8
0
 10
95.398
 20
96.3167
 11
94.8003
 21
93.1835
  0
LINE
  8
0
 10
94.8003
 20
93.1835
 11
94.6
 21
90
  0
LINE
  8
0
 10
94.6
 20
90
 11
94.8003
 21
86.8165
  0
LINE
  8
0
 10
94.8003
 20
86.8165
 11
95.398
 21
83.6833
  0
LINE
  8
0
 10
95.398
 20
83.6833
 11
96.3837
 21
80.6496
  0
LINE
  8
0
 10
96.3837
 20
80.6496
 11
97.7418
 21
77.7634
  0
LINE
  8
0
 10
97.7418
 20
77.7634
 11
99.451
 21
75.0703
  0
LINE
  8
0
 10
99.451
 20
75.0703
 11
101.484
 21
72.6125
  0
LINE
  8
0
 10
101.484
 20
72.6125
 11
103.809
 21
70.429
  0
LINE
  8
0
 10
103.809
 20
70.429
 11
106.39
 21
68.5541
  0
LINE
  8
0
 10
106.39
 20
68.5541
 11
109.185
 21
67.0174
  0
LINE
  8
0
 10
109.185
 20
67.0174
 11
112.151
 21
65.8432
  0
LINE
  8
0
 10
112.151
 20
65.8432
 11
115.241
 21
65.0499
  0
LINE
  8
0
 10
115.241
 20
65.0499
 11
118.405
 21
64.6501
  0
LINE
  8
0
 10
118.405
 20
64.6501
 11
121.595
 21
64.6501
  0
LINE
  8
0
 10
121.595
 20
64.6501
 11
124.759
 21
65.0499
  0
LINE
  8
0
 10
64.7595
 20
65.0499
 11
67.849
 21
65.8432
  0
LINE
  8
0
 10
67.849
 20
65.8432
 11
70.8148
 21
67.0174
  0
LINE
  8
0
 10
70.8148
 20
67.0174
 11
73.61
 21
68.5541
  0
LINE
  8
0
 10
73.61
 20
68.5541
 11
76.1906
 21
70.429
  0
LINE
  8
0
 10
76.1906
 20
70.429
 11
78.5158
 21
72.6125
  0
LINE
  8
0
 10
78.5158
 20
72.6125
 11
80.549
 21
75.0703
  0
LINE
  8
0
 10
80.549
 20
75.0703
 11
82.2582
 21
77.7634
  0
LINE
  8
0
 10
82.2582
 20
77.7634
 11
83.6163
 21
80.6496
  0
LINE
  8
0
 10
83.6163
 20
80.6496
 11
84.602
 21
83.6833
  0
LINE
  8
0
 10
84.602
 20
83.6833
 11
85.1997
 21
86.8165
  0
LINE
  8
0
 10
85.1997
 20
86.8165
 11
85.4
 21
90
  0
LINE
  8
0
 10
85.4
 20
90
 11
85.1997
 21
93.1835
  0
LINE
  8
0
 10
85.1997
 20
93.1835
 11
84.602
 21
96.3167
  0
LINE
  8
0
 10
84.602
 20
96.3167
 11
83.6163
 21
99.3504
  0
LINE
  8
0
 10
83.6163
 20
99.3504
 11
82.2582
 21
102.237
  0
LINE
  8
0
 10
82.2582
 20
102.237
 11
80.549
 21
104.93
  0
LINE
  8
0
 10
80.549
 20
104.93
 11
78.5158
 21
107.387
  0
LINE
  8
0
 10
78.5158
 20
107.387
 11
76.1906
 21
109.571
  0
LINE
  8
0
 10
76.1906
 20
109.571
 11
73.61
 21
111.446
  0
LINE
  8
0
 10
73.61
 20
111.446
 11
70.8148
 21
112.983
  0
LINE
  8
0
 10
70.8148
 20
112.983
 11
67.849
 21
114.157
  0
LINE
  8
0
 10
67.849
 20
114.157
 11
64.7595
 21
114.95
  0
LINE
  8
0
 10
64.7595
 20
114.95
 11
61.5949
 21
115.35
  0
LINE
  8
0
 10
61.5949
 20
115.35
 11
58.4051
 21
115.35
  0
LINE
  8
0
 10
58.4051
 20
115.35
 11
55.2405
 21
114.95
  0
LINE
  8
0
 10
55.2405
 20
114.95
 11
52.151
 21
114.157
  0
LINE
  8
0
 10
52.151
 20
114.157
 11
49.1852
 21
112.983
  0
LINE
  8
0
 10
49.1852
 20
112.983
 11
46.39
 21
111.446
  0
LINE
  8
0
 10
46.39
 20
111.446
 11
43.8094
 21
109.571
  0
LINE
  8
0
 10
43.8094
 20
109.571
 11
41.4842
 21
107.387
  0
LINE
  8
0
 10
41.4842
 20
107.387
 11
39.451
 21
104.93
  0
LINE
  8
0
 10
39.451
 20
104.93
 11
37.7418
 21
102.237
  0
LINE
  8
0
 10
37.7418
 20
102.237
 11
36.3837
 21
99.3504
  0
LINE
  8
0
 10
36.3837
 20
99.3504
 11
35.398
 21
96.3167
  0
LINE
  8
0
 10
35.398
 20
96.3167
 11
34.8003
 21
93.1835
  0
LINE
  8
0
 10
34.8003
 20
93.1835
 11
34.6
 21
90
  0
LINE
  8
0
 10
34.6
 20
90
 11
34.8003
 21
86.8165
  0
LINE
  8
0
 10
34.8003
 20
86.8165
 11
35.398
 21
83.6833
  0
LINE
  8
0
 10
35.398
 20
83.6833
 11
36.3837
 21
80.6496
  0
LINE
  8
0
 10
36.3837
 20
80.6496
 11
37.7418
 21
77.7634
  0
LINE
  8
0
 10
37.7418
 20
77.7634
 11
39.451
 21
75.0703
  0
LINE
  8
0
 10
39.451
 20
75.0703
 11
41.4842
 21
72.6125
  0
LINE
  8
0
 10
41.4842
 20
72.6125
 11
43.8094
 21
70.429
  0
LINE
  8
0
 10
43.8094
 20
70.429
 11
46.39
 21
68.5541
  0
LINE
  8
0
 10
46.39
 20
68.5541
 11
49.1852
 21
67.0174
  0
LINE
  8
0
 10
49.1852
 20
67.0174
 11
52.151
 21
65.8432
  0
LINE
  8
0
 10
52.151
 20
65.8432
 11
55.2405
 21
65.0499
  0
LINE
  8
0
 10
55.2405
 20
65.0499
 11
58.4051
 21
64.6501
  0
LINE
  8
0
 10
58.4051
 20
64.6501
 11
61.5949
 21
64.6501
  0
LINE
  8
0
 10
61.5949
 20
64.6501
 11
64.7595
 21
65.0499
  0
LINE
  8
0
 10
-115.241
 20
5.0499
 11
-112.151
 21
5.84315
  0
LINE
  8
0
 10
-112.151
 20
5.84315
 11
-109.185
 21
7.01738
  0
LINE
  8
0
 10
-109.185
 20
7.01738
 11
-106.39
 21
8.55406
  0
LINE
  8
0
 10
-106.39
 20
8.55406
 11
-103.809
 21
10.429
  0
LINE
  8
0
 10
-103.809
 20
10.429
 11
-101.484
 21
12.6125
  0
LINE
  8
0
 10
-101.484
 20
12.6125
 11
-99.451
 21
15.0703
  0
LINE
  8
0
 10
-99.451
 20
15.0703
 11
-97.7418
 21
17.7634
  0
LINE
  8
0
 10
-97.7418
 20
17.7634
 11
-96.3837
 21
20.6496
  0
LINE
  8
0
 10
-96.3837
 20
20.6496
 11
-95.398
 21
23.6833
  0
LINE
  8
0
 10
-95.398
 20
23.6833
 11
-94.8003
 21
26.8165
  0
LINE
  8
0
 10
-94.8003
 20
26.8165
 11
-94.6
 21
30
  0
LINE
  8
0
 10
-94.6
 20
30
 11
-94.8003
 21
33.1835
  0
LINE
  8
0
 10
-94.8003
 20
33.1835
 11
-95.398
 21
36.3167
  0
LINE
  8
0
 10
-95.398
 20
36.3167
 11
-96.3837
 21
39.3504
  0
LINE
  8
0
 10
-96.3837
 20
39.3504
 11
-97.7418
 21
42.2365
  0
LINE
  8
0
 10
-97.7418
 20
42.2365
 11
-99.451
 21
44.9297
  0
LINE
  8
0
 10
-99.451
 20
44.9297
 11
-101.484
 21
47.3875
  0
LINE
  8
0
 10
-101.484
 20
47.3875
 11
-103.809
 21
49.571
  0
LINE
  8
0
 10
-103.809
 20
49.571
 11
-106.39
 21
51.4459
  0
LINE
  8
0
 10
-106.39
 20
51.4459
 11
-109.185
 21
52.9826
  0
LINE
  8
0
 10
-109.185
 20
52.9826
 11
-112.151
 21
54.1568
  0
LINE
  8
0
 10
-112.151
 20
54.1568
 11
-115.241
 21
54.9501
  0
LINE
  8
0
 10
-115.241
 20
54.9501
 11
-118.405
 21
55.3499
  0
LINE
  8
0
 10
-118.405
 20
55.3499
 11
-121.595
 21
55.3499
  0
LINE
  8
0
 10
-121.595
 20
55.3499
 11
-124.759
 21
54.9501
  0
LINE
  8
0
 10
-124.759
 20
54.9501
 11
-127.849
 21
54.1568
  0
LINE
  8
0
 10
-127.849
 20
54.1568
 11
-130.815
 21
52.9826
  0
LINE
  8
0
 10
-130.815
 20
52.9826
 11
-133.61
 21
51.4459
  0
LINE
  8
0
 10
-133.61
 20
51.4459
 11
-136.191
 21
49.571
  0
LINE
  8
0
 10
-136.191
 20
49.571
 11
-138.516
 21
47.3875
  0
LINE
  8
0
 10
-138.516
 20
47.3875
 11
-140.549
 21
44.9297
  0
LINE
  8
0
 10
-140.549
 20
44.9297
 11
-142.258
 21
42.2365
  0
LINE
  8
0
 10
-142.258
 20
42.2365
 11
-143.616
 21
39.3504
  0
LINE
  8
0
 10
-143.616
 20
39.3504
 11
-144.602
 21
36.3167
  0
LINE
  8
0
 10
-144.602
 20
36.3167
 11
-145.2
 21
33.1835
  0
LINE
  8
0
 10
-145.2
 20
33.1835
 11
-145.4
 21
30
  0
LINE
  8
0
 10
-145.4
 20
30
 11
-145.2
 21
26.8165
  0
LINE
  8
0
 10
-145.2
 20
26.8165
 11
-144.602
 21
23.6833
  0
LINE
  8
0
 10
-144.602
 20
23.6833
 11
-143.616
 21
20.6496
  0
LINE
  8
0
 10
-143.616
 20
20.6496
 11
-142.258
 21
17.7634
  0
LINE
  8
0
 10
-142.258
 20
17.7634
 11
-140.549
 21
15.0703
  0
LINE
  8
0
 10
-140.549
 20
15.0703
 11
-138.516
 21
12.6125
  0
LINE
  8
0
 10
-138.516
 20
12.6125
 11
-136.191
 21
10.429
  0
LINE
  8
0
 10
-136.191
 20
10.429
 11
-133.61
 21
8.55406
  0
LINE
  8
0
 10
-133.61
 20
8.55406
 11
-130.815
 21
7.01738
  0
LINE
  8
0
 10
-130.815
 20
7.01738
 11
-127.849
 21
5.84315
  0
LINE
  8
0
 10
-127.849
 20
5.84315
 11
-124.759
 21
5.0499
  0
LINE
  8
0
 10
-124.759
 20
5.0499
 11
-121.595
 21
4.65012
  0
LINE
  8
0
 10
-121.595
 20
4.65012
 11
-118.405
 21
4.65012
  0
LINE
  8
0
 10
-118.405
 20
4.65012
 11
-115.241
 21
5.0499
  0
LINE
  8
0
 10
64.7595
 20
5.0499
 11
67.849
 21
5.84315
  0
LINE
  8
0
 10
67.849
 20
5.84315
 11
70.8148
 21
7.01738
  0
LINE
  8
0
 10
70.8148
 20
7.01738
 11
73.61
 21
8.55406
  0
LINE
  8
0
 10
73.61
 20
8.55406
 11
76.1906
 21
10.429
  0
LINE
  8
0
 10
76.1906
 20
10.429
 11
78.5158
 21
12.6125
  0
LINE
  8
0
 10
78.5158
 20
12.6125
 11
80.549
 21
15.0703
  0
LINE
  8
0
 10
80.549
 20
15.0703
 11
82.2582
 21
17.7634
  0
LINE
  8
0
 10
82.2582
 20
17.7634
 11
83.6163
 21
20.6496
  0
LINE
  8
0
 10
83.6163
 20
20.6496
 11
84.602
 21
23.6833
  0
LINE
  8
0
 10
84.602
 20
23.6833
 11
85.1997
 21
26.8165
  0
LINE
  8
0
 10
85.1997
 20
26.8165
 11
85.4
 21
30
  0
LINE
  8
0
 10
85.4
 20
30
 11
85.1997
 21
33.1835
  0
LINE
  8
0
 10
85.1997
 20
33.1835
 11
84.602
 21
36.3167
  0
LINE
  8
0
 10
84.602
 20
36.3167
 11
83.6163
 21
39.3504
  0
LINE
  8
0
 10
83.6163
 20
39.3504
 11
82.2582
 21
42.2365
  0
LINE
  8
0
 10
82.2582
 20
42.2365
 11
80.549
 21
44.9297
  0
LINE
  8
0
 10
80.549
 20
44.9297
 11
78.5158
 21
47.3875
  0
LINE
  8
0
 10
78.5158
 20
47.3875
 11
76.1906
 21
49.571
  0
LINE
  8
0
 10
76.1906
 20
49.571
 11
73.61
 21
51.4459
  0
LINE
  8
0
 10
73.61
 20
51.4459
 11
70.8148
 21
52.9826
  0
LINE
  8
0
 10
70.8148
 20
52.9826
 11
67.849
 21
54.1568
  0
LINE
  8
0
 10
67.849
 20
54.1568
 11
64.7595
 21
54.9501
  0
LINE
  8
0
 10
64.7595
 20
54.9501
 11
61.5949
 21
55.3499
  0
LINE
  8
0
 10
61.5949
 20
55.3499
 11
58.4051
 21
55.3499
  0
LINE
  8
0
 10
58.4051
 20
55.3499
 11
55.2405
 21
54.9501
  0
LINE
  8
0
 10
55.2405
 20
54.9501
 11
52.151
 21
54.1568
  0
LINE
  8
0
 10
52.151
 20
54.1568
 11
49.1852
 21
52.9826
  0
LINE
  8
0
 10
49.1852
 20
52.9826
 11
46.39
 21
51.4459
  0
LINE
  8
0
 10
46.39
 20
51.4459
 11
43.8094
 21
49.571
  0
LINE
  8
0
 10
43.8094
 20
49.571
 11
41.4842
 21
47.3875
  0
LINE
  8
0
 10
41.4842
 20
47.3875
 11
39.451
 21
44.9297
  0
LINE
  8
0
 10
39.451
 20
44.9297
 11
37.7418
 21
42.2365
  0
LINE
  8
0
 10
37.7418
 20
42.2365
 11
36.3837
 21
39.3504
  0
LINE
  8
0
 10
36.3837
 20
39.3504
 11
35.398
 21
36.3167
  0
LINE
  8
0
 10
35.398
 20
36.3167
 11
34.8003
 21
33.1835
  0
LINE
  8
0
 10
34.8003
 20
33.1835
 11
34.6
 21
30
  0
LINE
  8
0
 10
34.6
 20
30
 11
34.8003
 21
26.8165
  0
LINE
  8
0
 10
34.8003
 20
26.8165
 11
35.398
 21
23.6833
  0
LINE
  8
0
 10
35.398
 20
23.6833
 11
36.3837
 21
20.6496
  0
LINE
  8
0
 10
36.3837
 20
20.6496
 11
37.7418
 21
17.7634
  0
LINE
  8
0
 10
37.7418
 20
17.7634
 11
39.451
 21
15.0703
  0
LINE
  8
0
 10
39.451
 20
15.0703
 11
41.4842
 21
12.6125
  0
LINE
  8
0
 10
41.4842
 20
12.6125
 11
43.8094
 21
10.429
  0
LINE
  8
0
 10
43.8094
 20
10.429
 11
46.39
 21
8.55406
  0
LINE
  8
0
 10
46.39
 20
8.55406
 11
49.1852
 21
7.01738
  0
LINE
  8
0
 10
49.1852
 20
7.01738
 11
52.151
 21
5.84315
  0
LINE
  8
0
 10
52.151
 20
5.84315
 11
55.2405
 21
5.0499
  0
LINE
  8
0
 10
55.2405
 20
5.0499
 11
58.4051
 21
4.65012
  0
LINE
  8
0
 10
58.4051
 20
4.65012
 11
61.5949
 21
4.65012
  0
LINE
  8
0
 10
61.5949
 20
4.65012
 11
64.7595
 21
5.0499
  0
LINE
  8
0
 10
-235.241
 20
5.0499
 11
-232.151
 21
5.84315
  0
LINE
  8
0
 10
-232.151
 20
5.84315
 11
-229.185
 21
7.01738
  0
LINE
  8
0
 10
-229.185
 20
7.01738
 11
-226.39
 21
8.55406
  0
LINE
  8
0
 10
-226.39
 20
8.55406
 11
-223.809
 21
10.429
  0
LINE
  8
0
 10
-223.809
 20
10.429
 11
-221.484
 21
12.6125
  0
LINE
  8
0
 10
-221.484
 20
12.6125
 11
-219.451
 21
15.0703
  0
LINE
  8
0
 10
-219.451
 20
15.0703
 11
-217.742
 21
17.7634
  0
LINE
  8
0
 10
-217.742
 20
17.7634
 11
-216.384
 21
20.6496
  0
LINE
  8
0
 10
-216.384
 20
20.6496
 11
-215.398
 21
23.6833
  0
LINE
  8
0
 10
-215.398
 20
23.6833
 11
-214.8
 21
26.8165
  0
LINE
  8
0
 10
-214.8
 20
26.8165
 11
-214.6
 21
30
  0
LINE
  8
0
 10
-214.6
 20
30
 11
-214.8
 21
33.1835
  0
LINE
  8
0
 10
-214.8
 20
33.1835
 11
-215.398
 21
36.3167
  0
LINE
  8
0
 10
-215.398
 20
36.3167
 11
-216.384
 21
39.3504
  0
LINE
  8
0
 10
-216.384
 20
39.3504
 11
-217.742
 21
42.2365
  0
LINE
  8
0
 10
-217.742
 20
42.2365
 11
-219.451
 21
44.9297
  0
LINE
  8
0
 10
-219.451
 20
44.9297
 11
-221.484
 21
47.3875
  0
LINE
  8
0
 10
-221.484
 20
47.3875
 11
-223.809
 21
49.571
  0
LINE
  8
0
 10
-223.809
 20
49.571
 11
-226.39
 21
51.4459
  0
LINE
  8
0
 10
-226.39
 20
51.4459
 11
-229.185
 21
52.9826
  0
LINE
  8
0
 10
-229.185
 20
52.9826
 11
-232.151
 21
54.1568
  0
LINE
  8
0
 10
-232.151
 20
54.1568
 11
-235.241
 21
54.9501
  0
LINE
  8
0
 10
-235.241
 20
54.9501
 11
-238.405
 21
55.3499
  0
LINE
  8
0
 10
-238.405
 20
55.3499
 11
-241.595
 21
55.3499
  0
LINE
  8
0
 10
-241.595
 20
55.3499
 11
-244.759
 21
54.9501
  0
LINE
  8
0
 10
-244.759
 20
54.9501
 11
-247.849
 21
54.1568
  0
LINE
  8
0
 10
-247.849
 20
54.1568
 11
-250.815
 21
52.9826
  0
LINE
  8
0
 10
-250.815
 20
52.9826
 11
-253.61
 21
51.4459
  0
LINE
  8
0
 10
-253.61
 20
51.4459
 11
-256.191
 21
49.571
  0
LINE
  8
0
 10
-256.191
 20
49.571
 11
-258.516
 21
47.3875
  0
LINE
  8
0
 10
-258.516
 20
47.3875
 11
-260.549
 21
44.9297
  0
LINE
  8
0
 10
-260.549
 20
44.9297
 11
-262.258
 21
42.2365
  0
LINE
  8
0
 10
-262.258
 20
42.2365
 11
-263.616
 21
39.3504
  0
LINE
  8
0
 10
-263.616
 20
39.3504
 11
-264.602
 21
36.3167
  0
LINE
  8
0
 10
-264.602
 20
36.3167
 11
-265.2
 21
33.1835
  0
LINE
  8
0
 10
-265.2
 20
33.1835
 11
-265.4
 21
30
  0
LINE
  8
0
 10
-265.4
 20
30
 11
-265.2
 21
26.8165
  0
LINE
  8
0
 10
-265.2
 20
26.8165
 11
-264.602
 21
23.6833
  0
LINE
  8
0
 10
-264.602
 20
23.6833
 11
-263.616
 21
20.6496
  0
LINE
  8
0
 10
-263.616
 20
20.6496
 11
-262.258
 21
17.7634
  0
LINE
  8
0
 10
-262.258
 20
17.7634
 11
-260.549
 21
15.0703
  0
LINE
  8
0
 10
-260.549
 20
15.0703
 11
-258.516
 21
12.6125
  0
LINE
  8
0
 10
-258.516
 20
12.6125
 11
-256.191
 21
10.429
  0
LINE
  8
0
 10
-256.191
 20
10.429
 11
-253.61
 21
8.55406
  0
LINE
  8
0
 10
-253.61
 20
8.55406
 11
-250.815
 21
7.01738
  0
LINE
  8
0
 10
-250.815
 20
7.01738
 11
-247.849
 21
5.84315
  0
LINE
  8
0
 10
-247.849
 20
5.84315
 11
-244.759
 21
5.0499
  0
LINE
  8
0
 10
-244.759
 20
5.0499
 11
-241.595
 21
4.65012
  0
LINE
  8
0
 10
-241.595
 20
4.65012
 11
-238.405
 21
4.65012
  0
LINE
  8
0
 10
-238.405
 20
4.65012
 11
-235.241
 21
5.0499
  0
LINE
  8
0
 10
4.75948
 20
5.0499
 11
7.84903
 21
5.84315
  0
LINE
  8
0
 10
7.84903
 20
5.84315
 11
10.8148
 21
7.01738
  0
LINE
  8
0
 10
10.8148
 20
7.01738
 11
13.61
 21
8.55406
  0
LINE
  8
0
 10
13.61
 20
8.55406
 11
16.1906
 21
10.429
  0
LINE
  8
0
 10
16.1906
 20
10.429
 11
18.5158
 21
12.6125
  0
LINE
  8
0
 10
18.5158
 20
12.6125
 11
20.549
 21
15.0703
  0
LINE
  8
0
 10
20.549
 20
15.0703
 11
22.2582
 21
17.7634
  0
LINE
  8
0
 10
22.2582
 20
17.7634
 11
23.6163
 21
20.6496
  0
LINE
  8
0
 10
23.6163
 20
20.6496
 11
24.602
 21
23.6833
  0
LINE
  8
0
 10
24.602
 20
23.6833
 11
25.1997
 21
26.8165
  0
LINE
  8
0
 10
25.1997
 20
26.8165
 11
25.4
 21
30
  0
LINE
  8
0
 10
25.4
 20
30
 11
25.1997
 21
33.1835
  0
LINE
  8
0
 10
25.1997
 20
33.1835
 11
24.602
 21
36.3167
  0
LINE
  8
0
 10
24.602
 20
36.3167
 11
23.6163
 21
39.3504
  0
LINE
  8
0
 10
23.6163
 20
39.3504
 11
22.2582
 21
42.2365
  0
LINE
  8
0
 10
22.2582
 20
42.2365
 11
20.549
 21
44.9297
  0
LINE
  8
0
 10
20.549
 20
44.9297
 11
18.5158
 21
47.3875
  0
LINE
  8
0
 10
18.5158
 20
47.3875
 11
16.1906
 21
49.571
  0
LINE
  8
0
 10
16.1906
 20
49.571
 11
13.61
 21
51.4459
  0
LINE
  8
0
 10
13.61
 20
51.4459
 11
10.8148
 21
52.9826
  0
LINE
  8
0
 10
10.8148
 20
52.9826
 11
7.84903
 21
54.1568
  0
LINE
  8
0
 10
7.84903
 20
54.1568
 11
4.75948
 21
54.9501
  0
LINE
  8
0
 10
4.75948
 20
54.9501
 11
1.59488
 21
55.3499
  0
LINE
  8
0
 10
1.59488
 20
55.3499
 11
-1.59488
 21
55.3499
  0
LINE
  8
0
 10
-1.59488
 20
55.3499
 11
-4.75948
 21
54.9501
  0
LINE
  8
0
 10
-4.75948
 20
54.9501
 11
-7.84903
 21
54.1568
  0
LINE
  8
0
 10
-7.84903
 20
54.1568
 11
-10.8148
 21
52.9826
  0
LINE
  8
0
 10
-10.8148
 20
52.9826
 11
-13.61
 21
51.4459
  0
LINE
  8
0
 10
-13.61
 20
51.4459
 11
-16.1906
 21
49.571
  0
LINE
  8
0
 10
-16.1906
 20
49.571
 11
-18.5158
 21
47.3875
  0
LINE
  8
0
 10
-18.5158
 20
47.3875
 11
-20.549
 21
44.9297
  0
LINE
  8
0
 10
-20.549
 20
44.9297
 11
-22.2582
 21
42.2365
  0
LINE
  8
0
 10
-22.2582
 20
42.2365
 11
-23.6163
 21
39.3504
  0
LINE
  8
0
 10
-23.6163
 20
39.3504
 11
-24.602
 21
36.3167
  0
LINE
  8
0
 10
-24.602
 20
36.3167
 11
-25.1997
 21
33.1835
  0
LINE
  8
0
 10
-25.1997
 20
33.1835
 11
-25.4
 21
30
  0
LINE
  8
0
 10
-25.4
 20
30
 11
-25.1997
 21
26.8165
  0
LINE
  8
0
 10
-25.1997
 20
26.8165
 11
-24.602
 21
23.6833
  0
LINE
  8
0
 10
-24.602
 20
23.6833
 11
-23.6163
 21
20.6496
  0
LINE
  8
0
 10
-23.6163
 20
20.6496
 11
-22.2582
 21
17.7634
  0
LINE
  8
0
 10
-22.2582
 20
17.7634
 11
-20.549
 21
15.0703
  0
LINE
  8
0
 10
-20.549
 20
15.0703
 11
-18.5158
 21
12.6125
  0
LINE
  8
0
 10
-18.5158
 20
12.6125
 11
-16.1906
 21
10.429
  0
LINE
  8
0
 10
-16.1906
 20
10.429
 11
-13.61
 21
8.55406
  0
LINE
  8
0
 10
-13.61
 20
8.55406
 11
-10.8148
 21
7.01738
  0
LINE
  8
0
 10
-10.8148
 20
7.01738
 11
-7.84903
 21
5.84315
  0
LINE
  8
0
 10
-7.84903
 20
5.84315
 11
-4.75948
 21
5.0499
  0
LINE
  8
0
 10
-4.75948
 20
5.0499
 11
-1.59488
 21
4.65012
  0
LINE
  8
0
 10
-1.59488
 20
4.65012
 11
1.59488
 21
4.65012
  0
LINE
  8
0
 10
1.59488
 20
4.65012
 11
4.75948
 21
5.0499
  0
LINE
  8
0
 10
184.759
 20
5.0499
 11
187.849
 21
5.84315
  0
LINE
  8
0
 10
187.849
 20
5.84315
 11
190.815
 21
7.01738
  0
LINE
  8
0
 10
190.815
 20
7.01738
 11
193.61
 21
8.55406
  0
LINE
  8
0
 10
193.61
 20
8.55406
 11
196.191
 21
10.429
  0
LINE
  8
0
 10
196.191
 20
10.429
 11
198.516
 21
12.6125
  0
LINE
  8
0
 10
198.516
 20
12.6125
 11
200.549
 21
15.0703
  0
LINE
  8
0
 10
200.549
 20
15.0703
 11
202.258
 21
17.7634
  0
LINE
  8
0
 10
202.258
 20
17.7634
 11
203.616
 21
20.6496
  0
LINE
  8
0
 10
203.616
 20
20.6496
 11
204.602
 21
23.6833
  0
LINE
  8
0
 10
204.602
 20
23.6833
 11
205.2
 21
26.8165
  0
LINE
  8
0
 10
205.2
 20
26.8165
 11
205.4
 21
30
  0
LINE
  8
0
 10
205.4
 20
30
 11
205.2
 21
33.1835
  0
LINE
  8
0
 10
205.2
 20
33.1835
 11
204.602
 21
36.3167
  0
LINE
  8
0
 10
204.602
 20
36.3167
 11
203.616
 21
39.3504
  0
LINE
  8
0
 10
203.616
 20
39.3504
 11
202.258
 21
42.2365
  0
LINE
  8
0
 10
202.258
 20
42.2365
 11
200.549
 21
44.9297
  0
LINE
  8
0
 10
200.549
 20
44.9297
 11
198.516
 21
47.3875
  0
LINE
  8
0
 10
198.516
 20
47.3875
 11
196.191
 21
49.571
  0
LINE
  8
0
 10
196.191
 20
49.571
 11
193.61
 21
51.4459
  0
LINE
  8
0
 10
193.61
 20
51.4459
 11
190.815
 21
52.9826
  0
LINE
  8
0
 10
190.815
 20
52.9826
 11
187.849
 21
54.1568
  0
LINE
  8
0
 10
187.849
 20
54.1568
 11
184.759
 21
54.9501
  0
LINE
  8
0
 10
184.759
 20
54.9501
 11
181.595
 21
55.3499
  0
LINE
  8
0
 10
181.595
 20
55.3499
 11
178.405
 21
55.3499
  0
LINE
  8
0
 10
178.405
 20
55.3499
 11
175.241
 21
54.9501
  0
LINE
  8
0
 10
175.241
 20
54.9501
 11
172.151
 21
54.1568
  0
LINE
  8
0
 10
172.151
 20
54.1568
 11
169.185
 21
52.9826
  0
LINE
  8
0
 10
169.185
 20
52.9826
 11
166.39
 21
51.4459
  0
LINE
  8
0
 10
166.39
 20
51.4459
 11
163.809
 21
49.571
  0
LINE
  8
0
 10
163.809
 20
49.571
 11
161.484
 21
47.3875
  0
LINE
  8
0
 10
161.484
 20
47.3875
 11
159.451
 21
44.9297
  0
LINE
  8
0
 10
159.451
 20
44.9297
 11
157.742
 21
42.2365
  0
LINE
  8
0
 10
157.742
 20
42.2365
 11
156.384
 21
39.3504
  0
LINE
  8
0
 10
156.384
 20
39.3504
 11
155.398
 21
36.3167
  0
LINE
  8
0
 10
155.398
 20
36.3167
 11
154.8
 21
33.1835
  0
LINE
  8
0
 10
154.8
 20
33.1835
 11
154.6
 21
30
  0
LINE
  8
0
 10
154.6
 20
30
 11
154.8
 21
26.8165
  0
LINE
  8
0
 10
154.8
 20
26.8165
 11
155.398
 21
23.6833
  0
LINE
  8
0
 10
155.398
 20
23.6833
 11
156.384
 21
20.6496
  0
LINE
  8
0
 10
156.384
 20
20.6496
 11
157.742
 21
17.7634
  0
LINE
  8
0
 10
157.742
 20
17.7634
 11
159.451
 21
15.0703
  0
LINE
  8
0
 10
159.451
 20
15.0703
 11
161.484
 21
12.6125
  0
LINE
  8
0
 10
161.484
 20
12.6125
 11
163.809
 21
10.429
  0
LINE
  8
0
 10
163.809
 20
10.429
 11
166.39
 21
8.55406
  0
LINE
  8
0
 10
166.39
 20
8.55406
 11
169.185
 21
7.01738
  0
LINE
  8
0
 10
169.185
 20
7.01738
 11
172.151
 21
5.84315
  0
LINE
  8
0
 10
172.151
 20
5.84315
 11
175.241
 21
5.0499
  0
LINE
  8
0
 10
175.241
 20
5.0499
 11
178.405
 21
4.65012
  0
LINE
  8
0
 10
178.405
 20
4.65012
 11
181.595
 21
4.65012
  0
LINE
  8
0
 10
181.595
 20
4.65012
 11
184.759
 21
5.0499
  0
LINE
  8
0
 10
124.759
 20
5.0499
 11
127.849
 21
5.84315
  0
LINE
  8
0
 10
127.849
 20
5.84315
 11
130.815
 21
7.01738
  0
LINE
  8
0
 10
130.815
 20
7.01738
 11
133.61
 21
8.55406
  0
LINE
  8
0
 10
133.61
 20
8.55406
 11
136.191
 21
10.429
  0
LINE
  8
0
 10
136.191
 20
10.429
 11
138.516
 21
12.6125
  0
LINE
  8
0
 10
138.516
 20
12.6125
 11
140.549
 21
15.0703
  0
LINE
  8
0
 10
140.549
 20
15.0703
 11
142.258
 21
17.7634
  0
LINE
  8
0
 10
142.258
 20
17.7634
 11
143.616
 21
20.6496
  0
LINE
  8
0
 10
143.616
 20
20.6496
 11
144.602
 21
23.6833
  0
LINE
  8
0
 10
144.602
 20
23.6833
 11
145.2
 21
26.8165
  0
LINE
  8
0
 10
145.2
 20
26.8165
 11
145.4
 21
30
  0
LINE
  8
0
 10
145.4
 20
30
 11
145.2
 21
33.1835
  0
LINE
  8
0
 10
145.2
 20
33.1835
 11
144.602
 21
36.3167
  0
LINE
  8
0
 10
144.602
 20
36.3167
 11
143.616
 21
39.3504
  0
LINE
  8
0
 10
143.616
 20
39.3504
 11
142.258
 21
42.2365
  0
LINE
  8
0
 10
142.258
 20
42.2365
 11
140.549
 21
44.9297
  0
LINE
  8
0
 10
140.549
 20
44.9297
 11
138.516
 21
47.3875
  0
LINE
  8
0
 10
138.516
 20
47.3875
 11
136.191
 21
49.571
  0
LINE
  8
0
 10
136.191
 20
49.571
 11
133.61
 21
51.4459
  0
LINE
  8
0
 10
133.61
 20
51.4459
 11
130.815
 21
52.9826
  0
LINE
  8
0
 10
130.815
 20
52.9826
 11
127.849
 21
54.1568
  0
LINE
  8
0
 10
127.849
 20
54.1568
 11
124.759
 21
54.9501
  0
LINE
  8
0
 10
124.759
 20
54.9501
 11
121.595
 21
55.3499
  0
LINE
  8
0
 10
121.595
 20
55.3499
 11
118.405
 21
55.3499
  0
LINE
  8
0
 10
118.405
 20
55.3499
 11
115.241
 21
54.9501
  0
LINE
  8
0
 10
115.241
 20
54.9501
 11
112.151
 21
54.1568
  0
LINE
  8
0
 10
112.151
 20
54.1568
 11
109.185
 21
52.9826
  0
LINE
  8
0
 10
109.185
 20
52.9826
 11
106.39
 21
51.4459
  0
LINE
  8
0
 10
106.39
 20
51.4459
 11
103.809
 21
49.571
  0
LINE
  8
0
 10
103.809
 20
49.571
 11
101.484
 21
47.3875
  0
LINE
  8
0
 10
101.484
 20
47.3875
 11
99.451
 21
44.9297
  0
LINE
  8
0
 10
99.451
 20
44.9297
 11
97.7418
 21
42.2365
  0
LINE
  8
0
 10
97.7418
 20
42.2365
 11
96.3837
 21
39.3504
  0
LINE
  8
0
 10
96.3837
 20
39.3504
 11
95.398
 21
36.3167
  0
LINE
  8
0
 10
95.398
 20
36.3167
 11
94.8003
 21
33.1835
  0
LINE
  8
0
 10
94.8003
 20
33.1835
 11
94.6
 21
30
  0
LINE
  8
0
 10
94.6
 20
30
 11
94.8003
 21
26.8165
  0
LINE
  8
0
 10
94.8003
 20
26.8165
 11
95.398
 21
23.6833
  0
LINE
  8
0
 10
95.398
 20
23.6833
 11
96.3837
 21
20.6496
  0
LINE
  8
0
 10
96.3837
 20
20.6496
 11
97.7418
 21
17.7634
  0
LINE
  8
0
 10
97.7418
 20
17.7634
 11
99.451
 21
15.0703
  0
LINE
  8
0
 10
99.451
 20
15.0703
 11
101.484
 21
12.6125
  0
LINE
  8
0
 10
101.484
 20
12.6125
 11
103.809
 21
10.429
  0
LINE
  8
0
 10
103.809
 20
10.429
 11
106.39
 21
8.55406
  0
LINE
  8
0
 10
106.39
 20
8.55406
 11
109.185
 21
7.01738
  0
LINE
  8
0
 10
109.185
 20
7.01738
 11
112.151
 21
5.84315
  0
LINE
  8
0
 10
112.151
 20
5.84315
 11
115.241
 21
5.0499
  0
LINE
  8
0
 10
115.241
 20
5.0499
 11
118.405
 21
4.65012
  0
LINE
  8
0
 10
118.405
 20
4.65012
 11
121.595
 21
4.65012
  0
LINE
  8
0
 10
121.595
 20
4.65012
 11
124.759
 21
5.0499
  0
LINE
  8
0
 10
-55.2405
 20
5.0499
 11
-52.151
 21
5.84315
  0
LINE
  8
0
 10
-52.151
 20
5.84315
 11
-49.1852
 21
7.01738
  0
LINE
  8
0
 10
-49.1852
 20
7.01738
 11
-46.39
 21
8.55406
  0
LINE
  8
0
 10
-46.39
 20
8.55406
 11
-43.8094
 21
10.429
  0
LINE
  8
0
 10
-43.8094
 20
10.429
 11
-41.4842
 21
12.6125
  0
LINE
  8
0
 10
-41.4842
 20
12.6125
 11
-39.451
 21
15.0703
  0
LINE
  8
0
 10
-39.451
 20
15.0703
 11
-37.7418
 21
17.7634
  0
LINE
  8
0
 10
-37.7418
 20
17.7634
 11
-36.3837
 21
20.6496
  0
LINE
  8
0
 10
-36.3837
 20
20.6496
 11
-35.398
 21
23.6833
  0
LINE
  8
0
 10
-35.398
 20
23.6833
 11
-34.8003
 21
26.8165
  0
LINE
  8
0
 10
-34.8003
 20
26.8165
 11
-34.6
 21
30
  0
LINE
  8
0
 10
-34.6
 20
30
 11
-34.8003
 21
33.1835
  0
LINE
  8
0
 10
-34.8003
 20
33.1835
 11
-35.398
 21
36.3167
  0
LINE
  8
0
 10
-35.398
 20
36.3167
 11
-36.3837
 21
39.3504
  0
LINE
  8
0
 10
-36.3837
 20
39.3504
 11
-37.7418
 21
42.2365
  0
LINE
  8
0
 10
-37.7418
 20
42.2365
 11
-39.451
 21
44.9297
  0
LINE
  8
0
 10
-39.451
 20
44.9297
 11
-41.4842
 21
47.3875
  0
LINE
  8
0
 10
-41.4842
 20
47.3875
 11
-43.8094
 21
49.571
  0
LINE
  8
0
 10
-43.8094
 20
49.571
 11
-46.39
 21
51.4459
  0
LINE
  8
0
 10
-46.39
 20
51.4459
 11
-49.1852
 21
52.9826
  0
LINE
  8
0
 10
-49.1852
 20
52.9826
 11
-52.151
 21
54.1568
  0
LINE
  8
0
 10
-52.151
 20
54.1568
 11
-55.2405
 21
54.9501
  0
LINE
  8
0
 10
-55.2405
 20
54.9501
 11
-58.4051
 21
55.3499
  0
LINE
  8
0
 10
-58.4051
 20
55.3499
 11
-61.5949
 21
55.3499
  0
LINE
  8
0
 10
-61.5949
 20
55.3499
 11
-64.7595
 21
54.9501
  0
LINE
  8
0
 10
-64.7595
 20
54.9501
 11
-67.849
 21
54.1568
  0
LINE
  8
0
 10
-67.849
 20
54.1568
 11
-70.8148
 21
52.9826
  0
LINE
  8
0
 10
-70.8148
 20
52.9826
 11
-73.61
 21
51.4459
  0
LINE
  8
0
 10
-73.61
 20
51.4459
 11
-76.1906
 21
49.571
  0
LINE
  8
0
 10
-76.1906
 20
49.571
 11
-78.5158
 21
47.3875
  0
LINE
  8
0
 10
-78.5158
 20
47.3875
 11
-80.549
 21
44.9297
  0
LINE
  8
0
 10
-80.549
 20
44.9297
 11
-82.2582
 21
42.2365
  0
LINE
  8
0
 10
-82.2582
 20
42.2365
 11
-83.6163
 21
39.3504
  0
LINE
  8
0
 10
-83.6163
 20
39.3504
 11
-84.602
 21
36.3167
  0
LINE
  8
0
 10
-84.602
 20
36.3167
 11
-85.1997
 21
33.1835
  0
LINE
  8
0
 10
-85.1997
 20
33.1835
 11
-85.4
 21
30
  0
LINE
  8
0
 10
-85.4
 20
30
 11
-85.1997
 21
26.8165
  0
LINE
  8
0
 10
-85.1997
 20
26.8165
 11
-84.602
 21
23.6833
  0
LINE
  8
0
 10
-84.602
 20
23.6833
 11
-83.6163
 21
20.6496
  0
LINE
  8
0
 10
-83.6163
 20
20.6496
 11
-82.2582
 21
17.7634
  0
LINE
  8
0
 10
-82.2582
 20
17.7634
 11
-80.549
 21
15.0703
  0
LINE
  8
0
 10
-80.549
 20
15.0703
 11
-78.5158
 21
12.6125
  0
LINE
  8
0
 10
-78.5158
 20
12.6125
 11
-76.1906
 21
10.429
  0
LINE
  8
0
 10
-76.1906
 20
10.429
 11
-73.61
 21
8.55406
  0
LINE
  8
0
 10
-73.61
 20
8.55406
 11
-70.8148
 21
7.01738
  0
LINE
  8
0
 10
-70.8148
 20
7.01738
 11
-67.849
 21
5.84315
  0
LINE
  8
0
 10
-67.849
 20
5.84315
 11
-64.7595
 21
5.0499
  0
LINE
  8
0
 10
-64.7595
 20
5.0499
 11
-61.5949
 21
4.65012
  0
LINE
  8
0
 10
-61.5949
 20
4.65012
 11
-58.4051
 21
4.65012
  0
LINE
  8
0
 10
-58.4051
 20
4.65012
 11
-55.2405
 21
5.0499
  0
LINE
  8
0
 10
-175.241
 20
5.0499
 11
-172.151
 21
5.84315
  0
LINE
  8
0
 10
-172.151
 20
5.84315
 11
-169.185
 21
7.01738
  0
LINE
  8
0
 10
-169.185
 20
7.01738
 11
-166.39
 21
8.55406
  0
LINE
  8
0
 10
-166.39
 20
8.55406
 11
-163.809
 21
10.429
  0
LINE
  8
0
 10
-163.809
 20
10.429
 11
-161.484
 21
12.6125
  0
LINE
  8
0
 10
-161.484
 20
12.6125
 11
-159.451
 21
15.0703
  0
LINE
  8
0
 10
-159.451
 20
15.0703
 11
-157.742
 21
17.7634
  0
LINE
  8
0
 10
-157.742
 20
17.7634
 11
-156.384
 21
20.6496
  0
LINE
  8
0
 10
-156.384
 20
20.6496
 11
-155.398
 21
23.6833
  0
LINE
  8
0
 10
-155.398
 20
23.6833
 11
-154.8
 21
26.8165
  0
LINE
  8
0
 10
-154.8
 20
26.8165
 11
-154.6
 21
30
  0
LINE
  8
0
 10
-154.6
 20
30
 11
-154.8
 21
33.1835
  0
LINE
  8
0
 10
-154.8
 20
33.1835
 11
-155.398
 21
36.3167
  0
LINE
  8
0
 10
-155.398
 20
36.3167
 11
-156.384
 21
39.3504
  0
LINE
  8
0
 10
-156.384
 20
39.3504
 11
-157.742
 21
42.2365
  0
LINE
  8
0
 10
-157.742
 20
42.2365
 11
-159.451
 21
44.9297
  0
LINE
  8
0
 10
-159.451
 20
44.9297
 11
-161.484
 21
47.3875
  0
LINE
  8
0
 10
-161.484
 20
47.3875
 11
-163.809
 21
49.571
  0
LINE
  8
0
 10
-163.809
 20
49.571
 11
-166.39
 21
51.4459
  0
LINE
  8
0
 10
-166.39
 20
51.4459
 11
-169.185
 21
52.9826
  0
LINE
  8
0
 10
-169.185
 20
52.9826
 11
-172.151
 21
54.1568
  0
LINE
  8
0
 10
-172.151
 20
54.1568
 11
-175.241
 21
54.9501
  0
LINE
  8
0
 10
-175.241
 20
54.9501
 11
-178.405
 21
55.3499
  0
LINE
  8
0
 10
-178.405
 20
55.3499
 11
-181.595
 21
55.3499
  0
LINE
  8
0
 10
-181.595
 20
55.3499
 11
-184.759
 21
54.9501
  0
LINE
  8
0
 10
-184.759
 20
54.9501
 11
-187.849
 21
54.1568
  0
LINE
  8
0
 10
-187.849
 20
54.1568
 11
-190.815
 21
52.9826
  0
LINE
  8
0
 10
-190.815
 20
52.9826
 11
-193.61
 21
51.4459
  0
LINE
  8
0
 10
-193.61
 20
51.4459
 11
-196.191
 21
49.571
  0
LINE
  8
0
 10
-196.191
 20
49.571
 11
-198.516
 21
47.3875
  0
LINE
  8
0
 10
-198.516
 20
47.3875
 11
-200.549
 21
44.9297
  0
LINE
  8
0
 10
-200.549
 20
44.9297
 11
-202.258
 21
42.2365
  0
LINE
  8
0
 10
-202.258
 20
42.2365
 11
-203.616
 21
39.3504
  0
LINE
  8
0
 10
-203.616
 20
39.3504
 11
-204.602
 21
36.3167
  0
LINE
  8
0
 10
-204.602
 20
36.3167
 11
-205.2
 21
33.1835
  0
LINE
  8
0
 10
-205.2
 20
33.1835
 11
-205.4
 21
30
  0
LINE
  8
0
 10
-205.4
 20
30
 11
-205.2
 21
26.8165
  0
LINE
  8
0
 10
-205.2
 20
26.8165
 11
-204.602
 21
23.6833
  0
LINE
  8
0
 10
-204.602
 20
23.6833
 11
-203.616
 21
20.6496
  0
LINE
  8
0
 10
-203.616
 20
20.6496
 11
-202.258
 21
17.7634
  0
LINE
  8
0
 10
-202.258
 20
17.7634
 11
-200.549
 21
15.0703
  0
LINE
  8
0
 10
-200.549
 20
15.0703
 11
-198.516
 21
12.6125
  0
LINE
  8
0
 10
-198.516
 20
12.6125
 11
-196.191
 21
10.429
  0
LINE
  8
0
 10
-196.191
 20
10.429
 11
-193.61
 21
8.55406
  0
LINE
  8
0
 10
-193.61
 20
8.55406
 11
-190.815
 21
7.01738
  0
LINE
  8
0
 10
-190.815
 20
7.01738
 11
-187.849
 21
5.84315
  0
LINE
  8
0
 10
-187.849
 20
5.84315
 11
-184.759
 21
5.0499
  0
LINE
  8
0
 10
-184.759
 20
5.0499
 11
-181.595
 21
4.65012
  0
LINE
  8
0
 10
-181.595
 20
4.65012
 11
-178.405
 21
4.65012
  0
LINE
  8
0
 10
-178.405
 20
4.65012
 11
-175.241
 21
5.0499
  0
LINE
  8
0
 10
244.759
 20
5.0499
 11
247.849
 21
5.84315
  0
LINE
  8
0
 10
247.849
 20
5.84315
 11
250.815
 21
7.01738
  0
LINE
  8
0
 10
250.815
 20
7.01738
 11
253.61
 21
8.55406
  0
LINE
  8
0
 10
253.61
 20
8.55406
 11
256.191
 21
10.429
  0
LINE
  8
0
 10
256.191
 20
10.429
 11
258.516
 21
12.6125
  0
LINE
  8
0
 10
258.516
 20
12.6125
 11
260.549
 21
15.0703
  0
LINE
  8
0
 10
260.549
 20
15.0703
 11
262.258
 21
17.7634
  0
LINE
  8
0
 10
262.258
 20
17.7634
 11
263.616
 21
20.6496
  0
LINE
  8
0
 10
263.616
 20
20.6496
 11
264.602
 21
23.6833
  0
LINE
  8
0
 10
264.602
 20
23.6833
 11
265.2
 21
26.8165
  0
LINE
  8
0
 10
265.2
 20
26.8165
 11
265.4
 21
30
  0
LINE
  8
0
 10
265.4
 20
30
 11
265.2
 21
33.1835
  0
LINE
  8
0
 10
265.2
 20
33.1835
 11
264.602
 21
36.3167
  0
LINE
  8
0
 10
264.602
 20
36.3167
 11
263.616
 21
39.3504
  0
LINE
  8
0
 10
263.616
 20
39.3504
 11
262.258
 21
42.2365
  0
LINE
  8
0
 10
262.258
 20
42.2365
 11
260.549
 21
44.9297
  0
LINE
  8
0
 10
260.549
 20
44.9297
 11
258.516
 21
47.3875
  0
LINE
  8
0
 10
258.516
 20
47.3875
 11
256.191
 21
49.571
  0
LINE
  8
0
 10
256.191
 20
49.571
 11
253.61
 21
51.4459
  0
LINE
  8
0
 10
253.61
 20
51.4459
 11
250.815
 21
52.9826
  0
LINE
  8
0
 10
250.815
 20
52.9826
 11
247.849
 21
54.1568
  0
LINE
  8
0
 10
247.849
 20
54.1568
 11
244.759
 21
54.9501
  0
LINE
  8
0
 10
244.759
 20
54.9501
 11
241.595
 21
55.3499
  0
LINE
  8
0
 10
241.595
 20
55.3499
 11
238.405
 21
55.3499
  0
LINE
  8
0
 10
238.405
 20
55.3499
 11
235.241
 21
54.9501
  0
LINE
  8
0
 10
235.241
 20
54.9501
 11
232.151
 21
54.1568
  0
LINE
  8
0
 10
232.151
 20
54.1568
 11
229.185
 21
52.9826
  0
LINE
  8
0
 10
229.185
 20
52.9826
 11
226.39
 21
51.4459
  0
LINE
  8
0
 10
226.39
 20
51.4459
 11
223.809
 21
49.571
  0
LINE
  8
0
 10
223.809
 20
49.571
 11
221.484
 21
47.3875
  0
LINE
  8
0
 10
221.484
 20
47.3875
 11
219.451
 21
44.9297
  0
LINE
  8
0
 10
219.451
 20
44.9297
 11
217.742
 21
42.2365
  0
LINE
  8
0
 10
217.742
 20
42.2365
 11
216.384
 21
39.3504
  0
LINE
  8
0
 10
216.384
 20
39.3504
 11
215.398
 21
36.3167
  0
LINE
  8
0
 10
215.398
 20
36.3167
 11
214.8
 21
33.1835
  0
LINE
  8
0
 10
214.8
 20
33.1835
 11
214.6
 21
30
  0
LINE
  8
0
 10
214.6
 20
30
 11
214.8
 21
26.8165
  0
LINE
  8
0
 10
214.8
 20
26.8165
 11
215.398
 21
23.6833
  0
LINE
  8
0
 10
215.398
 20
23.6833
 11
216.384
 21
20.6496
  0
LINE
  8
0
 10
216.384
 20
20.6496
 11
217.742
 21
17.7634
  0
LINE
  8
0
 10
217.742
 20
17.7634
 11
219.451
 21
15.0703
  0
LINE
  8
0
 10
219.451
 20
15.0703
 11
221.484
 21
12.6125
  0
LINE
  8
0
 10
221.484
 20
12.6125
 11
223.809
 21
10.429
  0
LINE
  8
0
 10
223.809
 20
10.429
 11
226.39
 21
8.55406
  0
LINE
  8
0
 10
226.39
 20
8.55406
 11
229.185
 21
7.01738
  0
LINE
  8
0
 10
229.185
 20
7.01738
 11
232.151
 21
5.84315
  0
LINE
  8
0
 10
232.151
 20
5.84315
 11
235.241
 21
5.0499
  0
LINE
  8
0
 10
235.241
 20
5.0499
 11
238.405
 21
4.65012
  0
LINE
  8
0
 10
238.405
 20
4.65012
 11
241.595
 21
4.65012
  0
LINE
  8
0
 10
241.595
 20
4.65012
 11
244.759
 21
5.0499
  0
LINE
  8
0
 10
4.75948
 20
-54.9501
 11
7.84903
 21
-54.1568
  0
LINE
  8
0
 10
7.84903
 20
-54.1568
 11
10.8148
 21
-52.9826
  0
LINE
  8
0
 10
10.8148
 20
-52.9826
 11
13.61
 21
-51.4459
  0
LINE
  8
0
 10
13.61
 20
-51.4459
 11
16.1906
 21
-49.571
  0
LINE
  8
0
 10
16.1906
 20
-49.571
 11
18.5158
 21
-47.3875
  0
LINE
  8
0
 10
18.5158
 20
-47.3875
 11
20.549
 21
-44.9297
  0
LINE
  8
0
 10
20.549
 20
-44.9297
 11
22.2582
 21
-42.2365
  0
LINE
  8
0
 10
22.2582
 20
-42.2365
 11
23.6163
 21
-39.3504
  0
LINE
  8
0
 10
23.6163
 20
-39.3504
 11
24.602
 21
-36.3167
  0
LINE
  8
0
 10
24.602
 20
-36.3167
 11
25.1997
 21
-33.1835
  0
LINE
  8
0
 10
25.1997
 20
-33.1835
 11
25.4
 21
-30
  0
LINE
  8
0
 10
25.4
 20
-30
 11
25.1997
 21
-26.8165
  0
LINE
  8
0
 10
25.1997
 20
-26.8165
 11
24.602
 21
-23.6833
  0
LINE
  8
0
 10
24.602
 20
-23.6833
 11
23.6163
 21
-20.6496
  0
LINE
  8
0
 10
23.6163
 20
-20.6496
 11
22.2582
 21
-17.7634
  0
LINE
  8
0
 10
22.2582
 20
-17.7634
 11
20.549
 21
-15.0703
  0
LINE
  8
0
 10
20.549
 20
-15.0703
 11
18.5158
 21
-12.6125
  0
LINE
  8
0
 10
18.5158
 20
-12.6125
 11
16.1906
 21
-10.429
  0
LINE
  8
0
 10
16.1906
 20
-10.429
 11
13.61
 21
-8.55406
  0
LINE
  8
0
 10
13.61
 20
-8.55406
 11
10.8148
 21
-7.01738
  0
LINE
  8
0
 10
10.8148
 20
-7.01738
 11
7.84903
 21
-5.84315
  0
LINE
  8
0
 10
7.84903
 20
-5.84315
 11
4.75948
 21
-5.0499
  0
LINE
  8
0
 10
4.75948
 20
-5.0499
 11
1.59488
 21
-4.65012
  0
LINE
  8
0
 10
1.59488
 20
-4.65012
 11
-1.59488
 21
-4.65012
  0
LINE
  8
0
 10
-1.59488
 20
-4.65012
 11
-4.75948
 21
-5.0499
  0
LINE
  8
0
 10
-4.75948
 20
-5.0499
 11
-7.84903
 21
-5.84315
  0
LINE
  8
0
 10
-7.84903
 20
-5.84315
 11
-10.8148
 21
-7.01738
  0
LINE
  8
0
 10
-10.8148
 20
-7.01738
 11
-13.61
 21
-8.55406
  0
LINE
  8
0
 10
-13.61
 20
-8.55406
 11
-16.1906
 21
-10.429
  0
LINE
  8
0
 10
-16.1906
 20
-10.429
 11
-18.5158
 21
-12.6125
  0
LINE
  8
0
 10
-18.5158
 20
-12.6125
 11
-20.549
 21
-15.0703
  0
LINE
  8
0
 10
-20.549
 20
-15.0703
 11
-22.2582
 21
-17.7634
  0
LINE
  8
0
 10
-22.2582
 20
-17.7634
 11
-23.6163
 21
-20.6496
  0
LINE
  8
0
 10
-23.6163
 20
-20.6496
 11
-24.602
 21
-23.6833
  0
LINE
  8
0
 10
-24.602
 20
-23.6833
 11
-25.1997
 21
-26.8165
  0
LINE
  8
0
 10
-25.1997
 20
-26.8165
 11
-25.4
 21
-30
  0
LINE
  8
0
 10
-25.4
 20
-30
 11
-25.1997
 21
-33.1835
  0
LINE
  8
0
 10
-25.1997
 20
-33.1835
 11
-24.602
 21
-36.3167
  0
LINE
  8
0
 10
-24.602
 20
-36.3167
 11
-23.6163
 21
-39.3504
  0
LINE
  8
0
 10
-23.6163
 20
-39.3504
 11
-22.2582
 21
-42.2365
  0
LINE
  8
0
 10
-22.2582
 20
-42.2365
 11
-20.549
 21
-44.9297
  0
LINE
  8
0
 10
-20.549
 20
-44.9297
 11
-18.5158
 21
-47.3875
  0
LINE
  8
0
 10
-18.5158
 20
-47.3875
 11
-16.1906
 21
-49.571
  0
LINE
  8
0
 10
-16.1906
 20
-49.571
 11
-13.61
 21
-51.4459
  0
LINE
  8
0
 10
-13.61
 20
-51.4459
 11
-10.8148
 21
-52.9826
  0
LINE
  8
0
 10
-10.8148
 20
-52.9826
 11
-7.84903
 21
-54.1568
  0
LINE
  8
0
 10
-7.84903
 20
-54.1568
 11
-4.75948
 21
-54.9501
  0
LINE
  8
0
 10
-4.75948
 20
-54.9501
 11
-1.59488
 21
-55.3499
  0
LINE
  8
0
 10
-1.59488
 20
-55.3499
 11
1.59488
 21
-55.3499
  0
LINE
  8
0
 10
1.59488
 20
-55.3499
 11
4.75948
 21
-54.9501
  0
LINE
  8
0
 10
-115.241
 20
-54.9501
 11
-112.151
 21
-54.1568
  0
LINE
  8
0
 10
-112.151
 20
-54.1568
 11
-109.185
 21
-52.9826
  0
LINE
  8
0
 10
-109.185
 20
-52.9826
 11
-106.39
 21
-51.4459
  0
LINE
  8
0
 10
-106.39
 20
-51.4459
 11
-103.809
 21
-49.571
  0
LINE
  8
0
 10
-103.809
 20
-49.571
 11
-101.484
 21
-47.3875
  0
LINE
  8
0
 10
-101.484
 20
-47.3875
 11
-99.451
 21
-44.9297
  0
LINE
  8
0
 10
-99.451
 20
-44.9297
 11
-97.7418
 21
-42.2365
  0
LINE
  8
0
 10
-97.7418
 20
-42.2365
 11
-96.3837
 21
-39.3504
  0
LINE
  8
0
 10
-96.3837
 20
-39.3504
 11
-95.398
 21
-36.3167
  0
LINE
  8
0
 10
-95.398
 20
-36.3167
 11
-94.8003
 21
-33.1835
  0
LINE
  8
0
 10
-94.8003
 20
-33.1835
 11
-94.6
 21
-30
  0
LINE
  8
0
 10
-94.6
 20
-30
 11
-94.8003
 21
-26.8165
  0
LINE
  8
0
 10
-94.8003
 20
-26.8165
 11
-95.398
 21
-23.6833
  0
LINE
  8
0
 10
-95.398
 20
-23.6833
 11
-96.3837
 21
-20.6496
  0
LINE
  8
0
 10
-96.3837
 20
-20.6496
 11
-97.7418
 21
-17.7634
  0
LINE
  8
0
 10
-97.7418
 20
-17.7634
 11
-99.451
 21
-15.0703
  0
LINE
  8
0
 10
-99.451
 20
-15.0703
 11
-101.484
 21
-12.6125
  0
LINE
  8
0
 10
-101.484
 20
-12.6125
 11
-103.809
 21
-10.429
  0
LINE
  8
0
 10
-103.809
 20
-10.429
 11
-106.39
 21
-8.55406
  0
LINE
  8
0
 10
-106.39
 20
-8.55406
 11
-109.185
 21
-7.01738
  0
LINE
  8
0
 10
-109.185
 20
-7.01738
 11
-112.151
 21
-5.84315
  0
LINE
  8
0
 10
-112.151
 20
-5.84315
 11
-115.241
 21
-5.0499
  0
LINE
  8
0
 10
-115.241
 20
-5.0499
 11
-118.405
 21
-4.65012
  0
LINE
  8
0
 10
-118.405
 20
-4.65012
 11
-121.595
 21
-4.65012
  0
LINE
  8
0
 10
-121.595
 20
-4.65012
 11
-124.759
 21
-5.0499
  0
LINE
  8
0
 10
-124.759
 20
-5.0499
 11
-127.849
 21
-5.84315
  0
LINE
  8
0
 10
-127.849
 20
-5.84315
 11
-130.815
 21
-7.01738
  0
LINE
  8
0
 10
-130.815
 20
-7.01738
 11
-133.61
 21
-8.55406
  0
LINE
  8
0
 10
-133.61
 20
-8.55406
 11
-136.191
 21
-10.429
  0
LINE
  8
0
 10
-136.191
 20
-10.429
 11
-138.516
 21
-12.6125
  0
LINE
  8
0
 10
-138.516
 20
-12.6125
 11
-140.549
 21
-15.0703
  0
LINE
  8
0
 10
-140.549
 20
-15.0703
 11
-142.258
 21
-17.7634
  0
LINE
  8
0
 10
-142.258
 20
-17.7634
 11
-143.616
 21
-20.6496
  0
LINE
  8
0
 10
-143.616
 20
-20.6496
 11
-144.602
 21
-23.6833
  0
LINE
  8
0
 10
-144.602
 20
-23.6833
 11
-145.2
 21
-26.8165
  0
LINE
  8
0
 10
-145.2
 20
-26.8165
 11
-145.4
 21
-30
  0
LINE
  8
0
 10
-145.4
 20
-30
 11
-145.2
 21
-33.1835
  0
LINE
  8
0
 10
-145.2
 20
-33.1835
 11
-144.602
 21
-36.3167
  0
LINE
  8
0
 10
-144.602
 20
-36.3167
 11
-143.616
 21
-39.3504
  0
LINE
  8
0
 10
-143.616
 20
-39.3504
 11
-142.258
 21
-42.2365
  0
LINE
  8
0
 10
-142.258
 20
-42.2365
 11
-140.549
 21
-44.9297
  0
LINE
  8
0
 10
-140.549
 20
-44.9297
 11
-138.516
 21
-47.3875
  0
LINE
  8
0
 10
-138.516
 20
-47.3875
 11
-136.191
 21
-49.571
  0
LINE
  8
0
 10
-136.191
 20
-49.571
 11
-133.61
 21
-51.4459
  0
LINE
  8
0
 10
-133.61
 20
-51.4459
 11
-130.815
 21
-52.9826
  0
LINE
  8
0
 10
-130.815
 20
-52.9826
 11
-127.849
 21
-54.1568
  0
LINE
  8
0
 10
-127.849
 20
-54.1568
 11
-124.759
 21
-54.9501
  0
LINE
  8
0
 10
-124.759
 20
-54.9501
 11
-121.595
 21
-55.3499
  0
LINE
  8
0
 10
-121.595
 20
-55.3499
 11
-118.405
 21
-55.3499
  0
LINE
  8
0
 10
-118.405
 20
-55.3499
 11
-115.241
 21
-54.9501
  0
LINE
  8
0
 10
-55.2405
 20
-54.9501
 11
-52.151
 21
-54.1568
  0
LINE
  8
0
 10
-52.151
 20
-54.1568
 11
-49.1852
 21
-52.9826
  0
LINE
  8
0
 10
-49.1852
 20
-52.9826
 11
-46.39
 21
-51.4459
  0
LINE
  8
0
 10
-46.39
 20
-51.4459
 11
-43.8094
 21
-49.571
  0
LINE
  8
0
 10
-43.8094
 20
-49.571
 11
-41.4842
 21
-47.3875
  0
LINE
  8
0
 10
-41.4842
 20
-47.3875
 11
-39.451
 21
-44.9297
  0
LINE
  8
0
 10
-39.451
 20
-44.9297
 11
-37.7418
 21
-42.2365
  0
LINE
  8
0
 10
-37.7418
 20
-42.2365
 11
-36.3837
 21
-39.3504
  0
LINE
  8
0
 10
-36.3837
 20
-39.3504
 11
-35.398
 21
-36.3167
  0
LINE
  8
0
 10
-35.398
 20
-36.3167
 11
-34.8003
 21
-33.1835
  0
LINE
  8
0
 10
-34.8003
 20
-33.1835
 11
-34.6
 21
-30
  0
LINE
  8
0
 10
-34.6
 20
-30
 11
-34.8003
 21
-26.8165
  0
LINE
  8
0
 10
-34.8003
 20
-26.8165
 11
-35.398
 21
-23.6833
  0
LINE
  8
0
 10
-35.398
 20
-23.6833
 11
-36.3837
 21
-20.6496
  0
LINE
  8
0
 10
-36.3837
 20
-20.6496
 11
-37.7418
 21
-17.7634
  0
LINE
  8
0
 10
-37.7418
 20
-17.7634
 11
-39.451
 21
-15.0703
  0
LINE
  8
0
 10
-39.451
 20
-15.0703
 11
-41.4842
 21
-12.6125
  0
LINE
  8
0
 10
-41.4842
 20
-12.6125
 11
-43.8094
 21
-10.429
  0
LINE
  8
0
 10
-43.8094
 20
-10.429
 11
-46.39
 21
-8.55406
  0
LINE
  8
0
 10
-46.39
 20
-8.55406
 11
-49.1852
 21
-7.01738
  0
LINE
  8
0
 10
-49.1852
 20
-7.01738
 11
-52.151
 21
-5.84315
  0
LINE
  8
0
 10
-52.151
 20
-5.84315
 11
-55.2405
 21
-5.0499
  0
LINE
  8
0
 10
-55.2405
 20
-5.0499
 11
-58.4051
 21
-4.65012
  0
LINE
  8
0
 10
-58.4051
 20
-4.65012
 11
-61.5949
 21
-4.65012
  0
LINE
  8
0
 10
-61.5949
 20
-4.65012
 11
-64.7595
 21
-5.0499
  0
LINE
  8
0
 10
-64.7595
 20
-5.0499
 11
-67.849
 21
-5.84315
  0
LINE
  8
0
 10
-67.849
 20
-5.84315
 11
-70.8148
 21
-7.01738
  0
LINE
  8
0
 10
-70.8148
 20
-7.01738
 11
-73.61
 21
-8.55406
  0
LINE
  8
0
 10
-73.61
 20
-8.55406
 11
-76.1906
 21
-10.429
  0
LINE
  8
0
 10
-76.1906
 20
-10.429
 11
-78.5158
 21
-12.6125
  0
LINE
  8
0
 10
-78.5158
 20
-12.6125
 11
-80.549
 21
-15.0703
  0
LINE
  8
0
 10
-80.549
 20
-15.0703
 11
-82.2582
 21
-17.7634
  0
LINE
  8
0
 10
-82.2582
 20
-17.7634
 11
-83.6163
 21
-20.6496
  0
LINE
  8
0
 10
-83.6163
 20
-20.6496
 11
-84.602
 21
-23.6833
  0
LINE
  8
0
 10
-84.602
 20
-23.6833
 11
-85.1997
 21
-26.8165
  0
LINE
  8
0
 10
-85.1997
 20
-26.8165
 11
-85.4
 21
-30
  0
LINE
  8
0
 10
-85.4
 20
-30
 11
-85.1997
 21
-33.1835
  0
LINE
  8
0
 10
-85.1997
 20
-33.1835
 11
-84.602
 21
-36.3167
  0
LINE
  8
0
 10
-84.602
 20
-36.3167
 11
-83.6163
 21
-39.3504
  0
LINE
  8
0
 10
-83.6163
 20
-39.3504
 11
-82.2582
 21
-42.2365
  0
LINE
  8
0
 10
-82.2582
 20
-42.2365
 11
-80.549
 21
-44.9297
  0
LINE
  8
0
 10
-80.549
 20
-44.9297
 11
-78.5158
 21
-47.3875
  0
LINE
  8
0
 10
-78.5158
 20
-47.3875
 11
-76.1906
 21
-49.571
  0
LINE
  8
0
 10
-76.1906
 20
-49.571
 11
-73.61
 21
-51.4459
  0
LINE
  8
0
 10
-73.61
 20
-51.4459
 11
-70.8148
 21
-52.9826
  0
LINE
  8
0
 10
-70.8148
 20
-52.9826
 11
-67.849
 21
-54.1568
  0
LINE
  8
0
 10
-67.849
 20
-54.1568
 11
-64.7595
 21
-54.9501
  0
LINE
  8
0
 10
-64.7595
 20
-54.9501
 11
-61.5949
 21
-55.3499
  0
LINE
  8
0
 10
-61.5949
 20
-55.3499
 11
-58.4051
 21
-55.3499
  0
LINE
  8
0
 10
-58.4051
 20
-55.3499
 11
-55.2405
 21
-54.9501
  0
LINE
  8
0
 10
-175.241
 20
-54.9501
 11
-172.151
 21
-54.1568
  0
LINE
  8
0
 10
-172.151
 20
-54.1568
 11
-169.185
 21
-52.9826
  0
LINE
  8
0
 10
-169.185
 20
-52.9826
 11
-166.39
 21
-51.4459
  0
LINE
  8
0
 10
-166.39
 20
-51.4459
 11
-163.809
 21
-49.571
  0
LINE
  8
0
 10
-163.809
 20
-49.571
 11
-161.484
 21
-47.3875
  0
LINE
  8
0
 10
-161.484
 20
-47.3875
 11
-159.451
 21
-44.9297
  0
LINE
  8
0
 10
-159.451
 20
-44.9297
 11
-157.742
 21
-42.2365
  0
LINE
  8
0
 10
-157.742
 20
-42.2365
 11
-156.384
 21
-39.3504
  0
LINE
  8
0
 10
-156.384
 20
-39.3504
 11
-155.398
 21
-36.3167
  0
LINE
  8
0
 10
-155.398
 20
-36.3167
 11
-154.8
 21
-33.1835
  0
LINE
  8
0
 10
-154.8
 20
-33.1835
 11
-154.6
 21
-30
  0
LINE
  8
0
 10
-154.6
 20
-30
 11
-154.8
 21
-26.8165
  0
LINE
  8
0
 10
-154.8
 20
-26.8165
 11
-155.398
 21
-23.6833
  0
LINE
  8
0
 10
-155.398
 20
-23.6833
 11
-156.384
 21
-20.6496
  0
LINE
  8
0
 10
-156.384
 20
-20.6496
 11
-157.742
 21
-17.7634
  0
LINE
  8
0
 10
-157.742
 20
-17.7634
 11
-159.451
 21
-15.0703
  0
LINE
  8
0
 10
-159.451
 20
-15.0703
 11
-161.484
 21
-12.6125
  0
LINE
  8
0
 10
-161.484
 20
-12.6125
 11
-163.809
 21
-10.429
  0
LINE
  8
0
 10
-163.809
 20
-10.429
 11
-166.39
 21
-8.55406
  0
LINE
  8
0
 10
-166.39
 20
-8.55406
 11
-169.185
 21
-7.01738
  0
LINE
  8
0
 10
-169.185
 20
-7.01738
 11
-172.151
 21
-5.84315
  0
LINE
  8
0
 10
-172.151
 20
-5.84315
 11
-175.241
 21
-5.0499
  0
LINE
  8
0
 10
-175.241
 20
-5.0499
 11
-178.405
 21
-4.65012
  0
LINE
  8
0
 10
-178.405
 20
-4.65012
 11
-181.595
 21
-4.65012
  0
LINE
  8
0
 10
-181.595
 20
-4.65012
 11
-184.759
 21
-5.0499
  0
LINE
  8
0
 10
-184.759
 20
-5.0499
 11
-187.849
 21
-5.84315
  0
LINE
  8
0
 10
-187.849
 20
-5.84315
 11
-190.815
 21
-7.01738
  0
LINE
  8
0
 10
-190.815
 20
-7.01738
 11
-193.61
 21
-8.55406
  0
LINE
  8
0
 10
-193.61
 20
-8.55406
 11
-196.191
 21
-10.429
  0
LINE
  8
0
 10
-196.191
 20
-10.429
 11
-198.516
 21
-12.6125
  0
LINE
  8
0
 10
-198.516
 20
-12.6125
 11
-200.549
 21
-15.0703
  0
LINE
  8
0
 10
-200.549
 20
-15.0703
 11
-202.258
 21
-17.7634
  0
LINE
  8
0
 10
-202.258
 20
-17.7634
 11
-203.616
 21
-20.6496
  0
LINE
  8
0
 10
-203.616
 20
-20.6496
 11
-204.602
 21
-23.6833
  0
LINE
  8
0
 10
-204.602
 20
-23.6833
 11
-205.2
 21
-26.8165
  0
LINE
  8
0
 10
-205.2
 20
-26.8165
 11
-205.4
 21
-30
  0
LINE
  8
0
 10
-205.4
 20
-30
 11
-205.2
 21
-33.1835
  0
LINE
  8
0
 10
-205.2
 20
-33.1835
 11
-204.602
 21
-36.3167
  0
LINE
  8
0
 10
-204.602
 20
-36.3167
 11
-203.616
 21
-39.3504
  0
LINE
  8
0
 10
-203.616
 20
-39.3504
 11
-202.258
 21
-42.2365
  0
LINE
  8
0
 10
-202.258
 20
-42.2365
 11
-200.549
 21
-44.9297
  0
LINE
  8
0
 10
-200.549
 20
-44.9297
 11
-198.516
 21
-47.3875
  0
LINE
  8
0
 10
-198.516
 20
-47.3875
 11
-196.191
 21
-49.571
  0
LINE
  8
0
 10
-196.191
 20
-49.571
 11
-193.61
 21
-51.4459
  0
LINE
  8
0
 10
-193.61
 20
-51.4459
 11
-190.815
 21
-52.9826
  0
LINE
  8
0
 10
-190.815
 20
-52.9826
 11
-187.849
 21
-54.1568
  0
LINE
  8
0
 10
-187.849
 20
-54.1568
 11
-184.759
 21
-54.9501
  0
LINE
  8
0
 10
-184.759
 20
-54.9501
 11
-181.595
 21
-55.3499
  0
LINE
  8
0
 10
-181.595
 20
-55.3499
 11
-178.405
 21
-55.3499
  0
LINE
  8
0
 10
-178.405
 20
-55.3499
 11
-175.241
 21
-54.9501
  0
LINE
  8
0
 10
-235.241
 20
-54.9501
 11
-232.151
 21
-54.1568
  0
LINE
  8
0
 10
-232.151
 20
-54.1568
 11
-229.185
 21
-52.9826
  0
LINE
  8
0
 10
-229.185
 20
-52.9826
 11
-226.39
 21
-51.4459
  0
LINE
  8
0
 10
-226.39
 20
-51.4459
 11
-223.809
 21
-49.571
  0
LINE
  8
0
 10
-223.809
 20
-49.571
 11
-221.484
 21
-47.3875
  0
LINE
  8
0
 10
-221.484
 20
-47.3875
 11
-219.451
 21
-44.9297
  0
LINE
  8
0
 10
-219.451
 20
-44.9297
 11
-217.742
 21
-42.2365
  0
LINE
  8
0
 10
-217.742
 20
-42.2365
 11
-216.384
 21
-39.3504
  0
LINE
  8
0
 10
-216.384
 20
-39.3504
 11
-215.398
 21
-36.3167
  0
LINE
  8
0
 10
-215.398
 20
-36.3167
 11
-214.8
 21
-33.1835
  0
LINE
  8
0
 10
-214.8
 20
-33.1835
 11
-214.6
 21
-30
  0
LINE
  8
0
 10
-214.6
 20
-30
 11
-214.8
 21
-26.8165
  0
LINE
  8
0
 10
-214.8
 20
-26.8165
 11
-215.398
 21
-23.6833
  0
LINE
  8
0
 10
-215.398
 20
-23.6833
 11
-216.384
 21
-20.6496
  0
LINE
  8
0
 10
-216.384
 20
-20.6496
 11
-217.742
 21
-17.7634
  0
LINE
  8
0
 10
-217.742
 20
-17.7634
 11
-219.451
 21
-15.0703
  0
LINE
  8
0
 10
-219.451
 20
-15.0703
 11
-221.484
 21
-12.6125
  0
LINE
  8
0
 10
-221.484
 20
-12.6125
 11
-223.809
 21
-10.429
  0
LINE
  8
0
 10
-223.809
 20
-10.429
 11
-226.39
 21
-8.55406
  0
LINE
  8
0
 10
-226.39
 20
-8.55406
 11
-229.185
 21
-7.01738
  0
LINE
  8
0
 10
-229.185
 20
-7.01738
 11
-232.151
 21
-5.84315
  0
LINE
  8
0
 10
-232.151
 20
-5.84315
 11
-235.241
 21
-5.0499
  0
LINE
  8
0
 10
-235.241
 20
-5.0499
 11
-238.405
 21
-4.65012
  0
LINE
  8
0
 10
-238.405
 20
-4.65012
 11
-241.595
 21
-4.65012
  0
LINE
  8
0
 10
-241.595
 20
-4.65012
 11
-244.759
 21
-5.0499
  0
LINE
  8
0
 10
-244.759
 20
-5.0499
 11
-247.849
 21
-5.84315
  0
LINE
  8
0
 10
-247.849
 20
-5.84315
 11
-250.815
 21
-7.01738
  0
LINE
  8
0
 10
-250.815
 20
-7.01738
 11
-253.61
 21
-8.55406
  0
LINE
  8
0
 10
-253.61
 20
-8.55406
 11
-256.191
 21
-10.429
  0
LINE
  8
0
 10
-256.191
 20
-10.429
 11
-258.516
 21
-12.6125
  0
LINE
  8
0
 10
-258.516
 20
-12.6125
 11
-260.549
 21
-15.0703
  0
LINE
  8
0
 10
-260.549
 20
-15.0703
 11
-262.258
 21
-17.7634
  0
LINE
  8
0
 10
-262.258
 20
-17.7634
 11
-263.616
 21
-20.6496
  0
LINE
  8
0
 10
-263.616
 20
-20.6496
 11
-264.602
 21
-23.6833
  0
LINE
  8
0
 10
-264.602
 20
-23.6833
 11
-265.2
 21
-26.8165
  0
LINE
  8
0
 10
-265.2
 20
-26.8165
 11
-265.4
 21
-30
  0
LINE
  8
0
 10
-265.4
 20
-30
 11
-265.2
 21
-33.1835
  0
LINE
  8
0
 10
-265.2
 20
-33.1835
 11
-264.602
 21
-36.3167
  0
LINE
  8
0
 10
-264.602
 20
-36.3167
 11
-263.616
 21
-39.3504
  0
LINE
  8
0
 10
-263.616
 20
-39.3504
 11
-262.258
 21
-42.2365
  0
LINE
  8
0
 10
-262.258
 20
-42.2365
 11
-260.549
 21
-44.9297
  0
LINE
  8
0
 10
-260.549
 20
-44.9297
 11
-258.516
 21
-47.3875
  0
LINE
  8
0
 10
-258.516
 20
-47.3875
 11
-256.191
 21
-49.571
  0
LINE
  8
0
 10
-256.191
 20
-49.571
 11
-253.61
 21
-51.4459
  0
LINE
  8
0
 10
-253.61
 20
-51.4459
 11
-250.815
 21
-52.9826
  0
LINE
  8
0
 10
-250.815
 20
-52.9826
 11
-247.849
 21
-54.1568
  0
LINE
  8
0
 10
-247.849
 20
-54.1568
 11
-244.759
 21
-54.9501
  0
LINE
  8
0
 10
-244.759
 20
-54.9501
 11
-241.595
 21
-55.3499
  0
LINE
  8
0
 10
-241.595
 20
-55.3499
 11
-238.405
 21
-55.3499
  0
LINE
  8
0
 10
-238.405
 20
-55.3499
 11
-235.241
 21
-54.9501
  0
LINE
  8
0
 10
64.7595
 20
-54.9501
 11
67.849
 21
-54.1568
  0
LINE
  8
0
 10
67.849
 20
-54.1568
 11
70.8148
 21
-52.9826
  0
LINE
  8
0
 10
70.8148
 20
-52.9826
 11
73.61
 21
-51.4459
  0
LINE
  8
0
 10
73.61
 20
-51.4459
 11
76.1906
 21
-49.571
  0
LINE
  8
0
 10
76.1906
 20
-49.571
 11
78.5158
 21
-47.3875
  0
LINE
  8
0
 10
78.5158
 20
-47.3875
 11
80.549
 21
-44.9297
  0
LINE
  8
0
 10
80.549
 20
-44.9297
 11
82.2582
 21
-42.2365
  0
LINE
  8
0
 10
82.2582
 20
-42.2365
 11
83.6163
 21
-39.3504
  0
LINE
  8
0
 10
83.6163
 20
-39.3504
 11
84.602
 21
-36.3167
  0
LINE
  8
0
 10
84.602
 20
-36.3167
 11
85.1997
 21
-33.1835
  0
LINE
  8
0
 10
85.1997
 20
-33.1835
 11
85.4
 21
-30
  0
LINE
  8
0
 10
85.4
 20
-30
 11
85.1997
 21
-26.8165
  0
LINE
  8
0
 10
85.1997
 20
-26.8165
 11
84.602
 21
-23.6833
  0
LINE
  8
0
 10
84.602
 20
-23.6833
 11
83.6163
 21
-20.6496
  0
LINE
  8
0
 10
83.6163
 20
-20.6496
 11
82.2582
 21
-17.7634
  0
LINE
  8
0
 10
82.2582
 20
-17.7634
 11
80.549
 21
-15.0703
  0
LINE
  8
0
 10
80.549
 20
-15.0703
 11
78.5158
 21
-12.6125
  0
LINE
  8
0
 10
78.5158
 20
-12.6125
 11
76.1906
 21
-10.429
  0
LINE
  8
0
 10
76.1906
 20
-10.429
 11
73.61
 21
-8.55406
  0
LINE
  8
0
 10
73.61
 20
-8.55406
 11
70.8148
 21
-7.01738
  0
LINE
  8
0
 10
70.8148
 20
-7.01738
 11
67.849
 21
-5.84315
  0
LINE
  8
0
 10
67.849
 20
-5.84315
 11
64.7595
 21
-5.0499
  0
LINE
  8
0
 10
64.7595
 20
-5.0499
 11
61.5949
 21
-4.65012
  0
LINE
  8
0
 10
61.5949
 20
-4.65012
 11
58.4051
 21
-4.65012
  0
LINE
  8
0
 10
58.4051
 20
-4.65012
 11
55.2405
 21
-5.0499
  0
LINE
  8
0
 10
55.2405
 20
-5.0499
 11
52.151
 21
-5.84315
  0
LINE
  8
0
 10
52.151
 20
-5.84315
 11
49.1852
 21
-7.01738
  0
LINE
  8
0
 10
49.1852
 20
-7.01738
 11
46.39
 21
-8.55406
  0
LINE
  8
0
 10
46.39
 20
-8.55406
 11
43.8094
 21
-10.429
  0
LINE
  8
0
 10
43.8094
 20
-10.429
 11
41.4842
 21
-12.6125
  0
LINE
  8
0
 10
41.4842
 20
-12.6125
 11
39.451
 21
-15.0703
  0
LINE
  8
0
 10
39.451
 20
-15.0703
 11
37.7418
 21
-17.7634
  0
LINE
  8
0
 10
37.7418
 20
-17.7634
 11
36.3837
 21
-20.6496
  0
LINE
  8
0
 10
36.3837
 20
-20.6496
 11
35.398
 21
-23.6833
  0
LINE
  8
0
 10
35.398
 20
-23.6833
 11
34.8003
 21
-26.8165
  0
LINE
  8
0
 10
34.8003
 20
-26.8165
 11
34.6
 21
-30
  0
LINE
  8
0
 10
34.6
 20
-30
 11
34.8003
 21
-33.1835
  0
LINE
  8
0
 10
34.8003
 20
-33.1835
 11
35.398
 21
-36.3167
  0
LINE
  8
0
 10
35.398
 20
-36.3167
 11
36.3837
 21
-39.3504
  0
LINE
  8
0
 10
36.3837
 20
-39.3504
 11
37.7418
 21
-42.2365
  0
LINE
  8
0
 10
37.7418
 20
-42.2365
 11
39.451
 21
-44.9297
  0
LINE
  8
0
 10
39.451
 20
-44.9297
 11
41.4842
 21
-47.3875
  0
LINE
  8
0
 10
41.4842
 20
-47.3875
 11
43.8094
 21
-49.571
  0
LINE
  8
0
 10
43.8094
 20
-49.571
 11
46.39
 21
-51.4459
  0
LINE
  8
0
 10
46.39
 20
-51.4459
 11
49.1852
 21
-52.9826
  0
LINE
  8
0
 10
49.1852
 20
-52.9826
 11
52.151
 21
-54.1568
  0
LINE
  8
0
 10
52.151
 20
-54.1568
 11
55.2405
 21
-54.9501
  0
LINE
  8
0
 10
55.2405
 20
-54.9501
 11
58.4051
 21
-55.3499
  0
LINE
  8
0
 10
58.4051
 20
-55.3499
 11
61.5949
 21
-55.3499
  0
LINE
  8
0
 10
61.5949
 20
-55.3499
 11
64.7595
 21
-54.9501
  0
LINE
  8
0
 10
244.759
 20
-54.9501
 11
247.849
 21
-54.1568
  0
LINE
  8
0
 10
247.849
 20
-54.1568
 11
250.815
 21
-52.9826
  0
LINE
  8
0
 10
250.815
 20
-52.9826
 11
253.61
 21
-51.4459
  0
LINE
  8
0
 10
253.61
 20
-51.4459
 11
256.191
 21
-49.571
  0
LINE
  8
0
 10
256.191
 20
-49.571
 11
258.516
 21
-47.3875
  0
LINE
  8
0
 10
258.516
 20
-47.3875
 11
260.549
 21
-44.9297
  0
LINE
  8
0
 10
260.549
 20
-44.9297
 11
262.258
 21
-42.2365
  0
LINE
  8
0
 10
262.258
 20
-42.2365
 11
263.616
 21
-39.3504
  0
LINE
  8
0
 10
263.616
 20
-39.3504
 11
264.602
 21
-36.3167
  0
LINE
  8
0
 10
264.602
 20
-36.3167
 11
265.2
 21
-33.1835
  0
LINE
  8
0
 10
265.2
 20
-33.1835
 11
265.4
 21
-30
  0
LINE
  8
0
 10
265.4
 20
-30
 11
265.2
 21
-26.8165
  0
LINE
  8
0
 10
265.2
 20
-26.8165
 11
264.602
 21
-23.6833
  0
LINE
  8
0
 10
264.602
 20
-23.6833
 11
263.616
 21
-20.6496
  0
LINE
  8
0
 10
263.616
 20
-20.6496
 11
262.258
 21
-17.7634
  0
LINE
  8
0
 10
262.258
 20
-17.7634
 11
260.549
 21
-15.0703
  0
LINE
  8
0
 10
260.549
 20
-15.0703
 11
258.516
 21
-12.6125
  0
LINE
  8
0
 10
258.516
 20
-12.6125
 11
256.191
 21
-10.429
  0
LINE
  8
0
 10
256.191
 20
-10.429
 11
253.61
 21
-8.55406
  0
LINE
  8
0
 10
253.61
 20
-8.55406
 11
250.815
 21
-7.01738
  0
LINE
  8
0
 10
250.815
 20
-7.01738
 11
247.849
 21
-5.84315
  0
LINE
  8
0
 10
247.849
 20
-5.84315
 11
244.759
 21
-5.0499
  0
LINE
  8
0
 10
244.759
 20
-5.0499
 11
241.595
 21
-4.65012
  0
LINE
  8
0
 10
241.595
 20
-4.65012
 11
238.405
 21
-4.65012
  0
LINE
  8
0
 10
238.405
 20
-4.65012
 11
235.241
 21
-5.0499
  0
LINE
  8
0
 10
235.241
 20
-5.0499
 11
232.151
 21
-5.84315
  0
LINE
  8
0
 10
232.151
 20
-5.84315
 11
229.185
 21
-7.01738
  0
LINE
  8
0
 10
229.185
 20
-7.01738
 11
226.39
 21
-8.55406
  0
LINE
  8
0
 10
226.39
 20
-8.55406
 11
223.809
 21
-10.429
  0
LINE
  8
0
 10
223.809
 20
-10.429
 11
221.484
 21
-12.6125
  0
LINE
  8
0
 10
221.484
 20
-12.6125
 11
219.451
 21
-15.0703
  0
LINE
  8
0
 10
219.451
 20
-15.0703
 11
217.742
 21
-17.7634
  0
LINE
  8
0
 10
217.742
 20
-17.7634
 11
216.384
 21
-20.6496
  0
LINE
  8
0
 10
216.384
 20
-20.6496
 11
215.398
 21
-23.6833
  0
LINE
  8
0
 10
215.398
 20
-23.6833
 11
214.8
 21
-26.8165
  0
LINE
  8
0
 10
214.8
 20
-26.8165
 11
214.6
 21
-30
  0
LINE
  8
0
 10
214.6
 20
-30
 11
214.8
 21
-33.1835
  0
LINE
  8
0
 10
214.8
 20
-33.1835
 11
215.398
 21
-36.3167
  0
LINE
  8
0
 10
215.398
 20
-36.3167
 11
216.384
 21
-39.3504
  0
LINE
  8
0
 10
216.384
 20
-39.3504
 11
217.742
 21
-42.2365
  0
LINE
  8
0
 10
217.742
 20
-42.2365
 11
219.451
 21
-44.9297
  0
LINE
  8
0
 10
219.451
 20
-44.9297
 11
221.484
 21
-47.3875
  0
LINE
  8
0
 10
221.484
 20
-47.3875
 11
223.809
 21
-49.571
  0
LINE
  8
0
 10
223.809
 20
-49.571
 11
226.39
 21
-51.4459
  0
LINE
  8
0
 10
226.39
 20
-51.4459
 11
229.185
 21
-52.9826
  0
LINE
  8
0
 10
229.185
 20
-52.9826
 11
232.151
 21
-54.1568
  0
LINE
  8
0
 10
232.151
 20
-54.1568
 11
235.241
 21
-54.9501
  0
LINE
  8
0
 10
235.241
 20
-54.9501
 11
238.405
 21
-55.3499
  0
LINE
  8
0
 10
238.405
 20
-55.3499
 11
241.595
 21
-55.3499
  0
LINE
  8
0
 10
241.595
 20
-55.3499
 11
244.759
 21
-54.9501
  0
LINE
  8
0
 10
124.759
 20
-54.9501
 11
127.849
 21
-54.1568
  0
LINE
  8
0
 10
127.849
 20
-54.1568
 11
130.815
 21
-52.9826
  0
LINE
  8
0
 10
130.815
 20
-52.9826
 11
133.61
 21
-51.4459
  0
LINE
  8
0
 10
133.61
 20
-51.4459
 11
136.191
 21
-49.571
  0
LINE
  8
0
 10
136.191
 20
-49.571
 11
138.516
 21
-47.3875
  0
LINE
  8
0
 10
138.516
 20
-47.3875
 11
140.549
 21
-44.9297
  0
LINE
  8
0
 10
140.549
 20
-44.9297
 11
142.258
 21
-42.2365
  0
LINE
  8
0
 10
142.258
 20
-42.2365
 11
143.616
 21
-39.3504
  0
LINE
  8
0
 10
143.616
 20
-39.3504
 11
144.602
 21
-36.3167
  0
LINE
  8
0
 10
144.602
 20
-36.3167
 11
145.2
 21
-33.1835
  0
LINE
  8
0
 10
145.2
 20
-33.1835
 11
145.4
 21
-30
  0
LINE
  8
0
 10
145.4
 20
-30
 11
145.2
 21
-26.8165
  0
LINE
  8
0
 10
145.2
 20
-26.8165
 11
144.602
 21
-23.6833
  0
LINE
  8
0
 10
144.602
 20
-23.6833
 11
143.616
 21
-20.6496
  0
LINE
  8
0
 10
143.616
 20
-20.6496
 11
142.258
 21
-17.7634
  0
LINE
  8
0
 10
142.258
 20
-17.7634
 11
140.549
 21
-15.0703
  0
LINE
  8
0
 10
140.549
 20
-15.0703
 11
138.516
 21
-12.6125
  0
LINE
  8
0
 10
138.516
 20
-12.6125
 11
136.191
 21
-10.429
  0
LINE
  8
0
 10
136.191
 20
-10.429
 11
133.61
 21
-8.55406
  0
LINE
  8
0
 10
133.61
 20
-8.55406
 11
130.815
 21
-7.01738
  0
LINE
  8
0
 10
130.815
 20
-7.01738
 11
127.849
 21
-5.84315
  0
LINE
  8
0
 10
127.849
 20
-5.84315
 11
124.759
 21
-5.0499
  0
LINE
  8
0
 10
124.759
 20
-5.0499
 11
121.595
 21
-4.65012
  0
LINE
  8
0
 10
121.595
 20
-4.65012
 11
118.405
 21
-4.65012
  0
LINE
  8
0
 10
118.405
 20
-4.65012
 11
115.241
 21
-5.0499
  0
LINE
  8
0
 10
115.241
 20
-5.0499
 11
112.151
 21
-5.84315
  0
LINE
  8
0
 10
112.151
 20
-5.84315
 11
109.185
 21
-7.01738
  0
LINE
  8
0
 10
109.185
 20
-7.01738
 11
106.39
 21
-8.55406
  0
LINE
  8
0
 10
106.39
 20
-8.55406
 11
103.809
 21
-10.429
  0
LINE
  8
0
 10
103.809
 20
-10.429
 11
101.484
 21
-12.6125
  0
LINE
  8
0
 10
101.484
 20
-12.6125
 11
99.451
 21
-15.0703
  0
LINE
  8
0
 10
99.451
 20
-15.0703
 11
97.7418
 21
-17.7634
  0
LINE
  8
0
 10
97.7418
 20
-17.7634
 11
96.3837
 21
-20.6496
  0
LINE
  8
0
 10
96.3837
 20
-20.6496
 11
95.398
 21
-23.6833
  0
LINE
  8
0
 10
95.398
 20
-23.6833
 11
94.8003
 21
-26.8165
  0
LINE
  8
0
 10
94.8003
 20
-26.8165
 11
94.6
 21
-30
  0
LINE
  8
0
 10
94.6
 20
-30
 11
94.8003
 21
-33.1835
  0
LINE
  8
0
 10
94.8003
 20
-33.1835
 11
95.398
 21
-36.3167
  0
LINE
  8
0
 10
95.398
 20
-36.3167
 11
96.3837
 21
-39.3504
  0
LINE
  8
0
 10
96.3837
 20
-39.3504
 11
97.7418
 21
-42.2365
  0
LINE
  8
0
 10
97.7418
 20
-42.2365
 11
99.451
 21
-44.9297
  0
LINE
  8
0
 10
99.451
 20
-44.9297
 11
101.484
 21
-47.3875
  0
LINE
  8
0
 10
101.484
 20
-47.3875
 11
103.809
 21
-49.571
  0
LINE
  8
0
 10
103.809
 20
-49.571
 11
106.39
 21
-51.4459
  0
LINE
  8
0
 10
106.39
 20
-51.4459
 11
109.185
 21
-52.9826
  0
LINE
  8
0
 10
109.185
 20
-52.9826
 11
112.151
 21
-54.1568
  0
LINE
  8
0
 10
112.151
 20
-54.1568
 11
115.241
 21
-54.9501
  0
LINE
  8
0
 10
115.241
 20
-54.9501
 11
118.405
 21
-55.3499
  0
LINE
  8
0
 10
118.405
 20
-55.3499
 11
121.595
 21
-55.3499
  0
LINE
  8
0
 10
121.595
 20
-55.3499
 11
124.759
 21
-54.9501
  0
LINE
  8
0
 10
184.759
 20
-54.9501
 11
187.849
 21
-54.1568
  0
LINE
  8
0
 10
187.849
 20
-54.1568
 11
190.815
 21
-52.9826
  0
LINE
  8
0
 10
190.815
 20
-52.9826
 11
193.61
 21
-51.4459
  0
LINE
  8
0
 10
193.61
 20
-51.4459
 11
196.191
 21
-49.571
  0
LINE
  8
0
 10
196.191
 20
-49.571
 11
198.516
 21
-47.3875
  0
LINE
  8
0
 10
198.516
 20
-47.3875
 11
200.549
 21
-44.9297
  0
LINE
  8
0
 10
200.549
 20
-44.9297
 11
202.258
 21
-42.2365
  0
LINE
  8
0
 10
202.258
 20
-42.2365
 11
203.616
 21
-39.3504
  0
LINE
  8
0
 10
203.616
 20
-39.3504
 11
204.602
 21
-36.3167
  0
LINE
  8
0
 10
204.602
 20
-36.3167
 11
205.2
 21
-33.1835
  0
LINE
  8
0
 10
205.2
 20
-33.1835
 11
205.4
 21
-30
  0
LINE
  8
0
 10
205.4
 20
-30
 11
205.2
 21
-26.8165
  0
LINE
  8
0
 10
205.2
 20
-26.8165
 11
204.602
 21
-23.6833
  0
LINE
  8
0
 10
204.602
 20
-23.6833
 11
203.616
 21
-20.6496
  0
LINE
  8
0
 10
203.616
 20
-20.6496
 11
202.258
 21
-17.7634
  0
LINE
  8
0
 10
202.258
 20
-17.7634
 11
200.549
 21
-15.0703
  0
LINE
  8
0
 10
200.549
 20
-15.0703
 11
198.516
 21
-12.6125
  0
LINE
  8
0
 10
198.516
 20
-12.6125
 11
196.191
 21
-10.429
  0
LINE
  8
0
 10
196.191
 20
-10.429
 11
193.61
 21
-8.55406
  0
LINE
  8
0
 10
193.61
 20
-8.55406
 11
190.815
 21
-7.01738
  0
LINE
  8
0
 10
190.815
 20
-7.01738
 11
187.849
 21
-5.84315
  0
LINE
  8
0
 10
187.849
 20
-5.84315
 11
184.759
 21
-5.0499
  0
LINE
  8
0
 10
184.759
 20
-5.0499
 11
181.595
 21
-4.65012
  0
LINE
  8
0
 10
181.595
 20
-4.65012
 11
178.405
 21
-4.65012
  0
LINE
  8
0
 10
178.405
 20
-4.65012
 11
175.241
 21
-5.0499
  0
LINE
  8
0
 10
175.241
 20
-5.0499
 11
172.151
 21
-5.84315
  0
LINE
  8
0
 10
172.151
 20
-5.84315
 11
169.185
 21
-7.01738
  0
LINE
  8
0
 10
169.185
 20
-7.01738
 11
166.39
 21
-8.55406
  0
LINE
  8
0
 10
166.39
 20
-8.55406
 11
163.809
 21
-10.429
  0
LINE
  8
0
 10
163.809
 20
-10.429
 11
161.484
 21
-12.6125
  0
LINE
  8
0
 10
161.484
 20
-12.6125
 11
159.451
 21
-15.0703
  0
LINE
  8
0
 10
159.451
 20
-15.0703
 11
157.742
 21
-17.7634
  0
LINE
  8
0
 10
157.742
 20
-17.7634
 11
156.384
 21
-20.6496
  0
LINE
  8
0
 10
156.384
 20
-20.6496
 11
155.398
 21
-23.6833
  0
LINE
  8
0
 10
155.398
 20
-23.6833
 11
154.8
 21
-26.8165
  0
LINE
  8
0
 10
154.8
 20
-26.8165
 11
154.6
 21
-30
  0
LINE
  8
0
 10
154.6
 20
-30
 11
154.8
 21
-33.1835
  0
LINE
  8
0
 10
154.8
 20
-33.1835
 11
155.398
 21
-36.3167
  0
LINE
  8
0
 10
155.398
 20
-36.3167
 11
156.384
 21
-39.3504
  0
LINE
  8
0
 10
156.384
 20
-39.3504
 11
157.742
 21
-42.2365
  0
LINE
  8
0
 10
157.742
 20
-42.2365
 11
159.451
 21
-44.9297
  0
LINE
  8
0
 10
159.451
 20
-44.9297
 11
161.484
 21
-47.3875
  0
LINE
  8
0
 10
161.484
 20
-47.3875
 11
163.809
 21
-49.571
  0
LINE
  8
0
 10
163.809
 20
-49.571
 11
166.39
 21
-51.4459
  0
LINE
  8
0
 10
166.39
 20
-51.4459
 11
169.185
 21
-52.9826
  0
LINE
  8
0
 10
169.185
 20
-52.9826
 11
172.151
 21
-54.1568
  0
LINE
  8
0
 10
172.151
 20
-54.1568
 11
175.241
 21
-54.9501
  0
LINE
  8
0
 10
175.241
 20
-54.9501
 11
178.405
 21
-55.3499
  0
LINE
  8
0
 10
178.405
 20
-55.3499
 11
181.595
 21
-55.3499
  0
LINE
  8
0
 10
181.595
 20
-55.3499
 11
184.759
 21
-54.9501
  0
LINE
  8
0
 10
-235.241
 20
-114.95
 11
-232.151
 21
-114.157
  0
LINE
  8
0
 10
-232.151
 20
-114.157
 11
-229.185
 21
-112.983
  0
LINE
  8
0
 10
-229.185
 20
-112.983
 11
-226.39
 21
-111.446
  0
LINE
  8
0
 10
-226.39
 20
-111.446
 11
-223.809
 21
-109.571
  0
LINE
  8
0
 10
-223.809
 20
-109.571
 11
-221.484
 21
-107.387
  0
LINE
  8
0
 10
-221.484
 20
-107.387
 11
-219.451
 21
-104.93
  0
LINE
  8
0
 10
-219.451
 20
-104.93
 11
-217.742
 21
-102.237
  0
LINE
  8
0
 10
-217.742
 20
-102.237
 11
-216.384
 21
-99.3504
  0
LINE
  8
0
 10
-216.384
 20
-99.3504
 11
-215.398
 21
-96.3167
  0
LINE
  8
0
 10
-215.398
 20
-96.3167
 11
-214.8
 21
-93.1835
  0
LINE
  8
0
 10
-214.8
 20
-93.1835
 11
-214.6
 21
-90
  0
LINE
  8
0
 10
-214.6
 20
-90
 11
-214.8
 21
-86.8165
  0
LINE
  8
0
 10
-214.8
 20
-86.8165
 11
-215.398
 21
-83.6833
  0
LINE
  8
0
 10
-215.398
 20
-83.6833
 11
-216.384
 21
-80.6496
  0
LINE
  8
0
 10
-216.384
 20
-80.6496
 11
-217.742
 21
-77.7634
  0
LINE
  8
0
 10
-217.742
 20
-77.7634
 11
-219.451
 21
-75.0703
  0
LINE
  8
0
 10
-219.451
 20
-75.0703
 11
-221.484
 21
-72.6125
  0
LINE
  8
0
 10
-221.484
 20
-72.6125
 11
-223.809
 21
-70.429
  0
LINE
  8
0
 10
-223.809
 20
-70.429
 11
-226.39
 21
-68.5541
  0
LINE
  8
0
 10
-226.39
 20
-68.5541
 11
-229.185
 21
-67.0174
  0
LINE
  8
0
 10
-229.185
 20
-67.0174
 11
-232.151
 21
-65.8432
  0
LINE
  8
0
 10
-232.151
 20
-65.8432
 11
-235.241
 21
-65.0499
  0
LINE
  8
0
 10
-235.241
 20
-65.0499
 11
-238.405
 21
-64.6501
  0
LINE
  8
0
 10
-238.405
 20
-64.6501
 11
-241.595
 21
-64.6501
  0
LINE
  8
0
 10
-241.595
 20
-64.6501
 11
-244.759
 21
-65.0499
  0
LINE
  8
0
 10
-244.759
 20
-65.0499
 11
-247.849
 21
-65.8432
  0
LINE
  8
0
 10
-247.849
 20
-65.8432
 11
-250.815
 21
-67.0174
  0
LINE
  8
0
 10
-250.815
 20
-67.0174
 11
-253.61
 21
-68.5541
  0
LINE
  8
0
 10
-253.61
 20
-68.5541
 11
-256.191
 21
-70.429
  0
LINE
  8
0
 10
-256.191
 20
-70.429
 11
-258.516
 21
-72.6125
  0
LINE
  8
0
 10
-258.516
 20
-72.6125
 11
-260.549
 21
-75.0703
  0
LINE
  8
0
 10
-260.549
 20
-75.0703
 11
-262.258
 21
-77.7634
  0
LINE
  8
0
 10
-262.258
 20
-77.7634
 11
-263.616
 21
-80.6496
  0
LINE
  8
0
 10
-263.616
 20
-80.6496
 11
-264.602
 21
-83.6833
  0
LINE
  8
0
 10
-264.602
 20
-83.6833
 11
-265.2
 21
-86.8165
  0
LINE
  8
0
 10
-265.2
 20
-86.8165
 11
-265.4
 21
-90
  0
LINE
  8
0
 10
-265.4
 20
-90
 11
-265.2
 21
-93.1835
  0
LINE
  8
0
 10
-265.2
 20
-93.1835
 11
-264.602
 21
-96.3167
  0
LINE
  8
0
 10
-264.602
 20
-96.3167
 11
-263.616
 21
-99.3504
  0
LINE
  8
0
 10
-263.616
 20
-99.3504
 11
-262.258
 21
-102.237
  0
LINE
  8
0
 10
-262.258
 20
-102.237
 11
-260.549
 21
-104.93
  0
LINE
  8
0
 10
-260.549
 20
-104.93
 11
-258.516
 21
-107.387
  0
LINE
  8
0
 10
-258.516
 20
-107.387
 11
-256.191
 21
-109.571
  0
LINE
  8
0
 10
-256.191
 20
-109.571
 11
-253.61
 21
-111.446
  0
LINE
  8
0
 10
-253.61
 20
-111.446
 11
-250.815
 21
-112.983
  0
LINE
  8
0
 10
-250.815
 20
-112.983
 11
-247.849
 21
-114.157
  0
LINE
  8
0
 10
-247.849
 20
-114.157
 11
-244.759
 21
-114.95
  0
LINE
  8
0
 10
-244.759
 20
-114.95
 11
-241.595
 21
-115.35
  0
LINE
  8
0
 10
-241.595
 20
-115.35
 11
-238.405
 21
-115.35
  0
LINE
  8
0
 10
-238.405
 20
-115.35
 11
-235.241
 21
-114.95
  0
LINE
  8
0
 10
64.7595
 20
-114.95
 11
67.849
 21
-114.157
  0
LINE
  8
0
 10
67.849
 20
-114.157
 11
70.8148
 21
-112.983
  0
LINE
  8
0
 10
70.8148
 20
-112.983
 11
73.61
 21
-111.446
  0
LINE
  8
0
 10
73.61
 20
-111.446
 11
76.1906
 21
-109.571
  0
LINE
  8
0
 10
76.1906
 20
-109.571
 11
78.5158
 21
-107.387
  0
LINE
  8
0
 10
78.5158
 20
-107.387
 11
80.549
 21
-104.93
  0
LINE
  8
0
 10
80.549
 20
-104.93
 11
82.2582
 21
-102.237
  0
LINE
  8
0
 10
82.2582
 20
-102.237
 11
83.6163
 21
-99.3504
  0
LINE
  8
0
 10
83.6163
 20
-99.3504
 11
84.602
 21
-96.3167
  0
LINE
  8
0
 10
84.602
 20
-96.3167
 11
85.1997
 21
-93.1835
  0
LINE
  8
0
 10
85.1997
 20
-93.1835
 11
85.4
 21
-90
  0
LINE
  8
0
 10
85.4
 20
-90
 11
85.1997
 21
-86.8165
  0
LINE
  8
0
 10
85.1997
 20
-86.8165
 11
84.602
 21
-83.6833
  0
LINE
  8
0
 10
84.602
 20
-83.6833
 11
83.6163
 21
-80.6496
  0
LINE
  8
0
 10
83.6163
 20
-80.6496
 11
82.2582
 21
-77.7634
  0
LINE
  8
0
 10
82.2582
 20
-77.7634
 11
80.549
 21
-75.0703
  0
LINE
  8
0
 10
80.549
 20
-75.0703
 11
78.5158
 21
-72.6125
  0
LINE
  8
0
 10
78.5158
 20
-72.6125
 11
76.1906
 21
-70.429
  0
LINE
  8
0
 10
76.1906
 20
-70.429
 11
73.61
 21
-68.5541
  0
LINE
  8
0
 10
73.61
 20
-68.5541
 11
70.8148
 21
-67.0174
  0
LINE
  8
0
 10
70.8148
 20
-67.0174
 11
67.849
 21
-65.8432
  0
LINE
  8
0
 10
67.849
 20
-65.8432
 11
64.7595
 21
-65.0499
  0
LINE
  8
0
 10
64.7595
 20
-65.0499
 11
61.5949
 21
-64.6501
  0
LINE
  8
0
 10
61.5949
 20
-64.6501
 11
58.4051
 21
-64.6501
  0
LINE
  8
0
 10
58.4051
 20
-64.6501
 11
55.2405
 21
-65.0499
  0
LINE
  8
0
 10
55.2405
 20
-65.0499
 11
52.151
 21
-65.8432
  0
LINE
  8
0
 10
52.151
 20
-65.8432
 11
49.1852
 21
-67.0174
  0
LINE
  8
0
 10
49.1852
 20
-67.0174
 11
46.39
 21
-68.5541
  0
LINE
  8
0
 10
46.39
 20
-68.5541
 11
43.8094
 21
-70.429
  0
LINE
  8
0
 10
43.8094
 20
-70.429
 11
41.4842
 21
-72.6125
  0
LINE
  8
0
 10
41.4842
 20
-72.6125
 11
39.451
 21
-75.0703
  0
LINE
  8
0
 10
39.451
 20
-75.0703
 11
37.7418
 21
-77.7634
  0
LINE
  8
0
 10
37.7418
 20
-77.7634
 11
36.3837
 21
-80.6496
  0
LINE
  8
0
 10
36.3837
 20
-80.6496
 11
35.398
 21
-83.6833
  0
LINE
  8
0
 10
35.398
 20
-83.6833
 11
34.8003
 21
-86.8165
  0
LINE
  8
0
 10
34.8003
 20
-86.8165
 11
34.6
 21
-90
  0
LINE
  8
0
 10
34.6
 20
-90
 11
34.8003
 21
-93.1835
  0
LINE
  8
0
 10
34.8003
 20
-93.1835
 11
35.398
 21
-96.3167
  0
LINE
  8
0
 10
35.398
 20
-96.3167
 11
36.3837
 21
-99.3504
  0
LINE
  8
0
 10
36.3837
 20
-99.3504
 11
37.7418
 21
-102.237
  0
LINE
  8
0
 10
37.7418
 20
-102.237
 11
39.451
 21
-104.93
  0
LINE
  8
0
 10
39.451
 20
-104.93
 11
41.4842
 21
-107.387
  0
LINE
  8
0
 10
41.4842
 20
-107.387
 11
43.8094
 21
-109.571
  0
LINE
  8
0
 10
43.8094
 20
-109.571
 11
46.39
 21
-111.446
  0
LINE
  8
0
 10
46.39
 20
-111.446
 11
49.1852
 21
-112.983
  0
LINE
  8
0
 10
49.1852
 20
-112.983
 11
52.151
 21
-114.157
  0
LINE
  8
0
 10
52.151
 20
-114.157
 11
55.2405
 21
-114.95
  0
LINE
  8
0
 10
55.2405
 20
-114.95
 11
58.4051
 21
-115.35
  0
LINE
  8
0
 10
58.4051
 20
-115.35
 11
61.5949
 21
-115.35
  0
LINE
  8
0
 10
61.5949
 20
-115.35
 11
64.7595
 21
-114.95
  0
LINE
  8
0
 10
-55.2405
 20
-114.95
 11
-52.151
 21
-114.157
  0
LINE
  8
0
 10
-52.151
 20
-114.157
 11
-49.1852
 21
-112.983
  0
LINE
  8
0
 10
-49.1852
 20
-112.983
 11
-46.39
 21
-111.446
  0
LINE
  8
0
 10
-46.39
 20
-111.446
 11
-43.8094
 21
-109.571
  0
LINE
  8
0
 10
-43.8094
 20
-109.571
 11
-41.4842
 21
-107.387
  0
LINE
  8
0
 10
-41.4842
 20
-107.387
 11
-39.451
 21
-104.93
  0
LINE
  8
0
 10
-39.451
 20
-104.93
 11
-37.7418
 21
-102.237
  0
LINE
  8
0
 10
-37.7418
 20
-102.237
 11
-36.3837
 21
-99.3504
  0
LINE
  8
0
 10
-36.3837
 20
-99.3504
 11
-35.398
 21
-96.3167
  0
LINE
  8
0
 10
-35.398
 20
-96.3167
 11
-34.8003
 21
-93.1835
  0
LINE
  8
0
 10
-34.8003
 20
-93.1835
 11
-34.6
 21
-90
  0
LINE
  8
0
 10
-34.6
 20
-90
 11
-34.8003
 21
-86.8165
  0
LINE
  8
0
 10
-34.8003
 20
-86.8165
 11
-35.398
 21
-83.6833
  0
LINE
  8
0
 10
-35.398
 20
-83.6833
 11
-36.3837
 21
-80.6496
  0
LINE
  8
0
 10
-36.3837
 20
-80.6496
 11
-37.7418
 21
-77.7634
  0
LINE
  8
0
 10
-37.7418
 20
-77.7634
 11
-39.451
 21
-75.0703
  0
LINE
  8
0
 10
-39.451
 20
-75.0703
 11
-41.4842
 21
-72.6125
  0
LINE
  8
0
 10
-41.4842
 20
-72.6125
 11
-43.8094
 21
-70.429
  0
LINE
  8
0
 10
-43.8094
 20
-70.429
 11
-46.39
 21
-68.5541
  0
LINE
  8
0
 10
-46.39
 20
-68.5541
 11
-49.1852
 21
-67.0174
  0
LINE
  8
0
 10
-49.1852
 20
-67.0174
 11
-52.151
 21
-65.8432
  0
LINE
  8
0
 10
-52.151
 20
-65.8432
 11
-55.2405
 21
-65.0499
  0
LINE
  8
0
 10
-55.2405
 20
-65.0499
 11
-58.4051
 21
-64.6501
  0
LINE
  8
0
 10
-58.4051
 20
-64.6501
 11
-61.5949
 21
-64.6501
  0
LINE
  8
0
 10
-61.5949
 20
-64.6501
 11
-64.7595
 21
-65.0499
  0
LINE
  8
0
 10
-64.7595
 20
-65.0499
 11
-67.849
 21
-65.8432
  0
LINE
  8
0
 10
-67.849
 20
-65.8432
 11
-70.8148
 21
-67.0174
  0
LINE
  8
0
 10
-70.8148
 20
-67.0174
 11
-73.61
 21
-68.5541
  0
LINE
  8
0
 10
-73.61
 20
-68.5541
 11
-76.1906
 21
-70.429
  0
LINE
  8
0
 10
-76.1906
 20
-70.429
 11
-78.5158
 21
-72.6125
  0
LINE
  8
0
 10
-78.5158
 20
-72.6125
 11
-80.549
 21
-75.0703
  0
LINE
  8
0
 10
-80.549
 20
-75.0703
 11
-82.2582
 21
-77.7634
  0
LINE
  8
0
 10
-82.2582
 20
-77.7634
 11
-83.6163
 21
-80.6496
  0
LINE
  8
0
 10
-83.6163
 20
-80.6496
 11
-84.602
 21
-83.6833
  0
LINE
  8
0
 10
-84.602
 20
-83.6833
 11
-85.1997
 21
-86.8165
  0
LINE
  8
0
 10
-85.1997
 20
-86.8165
 11
-85.4
 21
-90
  0
LINE
  8
0
 10
-85.4
 20
-90
 11
-85.1997
 21
-93.1835
  0
LINE
  8
0
 10
-85.1997
 20
-93.1835
 11
-84.602
 21
-96.3167
  0
LINE
  8
0
 10
-84.602
 20
-96.3167
 11
-83.6163
 21
-99.3504
  0
LINE
  8
0
 10
-83.6163
 20
-99.3504
 11
-82.2582
 21
-102.237
  0
LINE
  8
0
 10
-82.2582
 20
-102.237
 11
-80.549
 21
-104.93
  0
LINE
  8
0
 10
-80.549
 20
-104.93
 11
-78.5158
 21
-107.387
  0
LINE
  8
0
 10
-78.5158
 20
-107.387
 11
-76.1906
 21
-109.571
  0
LINE
  8
0
 10
-76.1906
 20
-109.571
 11
-73.61
 21
-111.446
  0
LINE
  8
0
 10
-73.61
 20
-111.446
 11
-70.8148
 21
-112.983
  0
LINE
  8
0
 10
-70.8148
 20
-112.983
 11
-67.849
 21
-114.157
  0
LINE
  8
0
 10
-67.849
 20
-114.157
 11
-64.7595
 21
-114.95
  0
LINE
  8
0
 10
-64.7595
 20
-114.95
 11
-61.5949
 21
-115.35
  0
LINE
  8
0
 10
-61.5949
 20
-115.35
 11
-58.4051
 21
-115.35
  0
LINE
  8
0
 10
-58.4051
 20
-115.35
 11
-55.2405
 21
-114.95
  0
LINE
  8
0
 10
124.759
 20
-114.95
 11
127.849
 21
-114.157
  0
LINE
  8
0
 10
127.849
 20
-114.157
 11
130.815
 21
-112.983
  0
LINE
  8
0
 10
130.815
 20
-112.983
 11
133.61
 21
-111.446
  0
LINE
  8
0
 10
133.61
 20
-111.446
 11
136.191
 21
-109.571
  0
LINE
  8
0
 10
136.191
 20
-109.571
 11
138.516
 21
-107.387
  0
LINE
  8
0
 10
138.516
 20
-107.387
 11
140.549
 21
-104.93
  0
LINE
  8
0
 10
140.549
 20
-104.93
 11
142.258
 21
-102.237
  0
LINE
  8
0
 10
142.258
 20
-102.237
 11
143.616
 21
-99.3504
  0
LINE
  8
0
 10
143.616
 20
-99.3504
 11
144.602
 21
-96.3167
  0
LINE
  8
0
 10
144.602
 20
-96.3167
 11
145.2
 21
-93.1835
  0
LINE
  8
0
 10
145.2
 20
-93.1835
 11
145.4
 21
-90
  0
LINE
  8
0
 10
145.4
 20
-90
 11
145.2
 21
-86.8165
  0
LINE
  8
0
 10
145.2
 20
-86.8165
 11
144.602
 21
-83.6833
  0
LINE
  8
0
 10
144.602
 20
-83.6833
 11
143.616
 21
-80.6496
  0
LINE
  8
0
 10
143.616
 20
-80.6496
 11
142.258
 21
-77.7634
  0
LINE
  8
0
 10
142.258
 20
-77.7634
 11
140.549
 21
-75.0703
  0
LINE
  8
0
 10
140.549
 20
-75.0703
 11
138.516
 21
-72.6125
  0
LINE
  8
0
 10
138.516
 20
-72.6125
 11
136.191
 21
-70.429
  0
LINE
  8
0
 10
136.191
 20
-70.429
 11
133.61
 21
-68.5541
  0
LINE
  8
0
 10
133.61
 20
-68.5541
 11
130.815
 21
-67.0174
  0
LINE
  8
0
 10
130.815
 20
-67.0174
 11
127.849
 21
-65.8432
  0
LINE
  8
0
 10
127.849
 20
-65.8432
 11
124.759
 21
-65.0499
  0
LINE
  8
0
 10
124.759
 20
-65.0499
 11
121.595
 21
-64.6501
  0
LINE
  8
0
 10
121.595
 20
-64.6501
 11
118.405
 21
-64.6501
  0
LINE
  8
0
 10
118.405
 20
-64.6501
 11
115.241
 21
-65.0499
  0
LINE
  8
0
 10
115.241
 20
-65.0499
 11
112.151
 21
-65.8432
  0
LINE
  8
0
 10
112.151
 20
-65.8432
 11
109.185
 21
-67.0174
  0
LINE
  8
0
 10
109.185
 20
-67.0174
 11
106.39
 21
-68.5541
  0
LINE
  8
0
 10
106.39
 20
-68.5541
 11
103.809
 21
-70.429
  0
LINE
  8
0
 10
103.809
 20
-70.429
 11
101.484
 21
-72.6125
  0
LINE
  8
0
 10
101.484
 20
-72.6125
 11
99.451
 21
-75.0703
  0
LINE
  8
0
 10
99.451
 20
-75.0703
 11
97.7418
 21
-77.7634
  0
LINE
  8
0
 10
97.7418
 20
-77.7634
 11
96.3837
 21
-80.6496
  0
LINE
  8
0
 10
96.3837
 20
-80.6496
 11
95.398
 21
-83.6833
  0
LINE
  8
0
 10
95.398
 20
-83.6833
 11
94.8003
 21
-86.8165
  0
LINE
  8
0
 10
94.8003
 20
-86.8165
 11
94.6
 21
-90
  0
LINE
  8
0
 10
94.6
 20
-90
 11
94.8003
 21
-93.1835
  0
LINE
  8
0
 10
94.8003
 20
-93.1835
 11
95.398
 21
-96.3167
  0
LINE
  8
0
 10
95.398
 20
-96.3167
 11
96.3837
 21
-99.3504
  0
LINE
  8
0
 10
96.3837
 20
-99.3504
 11
97.7418
 21
-102.237
  0
LINE
  8
0
 10
97.7418
 20
-102.237
 11
99.451
 21
-104.93
  0
LINE
  8
0
 10
99.451
 20
-104.93
 11
101.484
 21
-107.387
  0
LINE
  8
0
 10
101.484
 20
-107.387
 11
103.809
 21
-109.571
  0
LINE
  8
0
 10
103.809
 20
-109.571
 11
106.39
 21
-111.446
  0
LINE
  8
0
 10
106.39
 20
-111.446
 11
109.185
 21
-112.983
  0
LINE
  8
0
 10
109.185
 20
-112.983
 11
112.151
 21
-114.157
  0
LINE
  8
0
 10
112.151
 20
-114.157
 11
115.241
 21
-114.95
  0
LINE
  8
0
 10
115.241
 20
-114.95
 11
118.405
 21
-115.35
  0
LINE
  8
0
 10
118.405
 20
-115.35
 11
121.595
 21
-115.35
  0
LINE
  8
0
 10
121.595
 20
-115.35
 11
124.759
 21
-114.95
  0
LINE
  8
0
 10
-115.241
 20
-114.95
 11
-112.151
 21
-114.157
  0
LINE
  8
0
 10
-112.151
 20
-114.157
 11
-109.185
 21
-112.983
  0
LINE
  8
0
 10
-109.185
 20
-112.983
 11
-106.39
 21
-111.446
  0
LINE
  8
0
 10
-106.39
 20
-111.446
 11
-103.809
 21
-109.571
  0
LINE
  8
0
 10
-103.809
 20
-109.571
 11
-101.484
 21
-107.387
  0
LINE
  8
0
 10
-101.484
 20
-107.387
 11
-99.451
 21
-104.93
  0
LINE
  8
0
 10
-99.451
 20
-104.93
 11
-97.7418
 21
-102.237
  0
LINE
  8
0
 10
-97.7418
 20
-102.237
 11
-96.3837
 21
-99.3504
  0
LINE
  8
0
 10
-96.3837
 20
-99.3504
 11
-95.398
 21
-96.3167
  0
LINE
  8
0
 10
-95.398
 20
-96.3167
 11
-94.8003
 21
-93.1835
  0
LINE
  8
0
 10
-94.8003
 20
-93.1835
 11
-94.6
 21
-90
  0
LINE
  8
0
 10
-94.6
 20
-90
 11
-94.8003
 21
-86.8165
  0
LINE
  8
0
 10
-94.8003
 20
-86.8165
 11
-95.398
 21
-83.6833
  0
LINE
  8
0
 10
-95.398
 20
-83.6833
 11
-96.3837
 21
-80.6496
  0
LINE
  8
0
 10
-96.3837
 20
-80.6496
 11
-97.7418
 21
-77.7634
  0
LINE
  8
0
 10
-97.7418
 20
-77.7634
 11
-99.451
 21
-75.0703
  0
LINE
  8
0
 10
-99.451
 20
-75.0703
 11
-101.484
 21
-72.6125
  0
LINE
  8
0
 10
-101.484
 20
-72.6125
 11
-103.809
 21
-70.429
  0
LINE
  8
0
 10
-103.809
 20
-70.429
 11
-106.39
 21
-68.5541
  0
LINE
  8
0
 10
-106.39
 20
-68.5541
 11
-109.185
 21
-67.0174
  0
LINE
  8
0
 10
-109.185
 20
-67.0174
 11
-112.151
 21
-65.8432
  0
LINE
  8
0
 10
-112.151
 20
-65.8432
 11
-115.241
 21
-65.0499
  0
LINE
  8
0
 10
-115.241
 20
-65.0499
 11
-118.405
 21
-64.6501
  0
LINE
  8
0
 10
-118.405
 20
-64.6501
 11
-121.595
 21
-64.6501
  0
LINE
  8
0
 10
-121.595
 20
-64.6501
 11
-124.759
 21
-65.0499
  0
LINE
  8
0
 10
-124.759
 20
-65.0499
 11
-127.849
 21
-65.8432
  0
LINE
  8
0
 10
-127.849
 20
-65.8432
 11
-130.815
 21
-67.0174
  0
LINE
  8
0
 10
-130.815
 20
-67.0174
 11
-133.61
 21
-68.5541
  0
LINE
  8
0
 10
-133.61
 20
-68.5541
 11
-136.191
 21
-70.429
  0
LINE
  8
0
 10
-136.191
 20
-70.429
 11
-138.516
 21
-72.6125
  0
LINE
  8
0
 10
-138.516
 20
-72.6125
 11
-140.549
 21
-75.0703
  0
LINE
  8
0
 10
-140.549
 20
-75.0703
 11
-142.258
 21
-77.7634
  0
LINE
  8
0
 10
-142.258
 20
-77.7634
 11
-143.616
 21
-80.6496
  0
LINE
  8
0
 10
-143.616
 20
-80.6496
 11
-144.602
 21
-83.6833
  0
LINE
  8
0
 10
-144.602
 20
-83.6833
 11
-145.2
 21
-86.8165
  0
LINE
  8
0
 10
-145.2
 20
-86.8165
 11
-145.4
 21
-90
  0
LINE
  8
0
 10
-145.4
 20
-90
 11
-145.2
 21
-93.1835
  0
LINE
  8
0
 10
-145.2
 20
-93.1835
 11
-144.602
 21
-96.3167
  0
LINE
  8
0
 10
-144.602
 20
-96.3167
 11
-143.616
 21
-99.3504
  0
LINE
  8
0
 10
-143.616
 20
-99.3504
 11
-142.258
 21
-102.237
  0
LINE
  8
0
 10
-142.258
 20
-102.237
 11
-140.549
 21
-104.93
  0
LINE
  8
0
 10
-140.549
 20
-104.93
 11
-138.516
 21
-107.387
  0
LINE
  8
0
 10
-138.516
 20
-107.387
 11
-136.191
 21
-109.571
  0
LINE
  8
0
 10
-136.191
 20
-109.571
 11
-133.61
 21
-111.446
  0
LINE
  8
0
 10
-133.61
 20
-111.446
 11
-130.815
 21
-112.983
  0
LINE
  8
0
 10
-130.815
 20
-112.983
 11
-127.849
 21
-114.157
  0
LINE
  8
0
 10
-127.849
 20
-114.157
 11
-124.759
 21
-114.95
  0
LINE
  8
0
 10
-124.759
 20
-114.95
 11
-121.595
 21
-115.35
  0
LINE
  8
0
 10
-121.595
 20
-115.35
 11
-118.405
 21
-115.35
  0
LINE
  8
0
 10
-118.405
 20
-115.35
 11
-115.241
 21
-114.95
  0
LINE
  8
0
 10
-175.241
 20
-114.95
 11
-172.151
 21
-114.157
  0
LINE
  8
0
 10
-172.151
 20
-114.157
 11
-169.185
 21
-112.983
  0
LINE
  8
0
 10
-169.185
 20
-112.983
 11
-166.39
 21
-111.446
  0
LINE
  8
0
 10
-166.39
 20
-111.446
 11
-163.809
 21
-109.571
  0
LINE
  8
0
 10
-163.809
 20
-109.571
 11
-161.484
 21
-107.387
  0
LINE
  8
0
 10
-161.484
 20
-107.387
 11
-159.451
 21
-104.93
  0
LINE
  8
0
 10
-159.451
 20
-104.93
 11
-157.742
 21
-102.237
  0
LINE
  8
0
 10
-157.742
 20
-102.237
 11
-156.384
 21
-99.3504
  0
LINE
  8
0
 10
-156.384
 20
-99.3504
 11
-155.398
 21
-96.3167
  0
LINE
  8
0
 10
-155.398
 20
-96.3167
 11
-154.8
 21
-93.1835
  0
LINE
  8
0
 10
-154.8
 20
-93.1835
 11
-154.6
 21
-90
  0
LINE
  8
0
 10
-154.6
 20
-90
 11
-154.8
 21
-86.8165
  0
LINE
  8
0
 10
-154.8
 20
-86.8165
 11
-155.398
 21
-83.6833
  0
LINE
  8
0
 10
-155.398
 20
-83.6833
 11
-156.384
 21
-80.6496
  0
LINE
  8
0
 10
-156.384
 20
-80.6496
 11
-157.742
 21
-77.7634
  0
LINE
  8
0
 10
-157.742
 20
-77.7634
 11
-159.451
 21
-75.0703
  0
LINE
  8
0
 10
-159.451
 20
-75.0703
 11
-161.484
 21
-72.6125
  0
LINE
  8
0
 10
-161.484
 20
-72.6125
 11
-163.809
 21
-70.429
  0
LINE
  8
0
 10
-163.809
 20
-70.429
 11
-166.39
 21
-68.5541
  0
LINE
  8
0
 10
-166.39
 20
-68.5541
 11
-169.185
 21
-67.0174
  0
LINE
  8
0
 10
-169.185
 20
-67.0174
 11
-172.151
 21
-65.8432
  0
LINE
  8
0
 10
-172.151
 20
-65.8432
 11
-175.241
 21
-65.0499
  0
LINE
  8
0
 10
-175.241
 20
-65.0499
 11
-178.405
 21
-64.6501
  0
LINE
  8
0
 10
-178.405
 20
-64.6501
 11
-181.595
 21
-64.6501
  0
LINE
  8
0
 10
-181.595
 20
-64.6501
 11
-184.759
 21
-65.0499
  0
LINE
  8
0
 10
-184.759
 20
-65.0499
 11
-187.849
 21
-65.8432
  0
LINE
  8
0
 10
-187.849
 20
-65.8432
 11
-190.815
 21
-67.0174
  0
LINE
  8
0
 10
-190.815
 20
-67.0174
 11
-193.61
 21
-68.5541
  0
LINE
  8
0
 10
-193.61
 20
-68.5541
 11
-196.191
 21
-70.429
  0
LINE
  8
0
 10
-196.191
 20
-70.429
 11
-198.516
 21
-72.6125
  0
LINE
  8
0
 10
-198.516
 20
-72.6125
 11
-200.549
 21
-75.0703
  0
LINE
  8
0
 10
-200.549
 20
-75.0703
 11
-202.258
 21
-77.7634
  0
LINE
  8
0
 10
-202.258
 20
-77.7634
 11
-203.616
 21
-80.6496
  0
LINE
  8
0
 10
-203.616
 20
-80.6496
 11
-204.602
 21
-83.6833
  0
LINE
  8
0
 10
-204.602
 20
-83.6833
 11
-205.2
 21
-86.8165
  0
LINE
  8
0
 10
-205.2
 20
-86.8165
 11
-205.4
 21
-90
  0
LINE
  8
0
 10
-205.4
 20
-90
 11
-205.2
 21
-93.1835
  0
LINE
  8
0
 10
-205.2
 20
-93.1835
 11
-204.602
 21
-96.3167
  0
LINE
  8
0
 10
-204.602
 20
-96.3167
 11
-203.616
 21
-99.3504
  0
LINE
  8
0
 10
-203.616
 20
-99.3504
 11
-202.258
 21
-102.237
  0
LINE
  8
0
 10
-202.258
 20
-102.237
 11
-200.549
 21
-104.93
  0
LINE
  8
0
 10
-200.549
 20
-104.93
 11
-198.516
 21
-107.387
  0
LINE
  8
0
 10
-198.516
 20
-107.387
 11
-196.191
 21
-109.571
  0
LINE
  8
0
 10
-196.191
 20
-109.571
 11
-193.61
 21
-111.446
  0
LINE
  8
0
 10
-193.61
 20
-111.446
 11
-190.815
 21
-112.983
  0
LINE
  8
0
 10
-190.815
 20
-112.983
 11
-187.849
 21
-114.157
  0
LINE
  8
0
 10
-187.849
 20
-114.157
 11
-184.759
 21
-114.95
  0
LINE
  8
0
 10
-184.759
 20
-114.95
 11
-181.595
 21
-115.35
  0
LINE
  8
0
 10
-181.595
 20
-115.35
 11
-178.405
 21
-115.35
  0
LINE
  8
0
 10
-178.405
 20
-115.35
 11
-175.241
 21
-114.95
  0
LINE
  8
0
 10
184.759
 20
-114.95
 11
187.849
 21
-114.157
  0
LINE
  8
0
 10
187.849
 20
-114.157
 11
190.815
 21
-112.983
  0
LINE
  8
0
 10
190.815
 20
-112.983
 11
193.61
 21
-111.446
  0
LINE
  8
0
 10
193.61
 20
-111.446
 11
196.191
 21
-109.571
  0
LINE
  8
0
 10
196.191
 20
-109.571
 11
198.516
 21
-107.387
  0
LINE
  8
0
 10
198.516
 20
-107.387
 11
200.549
 21
-104.93
  0
LINE
  8
0
 10
200.549
 20
-104.93
 11
202.258
 21
-102.237
  0
LINE
  8
0
 10
202.258
 20
-102.237
 11
203.616
 21
-99.3504
  0
LINE
  8
0
 10
203.616
 20
-99.3504
 11
204.602
 21
-96.3167
  0
LINE
  8
0
 10
204.602
 20
-96.3167
 11
205.2
 21
-93.1835
  0
LINE
  8
0
 10
205.2
 20
-93.1835
 11
205.4
 21
-90
  0
LINE
  8
0
 10
205.4
 20
-90
 11
205.2
 21
-86.8165
  0
LINE
  8
0
 10
205.2
 20
-86.8165
 11
204.602
 21
-83.6833
  0
LINE
  8
0
 10
204.602
 20
-83.6833
 11
203.616
 21
-80.6496
  0
LINE
  8
0
 10
203.616
 20
-80.6496
 11
202.258
 21
-77.7634
  0
LINE
  8
0
 10
202.258
 20
-77.7634
 11
200.549
 21
-75.0703
  0
LINE
  8
0
 10
200.549
 20
-75.0703
 11
198.516
 21
-72.6125
  0
LINE
  8
0
 10
198.516
 20
-72.6125
 11
196.191
 21
-70.429
  0
LINE
  8
0
 10
196.191
 20
-70.429
 11
193.61
 21
-68.5541
  0
LINE
  8
0
 10
193.61
 20
-68.5541
 11
190.815
 21
-67.0174
  0
LINE
  8
0
 10
190.815
 20
-67.0174
 11
187.849
 21
-65.8432
  0
LINE
  8
0
 10
187.849
 20
-65.8432
 11
184.759
 21
-65.0499
  0
LINE
  8
0
 10
184.759
 20
-65.0499
 11
181.595
 21
-64.6501
  0
LINE
  8
0
 10
181.595
 20
-64.6501
 11
178.405
 21
-64.6501
  0
LINE
  8
0
 10
178.405
 20
-64.6501
 11
175.241
 21
-65.0499
  0
LINE
  8
0
 10
175.241
 20
-65.0499
 11
172.151
 21
-65.8432
  0
LINE
  8
0
 10
172.151
 20
-65.8432
 11
169.185
 21
-67.0174
  0
LINE
  8
0
 10
169.185
 20
-67.0174
 11
166.39
 21
-68.5541
  0
LINE
  8
0
 10
166.39
 20
-68.5541
 11
163.809
 21
-70.429
  0
LINE
  8
0
 10
163.809
 20
-70.429
 11
161.484
 21
-72.6125
  0
LINE
  8
0
 10
161.484
 20
-72.6125
 11
159.451
 21
-75.0703
  0
LINE
  8
0
 10
159.451
 20
-75.0703
 11
157.742
 21
-77.7634
  0
LINE
  8
0
 10
157.742
 20
-77.7634
 11
156.384
 21
-80.6496
  0
LINE
  8
0
 10
156.384
 20
-80.6496
 11
155.398
 21
-83.6833
  0
LINE
  8
0
 10
155.398
 20
-83.6833
 11
154.8
 21
-86.8165
  0
LINE
  8
0
 10
154.8
 20
-86.8165
 11
154.6
 21
-90
  0
LINE
  8
0
 10
154.6
 20
-90
 11
154.8
 21
-93.1835
  0
LINE
  8
0
 10
154.8
 20
-93.1835
 11
155.398
 21
-96.3167
  0
LINE
  8
0
 10
155.398
 20
-96.3167
 11
156.384
 21
-99.3504
  0
LINE
  8
0
 10
156.384
 20
-99.3504
 11
157.742
 21
-102.237
  0
LINE
  8
0
 10
157.742
 20
-102.237
 11
159.451
 21
-104.93
  0
LINE
  8
0
 10
159.451
 20
-104.93
 11
161.484
 21
-107.387
  0
LINE
  8
0
 10
161.484
 20
-107.387
 11
163.809
 21
-109.571
  0
LINE
  8
0
 10
163.809
 20
-109.571
 11
166.39
 21
-111.446
  0
LINE
  8
0
 10
166.39
 20
-111.446
 11
169.185
 21
-112.983
  0
LINE
  8
0
 10
169.185
 20
-112.983
 11
172.151
 21
-114.157
  0
LINE
  8
0
 10
172.151
 20
-114.157
 11
175.241
 21
-114.95
  0
LINE
  8
0
 10
175.241
 20
-114.95
 11
178.405
 21
-115.35
  0
LINE
  8
0
 10
178.405
 20
-115.35
 11
181.595
 21
-115.35
  0
LINE
  8
0
 10
181.595
 20
-115.35
 11
184.759
 21
-114.95
  0
LINE
  8
0
 10
244.759
 20
-114.95
 11
247.849
 21
-114.157
  0
LINE
  8
0
 10
247.849
 20
-114.157
 11
250.815
 21
-112.983
  0
LINE
  8
0
 10
250.815
 20
-112.983
 11
253.61
 21
-111.446
  0
LINE
  8
0
 10
253.61
 20
-111.446
 11
256.191
 21
-109.571
  0
LINE
  8
0
 10
256.191
 20
-109.571
 11
258.516
 21
-107.387
  0
LINE
  8
0
 10
258.516
 20
-107.387
 11
260.549
 21
-104.93
  0
LINE
  8
0
 10
260.549
 20
-104.93
 11
262.258
 21
-102.237
  0
LINE
  8
0
 10
262.258
 20
-102.237
 11
263.616
 21
-99.3504
  0
LINE
  8
0
 10
263.616
 20
-99.3504
 11
264.602
 21
-96.3167
  0
LINE
  8
0
 10
264.602
 20
-96.3167
 11
265.2
 21
-93.1835
  0
LINE
  8
0
 10
265.2
 20
-93.1835
 11
265.4
 21
-90
  0
LINE
  8
0
 10
265.4
 20
-90
 11
265.2
 21
-86.8165
  0
LINE
  8
0
 10
265.2
 20
-86.8165
 11
264.602
 21
-83.6833
  0
LINE
  8
0
 10
264.602
 20
-83.6833
 11
263.616
 21
-80.6496
  0
LINE
  8
0
 10
263.616
 20
-80.6496
 11
262.258
 21
-77.7634
  0
LINE
  8
0
 10
262.258
 20
-77.7634
 11
260.549
 21
-75.0703
  0
LINE
  8
0
 10
260.549
 20
-75.0703
 11
258.516
 21
-72.6125
  0
LINE
  8
0
 10
258.516
 20
-72.6125
 11
256.191
 21
-70.429
  0
LINE
  8
0
 10
256.191
 20
-70.429
 11
253.61
 21
-68.5541
  0
LINE
  8
0
 10
253.61
 20
-68.5541
 11
250.815
 21
-67.0174
  0
LINE
  8
0
 10
250.815
 20
-67.0174
 11
247.849
 21
-65.8432
  0
LINE
  8
0
 10
247.849
 20
-65.8432
 11
244.759
 21
-65.0499
  0
LINE
  8
0
 10
244.759
 20
-65.0499
 11
241.595
 21
-64.6501
  0
LINE
  8
0
 10
241.595
 20
-64.6501
 11
238.405
 21
-64.6501
  0
LINE
  8
0
 10
238.405
 20
-64.6501
 11
235.241
 21
-65.0499
  0
LINE
  8
0
 10
235.241
 20
-65.0499
 11
232.151
 21
-65.8432
  0
LINE
  8
0
 10
232.151
 20
-65.8432
 11
229.185
 21
-67.0174
  0
LINE
  8
0
 10
229.185
 20
-67.0174
 11
226.39
 21
-68.5541
  0
LINE
  8
0
 10
226.39
 20
-68.5541
 11
223.809
 21
-70.429
  0
LINE
  8
0
 10
223.809
 20
-70.429
 11
221.484
 21
-72.6125
  0
LINE
  8
0
 10
221.484
 20
-72.6125
 11
219.451
 21
-75.0703
  0
LINE
  8
0
 10
219.451
 20
-75.0703
 11
217.742
 21
-77.7634
  0
LINE
  8
0
 10
217.742
 20
-77.7634
 11
216.384
 21
-80.6496
  0
LINE
  8
0
 10
216.384
 20
-80.6496
 11
215.398
 21
-83.6833
  0
LINE
  8
0
 10
215.398
 20
-83.6833
 11
214.8
 21
-86.8165
  0
LINE
  8
0
 10
214.8
 20
-86.8165
 11
214.6
 21
-90
  0
LINE
  8
0
 10
214.6
 20
-90
 11
214.8
 21
-93.1835
  0
LINE
  8
0
 10
214.8
 20
-93.1835
 11
215.398
 21
-96.3167
  0
LINE
  8
0
 10
215.398
 20
-96.3167
 11
216.384
 21
-99.3504
  0
LINE
  8
0
 10
216.384
 20
-99.3504
 11
217.742
 21
-102.237
  0
LINE
  8
0
 10
217.742
 20
-102.237
 11
219.451
 21
-104.93
  0
LINE
  8
0
 10
219.451
 20
-104.93
 11
221.484
 21
-107.387
  0
LINE
  8
0
 10
221.484
 20
-107.387
 11
223.809
 21
-109.571
  0
LINE
  8
0
 10
223.809
 20
-109.571
 11
226.39
 21
-111.446
  0
LINE
  8
0
 10
226.39
 20
-111.446
 11
229.185
 21
-112.983
  0
LINE
  8
0
 10
229.185
 20
-112.983
 11
232.151
 21
-114.157
  0
LINE
  8
0
 10
232.151
 20
-114.157
 11
235.241
 21
-114.95
  0
LINE
  8
0
 10
235.241
 20
-114.95
 11
238.405
 21
-115.35
  0
LINE
  8
0
 10
238.405
 20
-115.35
 11
241.595
 21
-115.35
  0
LINE
  8
0
 10
241.595
 20
-115.35
 11
244.759
 21
-114.95
  0
LINE
  8
0
 10
4.75948
 20
-114.95
 11
7.84903
 21
-114.157
  0
LINE
  8
0
 10
7.84903
 20
-114.157
 11
10.8148
 21
-112.983
  0
LINE
  8
0
 10
10.8148
 20
-112.983
 11
13.61
 21
-111.446
  0
LINE
  8
0
 10
13.61
 20
-111.446
 11
16.1906
 21
-109.571
  0
LINE
  8
0
 10
16.1906
 20
-109.571
 11
18.5158
 21
-107.387
  0
LINE
  8
0
 10
18.5158
 20
-107.387
 11
20.549
 21
-104.93
  0
LINE
  8
0
 10
20.549
 20
-104.93
 11
22.2582
 21
-102.237
  0
LINE
  8
0
 10
22.2582
 20
-102.237
 11
23.6163
 21
-99.3504
  0
LINE
  8
0
 10
23.6163
 20
-99.3504
 11
24.602
 21
-96.3167
  0
LINE
  8
0
 10
24.602
 20
-96.3167
 11
25.1997
 21
-93.1835
  0
LINE
  8
0
 10
25.1997
 20
-93.1835
 11
25.4
 21
-90
  0
LINE
  8
0
 10
25.4
 20
-90
 11
25.1997
 21
-86.8165
  0
LINE
  8
0
 10
25.1997
 20
-86.8165
 11
24.602
 21
-83.6833
  0
LINE
  8
0
 10
24.602
 20
-83.6833
 11
23.6163
 21
-80.6496
  0
LINE
  8
0
 10
23.6163
 20
-80.6496
 11
22.2582
 21
-77.7634
  0
LINE
  8
0
 10
22.2582
 20
-77.7634
 11
20.549
 21
-75.0703
  0
LINE
  8
0
 10
20.549
 20
-75.0703
 11
18.5158
 21
-72.6125
  0
LINE
  8
0
 10
18.5158
 20
-72.6125
 11
16.1906
 21
-70.429
  0
LINE
  8
0
 10
16.1906
 20
-70.429
 11
13.61
 21
-68.5541
  0
LINE
  8
0
 10
13.61
 20
-68.5541
 11
10.8148
 21
-67.0174
  0
LINE
  8
0
 10
10.8148
 20
-67.0174
 11
7.84903
 21
-65.8432
  0
LINE
  8
0
 10
7.84903
 20
-65.8432
 11
4.75948
 21
-65.0499
  0
LINE
  8
0
 10
4.75948
 20
-65.0499
 11
1.59488
 21
-64.6501
  0
LINE
  8
0
 10
1.59488
 20
-64.6501
 11
-1.59488
 21
-64.6501
  0
LINE
  8
0
 10
-1.59488
 20
-64.6501
 11
-4.75948
 21
-65.0499
  0
LINE
  8
0
 10
-4.75948
 20
-65.0499
 11
-7.84903
 21
-65.8432
  0
LINE
  8
0
 10
-7.84903
 20
-65.8432
 11
-10.8148
 21
-67.0174
  0
LINE
  8
0
 10
-10.8148
 20
-67.0174
 11
-13.61
 21
-68.5541
  0
LINE
  8
0
 10
-13.61
 20
-68.5541
 11
-16.1906
 21
-70.429
  0
LINE
  8
0
 10
-16.1906
 20
-70.429
 11
-18.5158
 21
-72.6125
  0
LINE
  8
0
 10
-18.5158
 20
-72.6125
 11
-20.549
 21
-75.0703
  0
LINE
  8
0
 10
-20.549
 20
-75.0703
 11
-22.2582
 21
-77.7634
  0
LINE
  8
0
 10
-22.2582
 20
-77.7634
 11
-23.6163
 21
-80.6496
  0
LINE
  8
0
 10
-23.6163
 20
-80.6496
 11
-24.602
 21
-83.6833
  0
LINE
  8
0
 10
-24.602
 20
-83.6833
 11
-25.1997
 21
-86.8165
  0
LINE
  8
0
 10
-25.1997
 20
-86.8165
 11
-25.4
 21
-90
  0
LINE
  8
0
 10
-25.4
 20
-90
 11
-25.1997
 21
-93.1835
  0
LINE
  8
0
 10
-25.1997
 20
-93.1835
 11
-24.602
 21
-96.3167
  0
LINE
  8
0
 10
-24.602
 20
-96.3167
 11
-23.6163
 21
-99.3504
  0
LINE
  8
0
 10
-23.6163
 20
-99.3504
 11
-22.2582
 21
-102.237
  0
LINE
  8
0
 10
-22.2582
 20
-102.237
 11
-20.549
 21
-104.93
  0
LINE
  8
0
 10
-20.549
 20
-104.93
 11
-18.5158
 21
-107.387
  0
LINE
  8
0
 10
-18.5158
 20
-107.387
 11
-16.1906
 21
-109.571
  0
LINE
  8
0
 10
-16.1906
 20
-109.571
 11
-13.61
 21
-111.446
  0
LINE
  8
0
 10
-13.61
 20
-111.446
 11
-10.8148
 21
-112.983
  0
LINE
  8
0
 10
-10.8148
 20
-112.983
 11
-7.84903
 21
-114.157
  0
LINE
  8
0
 10
-7.84903
 20
-114.157
 11
-4.75948
 21
-114.95
  0
LINE
  8
0
 10
-4.75948
 20
-114.95
 11
-1.59488
 21
-115.35
  0
LINE
  8
0
 10
-1.59488
 20
-115.35
 11
1.59488
 21
-115.35
  0
LINE
  8
0
 10
1.59488
 20
-115.35
 11
4.75948
 21
-114.95
  0
LINE
  8
0
 10
124.759
 20
-174.95
 11
127.849
 21
-174.157
  0
LINE
  8
0
 10
127.849
 20
-174.157
 11
130.815
 21
-172.983
  0
LINE
  8
0
 10
130.815
 20
-172.983
 11
133.61
 21
-171.446
  0
LINE
  8
0
 10
133.61
 20
-171.446
 11
136.191
 21
-169.571
  0
LINE
  8
0
 10
136.191
 20
-169.571
 11
138.516
 21
-167.387
  0
LINE
  8
0
 10
138.516
 20
-167.387
 11
140.549
 21
-164.93
  0
LINE
  8
0
 10
140.549
 20
-164.93
 11
142.258
 21
-162.237
  0
LINE
  8
0
 10
142.258
 20
-162.237
 11
143.616
 21
-159.35
  0
LINE
  8
0
 10
143.616
 20
-159.35
 11
144.602
 21
-156.317
  0
LINE
  8
0
 10
144.602
 20
-156.317
 11
145.2
 21
-153.183
  0
LINE
  8
0
 10
145.2
 20
-153.183
 11
145.4
 21
-150
  0
LINE
  8
0
 10
145.4
 20
-150
 11
145.2
 21
-146.817
  0
LINE
  8
0
 10
145.2
 20
-146.817
 11
144.602
 21
-143.683
  0
LINE
  8
0
 10
144.602
 20
-143.683
 11
143.616
 21
-140.65
  0
LINE
  8
0
 10
143.616
 20
-140.65
 11
142.258
 21
-137.763
  0
LINE
  8
0
 10
142.258
 20
-137.763
 11
140.549
 21
-135.07
  0
LINE
  8
0
 10
140.549
 20
-135.07
 11
138.516
 21
-132.613
  0
LINE
  8
0
 10
138.516
 20
-132.613
 11
136.191
 21
-130.429
  0
LINE
  8
0
 10
136.191
 20
-130.429
 11
133.61
 21
-128.554
  0
LINE
  8
0
 10
133.61
 20
-128.554
 11
130.815
 21
-127.017
  0
LINE
  8
0
 10
130.815
 20
-127.017
 11
127.849
 21
-125.843
  0
LINE
  8
0
 10
127.849
 20
-125.843
 11
124.759
 21
-125.05
  0
LINE
  8
0
 10
124.759
 20
-125.05
 11
121.595
 21
-124.65
  0
LINE
  8
0
 10
121.595
 20
-124.65
 11
118.405
 21
-124.65
  0
LINE
  8
0
 10
118.405
 20
-124.65
 11
115.241
 21
-125.05
  0
LINE
  8
0
 10
115.241
 20
-125.05
 11
112.151
 21
-125.843
  0
LINE
  8
0
 10
112.151
 20
-125.843
 11
109.185
 21
-127.017
  0
LINE
  8
0
 10
109.185
 20
-127.017
 11
106.39
 21
-128.554
  0
LINE
  8
0
 10
106.39
 20
-128.554
 11
103.809
 21
-130.429
  0
LINE
  8
0
 10
103.809
 20
-130.429
 11
101.484
 21
-132.613
  0
LINE
  8
0
 10
101.484
 20
-132.613
 11
99.451
 21
-135.07
  0
LINE
  8
0
 10
99.451
 20
-135.07
 11
97.7418
 21
-137.763
  0
LINE
  8
0
 10
97.7418
 20
-137.763
 11
96.3837
 21
-140.65
  0
LINE
  8
0
 10
96.3837
 20
-140.65
 11
95.398
 21
-143.683
  0
LINE
  8
0
 10
95.398
 20
-143.683
 11
94.8003
 21
-146.817
  0
LINE
  8
0
 10
94.8003
 20
-146.817
 11
94.6
 21
-150
  0
LINE
  8
0
 10
94.6
 20
-150
 11
94.8003
 21
-153.183
  0
LINE
  8
0
 10
94.8003
 20
-153.183
 11
95.398
 21
-156.317
  0
LINE
  8
0
 10
95.398
 20
-156.317
 11
96.3837
 21
-159.35
  0
LINE
  8
0
 10
96.3837
 20
-159.35
 11
97.7418
 21
-162.237
  0
LINE
  8
0
 10
97.7418
 20
-162.237
 11
99.451
 21
-164.93
  0
LINE
  8
0
 10
99.451
 20
-164.93
 11
101.484
 21
-167.387
  0
LINE
  8
0
 10
101.484
 20
-167.387
 11
103.809
 21
-169.571
  0
LINE
  8
0
 10
103.809
 20
-169.571
 11
106.39
 21
-171.446
  0
LINE
  8
0
 10
106.39
 20
-171.446
 11
109.185
 21
-172.983
  0
LINE
  8
0
 10
109.185
 20
-172.983
 11
112.151
 21
-174.157
  0
LINE
  8
0
 10
112.151
 20
-174.157
 11
115.241
 21
-174.95
  0
LINE
  8
0
 10
115.241
 20
-174.95
 11
118.405
 21
-175.35
  0
LINE
  8
0
 10
118.405
 20
-175.35
 11
121.595
 21
-175.35
  0
LINE
  8
0
 10
121.595
 20
-175.35
 11
124.759
 21
-174.95
  0
LINE
  8
0
 10
-175.241
 20
-174.95
 11
-172.151
 21
-174.157
  0
LINE
  8
0
 10
-172.151
 20
-174.157
 11
-169.185
 21
-172.983
  0
LINE
  8
0
 10
-169.185
 20
-172.983
 11
-166.39
 21
-171.446
  0
LINE
  8
0
 10
-166.39
 20
-171.446
 11
-163.809
 21
-169.571
  0
LINE
  8
0
 10
-163.809
 20
-169.571
 11
-161.484
 21
-167.387
  0
LINE
  8
0
 10
-161.484
 20
-167.387
 11
-159.451
 21
-164.93
  0
LINE
  8
0
 10
-159.451
 20
-164.93
 11
-157.742
 21
-162.237
  0
LINE
  8
0
 10
-157.742
 20
-162.237
 11
-156.384
 21
-159.35
  0
LINE
  8
0
 10
-156.384
 20
-159.35
 11
-155.398
 21
-156.317
  0
LINE
  8
0
 10
-155.398
 20
-156.317
 11
-154.8
 21
-153.183
  0
LINE
  8
0
 10
-154.8
 20
-153.183
 11
-154.6
 21
-150
  0
LINE
  8
0
 10
-154.6
 20
-150
 11
-154.8
 21
-146.817
  0
LINE
  8
0
 10
-154.8
 20
-146.817
 11
-155.398
 21
-143.683
  0
LINE
  8
0
 10
-155.398
 20
-143.683
 11
-156.384
 21
-140.65
  0
LINE
  8
0
 10
-156.384
 20
-140.65
 11
-157.742
 21
-137.763
  0
LINE
  8
0
 10
-157.742
 20
-137.763
 11
-159.451
 21
-135.07
  0
LINE
  8
0
 10
-159.451
 20
-135.07
 11
-161.484
 21
-132.613
  0
LINE
  8
0
 10
-161.484
 20
-132.613
 11
-163.809
 21
-130.429
  0
LINE
  8
0
 10
-163.809
 20
-130.429
 11
-166.39
 21
-128.554
  0
LINE
  8
0
 10
-166.39
 20
-128.554
 11
-169.185
 21
-127.017
  0
LINE
  8
0
 10
-169.185
 20
-127.017
 11
-172.151
 21
-125.843
  0
LINE
  8
0
 10
-172.151
 20
-125.843
 11
-175.241
 21
-125.05
  0
LINE
  8
0
 10
-175.241
 20
-125.05
 11
-178.405
 21
-124.65
  0
LINE
  8
0
 10
-178.405
 20
-124.65
 11
-181.595
 21
-124.65
  0
LINE
  8
0
 10
-181.595
 20
-124.65
 11
-184.759
 21
-125.05
  0
LINE
  8
0
 10
-184.759
 20
-125.05
 11
-187.849
 21
-125.843
  0
LINE
  8
0
 10
-187.849
 20
-125.843
 11
-190.815
 21
-127.017
  0
LINE
  8
0
 10
-190.815
 20
-127.017
 11
-193.61
 21
-128.554
  0
LINE
  8
0
 10
-193.61
 20
-128.554
 11
-196.191
 21
-130.429
  0
LINE
  8
0
 10
-196.191
 20
-130.429
 11
-198.516
 21
-132.613
  0
LINE
  8
0
 10
-198.516
 20
-132.613
 11
-200.549
 21
-135.07
  0
LINE
  8
0
 10
-200.549
 20
-135.07
 11
-202.258
 21
-137.763
  0
LINE
  8
0
 10
-202.258
 20
-137.763
 11
-203.616
 21
-140.65
  0
LINE
  8
0
 10
-203.616
 20
-140.65
 11
-204.602
 21
-143.683
  0
LINE
  8
0
 10
-204.602
 20
-143.683
 11
-205.2
 21
-146.817
  0
LINE
  8
0
 10
-205.2
 20
-146.817
 11
-205.4
 21
-150
  0
LINE
  8
0
 10
-205.4
 20
-150
 11
-205.2
 21
-153.183
  0
LINE
  8
0
 10
-205.2
 20
-153.183
 11
-204.602
 21
-156.317
  0
LINE
  8
0
 10
-204.602
 20
-156.317
 11
-203.616
 21
-159.35
  0
LINE
  8
0
 10
-203.616
 20
-159.35
 11
-202.258
 21
-162.237
  0
LINE
  8
0
 10
-202.258
 20
-162.237
 11
-200.549
 21
-164.93
  0
LINE
  8
0
 10
-200.549
 20
-164.93
 11
-198.516
 21
-167.387
  0
LINE
  8
0
 10
-198.516
 20
-167.387
 11
-196.191
 21
-169.571
  0
LINE
  8
0
 10
-196.191
 20
-169.571
 11
-193.61
 21
-171.446
  0
LINE
  8
0
 10
-193.61
 20
-171.446
 11
-190.815
 21
-172.983
  0
LINE
  8
0
 10
-190.815
 20
-172.983
 11
-187.849
 21
-174.157
  0
LINE
  8
0
 10
-187.849
 20
-174.157
 11
-184.759
 21
-174.95
  0
LINE
  8
0
 10
-184.759
 20
-174.95
 11
-181.595
 21
-175.35
  0
LINE
  8
0
 10
-181.595
 20
-175.35
 11
-178.405
 21
-175.35
  0
LINE
  8
0
 10
-178.405
 20
-175.35
 11
-175.241
 21
-174.95
  0
LINE
  8
0
 10
-115.241
 20
-174.95
 11
-112.151
 21
-174.157
  0
LINE
  8
0
 10
-112.151
 20
-174.157
 11
-109.185
 21
-172.983
  0
LINE
  8
0
 10
-109.185
 20
-172.983
 11
-106.39
 21
-171.446
  0
LINE
  8
0
 10
-106.39
 20
-171.446
 11
-103.809
 21
-169.571
  0
LINE
  8
0
 10
-103.809
 20
-169.571
 11
-101.484
 21
-167.387
  0
LINE
  8
0
 10
-101.484
 20
-167.387
 11
-99.451
 21
-164.93
  0
LINE
  8
0
 10
-99.451
 20
-164.93
 11
-97.7418
 21
-162.237
  0
LINE
  8
0
 10
-97.7418
 20
-162.237
 11
-96.3837
 21
-159.35
  0
LINE
  8
0
 10
-96.3837
 20
-159.35
 11
-95.398
 21
-156.317
  0
LINE
  8
0
 10
-95.398
 20
-156.317
 11
-94.8003
 21
-153.183
  0
LINE
  8
0
 10
-94.8003
 20
-153.183
 11
-94.6
 21
-150
  0
LINE
  8
0
 10
-94.6
 20
-150
 11
-94.8003
 21
-146.817
  0
LINE
  8
0
 10
-94.8003
 20
-146.817
 11
-95.398
 21
-143.683
  0
LINE
  8
0
 10
-95.398
 20
-143.683
 11
-96.3837
 21
-140.65
  0
LINE
  8
0
 10
-96.3837
 20
-140.65
 11
-97.7418
 21
-137.763
  0
LINE
  8
0
 10
-97.7418
 20
-137.763
 11
-99.451
 21
-135.07
  0
LINE
  8
0
 10
-99.451
 20
-135.07
 11
-101.484
 21
-132.613
  0
LINE
  8
0
 10
-101.484
 20
-132.613
 11
-103.809
 21
-130.429
  0
LINE
  8
0
 10
-103.809
 20
-130.429
 11
-106.39
 21
-128.554
  0
LINE
  8
0
 10
-106.39
 20
-128.554
 11
-109.185
 21
-127.017
  0
LINE
  8
0
 10
-109.185
 20
-127.017
 11
-112.151
 21
-125.843
  0
LINE
  8
0
 10
-112.151
 20
-125.843
 11
-115.241
 21
-125.05
  0
LINE
  8
0
 10
-115.241
 20
-125.05
 11
-118.405
 21
-124.65
  0
LINE
  8
0
 10
-118.405
 20
-124.65
 11
-121.595
 21
-124.65
  0
LINE
  8
0
 10
-121.595
 20
-124.65
 11
-124.759
 21
-125.05
  0
LINE
  8
0
 10
-124.759
 20
-125.05
 11
-127.849
 21
-125.843
  0
LINE
  8
0
 10
-127.849
 20
-125.843
 11
-130.815
 21
-127.017
  0
LINE
  8
0
 10
-130.815
 20
-127.017
 11
-133.61
 21
-128.554
  0
LINE
  8
0
 10
-133.61
 20
-128.554
 11
-136.191
 21
-130.429
  0
LINE
  8
0
 10
-136.191
 20
-130.429
 11
-138.516
 21
-132.613
  0
LINE
  8
0
 10
-138.516
 20
-132.613
 11
-140.549
 21
-135.07
  0
LINE
  8
0
 10
-140.549
 20
-135.07
 11
-142.258
 21
-137.763
  0
LINE
  8
0
 10
-142.258
 20
-137.763
 11
-143.616
 21
-140.65
  0
LINE
  8
0
 10
-143.616
 20
-140.65
 11
-144.602
 21
-143.683
  0
LINE
  8
0
 10
-144.602
 20
-143.683
 11
-145.2
 21
-146.817
  0
LINE
  8
0
 10
-145.2
 20
-146.817
 11
-145.4
 21
-150
  0
LINE
  8
0
 10
-145.4
 20
-150
 11
-145.2
 21
-153.183
  0
LINE
  8
0
 10
-145.2
 20
-153.183
 11
-144.602
 21
-156.317
  0
LINE
  8
0
 10
-144.602
 20
-156.317
 11
-143.616
 21
-159.35
  0
LINE
  8
0
 10
-143.616
 20
-159.35
 11
-142.258
 21
-162.237
  0
LINE
  8
0
 10
-142.258
 20
-162.237
 11
-140.549
 21
-164.93
  0
LINE
  8
0
 10
-140.549
 20
-164.93
 11
-138.516
 21
-167.387
  0
LINE
  8
0
 10
-138.516
 20
-167.387
 11
-136.191
 21
-169.571
  0
LINE
  8
0
 10
-136.191
 20
-169.571
 11
-133.61
 21
-171.446
  0
LINE
  8
0
 10
-133.61
 20
-171.446
 11
-130.815
 21
-172.983
  0
LINE
  8
0
 10
-130.815
 20
-172.983
 11
-127.849
 21
-174.157
  0
LINE
  8
0
 10
-127.849
 20
-174.157
 11
-124.759
 21
-174.95
  0
LINE
  8
0
 10
-124.759
 20
-174.95
 11
-121.595
 21
-175.35
  0
LINE
  8
0
 10
-121.595
 20
-175.35
 11
-118.405
 21
-175.35
  0
LINE
  8
0
 10
-118.405
 20
-175.35
 11
-115.241
 21
-174.95
  0
LINE
  8
0
 10
184.759
 20
-174.95
 11
187.849
 21
-174.157
  0
LINE
  8
0
 10
187.849
 20
-174.157
 11
190.815
 21
-172.983
  0
LINE
  8
0
 10
190.815
 20
-172.983
 11
193.61
 21
-171.446
  0
LINE
  8
0
 10
193.61
 20
-171.446
 11
196.191
 21
-169.571
  0
LINE
  8
0
 10
196.191
 20
-169.571
 11
198.516
 21
-167.387
  0
LINE
  8
0
 10
198.516
 20
-167.387
 11
200.549
 21
-164.93
  0
LINE
  8
0
 10
200.549
 20
-164.93
 11
202.258
 21
-162.237
  0
LINE
  8
0
 10
202.258
 20
-162.237
 11
203.616
 21
-159.35
  0
LINE
  8
0
 10
203.616
 20
-159.35
 11
204.602
 21
-156.317
  0
LINE
  8
0
 10
204.602
 20
-156.317
 11
205.2
 21
-153.183
  0
LINE
  8
0
 10
205.2
 20
-153.183
 11
205.4
 21
-150
  0
LINE
  8
0
 10
205.4
 20
-150
 11
205.2
 21
-146.817
  0
LINE
  8
0
 10
205.2
 20
-146.817
 11
204.602
 21
-143.683
  0
LINE
  8
0
 10
204.602
 20
-143.683
 11
203.616
 21
-140.65
  0
LINE
  8
0
 10
203.616
 20
-140.65
 11
202.258
 21
-137.763
  0
LINE
  8
0
 10
202.258
 20
-137.763
 11
200.549
 21
-135.07
  0
LINE
  8
0
 10
200.549
 20
-135.07
 11
198.516
 21
-132.613
  0
LINE
  8
0
 10
198.516
 20
-132.613
 11
196.191
 21
-130.429
  0
LINE
  8
0
 10
196.191
 20
-130.429
 11
193.61
 21
-128.554
  0
LINE
  8
0
 10
193.61
 20
-128.554
 11
190.815
 21
-127.017
  0
LINE
  8
0
 10
190.815
 20
-127.017
 11
187.849
 21
-125.843
  0
LINE
  8
0
 10
187.849
 20
-125.843
 11
184.759
 21
-125.05
  0
LINE
  8
0
 10
184.759
 20
-125.05
 11
181.595
 21
-124.65
  0
LINE
  8
0
 10
181.595
 20
-124.65
 11
178.405
 21
-124.65
  0
LINE
  8
0
 10
178.405
 20
-124.65
 11
175.241
 21
-125.05
  0
LINE
  8
0
 10
175.241
 20
-125.05
 11
172.151
 21
-125.843
  0
LINE
  8
0
 10
172.151
 20
-125.843
 11
169.185
 21
-127.017
  0
LINE
  8
0
 10
169.185
 20
-127.017
 11
166.39
 21
-128.554
  0
LINE
  8
0
 10
166.39
 20
-128.554
 11
163.809
 21
-130.429
  0
LINE
  8
0
 10
163.809
 20
-130.429
 11
161.484
 21
-132.613
  0
LINE
  8
0
 10
161.484
 20
-132.613
 11
159.451
 21
-135.07
  0
LINE
  8
0
 10
159.451
 20
-135.07
 11
157.742
 21
-137.763
  0
LINE
  8
0
 10
157.742
 20
-137.763
 11
156.384
 21
-140.65
  0
LINE
  8
0
 10
156.384
 20
-140.65
 11
155.398
 21
-143.683
  0
LINE
  8
0
 10
155.398
 20
-143.683
 11
154.8
 21
-146.817
  0
LINE
  8
0
 10
154.8
 20
-146.817
 11
154.6
 21
-150
  0
LINE
  8
0
 10
154.6
 20
-150
 11
154.8
 21
-153.183
  0
LINE
  8
0
 10
154.8
 20
-153.183
 11
155.398
 21
-156.317
  0
LINE
  8
0
 10
155.398
 20
-156.317
 11
156.384
 21
-159.35
  0
LINE
  8
0
 10
156.384
 20
-159.35
 11
157.742
 21
-162.237
  0
LINE
  8
0
 10
157.742
 20
-162.237
 11
159.451
 21
-164.93
  0
LINE
  8
0
 10
159.451
 20
-164.93
 11
161.484
 21
-167.387
  0
LINE
  8
0
 10
161.484
 20
-167.387
 11
163.809
 21
-169.571
  0
LINE
  8
0
 10
163.809
 20
-169.571
 11
166.39
 21
-171.446
  0
LINE
  8
0
 10
166.39
 20
-171.446
 11
169.185
 21
-172.983
  0
LINE
  8
0
 10
169.185
 20
-172.983
 11
172.151
 21
-174.157
  0
LINE
  8
0
 10
172.151
 20
-174.157
 11
175.241
 21
-174.95
  0
LINE
  8
0
 10
175.241
 20
-174.95
 11
178.405
 21
-175.35
  0
LINE
  8
0
 10
178.405
 20
-175.35
 11
181.595
 21
-175.35
  0
LINE
  8
0
 10
181.595
 20
-175.35
 11
184.759
 21
-174.95
  0
LINE
  8
0
 10
-55.2405
 20
-174.95
 11
-52.151
 21
-174.157
  0
LINE
  8
0
 10
-52.151
 20
-174.157
 11
-49.1852
 21
-172.983
  0
LINE
  8
0
 10
-49.1852
 20
-172.983
 11
-46.39
 21
-171.446
  0
LINE
  8
0
 10
-46.39
 20
-171.446
 11
-43.8094
 21
-169.571
  0
LINE
  8
0
 10
-43.8094
 20
-169.571
 11
-41.4842
 21
-167.387
  0
LINE
  8
0
 10
-41.4842
 20
-167.387
 11
-39.451
 21
-164.93
  0
LINE
  8
0
 10
-39.451
 20
-164.93
 11
-37.7418
 21
-162.237
  0
LINE
  8
0
 10
-37.7418
 20
-162.237
 11
-36.3837
 21
-159.35
  0
LINE
  8
0
 10
-36.3837
 20
-159.35
 11
-35.398
 21
-156.317
  0
LINE
  8
0
 10
-35.398
 20
-156.317
 11
-34.8003
 21
-153.183
  0
LINE
  8
0
 10
-34.8003
 20
-153.183
 11
-34.6
 21
-150
  0
LINE
  8
0
 10
-34.6
 20
-150
 11
-34.8003
 21
-146.817
  0
LINE
  8
0
 10
-34.8003
 20
-146.817
 11
-35.398
 21
-143.683
  0
LINE
  8
0
 10
-35.398
 20
-143.683
 11
-36.3837
 21
-140.65
  0
LINE
  8
0
 10
-36.3837
 20
-140.65
 11
-37.7418
 21
-137.763
  0
LINE
  8
0
 10
-37.7418
 20
-137.763
 11
-39.451
 21
-135.07
  0
LINE
  8
0
 10
-39.451
 20
-135.07
 11
-41.4842
 21
-132.613
  0
LINE
  8
0
 10
-41.4842
 20
-132.613
 11
-43.8094
 21
-130.429
  0
LINE
  8
0
 10
-43.8094
 20
-130.429
 11
-46.39
 21
-128.554
  0
LINE
  8
0
 10
-46.39
 20
-128.554
 11
-49.1852
 21
-127.017
  0
LINE
  8
0
 10
-49.1852
 20
-127.017
 11
-52.151
 21
-125.843
  0
LINE
  8
0
 10
-52.151
 20
-125.843
 11
-55.2405
 21
-125.05
  0
LINE
  8
0
 10
-55.2405
 20
-125.05
 11
-58.4051
 21
-124.65
  0
LINE
  8
0
 10
-58.4051
 20
-124.65
 11
-61.5949
 21
-124.65
  0
LINE
  8
0
 10
-61.5949
 20
-124.65
 11
-64.7595
 21
-125.05
  0
LINE
  8
0
 10
-64.7595
 20
-125.05
 11
-67.849
 21
-125.843
  0
LINE
  8
0
 10
-67.849
 20
-125.843
 11
-70.8148
 21
-127.017
  0
LINE
  8
0
 10
-70.8148
 20
-127.017
 11
-73.61
 21
-128.554
  0
LINE
  8
0
 10
-73.61
 20
-128.554
 11
-76.1906
 21
-130.429
  0
LINE
  8
0
 10
-76.1906
 20
-130.429
 11
-78.5158
 21
-132.613
  0
LINE
  8
0
 10
-78.5158
 20
-132.613
 11
-80.549
 21
-135.07
  0
LINE
  8
0
 10
-80.549
 20
-135.07
 11
-82.2582
 21
-137.763
  0
LINE
  8
0
 10
-82.2582
 20
-137.763
 11
-83.6163
 21
-140.65
  0
LINE
  8
0
 10
-83.6163
 20
-140.65
 11
-84.602
 21
-143.683
  0
LINE
  8
0
 10
-84.602
 20
-143.683
 11
-85.1997
 21
-146.817
  0
LINE
  8
0
 10
-85.1997
 20
-146.817
 11
-85.4
 21
-150
  0
LINE
  8
0
 10
-85.4
 20
-150
 11
-85.1997
 21
-153.183
  0
LINE
  8
0
 10
-85.1997
 20
-153.183
 11
-84.602
 21
-156.317
  0
LINE
  8
0
 10
-84.602
 20
-156.317
 11
-83.6163
 21
-159.35
  0
LINE
  8
0
 10
-83.6163
 20
-159.35
 11
-82.2582
 21
-162.237
  0
LINE
  8
0
 10
-82.2582
 20
-162.237
 11
-80.549
 21
-164.93
  0
LINE
  8
0
 10
-80.549
 20
-164.93
 11
-78.5158
 21
-167.387
  0
LINE
  8
0
 10
-78.5158
 20
-167.387
 11
-76.1906
 21
-169.571
  0
LINE
  8
0
 10
-76.1906
 20
-169.571
 11
-73.61
 21
-171.446
  0
LINE
  8
0
 10
-73.61
 20
-171.446
 11
-70.8148
 21
-172.983
  0
LINE
  8
0
 10
-70.8148
 20
-172.983
 11
-67.849
 21
-174.157
  0
LINE
  8
0
 10
-67.849
 20
-174.157
 11
-64.7595
 21
-174.95
  0
LINE
  8
0
 10
-64.7595
 20
-174.95
 11
-61.5949
 21
-175.35
  0
LINE
  8
0
 10
-61.5949
 20
-175.35
 11
-58.4051
 21
-175.35
  0
LINE
  8
0
 10
-58.4051
 20
-175.35
 11
-55.2405
 21
-174.95
  0
LINE
  8
0
 10
-235.241
 20
-174.95
 11
-232.151
 21
-174.157
  0
LINE
  8
0
 10
-232.151
 20
-174.157
 11
-229.185
 21
-172.983
  0
LINE
  8
0
 10
-229.185
 20
-172.983
 11
-226.39
 21
-171.446
  0
LINE
  8
0
 10
-226.39
 20
-171.446
 11
-223.809
 21
-169.571
  0
LINE
  8
0
 10
-223.809
 20
-169.571
 11
-221.484
 21
-167.387
  0
LINE
  8
0
 10
-221.484
 20
-167.387
 11
-219.451
 21
-164.93
  0
LINE
  8
0
 10
-219.451
 20
-164.93
 11
-217.742
 21
-162.237
  0
LINE
  8
0
 10
-217.742
 20
-162.237
 11
-216.384
 21
-159.35
  0
LINE
  8
0
 10
-216.384
 20
-159.35
 11
-215.398
 21
-156.317
  0
LINE
  8
0
 10
-215.398
 20
-156.317
 11
-214.8
 21
-153.183
  0
LINE
  8
0
 10
-214.8
 20
-153.183
 11
-214.6
 21
-150
  0
LINE
  8
0
 10
-214.6
 20
-150
 11
-214.8
 21
-146.817
  0
LINE
  8
0
 10
-214.8
 20
-146.817
 11
-215.398
 21
-143.683
  0
LINE
  8
0
 10
-215.398
 20
-143.683
 11
-216.384
 21
-140.65
  0
LINE
  8
0
 10
-216.384
 20
-140.65
 11
-217.742
 21
-137.763
  0
LINE
  8
0
 10
-217.742
 20
-137.763
 11
-219.451
 21
-135.07
  0
LINE
  8
0
 10
-219.451
 20
-135.07
 11
-221.484
 21
-132.613
  0
LINE
  8
0
 10
-221.484
 20
-132.613
 11
-223.809
 21
-130.429
  0
LINE
  8
0
 10
-223.809
 20
-130.429
 11
-226.39
 21
-128.554
  0
LINE
  8
0
 10
-226.39
 20
-128.554
 11
-229.185
 21
-127.017
  0
LINE
  8
0
 10
-229.185
 20
-127.017
 11
-232.151
 21
-125.843
  0
LINE
  8
0
 10
-232.151
 20
-125.843
 11
-235.241
 21
-125.05
  0
LINE
  8
0
 10
-235.241
 20
-125.05
 11
-238.405
 21
-124.65
  0
LINE
  8
0
 10
-238.405
 20
-124.65
 11
-241.595
 21
-124.65
  0
LINE
  8
0
 10
-241.595
 20
-124.65
 11
-244.759
 21
-125.05
  0
LINE
  8
0
 10
-244.759
 20
-125.05
 11
-247.849
 21
-125.843
  0
LINE
  8
0
 10
-247.849
 20
-125.843
 11
-250.815
 21
-127.017
  0
LINE
  8
0
 10
-250.815
 20
-127.017
 11
-253.61
 21
-128.554
  0
LINE
  8
0
 10
-253.61
 20
-128.554
 11
-256.191
 21
-130.429
  0
LINE
  8
0
 10
-256.191
 20
-130.429
 11
-258.516
 21
-132.613
  0
LINE
  8
0
 10
-258.516
 20
-132.613
 11
-260.549
 21
-135.07
  0
LINE
  8
0
 10
-260.549
 20
-135.07
 11
-262.258
 21
-137.763
  0
LINE
  8
0
 10
-262.258
 20
-137.763
 11
-263.616
 21
-140.65
  0
LINE
  8
0
 10
-263.616
 20
-140.65
 11
-264.602
 21
-143.683
  0
LINE
  8
0
 10
-264.602
 20
-143.683
 11
-265.2
 21
-146.817
  0
LINE
  8
0
 10
-265.2
 20
-146.817
 11
-265.4
 21
-150
  0
LINE
  8
0
 10
-265.4
 20
-150
 11
-265.2
 21
-153.183
  0
LINE
  8
0
 10
-265.2
 20
-153.183
 11
-264.602
 21
-156.317
  0
LINE
  8
0
 10
-264.602
 20
-156.317
 11
-263.616
 21
-159.35
  0
LINE
  8
0
 10
-263.616
 20
-159.35
 11
-262.258
 21
-162.237
  0
LINE
  8
0
 10
-262.258
 20
-162.237
 11
-260.549
 21
-164.93
  0
LINE
  8
0
 10
-260.549
 20
-164.93
 11
-258.516
 21
-167.387
  0
LINE
  8
0
 10
-258.516
 20
-167.387
 11
-256.191
 21
-169.571
  0
LINE
  8
0
 10
-256.191
 20
-169.571
 11
-253.61
 21
-171.446
  0
LINE
  8
0
 10
-253.61
 20
-171.446
 11
-250.815
 21
-172.983
  0
LINE
  8
0
 10
-250.815
 20
-172.983
 11
-247.849
 21
-174.157
  0
LINE
  8
0
 10
-247.849
 20
-174.157
 11
-244.759
 21
-174.95
  0
LINE
  8
0
 10
-244.759
 20
-174.95
 11
-241.595
 21
-175.35
  0
LINE
  8
0
 10
-241.595
 20
-175.35
 11
-238.405
 21
-175.35
  0
LINE
  8
0
 10
-238.405
 20
-175.35
 11
-235.241
 21
-174.95
  0
LINE
  8
0
 10
64.7595
 20
-174.95
 11
67.849
 21
-174.157
  0
LINE
  8
0
 10
67.849
 20
-174.157
 11
70.8148
 21
-172.983
  0
LINE
  8
0
 10
70.8148
 20
-172.983
 11
73.61
 21
-171.446
  0
LINE
  8
0
 10
73.61
 20
-171.446
 11
76.1906
 21
-169.571
  0
LINE
  8
0
 10
76.1906
 20
-169.571
 11
78.5158
 21
-167.387
  0
LINE
  8
0
 10
78.5158
 20
-167.387
 11
80.549
 21
-164.93
  0
LINE
  8
0
 10
80.549
 20
-164.93
 11
82.2582
 21
-162.237
  0
LINE
  8
0
 10
82.2582
 20
-162.237
 11
83.6163
 21
-159.35
  0
LINE
  8
0
 10
83.6163
 20
-159.35
 11
84.602
 21
-156.317
  0
LINE
  8
0
 10
84.602
 20
-156.317
 11
85.1997
 21
-153.183
  0
LINE
  8
0
 10
85.1997
 20
-153.183
 11
85.4
 21
-150
  0
LINE
  8
0
 10
85.4
 20
-150
 11
85.1997
 21
-146.817
  0
LINE
  8
0
 10
85.1997
 20
-146.817
 11
84.602
 21
-143.683
  0
LINE
  8
0
 10
84.602
 20
-143.683
 11
83.6163
 21
-140.65
  0
LINE
  8
0
 10
83.6163
 20
-140.65
 11
82.2582
 21
-137.763
  0
LINE
  8
0
 10
82.2582
 20
-137.763
 11
80.549
 21
-135.07
  0
LINE
  8
0
 10
80.549
 20
-135.07
 11
78.5158
 21
-132.613
  0
LINE
  8
0
 10
78.5158
 20
-132.613
 11
76.1906
 21
-130.429
  0
LINE
  8
0
 10
76.1906
 20
-130.429
 11
73.61
 21
-128.554
  0
LINE
  8
0
 10
73.61
 20
-128.554
 11
70.8148
 21
-127.017
  0
LINE
  8
0
 10
70.8148
 20
-127.017
 11
67.849
 21
-125.843
  0
LINE
  8
0
 10
67.849
 20
-125.843
 11
64.7595
 21
-125.05
  0
LINE
  8
0
 10
64.7595
 20
-125.05
 11
61.5949
 21
-124.65
  0
LINE
  8
0
 10
61.5949
 20
-124.65
 11
58.4051
 21
-124.65
  0
LINE
  8
0
 10
58.4051
 20
-124.65
 11
55.2405
 21
-125.05
  0
LINE
  8
0
 10
55.2405
 20
-125.05
 11
52.151
 21
-125.843
  0
LINE
  8
0
 10
52.151
 20
-125.843
 11
49.1852
 21
-127.017
  0
LINE
  8
0
 10
49.1852
 20
-127.017
 11
46.39
 21
-128.554
  0
LINE
  8
0
 10
46.39
 20
-128.554
 11
43.8094
 21
-130.429
  0
LINE
  8
0
 10
43.8094
 20
-130.429
 11
41.4842
 21
-132.613
  0
LINE
  8
0
 10
41.4842
 20
-132.613
 11
39.451
 21
-135.07
  0
LINE
  8
0
 10
39.451
 20
-135.07
 11
37.7418
 21
-137.763
  0
LINE
  8
0
 10
37.7418
 20
-137.763
 11
36.3837
 21
-140.65
  0
LINE
  8
0
 10
36.3837
 20
-140.65
 11
35.398
 21
-143.683
  0
LINE
  8
0
 10
35.398
 20
-143.683
 11
34.8003
 21
-146.817
  0
LINE
  8
0
 10
34.8003
 20
-146.817
 11
34.6
 21
-150
  0
LINE
  8
0
 10
34.6
 20
-150
 11
34.8003
 21
-153.183
  0
LINE
  8
0
 10
34.8003
 20
-153.183
 11
35.398
 21
-156.317
  0
LINE
  8
0
 10
35.398
 20
-156.317
 11
36.3837
 21
-159.35
  0
LINE
  8
0
 10
36.3837
 20
-159.35
 11
37.7418
 21
-162.237
  0
LINE
  8
0
 10
37.7418
 20
-162.237
 11
39.451
 21
-164.93
  0
LINE
  8
0
 10
39.451
 20
-164.93
 11
41.4842
 21
-167.387
  0
LINE
  8
0
 10
41.4842
 20
-167.387
 11
43.8094
 21
-169.571
  0
LINE
  8
0
 10
43.8094
 20
-169.571
 11
46.39
 21
-171.446
  0
LINE
  8
0
 10
46.39
 20
-171.446
 11
49.1852
 21
-172.983
  0
LINE
  8
0
 10
49.1852
 20
-172.983
 11
52.151
 21
-174.157
  0
LINE
  8
0
 10
52.151
 20
-174.157
 11
55.2405
 21
-174.95
  0
LINE
  8
0
 10
55.2405
 20
-174.95
 11
58.4051
 21
-175.35
  0
LINE
  8
0
 10
58.4051
 20
-175.35
 11
61.5949
 21
-175.35
  0
LINE
  8
0
 10
61.5949
 20
-175.35
 11
64.7595
 21
-174.95
  0
LINE
  8
0
 10
4.75948
 20
-174.95
 11
7.84903
 21
-174.157
  0
LINE
  8
0
 10
7.84903
 20
-174.157
 11
10.8148
 21
-172.983
  0
LINE
  8
0
 10
10.8148
 20
-172.983
 11
13.61
 21
-171.446
  0
LINE
  8
0
 10
13.61
 20
-171.446
 11
16.1906
 21
-169.571
  0
LINE
  8
0
 10
16.1906
 20
-169.571
 11
18.5158
 21
-167.387
  0
LINE
  8
0
 10
18.5158
 20
-167.387
 11
20.549
 21
-164.93
  0
LINE
  8
0
 10
20.549
 20
-164.93
 11
22.2582
 21
-162.237
  0
LINE
  8
0
 10
22.2582
 20
-162.237
 11
23.6163
 21
-159.35
  0
LINE
  8
0
 10
23.6163
 20
-159.35
 11
24.602
 21
-156.317
  0
LINE
  8
0
 10
24.602
 20
-156.317
 11
25.1997
 21
-153.183
  0
LINE
  8
0
 10
25.1997
 20
-153.183
 11
25.4
 21
-150
  0
LINE
  8
0
 10
25.4
 20
-150
 11
25.1997
 21
-146.817
  0
LINE
  8
0
 10
25.1997
 20
-146.817
 11
24.602
 21
-143.683
  0
LINE
  8
0
 10
24.602
 20
-143.683
 11
23.6163
 21
-140.65
  0
LINE
  8
0
 10
23.6163
 20
-140.65
 11
22.2582
 21
-137.763
  0
LINE
  8
0
 10
22.2582
 20
-137.763
 11
20.549
 21
-135.07
  0
LINE
  8
0
 10
20.549
 20
-135.07
 11
18.5158
 21
-132.613
  0
LINE
  8
0
 10
18.5158
 20
-132.613
 11
16.1906
 21
-130.429
  0
LINE
  8
0
 10
16.1906
 20
-130.429
 11
13.61
 21
-128.554
  0
LINE
  8
0
 10
13.61
 20
-128.554
 11
10.8148
 21
-127.017
  0
LINE
  8
0
 10
10.8148
 20
-127.017
 11
7.84903
 21
-125.843
  0
LINE
  8
0
 10
7.84903
 20
-125.843
 11
4.75948
 21
-125.05
  0
LINE
  8
0
 10
4.75948
 20
-125.05
 11
1.59488
 21
-124.65
  0
LINE
  8
0
 10
1.59488
 20
-124.65
 11
-1.59488
 21
-124.65
  0
LINE
  8
0
 10
-1.59488
 20
-124.65
 11
-4.75948
 21
-125.05
  0
LINE
  8
0
 10
-4.75948
 20
-125.05
 11
-7.84903
 21
-125.843
  0
LINE
  8
0
 10
-7.84903
 20
-125.843
 11
-10.8148
 21
-127.017
  0
LINE
  8
0
 10
-10.8148
 20
-127.017
 11
-13.61
 21
-128.554
  0
LINE
  8
0
 10
-13.61
 20
-128.554
 11
-16.1906
 21
-130.429
  0
LINE
  8
0
 10
-16.1906
 20
-130.429
 11
-18.5158
 21
-132.613
  0
LINE
  8
0
 10
-18.5158
 20
-132.613
 11
-20.549
 21
-135.07
  0
LINE
  8
0
 10
-20.549
 20
-135.07
 11
-22.2582
 21
-137.763
  0
LINE
  8
0
 10
-22.2582
 20
-137.763
 11
-23.6163
 21
-140.65
  0
LINE
  8
0
 10
-23.6163
 20
-140.65
 11
-24.602
 21
-143.683
  0
LINE
  8
0
 10
-24.602
 20
-143.683
 11
-25.1997
 21
-146.817
  0
LINE
  8
0
 10
-25.1997
 20
-146.817
 11
-25.4
 21
-150
  0
LINE
  8
0
 10
-25.4
 20
-150
 11
-25.1997
 21
-153.183
  0
LINE
  8
0
 10
-25.1997
 20
-153.183
 11
-24.602
 21
-156.317
  0
LINE
  8
0
 10
-24.602
 20
-156.317
 11
-23.6163
 21
-159.35
  0
LINE
  8
0
 10
-23.6163
 20
-159.35
 11
-22.2582
 21
-162.237
  0
LINE
  8
0
 10
-22.2582
 20
-162.237
 11
-20.549
 21
-164.93
  0
LINE
  8
0
 10
-20.549
 20
-164.93
 11
-18.5158
 21
-167.387
  0
LINE
  8
0
 10
-18.5158
 20
-167.387
 11
-16.1906
 21
-169.571
  0
LINE
  8
0
 10
-16.1906
 20
-169.571
 11
-13.61
 21
-171.446
  0
LINE
  8
0
 10
-13.61
 20
-171.446
 11
-10.8148
 21
-172.983
  0
LINE
  8
0
 10
-10.8148
 20
-172.983
 11
-7.84903
 21
-174.157
  0
LINE
  8
0
 10
-7.84903
 20
-174.157
 11
-4.75948
 21
-174.95
  0
LINE
  8
0
 10
-4.75948
 20
-174.95
 11
-1.59488
 21
-175.35
  0
LINE
  8
0
 10
-1.59488
 20
-175.35
 11
1.59488
 21
-175.35
  0
LINE
  8
0
 10
1.59488
 20
-175.35
 11
4.75948
 21
-174.95
  0
LINE
  8
0
 10
244.759
 20
-174.95
 11
247.849
 21
-174.157
  0
LINE
  8
0
 10
247.849
 20
-174.157
 11
250.815
 21
-172.983
  0
LINE
  8
0
 10
250.815
 20
-172.983
 11
253.61
 21
-171.446
  0
LINE
  8
0
 10
253.61
 20
-171.446
 11
256.191
 21
-169.571
  0
LINE
  8
0
 10
256.191
 20
-169.571
 11
258.516
 21
-167.387
  0
LINE
  8
0
 10
258.516
 20
-167.387
 11
260.549
 21
-164.93
  0
LINE
  8
0
 10
260.549
 20
-164.93
 11
262.258
 21
-162.237
  0
LINE
  8
0
 10
262.258
 20
-162.237
 11
263.616
 21
-159.35
  0
LINE
  8
0
 10
263.616
 20
-159.35
 11
264.602
 21
-156.317
  0
LINE
  8
0
 10
264.602
 20
-156.317
 11
265.2
 21
-153.183
  0
LINE
  8
0
 10
265.2
 20
-153.183
 11
265.4
 21
-150
  0
LINE
  8
0
 10
265.4
 20
-150
 11
265.2
 21
-146.817
  0
LINE
  8
0
 10
265.2
 20
-146.817
 11
264.602
 21
-143.683
  0
LINE
  8
0
 10
264.602
 20
-143.683
 11
263.616
 21
-140.65
  0
LINE
  8
0
 10
263.616
 20
-140.65
 11
262.258
 21
-137.763
  0
LINE
  8
0
 10
262.258
 20
-137.763
 11
260.549
 21
-135.07
  0
LINE
  8
0
 10
260.549
 20
-135.07
 11
258.516
 21
-132.613
  0
LINE
  8
0
 10
258.516
 20
-132.613
 11
256.191
 21
-130.429
  0
LINE
  8
0
 10
256.191
 20
-130.429
 11
253.61
 21
-128.554
  0
LINE
  8
0
 10
253.61
 20
-128.554
 11
250.815
 21
-127.017
  0
LINE
  8
0
 10
250.815
 20
-127.017
 11
247.849
 21
-125.843
  0
LINE
  8
0
 10
247.849
 20
-125.843
 11
244.759
 21
-125.05
  0
LINE
  8
0
 10
244.759
 20
-125.05
 11
241.595
 21
-124.65
  0
LINE
  8
0
 10
241.595
 20
-124.65
 11
238.405
 21
-124.65
  0
LINE
  8
0
 10
238.405
 20
-124.65
 11
235.241
 21
-125.05
  0
LINE
  8
0
 10
235.241
 20
-125.05
 11
232.151
 21
-125.843
  0
LINE
  8
0
 10
232.151
 20
-125.843
 11
229.185
 21
-127.017
  0
LINE
  8
0
 10
229.185
 20
-127.017
 11
226.39
 21
-128.554
  0
LINE
  8
0
 10
226.39
 20
-128.554
 11
223.809
 21
-130.429
  0
LINE
  8
0
 10
223.809
 20
-130.429
 11
221.484
 21
-132.613
  0
LINE
  8
0
 10
221.484
 20
-132.613
 11
219.451
 21
-135.07
  0
LINE
  8
0
 10
219.451
 20
-135.07
 11
217.742
 21
-137.763
  0
LINE
  8
0
 10
217.742
 20
-137.763
 11
216.384
 21
-140.65
  0
LINE
  8
0
 10
216.384
 20
-140.65
 11
215.398
 21
-143.683
  0
LINE
  8
0
 10
215.398
 20
-143.683
 11
214.8
 21
-146.817
  0
LINE
  8
0
 10
214.8
 20
-146.817
 11
214.6
 21
-150
  0
LINE
  8
0
 10
214.6
 20
-150
 11
214.8
 21
-153.183
  0
LINE
  8
0
 10
214.8
 20
-153.183
 11
215.398
 21
-156.317
  0
LINE
  8
0
 10
215.398
 20
-156.317
 11
216.384
 21
-159.35
  0
LINE
  8
0
 10
216.384
 20
-159.35
 11
217.742
 21
-162.237
  0
LINE
  8
0
 10
217.742
 20
-162.237
 11
219.451
 21
-164.93
  0
LINE
  8
0
 10
219.451
 20
-164.93
 11
221.484
 21
-167.387
  0
LINE
  8
0
 10
221.484
 20
-167.387
 11
223.809
 21
-169.571
  0
LINE
  8
0
 10
223.809
 20
-169.571
 11
226.39
 21
-171.446
  0
LINE
  8
0
 10
226.39
 20
-171.446
 11
229.185
 21
-172.983
  0
LINE
  8
0
 10
229.185
 20
-172.983
 11
232.151
 21
-174.157
  0
LINE
  8
0
 10
232.151
 20
-174.157
 11
235.241
 21
-174.95
  0
LINE
  8
0
 10
235.241
 20
-174.95
 11
238.405
 21
-175.35
  0
LINE
  8
0
 10
238.405
 20
-175.35
 11
241.595
 21
-175.35
  0
LINE
  8
0
 10
241.595
 20
-175.35
 11
244.759
 21
-174.95
  0
ENDSEC
  0
SECTION
  2
OBJECTS
  0
DICTIONARY
  0
ENDSEC
  0
EOF
