  0
SECTION
  2
BLOCKS
  0
ENDSEC
  0
SECTION
  2
ENTITIES
  0
LINE
  8
0
 10
-283.806
 20
209.783
 11
-279.345
 21
212.056
  0
LINE
  8
0
 10
-279.345
 20
212.056
 11
-275.806
 21
215.595
  0
LINE
  8
0
 10
-275.806
 20
215.595
 11
-273.533
 21
220.056
  0
LINE
  8
0
 10
-273.533
 20
220.056
 11
-272.75
 21
225
  0
LINE
  8
0
 10
-272.75
 20
225
 11
-273.533
 21
229.944
  0
LINE
  8
0
 10
-273.533
 20
229.944
 11
-275.806
 21
234.405
  0
LINE
  8
0
 10
-275.806
 20
234.405
 11
-279.345
 21
237.944
  0
LINE
  8
0
 10
-279.345
 20
237.944
 11
-283.806
 21
240.217
  0
LINE
  8
0
 10
-283.806
 20
240.217
 11
-288.75
 21
241
  0
LINE
  8
0
 10
-288.75
 20
241
 11
-293.694
 21
240.217
  0
LINE
  8
0
 10
-293.694
 20
240.217
 11
-298.155
 21
237.944
  0
LINE
  8
0
 10
-298.155
 20
237.944
 11
-301.694
 21
234.405
  0
LINE
  8
0
 10
-301.694
 20
234.405
 11
-303.967
 21
229.944
  0
LINE
  8
0
 10
-303.967
 20
229.944
 11
-304.75
 21
225
  0
LINE
  8
0
 10
-304.75
 20
225
 11
-303.967
 21
220.056
  0
LINE
  8
0
 10
-303.967
 20
220.056
 11
-301.694
 21
215.595
  0
LINE
  8
0
 10
-301.694
 20
215.595
 11
-298.155
 21
212.056
  0
LINE
  8
0
 10
-298.155
 20
212.056
 11
-293.694
 21
209.783
  0
LINE
  8
0
 10
-293.694
 20
209.783
 11
-288.75
 21
209
  0
LINE
  8
0
 10
-288.75
 20
209
 11
-283.806
 21
209.783
  0
LINE
  8
0
 10
-126.306
 20
209.783
 11
-121.845
 21
212.056
  0
LINE
  8
0
 10
-121.845
 20
212.056
 11
-118.306
 21
215.595
  0
LINE
  8
0
 10
-118.306
 20
215.595
 11
-116.033
 21
220.056
  0
LINE
  8
0
 10
-116.033
 20
220.056
 11
-115.25
 21
225
  0
LINE
  8
0
 10
-115.25
 20
225
 11
-116.033
 21
229.944
  0
LINE
  8
0
 10
-116.033
 20
229.944
 11
-118.306
 21
234.405
  0
LINE
  8
0
 10
-118.306
 20
234.405
 11
-121.845
 21
237.944
  0
LINE
  8
0
 10
-121.845
 20
237.944
 11
-126.306
 21
240.217
  0
LINE
  8
0
 10
-126.306
 20
240.217
 11
-131.25
 21
241
  0
LINE
  8
0
 10
-131.25
 20
241
 11
-136.194
 21
240.217
  0
LINE
  8
0
 10
-136.194
 20
240.217
 11
-140.655
 21
237.944
  0
LINE
  8
0
 10
-140.655
 20
237.944
 11
-144.194
 21
234.405
  0
LINE
  8
0
 10
-144.194
 20
234.405
 11
-146.467
 21
229.944
  0
LINE
  8
0
 10
-146.467
 20
229.944
 11
-147.25
 21
225
  0
LINE
  8
0
 10
-147.25
 20
225
 11
-146.467
 21
220.056
  0
LINE
  8
0
 10
-146.467
 20
220.056
 11
-144.194
 21
215.595
  0
LINE
  8
0
 10
-144.194
 20
215.595
 11
-140.655
 21
212.056
  0
LINE
  8
0
 10
-140.655
 20
212.056
 11
-136.194
 21
209.783
  0
LINE
  8
0
 10
-136.194
 20
209.783
 11
-131.25
 21
209
  0
LINE
  8
0
 10
-131.25
 20
209
 11
-126.306
 21
209.783
  0
LINE
  8
0
 10
-178.806
 20
209.783
 11
-174.345
 21
212.056
  0
LINE
  8
0
 10
-174.345
 20
212.056
 11
-170.806
 21
215.595
  0
LINE
  8
0
 10
-170.806
 20
215.595
 11
-168.533
 21
220.056
  0
LINE
  8
0
 10
-168.533
 20
220.056
 11
-167.75
 21
225
  0
LINE
  8
0
 10
-167.75
 20
225
 11
-168.533
 21
229.944
  0
LINE
  8
0
 10
-168.533
 20
229.944
 11
-170.806
 21
234.405
  0
LINE
  8
0
 10
-170.806
 20
234.405
 11
-174.345
 21
237.944
  0
LINE
  8
0
 10
-174.345
 20
237.944
 11
-178.806
 21
240.217
  0
LINE
  8
0
 10
-178.806
 20
240.217
 11
-183.75
 21
241
  0
LINE
  8
0
 10
-183.75
 20
241
 11
-188.694
 21
240.217
  0
LINE
  8
0
 10
-188.694
 20
240.217
 11
-193.155
 21
237.944
  0
LINE
  8
0
 10
-193.155
 20
237.944
 11
-196.694
 21
234.405
  0
LINE
  8
0
 10
-196.694
 20
234.405
 11
-198.967
 21
229.944
  0
LINE
  8
0
 10
-198.967
 20
229.944
 11
-199.75
 21
225
  0
LINE
  8
0
 10
-199.75
 20
225
 11
-198.967
 21
220.056
  0
LINE
  8
0
 10
-198.967
 20
220.056
 11
-196.694
 21
215.595
  0
LINE
  8
0
 10
-196.694
 20
215.595
 11
-193.155
 21
212.056
  0
LINE
  8
0
 10
-193.155
 20
212.056
 11
-188.694
 21
209.783
  0
LINE
  8
0
 10
-188.694
 20
209.783
 11
-183.75
 21
209
  0
LINE
  8
0
 10
-183.75
 20
209
 11
-178.806
 21
209.783
  0
LINE
  8
0
 10
-73.8057
 20
209.783
 11
-69.3454
 21
212.056
  0
LINE
  8
0
 10
-69.3454
 20
212.056
 11
-65.8057
 21
215.595
  0
LINE
  8
0
 10
-65.8057
 20
215.595
 11
-63.5331
 21
220.056
  0
LINE
  8
0
 10
-63.5331
 20
220.056
 11
-62.75
 21
225
  0
LINE
  8
0
 10
-62.75
 20
225
 11
-63.5331
 21
229.944
  0
LINE
  8
0
 10
-63.5331
 20
229.944
 11
-65.8057
 21
234.405
  0
LINE
  8
0
 10
-65.8057
 20
234.405
 11
-69.3454
 21
237.944
  0
LINE
  8
0
 10
-69.3454
 20
237.944
 11
-73.8057
 21
240.217
  0
LINE
  8
0
 10
-73.8057
 20
240.217
 11
-78.75
 21
241
  0
LINE
  8
0
 10
-78.75
 20
241
 11
-83.6943
 21
240.217
  0
LINE
  8
0
 10
-83.6943
 20
240.217
 11
-88.1546
 21
237.944
  0
LINE
  8
0
 10
-88.1546
 20
237.944
 11
-91.6943
 21
234.405
  0
LINE
  8
0
 10
-91.6943
 20
234.405
 11
-93.9669
 21
229.944
  0
LINE
  8
0
 10
-93.9669
 20
229.944
 11
-94.75
 21
225
  0
LINE
  8
0
 10
-94.75
 20
225
 11
-93.9669
 21
220.056
  0
LINE
  8
0
 10
-93.9669
 20
220.056
 11
-91.6943
 21
215.595
  0
LINE
  8
0
 10
-91.6943
 20
215.595
 11
-88.1546
 21
212.056
  0
LINE
  8
0
 10
-88.1546
 20
212.056
 11
-83.6943
 21
209.783
  0
LINE
  8
0
 10
-83.6943
 20
209.783
 11
-78.75
 21
209
  0
LINE
  8
0
 10
-78.75
 20
209
 11
-73.8057
 21
209.783
  0
LINE
  8
0
 10
-21.3057
 20
209.783
 11
-16.8454
 21
212.056
  0
LINE
  8
0
 10
-16.8454
 20
212.056
 11
-13.3057
 21
215.595
  0
LINE
  8
0
 10
-13.3057
 20
215.595
 11
-11.0331
 21
220.056
  0
LINE
  8
0
 10
-11.0331
 20
220.056
 11
-10.25
 21
225
  0
LINE
  8
0
 10
-10.25
 20
225
 11
-11.0331
 21
229.944
  0
LINE
  8
0
 10
-11.0331
 20
229.944
 11
-13.3057
 21
234.405
  0
LINE
  8
0
 10
-13.3057
 20
234.405
 11
-16.8454
 21
237.944
  0
LINE
  8
0
 10
-16.8454
 20
237.944
 11
-21.3057
 21
240.217
  0
LINE
  8
0
 10
-21.3057
 20
240.217
 11
-26.25
 21
241
  0
LINE
  8
0
 10
-26.25
 20
241
 11
-31.1943
 21
240.217
  0
LINE
  8
0
 10
-31.1943
 20
240.217
 11
-35.6546
 21
237.944
  0
LINE
  8
0
 10
-35.6546
 20
237.944
 11
-39.1943
 21
234.405
  0
LINE
  8
0
 10
-39.1943
 20
234.405
 11
-41.4669
 21
229.944
  0
LINE
  8
0
 10
-41.4669
 20
229.944
 11
-42.25
 21
225
  0
LINE
  8
0
 10
-42.25
 20
225
 11
-41.4669
 21
220.056
  0
LINE
  8
0
 10
-41.4669
 20
220.056
 11
-39.1943
 21
215.595
  0
LINE
  8
0
 10
-39.1943
 20
215.595
 11
-35.6546
 21
212.056
  0
LINE
  8
0
 10
-35.6546
 20
212.056
 11
-31.1943
 21
209.783
  0
LINE
  8
0
 10
-31.1943
 20
209.783
 11
-26.25
 21
209
  0
LINE
  8
0
 10
-26.25
 20
209
 11
-21.3057
 21
209.783
  0
LINE
  8
0
 10
31.1943
 20
209.783
 11
35.6546
 21
212.056
  0
LINE
  8
0
 10
35.6546
 20
212.056
 11
39.1943
 21
215.595
  0
LINE
  8
0
 10
39.1943
 20
215.595
 11
41.4669
 21
220.056
  0
LINE
  8
0
 10
41.4669
 20
220.056
 11
42.25
 21
225
  0
LINE
  8
0
 10
42.25
 20
225
 11
41.4669
 21
229.944
  0
LINE
  8
0
 10
41.4669
 20
229.944
 11
39.1943
 21
234.405
  0
LINE
  8
0
 10
39.1943
 20
234.405
 11
35.6546
 21
237.944
  0
LINE
  8
0
 10
35.6546
 20
237.944
 11
31.1943
 21
240.217
  0
LINE
  8
0
 10
31.1943
 20
240.217
 11
26.25
 21
241
  0
LINE
  8
0
 10
26.25
 20
241
 11
21.3057
 21
240.217
  0
LINE
  8
0
 10
21.3057
 20
240.217
 11
16.8454
 21
237.944
  0
LINE
  8
0
 10
16.8454
 20
237.944
 11
13.3057
 21
234.405
  0
LINE
  8
0
 10
13.3057
 20
234.405
 11
11.0331
 21
229.944
  0
LINE
  8
0
 10
11.0331
 20
229.944
 11
10.25
 21
225
  0
LINE
  8
0
 10
10.25
 20
225
 11
11.0331
 21
220.056
  0
LINE
  8
0
 10
11.0331
 20
220.056
 11
13.3057
 21
215.595
  0
LINE
  8
0
 10
13.3057
 20
215.595
 11
16.8454
 21
212.056
  0
LINE
  8
0
 10
16.8454
 20
212.056
 11
21.3057
 21
209.783
  0
LINE
  8
0
 10
21.3057
 20
209.783
 11
26.25
 21
209
  0
LINE
  8
0
 10
26.25
 20
209
 11
31.1943
 21
209.783
  0
LINE
  8
0
 10
83.6943
 20
209.783
 11
88.1546
 21
212.056
  0
LINE
  8
0
 10
88.1546
 20
212.056
 11
91.6943
 21
215.595
  0
LINE
  8
0
 10
91.6943
 20
215.595
 11
93.9669
 21
220.056
  0
LINE
  8
0
 10
93.9669
 20
220.056
 11
94.75
 21
225
  0
LINE
  8
0
 10
94.75
 20
225
 11
93.9669
 21
229.944
  0
LINE
  8
0
 10
93.9669
 20
229.944
 11
91.6943
 21
234.405
  0
LINE
  8
0
 10
91.6943
 20
234.405
 11
88.1546
 21
237.944
  0
LINE
  8
0
 10
88.1546
 20
237.944
 11
83.6943
 21
240.217
  0
LINE
  8
0
 10
83.6943
 20
240.217
 11
78.75
 21
241
  0
LINE
  8
0
 10
78.75
 20
241
 11
73.8057
 21
240.217
  0
LINE
  8
0
 10
73.8057
 20
240.217
 11
69.3454
 21
237.944
  0
LINE
  8
0
 10
69.3454
 20
237.944
 11
65.8057
 21
234.405
  0
LINE
  8
0
 10
65.8057
 20
234.405
 11
63.5331
 21
229.944
  0
LINE
  8
0
 10
63.5331
 20
229.944
 11
62.75
 21
225
  0
LINE
  8
0
 10
62.75
 20
225
 11
63.5331
 21
220.056
  0
LINE
  8
0
 10
63.5331
 20
220.056
 11
65.8057
 21
215.595
  0
LINE
  8
0
 10
65.8057
 20
215.595
 11
69.3454
 21
212.056
  0
LINE
  8
0
 10
69.3454
 20
212.056
 11
73.8057
 21
209.783
  0
LINE
  8
0
 10
73.8057
 20
209.783
 11
78.75
 21
209
  0
LINE
  8
0
 10
78.75
 20
209
 11
83.6943
 21
209.783
  0
LINE
  8
0
 10
-231.306
 20
209.783
 11
-226.845
 21
212.056
  0
LINE
  8
0
 10
-226.845
 20
212.056
 11
-223.306
 21
215.595
  0
LINE
  8
0
 10
-223.306
 20
215.595
 11
-221.033
 21
220.056
  0
LINE
  8
0
 10
-221.033
 20
220.056
 11
-220.25
 21
225
  0
LINE
  8
0
 10
-220.25
 20
225
 11
-221.033
 21
229.944
  0
LINE
  8
0
 10
-221.033
 20
229.944
 11
-223.306
 21
234.405
  0
LINE
  8
0
 10
-223.306
 20
234.405
 11
-226.845
 21
237.944
  0
LINE
  8
0
 10
-226.845
 20
237.944
 11
-231.306
 21
240.217
  0
LINE
  8
0
 10
-231.306
 20
240.217
 11
-236.25
 21
241
  0
LINE
  8
0
 10
-236.25
 20
241
 11
-241.194
 21
240.217
  0
LINE
  8
0
 10
-241.194
 20
240.217
 11
-245.655
 21
237.944
  0
LINE
  8
0
 10
-245.655
 20
237.944
 11
-249.194
 21
234.405
  0
LINE
  8
0
 10
-249.194
 20
234.405
 11
-251.467
 21
229.944
  0
LINE
  8
0
 10
-251.467
 20
229.944
 11
-252.25
 21
225
  0
LINE
  8
0
 10
-252.25
 20
225
 11
-251.467
 21
220.056
  0
LINE
  8
0
 10
-251.467
 20
220.056
 11
-249.194
 21
215.595
  0
LINE
  8
0
 10
-249.194
 20
215.595
 11
-245.655
 21
212.056
  0
LINE
  8
0
 10
-245.655
 20
212.056
 11
-241.194
 21
209.783
  0
LINE
  8
0
 10
-241.194
 20
209.783
 11
-236.25
 21
209
  0
LINE
  8
0
 10
-236.25
 20
209
 11
-231.306
 21
209.783
  0
LINE
  8
0
 10
136.194
 20
209.783
 11
140.655
 21
212.056
  0
LINE
  8
0
 10
140.655
 20
212.056
 11
144.194
 21
215.595
  0
LINE
  8
0
 10
144.194
 20
215.595
 11
146.467
 21
220.056
  0
LINE
  8
0
 10
146.467
 20
220.056
 11
147.25
 21
225
  0
LINE
  8
0
 10
147.25
 20
225
 11
146.467
 21
229.944
  0
LINE
  8
0
 10
146.467
 20
229.944
 11
144.194
 21
234.405
  0
LINE
  8
0
 10
144.194
 20
234.405
 11
140.655
 21
237.944
  0
LINE
  8
0
 10
140.655
 20
237.944
 11
136.194
 21
240.217
  0
LINE
  8
0
 10
136.194
 20
240.217
 11
131.25
 21
241
  0
LINE
  8
0
 10
131.25
 20
241
 11
126.306
 21
240.217
  0
LINE
  8
0
 10
126.306
 20
240.217
 11
121.845
 21
237.944
  0
LINE
  8
0
 10
121.845
 20
237.944
 11
118.306
 21
234.405
  0
LINE
  8
0
 10
118.306
 20
234.405
 11
116.033
 21
229.944
  0
LINE
  8
0
 10
116.033
 20
229.944
 11
115.25
 21
225
  0
LINE
  8
0
 10
115.25
 20
225
 11
116.033
 21
220.056
  0
LINE
  8
0
 10
116.033
 20
220.056
 11
118.306
 21
215.595
  0
LINE
  8
0
 10
118.306
 20
215.595
 11
121.845
 21
212.056
  0
LINE
  8
0
 10
121.845
 20
212.056
 11
126.306
 21
209.783
  0
LINE
  8
0
 10
126.306
 20
209.783
 11
131.25
 21
209
  0
LINE
  8
0
 10
131.25
 20
209
 11
136.194
 21
209.783
  0
LINE
  8
0
 10
188.694
 20
209.783
 11
193.155
 21
212.056
  0
LINE
  8
0
 10
193.155
 20
212.056
 11
196.694
 21
215.595
  0
LINE
  8
0
 10
196.694
 20
215.595
 11
198.967
 21
220.056
  0
LINE
  8
0
 10
198.967
 20
220.056
 11
199.75
 21
225
  0
LINE
  8
0
 10
199.75
 20
225
 11
198.967
 21
229.944
  0
LINE
  8
0
 10
198.967
 20
229.944
 11
196.694
 21
234.405
  0
LINE
  8
0
 10
196.694
 20
234.405
 11
193.155
 21
237.944
  0
LINE
  8
0
 10
193.155
 20
237.944
 11
188.694
 21
240.217
  0
LINE
  8
0
 10
188.694
 20
240.217
 11
183.75
 21
241
  0
LINE
  8
0
 10
183.75
 20
241
 11
178.806
 21
240.217
  0
LINE
  8
0
 10
178.806
 20
240.217
 11
174.345
 21
237.944
  0
LINE
  8
0
 10
174.345
 20
237.944
 11
170.806
 21
234.405
  0
LINE
  8
0
 10
170.806
 20
234.405
 11
168.533
 21
229.944
  0
LINE
  8
0
 10
168.533
 20
229.944
 11
167.75
 21
225
  0
LINE
  8
0
 10
167.75
 20
225
 11
168.533
 21
220.056
  0
LINE
  8
0
 10
168.533
 20
220.056
 11
170.806
 21
215.595
  0
LINE
  8
0
 10
170.806
 20
215.595
 11
174.345
 21
212.056
  0
LINE
  8
0
 10
174.345
 20
212.056
 11
178.806
 21
209.783
  0
LINE
  8
0
 10
178.806
 20
209.783
 11
183.75
 21
209
  0
LINE
  8
0
 10
183.75
 20
209
 11
188.694
 21
209.783
  0
LINE
  8
0
 10
241.194
 20
209.783
 11
245.655
 21
212.056
  0
LINE
  8
0
 10
245.655
 20
212.056
 11
249.194
 21
215.595
  0
LINE
  8
0
 10
249.194
 20
215.595
 11
251.467
 21
220.056
  0
LINE
  8
0
 10
251.467
 20
220.056
 11
252.25
 21
225
  0
LINE
  8
0
 10
252.25
 20
225
 11
251.467
 21
229.944
  0
LINE
  8
0
 10
251.467
 20
229.944
 11
249.194
 21
234.405
  0
LINE
  8
0
 10
249.194
 20
234.405
 11
245.655
 21
237.944
  0
LINE
  8
0
 10
245.655
 20
237.944
 11
241.194
 21
240.217
  0
LINE
  8
0
 10
241.194
 20
240.217
 11
236.25
 21
241
  0
LINE
  8
0
 10
236.25
 20
241
 11
231.306
 21
240.217
  0
LINE
  8
0
 10
231.306
 20
240.217
 11
226.845
 21
237.944
  0
LINE
  8
0
 10
226.845
 20
237.944
 11
223.306
 21
234.405
  0
LINE
  8
0
 10
223.306
 20
234.405
 11
221.033
 21
229.944
  0
LINE
  8
0
 10
221.033
 20
229.944
 11
220.25
 21
225
  0
LINE
  8
0
 10
220.25
 20
225
 11
221.033
 21
220.056
  0
LINE
  8
0
 10
221.033
 20
220.056
 11
223.306
 21
215.595
  0
LINE
  8
0
 10
223.306
 20
215.595
 11
226.845
 21
212.056
  0
LINE
  8
0
 10
226.845
 20
212.056
 11
231.306
 21
209.783
  0
LINE
  8
0
 10
231.306
 20
209.783
 11
236.25
 21
209
  0
LINE
  8
0
 10
236.25
 20
209
 11
241.194
 21
209.783
  0
LINE
  8
0
 10
293.694
 20
209.783
 11
298.155
 21
212.056
  0
LINE
  8
0
 10
298.155
 20
212.056
 11
301.694
 21
215.595
  0
LINE
  8
0
 10
301.694
 20
215.595
 11
303.967
 21
220.056
  0
LINE
  8
0
 10
303.967
 20
220.056
 11
304.75
 21
225
  0
LINE
  8
0
 10
304.75
 20
225
 11
303.967
 21
229.944
  0
LINE
  8
0
 10
303.967
 20
229.944
 11
301.694
 21
234.405
  0
LINE
  8
0
 10
301.694
 20
234.405
 11
298.155
 21
237.944
  0
LINE
  8
0
 10
298.155
 20
237.944
 11
293.694
 21
240.217
  0
LINE
  8
0
 10
293.694
 20
240.217
 11
288.75
 21
241
  0
LINE
  8
0
 10
288.75
 20
241
 11
283.806
 21
240.217
  0
LINE
  8
0
 10
283.806
 20
240.217
 11
279.345
 21
237.944
  0
LINE
  8
0
 10
279.345
 20
237.944
 11
275.806
 21
234.405
  0
LINE
  8
0
 10
275.806
 20
234.405
 11
273.533
 21
229.944
  0
LINE
  8
0
 10
273.533
 20
229.944
 11
272.75
 21
225
  0
LINE
  8
0
 10
272.75
 20
225
 11
273.533
 21
220.056
  0
LINE
  8
0
 10
273.533
 20
220.056
 11
275.806
 21
215.595
  0
LINE
  8
0
 10
275.806
 20
215.595
 11
279.345
 21
212.056
  0
LINE
  8
0
 10
279.345
 20
212.056
 11
283.806
 21
209.783
  0
LINE
  8
0
 10
283.806
 20
209.783
 11
288.75
 21
209
  0
LINE
  8
0
 10
288.75
 20
209
 11
293.694
 21
209.783
  0
LINE
  8
0
 10
136.194
 20
159.783
 11
140.655
 21
162.056
  0
LINE
  8
0
 10
140.655
 20
162.056
 11
144.194
 21
165.595
  0
LINE
  8
0
 10
144.194
 20
165.595
 11
146.467
 21
170.056
  0
LINE
  8
0
 10
146.467
 20
170.056
 11
147.25
 21
175
  0
LINE
  8
0
 10
147.25
 20
175
 11
146.467
 21
179.944
  0
LINE
  8
0
 10
146.467
 20
179.944
 11
144.194
 21
184.405
  0
LINE
  8
0
 10
144.194
 20
184.405
 11
140.655
 21
187.944
  0
LINE
  8
0
 10
140.655
 20
187.944
 11
136.194
 21
190.217
  0
LINE
  8
0
 10
136.194
 20
190.217
 11
131.25
 21
191
  0
LINE
  8
0
 10
131.25
 20
191
 11
126.306
 21
190.217
  0
LINE
  8
0
 10
126.306
 20
190.217
 11
121.845
 21
187.944
  0
LINE
  8
0
 10
121.845
 20
187.944
 11
118.306
 21
184.405
  0
LINE
  8
0
 10
118.306
 20
184.405
 11
116.033
 21
179.944
  0
LINE
  8
0
 10
116.033
 20
179.944
 11
115.25
 21
175
  0
LINE
  8
0
 10
115.25
 20
175
 11
116.033
 21
170.056
  0
LINE
  8
0
 10
116.033
 20
170.056
 11
118.306
 21
165.595
  0
LINE
  8
0
 10
118.306
 20
165.595
 11
121.845
 21
162.056
  0
LINE
  8
0
 10
121.845
 20
162.056
 11
126.306
 21
159.783
  0
LINE
  8
0
 10
126.306
 20
159.783
 11
131.25
 21
159
  0
LINE
  8
0
 10
131.25
 20
159
 11
136.194
 21
159.783
  0
LINE
  8
0
 10
83.6943
 20
159.783
 11
88.1546
 21
162.056
  0
LINE
  8
0
 10
88.1546
 20
162.056
 11
91.6943
 21
165.595
  0
LINE
  8
0
 10
91.6943
 20
165.595
 11
93.9669
 21
170.056
  0
LINE
  8
0
 10
93.9669
 20
170.056
 11
94.75
 21
175
  0
LINE
  8
0
 10
94.75
 20
175
 11
93.9669
 21
179.944
  0
LINE
  8
0
 10
93.9669
 20
179.944
 11
91.6943
 21
184.405
  0
LINE
  8
0
 10
91.6943
 20
184.405
 11
88.1546
 21
187.944
  0
LINE
  8
0
 10
88.1546
 20
187.944
 11
83.6943
 21
190.217
  0
LINE
  8
0
 10
83.6943
 20
190.217
 11
78.75
 21
191
  0
LINE
  8
0
 10
78.75
 20
191
 11
73.8057
 21
190.217
  0
LINE
  8
0
 10
73.8057
 20
190.217
 11
69.3454
 21
187.944
  0
LINE
  8
0
 10
69.3454
 20
187.944
 11
65.8057
 21
184.405
  0
LINE
  8
0
 10
65.8057
 20
184.405
 11
63.5331
 21
179.944
  0
LINE
  8
0
 10
63.5331
 20
179.944
 11
62.75
 21
175
  0
LINE
  8
0
 10
62.75
 20
175
 11
63.5331
 21
170.056
  0
LINE
  8
0
 10
63.5331
 20
170.056
 11
65.8057
 21
165.595
  0
LINE
  8
0
 10
65.8057
 20
165.595
 11
69.3454
 21
162.056
  0
LINE
  8
0
 10
69.3454
 20
162.056
 11
73.8057
 21
159.783
  0
LINE
  8
0
 10
73.8057
 20
159.783
 11
78.75
 21
159
  0
LINE
  8
0
 10
78.75
 20
159
 11
83.6943
 21
159.783
  0
LINE
  8
0
 10
188.694
 20
159.783
 11
193.155
 21
162.056
  0
LINE
  8
0
 10
193.155
 20
162.056
 11
196.694
 21
165.595
  0
LINE
  8
0
 10
196.694
 20
165.595
 11
198.967
 21
170.056
  0
LINE
  8
0
 10
198.967
 20
170.056
 11
199.75
 21
175
  0
LINE
  8
0
 10
199.75
 20
175
 11
198.967
 21
179.944
  0
LINE
  8
0
 10
198.967
 20
179.944
 11
196.694
 21
184.405
  0
LINE
  8
0
 10
196.694
 20
184.405
 11
193.155
 21
187.944
  0
LINE
  8
0
 10
193.155
 20
187.944
 11
188.694
 21
190.217
  0
LINE
  8
0
 10
188.694
 20
190.217
 11
183.75
 21
191
  0
LINE
  8
0
 10
183.75
 20
191
 11
178.806
 21
190.217
  0
LINE
  8
0
 10
178.806
 20
190.217
 11
174.345
 21
187.944
  0
LINE
  8
0
 10
174.345
 20
187.944
 11
170.806
 21
184.405
  0
LINE
  8
0
 10
170.806
 20
184.405
 11
168.533
 21
179.944
  0
LINE
  8
0
 10
168.533
 20
179.944
 11
167.75
 21
175
  0
LINE
  8
0
 10
167.75
 20
175
 11
168.533
 21
170.056
  0
LINE
  8
0
 10
168.533
 20
170.056
 11
170.806
 21
165.595
  0
LINE
  8
0
 10
170.806
 20
165.595
 11
174.345
 21
162.056
  0
LINE
  8
0
 10
174.345
 20
162.056
 11
178.806
 21
159.783
  0
LINE
  8
0
 10
178.806
 20
159.783
 11
183.75
 21
159
  0
LINE
  8
0
 10
183.75
 20
159
 11
188.694
 21
159.783
  0
LINE
  8
0
 10
31.1943
 20
159.783
 11
35.6546
 21
162.056
  0
LINE
  8
0
 10
35.6546
 20
162.056
 11
39.1943
 21
165.595
  0
LINE
  8
0
 10
39.1943
 20
165.595
 11
41.4669
 21
170.056
  0
LINE
  8
0
 10
41.4669
 20
170.056
 11
42.25
 21
175
  0
LINE
  8
0
 10
42.25
 20
175
 11
41.4669
 21
179.944
  0
LINE
  8
0
 10
41.4669
 20
179.944
 11
39.1943
 21
184.405
  0
LINE
  8
0
 10
39.1943
 20
184.405
 11
35.6546
 21
187.944
  0
LINE
  8
0
 10
35.6546
 20
187.944
 11
31.1943
 21
190.217
  0
LINE
  8
0
 10
31.1943
 20
190.217
 11
26.25
 21
191
  0
LINE
  8
0
 10
26.25
 20
191
 11
21.3057
 21
190.217
  0
LINE
  8
0
 10
21.3057
 20
190.217
 11
16.8454
 21
187.944
  0
LINE
  8
0
 10
16.8454
 20
187.944
 11
13.3057
 21
184.405
  0
LINE
  8
0
 10
13.3057
 20
184.405
 11
11.0331
 21
179.944
  0
LINE
  8
0
 10
11.0331
 20
179.944
 11
10.25
 21
175
  0
LINE
  8
0
 10
10.25
 20
175
 11
11.0331
 21
170.056
  0
LINE
  8
0
 10
11.0331
 20
170.056
 11
13.3057
 21
165.595
  0
LINE
  8
0
 10
13.3057
 20
165.595
 11
16.8454
 21
162.056
  0
LINE
  8
0
 10
16.8454
 20
162.056
 11
21.3057
 21
159.783
  0
LINE
  8
0
 10
21.3057
 20
159.783
 11
26.25
 21
159
  0
LINE
  8
0
 10
26.25
 20
159
 11
31.1943
 21
159.783
  0
LINE
  8
0
 10
-21.3057
 20
159.783
 11
-16.8454
 21
162.056
  0
LINE
  8
0
 10
-16.8454
 20
162.056
 11
-13.3057
 21
165.595
  0
LINE
  8
0
 10
-13.3057
 20
165.595
 11
-11.0331
 21
170.056
  0
LINE
  8
0
 10
-11.0331
 20
170.056
 11
-10.25
 21
175
  0
LINE
  8
0
 10
-10.25
 20
175
 11
-11.0331
 21
179.944
  0
LINE
  8
0
 10
-11.0331
 20
179.944
 11
-13.3057
 21
184.405
  0
LINE
  8
0
 10
-13.3057
 20
184.405
 11
-16.8454
 21
187.944
  0
LINE
  8
0
 10
-16.8454
 20
187.944
 11
-21.3057
 21
190.217
  0
LINE
  8
0
 10
-21.3057
 20
190.217
 11
-26.25
 21
191
  0
LINE
  8
0
 10
-26.25
 20
191
 11
-31.1943
 21
190.217
  0
LINE
  8
0
 10
-31.1943
 20
190.217
 11
-35.6546
 21
187.944
  0
LINE
  8
0
 10
-35.6546
 20
187.944
 11
-39.1943
 21
184.405
  0
LINE
  8
0
 10
-39.1943
 20
184.405
 11
-41.4669
 21
179.944
  0
LINE
  8
0
 10
-41.4669
 20
179.944
 11
-42.25
 21
175
  0
LINE
  8
0
 10
-42.25
 20
175
 11
-41.4669
 21
170.056
  0
LINE
  8
0
 10
-41.4669
 20
170.056
 11
-39.1943
 21
165.595
  0
LINE
  8
0
 10
-39.1943
 20
165.595
 11
-35.6546
 21
162.056
  0
LINE
  8
0
 10
-35.6546
 20
162.056
 11
-31.1943
 21
159.783
  0
LINE
  8
0
 10
-31.1943
 20
159.783
 11
-26.25
 21
159
  0
LINE
  8
0
 10
-26.25
 20
159
 11
-21.3057
 21
159.783
  0
LINE
  8
0
 10
241.194
 20
159.783
 11
245.655
 21
162.056
  0
LINE
  8
0
 10
245.655
 20
162.056
 11
249.194
 21
165.595
  0
LINE
  8
0
 10
249.194
 20
165.595
 11
251.467
 21
170.056
  0
LINE
  8
0
 10
251.467
 20
170.056
 11
252.25
 21
175
  0
LINE
  8
0
 10
252.25
 20
175
 11
251.467
 21
179.944
  0
LINE
  8
0
 10
251.467
 20
179.944
 11
249.194
 21
184.405
  0
LINE
  8
0
 10
249.194
 20
184.405
 11
245.655
 21
187.944
  0
LINE
  8
0
 10
245.655
 20
187.944
 11
241.194
 21
190.217
  0
LINE
  8
0
 10
241.194
 20
190.217
 11
236.25
 21
191
  0
LINE
  8
0
 10
236.25
 20
191
 11
231.306
 21
190.217
  0
LINE
  8
0
 10
231.306
 20
190.217
 11
226.845
 21
187.944
  0
LINE
  8
0
 10
226.845
 20
187.944
 11
223.306
 21
184.405
  0
LINE
  8
0
 10
223.306
 20
184.405
 11
221.033
 21
179.944
  0
LINE
  8
0
 10
221.033
 20
179.944
 11
220.25
 21
175
  0
LINE
  8
0
 10
220.25
 20
175
 11
221.033
 21
170.056
  0
LINE
  8
0
 10
221.033
 20
170.056
 11
223.306
 21
165.595
  0
LINE
  8
0
 10
223.306
 20
165.595
 11
226.845
 21
162.056
  0
LINE
  8
0
 10
226.845
 20
162.056
 11
231.306
 21
159.783
  0
LINE
  8
0
 10
231.306
 20
159.783
 11
236.25
 21
159
  0
LINE
  8
0
 10
236.25
 20
159
 11
241.194
 21
159.783
  0
LINE
  8
0
 10
-73.8057
 20
159.783
 11
-69.3454
 21
162.056
  0
LINE
  8
0
 10
-69.3454
 20
162.056
 11
-65.8057
 21
165.595
  0
LINE
  8
0
 10
-65.8057
 20
165.595
 11
-63.5331
 21
170.056
  0
LINE
  8
0
 10
-63.5331
 20
170.056
 11
-62.75
 21
175
  0
LINE
  8
0
 10
-62.75
 20
175
 11
-63.5331
 21
179.944
  0
LINE
  8
0
 10
-63.5331
 20
179.944
 11
-65.8057
 21
184.405
  0
LINE
  8
0
 10
-65.8057
 20
184.405
 11
-69.3454
 21
187.944
  0
LINE
  8
0
 10
-69.3454
 20
187.944
 11
-73.8057
 21
190.217
  0
LINE
  8
0
 10
-73.8057
 20
190.217
 11
-78.75
 21
191
  0
LINE
  8
0
 10
-78.75
 20
191
 11
-83.6943
 21
190.217
  0
LINE
  8
0
 10
-83.6943
 20
190.217
 11
-88.1546
 21
187.944
  0
LINE
  8
0
 10
-88.1546
 20
187.944
 11
-91.6943
 21
184.405
  0
LINE
  8
0
 10
-91.6943
 20
184.405
 11
-93.9669
 21
179.944
  0
LINE
  8
0
 10
-93.9669
 20
179.944
 11
-94.75
 21
175
  0
LINE
  8
0
 10
-94.75
 20
175
 11
-93.9669
 21
170.056
  0
LINE
  8
0
 10
-93.9669
 20
170.056
 11
-91.6943
 21
165.595
  0
LINE
  8
0
 10
-91.6943
 20
165.595
 11
-88.1546
 21
162.056
  0
LINE
  8
0
 10
-88.1546
 20
162.056
 11
-83.6943
 21
159.783
  0
LINE
  8
0
 10
-83.6943
 20
159.783
 11
-78.75
 21
159
  0
LINE
  8
0
 10
-78.75
 20
159
 11
-73.8057
 21
159.783
  0
LINE
  8
0
 10
-126.306
 20
159.783
 11
-121.845
 21
162.056
  0
LINE
  8
0
 10
-121.845
 20
162.056
 11
-118.306
 21
165.595
  0
LINE
  8
0
 10
-118.306
 20
165.595
 11
-116.033
 21
170.056
  0
LINE
  8
0
 10
-116.033
 20
170.056
 11
-115.25
 21
175
  0
LINE
  8
0
 10
-115.25
 20
175
 11
-116.033
 21
179.944
  0
LINE
  8
0
 10
-116.033
 20
179.944
 11
-118.306
 21
184.405
  0
LINE
  8
0
 10
-118.306
 20
184.405
 11
-121.845
 21
187.944
  0
LINE
  8
0
 10
-121.845
 20
187.944
 11
-126.306
 21
190.217
  0
LINE
  8
0
 10
-126.306
 20
190.217
 11
-131.25
 21
191
  0
LINE
  8
0
 10
-131.25
 20
191
 11
-136.194
 21
190.217
  0
LINE
  8
0
 10
-136.194
 20
190.217
 11
-140.655
 21
187.944
  0
LINE
  8
0
 10
-140.655
 20
187.944
 11
-144.194
 21
184.405
  0
LINE
  8
0
 10
-144.194
 20
184.405
 11
-146.467
 21
179.944
  0
LINE
  8
0
 10
-146.467
 20
179.944
 11
-147.25
 21
175
  0
LINE
  8
0
 10
-147.25
 20
175
 11
-146.467
 21
170.056
  0
LINE
  8
0
 10
-146.467
 20
170.056
 11
-144.194
 21
165.595
  0
LINE
  8
0
 10
-144.194
 20
165.595
 11
-140.655
 21
162.056
  0
LINE
  8
0
 10
-140.655
 20
162.056
 11
-136.194
 21
159.783
  0
LINE
  8
0
 10
-136.194
 20
159.783
 11
-131.25
 21
159
  0
LINE
  8
0
 10
-131.25
 20
159
 11
-126.306
 21
159.783
  0
LINE
  8
0
 10
293.694
 20
159.783
 11
298.155
 21
162.056
  0
LINE
  8
0
 10
298.155
 20
162.056
 11
301.694
 21
165.595
  0
LINE
  8
0
 10
301.694
 20
165.595
 11
303.967
 21
170.056
  0
LINE
  8
0
 10
303.967
 20
170.056
 11
304.75
 21
175
  0
LINE
  8
0
 10
304.75
 20
175
 11
303.967
 21
179.944
  0
LINE
  8
0
 10
303.967
 20
179.944
 11
301.694
 21
184.405
  0
LINE
  8
0
 10
301.694
 20
184.405
 11
298.155
 21
187.944
  0
LINE
  8
0
 10
298.155
 20
187.944
 11
293.694
 21
190.217
  0
LINE
  8
0
 10
293.694
 20
190.217
 11
288.75
 21
191
  0
LINE
  8
0
 10
288.75
 20
191
 11
283.806
 21
190.217
  0
LINE
  8
0
 10
283.806
 20
190.217
 11
279.345
 21
187.944
  0
LINE
  8
0
 10
279.345
 20
187.944
 11
275.806
 21
184.405
  0
LINE
  8
0
 10
275.806
 20
184.405
 11
273.533
 21
179.944
  0
LINE
  8
0
 10
273.533
 20
179.944
 11
272.75
 21
175
  0
LINE
  8
0
 10
272.75
 20
175
 11
273.533
 21
170.056
  0
LINE
  8
0
 10
273.533
 20
170.056
 11
275.806
 21
165.595
  0
LINE
  8
0
 10
275.806
 20
165.595
 11
279.345
 21
162.056
  0
LINE
  8
0
 10
279.345
 20
162.056
 11
283.806
 21
159.783
  0
LINE
  8
0
 10
283.806
 20
159.783
 11
288.75
 21
159
  0
LINE
  8
0
 10
288.75
 20
159
 11
293.694
 21
159.783
  0
LINE
  8
0
 10
-283.806
 20
159.783
 11
-279.345
 21
162.056
  0
LINE
  8
0
 10
-279.345
 20
162.056
 11
-275.806
 21
165.595
  0
LINE
  8
0
 10
-275.806
 20
165.595
 11
-273.533
 21
170.056
  0
LINE
  8
0
 10
-273.533
 20
170.056
 11
-272.75
 21
175
  0
LINE
  8
0
 10
-272.75
 20
175
 11
-273.533
 21
179.944
  0
LINE
  8
0
 10
-273.533
 20
179.944
 11
-275.806
 21
184.405
  0
LINE
  8
0
 10
-275.806
 20
184.405
 11
-279.345
 21
187.944
  0
LINE
  8
0
 10
-279.345
 20
187.944
 11
-283.806
 21
190.217
  0
LINE
  8
0
 10
-283.806
 20
190.217
 11
-288.75
 21
191
  0
LINE
  8
0
 10
-288.75
 20
191
 11
-293.694
 21
190.217
  0
LINE
  8
0
 10
-293.694
 20
190.217
 11
-298.155
 21
187.944
  0
LINE
  8
0
 10
-298.155
 20
187.944
 11
-301.694
 21
184.405
  0
LINE
  8
0
 10
-301.694
 20
184.405
 11
-303.967
 21
179.944
  0
LINE
  8
0
 10
-303.967
 20
179.944
 11
-304.75
 21
175
  0
LINE
  8
0
 10
-304.75
 20
175
 11
-303.967
 21
170.056
  0
LINE
  8
0
 10
-303.967
 20
170.056
 11
-301.694
 21
165.595
  0
LINE
  8
0
 10
-301.694
 20
165.595
 11
-298.155
 21
162.056
  0
LINE
  8
0
 10
-298.155
 20
162.056
 11
-293.694
 21
159.783
  0
LINE
  8
0
 10
-293.694
 20
159.783
 11
-288.75
 21
159
  0
LINE
  8
0
 10
-288.75
 20
159
 11
-283.806
 21
159.783
  0
LINE
  8
0
 10
-231.306
 20
159.783
 11
-226.845
 21
162.056
  0
LINE
  8
0
 10
-226.845
 20
162.056
 11
-223.306
 21
165.595
  0
LINE
  8
0
 10
-223.306
 20
165.595
 11
-221.033
 21
170.056
  0
LINE
  8
0
 10
-221.033
 20
170.056
 11
-220.25
 21
175
  0
LINE
  8
0
 10
-220.25
 20
175
 11
-221.033
 21
179.944
  0
LINE
  8
0
 10
-221.033
 20
179.944
 11
-223.306
 21
184.405
  0
LINE
  8
0
 10
-223.306
 20
184.405
 11
-226.845
 21
187.944
  0
LINE
  8
0
 10
-226.845
 20
187.944
 11
-231.306
 21
190.217
  0
LINE
  8
0
 10
-231.306
 20
190.217
 11
-236.25
 21
191
  0
LINE
  8
0
 10
-236.25
 20
191
 11
-241.194
 21
190.217
  0
LINE
  8
0
 10
-241.194
 20
190.217
 11
-245.655
 21
187.944
  0
LINE
  8
0
 10
-245.655
 20
187.944
 11
-249.194
 21
184.405
  0
LINE
  8
0
 10
-249.194
 20
184.405
 11
-251.467
 21
179.944
  0
LINE
  8
0
 10
-251.467
 20
179.944
 11
-252.25
 21
175
  0
LINE
  8
0
 10
-252.25
 20
175
 11
-251.467
 21
170.056
  0
LINE
  8
0
 10
-251.467
 20
170.056
 11
-249.194
 21
165.595
  0
LINE
  8
0
 10
-249.194
 20
165.595
 11
-245.655
 21
162.056
  0
LINE
  8
0
 10
-245.655
 20
162.056
 11
-241.194
 21
159.783
  0
LINE
  8
0
 10
-241.194
 20
159.783
 11
-236.25
 21
159
  0
LINE
  8
0
 10
-236.25
 20
159
 11
-231.306
 21
159.783
  0
LINE
  8
0
 10
-178.806
 20
159.783
 11
-174.345
 21
162.056
  0
LINE
  8
0
 10
-174.345
 20
162.056
 11
-170.806
 21
165.595
  0
LINE
  8
0
 10
-170.806
 20
165.595
 11
-168.533
 21
170.056
  0
LINE
  8
0
 10
-168.533
 20
170.056
 11
-167.75
 21
175
  0
LINE
  8
0
 10
-167.75
 20
175
 11
-168.533
 21
179.944
  0
LINE
  8
0
 10
-168.533
 20
179.944
 11
-170.806
 21
184.405
  0
LINE
  8
0
 10
-170.806
 20
184.405
 11
-174.345
 21
187.944
  0
LINE
  8
0
 10
-174.345
 20
187.944
 11
-178.806
 21
190.217
  0
LINE
  8
0
 10
-178.806
 20
190.217
 11
-183.75
 21
191
  0
LINE
  8
0
 10
-183.75
 20
191
 11
-188.694
 21
190.217
  0
LINE
  8
0
 10
-188.694
 20
190.217
 11
-193.155
 21
187.944
  0
LINE
  8
0
 10
-193.155
 20
187.944
 11
-196.694
 21
184.405
  0
LINE
  8
0
 10
-196.694
 20
184.405
 11
-198.967
 21
179.944
  0
LINE
  8
0
 10
-198.967
 20
179.944
 11
-199.75
 21
175
  0
LINE
  8
0
 10
-199.75
 20
175
 11
-198.967
 21
170.056
  0
LINE
  8
0
 10
-198.967
 20
170.056
 11
-196.694
 21
165.595
  0
LINE
  8
0
 10
-196.694
 20
165.595
 11
-193.155
 21
162.056
  0
LINE
  8
0
 10
-193.155
 20
162.056
 11
-188.694
 21
159.783
  0
LINE
  8
0
 10
-188.694
 20
159.783
 11
-183.75
 21
159
  0
LINE
  8
0
 10
-183.75
 20
159
 11
-178.806
 21
159.783
  0
LINE
  8
0
 10
-178.806
 20
109.783
 11
-174.345
 21
112.056
  0
LINE
  8
0
 10
-174.345
 20
112.056
 11
-170.806
 21
115.595
  0
LINE
  8
0
 10
-170.806
 20
115.595
 11
-168.533
 21
120.056
  0
LINE
  8
0
 10
-168.533
 20
120.056
 11
-167.75
 21
125
  0
LINE
  8
0
 10
-167.75
 20
125
 11
-168.533
 21
129.944
  0
LINE
  8
0
 10
-168.533
 20
129.944
 11
-170.806
 21
134.405
  0
LINE
  8
0
 10
-170.806
 20
134.405
 11
-174.345
 21
137.944
  0
LINE
  8
0
 10
-174.345
 20
137.944
 11
-178.806
 21
140.217
  0
LINE
  8
0
 10
-178.806
 20
140.217
 11
-183.75
 21
141
  0
LINE
  8
0
 10
-183.75
 20
141
 11
-188.694
 21
140.217
  0
LINE
  8
0
 10
-188.694
 20
140.217
 11
-193.155
 21
137.944
  0
LINE
  8
0
 10
-193.155
 20
137.944
 11
-196.694
 21
134.405
  0
LINE
  8
0
 10
-196.694
 20
134.405
 11
-198.967
 21
129.944
  0
LINE
  8
0
 10
-198.967
 20
129.944
 11
-199.75
 21
125
  0
LINE
  8
0
 10
-199.75
 20
125
 11
-198.967
 21
120.056
  0
LINE
  8
0
 10
-198.967
 20
120.056
 11
-196.694
 21
115.595
  0
LINE
  8
0
 10
-196.694
 20
115.595
 11
-193.155
 21
112.056
  0
LINE
  8
0
 10
-193.155
 20
112.056
 11
-188.694
 21
109.783
  0
LINE
  8
0
 10
-188.694
 20
109.783
 11
-183.75
 21
109
  0
LINE
  8
0
 10
-183.75
 20
109
 11
-178.806
 21
109.783
  0
LINE
  8
0
 10
-21.3057
 20
109.783
 11
-16.8454
 21
112.056
  0
LINE
  8
0
 10
-16.8454
 20
112.056
 11
-13.3057
 21
115.595
  0
LINE
  8
0
 10
-13.3057
 20
115.595
 11
-11.0331
 21
120.056
  0
LINE
  8
0
 10
-11.0331
 20
120.056
 11
-10.25
 21
125
  0
LINE
  8
0
 10
-10.25
 20
125
 11
-11.0331
 21
129.944
  0
LINE
  8
0
 10
-11.0331
 20
129.944
 11
-13.3057
 21
134.405
  0
LINE
  8
0
 10
-13.3057
 20
134.405
 11
-16.8454
 21
137.944
  0
LINE
  8
0
 10
-16.8454
 20
137.944
 11
-21.3057
 21
140.217
  0
LINE
  8
0
 10
-21.3057
 20
140.217
 11
-26.25
 21
141
  0
LINE
  8
0
 10
-26.25
 20
141
 11
-31.1943
 21
140.217
  0
LINE
  8
0
 10
-31.1943
 20
140.217
 11
-35.6546
 21
137.944
  0
LINE
  8
0
 10
-35.6546
 20
137.944
 11
-39.1943
 21
134.405
  0
LINE
  8
0
 10
-39.1943
 20
134.405
 11
-41.4669
 21
129.944
  0
LINE
  8
0
 10
-41.4669
 20
129.944
 11
-42.25
 21
125
  0
LINE
  8
0
 10
-42.25
 20
125
 11
-41.4669
 21
120.056
  0
LINE
  8
0
 10
-41.4669
 20
120.056
 11
-39.1943
 21
115.595
  0
LINE
  8
0
 10
-39.1943
 20
115.595
 11
-35.6546
 21
112.056
  0
LINE
  8
0
 10
-35.6546
 20
112.056
 11
-31.1943
 21
109.783
  0
LINE
  8
0
 10
-31.1943
 20
109.783
 11
-26.25
 21
109
  0
LINE
  8
0
 10
-26.25
 20
109
 11
-21.3057
 21
109.783
  0
LINE
  8
0
 10
-73.8057
 20
109.783
 11
-69.3454
 21
112.056
  0
LINE
  8
0
 10
-69.3454
 20
112.056
 11
-65.8057
 21
115.595
  0
LINE
  8
0
 10
-65.8057
 20
115.595
 11
-63.5331
 21
120.056
  0
LINE
  8
0
 10
-63.5331
 20
120.056
 11
-62.75
 21
125
  0
LINE
  8
0
 10
-62.75
 20
125
 11
-63.5331
 21
129.944
  0
LINE
  8
0
 10
-63.5331
 20
129.944
 11
-65.8057
 21
134.405
  0
LINE
  8
0
 10
-65.8057
 20
134.405
 11
-69.3454
 21
137.944
  0
LINE
  8
0
 10
-69.3454
 20
137.944
 11
-73.8057
 21
140.217
  0
LINE
  8
0
 10
-73.8057
 20
140.217
 11
-78.75
 21
141
  0
LINE
  8
0
 10
-78.75
 20
141
 11
-83.6943
 21
140.217
  0
LINE
  8
0
 10
-83.6943
 20
140.217
 11
-88.1546
 21
137.944
  0
LINE
  8
0
 10
-88.1546
 20
137.944
 11
-91.6943
 21
134.405
  0
LINE
  8
0
 10
-91.6943
 20
134.405
 11
-93.9669
 21
129.944
  0
LINE
  8
0
 10
-93.9669
 20
129.944
 11
-94.75
 21
125
  0
LINE
  8
0
 10
-94.75
 20
125
 11
-93.9669
 21
120.056
  0
LINE
  8
0
 10
-93.9669
 20
120.056
 11
-91.6943
 21
115.595
  0
LINE
  8
0
 10
-91.6943
 20
115.595
 11
-88.1546
 21
112.056
  0
LINE
  8
0
 10
-88.1546
 20
112.056
 11
-83.6943
 21
109.783
  0
LINE
  8
0
 10
-83.6943
 20
109.783
 11
-78.75
 21
109
  0
LINE
  8
0
 10
-78.75
 20
109
 11
-73.8057
 21
109.783
  0
LINE
  8
0
 10
31.1943
 20
109.783
 11
35.6546
 21
112.056
  0
LINE
  8
0
 10
35.6546
 20
112.056
 11
39.1943
 21
115.595
  0
LINE
  8
0
 10
39.1943
 20
115.595
 11
41.4669
 21
120.056
  0
LINE
  8
0
 10
41.4669
 20
120.056
 11
42.25
 21
125
  0
LINE
  8
0
 10
42.25
 20
125
 11
41.4669
 21
129.944
  0
LINE
  8
0
 10
41.4669
 20
129.944
 11
39.1943
 21
134.405
  0
LINE
  8
0
 10
39.1943
 20
134.405
 11
35.6546
 21
137.944
  0
LINE
  8
0
 10
35.6546
 20
137.944
 11
31.1943
 21
140.217
  0
LINE
  8
0
 10
31.1943
 20
140.217
 11
26.25
 21
141
  0
LINE
  8
0
 10
26.25
 20
141
 11
21.3057
 21
140.217
  0
LINE
  8
0
 10
21.3057
 20
140.217
 11
16.8454
 21
137.944
  0
LINE
  8
0
 10
16.8454
 20
137.944
 11
13.3057
 21
134.405
  0
LINE
  8
0
 10
13.3057
 20
134.405
 11
11.0331
 21
129.944
  0
LINE
  8
0
 10
11.0331
 20
129.944
 11
10.25
 21
125
  0
LINE
  8
0
 10
10.25
 20
125
 11
11.0331
 21
120.056
  0
LINE
  8
0
 10
11.0331
 20
120.056
 11
13.3057
 21
115.595
  0
LINE
  8
0
 10
13.3057
 20
115.595
 11
16.8454
 21
112.056
  0
LINE
  8
0
 10
16.8454
 20
112.056
 11
21.3057
 21
109.783
  0
LINE
  8
0
 10
21.3057
 20
109.783
 11
26.25
 21
109
  0
LINE
  8
0
 10
26.25
 20
109
 11
31.1943
 21
109.783
  0
LINE
  8
0
 10
-231.306
 20
109.783
 11
-226.845
 21
112.056
  0
LINE
  8
0
 10
-226.845
 20
112.056
 11
-223.306
 21
115.595
  0
LINE
  8
0
 10
-223.306
 20
115.595
 11
-221.033
 21
120.056
  0
LINE
  8
0
 10
-221.033
 20
120.056
 11
-220.25
 21
125
  0
LINE
  8
0
 10
-220.25
 20
125
 11
-221.033
 21
129.944
  0
LINE
  8
0
 10
-221.033
 20
129.944
 11
-223.306
 21
134.405
  0
LINE
  8
0
 10
-223.306
 20
134.405
 11
-226.845
 21
137.944
  0
LINE
  8
0
 10
-226.845
 20
137.944
 11
-231.306
 21
140.217
  0
LINE
  8
0
 10
-231.306
 20
140.217
 11
-236.25
 21
141
  0
LINE
  8
0
 10
-236.25
 20
141
 11
-241.194
 21
140.217
  0
LINE
  8
0
 10
-241.194
 20
140.217
 11
-245.655
 21
137.944
  0
LINE
  8
0
 10
-245.655
 20
137.944
 11
-249.194
 21
134.405
  0
LINE
  8
0
 10
-249.194
 20
134.405
 11
-251.467
 21
129.944
  0
LINE
  8
0
 10
-251.467
 20
129.944
 11
-252.25
 21
125
  0
LINE
  8
0
 10
-252.25
 20
125
 11
-251.467
 21
120.056
  0
LINE
  8
0
 10
-251.467
 20
120.056
 11
-249.194
 21
115.595
  0
LINE
  8
0
 10
-249.194
 20
115.595
 11
-245.655
 21
112.056
  0
LINE
  8
0
 10
-245.655
 20
112.056
 11
-241.194
 21
109.783
  0
LINE
  8
0
 10
-241.194
 20
109.783
 11
-236.25
 21
109
  0
LINE
  8
0
 10
-236.25
 20
109
 11
-231.306
 21
109.783
  0
LINE
  8
0
 10
83.6943
 20
109.783
 11
88.1546
 21
112.056
  0
LINE
  8
0
 10
88.1546
 20
112.056
 11
91.6943
 21
115.595
  0
LINE
  8
0
 10
91.6943
 20
115.595
 11
93.9669
 21
120.056
  0
LINE
  8
0
 10
93.9669
 20
120.056
 11
94.75
 21
125
  0
LINE
  8
0
 10
94.75
 20
125
 11
93.9669
 21
129.944
  0
LINE
  8
0
 10
93.9669
 20
129.944
 11
91.6943
 21
134.405
  0
LINE
  8
0
 10
91.6943
 20
134.405
 11
88.1546
 21
137.944
  0
LINE
  8
0
 10
88.1546
 20
137.944
 11
83.6943
 21
140.217
  0
LINE
  8
0
 10
83.6943
 20
140.217
 11
78.75
 21
141
  0
LINE
  8
0
 10
78.75
 20
141
 11
73.8057
 21
140.217
  0
LINE
  8
0
 10
73.8057
 20
140.217
 11
69.3454
 21
137.944
  0
LINE
  8
0
 10
69.3454
 20
137.944
 11
65.8057
 21
134.405
  0
LINE
  8
0
 10
65.8057
 20
134.405
 11
63.5331
 21
129.944
  0
LINE
  8
0
 10
63.5331
 20
129.944
 11
62.75
 21
125
  0
LINE
  8
0
 10
62.75
 20
125
 11
63.5331
 21
120.056
  0
LINE
  8
0
 10
63.5331
 20
120.056
 11
65.8057
 21
115.595
  0
LINE
  8
0
 10
65.8057
 20
115.595
 11
69.3454
 21
112.056
  0
LINE
  8
0
 10
69.3454
 20
112.056
 11
73.8057
 21
109.783
  0
LINE
  8
0
 10
73.8057
 20
109.783
 11
78.75
 21
109
  0
LINE
  8
0
 10
78.75
 20
109
 11
83.6943
 21
109.783
  0
LINE
  8
0
 10
136.194
 20
109.783
 11
140.655
 21
112.056
  0
LINE
  8
0
 10
140.655
 20
112.056
 11
144.194
 21
115.595
  0
LINE
  8
0
 10
144.194
 20
115.595
 11
146.467
 21
120.056
  0
LINE
  8
0
 10
146.467
 20
120.056
 11
147.25
 21
125
  0
LINE
  8
0
 10
147.25
 20
125
 11
146.467
 21
129.944
  0
LINE
  8
0
 10
146.467
 20
129.944
 11
144.194
 21
134.405
  0
LINE
  8
0
 10
144.194
 20
134.405
 11
140.655
 21
137.944
  0
LINE
  8
0
 10
140.655
 20
137.944
 11
136.194
 21
140.217
  0
LINE
  8
0
 10
136.194
 20
140.217
 11
131.25
 21
141
  0
LINE
  8
0
 10
131.25
 20
141
 11
126.306
 21
140.217
  0
LINE
  8
0
 10
126.306
 20
140.217
 11
121.845
 21
137.944
  0
LINE
  8
0
 10
121.845
 20
137.944
 11
118.306
 21
134.405
  0
LINE
  8
0
 10
118.306
 20
134.405
 11
116.033
 21
129.944
  0
LINE
  8
0
 10
116.033
 20
129.944
 11
115.25
 21
125
  0
LINE
  8
0
 10
115.25
 20
125
 11
116.033
 21
120.056
  0
LINE
  8
0
 10
116.033
 20
120.056
 11
118.306
 21
115.595
  0
LINE
  8
0
 10
118.306
 20
115.595
 11
121.845
 21
112.056
  0
LINE
  8
0
 10
121.845
 20
112.056
 11
126.306
 21
109.783
  0
LINE
  8
0
 10
126.306
 20
109.783
 11
131.25
 21
109
  0
LINE
  8
0
 10
131.25
 20
109
 11
136.194
 21
109.783
  0
LINE
  8
0
 10
188.694
 20
109.783
 11
193.155
 21
112.056
  0
LINE
  8
0
 10
193.155
 20
112.056
 11
196.694
 21
115.595
  0
LINE
  8
0
 10
196.694
 20
115.595
 11
198.967
 21
120.056
  0
LINE
  8
0
 10
198.967
 20
120.056
 11
199.75
 21
125
  0
LINE
  8
0
 10
199.75
 20
125
 11
198.967
 21
129.944
  0
LINE
  8
0
 10
198.967
 20
129.944
 11
196.694
 21
134.405
  0
LINE
  8
0
 10
196.694
 20
134.405
 11
193.155
 21
137.944
  0
LINE
  8
0
 10
193.155
 20
137.944
 11
188.694
 21
140.217
  0
LINE
  8
0
 10
188.694
 20
140.217
 11
183.75
 21
141
  0
LINE
  8
0
 10
183.75
 20
141
 11
178.806
 21
140.217
  0
LINE
  8
0
 10
178.806
 20
140.217
 11
174.345
 21
137.944
  0
LINE
  8
0
 10
174.345
 20
137.944
 11
170.806
 21
134.405
  0
LINE
  8
0
 10
170.806
 20
134.405
 11
168.533
 21
129.944
  0
LINE
  8
0
 10
168.533
 20
129.944
 11
167.75
 21
125
  0
LINE
  8
0
 10
167.75
 20
125
 11
168.533
 21
120.056
  0
LINE
  8
0
 10
168.533
 20
120.056
 11
170.806
 21
115.595
  0
LINE
  8
0
 10
170.806
 20
115.595
 11
174.345
 21
112.056
  0
LINE
  8
0
 10
174.345
 20
112.056
 11
178.806
 21
109.783
  0
LINE
  8
0
 10
178.806
 20
109.783
 11
183.75
 21
109
  0
LINE
  8
0
 10
183.75
 20
109
 11
188.694
 21
109.783
  0
LINE
  8
0
 10
-126.306
 20
109.783
 11
-121.845
 21
112.056
  0
LINE
  8
0
 10
-121.845
 20
112.056
 11
-118.306
 21
115.595
  0
LINE
  8
0
 10
-118.306
 20
115.595
 11
-116.033
 21
120.056
  0
LINE
  8
0
 10
-116.033
 20
120.056
 11
-115.25
 21
125
  0
LINE
  8
0
 10
-115.25
 20
125
 11
-116.033
 21
129.944
  0
LINE
  8
0
 10
-116.033
 20
129.944
 11
-118.306
 21
134.405
  0
LINE
  8
0
 10
-118.306
 20
134.405
 11
-121.845
 21
137.944
  0
LINE
  8
0
 10
-121.845
 20
137.944
 11
-126.306
 21
140.217
  0
LINE
  8
0
 10
-126.306
 20
140.217
 11
-131.25
 21
141
  0
LINE
  8
0
 10
-131.25
 20
141
 11
-136.194
 21
140.217
  0
LINE
  8
0
 10
-136.194
 20
140.217
 11
-140.655
 21
137.944
  0
LINE
  8
0
 10
-140.655
 20
137.944
 11
-144.194
 21
134.405
  0
LINE
  8
0
 10
-144.194
 20
134.405
 11
-146.467
 21
129.944
  0
LINE
  8
0
 10
-146.467
 20
129.944
 11
-147.25
 21
125
  0
LINE
  8
0
 10
-147.25
 20
125
 11
-146.467
 21
120.056
  0
LINE
  8
0
 10
-146.467
 20
120.056
 11
-144.194
 21
115.595
  0
LINE
  8
0
 10
-144.194
 20
115.595
 11
-140.655
 21
112.056
  0
LINE
  8
0
 10
-140.655
 20
112.056
 11
-136.194
 21
109.783
  0
LINE
  8
0
 10
-136.194
 20
109.783
 11
-131.25
 21
109
  0
LINE
  8
0
 10
-131.25
 20
109
 11
-126.306
 21
109.783
  0
LINE
  8
0
 10
241.194
 20
109.783
 11
245.655
 21
112.056
  0
LINE
  8
0
 10
245.655
 20
112.056
 11
249.194
 21
115.595
  0
LINE
  8
0
 10
249.194
 20
115.595
 11
251.467
 21
120.056
  0
LINE
  8
0
 10
251.467
 20
120.056
 11
252.25
 21
125
  0
LINE
  8
0
 10
252.25
 20
125
 11
251.467
 21
129.944
  0
LINE
  8
0
 10
251.467
 20
129.944
 11
249.194
 21
134.405
  0
LINE
  8
0
 10
249.194
 20
134.405
 11
245.655
 21
137.944
  0
LINE
  8
0
 10
245.655
 20
137.944
 11
241.194
 21
140.217
  0
LINE
  8
0
 10
241.194
 20
140.217
 11
236.25
 21
141
  0
LINE
  8
0
 10
236.25
 20
141
 11
231.306
 21
140.217
  0
LINE
  8
0
 10
231.306
 20
140.217
 11
226.845
 21
137.944
  0
LINE
  8
0
 10
226.845
 20
137.944
 11
223.306
 21
134.405
  0
LINE
  8
0
 10
223.306
 20
134.405
 11
221.033
 21
129.944
  0
LINE
  8
0
 10
221.033
 20
129.944
 11
220.25
 21
125
  0
LINE
  8
0
 10
220.25
 20
125
 11
221.033
 21
120.056
  0
LINE
  8
0
 10
221.033
 20
120.056
 11
223.306
 21
115.595
  0
LINE
  8
0
 10
223.306
 20
115.595
 11
226.845
 21
112.056
  0
LINE
  8
0
 10
226.845
 20
112.056
 11
231.306
 21
109.783
  0
LINE
  8
0
 10
231.306
 20
109.783
 11
236.25
 21
109
  0
LINE
  8
0
 10
236.25
 20
109
 11
241.194
 21
109.783
  0
LINE
  8
0
 10
-283.806
 20
109.783
 11
-279.345
 21
112.056
  0
LINE
  8
0
 10
-279.345
 20
112.056
 11
-275.806
 21
115.595
  0
LINE
  8
0
 10
-275.806
 20
115.595
 11
-273.533
 21
120.056
  0
LINE
  8
0
 10
-273.533
 20
120.056
 11
-272.75
 21
125
  0
LINE
  8
0
 10
-272.75
 20
125
 11
-273.533
 21
129.944
  0
LINE
  8
0
 10
-273.533
 20
129.944
 11
-275.806
 21
134.405
  0
LINE
  8
0
 10
-275.806
 20
134.405
 11
-279.345
 21
137.944
  0
LINE
  8
0
 10
-279.345
 20
137.944
 11
-283.806
 21
140.217
  0
LINE
  8
0
 10
-283.806
 20
140.217
 11
-288.75
 21
141
  0
LINE
  8
0
 10
-288.75
 20
141
 11
-293.694
 21
140.217
  0
LINE
  8
0
 10
-293.694
 20
140.217
 11
-298.155
 21
137.944
  0
LINE
  8
0
 10
-298.155
 20
137.944
 11
-301.694
 21
134.405
  0
LINE
  8
0
 10
-301.694
 20
134.405
 11
-303.967
 21
129.944
  0
LINE
  8
0
 10
-303.967
 20
129.944
 11
-304.75
 21
125
  0
LINE
  8
0
 10
-304.75
 20
125
 11
-303.967
 21
120.056
  0
LINE
  8
0
 10
-303.967
 20
120.056
 11
-301.694
 21
115.595
  0
LINE
  8
0
 10
-301.694
 20
115.595
 11
-298.155
 21
112.056
  0
LINE
  8
0
 10
-298.155
 20
112.056
 11
-293.694
 21
109.783
  0
LINE
  8
0
 10
-293.694
 20
109.783
 11
-288.75
 21
109
  0
LINE
  8
0
 10
-288.75
 20
109
 11
-283.806
 21
109.783
  0
LINE
  8
0
 10
293.694
 20
109.783
 11
298.155
 21
112.056
  0
LINE
  8
0
 10
298.155
 20
112.056
 11
301.694
 21
115.595
  0
LINE
  8
0
 10
301.694
 20
115.595
 11
303.967
 21
120.056
  0
LINE
  8
0
 10
303.967
 20
120.056
 11
304.75
 21
125
  0
LINE
  8
0
 10
304.75
 20
125
 11
303.967
 21
129.944
  0
LINE
  8
0
 10
303.967
 20
129.944
 11
301.694
 21
134.405
  0
LINE
  8
0
 10
301.694
 20
134.405
 11
298.155
 21
137.944
  0
LINE
  8
0
 10
298.155
 20
137.944
 11
293.694
 21
140.217
  0
LINE
  8
0
 10
293.694
 20
140.217
 11
288.75
 21
141
  0
LINE
  8
0
 10
288.75
 20
141
 11
283.806
 21
140.217
  0
LINE
  8
0
 10
283.806
 20
140.217
 11
279.345
 21
137.944
  0
LINE
  8
0
 10
279.345
 20
137.944
 11
275.806
 21
134.405
  0
LINE
  8
0
 10
275.806
 20
134.405
 11
273.533
 21
129.944
  0
LINE
  8
0
 10
273.533
 20
129.944
 11
272.75
 21
125
  0
LINE
  8
0
 10
272.75
 20
125
 11
273.533
 21
120.056
  0
LINE
  8
0
 10
273.533
 20
120.056
 11
275.806
 21
115.595
  0
LINE
  8
0
 10
275.806
 20
115.595
 11
279.345
 21
112.056
  0
LINE
  8
0
 10
279.345
 20
112.056
 11
283.806
 21
109.783
  0
LINE
  8
0
 10
283.806
 20
109.783
 11
288.75
 21
109
  0
LINE
  8
0
 10
288.75
 20
109
 11
293.694
 21
109.783
  0
LINE
  8
0
 10
188.694
 20
59.7831
 11
193.155
 21
62.0557
  0
LINE
  8
0
 10
193.155
 20
62.0557
 11
196.694
 21
65.5954
  0
LINE
  8
0
 10
196.694
 20
65.5954
 11
198.967
 21
70.0557
  0
LINE
  8
0
 10
198.967
 20
70.0557
 11
199.75
 21
75
  0
LINE
  8
0
 10
199.75
 20
75
 11
198.967
 21
79.9443
  0
LINE
  8
0
 10
198.967
 20
79.9443
 11
196.694
 21
84.4046
  0
LINE
  8
0
 10
196.694
 20
84.4046
 11
193.155
 21
87.9443
  0
LINE
  8
0
 10
193.155
 20
87.9443
 11
188.694
 21
90.2169
  0
LINE
  8
0
 10
188.694
 20
90.2169
 11
183.75
 21
91
  0
LINE
  8
0
 10
183.75
 20
91
 11
178.806
 21
90.2169
  0
LINE
  8
0
 10
178.806
 20
90.2169
 11
174.345
 21
87.9443
  0
LINE
  8
0
 10
174.345
 20
87.9443
 11
170.806
 21
84.4046
  0
LINE
  8
0
 10
170.806
 20
84.4046
 11
168.533
 21
79.9443
  0
LINE
  8
0
 10
168.533
 20
79.9443
 11
167.75
 21
75
  0
LINE
  8
0
 10
167.75
 20
75
 11
168.533
 21
70.0557
  0
LINE
  8
0
 10
168.533
 20
70.0557
 11
170.806
 21
65.5954
  0
LINE
  8
0
 10
170.806
 20
65.5954
 11
174.345
 21
62.0557
  0
LINE
  8
0
 10
174.345
 20
62.0557
 11
178.806
 21
59.7831
  0
LINE
  8
0
 10
178.806
 20
59.7831
 11
183.75
 21
59
  0
LINE
  8
0
 10
183.75
 20
59
 11
188.694
 21
59.7831
  0
LINE
  8
0
 10
136.194
 20
59.7831
 11
140.655
 21
62.0557
  0
LINE
  8
0
 10
140.655
 20
62.0557
 11
144.194
 21
65.5954
  0
LINE
  8
0
 10
144.194
 20
65.5954
 11
146.467
 21
70.0557
  0
LINE
  8
0
 10
146.467
 20
70.0557
 11
147.25
 21
75
  0
LINE
  8
0
 10
147.25
 20
75
 11
146.467
 21
79.9443
  0
LINE
  8
0
 10
146.467
 20
79.9443
 11
144.194
 21
84.4046
  0
LINE
  8
0
 10
144.194
 20
84.4046
 11
140.655
 21
87.9443
  0
LINE
  8
0
 10
140.655
 20
87.9443
 11
136.194
 21
90.2169
  0
LINE
  8
0
 10
136.194
 20
90.2169
 11
131.25
 21
91
  0
LINE
  8
0
 10
131.25
 20
91
 11
126.306
 21
90.2169
  0
LINE
  8
0
 10
126.306
 20
90.2169
 11
121.845
 21
87.9443
  0
LINE
  8
0
 10
121.845
 20
87.9443
 11
118.306
 21
84.4046
  0
LINE
  8
0
 10
118.306
 20
84.4046
 11
116.033
 21
79.9443
  0
LINE
  8
0
 10
116.033
 20
79.9443
 11
115.25
 21
75
  0
LINE
  8
0
 10
115.25
 20
75
 11
116.033
 21
70.0557
  0
LINE
  8
0
 10
116.033
 20
70.0557
 11
118.306
 21
65.5954
  0
LINE
  8
0
 10
118.306
 20
65.5954
 11
121.845
 21
62.0557
  0
LINE
  8
0
 10
121.845
 20
62.0557
 11
126.306
 21
59.7831
  0
LINE
  8
0
 10
126.306
 20
59.7831
 11
131.25
 21
59
  0
LINE
  8
0
 10
131.25
 20
59
 11
136.194
 21
59.7831
  0
LINE
  8
0
 10
83.6943
 20
59.7831
 11
88.1546
 21
62.0557
  0
LINE
  8
0
 10
88.1546
 20
62.0557
 11
91.6943
 21
65.5954
  0
LINE
  8
0
 10
91.6943
 20
65.5954
 11
93.9669
 21
70.0557
  0
LINE
  8
0
 10
93.9669
 20
70.0557
 11
94.75
 21
75
  0
LINE
  8
0
 10
94.75
 20
75
 11
93.9669
 21
79.9443
  0
LINE
  8
0
 10
93.9669
 20
79.9443
 11
91.6943
 21
84.4046
  0
LINE
  8
0
 10
91.6943
 20
84.4046
 11
88.1546
 21
87.9443
  0
LINE
  8
0
 10
88.1546
 20
87.9443
 11
83.6943
 21
90.2169
  0
LINE
  8
0
 10
83.6943
 20
90.2169
 11
78.75
 21
91
  0
LINE
  8
0
 10
78.75
 20
91
 11
73.8057
 21
90.2169
  0
LINE
  8
0
 10
73.8057
 20
90.2169
 11
69.3454
 21
87.9443
  0
LINE
  8
0
 10
69.3454
 20
87.9443
 11
65.8057
 21
84.4046
  0
LINE
  8
0
 10
65.8057
 20
84.4046
 11
63.5331
 21
79.9443
  0
LINE
  8
0
 10
63.5331
 20
79.9443
 11
62.75
 21
75
  0
LINE
  8
0
 10
62.75
 20
75
 11
63.5331
 21
70.0557
  0
LINE
  8
0
 10
63.5331
 20
70.0557
 11
65.8057
 21
65.5954
  0
LINE
  8
0
 10
65.8057
 20
65.5954
 11
69.3454
 21
62.0557
  0
LINE
  8
0
 10
69.3454
 20
62.0557
 11
73.8057
 21
59.7831
  0
LINE
  8
0
 10
73.8057
 20
59.7831
 11
78.75
 21
59
  0
LINE
  8
0
 10
78.75
 20
59
 11
83.6943
 21
59.7831
  0
LINE
  8
0
 10
241.194
 20
59.7831
 11
245.655
 21
62.0557
  0
LINE
  8
0
 10
245.655
 20
62.0557
 11
249.194
 21
65.5954
  0
LINE
  8
0
 10
249.194
 20
65.5954
 11
251.467
 21
70.0557
  0
LINE
  8
0
 10
251.467
 20
70.0557
 11
252.25
 21
75
  0
LINE
  8
0
 10
252.25
 20
75
 11
251.467
 21
79.9443
  0
LINE
  8
0
 10
251.467
 20
79.9443
 11
249.194
 21
84.4046
  0
LINE
  8
0
 10
249.194
 20
84.4046
 11
245.655
 21
87.9443
  0
LINE
  8
0
 10
245.655
 20
87.9443
 11
241.194
 21
90.2169
  0
LINE
  8
0
 10
241.194
 20
90.2169
 11
236.25
 21
91
  0
LINE
  8
0
 10
236.25
 20
91
 11
231.306
 21
90.2169
  0
LINE
  8
0
 10
231.306
 20
90.2169
 11
226.845
 21
87.9443
  0
LINE
  8
0
 10
226.845
 20
87.9443
 11
223.306
 21
84.4046
  0
LINE
  8
0
 10
223.306
 20
84.4046
 11
221.033
 21
79.9443
  0
LINE
  8
0
 10
221.033
 20
79.9443
 11
220.25
 21
75
  0
LINE
  8
0
 10
220.25
 20
75
 11
221.033
 21
70.0557
  0
LINE
  8
0
 10
221.033
 20
70.0557
 11
223.306
 21
65.5954
  0
LINE
  8
0
 10
223.306
 20
65.5954
 11
226.845
 21
62.0557
  0
LINE
  8
0
 10
226.845
 20
62.0557
 11
231.306
 21
59.7831
  0
LINE
  8
0
 10
231.306
 20
59.7831
 11
236.25
 21
59
  0
LINE
  8
0
 10
236.25
 20
59
 11
241.194
 21
59.7831
  0
LINE
  8
0
 10
-283.806
 20
59.7831
 11
-279.345
 21
62.0557
  0
LINE
  8
0
 10
-279.345
 20
62.0557
 11
-275.806
 21
65.5954
  0
LINE
  8
0
 10
-275.806
 20
65.5954
 11
-273.533
 21
70.0557
  0
LINE
  8
0
 10
-273.533
 20
70.0557
 11
-272.75
 21
75
  0
LINE
  8
0
 10
-272.75
 20
75
 11
-273.533
 21
79.9443
  0
LINE
  8
0
 10
-273.533
 20
79.9443
 11
-275.806
 21
84.4046
  0
LINE
  8
0
 10
-275.806
 20
84.4046
 11
-279.345
 21
87.9443
  0
LINE
  8
0
 10
-279.345
 20
87.9443
 11
-283.806
 21
90.2169
  0
LINE
  8
0
 10
-283.806
 20
90.2169
 11
-288.75
 21
91
  0
LINE
  8
0
 10
-288.75
 20
91
 11
-293.694
 21
90.2169
  0
LINE
  8
0
 10
-293.694
 20
90.2169
 11
-298.155
 21
87.9443
  0
LINE
  8
0
 10
-298.155
 20
87.9443
 11
-301.694
 21
84.4046
  0
LINE
  8
0
 10
-301.694
 20
84.4046
 11
-303.967
 21
79.9443
  0
LINE
  8
0
 10
-303.967
 20
79.9443
 11
-304.75
 21
75
  0
LINE
  8
0
 10
-304.75
 20
75
 11
-303.967
 21
70.0557
  0
LINE
  8
0
 10
-303.967
 20
70.0557
 11
-301.694
 21
65.5954
  0
LINE
  8
0
 10
-301.694
 20
65.5954
 11
-298.155
 21
62.0557
  0
LINE
  8
0
 10
-298.155
 20
62.0557
 11
-293.694
 21
59.7831
  0
LINE
  8
0
 10
-293.694
 20
59.7831
 11
-288.75
 21
59
  0
LINE
  8
0
 10
-288.75
 20
59
 11
-283.806
 21
59.7831
  0
LINE
  8
0
 10
31.1943
 20
59.7831
 11
35.6546
 21
62.0557
  0
LINE
  8
0
 10
35.6546
 20
62.0557
 11
39.1943
 21
65.5954
  0
LINE
  8
0
 10
39.1943
 20
65.5954
 11
41.4669
 21
70.0557
  0
LINE
  8
0
 10
41.4669
 20
70.0557
 11
42.25
 21
75
  0
LINE
  8
0
 10
42.25
 20
75
 11
41.4669
 21
79.9443
  0
LINE
  8
0
 10
41.4669
 20
79.9443
 11
39.1943
 21
84.4046
  0
LINE
  8
0
 10
39.1943
 20
84.4046
 11
35.6546
 21
87.9443
  0
LINE
  8
0
 10
35.6546
 20
87.9443
 11
31.1943
 21
90.2169
  0
LINE
  8
0
 10
31.1943
 20
90.2169
 11
26.25
 21
91
  0
LINE
  8
0
 10
26.25
 20
91
 11
21.3057
 21
90.2169
  0
LINE
  8
0
 10
21.3057
 20
90.2169
 11
16.8454
 21
87.9443
  0
LINE
  8
0
 10
16.8454
 20
87.9443
 11
13.3057
 21
84.4046
  0
LINE
  8
0
 10
13.3057
 20
84.4046
 11
11.0331
 21
79.9443
  0
LINE
  8
0
 10
11.0331
 20
79.9443
 11
10.25
 21
75
  0
LINE
  8
0
 10
10.25
 20
75
 11
11.0331
 21
70.0557
  0
LINE
  8
0
 10
11.0331
 20
70.0557
 11
13.3057
 21
65.5954
  0
LINE
  8
0
 10
13.3057
 20
65.5954
 11
16.8454
 21
62.0557
  0
LINE
  8
0
 10
16.8454
 20
62.0557
 11
21.3057
 21
59.7831
  0
LINE
  8
0
 10
21.3057
 20
59.7831
 11
26.25
 21
59
  0
LINE
  8
0
 10
26.25
 20
59
 11
31.1943
 21
59.7831
  0
LINE
  8
0
 10
293.694
 20
59.7831
 11
298.155
 21
62.0557
  0
LINE
  8
0
 10
298.155
 20
62.0557
 11
301.694
 21
65.5954
  0
LINE
  8
0
 10
301.694
 20
65.5954
 11
303.967
 21
70.0557
  0
LINE
  8
0
 10
303.967
 20
70.0557
 11
304.75
 21
75
  0
LINE
  8
0
 10
304.75
 20
75
 11
303.967
 21
79.9443
  0
LINE
  8
0
 10
303.967
 20
79.9443
 11
301.694
 21
84.4046
  0
LINE
  8
0
 10
301.694
 20
84.4046
 11
298.155
 21
87.9443
  0
LINE
  8
0
 10
298.155
 20
87.9443
 11
293.694
 21
90.2169
  0
LINE
  8
0
 10
293.694
 20
90.2169
 11
288.75
 21
91
  0
LINE
  8
0
 10
288.75
 20
91
 11
283.806
 21
90.2169
  0
LINE
  8
0
 10
283.806
 20
90.2169
 11
279.345
 21
87.9443
  0
LINE
  8
0
 10
279.345
 20
87.9443
 11
275.806
 21
84.4046
  0
LINE
  8
0
 10
275.806
 20
84.4046
 11
273.533
 21
79.9443
  0
LINE
  8
0
 10
273.533
 20
79.9443
 11
272.75
 21
75
  0
LINE
  8
0
 10
272.75
 20
75
 11
273.533
 21
70.0557
  0
LINE
  8
0
 10
273.533
 20
70.0557
 11
275.806
 21
65.5954
  0
LINE
  8
0
 10
275.806
 20
65.5954
 11
279.345
 21
62.0557
  0
LINE
  8
0
 10
279.345
 20
62.0557
 11
283.806
 21
59.7831
  0
LINE
  8
0
 10
283.806
 20
59.7831
 11
288.75
 21
59
  0
LINE
  8
0
 10
288.75
 20
59
 11
293.694
 21
59.7831
  0
LINE
  8
0
 10
-231.306
 20
59.7831
 11
-226.845
 21
62.0557
  0
LINE
  8
0
 10
-226.845
 20
62.0557
 11
-223.306
 21
65.5954
  0
LINE
  8
0
 10
-223.306
 20
65.5954
 11
-221.033
 21
70.0557
  0
LINE
  8
0
 10
-221.033
 20
70.0557
 11
-220.25
 21
75
  0
LINE
  8
0
 10
-220.25
 20
75
 11
-221.033
 21
79.9443
  0
LINE
  8
0
 10
-221.033
 20
79.9443
 11
-223.306
 21
84.4046
  0
LINE
  8
0
 10
-223.306
 20
84.4046
 11
-226.845
 21
87.9443
  0
LINE
  8
0
 10
-226.845
 20
87.9443
 11
-231.306
 21
90.2169
  0
LINE
  8
0
 10
-231.306
 20
90.2169
 11
-236.25
 21
91
  0
LINE
  8
0
 10
-236.25
 20
91
 11
-241.194
 21
90.2169
  0
LINE
  8
0
 10
-241.194
 20
90.2169
 11
-245.655
 21
87.9443
  0
LINE
  8
0
 10
-245.655
 20
87.9443
 11
-249.194
 21
84.4046
  0
LINE
  8
0
 10
-249.194
 20
84.4046
 11
-251.467
 21
79.9443
  0
LINE
  8
0
 10
-251.467
 20
79.9443
 11
-252.25
 21
75
  0
LINE
  8
0
 10
-252.25
 20
75
 11
-251.467
 21
70.0557
  0
LINE
  8
0
 10
-251.467
 20
70.0557
 11
-249.194
 21
65.5954
  0
LINE
  8
0
 10
-249.194
 20
65.5954
 11
-245.655
 21
62.0557
  0
LINE
  8
0
 10
-245.655
 20
62.0557
 11
-241.194
 21
59.7831
  0
LINE
  8
0
 10
-241.194
 20
59.7831
 11
-236.25
 21
59
  0
LINE
  8
0
 10
-236.25
 20
59
 11
-231.306
 21
59.7831
  0
LINE
  8
0
 10
-21.3057
 20
59.7831
 11
-16.8454
 21
62.0557
  0
LINE
  8
0
 10
-16.8454
 20
62.0557
 11
-13.3057
 21
65.5954
  0
LINE
  8
0
 10
-13.3057
 20
65.5954
 11
-11.0331
 21
70.0557
  0
LINE
  8
0
 10
-11.0331
 20
70.0557
 11
-10.25
 21
75
  0
LINE
  8
0
 10
-10.25
 20
75
 11
-11.0331
 21
79.9443
  0
LINE
  8
0
 10
-11.0331
 20
79.9443
 11
-13.3057
 21
84.4046
  0
LINE
  8
0
 10
-13.3057
 20
84.4046
 11
-16.8454
 21
87.9443
  0
LINE
  8
0
 10
-16.8454
 20
87.9443
 11
-21.3057
 21
90.2169
  0
LINE
  8
0
 10
-21.3057
 20
90.2169
 11
-26.25
 21
91
  0
LINE
  8
0
 10
-26.25
 20
91
 11
-31.1943
 21
90.2169
  0
LINE
  8
0
 10
-31.1943
 20
90.2169
 11
-35.6546
 21
87.9443
  0
LINE
  8
0
 10
-35.6546
 20
87.9443
 11
-39.1943
 21
84.4046
  0
LINE
  8
0
 10
-39.1943
 20
84.4046
 11
-41.4669
 21
79.9443
  0
LINE
  8
0
 10
-41.4669
 20
79.9443
 11
-42.25
 21
75
  0
LINE
  8
0
 10
-42.25
 20
75
 11
-41.4669
 21
70.0557
  0
LINE
  8
0
 10
-41.4669
 20
70.0557
 11
-39.1943
 21
65.5954
  0
LINE
  8
0
 10
-39.1943
 20
65.5954
 11
-35.6546
 21
62.0557
  0
LINE
  8
0
 10
-35.6546
 20
62.0557
 11
-31.1943
 21
59.7831
  0
LINE
  8
0
 10
-31.1943
 20
59.7831
 11
-26.25
 21
59
  0
LINE
  8
0
 10
-26.25
 20
59
 11
-21.3057
 21
59.7831
  0
LINE
  8
0
 10
-178.806
 20
59.7831
 11
-174.345
 21
62.0557
  0
LINE
  8
0
 10
-174.345
 20
62.0557
 11
-170.806
 21
65.5954
  0
LINE
  8
0
 10
-170.806
 20
65.5954
 11
-168.533
 21
70.0557
  0
LINE
  8
0
 10
-168.533
 20
70.0557
 11
-167.75
 21
75
  0
LINE
  8
0
 10
-167.75
 20
75
 11
-168.533
 21
79.9443
  0
LINE
  8
0
 10
-168.533
 20
79.9443
 11
-170.806
 21
84.4046
  0
LINE
  8
0
 10
-170.806
 20
84.4046
 11
-174.345
 21
87.9443
  0
LINE
  8
0
 10
-174.345
 20
87.9443
 11
-178.806
 21
90.2169
  0
LINE
  8
0
 10
-178.806
 20
90.2169
 11
-183.75
 21
91
  0
LINE
  8
0
 10
-183.75
 20
91
 11
-188.694
 21
90.2169
  0
LINE
  8
0
 10
-188.694
 20
90.2169
 11
-193.155
 21
87.9443
  0
LINE
  8
0
 10
-193.155
 20
87.9443
 11
-196.694
 21
84.4046
  0
LINE
  8
0
 10
-196.694
 20
84.4046
 11
-198.967
 21
79.9443
  0
LINE
  8
0
 10
-198.967
 20
79.9443
 11
-199.75
 21
75
  0
LINE
  8
0
 10
-199.75
 20
75
 11
-198.967
 21
70.0557
  0
LINE
  8
0
 10
-198.967
 20
70.0557
 11
-196.694
 21
65.5954
  0
LINE
  8
0
 10
-196.694
 20
65.5954
 11
-193.155
 21
62.0557
  0
LINE
  8
0
 10
-193.155
 20
62.0557
 11
-188.694
 21
59.7831
  0
LINE
  8
0
 10
-188.694
 20
59.7831
 11
-183.75
 21
59
  0
LINE
  8
0
 10
-183.75
 20
59
 11
-178.806
 21
59.7831
  0
LINE
  8
0
 10
-73.8057
 20
59.7831
 11
-69.3454
 21
62.0557
  0
LINE
  8
0
 10
-69.3454
 20
62.0557
 11
-65.8057
 21
65.5954
  0
LINE
  8
0
 10
-65.8057
 20
65.5954
 11
-63.5331
 21
70.0557
  0
LINE
  8
0
 10
-63.5331
 20
70.0557
 11
-62.75
 21
75
  0
LINE
  8
0
 10
-62.75
 20
75
 11
-63.5331
 21
79.9443
  0
LINE
  8
0
 10
-63.5331
 20
79.9443
 11
-65.8057
 21
84.4046
  0
LINE
  8
0
 10
-65.8057
 20
84.4046
 11
-69.3454
 21
87.9443
  0
LINE
  8
0
 10
-69.3454
 20
87.9443
 11
-73.8057
 21
90.2169
  0
LINE
  8
0
 10
-73.8057
 20
90.2169
 11
-78.75
 21
91
  0
LINE
  8
0
 10
-78.75
 20
91
 11
-83.6943
 21
90.2169
  0
LINE
  8
0
 10
-83.6943
 20
90.2169
 11
-88.1546
 21
87.9443
  0
LINE
  8
0
 10
-88.1546
 20
87.9443
 11
-91.6943
 21
84.4046
  0
LINE
  8
0
 10
-91.6943
 20
84.4046
 11
-93.9669
 21
79.9443
  0
LINE
  8
0
 10
-93.9669
 20
79.9443
 11
-94.75
 21
75
  0
LINE
  8
0
 10
-94.75
 20
75
 11
-93.9669
 21
70.0557
  0
LINE
  8
0
 10
-93.9669
 20
70.0557
 11
-91.6943
 21
65.5954
  0
LINE
  8
0
 10
-91.6943
 20
65.5954
 11
-88.1546
 21
62.0557
  0
LINE
  8
0
 10
-88.1546
 20
62.0557
 11
-83.6943
 21
59.7831
  0
LINE
  8
0
 10
-83.6943
 20
59.7831
 11
-78.75
 21
59
  0
LINE
  8
0
 10
-78.75
 20
59
 11
-73.8057
 21
59.7831
  0
LINE
  8
0
 10
-126.306
 20
59.7831
 11
-121.845
 21
62.0557
  0
LINE
  8
0
 10
-121.845
 20
62.0557
 11
-118.306
 21
65.5954
  0
LINE
  8
0
 10
-118.306
 20
65.5954
 11
-116.033
 21
70.0557
  0
LINE
  8
0
 10
-116.033
 20
70.0557
 11
-115.25
 21
75
  0
LINE
  8
0
 10
-115.25
 20
75
 11
-116.033
 21
79.9443
  0
LINE
  8
0
 10
-116.033
 20
79.9443
 11
-118.306
 21
84.4046
  0
LINE
  8
0
 10
-118.306
 20
84.4046
 11
-121.845
 21
87.9443
  0
LINE
  8
0
 10
-121.845
 20
87.9443
 11
-126.306
 21
90.2169
  0
LINE
  8
0
 10
-126.306
 20
90.2169
 11
-131.25
 21
91
  0
LINE
  8
0
 10
-131.25
 20
91
 11
-136.194
 21
90.2169
  0
LINE
  8
0
 10
-136.194
 20
90.2169
 11
-140.655
 21
87.9443
  0
LINE
  8
0
 10
-140.655
 20
87.9443
 11
-144.194
 21
84.4046
  0
LINE
  8
0
 10
-144.194
 20
84.4046
 11
-146.467
 21
79.9443
  0
LINE
  8
0
 10
-146.467
 20
79.9443
 11
-147.25
 21
75
  0
LINE
  8
0
 10
-147.25
 20
75
 11
-146.467
 21
70.0557
  0
LINE
  8
0
 10
-146.467
 20
70.0557
 11
-144.194
 21
65.5954
  0
LINE
  8
0
 10
-144.194
 20
65.5954
 11
-140.655
 21
62.0557
  0
LINE
  8
0
 10
-140.655
 20
62.0557
 11
-136.194
 21
59.7831
  0
LINE
  8
0
 10
-136.194
 20
59.7831
 11
-131.25
 21
59
  0
LINE
  8
0
 10
-131.25
 20
59
 11
-126.306
 21
59.7831
  0
LINE
  8
0
 10
83.6943
 20
9.78308
 11
88.1546
 21
12.0557
  0
LINE
  8
0
 10
88.1546
 20
12.0557
 11
91.6943
 21
15.5954
  0
LINE
  8
0
 10
91.6943
 20
15.5954
 11
93.9669
 21
20.0557
  0
LINE
  8
0
 10
93.9669
 20
20.0557
 11
94.75
 21
25
  0
LINE
  8
0
 10
94.75
 20
25
 11
93.9669
 21
29.9443
  0
LINE
  8
0
 10
93.9669
 20
29.9443
 11
91.6943
 21
34.4046
  0
LINE
  8
0
 10
91.6943
 20
34.4046
 11
88.1546
 21
37.9443
  0
LINE
  8
0
 10
88.1546
 20
37.9443
 11
83.6943
 21
40.2169
  0
LINE
  8
0
 10
83.6943
 20
40.2169
 11
78.75
 21
41
  0
LINE
  8
0
 10
78.75
 20
41
 11
73.8057
 21
40.2169
  0
LINE
  8
0
 10
73.8057
 20
40.2169
 11
69.3454
 21
37.9443
  0
LINE
  8
0
 10
69.3454
 20
37.9443
 11
65.8057
 21
34.4046
  0
LINE
  8
0
 10
65.8057
 20
34.4046
 11
63.5331
 21
29.9443
  0
LINE
  8
0
 10
63.5331
 20
29.9443
 11
62.75
 21
25
  0
LINE
  8
0
 10
62.75
 20
25
 11
63.5331
 21
20.0557
  0
LINE
  8
0
 10
63.5331
 20
20.0557
 11
65.8057
 21
15.5954
  0
LINE
  8
0
 10
65.8057
 20
15.5954
 11
69.3454
 21
12.0557
  0
LINE
  8
0
 10
69.3454
 20
12.0557
 11
73.8057
 21
9.78308
  0
LINE
  8
0
 10
73.8057
 20
9.78308
 11
78.75
 21
9
  0
LINE
  8
0
 10
78.75
 20
9
 11
83.6943
 21
9.78308
  0
LINE
  8
0
 10
31.1943
 20
9.78308
 11
35.6546
 21
12.0557
  0
LINE
  8
0
 10
35.6546
 20
12.0557
 11
39.1943
 21
15.5954
  0
LINE
  8
0
 10
39.1943
 20
15.5954
 11
41.4669
 21
20.0557
  0
LINE
  8
0
 10
41.4669
 20
20.0557
 11
42.25
 21
25
  0
LINE
  8
0
 10
42.25
 20
25
 11
41.4669
 21
29.9443
  0
LINE
  8
0
 10
41.4669
 20
29.9443
 11
39.1943
 21
34.4046
  0
LINE
  8
0
 10
39.1943
 20
34.4046
 11
35.6546
 21
37.9443
  0
LINE
  8
0
 10
35.6546
 20
37.9443
 11
31.1943
 21
40.2169
  0
LINE
  8
0
 10
31.1943
 20
40.2169
 11
26.25
 21
41
  0
LINE
  8
0
 10
26.25
 20
41
 11
21.3057
 21
40.2169
  0
LINE
  8
0
 10
21.3057
 20
40.2169
 11
16.8454
 21
37.9443
  0
LINE
  8
0
 10
16.8454
 20
37.9443
 11
13.3057
 21
34.4046
  0
LINE
  8
0
 10
13.3057
 20
34.4046
 11
11.0331
 21
29.9443
  0
LINE
  8
0
 10
11.0331
 20
29.9443
 11
10.25
 21
25
  0
LINE
  8
0
 10
10.25
 20
25
 11
11.0331
 21
20.0557
  0
LINE
  8
0
 10
11.0331
 20
20.0557
 11
13.3057
 21
15.5954
  0
LINE
  8
0
 10
13.3057
 20
15.5954
 11
16.8454
 21
12.0557
  0
LINE
  8
0
 10
16.8454
 20
12.0557
 11
21.3057
 21
9.78308
  0
LINE
  8
0
 10
21.3057
 20
9.78308
 11
26.25
 21
9
  0
LINE
  8
0
 10
26.25
 20
9
 11
31.1943
 21
9.78308
  0
LINE
  8
0
 10
-231.306
 20
9.78308
 11
-226.845
 21
12.0557
  0
LINE
  8
0
 10
-226.845
 20
12.0557
 11
-223.306
 21
15.5954
  0
LINE
  8
0
 10
-223.306
 20
15.5954
 11
-221.033
 21
20.0557
  0
LINE
  8
0
 10
-221.033
 20
20.0557
 11
-220.25
 21
25
  0
LINE
  8
0
 10
-220.25
 20
25
 11
-221.033
 21
29.9443
  0
LINE
  8
0
 10
-221.033
 20
29.9443
 11
-223.306
 21
34.4046
  0
LINE
  8
0
 10
-223.306
 20
34.4046
 11
-226.845
 21
37.9443
  0
LINE
  8
0
 10
-226.845
 20
37.9443
 11
-231.306
 21
40.2169
  0
LINE
  8
0
 10
-231.306
 20
40.2169
 11
-236.25
 21
41
  0
LINE
  8
0
 10
-236.25
 20
41
 11
-241.194
 21
40.2169
  0
LINE
  8
0
 10
-241.194
 20
40.2169
 11
-245.655
 21
37.9443
  0
LINE
  8
0
 10
-245.655
 20
37.9443
 11
-249.194
 21
34.4046
  0
LINE
  8
0
 10
-249.194
 20
34.4046
 11
-251.467
 21
29.9443
  0
LINE
  8
0
 10
-251.467
 20
29.9443
 11
-252.25
 21
25
  0
LINE
  8
0
 10
-252.25
 20
25
 11
-251.467
 21
20.0557
  0
LINE
  8
0
 10
-251.467
 20
20.0557
 11
-249.194
 21
15.5954
  0
LINE
  8
0
 10
-249.194
 20
15.5954
 11
-245.655
 21
12.0557
  0
LINE
  8
0
 10
-245.655
 20
12.0557
 11
-241.194
 21
9.78308
  0
LINE
  8
0
 10
-241.194
 20
9.78308
 11
-236.25
 21
9
  0
LINE
  8
0
 10
-236.25
 20
9
 11
-231.306
 21
9.78308
  0
LINE
  8
0
 10
-178.806
 20
9.78308
 11
-174.345
 21
12.0557
  0
LINE
  8
0
 10
-174.345
 20
12.0557
 11
-170.806
 21
15.5954
  0
LINE
  8
0
 10
-170.806
 20
15.5954
 11
-168.533
 21
20.0557
  0
LINE
  8
0
 10
-168.533
 20
20.0557
 11
-167.75
 21
25
  0
LINE
  8
0
 10
-167.75
 20
25
 11
-168.533
 21
29.9443
  0
LINE
  8
0
 10
-168.533
 20
29.9443
 11
-170.806
 21
34.4046
  0
LINE
  8
0
 10
-170.806
 20
34.4046
 11
-174.345
 21
37.9443
  0
LINE
  8
0
 10
-174.345
 20
37.9443
 11
-178.806
 21
40.2169
  0
LINE
  8
0
 10
-178.806
 20
40.2169
 11
-183.75
 21
41
  0
LINE
  8
0
 10
-183.75
 20
41
 11
-188.694
 21
40.2169
  0
LINE
  8
0
 10
-188.694
 20
40.2169
 11
-193.155
 21
37.9443
  0
LINE
  8
0
 10
-193.155
 20
37.9443
 11
-196.694
 21
34.4046
  0
LINE
  8
0
 10
-196.694
 20
34.4046
 11
-198.967
 21
29.9443
  0
LINE
  8
0
 10
-198.967
 20
29.9443
 11
-199.75
 21
25
  0
LINE
  8
0
 10
-199.75
 20
25
 11
-198.967
 21
20.0557
  0
LINE
  8
0
 10
-198.967
 20
20.0557
 11
-196.694
 21
15.5954
  0
LINE
  8
0
 10
-196.694
 20
15.5954
 11
-193.155
 21
12.0557
  0
LINE
  8
0
 10
-193.155
 20
12.0557
 11
-188.694
 21
9.78308
  0
LINE
  8
0
 10
-188.694
 20
9.78308
 11
-183.75
 21
9
  0
LINE
  8
0
 10
-183.75
 20
9
 11
-178.806
 21
9.78308
  0
LINE
  8
0
 10
293.694
 20
9.78308
 11
298.155
 21
12.0557
  0
LINE
  8
0
 10
298.155
 20
12.0557
 11
301.694
 21
15.5954
  0
LINE
  8
0
 10
301.694
 20
15.5954
 11
303.967
 21
20.0557
  0
LINE
  8
0
 10
303.967
 20
20.0557
 11
304.75
 21
25
  0
LINE
  8
0
 10
304.75
 20
25
 11
303.967
 21
29.9443
  0
LINE
  8
0
 10
303.967
 20
29.9443
 11
301.694
 21
34.4046
  0
LINE
  8
0
 10
301.694
 20
34.4046
 11
298.155
 21
37.9443
  0
LINE
  8
0
 10
298.155
 20
37.9443
 11
293.694
 21
40.2169
  0
LINE
  8
0
 10
293.694
 20
40.2169
 11
288.75
 21
41
  0
LINE
  8
0
 10
288.75
 20
41
 11
283.806
 21
40.2169
  0
LINE
  8
0
 10
283.806
 20
40.2169
 11
279.345
 21
37.9443
  0
LINE
  8
0
 10
279.345
 20
37.9443
 11
275.806
 21
34.4046
  0
LINE
  8
0
 10
275.806
 20
34.4046
 11
273.533
 21
29.9443
  0
LINE
  8
0
 10
273.533
 20
29.9443
 11
272.75
 21
25
  0
LINE
  8
0
 10
272.75
 20
25
 11
273.533
 21
20.0557
  0
LINE
  8
0
 10
273.533
 20
20.0557
 11
275.806
 21
15.5954
  0
LINE
  8
0
 10
275.806
 20
15.5954
 11
279.345
 21
12.0557
  0
LINE
  8
0
 10
279.345
 20
12.0557
 11
283.806
 21
9.78308
  0
LINE
  8
0
 10
283.806
 20
9.78308
 11
288.75
 21
9
  0
LINE
  8
0
 10
288.75
 20
9
 11
293.694
 21
9.78308
  0
LINE
  8
0
 10
188.694
 20
9.78308
 11
193.155
 21
12.0557
  0
LINE
  8
0
 10
193.155
 20
12.0557
 11
196.694
 21
15.5954
  0
LINE
  8
0
 10
196.694
 20
15.5954
 11
198.967
 21
20.0557
  0
LINE
  8
0
 10
198.967
 20
20.0557
 11
199.75
 21
25
  0
LINE
  8
0
 10
199.75
 20
25
 11
198.967
 21
29.9443
  0
LINE
  8
0
 10
198.967
 20
29.9443
 11
196.694
 21
34.4046
  0
LINE
  8
0
 10
196.694
 20
34.4046
 11
193.155
 21
37.9443
  0
LINE
  8
0
 10
193.155
 20
37.9443
 11
188.694
 21
40.2169
  0
LINE
  8
0
 10
188.694
 20
40.2169
 11
183.75
 21
41
  0
LINE
  8
0
 10
183.75
 20
41
 11
178.806
 21
40.2169
  0
LINE
  8
0
 10
178.806
 20
40.2169
 11
174.345
 21
37.9443
  0
LINE
  8
0
 10
174.345
 20
37.9443
 11
170.806
 21
34.4046
  0
LINE
  8
0
 10
170.806
 20
34.4046
 11
168.533
 21
29.9443
  0
LINE
  8
0
 10
168.533
 20
29.9443
 11
167.75
 21
25
  0
LINE
  8
0
 10
167.75
 20
25
 11
168.533
 21
20.0557
  0
LINE
  8
0
 10
168.533
 20
20.0557
 11
170.806
 21
15.5954
  0
LINE
  8
0
 10
170.806
 20
15.5954
 11
174.345
 21
12.0557
  0
LINE
  8
0
 10
174.345
 20
12.0557
 11
178.806
 21
9.78308
  0
LINE
  8
0
 10
178.806
 20
9.78308
 11
183.75
 21
9
  0
LINE
  8
0
 10
183.75
 20
9
 11
188.694
 21
9.78308
  0
LINE
  8
0
 10
-21.3057
 20
9.78308
 11
-16.8454
 21
12.0557
  0
LINE
  8
0
 10
-16.8454
 20
12.0557
 11
-13.3057
 21
15.5954
  0
LINE
  8
0
 10
-13.3057
 20
15.5954
 11
-11.0331
 21
20.0557
  0
LINE
  8
0
 10
-11.0331
 20
20.0557
 11
-10.25
 21
25
  0
LINE
  8
0
 10
-10.25
 20
25
 11
-11.0331
 21
29.9443
  0
LINE
  8
0
 10
-11.0331
 20
29.9443
 11
-13.3057
 21
34.4046
  0
LINE
  8
0
 10
-13.3057
 20
34.4046
 11
-16.8454
 21
37.9443
  0
LINE
  8
0
 10
-16.8454
 20
37.9443
 11
-21.3057
 21
40.2169
  0
LINE
  8
0
 10
-21.3057
 20
40.2169
 11
-26.25
 21
41
  0
LINE
  8
0
 10
-26.25
 20
41
 11
-31.1943
 21
40.2169
  0
LINE
  8
0
 10
-31.1943
 20
40.2169
 11
-35.6546
 21
37.9443
  0
LINE
  8
0
 10
-35.6546
 20
37.9443
 11
-39.1943
 21
34.4046
  0
LINE
  8
0
 10
-39.1943
 20
34.4046
 11
-41.4669
 21
29.9443
  0
LINE
  8
0
 10
-41.4669
 20
29.9443
 11
-42.25
 21
25
  0
LINE
  8
0
 10
-42.25
 20
25
 11
-41.4669
 21
20.0557
  0
LINE
  8
0
 10
-41.4669
 20
20.0557
 11
-39.1943
 21
15.5954
  0
LINE
  8
0
 10
-39.1943
 20
15.5954
 11
-35.6546
 21
12.0557
  0
LINE
  8
0
 10
-35.6546
 20
12.0557
 11
-31.1943
 21
9.78308
  0
LINE
  8
0
 10
-31.1943
 20
9.78308
 11
-26.25
 21
9
  0
LINE
  8
0
 10
-26.25
 20
9
 11
-21.3057
 21
9.78308
  0
LINE
  8
0
 10
-73.8057
 20
9.78308
 11
-69.3454
 21
12.0557
  0
LINE
  8
0
 10
-69.3454
 20
12.0557
 11
-65.8057
 21
15.5954
  0
LINE
  8
0
 10
-65.8057
 20
15.5954
 11
-63.5331
 21
20.0557
  0
LINE
  8
0
 10
-63.5331
 20
20.0557
 11
-62.75
 21
25
  0
LINE
  8
0
 10
-62.75
 20
25
 11
-63.5331
 21
29.9443
  0
LINE
  8
0
 10
-63.5331
 20
29.9443
 11
-65.8057
 21
34.4046
  0
LINE
  8
0
 10
-65.8057
 20
34.4046
 11
-69.3454
 21
37.9443
  0
LINE
  8
0
 10
-69.3454
 20
37.9443
 11
-73.8057
 21
40.2169
  0
LINE
  8
0
 10
-73.8057
 20
40.2169
 11
-78.75
 21
41
  0
LINE
  8
0
 10
-78.75
 20
41
 11
-83.6943
 21
40.2169
  0
LINE
  8
0
 10
-83.6943
 20
40.2169
 11
-88.1546
 21
37.9443
  0
LINE
  8
0
 10
-88.1546
 20
37.9443
 11
-91.6943
 21
34.4046
  0
LINE
  8
0
 10
-91.6943
 20
34.4046
 11
-93.9669
 21
29.9443
  0
LINE
  8
0
 10
-93.9669
 20
29.9443
 11
-94.75
 21
25
  0
LINE
  8
0
 10
-94.75
 20
25
 11
-93.9669
 21
20.0557
  0
LINE
  8
0
 10
-93.9669
 20
20.0557
 11
-91.6943
 21
15.5954
  0
LINE
  8
0
 10
-91.6943
 20
15.5954
 11
-88.1546
 21
12.0557
  0
LINE
  8
0
 10
-88.1546
 20
12.0557
 11
-83.6943
 21
9.78308
  0
LINE
  8
0
 10
-83.6943
 20
9.78308
 11
-78.75
 21
9
  0
LINE
  8
0
 10
-78.75
 20
9
 11
-73.8057
 21
9.78308
  0
LINE
  8
0
 10
241.194
 20
9.78308
 11
245.655
 21
12.0557
  0
LINE
  8
0
 10
245.655
 20
12.0557
 11
249.194
 21
15.5954
  0
LINE
  8
0
 10
249.194
 20
15.5954
 11
251.467
 21
20.0557
  0
LINE
  8
0
 10
251.467
 20
20.0557
 11
252.25
 21
25
  0
LINE
  8
0
 10
252.25
 20
25
 11
251.467
 21
29.9443
  0
LINE
  8
0
 10
251.467
 20
29.9443
 11
249.194
 21
34.4046
  0
LINE
  8
0
 10
249.194
 20
34.4046
 11
245.655
 21
37.9443
  0
LINE
  8
0
 10
245.655
 20
37.9443
 11
241.194
 21
40.2169
  0
LINE
  8
0
 10
241.194
 20
40.2169
 11
236.25
 21
41
  0
LINE
  8
0
 10
236.25
 20
41
 11
231.306
 21
40.2169
  0
LINE
  8
0
 10
231.306
 20
40.2169
 11
226.845
 21
37.9443
  0
LINE
  8
0
 10
226.845
 20
37.9443
 11
223.306
 21
34.4046
  0
LINE
  8
0
 10
223.306
 20
34.4046
 11
221.033
 21
29.9443
  0
LINE
  8
0
 10
221.033
 20
29.9443
 11
220.25
 21
25
  0
LINE
  8
0
 10
220.25
 20
25
 11
221.033
 21
20.0557
  0
LINE
  8
0
 10
221.033
 20
20.0557
 11
223.306
 21
15.5954
  0
LINE
  8
0
 10
223.306
 20
15.5954
 11
226.845
 21
12.0557
  0
LINE
  8
0
 10
226.845
 20
12.0557
 11
231.306
 21
9.78308
  0
LINE
  8
0
 10
231.306
 20
9.78308
 11
236.25
 21
9
  0
LINE
  8
0
 10
236.25
 20
9
 11
241.194
 21
9.78308
  0
LINE
  8
0
 10
-283.806
 20
9.78308
 11
-279.345
 21
12.0557
  0
LINE
  8
0
 10
-279.345
 20
12.0557
 11
-275.806
 21
15.5954
  0
LINE
  8
0
 10
-275.806
 20
15.5954
 11
-273.533
 21
20.0557
  0
LINE
  8
0
 10
-273.533
 20
20.0557
 11
-272.75
 21
25
  0
LINE
  8
0
 10
-272.75
 20
25
 11
-273.533
 21
29.9443
  0
LINE
  8
0
 10
-273.533
 20
29.9443
 11
-275.806
 21
34.4046
  0
LINE
  8
0
 10
-275.806
 20
34.4046
 11
-279.345
 21
37.9443
  0
LINE
  8
0
 10
-279.345
 20
37.9443
 11
-283.806
 21
40.2169
  0
LINE
  8
0
 10
-283.806
 20
40.2169
 11
-288.75
 21
41
  0
LINE
  8
0
 10
-288.75
 20
41
 11
-293.694
 21
40.2169
  0
LINE
  8
0
 10
-293.694
 20
40.2169
 11
-298.155
 21
37.9443
  0
LINE
  8
0
 10
-298.155
 20
37.9443
 11
-301.694
 21
34.4046
  0
LINE
  8
0
 10
-301.694
 20
34.4046
 11
-303.967
 21
29.9443
  0
LINE
  8
0
 10
-303.967
 20
29.9443
 11
-304.75
 21
25
  0
LINE
  8
0
 10
-304.75
 20
25
 11
-303.967
 21
20.0557
  0
LINE
  8
0
 10
-303.967
 20
20.0557
 11
-301.694
 21
15.5954
  0
LINE
  8
0
 10
-301.694
 20
15.5954
 11
-298.155
 21
12.0557
  0
LINE
  8
0
 10
-298.155
 20
12.0557
 11
-293.694
 21
9.78308
  0
LINE
  8
0
 10
-293.694
 20
9.78308
 11
-288.75
 21
9
  0
LINE
  8
0
 10
-288.75
 20
9
 11
-283.806
 21
9.78308
  0
LINE
  8
0
 10
-126.306
 20
9.78308
 11
-121.845
 21
12.0557
  0
LINE
  8
0
 10
-121.845
 20
12.0557
 11
-118.306
 21
15.5954
  0
LINE
  8
0
 10
-118.306
 20
15.5954
 11
-116.033
 21
20.0557
  0
LINE
  8
0
 10
-116.033
 20
20.0557
 11
-115.25
 21
25
  0
LINE
  8
0
 10
-115.25
 20
25
 11
-116.033
 21
29.9443
  0
LINE
  8
0
 10
-116.033
 20
29.9443
 11
-118.306
 21
34.4046
  0
LINE
  8
0
 10
-118.306
 20
34.4046
 11
-121.845
 21
37.9443
  0
LINE
  8
0
 10
-121.845
 20
37.9443
 11
-126.306
 21
40.2169
  0
LINE
  8
0
 10
-126.306
 20
40.2169
 11
-131.25
 21
41
  0
LINE
  8
0
 10
-131.25
 20
41
 11
-136.194
 21
40.2169
  0
LINE
  8
0
 10
-136.194
 20
40.2169
 11
-140.655
 21
37.9443
  0
LINE
  8
0
 10
-140.655
 20
37.9443
 11
-144.194
 21
34.4046
  0
LINE
  8
0
 10
-144.194
 20
34.4046
 11
-146.467
 21
29.9443
  0
LINE
  8
0
 10
-146.467
 20
29.9443
 11
-147.25
 21
25
  0
LINE
  8
0
 10
-147.25
 20
25
 11
-146.467
 21
20.0557
  0
LINE
  8
0
 10
-146.467
 20
20.0557
 11
-144.194
 21
15.5954
  0
LINE
  8
0
 10
-144.194
 20
15.5954
 11
-140.655
 21
12.0557
  0
LINE
  8
0
 10
-140.655
 20
12.0557
 11
-136.194
 21
9.78308
  0
LINE
  8
0
 10
-136.194
 20
9.78308
 11
-131.25
 21
9
  0
LINE
  8
0
 10
-131.25
 20
9
 11
-126.306
 21
9.78308
  0
LINE
  8
0
 10
136.194
 20
9.78308
 11
140.655
 21
12.0557
  0
LINE
  8
0
 10
140.655
 20
12.0557
 11
144.194
 21
15.5954
  0
LINE
  8
0
 10
144.194
 20
15.5954
 11
146.467
 21
20.0557
  0
LINE
  8
0
 10
146.467
 20
20.0557
 11
147.25
 21
25
  0
LINE
  8
0
 10
147.25
 20
25
 11
146.467
 21
29.9443
  0
LINE
  8
0
 10
146.467
 20
29.9443
 11
144.194
 21
34.4046
  0
LINE
  8
0
 10
144.194
 20
34.4046
 11
140.655
 21
37.9443
  0
LINE
  8
0
 10
140.655
 20
37.9443
 11
136.194
 21
40.2169
  0
LINE
  8
0
 10
136.194
 20
40.2169
 11
131.25
 21
41
  0
LINE
  8
0
 10
131.25
 20
41
 11
126.306
 21
40.2169
  0
LINE
  8
0
 10
126.306
 20
40.2169
 11
121.845
 21
37.9443
  0
LINE
  8
0
 10
121.845
 20
37.9443
 11
118.306
 21
34.4046
  0
LINE
  8
0
 10
118.306
 20
34.4046
 11
116.033
 21
29.9443
  0
LINE
  8
0
 10
116.033
 20
29.9443
 11
115.25
 21
25
  0
LINE
  8
0
 10
115.25
 20
25
 11
116.033
 21
20.0557
  0
LINE
  8
0
 10
116.033
 20
20.0557
 11
118.306
 21
15.5954
  0
LINE
  8
0
 10
118.306
 20
15.5954
 11
121.845
 21
12.0557
  0
LINE
  8
0
 10
121.845
 20
12.0557
 11
126.306
 21
9.78308
  0
LINE
  8
0
 10
126.306
 20
9.78308
 11
131.25
 21
9
  0
LINE
  8
0
 10
131.25
 20
9
 11
136.194
 21
9.78308
  0
LINE
  8
0
 10
-283.806
 20
-40.2169
 11
-279.345
 21
-37.9443
  0
LINE
  8
0
 10
-279.345
 20
-37.9443
 11
-275.806
 21
-34.4046
  0
LINE
  8
0
 10
-275.806
 20
-34.4046
 11
-273.533
 21
-29.9443
  0
LINE
  8
0
 10
-273.533
 20
-29.9443
 11
-272.75
 21
-25
  0
LINE
  8
0
 10
-272.75
 20
-25
 11
-273.533
 21
-20.0557
  0
LINE
  8
0
 10
-273.533
 20
-20.0557
 11
-275.806
 21
-15.5954
  0
LINE
  8
0
 10
-275.806
 20
-15.5954
 11
-279.345
 21
-12.0557
  0
LINE
  8
0
 10
-279.345
 20
-12.0557
 11
-283.806
 21
-9.78308
  0
LINE
  8
0
 10
-283.806
 20
-9.78308
 11
-288.75
 21
-9
  0
LINE
  8
0
 10
-288.75
 20
-9
 11
-293.694
 21
-9.78308
  0
LINE
  8
0
 10
-293.694
 20
-9.78308
 11
-298.155
 21
-12.0557
  0
LINE
  8
0
 10
-298.155
 20
-12.0557
 11
-301.694
 21
-15.5954
  0
LINE
  8
0
 10
-301.694
 20
-15.5954
 11
-303.967
 21
-20.0557
  0
LINE
  8
0
 10
-303.967
 20
-20.0557
 11
-304.75
 21
-25
  0
LINE
  8
0
 10
-304.75
 20
-25
 11
-303.967
 21
-29.9443
  0
LINE
  8
0
 10
-303.967
 20
-29.9443
 11
-301.694
 21
-34.4046
  0
LINE
  8
0
 10
-301.694
 20
-34.4046
 11
-298.155
 21
-37.9443
  0
LINE
  8
0
 10
-298.155
 20
-37.9443
 11
-293.694
 21
-40.2169
  0
LINE
  8
0
 10
-293.694
 20
-40.2169
 11
-288.75
 21
-41
  0
LINE
  8
0
 10
-288.75
 20
-41
 11
-283.806
 21
-40.2169
  0
LINE
  8
0
 10
241.194
 20
-40.2169
 11
245.655
 21
-37.9443
  0
LINE
  8
0
 10
245.655
 20
-37.9443
 11
249.194
 21
-34.4046
  0
LINE
  8
0
 10
249.194
 20
-34.4046
 11
251.467
 21
-29.9443
  0
LINE
  8
0
 10
251.467
 20
-29.9443
 11
252.25
 21
-25
  0
LINE
  8
0
 10
252.25
 20
-25
 11
251.467
 21
-20.0557
  0
LINE
  8
0
 10
251.467
 20
-20.0557
 11
249.194
 21
-15.5954
  0
LINE
  8
0
 10
249.194
 20
-15.5954
 11
245.655
 21
-12.0557
  0
LINE
  8
0
 10
245.655
 20
-12.0557
 11
241.194
 21
-9.78308
  0
LINE
  8
0
 10
241.194
 20
-9.78308
 11
236.25
 21
-9
  0
LINE
  8
0
 10
236.25
 20
-9
 11
231.306
 21
-9.78308
  0
LINE
  8
0
 10
231.306
 20
-9.78308
 11
226.845
 21
-12.0557
  0
LINE
  8
0
 10
226.845
 20
-12.0557
 11
223.306
 21
-15.5954
  0
LINE
  8
0
 10
223.306
 20
-15.5954
 11
221.033
 21
-20.0557
  0
LINE
  8
0
 10
221.033
 20
-20.0557
 11
220.25
 21
-25
  0
LINE
  8
0
 10
220.25
 20
-25
 11
221.033
 21
-29.9443
  0
LINE
  8
0
 10
221.033
 20
-29.9443
 11
223.306
 21
-34.4046
  0
LINE
  8
0
 10
223.306
 20
-34.4046
 11
226.845
 21
-37.9443
  0
LINE
  8
0
 10
226.845
 20
-37.9443
 11
231.306
 21
-40.2169
  0
LINE
  8
0
 10
231.306
 20
-40.2169
 11
236.25
 21
-41
  0
LINE
  8
0
 10
236.25
 20
-41
 11
241.194
 21
-40.2169
  0
LINE
  8
0
 10
31.1943
 20
-40.2169
 11
35.6546
 21
-37.9443
  0
LINE
  8
0
 10
35.6546
 20
-37.9443
 11
39.1943
 21
-34.4046
  0
LINE
  8
0
 10
39.1943
 20
-34.4046
 11
41.4669
 21
-29.9443
  0
LINE
  8
0
 10
41.4669
 20
-29.9443
 11
42.25
 21
-25
  0
LINE
  8
0
 10
42.25
 20
-25
 11
41.4669
 21
-20.0557
  0
LINE
  8
0
 10
41.4669
 20
-20.0557
 11
39.1943
 21
-15.5954
  0
LINE
  8
0
 10
39.1943
 20
-15.5954
 11
35.6546
 21
-12.0557
  0
LINE
  8
0
 10
35.6546
 20
-12.0557
 11
31.1943
 21
-9.78308
  0
LINE
  8
0
 10
31.1943
 20
-9.78308
 11
26.25
 21
-9
  0
LINE
  8
0
 10
26.25
 20
-9
 11
21.3057
 21
-9.78308
  0
LINE
  8
0
 10
21.3057
 20
-9.78308
 11
16.8454
 21
-12.0557
  0
LINE
  8
0
 10
16.8454
 20
-12.0557
 11
13.3057
 21
-15.5954
  0
LINE
  8
0
 10
13.3057
 20
-15.5954
 11
11.0331
 21
-20.0557
  0
LINE
  8
0
 10
11.0331
 20
-20.0557
 11
10.25
 21
-25
  0
LINE
  8
0
 10
10.25
 20
-25
 11
11.0331
 21
-29.9443
  0
LINE
  8
0
 10
11.0331
 20
-29.9443
 11
13.3057
 21
-34.4046
  0
LINE
  8
0
 10
13.3057
 20
-34.4046
 11
16.8454
 21
-37.9443
  0
LINE
  8
0
 10
16.8454
 20
-37.9443
 11
21.3057
 21
-40.2169
  0
LINE
  8
0
 10
21.3057
 20
-40.2169
 11
26.25
 21
-41
  0
LINE
  8
0
 10
26.25
 20
-41
 11
31.1943
 21
-40.2169
  0
LINE
  8
0
 10
83.6943
 20
-40.2169
 11
88.1546
 21
-37.9443
  0
LINE
  8
0
 10
88.1546
 20
-37.9443
 11
91.6943
 21
-34.4046
  0
LINE
  8
0
 10
91.6943
 20
-34.4046
 11
93.9669
 21
-29.9443
  0
LINE
  8
0
 10
93.9669
 20
-29.9443
 11
94.75
 21
-25
  0
LINE
  8
0
 10
94.75
 20
-25
 11
93.9669
 21
-20.0557
  0
LINE
  8
0
 10
93.9669
 20
-20.0557
 11
91.6943
 21
-15.5954
  0
LINE
  8
0
 10
91.6943
 20
-15.5954
 11
88.1546
 21
-12.0557
  0
LINE
  8
0
 10
88.1546
 20
-12.0557
 11
83.6943
 21
-9.78308
  0
LINE
  8
0
 10
83.6943
 20
-9.78308
 11
78.75
 21
-9
  0
LINE
  8
0
 10
78.75
 20
-9
 11
73.8057
 21
-9.78308
  0
LINE
  8
0
 10
73.8057
 20
-9.78308
 11
69.3454
 21
-12.0557
  0
LINE
  8
0
 10
69.3454
 20
-12.0557
 11
65.8057
 21
-15.5954
  0
LINE
  8
0
 10
65.8057
 20
-15.5954
 11
63.5331
 21
-20.0557
  0
LINE
  8
0
 10
63.5331
 20
-20.0557
 11
62.75
 21
-25
  0
LINE
  8
0
 10
62.75
 20
-25
 11
63.5331
 21
-29.9443
  0
LINE
  8
0
 10
63.5331
 20
-29.9443
 11
65.8057
 21
-34.4046
  0
LINE
  8
0
 10
65.8057
 20
-34.4046
 11
69.3454
 21
-37.9443
  0
LINE
  8
0
 10
69.3454
 20
-37.9443
 11
73.8057
 21
-40.2169
  0
LINE
  8
0
 10
73.8057
 20
-40.2169
 11
78.75
 21
-41
  0
LINE
  8
0
 10
78.75
 20
-41
 11
83.6943
 21
-40.2169
  0
LINE
  8
0
 10
188.694
 20
-40.2169
 11
193.155
 21
-37.9443
  0
LINE
  8
0
 10
193.155
 20
-37.9443
 11
196.694
 21
-34.4046
  0
LINE
  8
0
 10
196.694
 20
-34.4046
 11
198.967
 21
-29.9443
  0
LINE
  8
0
 10
198.967
 20
-29.9443
 11
199.75
 21
-25
  0
LINE
  8
0
 10
199.75
 20
-25
 11
198.967
 21
-20.0557
  0
LINE
  8
0
 10
198.967
 20
-20.0557
 11
196.694
 21
-15.5954
  0
LINE
  8
0
 10
196.694
 20
-15.5954
 11
193.155
 21
-12.0557
  0
LINE
  8
0
 10
193.155
 20
-12.0557
 11
188.694
 21
-9.78308
  0
LINE
  8
0
 10
188.694
 20
-9.78308
 11
183.75
 21
-9
  0
LINE
  8
0
 10
183.75
 20
-9
 11
178.806
 21
-9.78308
  0
LINE
  8
0
 10
178.806
 20
-9.78308
 11
174.345
 21
-12.0557
  0
LINE
  8
0
 10
174.345
 20
-12.0557
 11
170.806
 21
-15.5954
  0
LINE
  8
0
 10
170.806
 20
-15.5954
 11
168.533
 21
-20.0557
  0
LINE
  8
0
 10
168.533
 20
-20.0557
 11
167.75
 21
-25
  0
LINE
  8
0
 10
167.75
 20
-25
 11
168.533
 21
-29.9443
  0
LINE
  8
0
 10
168.533
 20
-29.9443
 11
170.806
 21
-34.4046
  0
LINE
  8
0
 10
170.806
 20
-34.4046
 11
174.345
 21
-37.9443
  0
LINE
  8
0
 10
174.345
 20
-37.9443
 11
178.806
 21
-40.2169
  0
LINE
  8
0
 10
178.806
 20
-40.2169
 11
183.75
 21
-41
  0
LINE
  8
0
 10
183.75
 20
-41
 11
188.694
 21
-40.2169
  0
LINE
  8
0
 10
-178.806
 20
-40.2169
 11
-174.345
 21
-37.9443
  0
LINE
  8
0
 10
-174.345
 20
-37.9443
 11
-170.806
 21
-34.4046
  0
LINE
  8
0
 10
-170.806
 20
-34.4046
 11
-168.533
 21
-29.9443
  0
LINE
  8
0
 10
-168.533
 20
-29.9443
 11
-167.75
 21
-25
  0
LINE
  8
0
 10
-167.75
 20
-25
 11
-168.533
 21
-20.0557
  0
LINE
  8
0
 10
-168.533
 20
-20.0557
 11
-170.806
 21
-15.5954
  0
LINE
  8
0
 10
-170.806
 20
-15.5954
 11
-174.345
 21
-12.0557
  0
LINE
  8
0
 10
-174.345
 20
-12.0557
 11
-178.806
 21
-9.78308
  0
LINE
  8
0
 10
-178.806
 20
-9.78308
 11
-183.75
 21
-9
  0
LINE
  8
0
 10
-183.75
 20
-9
 11
-188.694
 21
-9.78308
  0
LINE
  8
0
 10
-188.694
 20
-9.78308
 11
-193.155
 21
-12.0557
  0
LINE
  8
0
 10
-193.155
 20
-12.0557
 11
-196.694
 21
-15.5954
  0
LINE
  8
0
 10
-196.694
 20
-15.5954
 11
-198.967
 21
-20.0557
  0
LINE
  8
0
 10
-198.967
 20
-20.0557
 11
-199.75
 21
-25
  0
LINE
  8
0
 10
-199.75
 20
-25
 11
-198.967
 21
-29.9443
  0
LINE
  8
0
 10
-198.967
 20
-29.9443
 11
-196.694
 21
-34.4046
  0
LINE
  8
0
 10
-196.694
 20
-34.4046
 11
-193.155
 21
-37.9443
  0
LINE
  8
0
 10
-193.155
 20
-37.9443
 11
-188.694
 21
-40.2169
  0
LINE
  8
0
 10
-188.694
 20
-40.2169
 11
-183.75
 21
-41
  0
LINE
  8
0
 10
-183.75
 20
-41
 11
-178.806
 21
-40.2169
  0
LINE
  8
0
 10
293.694
 20
-40.2169
 11
298.155
 21
-37.9443
  0
LINE
  8
0
 10
298.155
 20
-37.9443
 11
301.694
 21
-34.4046
  0
LINE
  8
0
 10
301.694
 20
-34.4046
 11
303.967
 21
-29.9443
  0
LINE
  8
0
 10
303.967
 20
-29.9443
 11
304.75
 21
-25
  0
LINE
  8
0
 10
304.75
 20
-25
 11
303.967
 21
-20.0557
  0
LINE
  8
0
 10
303.967
 20
-20.0557
 11
301.694
 21
-15.5954
  0
LINE
  8
0
 10
301.694
 20
-15.5954
 11
298.155
 21
-12.0557
  0
LINE
  8
0
 10
298.155
 20
-12.0557
 11
293.694
 21
-9.78308
  0
LINE
  8
0
 10
293.694
 20
-9.78308
 11
288.75
 21
-9
  0
LINE
  8
0
 10
288.75
 20
-9
 11
283.806
 21
-9.78308
  0
LINE
  8
0
 10
283.806
 20
-9.78308
 11
279.345
 21
-12.0557
  0
LINE
  8
0
 10
279.345
 20
-12.0557
 11
275.806
 21
-15.5954
  0
LINE
  8
0
 10
275.806
 20
-15.5954
 11
273.533
 21
-20.0557
  0
LINE
  8
0
 10
273.533
 20
-20.0557
 11
272.75
 21
-25
  0
LINE
  8
0
 10
272.75
 20
-25
 11
273.533
 21
-29.9443
  0
LINE
  8
0
 10
273.533
 20
-29.9443
 11
275.806
 21
-34.4046
  0
LINE
  8
0
 10
275.806
 20
-34.4046
 11
279.345
 21
-37.9443
  0
LINE
  8
0
 10
279.345
 20
-37.9443
 11
283.806
 21
-40.2169
  0
LINE
  8
0
 10
283.806
 20
-40.2169
 11
288.75
 21
-41
  0
LINE
  8
0
 10
288.75
 20
-41
 11
293.694
 21
-40.2169
  0
LINE
  8
0
 10
-21.3057
 20
-40.2169
 11
-16.8454
 21
-37.9443
  0
LINE
  8
0
 10
-16.8454
 20
-37.9443
 11
-13.3057
 21
-34.4046
  0
LINE
  8
0
 10
-13.3057
 20
-34.4046
 11
-11.0331
 21
-29.9443
  0
LINE
  8
0
 10
-11.0331
 20
-29.9443
 11
-10.25
 21
-25
  0
LINE
  8
0
 10
-10.25
 20
-25
 11
-11.0331
 21
-20.0557
  0
LINE
  8
0
 10
-11.0331
 20
-20.0557
 11
-13.3057
 21
-15.5954
  0
LINE
  8
0
 10
-13.3057
 20
-15.5954
 11
-16.8454
 21
-12.0557
  0
LINE
  8
0
 10
-16.8454
 20
-12.0557
 11
-21.3057
 21
-9.78308
  0
LINE
  8
0
 10
-21.3057
 20
-9.78308
 11
-26.25
 21
-9
  0
LINE
  8
0
 10
-26.25
 20
-9
 11
-31.1943
 21
-9.78308
  0
LINE
  8
0
 10
-31.1943
 20
-9.78308
 11
-35.6546
 21
-12.0557
  0
LINE
  8
0
 10
-35.6546
 20
-12.0557
 11
-39.1943
 21
-15.5954
  0
LINE
  8
0
 10
-39.1943
 20
-15.5954
 11
-41.4669
 21
-20.0557
  0
LINE
  8
0
 10
-41.4669
 20
-20.0557
 11
-42.25
 21
-25
  0
LINE
  8
0
 10
-42.25
 20
-25
 11
-41.4669
 21
-29.9443
  0
LINE
  8
0
 10
-41.4669
 20
-29.9443
 11
-39.1943
 21
-34.4046
  0
LINE
  8
0
 10
-39.1943
 20
-34.4046
 11
-35.6546
 21
-37.9443
  0
LINE
  8
0
 10
-35.6546
 20
-37.9443
 11
-31.1943
 21
-40.2169
  0
LINE
  8
0
 10
-31.1943
 20
-40.2169
 11
-26.25
 21
-41
  0
LINE
  8
0
 10
-26.25
 20
-41
 11
-21.3057
 21
-40.2169
  0
LINE
  8
0
 10
-73.8057
 20
-40.2169
 11
-69.3454
 21
-37.9443
  0
LINE
  8
0
 10
-69.3454
 20
-37.9443
 11
-65.8057
 21
-34.4046
  0
LINE
  8
0
 10
-65.8057
 20
-34.4046
 11
-63.5331
 21
-29.9443
  0
LINE
  8
0
 10
-63.5331
 20
-29.9443
 11
-62.75
 21
-25
  0
LINE
  8
0
 10
-62.75
 20
-25
 11
-63.5331
 21
-20.0557
  0
LINE
  8
0
 10
-63.5331
 20
-20.0557
 11
-65.8057
 21
-15.5954
  0
LINE
  8
0
 10
-65.8057
 20
-15.5954
 11
-69.3454
 21
-12.0557
  0
LINE
  8
0
 10
-69.3454
 20
-12.0557
 11
-73.8057
 21
-9.78308
  0
LINE
  8
0
 10
-73.8057
 20
-9.78308
 11
-78.75
 21
-9
  0
LINE
  8
0
 10
-78.75
 20
-9
 11
-83.6943
 21
-9.78308
  0
LINE
  8
0
 10
-83.6943
 20
-9.78308
 11
-88.1546
 21
-12.0557
  0
LINE
  8
0
 10
-88.1546
 20
-12.0557
 11
-91.6943
 21
-15.5954
  0
LINE
  8
0
 10
-91.6943
 20
-15.5954
 11
-93.9669
 21
-20.0557
  0
LINE
  8
0
 10
-93.9669
 20
-20.0557
 11
-94.75
 21
-25
  0
LINE
  8
0
 10
-94.75
 20
-25
 11
-93.9669
 21
-29.9443
  0
LINE
  8
0
 10
-93.9669
 20
-29.9443
 11
-91.6943
 21
-34.4046
  0
LINE
  8
0
 10
-91.6943
 20
-34.4046
 11
-88.1546
 21
-37.9443
  0
LINE
  8
0
 10
-88.1546
 20
-37.9443
 11
-83.6943
 21
-40.2169
  0
LINE
  8
0
 10
-83.6943
 20
-40.2169
 11
-78.75
 21
-41
  0
LINE
  8
0
 10
-78.75
 20
-41
 11
-73.8057
 21
-40.2169
  0
LINE
  8
0
 10
-231.306
 20
-40.2169
 11
-226.845
 21
-37.9443
  0
LINE
  8
0
 10
-226.845
 20
-37.9443
 11
-223.306
 21
-34.4046
  0
LINE
  8
0
 10
-223.306
 20
-34.4046
 11
-221.033
 21
-29.9443
  0
LINE
  8
0
 10
-221.033
 20
-29.9443
 11
-220.25
 21
-25
  0
LINE
  8
0
 10
-220.25
 20
-25
 11
-221.033
 21
-20.0557
  0
LINE
  8
0
 10
-221.033
 20
-20.0557
 11
-223.306
 21
-15.5954
  0
LINE
  8
0
 10
-223.306
 20
-15.5954
 11
-226.845
 21
-12.0557
  0
LINE
  8
0
 10
-226.845
 20
-12.0557
 11
-231.306
 21
-9.78308
  0
LINE
  8
0
 10
-231.306
 20
-9.78308
 11
-236.25
 21
-9
  0
LINE
  8
0
 10
-236.25
 20
-9
 11
-241.194
 21
-9.78308
  0
LINE
  8
0
 10
-241.194
 20
-9.78308
 11
-245.655
 21
-12.0557
  0
LINE
  8
0
 10
-245.655
 20
-12.0557
 11
-249.194
 21
-15.5954
  0
LINE
  8
0
 10
-249.194
 20
-15.5954
 11
-251.467
 21
-20.0557
  0
LINE
  8
0
 10
-251.467
 20
-20.0557
 11
-252.25
 21
-25
  0
LINE
  8
0
 10
-252.25
 20
-25
 11
-251.467
 21
-29.9443
  0
LINE
  8
0
 10
-251.467
 20
-29.9443
 11
-249.194
 21
-34.4046
  0
LINE
  8
0
 10
-249.194
 20
-34.4046
 11
-245.655
 21
-37.9443
  0
LINE
  8
0
 10
-245.655
 20
-37.9443
 11
-241.194
 21
-40.2169
  0
LINE
  8
0
 10
-241.194
 20
-40.2169
 11
-236.25
 21
-41
  0
LINE
  8
0
 10
-236.25
 20
-41
 11
-231.306
 21
-40.2169
  0
LINE
  8
0
 10
-126.306
 20
-40.2169
 11
-121.845
 21
-37.9443
  0
LINE
  8
0
 10
-121.845
 20
-37.9443
 11
-118.306
 21
-34.4046
  0
LINE
  8
0
 10
-118.306
 20
-34.4046
 11
-116.033
 21
-29.9443
  0
LINE
  8
0
 10
-116.033
 20
-29.9443
 11
-115.25
 21
-25
  0
LINE
  8
0
 10
-115.25
 20
-25
 11
-116.033
 21
-20.0557
  0
LINE
  8
0
 10
-116.033
 20
-20.0557
 11
-118.306
 21
-15.5954
  0
LINE
  8
0
 10
-118.306
 20
-15.5954
 11
-121.845
 21
-12.0557
  0
LINE
  8
0
 10
-121.845
 20
-12.0557
 11
-126.306
 21
-9.78308
  0
LINE
  8
0
 10
-126.306
 20
-9.78308
 11
-131.25
 21
-9
  0
LINE
  8
0
 10
-131.25
 20
-9
 11
-136.194
 21
-9.78308
  0
LINE
  8
0
 10
-136.194
 20
-9.78308
 11
-140.655
 21
-12.0557
  0
LINE
  8
0
 10
-140.655
 20
-12.0557
 11
-144.194
 21
-15.5954
  0
LINE
  8
0
 10
-144.194
 20
-15.5954
 11
-146.467
 21
-20.0557
  0
LINE
  8
0
 10
-146.467
 20
-20.0557
 11
-147.25
 21
-25
  0
LINE
  8
0
 10
-147.25
 20
-25
 11
-146.467
 21
-29.9443
  0
LINE
  8
0
 10
-146.467
 20
-29.9443
 11
-144.194
 21
-34.4046
  0
LINE
  8
0
 10
-144.194
 20
-34.4046
 11
-140.655
 21
-37.9443
  0
LINE
  8
0
 10
-140.655
 20
-37.9443
 11
-136.194
 21
-40.2169
  0
LINE
  8
0
 10
-136.194
 20
-40.2169
 11
-131.25
 21
-41
  0
LINE
  8
0
 10
-131.25
 20
-41
 11
-126.306
 21
-40.2169
  0
LINE
  8
0
 10
136.194
 20
-40.2169
 11
140.655
 21
-37.9443
  0
LINE
  8
0
 10
140.655
 20
-37.9443
 11
144.194
 21
-34.4046
  0
LINE
  8
0
 10
144.194
 20
-34.4046
 11
146.467
 21
-29.9443
  0
LINE
  8
0
 10
146.467
 20
-29.9443
 11
147.25
 21
-25
  0
LINE
  8
0
 10
147.25
 20
-25
 11
146.467
 21
-20.0557
  0
LINE
  8
0
 10
146.467
 20
-20.0557
 11
144.194
 21
-15.5954
  0
LINE
  8
0
 10
144.194
 20
-15.5954
 11
140.655
 21
-12.0557
  0
LINE
  8
0
 10
140.655
 20
-12.0557
 11
136.194
 21
-9.78308
  0
LINE
  8
0
 10
136.194
 20
-9.78308
 11
131.25
 21
-9
  0
LINE
  8
0
 10
131.25
 20
-9
 11
126.306
 21
-9.78308
  0
LINE
  8
0
 10
126.306
 20
-9.78308
 11
121.845
 21
-12.0557
  0
LINE
  8
0
 10
121.845
 20
-12.0557
 11
118.306
 21
-15.5954
  0
LINE
  8
0
 10
118.306
 20
-15.5954
 11
116.033
 21
-20.0557
  0
LINE
  8
0
 10
116.033
 20
-20.0557
 11
115.25
 21
-25
  0
LINE
  8
0
 10
115.25
 20
-25
 11
116.033
 21
-29.9443
  0
LINE
  8
0
 10
116.033
 20
-29.9443
 11
118.306
 21
-34.4046
  0
LINE
  8
0
 10
118.306
 20
-34.4046
 11
121.845
 21
-37.9443
  0
LINE
  8
0
 10
121.845
 20
-37.9443
 11
126.306
 21
-40.2169
  0
LINE
  8
0
 10
126.306
 20
-40.2169
 11
131.25
 21
-41
  0
LINE
  8
0
 10
131.25
 20
-41
 11
136.194
 21
-40.2169
  0
LINE
  8
0
 10
188.694
 20
-90.2169
 11
193.155
 21
-87.9443
  0
LINE
  8
0
 10
193.155
 20
-87.9443
 11
196.694
 21
-84.4046
  0
LINE
  8
0
 10
196.694
 20
-84.4046
 11
198.967
 21
-79.9443
  0
LINE
  8
0
 10
198.967
 20
-79.9443
 11
199.75
 21
-75
  0
LINE
  8
0
 10
199.75
 20
-75
 11
198.967
 21
-70.0557
  0
LINE
  8
0
 10
198.967
 20
-70.0557
 11
196.694
 21
-65.5954
  0
LINE
  8
0
 10
196.694
 20
-65.5954
 11
193.155
 21
-62.0557
  0
LINE
  8
0
 10
193.155
 20
-62.0557
 11
188.694
 21
-59.7831
  0
LINE
  8
0
 10
188.694
 20
-59.7831
 11
183.75
 21
-59
  0
LINE
  8
0
 10
183.75
 20
-59
 11
178.806
 21
-59.7831
  0
LINE
  8
0
 10
178.806
 20
-59.7831
 11
174.345
 21
-62.0557
  0
LINE
  8
0
 10
174.345
 20
-62.0557
 11
170.806
 21
-65.5954
  0
LINE
  8
0
 10
170.806
 20
-65.5954
 11
168.533
 21
-70.0557
  0
LINE
  8
0
 10
168.533
 20
-70.0557
 11
167.75
 21
-75
  0
LINE
  8
0
 10
167.75
 20
-75
 11
168.533
 21
-79.9443
  0
LINE
  8
0
 10
168.533
 20
-79.9443
 11
170.806
 21
-84.4046
  0
LINE
  8
0
 10
170.806
 20
-84.4046
 11
174.345
 21
-87.9443
  0
LINE
  8
0
 10
174.345
 20
-87.9443
 11
178.806
 21
-90.2169
  0
LINE
  8
0
 10
178.806
 20
-90.2169
 11
183.75
 21
-91
  0
LINE
  8
0
 10
183.75
 20
-91
 11
188.694
 21
-90.2169
  0
LINE
  8
0
 10
136.194
 20
-90.2169
 11
140.655
 21
-87.9443
  0
LINE
  8
0
 10
140.655
 20
-87.9443
 11
144.194
 21
-84.4046
  0
LINE
  8
0
 10
144.194
 20
-84.4046
 11
146.467
 21
-79.9443
  0
LINE
  8
0
 10
146.467
 20
-79.9443
 11
147.25
 21
-75
  0
LINE
  8
0
 10
147.25
 20
-75
 11
146.467
 21
-70.0557
  0
LINE
  8
0
 10
146.467
 20
-70.0557
 11
144.194
 21
-65.5954
  0
LINE
  8
0
 10
144.194
 20
-65.5954
 11
140.655
 21
-62.0557
  0
LINE
  8
0
 10
140.655
 20
-62.0557
 11
136.194
 21
-59.7831
  0
LINE
  8
0
 10
136.194
 20
-59.7831
 11
131.25
 21
-59
  0
LINE
  8
0
 10
131.25
 20
-59
 11
126.306
 21
-59.7831
  0
LINE
  8
0
 10
126.306
 20
-59.7831
 11
121.845
 21
-62.0557
  0
LINE
  8
0
 10
121.845
 20
-62.0557
 11
118.306
 21
-65.5954
  0
LINE
  8
0
 10
118.306
 20
-65.5954
 11
116.033
 21
-70.0557
  0
LINE
  8
0
 10
116.033
 20
-70.0557
 11
115.25
 21
-75
  0
LINE
  8
0
 10
115.25
 20
-75
 11
116.033
 21
-79.9443
  0
LINE
  8
0
 10
116.033
 20
-79.9443
 11
118.306
 21
-84.4046
  0
LINE
  8
0
 10
118.306
 20
-84.4046
 11
121.845
 21
-87.9443
  0
LINE
  8
0
 10
121.845
 20
-87.9443
 11
126.306
 21
-90.2169
  0
LINE
  8
0
 10
126.306
 20
-90.2169
 11
131.25
 21
-91
  0
LINE
  8
0
 10
131.25
 20
-91
 11
136.194
 21
-90.2169
  0
LINE
  8
0
 10
83.6943
 20
-90.2169
 11
88.1546
 21
-87.9443
  0
LINE
  8
0
 10
88.1546
 20
-87.9443
 11
91.6943
 21
-84.4046
  0
LINE
  8
0
 10
91.6943
 20
-84.4046
 11
93.9669
 21
-79.9443
  0
LINE
  8
0
 10
93.9669
 20
-79.9443
 11
94.75
 21
-75
  0
LINE
  8
0
 10
94.75
 20
-75
 11
93.9669
 21
-70.0557
  0
LINE
  8
0
 10
93.9669
 20
-70.0557
 11
91.6943
 21
-65.5954
  0
LINE
  8
0
 10
91.6943
 20
-65.5954
 11
88.1546
 21
-62.0557
  0
LINE
  8
0
 10
88.1546
 20
-62.0557
 11
83.6943
 21
-59.7831
  0
LINE
  8
0
 10
83.6943
 20
-59.7831
 11
78.75
 21
-59
  0
LINE
  8
0
 10
78.75
 20
-59
 11
73.8057
 21
-59.7831
  0
LINE
  8
0
 10
73.8057
 20
-59.7831
 11
69.3454
 21
-62.0557
  0
LINE
  8
0
 10
69.3454
 20
-62.0557
 11
65.8057
 21
-65.5954
  0
LINE
  8
0
 10
65.8057
 20
-65.5954
 11
63.5331
 21
-70.0557
  0
LINE
  8
0
 10
63.5331
 20
-70.0557
 11
62.75
 21
-75
  0
LINE
  8
0
 10
62.75
 20
-75
 11
63.5331
 21
-79.9443
  0
LINE
  8
0
 10
63.5331
 20
-79.9443
 11
65.8057
 21
-84.4046
  0
LINE
  8
0
 10
65.8057
 20
-84.4046
 11
69.3454
 21
-87.9443
  0
LINE
  8
0
 10
69.3454
 20
-87.9443
 11
73.8057
 21
-90.2169
  0
LINE
  8
0
 10
73.8057
 20
-90.2169
 11
78.75
 21
-91
  0
LINE
  8
0
 10
78.75
 20
-91
 11
83.6943
 21
-90.2169
  0
LINE
  8
0
 10
31.1943
 20
-90.2169
 11
35.6546
 21
-87.9443
  0
LINE
  8
0
 10
35.6546
 20
-87.9443
 11
39.1943
 21
-84.4046
  0
LINE
  8
0
 10
39.1943
 20
-84.4046
 11
41.4669
 21
-79.9443
  0
LINE
  8
0
 10
41.4669
 20
-79.9443
 11
42.25
 21
-75
  0
LINE
  8
0
 10
42.25
 20
-75
 11
41.4669
 21
-70.0557
  0
LINE
  8
0
 10
41.4669
 20
-70.0557
 11
39.1943
 21
-65.5954
  0
LINE
  8
0
 10
39.1943
 20
-65.5954
 11
35.6546
 21
-62.0557
  0
LINE
  8
0
 10
35.6546
 20
-62.0557
 11
31.1943
 21
-59.7831
  0
LINE
  8
0
 10
31.1943
 20
-59.7831
 11
26.25
 21
-59
  0
LINE
  8
0
 10
26.25
 20
-59
 11
21.3057
 21
-59.7831
  0
LINE
  8
0
 10
21.3057
 20
-59.7831
 11
16.8454
 21
-62.0557
  0
LINE
  8
0
 10
16.8454
 20
-62.0557
 11
13.3057
 21
-65.5954
  0
LINE
  8
0
 10
13.3057
 20
-65.5954
 11
11.0331
 21
-70.0557
  0
LINE
  8
0
 10
11.0331
 20
-70.0557
 11
10.25
 21
-75
  0
LINE
  8
0
 10
10.25
 20
-75
 11
11.0331
 21
-79.9443
  0
LINE
  8
0
 10
11.0331
 20
-79.9443
 11
13.3057
 21
-84.4046
  0
LINE
  8
0
 10
13.3057
 20
-84.4046
 11
16.8454
 21
-87.9443
  0
LINE
  8
0
 10
16.8454
 20
-87.9443
 11
21.3057
 21
-90.2169
  0
LINE
  8
0
 10
21.3057
 20
-90.2169
 11
26.25
 21
-91
  0
LINE
  8
0
 10
26.25
 20
-91
 11
31.1943
 21
-90.2169
  0
LINE
  8
0
 10
-126.306
 20
-90.2169
 11
-121.845
 21
-87.9443
  0
LINE
  8
0
 10
-121.845
 20
-87.9443
 11
-118.306
 21
-84.4046
  0
LINE
  8
0
 10
-118.306
 20
-84.4046
 11
-116.033
 21
-79.9443
  0
LINE
  8
0
 10
-116.033
 20
-79.9443
 11
-115.25
 21
-75
  0
LINE
  8
0
 10
-115.25
 20
-75
 11
-116.033
 21
-70.0557
  0
LINE
  8
0
 10
-116.033
 20
-70.0557
 11
-118.306
 21
-65.5954
  0
LINE
  8
0
 10
-118.306
 20
-65.5954
 11
-121.845
 21
-62.0557
  0
LINE
  8
0
 10
-121.845
 20
-62.0557
 11
-126.306
 21
-59.7831
  0
LINE
  8
0
 10
-126.306
 20
-59.7831
 11
-131.25
 21
-59
  0
LINE
  8
0
 10
-131.25
 20
-59
 11
-136.194
 21
-59.7831
  0
LINE
  8
0
 10
-136.194
 20
-59.7831
 11
-140.655
 21
-62.0557
  0
LINE
  8
0
 10
-140.655
 20
-62.0557
 11
-144.194
 21
-65.5954
  0
LINE
  8
0
 10
-144.194
 20
-65.5954
 11
-146.467
 21
-70.0557
  0
LINE
  8
0
 10
-146.467
 20
-70.0557
 11
-147.25
 21
-75
  0
LINE
  8
0
 10
-147.25
 20
-75
 11
-146.467
 21
-79.9443
  0
LINE
  8
0
 10
-146.467
 20
-79.9443
 11
-144.194
 21
-84.4046
  0
LINE
  8
0
 10
-144.194
 20
-84.4046
 11
-140.655
 21
-87.9443
  0
LINE
  8
0
 10
-140.655
 20
-87.9443
 11
-136.194
 21
-90.2169
  0
LINE
  8
0
 10
-136.194
 20
-90.2169
 11
-131.25
 21
-91
  0
LINE
  8
0
 10
-131.25
 20
-91
 11
-126.306
 21
-90.2169
  0
LINE
  8
0
 10
241.194
 20
-90.2169
 11
245.655
 21
-87.9443
  0
LINE
  8
0
 10
245.655
 20
-87.9443
 11
249.194
 21
-84.4046
  0
LINE
  8
0
 10
249.194
 20
-84.4046
 11
251.467
 21
-79.9443
  0
LINE
  8
0
 10
251.467
 20
-79.9443
 11
252.25
 21
-75
  0
LINE
  8
0
 10
252.25
 20
-75
 11
251.467
 21
-70.0557
  0
LINE
  8
0
 10
251.467
 20
-70.0557
 11
249.194
 21
-65.5954
  0
LINE
  8
0
 10
249.194
 20
-65.5954
 11
245.655
 21
-62.0557
  0
LINE
  8
0
 10
245.655
 20
-62.0557
 11
241.194
 21
-59.7831
  0
LINE
  8
0
 10
241.194
 20
-59.7831
 11
236.25
 21
-59
  0
LINE
  8
0
 10
236.25
 20
-59
 11
231.306
 21
-59.7831
  0
LINE
  8
0
 10
231.306
 20
-59.7831
 11
226.845
 21
-62.0557
  0
LINE
  8
0
 10
226.845
 20
-62.0557
 11
223.306
 21
-65.5954
  0
LINE
  8
0
 10
223.306
 20
-65.5954
 11
221.033
 21
-70.0557
  0
LINE
  8
0
 10
221.033
 20
-70.0557
 11
220.25
 21
-75
  0
LINE
  8
0
 10
220.25
 20
-75
 11
221.033
 21
-79.9443
  0
LINE
  8
0
 10
221.033
 20
-79.9443
 11
223.306
 21
-84.4046
  0
LINE
  8
0
 10
223.306
 20
-84.4046
 11
226.845
 21
-87.9443
  0
LINE
  8
0
 10
226.845
 20
-87.9443
 11
231.306
 21
-90.2169
  0
LINE
  8
0
 10
231.306
 20
-90.2169
 11
236.25
 21
-91
  0
LINE
  8
0
 10
236.25
 20
-91
 11
241.194
 21
-90.2169
  0
LINE
  8
0
 10
-283.806
 20
-90.2169
 11
-279.345
 21
-87.9443
  0
LINE
  8
0
 10
-279.345
 20
-87.9443
 11
-275.806
 21
-84.4046
  0
LINE
  8
0
 10
-275.806
 20
-84.4046
 11
-273.533
 21
-79.9443
  0
LINE
  8
0
 10
-273.533
 20
-79.9443
 11
-272.75
 21
-75
  0
LINE
  8
0
 10
-272.75
 20
-75
 11
-273.533
 21
-70.0557
  0
LINE
  8
0
 10
-273.533
 20
-70.0557
 11
-275.806
 21
-65.5954
  0
LINE
  8
0
 10
-275.806
 20
-65.5954
 11
-279.345
 21
-62.0557
  0
LINE
  8
0
 10
-279.345
 20
-62.0557
 11
-283.806
 21
-59.7831
  0
LINE
  8
0
 10
-283.806
 20
-59.7831
 11
-288.75
 21
-59
  0
LINE
  8
0
 10
-288.75
 20
-59
 11
-293.694
 21
-59.7831
  0
LINE
  8
0
 10
-293.694
 20
-59.7831
 11
-298.155
 21
-62.0557
  0
LINE
  8
0
 10
-298.155
 20
-62.0557
 11
-301.694
 21
-65.5954
  0
LINE
  8
0
 10
-301.694
 20
-65.5954
 11
-303.967
 21
-70.0557
  0
LINE
  8
0
 10
-303.967
 20
-70.0557
 11
-304.75
 21
-75
  0
LINE
  8
0
 10
-304.75
 20
-75
 11
-303.967
 21
-79.9443
  0
LINE
  8
0
 10
-303.967
 20
-79.9443
 11
-301.694
 21
-84.4046
  0
LINE
  8
0
 10
-301.694
 20
-84.4046
 11
-298.155
 21
-87.9443
  0
LINE
  8
0
 10
-298.155
 20
-87.9443
 11
-293.694
 21
-90.2169
  0
LINE
  8
0
 10
-293.694
 20
-90.2169
 11
-288.75
 21
-91
  0
LINE
  8
0
 10
-288.75
 20
-91
 11
-283.806
 21
-90.2169
  0
LINE
  8
0
 10
-178.806
 20
-90.2169
 11
-174.345
 21
-87.9443
  0
LINE
  8
0
 10
-174.345
 20
-87.9443
 11
-170.806
 21
-84.4046
  0
LINE
  8
0
 10
-170.806
 20
-84.4046
 11
-168.533
 21
-79.9443
  0
LINE
  8
0
 10
-168.533
 20
-79.9443
 11
-167.75
 21
-75
  0
LINE
  8
0
 10
-167.75
 20
-75
 11
-168.533
 21
-70.0557
  0
LINE
  8
0
 10
-168.533
 20
-70.0557
 11
-170.806
 21
-65.5954
  0
LINE
  8
0
 10
-170.806
 20
-65.5954
 11
-174.345
 21
-62.0557
  0
LINE
  8
0
 10
-174.345
 20
-62.0557
 11
-178.806
 21
-59.7831
  0
LINE
  8
0
 10
-178.806
 20
-59.7831
 11
-183.75
 21
-59
  0
LINE
  8
0
 10
-183.75
 20
-59
 11
-188.694
 21
-59.7831
  0
LINE
  8
0
 10
-188.694
 20
-59.7831
 11
-193.155
 21
-62.0557
  0
LINE
  8
0
 10
-193.155
 20
-62.0557
 11
-196.694
 21
-65.5954
  0
LINE
  8
0
 10
-196.694
 20
-65.5954
 11
-198.967
 21
-70.0557
  0
LINE
  8
0
 10
-198.967
 20
-70.0557
 11
-199.75
 21
-75
  0
LINE
  8
0
 10
-199.75
 20
-75
 11
-198.967
 21
-79.9443
  0
LINE
  8
0
 10
-198.967
 20
-79.9443
 11
-196.694
 21
-84.4046
  0
LINE
  8
0
 10
-196.694
 20
-84.4046
 11
-193.155
 21
-87.9443
  0
LINE
  8
0
 10
-193.155
 20
-87.9443
 11
-188.694
 21
-90.2169
  0
LINE
  8
0
 10
-188.694
 20
-90.2169
 11
-183.75
 21
-91
  0
LINE
  8
0
 10
-183.75
 20
-91
 11
-178.806
 21
-90.2169
  0
LINE
  8
0
 10
-21.3057
 20
-90.2169
 11
-16.8454
 21
-87.9443
  0
LINE
  8
0
 10
-16.8454
 20
-87.9443
 11
-13.3057
 21
-84.4046
  0
LINE
  8
0
 10
-13.3057
 20
-84.4046
 11
-11.0331
 21
-79.9443
  0
LINE
  8
0
 10
-11.0331
 20
-79.9443
 11
-10.25
 21
-75
  0
LINE
  8
0
 10
-10.25
 20
-75
 11
-11.0331
 21
-70.0557
  0
LINE
  8
0
 10
-11.0331
 20
-70.0557
 11
-13.3057
 21
-65.5954
  0
LINE
  8
0
 10
-13.3057
 20
-65.5954
 11
-16.8454
 21
-62.0557
  0
LINE
  8
0
 10
-16.8454
 20
-62.0557
 11
-21.3057
 21
-59.7831
  0
LINE
  8
0
 10
-21.3057
 20
-59.7831
 11
-26.25
 21
-59
  0
LINE
  8
0
 10
-26.25
 20
-59
 11
-31.1943
 21
-59.7831
  0
LINE
  8
0
 10
-31.1943
 20
-59.7831
 11
-35.6546
 21
-62.0557
  0
LINE
  8
0
 10
-35.6546
 20
-62.0557
 11
-39.1943
 21
-65.5954
  0
LINE
  8
0
 10
-39.1943
 20
-65.5954
 11
-41.4669
 21
-70.0557
  0
LINE
  8
0
 10
-41.4669
 20
-70.0557
 11
-42.25
 21
-75
  0
LINE
  8
0
 10
-42.25
 20
-75
 11
-41.4669
 21
-79.9443
  0
LINE
  8
0
 10
-41.4669
 20
-79.9443
 11
-39.1943
 21
-84.4046
  0
LINE
  8
0
 10
-39.1943
 20
-84.4046
 11
-35.6546
 21
-87.9443
  0
LINE
  8
0
 10
-35.6546
 20
-87.9443
 11
-31.1943
 21
-90.2169
  0
LINE
  8
0
 10
-31.1943
 20
-90.2169
 11
-26.25
 21
-91
  0
LINE
  8
0
 10
-26.25
 20
-91
 11
-21.3057
 21
-90.2169
  0
LINE
  8
0
 10
-231.306
 20
-90.2169
 11
-226.845
 21
-87.9443
  0
LINE
  8
0
 10
-226.845
 20
-87.9443
 11
-223.306
 21
-84.4046
  0
LINE
  8
0
 10
-223.306
 20
-84.4046
 11
-221.033
 21
-79.9443
  0
LINE
  8
0
 10
-221.033
 20
-79.9443
 11
-220.25
 21
-75
  0
LINE
  8
0
 10
-220.25
 20
-75
 11
-221.033
 21
-70.0557
  0
LINE
  8
0
 10
-221.033
 20
-70.0557
 11
-223.306
 21
-65.5954
  0
LINE
  8
0
 10
-223.306
 20
-65.5954
 11
-226.845
 21
-62.0557
  0
LINE
  8
0
 10
-226.845
 20
-62.0557
 11
-231.306
 21
-59.7831
  0
LINE
  8
0
 10
-231.306
 20
-59.7831
 11
-236.25
 21
-59
  0
LINE
  8
0
 10
-236.25
 20
-59
 11
-241.194
 21
-59.7831
  0
LINE
  8
0
 10
-241.194
 20
-59.7831
 11
-245.655
 21
-62.0557
  0
LINE
  8
0
 10
-245.655
 20
-62.0557
 11
-249.194
 21
-65.5954
  0
LINE
  8
0
 10
-249.194
 20
-65.5954
 11
-251.467
 21
-70.0557
  0
LINE
  8
0
 10
-251.467
 20
-70.0557
 11
-252.25
 21
-75
  0
LINE
  8
0
 10
-252.25
 20
-75
 11
-251.467
 21
-79.9443
  0
LINE
  8
0
 10
-251.467
 20
-79.9443
 11
-249.194
 21
-84.4046
  0
LINE
  8
0
 10
-249.194
 20
-84.4046
 11
-245.655
 21
-87.9443
  0
LINE
  8
0
 10
-245.655
 20
-87.9443
 11
-241.194
 21
-90.2169
  0
LINE
  8
0
 10
-241.194
 20
-90.2169
 11
-236.25
 21
-91
  0
LINE
  8
0
 10
-236.25
 20
-91
 11
-231.306
 21
-90.2169
  0
LINE
  8
0
 10
293.694
 20
-90.2169
 11
298.155
 21
-87.9443
  0
LINE
  8
0
 10
298.155
 20
-87.9443
 11
301.694
 21
-84.4046
  0
LINE
  8
0
 10
301.694
 20
-84.4046
 11
303.967
 21
-79.9443
  0
LINE
  8
0
 10
303.967
 20
-79.9443
 11
304.75
 21
-75
  0
LINE
  8
0
 10
304.75
 20
-75
 11
303.967
 21
-70.0557
  0
LINE
  8
0
 10
303.967
 20
-70.0557
 11
301.694
 21
-65.5954
  0
LINE
  8
0
 10
301.694
 20
-65.5954
 11
298.155
 21
-62.0557
  0
LINE
  8
0
 10
298.155
 20
-62.0557
 11
293.694
 21
-59.7831
  0
LINE
  8
0
 10
293.694
 20
-59.7831
 11
288.75
 21
-59
  0
LINE
  8
0
 10
288.75
 20
-59
 11
283.806
 21
-59.7831
  0
LINE
  8
0
 10
283.806
 20
-59.7831
 11
279.345
 21
-62.0557
  0
LINE
  8
0
 10
279.345
 20
-62.0557
 11
275.806
 21
-65.5954
  0
LINE
  8
0
 10
275.806
 20
-65.5954
 11
273.533
 21
-70.0557
  0
LINE
  8
0
 10
273.533
 20
-70.0557
 11
272.75
 21
-75
  0
LINE
  8
0
 10
272.75
 20
-75
 11
273.533
 21
-79.9443
  0
LINE
  8
0
 10
273.533
 20
-79.9443
 11
275.806
 21
-84.4046
  0
LINE
  8
0
 10
275.806
 20
-84.4046
 11
279.345
 21
-87.9443
  0
LINE
  8
0
 10
279.345
 20
-87.9443
 11
283.806
 21
-90.2169
  0
LINE
  8
0
 10
283.806
 20
-90.2169
 11
288.75
 21
-91
  0
LINE
  8
0
 10
288.75
 20
-91
 11
293.694
 21
-90.2169
  0
LINE
  8
0
 10
-73.8057
 20
-90.2169
 11
-69.3454
 21
-87.9443
  0
LINE
  8
0
 10
-69.3454
 20
-87.9443
 11
-65.8057
 21
-84.4046
  0
LINE
  8
0
 10
-65.8057
 20
-84.4046
 11
-63.5331
 21
-79.9443
  0
LINE
  8
0
 10
-63.5331
 20
-79.9443
 11
-62.75
 21
-75
  0
LINE
  8
0
 10
-62.75
 20
-75
 11
-63.5331
 21
-70.0557
  0
LINE
  8
0
 10
-63.5331
 20
-70.0557
 11
-65.8057
 21
-65.5954
  0
LINE
  8
0
 10
-65.8057
 20
-65.5954
 11
-69.3454
 21
-62.0557
  0
LINE
  8
0
 10
-69.3454
 20
-62.0557
 11
-73.8057
 21
-59.7831
  0
LINE
  8
0
 10
-73.8057
 20
-59.7831
 11
-78.75
 21
-59
  0
LINE
  8
0
 10
-78.75
 20
-59
 11
-83.6943
 21
-59.7831
  0
LINE
  8
0
 10
-83.6943
 20
-59.7831
 11
-88.1546
 21
-62.0557
  0
LINE
  8
0
 10
-88.1546
 20
-62.0557
 11
-91.6943
 21
-65.5954
  0
LINE
  8
0
 10
-91.6943
 20
-65.5954
 11
-93.9669
 21
-70.0557
  0
LINE
  8
0
 10
-93.9669
 20
-70.0557
 11
-94.75
 21
-75
  0
LINE
  8
0
 10
-94.75
 20
-75
 11
-93.9669
 21
-79.9443
  0
LINE
  8
0
 10
-93.9669
 20
-79.9443
 11
-91.6943
 21
-84.4046
  0
LINE
  8
0
 10
-91.6943
 20
-84.4046
 11
-88.1546
 21
-87.9443
  0
LINE
  8
0
 10
-88.1546
 20
-87.9443
 11
-83.6943
 21
-90.2169
  0
LINE
  8
0
 10
-83.6943
 20
-90.2169
 11
-78.75
 21
-91
  0
LINE
  8
0
 10
-78.75
 20
-91
 11
-73.8057
 21
-90.2169
  0
LINE
  8
0
 10
-283.806
 20
-140.217
 11
-279.345
 21
-137.944
  0
LINE
  8
0
 10
-279.345
 20
-137.944
 11
-275.806
 21
-134.405
  0
LINE
  8
0
 10
-275.806
 20
-134.405
 11
-273.533
 21
-129.944
  0
LINE
  8
0
 10
-273.533
 20
-129.944
 11
-272.75
 21
-125
  0
LINE
  8
0
 10
-272.75
 20
-125
 11
-273.533
 21
-120.056
  0
LINE
  8
0
 10
-273.533
 20
-120.056
 11
-275.806
 21
-115.595
  0
LINE
  8
0
 10
-275.806
 20
-115.595
 11
-279.345
 21
-112.056
  0
LINE
  8
0
 10
-279.345
 20
-112.056
 11
-283.806
 21
-109.783
  0
LINE
  8
0
 10
-283.806
 20
-109.783
 11
-288.75
 21
-109
  0
LINE
  8
0
 10
-288.75
 20
-109
 11
-293.694
 21
-109.783
  0
LINE
  8
0
 10
-293.694
 20
-109.783
 11
-298.155
 21
-112.056
  0
LINE
  8
0
 10
-298.155
 20
-112.056
 11
-301.694
 21
-115.595
  0
LINE
  8
0
 10
-301.694
 20
-115.595
 11
-303.967
 21
-120.056
  0
LINE
  8
0
 10
-303.967
 20
-120.056
 11
-304.75
 21
-125
  0
LINE
  8
0
 10
-304.75
 20
-125
 11
-303.967
 21
-129.944
  0
LINE
  8
0
 10
-303.967
 20
-129.944
 11
-301.694
 21
-134.405
  0
LINE
  8
0
 10
-301.694
 20
-134.405
 11
-298.155
 21
-137.944
  0
LINE
  8
0
 10
-298.155
 20
-137.944
 11
-293.694
 21
-140.217
  0
LINE
  8
0
 10
-293.694
 20
-140.217
 11
-288.75
 21
-141
  0
LINE
  8
0
 10
-288.75
 20
-141
 11
-283.806
 21
-140.217
  0
LINE
  8
0
 10
-73.8057
 20
-140.217
 11
-69.3454
 21
-137.944
  0
LINE
  8
0
 10
-69.3454
 20
-137.944
 11
-65.8057
 21
-134.405
  0
LINE
  8
0
 10
-65.8057
 20
-134.405
 11
-63.5331
 21
-129.944
  0
LINE
  8
0
 10
-63.5331
 20
-129.944
 11
-62.75
 21
-125
  0
LINE
  8
0
 10
-62.75
 20
-125
 11
-63.5331
 21
-120.056
  0
LINE
  8
0
 10
-63.5331
 20
-120.056
 11
-65.8057
 21
-115.595
  0
LINE
  8
0
 10
-65.8057
 20
-115.595
 11
-69.3454
 21
-112.056
  0
LINE
  8
0
 10
-69.3454
 20
-112.056
 11
-73.8057
 21
-109.783
  0
LINE
  8
0
 10
-73.8057
 20
-109.783
 11
-78.75
 21
-109
  0
LINE
  8
0
 10
-78.75
 20
-109
 11
-83.6943
 21
-109.783
  0
LINE
  8
0
 10
-83.6943
 20
-109.783
 11
-88.1546
 21
-112.056
  0
LINE
  8
0
 10
-88.1546
 20
-112.056
 11
-91.6943
 21
-115.595
  0
LINE
  8
0
 10
-91.6943
 20
-115.595
 11
-93.9669
 21
-120.056
  0
LINE
  8
0
 10
-93.9669
 20
-120.056
 11
-94.75
 21
-125
  0
LINE
  8
0
 10
-94.75
 20
-125
 11
-93.9669
 21
-129.944
  0
LINE
  8
0
 10
-93.9669
 20
-129.944
 11
-91.6943
 21
-134.405
  0
LINE
  8
0
 10
-91.6943
 20
-134.405
 11
-88.1546
 21
-137.944
  0
LINE
  8
0
 10
-88.1546
 20
-137.944
 11
-83.6943
 21
-140.217
  0
LINE
  8
0
 10
-83.6943
 20
-140.217
 11
-78.75
 21
-141
  0
LINE
  8
0
 10
-78.75
 20
-141
 11
-73.8057
 21
-140.217
  0
LINE
  8
0
 10
188.694
 20
-140.217
 11
193.155
 21
-137.944
  0
LINE
  8
0
 10
193.155
 20
-137.944
 11
196.694
 21
-134.405
  0
LINE
  8
0
 10
196.694
 20
-134.405
 11
198.967
 21
-129.944
  0
LINE
  8
0
 10
198.967
 20
-129.944
 11
199.75
 21
-125
  0
LINE
  8
0
 10
199.75
 20
-125
 11
198.967
 21
-120.056
  0
LINE
  8
0
 10
198.967
 20
-120.056
 11
196.694
 21
-115.595
  0
LINE
  8
0
 10
196.694
 20
-115.595
 11
193.155
 21
-112.056
  0
LINE
  8
0
 10
193.155
 20
-112.056
 11
188.694
 21
-109.783
  0
LINE
  8
0
 10
188.694
 20
-109.783
 11
183.75
 21
-109
  0
LINE
  8
0
 10
183.75
 20
-109
 11
178.806
 21
-109.783
  0
LINE
  8
0
 10
178.806
 20
-109.783
 11
174.345
 21
-112.056
  0
LINE
  8
0
 10
174.345
 20
-112.056
 11
170.806
 21
-115.595
  0
LINE
  8
0
 10
170.806
 20
-115.595
 11
168.533
 21
-120.056
  0
LINE
  8
0
 10
168.533
 20
-120.056
 11
167.75
 21
-125
  0
LINE
  8
0
 10
167.75
 20
-125
 11
168.533
 21
-129.944
  0
LINE
  8
0
 10
168.533
 20
-129.944
 11
170.806
 21
-134.405
  0
LINE
  8
0
 10
170.806
 20
-134.405
 11
174.345
 21
-137.944
  0
LINE
  8
0
 10
174.345
 20
-137.944
 11
178.806
 21
-140.217
  0
LINE
  8
0
 10
178.806
 20
-140.217
 11
183.75
 21
-141
  0
LINE
  8
0
 10
183.75
 20
-141
 11
188.694
 21
-140.217
  0
LINE
  8
0
 10
241.194
 20
-140.217
 11
245.655
 21
-137.944
  0
LINE
  8
0
 10
245.655
 20
-137.944
 11
249.194
 21
-134.405
  0
LINE
  8
0
 10
249.194
 20
-134.405
 11
251.467
 21
-129.944
  0
LINE
  8
0
 10
251.467
 20
-129.944
 11
252.25
 21
-125
  0
LINE
  8
0
 10
252.25
 20
-125
 11
251.467
 21
-120.056
  0
LINE
  8
0
 10
251.467
 20
-120.056
 11
249.194
 21
-115.595
  0
LINE
  8
0
 10
249.194
 20
-115.595
 11
245.655
 21
-112.056
  0
LINE
  8
0
 10
245.655
 20
-112.056
 11
241.194
 21
-109.783
  0
LINE
  8
0
 10
241.194
 20
-109.783
 11
236.25
 21
-109
  0
LINE
  8
0
 10
236.25
 20
-109
 11
231.306
 21
-109.783
  0
LINE
  8
0
 10
231.306
 20
-109.783
 11
226.845
 21
-112.056
  0
LINE
  8
0
 10
226.845
 20
-112.056
 11
223.306
 21
-115.595
  0
LINE
  8
0
 10
223.306
 20
-115.595
 11
221.033
 21
-120.056
  0
LINE
  8
0
 10
221.033
 20
-120.056
 11
220.25
 21
-125
  0
LINE
  8
0
 10
220.25
 20
-125
 11
221.033
 21
-129.944
  0
LINE
  8
0
 10
221.033
 20
-129.944
 11
223.306
 21
-134.405
  0
LINE
  8
0
 10
223.306
 20
-134.405
 11
226.845
 21
-137.944
  0
LINE
  8
0
 10
226.845
 20
-137.944
 11
231.306
 21
-140.217
  0
LINE
  8
0
 10
231.306
 20
-140.217
 11
236.25
 21
-141
  0
LINE
  8
0
 10
236.25
 20
-141
 11
241.194
 21
-140.217
  0
LINE
  8
0
 10
-178.806
 20
-140.217
 11
-174.345
 21
-137.944
  0
LINE
  8
0
 10
-174.345
 20
-137.944
 11
-170.806
 21
-134.405
  0
LINE
  8
0
 10
-170.806
 20
-134.405
 11
-168.533
 21
-129.944
  0
LINE
  8
0
 10
-168.533
 20
-129.944
 11
-167.75
 21
-125
  0
LINE
  8
0
 10
-167.75
 20
-125
 11
-168.533
 21
-120.056
  0
LINE
  8
0
 10
-168.533
 20
-120.056
 11
-170.806
 21
-115.595
  0
LINE
  8
0
 10
-170.806
 20
-115.595
 11
-174.345
 21
-112.056
  0
LINE
  8
0
 10
-174.345
 20
-112.056
 11
-178.806
 21
-109.783
  0
LINE
  8
0
 10
-178.806
 20
-109.783
 11
-183.75
 21
-109
  0
LINE
  8
0
 10
-183.75
 20
-109
 11
-188.694
 21
-109.783
  0
LINE
  8
0
 10
-188.694
 20
-109.783
 11
-193.155
 21
-112.056
  0
LINE
  8
0
 10
-193.155
 20
-112.056
 11
-196.694
 21
-115.595
  0
LINE
  8
0
 10
-196.694
 20
-115.595
 11
-198.967
 21
-120.056
  0
LINE
  8
0
 10
-198.967
 20
-120.056
 11
-199.75
 21
-125
  0
LINE
  8
0
 10
-199.75
 20
-125
 11
-198.967
 21
-129.944
  0
LINE
  8
0
 10
-198.967
 20
-129.944
 11
-196.694
 21
-134.405
  0
LINE
  8
0
 10
-196.694
 20
-134.405
 11
-193.155
 21
-137.944
  0
LINE
  8
0
 10
-193.155
 20
-137.944
 11
-188.694
 21
-140.217
  0
LINE
  8
0
 10
-188.694
 20
-140.217
 11
-183.75
 21
-141
  0
LINE
  8
0
 10
-183.75
 20
-141
 11
-178.806
 21
-140.217
  0
LINE
  8
0
 10
293.694
 20
-140.217
 11
298.155
 21
-137.944
  0
LINE
  8
0
 10
298.155
 20
-137.944
 11
301.694
 21
-134.405
  0
LINE
  8
0
 10
301.694
 20
-134.405
 11
303.967
 21
-129.944
  0
LINE
  8
0
 10
303.967
 20
-129.944
 11
304.75
 21
-125
  0
LINE
  8
0
 10
304.75
 20
-125
 11
303.967
 21
-120.056
  0
LINE
  8
0
 10
303.967
 20
-120.056
 11
301.694
 21
-115.595
  0
LINE
  8
0
 10
301.694
 20
-115.595
 11
298.155
 21
-112.056
  0
LINE
  8
0
 10
298.155
 20
-112.056
 11
293.694
 21
-109.783
  0
LINE
  8
0
 10
293.694
 20
-109.783
 11
288.75
 21
-109
  0
LINE
  8
0
 10
288.75
 20
-109
 11
283.806
 21
-109.783
  0
LINE
  8
0
 10
283.806
 20
-109.783
 11
279.345
 21
-112.056
  0
LINE
  8
0
 10
279.345
 20
-112.056
 11
275.806
 21
-115.595
  0
LINE
  8
0
 10
275.806
 20
-115.595
 11
273.533
 21
-120.056
  0
LINE
  8
0
 10
273.533
 20
-120.056
 11
272.75
 21
-125
  0
LINE
  8
0
 10
272.75
 20
-125
 11
273.533
 21
-129.944
  0
LINE
  8
0
 10
273.533
 20
-129.944
 11
275.806
 21
-134.405
  0
LINE
  8
0
 10
275.806
 20
-134.405
 11
279.345
 21
-137.944
  0
LINE
  8
0
 10
279.345
 20
-137.944
 11
283.806
 21
-140.217
  0
LINE
  8
0
 10
283.806
 20
-140.217
 11
288.75
 21
-141
  0
LINE
  8
0
 10
288.75
 20
-141
 11
293.694
 21
-140.217
  0
LINE
  8
0
 10
31.1943
 20
-140.217
 11
35.6546
 21
-137.944
  0
LINE
  8
0
 10
35.6546
 20
-137.944
 11
39.1943
 21
-134.405
  0
LINE
  8
0
 10
39.1943
 20
-134.405
 11
41.4669
 21
-129.944
  0
LINE
  8
0
 10
41.4669
 20
-129.944
 11
42.25
 21
-125
  0
LINE
  8
0
 10
42.25
 20
-125
 11
41.4669
 21
-120.056
  0
LINE
  8
0
 10
41.4669
 20
-120.056
 11
39.1943
 21
-115.595
  0
LINE
  8
0
 10
39.1943
 20
-115.595
 11
35.6546
 21
-112.056
  0
LINE
  8
0
 10
35.6546
 20
-112.056
 11
31.1943
 21
-109.783
  0
LINE
  8
0
 10
31.1943
 20
-109.783
 11
26.25
 21
-109
  0
LINE
  8
0
 10
26.25
 20
-109
 11
21.3057
 21
-109.783
  0
LINE
  8
0
 10
21.3057
 20
-109.783
 11
16.8454
 21
-112.056
  0
LINE
  8
0
 10
16.8454
 20
-112.056
 11
13.3057
 21
-115.595
  0
LINE
  8
0
 10
13.3057
 20
-115.595
 11
11.0331
 21
-120.056
  0
LINE
  8
0
 10
11.0331
 20
-120.056
 11
10.25
 21
-125
  0
LINE
  8
0
 10
10.25
 20
-125
 11
11.0331
 21
-129.944
  0
LINE
  8
0
 10
11.0331
 20
-129.944
 11
13.3057
 21
-134.405
  0
LINE
  8
0
 10
13.3057
 20
-134.405
 11
16.8454
 21
-137.944
  0
LINE
  8
0
 10
16.8454
 20
-137.944
 11
21.3057
 21
-140.217
  0
LINE
  8
0
 10
21.3057
 20
-140.217
 11
26.25
 21
-141
  0
LINE
  8
0
 10
26.25
 20
-141
 11
31.1943
 21
-140.217
  0
LINE
  8
0
 10
136.194
 20
-140.217
 11
140.655
 21
-137.944
  0
LINE
  8
0
 10
140.655
 20
-137.944
 11
144.194
 21
-134.405
  0
LINE
  8
0
 10
144.194
 20
-134.405
 11
146.467
 21
-129.944
  0
LINE
  8
0
 10
146.467
 20
-129.944
 11
147.25
 21
-125
  0
LINE
  8
0
 10
147.25
 20
-125
 11
146.467
 21
-120.056
  0
LINE
  8
0
 10
146.467
 20
-120.056
 11
144.194
 21
-115.595
  0
LINE
  8
0
 10
144.194
 20
-115.595
 11
140.655
 21
-112.056
  0
LINE
  8
0
 10
140.655
 20
-112.056
 11
136.194
 21
-109.783
  0
LINE
  8
0
 10
136.194
 20
-109.783
 11
131.25
 21
-109
  0
LINE
  8
0
 10
131.25
 20
-109
 11
126.306
 21
-109.783
  0
LINE
  8
0
 10
126.306
 20
-109.783
 11
121.845
 21
-112.056
  0
LINE
  8
0
 10
121.845
 20
-112.056
 11
118.306
 21
-115.595
  0
LINE
  8
0
 10
118.306
 20
-115.595
 11
116.033
 21
-120.056
  0
LINE
  8
0
 10
116.033
 20
-120.056
 11
115.25
 21
-125
  0
LINE
  8
0
 10
115.25
 20
-125
 11
116.033
 21
-129.944
  0
LINE
  8
0
 10
116.033
 20
-129.944
 11
118.306
 21
-134.405
  0
LINE
  8
0
 10
118.306
 20
-134.405
 11
121.845
 21
-137.944
  0
LINE
  8
0
 10
121.845
 20
-137.944
 11
126.306
 21
-140.217
  0
LINE
  8
0
 10
126.306
 20
-140.217
 11
131.25
 21
-141
  0
LINE
  8
0
 10
131.25
 20
-141
 11
136.194
 21
-140.217
  0
LINE
  8
0
 10
-231.306
 20
-140.217
 11
-226.845
 21
-137.944
  0
LINE
  8
0
 10
-226.845
 20
-137.944
 11
-223.306
 21
-134.405
  0
LINE
  8
0
 10
-223.306
 20
-134.405
 11
-221.033
 21
-129.944
  0
LINE
  8
0
 10
-221.033
 20
-129.944
 11
-220.25
 21
-125
  0
LINE
  8
0
 10
-220.25
 20
-125
 11
-221.033
 21
-120.056
  0
LINE
  8
0
 10
-221.033
 20
-120.056
 11
-223.306
 21
-115.595
  0
LINE
  8
0
 10
-223.306
 20
-115.595
 11
-226.845
 21
-112.056
  0
LINE
  8
0
 10
-226.845
 20
-112.056
 11
-231.306
 21
-109.783
  0
LINE
  8
0
 10
-231.306
 20
-109.783
 11
-236.25
 21
-109
  0
LINE
  8
0
 10
-236.25
 20
-109
 11
-241.194
 21
-109.783
  0
LINE
  8
0
 10
-241.194
 20
-109.783
 11
-245.655
 21
-112.056
  0
LINE
  8
0
 10
-245.655
 20
-112.056
 11
-249.194
 21
-115.595
  0
LINE
  8
0
 10
-249.194
 20
-115.595
 11
-251.467
 21
-120.056
  0
LINE
  8
0
 10
-251.467
 20
-120.056
 11
-252.25
 21
-125
  0
LINE
  8
0
 10
-252.25
 20
-125
 11
-251.467
 21
-129.944
  0
LINE
  8
0
 10
-251.467
 20
-129.944
 11
-249.194
 21
-134.405
  0
LINE
  8
0
 10
-249.194
 20
-134.405
 11
-245.655
 21
-137.944
  0
LINE
  8
0
 10
-245.655
 20
-137.944
 11
-241.194
 21
-140.217
  0
LINE
  8
0
 10
-241.194
 20
-140.217
 11
-236.25
 21
-141
  0
LINE
  8
0
 10
-236.25
 20
-141
 11
-231.306
 21
-140.217
  0
LINE
  8
0
 10
-21.3057
 20
-140.217
 11
-16.8454
 21
-137.944
  0
LINE
  8
0
 10
-16.8454
 20
-137.944
 11
-13.3057
 21
-134.405
  0
LINE
  8
0
 10
-13.3057
 20
-134.405
 11
-11.0331
 21
-129.944
  0
LINE
  8
0
 10
-11.0331
 20
-129.944
 11
-10.25
 21
-125
  0
LINE
  8
0
 10
-10.25
 20
-125
 11
-11.0331
 21
-120.056
  0
LINE
  8
0
 10
-11.0331
 20
-120.056
 11
-13.3057
 21
-115.595
  0
LINE
  8
0
 10
-13.3057
 20
-115.595
 11
-16.8454
 21
-112.056
  0
LINE
  8
0
 10
-16.8454
 20
-112.056
 11
-21.3057
 21
-109.783
  0
LINE
  8
0
 10
-21.3057
 20
-109.783
 11
-26.25
 21
-109
  0
LINE
  8
0
 10
-26.25
 20
-109
 11
-31.1943
 21
-109.783
  0
LINE
  8
0
 10
-31.1943
 20
-109.783
 11
-35.6546
 21
-112.056
  0
LINE
  8
0
 10
-35.6546
 20
-112.056
 11
-39.1943
 21
-115.595
  0
LINE
  8
0
 10
-39.1943
 20
-115.595
 11
-41.4669
 21
-120.056
  0
LINE
  8
0
 10
-41.4669
 20
-120.056
 11
-42.25
 21
-125
  0
LINE
  8
0
 10
-42.25
 20
-125
 11
-41.4669
 21
-129.944
  0
LINE
  8
0
 10
-41.4669
 20
-129.944
 11
-39.1943
 21
-134.405
  0
LINE
  8
0
 10
-39.1943
 20
-134.405
 11
-35.6546
 21
-137.944
  0
LINE
  8
0
 10
-35.6546
 20
-137.944
 11
-31.1943
 21
-140.217
  0
LINE
  8
0
 10
-31.1943
 20
-140.217
 11
-26.25
 21
-141
  0
LINE
  8
0
 10
-26.25
 20
-141
 11
-21.3057
 21
-140.217
  0
LINE
  8
0
 10
83.6943
 20
-140.217
 11
88.1546
 21
-137.944
  0
LINE
  8
0
 10
88.1546
 20
-137.944
 11
91.6943
 21
-134.405
  0
LINE
  8
0
 10
91.6943
 20
-134.405
 11
93.9669
 21
-129.944
  0
LINE
  8
0
 10
93.9669
 20
-129.944
 11
94.75
 21
-125
  0
LINE
  8
0
 10
94.75
 20
-125
 11
93.9669
 21
-120.056
  0
LINE
  8
0
 10
93.9669
 20
-120.056
 11
91.6943
 21
-115.595
  0
LINE
  8
0
 10
91.6943
 20
-115.595
 11
88.1546
 21
-112.056
  0
LINE
  8
0
 10
88.1546
 20
-112.056
 11
83.6943
 21
-109.783
  0
LINE
  8
0
 10
83.6943
 20
-109.783
 11
78.75
 21
-109
  0
LINE
  8
0
 10
78.75
 20
-109
 11
73.8057
 21
-109.783
  0
LINE
  8
0
 10
73.8057
 20
-109.783
 11
69.3454
 21
-112.056
  0
LINE
  8
0
 10
69.3454
 20
-112.056
 11
65.8057
 21
-115.595
  0
LINE
  8
0
 10
65.8057
 20
-115.595
 11
63.5331
 21
-120.056
  0
LINE
  8
0
 10
63.5331
 20
-120.056
 11
62.75
 21
-125
  0
LINE
  8
0
 10
62.75
 20
-125
 11
63.5331
 21
-129.944
  0
LINE
  8
0
 10
63.5331
 20
-129.944
 11
65.8057
 21
-134.405
  0
LINE
  8
0
 10
65.8057
 20
-134.405
 11
69.3454
 21
-137.944
  0
LINE
  8
0
 10
69.3454
 20
-137.944
 11
73.8057
 21
-140.217
  0
LINE
  8
0
 10
73.8057
 20
-140.217
 11
78.75
 21
-141
  0
LINE
  8
0
 10
78.75
 20
-141
 11
83.6943
 21
-140.217
  0
LINE
  8
0
 10
-126.306
 20
-140.217
 11
-121.845
 21
-137.944
  0
LINE
  8
0
 10
-121.845
 20
-137.944
 11
-118.306
 21
-134.405
  0
LINE
  8
0
 10
-118.306
 20
-134.405
 11
-116.033
 21
-129.944
  0
LINE
  8
0
 10
-116.033
 20
-129.944
 11
-115.25
 21
-125
  0
LINE
  8
0
 10
-115.25
 20
-125
 11
-116.033
 21
-120.056
  0
LINE
  8
0
 10
-116.033
 20
-120.056
 11
-118.306
 21
-115.595
  0
LINE
  8
0
 10
-118.306
 20
-115.595
 11
-121.845
 21
-112.056
  0
LINE
  8
0
 10
-121.845
 20
-112.056
 11
-126.306
 21
-109.783
  0
LINE
  8
0
 10
-126.306
 20
-109.783
 11
-131.25
 21
-109
  0
LINE
  8
0
 10
-131.25
 20
-109
 11
-136.194
 21
-109.783
  0
LINE
  8
0
 10
-136.194
 20
-109.783
 11
-140.655
 21
-112.056
  0
LINE
  8
0
 10
-140.655
 20
-112.056
 11
-144.194
 21
-115.595
  0
LINE
  8
0
 10
-144.194
 20
-115.595
 11
-146.467
 21
-120.056
  0
LINE
  8
0
 10
-146.467
 20
-120.056
 11
-147.25
 21
-125
  0
LINE
  8
0
 10
-147.25
 20
-125
 11
-146.467
 21
-129.944
  0
LINE
  8
0
 10
-146.467
 20
-129.944
 11
-144.194
 21
-134.405
  0
LINE
  8
0
 10
-144.194
 20
-134.405
 11
-140.655
 21
-137.944
  0
LINE
  8
0
 10
-140.655
 20
-137.944
 11
-136.194
 21
-140.217
  0
LINE
  8
0
 10
-136.194
 20
-140.217
 11
-131.25
 21
-141
  0
LINE
  8
0
 10
-131.25
 20
-141
 11
-126.306
 21
-140.217
  0
LINE
  8
0
 10
-231.306
 20
-190.217
 11
-226.845
 21
-187.944
  0
LINE
  8
0
 10
-226.845
 20
-187.944
 11
-223.306
 21
-184.405
  0
LINE
  8
0
 10
-223.306
 20
-184.405
 11
-221.033
 21
-179.944
  0
LINE
  8
0
 10
-221.033
 20
-179.944
 11
-220.25
 21
-175
  0
LINE
  8
0
 10
-220.25
 20
-175
 11
-221.033
 21
-170.056
  0
LINE
  8
0
 10
-221.033
 20
-170.056
 11
-223.306
 21
-165.595
  0
LINE
  8
0
 10
-223.306
 20
-165.595
 11
-226.845
 21
-162.056
  0
LINE
  8
0
 10
-226.845
 20
-162.056
 11
-231.306
 21
-159.783
  0
LINE
  8
0
 10
-231.306
 20
-159.783
 11
-236.25
 21
-159
  0
LINE
  8
0
 10
-236.25
 20
-159
 11
-241.194
 21
-159.783
  0
LINE
  8
0
 10
-241.194
 20
-159.783
 11
-245.655
 21
-162.056
  0
LINE
  8
0
 10
-245.655
 20
-162.056
 11
-249.194
 21
-165.595
  0
LINE
  8
0
 10
-249.194
 20
-165.595
 11
-251.467
 21
-170.056
  0
LINE
  8
0
 10
-251.467
 20
-170.056
 11
-252.25
 21
-175
  0
LINE
  8
0
 10
-252.25
 20
-175
 11
-251.467
 21
-179.944
  0
LINE
  8
0
 10
-251.467
 20
-179.944
 11
-249.194
 21
-184.405
  0
LINE
  8
0
 10
-249.194
 20
-184.405
 11
-245.655
 21
-187.944
  0
LINE
  8
0
 10
-245.655
 20
-187.944
 11
-241.194
 21
-190.217
  0
LINE
  8
0
 10
-241.194
 20
-190.217
 11
-236.25
 21
-191
  0
LINE
  8
0
 10
-236.25
 20
-191
 11
-231.306
 21
-190.217
  0
LINE
  8
0
 10
241.194
 20
-190.217
 11
245.655
 21
-187.944
  0
LINE
  8
0
 10
245.655
 20
-187.944
 11
249.194
 21
-184.405
  0
LINE
  8
0
 10
249.194
 20
-184.405
 11
251.467
 21
-179.944
  0
LINE
  8
0
 10
251.467
 20
-179.944
 11
252.25
 21
-175
  0
LINE
  8
0
 10
252.25
 20
-175
 11
251.467
 21
-170.056
  0
LINE
  8
0
 10
251.467
 20
-170.056
 11
249.194
 21
-165.595
  0
LINE
  8
0
 10
249.194
 20
-165.595
 11
245.655
 21
-162.056
  0
LINE
  8
0
 10
245.655
 20
-162.056
 11
241.194
 21
-159.783
  0
LINE
  8
0
 10
241.194
 20
-159.783
 11
236.25
 21
-159
  0
LINE
  8
0
 10
236.25
 20
-159
 11
231.306
 21
-159.783
  0
LINE
  8
0
 10
231.306
 20
-159.783
 11
226.845
 21
-162.056
  0
LINE
  8
0
 10
226.845
 20
-162.056
 11
223.306
 21
-165.595
  0
LINE
  8
0
 10
223.306
 20
-165.595
 11
221.033
 21
-170.056
  0
LINE
  8
0
 10
221.033
 20
-170.056
 11
220.25
 21
-175
  0
LINE
  8
0
 10
220.25
 20
-175
 11
221.033
 21
-179.944
  0
LINE
  8
0
 10
221.033
 20
-179.944
 11
223.306
 21
-184.405
  0
LINE
  8
0
 10
223.306
 20
-184.405
 11
226.845
 21
-187.944
  0
LINE
  8
0
 10
226.845
 20
-187.944
 11
231.306
 21
-190.217
  0
LINE
  8
0
 10
231.306
 20
-190.217
 11
236.25
 21
-191
  0
LINE
  8
0
 10
236.25
 20
-191
 11
241.194
 21
-190.217
  0
LINE
  8
0
 10
31.1943
 20
-190.217
 11
35.6546
 21
-187.944
  0
LINE
  8
0
 10
35.6546
 20
-187.944
 11
39.1943
 21
-184.405
  0
LINE
  8
0
 10
39.1943
 20
-184.405
 11
41.4669
 21
-179.944
  0
LINE
  8
0
 10
41.4669
 20
-179.944
 11
42.25
 21
-175
  0
LINE
  8
0
 10
42.25
 20
-175
 11
41.4669
 21
-170.056
  0
LINE
  8
0
 10
41.4669
 20
-170.056
 11
39.1943
 21
-165.595
  0
LINE
  8
0
 10
39.1943
 20
-165.595
 11
35.6546
 21
-162.056
  0
LINE
  8
0
 10
35.6546
 20
-162.056
 11
31.1943
 21
-159.783
  0
LINE
  8
0
 10
31.1943
 20
-159.783
 11
26.25
 21
-159
  0
LINE
  8
0
 10
26.25
 20
-159
 11
21.3057
 21
-159.783
  0
LINE
  8
0
 10
21.3057
 20
-159.783
 11
16.8454
 21
-162.056
  0
LINE
  8
0
 10
16.8454
 20
-162.056
 11
13.3057
 21
-165.595
  0
LINE
  8
0
 10
13.3057
 20
-165.595
 11
11.0331
 21
-170.056
  0
LINE
  8
0
 10
11.0331
 20
-170.056
 11
10.25
 21
-175
  0
LINE
  8
0
 10
10.25
 20
-175
 11
11.0331
 21
-179.944
  0
LINE
  8
0
 10
11.0331
 20
-179.944
 11
13.3057
 21
-184.405
  0
LINE
  8
0
 10
13.3057
 20
-184.405
 11
16.8454
 21
-187.944
  0
LINE
  8
0
 10
16.8454
 20
-187.944
 11
21.3057
 21
-190.217
  0
LINE
  8
0
 10
21.3057
 20
-190.217
 11
26.25
 21
-191
  0
LINE
  8
0
 10
26.25
 20
-191
 11
31.1943
 21
-190.217
  0
LINE
  8
0
 10
-21.3057
 20
-190.217
 11
-16.8454
 21
-187.944
  0
LINE
  8
0
 10
-16.8454
 20
-187.944
 11
-13.3057
 21
-184.405
  0
LINE
  8
0
 10
-13.3057
 20
-184.405
 11
-11.0331
 21
-179.944
  0
LINE
  8
0
 10
-11.0331
 20
-179.944
 11
-10.25
 21
-175
  0
LINE
  8
0
 10
-10.25
 20
-175
 11
-11.0331
 21
-170.056
  0
LINE
  8
0
 10
-11.0331
 20
-170.056
 11
-13.3057
 21
-165.595
  0
LINE
  8
0
 10
-13.3057
 20
-165.595
 11
-16.8454
 21
-162.056
  0
LINE
  8
0
 10
-16.8454
 20
-162.056
 11
-21.3057
 21
-159.783
  0
LINE
  8
0
 10
-21.3057
 20
-159.783
 11
-26.25
 21
-159
  0
LINE
  8
0
 10
-26.25
 20
-159
 11
-31.1943
 21
-159.783
  0
LINE
  8
0
 10
-31.1943
 20
-159.783
 11
-35.6546
 21
-162.056
  0
LINE
  8
0
 10
-35.6546
 20
-162.056
 11
-39.1943
 21
-165.595
  0
LINE
  8
0
 10
-39.1943
 20
-165.595
 11
-41.4669
 21
-170.056
  0
LINE
  8
0
 10
-41.4669
 20
-170.056
 11
-42.25
 21
-175
  0
LINE
  8
0
 10
-42.25
 20
-175
 11
-41.4669
 21
-179.944
  0
LINE
  8
0
 10
-41.4669
 20
-179.944
 11
-39.1943
 21
-184.405
  0
LINE
  8
0
 10
-39.1943
 20
-184.405
 11
-35.6546
 21
-187.944
  0
LINE
  8
0
 10
-35.6546
 20
-187.944
 11
-31.1943
 21
-190.217
  0
LINE
  8
0
 10
-31.1943
 20
-190.217
 11
-26.25
 21
-191
  0
LINE
  8
0
 10
-26.25
 20
-191
 11
-21.3057
 21
-190.217
  0
LINE
  8
0
 10
-126.306
 20
-190.217
 11
-121.845
 21
-187.944
  0
LINE
  8
0
 10
-121.845
 20
-187.944
 11
-118.306
 21
-184.405
  0
LINE
  8
0
 10
-118.306
 20
-184.405
 11
-116.033
 21
-179.944
  0
LINE
  8
0
 10
-116.033
 20
-179.944
 11
-115.25
 21
-175
  0
LINE
  8
0
 10
-115.25
 20
-175
 11
-116.033
 21
-170.056
  0
LINE
  8
0
 10
-116.033
 20
-170.056
 11
-118.306
 21
-165.595
  0
LINE
  8
0
 10
-118.306
 20
-165.595
 11
-121.845
 21
-162.056
  0
LINE
  8
0
 10
-121.845
 20
-162.056
 11
-126.306
 21
-159.783
  0
LINE
  8
0
 10
-126.306
 20
-159.783
 11
-131.25
 21
-159
  0
LINE
  8
0
 10
-131.25
 20
-159
 11
-136.194
 21
-159.783
  0
LINE
  8
0
 10
-136.194
 20
-159.783
 11
-140.655
 21
-162.056
  0
LINE
  8
0
 10
-140.655
 20
-162.056
 11
-144.194
 21
-165.595
  0
LINE
  8
0
 10
-144.194
 20
-165.595
 11
-146.467
 21
-170.056
  0
LINE
  8
0
 10
-146.467
 20
-170.056
 11
-147.25
 21
-175
  0
LINE
  8
0
 10
-147.25
 20
-175
 11
-146.467
 21
-179.944
  0
LINE
  8
0
 10
-146.467
 20
-179.944
 11
-144.194
 21
-184.405
  0
LINE
  8
0
 10
-144.194
 20
-184.405
 11
-140.655
 21
-187.944
  0
LINE
  8
0
 10
-140.655
 20
-187.944
 11
-136.194
 21
-190.217
  0
LINE
  8
0
 10
-136.194
 20
-190.217
 11
-131.25
 21
-191
  0
LINE
  8
0
 10
-131.25
 20
-191
 11
-126.306
 21
-190.217
  0
LINE
  8
0
 10
-178.806
 20
-190.217
 11
-174.345
 21
-187.944
  0
LINE
  8
0
 10
-174.345
 20
-187.944
 11
-170.806
 21
-184.405
  0
LINE
  8
0
 10
-170.806
 20
-184.405
 11
-168.533
 21
-179.944
  0
LINE
  8
0
 10
-168.533
 20
-179.944
 11
-167.75
 21
-175
  0
LINE
  8
0
 10
-167.75
 20
-175
 11
-168.533
 21
-170.056
  0
LINE
  8
0
 10
-168.533
 20
-170.056
 11
-170.806
 21
-165.595
  0
LINE
  8
0
 10
-170.806
 20
-165.595
 11
-174.345
 21
-162.056
  0
LINE
  8
0
 10
-174.345
 20
-162.056
 11
-178.806
 21
-159.783
  0
LINE
  8
0
 10
-178.806
 20
-159.783
 11
-183.75
 21
-159
  0
LINE
  8
0
 10
-183.75
 20
-159
 11
-188.694
 21
-159.783
  0
LINE
  8
0
 10
-188.694
 20
-159.783
 11
-193.155
 21
-162.056
  0
LINE
  8
0
 10
-193.155
 20
-162.056
 11
-196.694
 21
-165.595
  0
LINE
  8
0
 10
-196.694
 20
-165.595
 11
-198.967
 21
-170.056
  0
LINE
  8
0
 10
-198.967
 20
-170.056
 11
-199.75
 21
-175
  0
LINE
  8
0
 10
-199.75
 20
-175
 11
-198.967
 21
-179.944
  0
LINE
  8
0
 10
-198.967
 20
-179.944
 11
-196.694
 21
-184.405
  0
LINE
  8
0
 10
-196.694
 20
-184.405
 11
-193.155
 21
-187.944
  0
LINE
  8
0
 10
-193.155
 20
-187.944
 11
-188.694
 21
-190.217
  0
LINE
  8
0
 10
-188.694
 20
-190.217
 11
-183.75
 21
-191
  0
LINE
  8
0
 10
-183.75
 20
-191
 11
-178.806
 21
-190.217
  0
LINE
  8
0
 10
188.694
 20
-190.217
 11
193.155
 21
-187.944
  0
LINE
  8
0
 10
193.155
 20
-187.944
 11
196.694
 21
-184.405
  0
LINE
  8
0
 10
196.694
 20
-184.405
 11
198.967
 21
-179.944
  0
LINE
  8
0
 10
198.967
 20
-179.944
 11
199.75
 21
-175
  0
LINE
  8
0
 10
199.75
 20
-175
 11
198.967
 21
-170.056
  0
LINE
  8
0
 10
198.967
 20
-170.056
 11
196.694
 21
-165.595
  0
LINE
  8
0
 10
196.694
 20
-165.595
 11
193.155
 21
-162.056
  0
LINE
  8
0
 10
193.155
 20
-162.056
 11
188.694
 21
-159.783
  0
LINE
  8
0
 10
188.694
 20
-159.783
 11
183.75
 21
-159
  0
LINE
  8
0
 10
183.75
 20
-159
 11
178.806
 21
-159.783
  0
LINE
  8
0
 10
178.806
 20
-159.783
 11
174.345
 21
-162.056
  0
LINE
  8
0
 10
174.345
 20
-162.056
 11
170.806
 21
-165.595
  0
LINE
  8
0
 10
170.806
 20
-165.595
 11
168.533
 21
-170.056
  0
LINE
  8
0
 10
168.533
 20
-170.056
 11
167.75
 21
-175
  0
LINE
  8
0
 10
167.75
 20
-175
 11
168.533
 21
-179.944
  0
LINE
  8
0
 10
168.533
 20
-179.944
 11
170.806
 21
-184.405
  0
LINE
  8
0
 10
170.806
 20
-184.405
 11
174.345
 21
-187.944
  0
LINE
  8
0
 10
174.345
 20
-187.944
 11
178.806
 21
-190.217
  0
LINE
  8
0
 10
178.806
 20
-190.217
 11
183.75
 21
-191
  0
LINE
  8
0
 10
183.75
 20
-191
 11
188.694
 21
-190.217
  0
LINE
  8
0
 10
83.6943
 20
-190.217
 11
88.1546
 21
-187.944
  0
LINE
  8
0
 10
88.1546
 20
-187.944
 11
91.6943
 21
-184.405
  0
LINE
  8
0
 10
91.6943
 20
-184.405
 11
93.9669
 21
-179.944
  0
LINE
  8
0
 10
93.9669
 20
-179.944
 11
94.75
 21
-175
  0
LINE
  8
0
 10
94.75
 20
-175
 11
93.9669
 21
-170.056
  0
LINE
  8
0
 10
93.9669
 20
-170.056
 11
91.6943
 21
-165.595
  0
LINE
  8
0
 10
91.6943
 20
-165.595
 11
88.1546
 21
-162.056
  0
LINE
  8
0
 10
88.1546
 20
-162.056
 11
83.6943
 21
-159.783
  0
LINE
  8
0
 10
83.6943
 20
-159.783
 11
78.75
 21
-159
  0
LINE
  8
0
 10
78.75
 20
-159
 11
73.8057
 21
-159.783
  0
LINE
  8
0
 10
73.8057
 20
-159.783
 11
69.3454
 21
-162.056
  0
LINE
  8
0
 10
69.3454
 20
-162.056
 11
65.8057
 21
-165.595
  0
LINE
  8
0
 10
65.8057
 20
-165.595
 11
63.5331
 21
-170.056
  0
LINE
  8
0
 10
63.5331
 20
-170.056
 11
62.75
 21
-175
  0
LINE
  8
0
 10
62.75
 20
-175
 11
63.5331
 21
-179.944
  0
LINE
  8
0
 10
63.5331
 20
-179.944
 11
65.8057
 21
-184.405
  0
LINE
  8
0
 10
65.8057
 20
-184.405
 11
69.3454
 21
-187.944
  0
LINE
  8
0
 10
69.3454
 20
-187.944
 11
73.8057
 21
-190.217
  0
LINE
  8
0
 10
73.8057
 20
-190.217
 11
78.75
 21
-191
  0
LINE
  8
0
 10
78.75
 20
-191
 11
83.6943
 21
-190.217
  0
LINE
  8
0
 10
-73.8057
 20
-190.217
 11
-69.3454
 21
-187.944
  0
LINE
  8
0
 10
-69.3454
 20
-187.944
 11
-65.8057
 21
-184.405
  0
LINE
  8
0
 10
-65.8057
 20
-184.405
 11
-63.5331
 21
-179.944
  0
LINE
  8
0
 10
-63.5331
 20
-179.944
 11
-62.75
 21
-175
  0
LINE
  8
0
 10
-62.75
 20
-175
 11
-63.5331
 21
-170.056
  0
LINE
  8
0
 10
-63.5331
 20
-170.056
 11
-65.8057
 21
-165.595
  0
LINE
  8
0
 10
-65.8057
 20
-165.595
 11
-69.3454
 21
-162.056
  0
LINE
  8
0
 10
-69.3454
 20
-162.056
 11
-73.8057
 21
-159.783
  0
LINE
  8
0
 10
-73.8057
 20
-159.783
 11
-78.75
 21
-159
  0
LINE
  8
0
 10
-78.75
 20
-159
 11
-83.6943
 21
-159.783
  0
LINE
  8
0
 10
-83.6943
 20
-159.783
 11
-88.1546
 21
-162.056
  0
LINE
  8
0
 10
-88.1546
 20
-162.056
 11
-91.6943
 21
-165.595
  0
LINE
  8
0
 10
-91.6943
 20
-165.595
 11
-93.9669
 21
-170.056
  0
LINE
  8
0
 10
-93.9669
 20
-170.056
 11
-94.75
 21
-175
  0
LINE
  8
0
 10
-94.75
 20
-175
 11
-93.9669
 21
-179.944
  0
LINE
  8
0
 10
-93.9669
 20
-179.944
 11
-91.6943
 21
-184.405
  0
LINE
  8
0
 10
-91.6943
 20
-184.405
 11
-88.1546
 21
-187.944
  0
LINE
  8
0
 10
-88.1546
 20
-187.944
 11
-83.6943
 21
-190.217
  0
LINE
  8
0
 10
-83.6943
 20
-190.217
 11
-78.75
 21
-191
  0
LINE
  8
0
 10
-78.75
 20
-191
 11
-73.8057
 21
-190.217
  0
LINE
  8
0
 10
293.694
 20
-190.217
 11
298.155
 21
-187.944
  0
LINE
  8
0
 10
298.155
 20
-187.944
 11
301.694
 21
-184.405
  0
LINE
  8
0
 10
301.694
 20
-184.405
 11
303.967
 21
-179.944
  0
LINE
  8
0
 10
303.967
 20
-179.944
 11
304.75
 21
-175
  0
LINE
  8
0
 10
304.75
 20
-175
 11
303.967
 21
-170.056
  0
LINE
  8
0
 10
303.967
 20
-170.056
 11
301.694
 21
-165.595
  0
LINE
  8
0
 10
301.694
 20
-165.595
 11
298.155
 21
-162.056
  0
LINE
  8
0
 10
298.155
 20
-162.056
 11
293.694
 21
-159.783
  0
LINE
  8
0
 10
293.694
 20
-159.783
 11
288.75
 21
-159
  0
LINE
  8
0
 10
288.75
 20
-159
 11
283.806
 21
-159.783
  0
LINE
  8
0
 10
283.806
 20
-159.783
 11
279.345
 21
-162.056
  0
LINE
  8
0
 10
279.345
 20
-162.056
 11
275.806
 21
-165.595
  0
LINE
  8
0
 10
275.806
 20
-165.595
 11
273.533
 21
-170.056
  0
LINE
  8
0
 10
273.533
 20
-170.056
 11
272.75
 21
-175
  0
LINE
  8
0
 10
272.75
 20
-175
 11
273.533
 21
-179.944
  0
LINE
  8
0
 10
273.533
 20
-179.944
 11
275.806
 21
-184.405
  0
LINE
  8
0
 10
275.806
 20
-184.405
 11
279.345
 21
-187.944
  0
LINE
  8
0
 10
279.345
 20
-187.944
 11
283.806
 21
-190.217
  0
LINE
  8
0
 10
283.806
 20
-190.217
 11
288.75
 21
-191
  0
LINE
  8
0
 10
288.75
 20
-191
 11
293.694
 21
-190.217
  0
LINE
  8
0
 10
-283.806
 20
-190.217
 11
-279.345
 21
-187.944
  0
LINE
  8
0
 10
-279.345
 20
-187.944
 11
-275.806
 21
-184.405
  0
LINE
  8
0
 10
-275.806
 20
-184.405
 11
-273.533
 21
-179.944
  0
LINE
  8
0
 10
-273.533
 20
-179.944
 11
-272.75
 21
-175
  0
LINE
  8
0
 10
-272.75
 20
-175
 11
-273.533
 21
-170.056
  0
LINE
  8
0
 10
-273.533
 20
-170.056
 11
-275.806
 21
-165.595
  0
LINE
  8
0
 10
-275.806
 20
-165.595
 11
-279.345
 21
-162.056
  0
LINE
  8
0
 10
-279.345
 20
-162.056
 11
-283.806
 21
-159.783
  0
LINE
  8
0
 10
-283.806
 20
-159.783
 11
-288.75
 21
-159
  0
LINE
  8
0
 10
-288.75
 20
-159
 11
-293.694
 21
-159.783
  0
LINE
  8
0
 10
-293.694
 20
-159.783
 11
-298.155
 21
-162.056
  0
LINE
  8
0
 10
-298.155
 20
-162.056
 11
-301.694
 21
-165.595
  0
LINE
  8
0
 10
-301.694
 20
-165.595
 11
-303.967
 21
-170.056
  0
LINE
  8
0
 10
-303.967
 20
-170.056
 11
-304.75
 21
-175
  0
LINE
  8
0
 10
-304.75
 20
-175
 11
-303.967
 21
-179.944
  0
LINE
  8
0
 10
-303.967
 20
-179.944
 11
-301.694
 21
-184.405
  0
LINE
  8
0
 10
-301.694
 20
-184.405
 11
-298.155
 21
-187.944
  0
LINE
  8
0
 10
-298.155
 20
-187.944
 11
-293.694
 21
-190.217
  0
LINE
  8
0
 10
-293.694
 20
-190.217
 11
-288.75
 21
-191
  0
LINE
  8
0
 10
-288.75
 20
-191
 11
-283.806
 21
-190.217
  0
LINE
  8
0
 10
136.194
 20
-190.217
 11
140.655
 21
-187.944
  0
LINE
  8
0
 10
140.655
 20
-187.944
 11
144.194
 21
-184.405
  0
LINE
  8
0
 10
144.194
 20
-184.405
 11
146.467
 21
-179.944
  0
LINE
  8
0
 10
146.467
 20
-179.944
 11
147.25
 21
-175
  0
LINE
  8
0
 10
147.25
 20
-175
 11
146.467
 21
-170.056
  0
LINE
  8
0
 10
146.467
 20
-170.056
 11
144.194
 21
-165.595
  0
LINE
  8
0
 10
144.194
 20
-165.595
 11
140.655
 21
-162.056
  0
LINE
  8
0
 10
140.655
 20
-162.056
 11
136.194
 21
-159.783
  0
LINE
  8
0
 10
136.194
 20
-159.783
 11
131.25
 21
-159
  0
LINE
  8
0
 10
131.25
 20
-159
 11
126.306
 21
-159.783
  0
LINE
  8
0
 10
126.306
 20
-159.783
 11
121.845
 21
-162.056
  0
LINE
  8
0
 10
121.845
 20
-162.056
 11
118.306
 21
-165.595
  0
LINE
  8
0
 10
118.306
 20
-165.595
 11
116.033
 21
-170.056
  0
LINE
  8
0
 10
116.033
 20
-170.056
 11
115.25
 21
-175
  0
LINE
  8
0
 10
115.25
 20
-175
 11
116.033
 21
-179.944
  0
LINE
  8
0
 10
116.033
 20
-179.944
 11
118.306
 21
-184.405
  0
LINE
  8
0
 10
118.306
 20
-184.405
 11
121.845
 21
-187.944
  0
LINE
  8
0
 10
121.845
 20
-187.944
 11
126.306
 21
-190.217
  0
LINE
  8
0
 10
126.306
 20
-190.217
 11
131.25
 21
-191
  0
LINE
  8
0
 10
131.25
 20
-191
 11
136.194
 21
-190.217
  0
LINE
  8
0
 10
-73.8057
 20
-240.217
 11
-69.3454
 21
-237.944
  0
LINE
  8
0
 10
-69.3454
 20
-237.944
 11
-65.8057
 21
-234.405
  0
LINE
  8
0
 10
-65.8057
 20
-234.405
 11
-63.5331
 21
-229.944
  0
LINE
  8
0
 10
-63.5331
 20
-229.944
 11
-62.75
 21
-225
  0
LINE
  8
0
 10
-62.75
 20
-225
 11
-63.5331
 21
-220.056
  0
LINE
  8
0
 10
-63.5331
 20
-220.056
 11
-65.8057
 21
-215.595
  0
LINE
  8
0
 10
-65.8057
 20
-215.595
 11
-69.3454
 21
-212.056
  0
LINE
  8
0
 10
-69.3454
 20
-212.056
 11
-73.8057
 21
-209.783
  0
LINE
  8
0
 10
-73.8057
 20
-209.783
 11
-78.75
 21
-209
  0
LINE
  8
0
 10
-78.75
 20
-209
 11
-83.6943
 21
-209.783
  0
LINE
  8
0
 10
-83.6943
 20
-209.783
 11
-88.1546
 21
-212.056
  0
LINE
  8
0
 10
-88.1546
 20
-212.056
 11
-91.6943
 21
-215.595
  0
LINE
  8
0
 10
-91.6943
 20
-215.595
 11
-93.9669
 21
-220.056
  0
LINE
  8
0
 10
-93.9669
 20
-220.056
 11
-94.75
 21
-225
  0
LINE
  8
0
 10
-94.75
 20
-225
 11
-93.9669
 21
-229.944
  0
LINE
  8
0
 10
-93.9669
 20
-229.944
 11
-91.6943
 21
-234.405
  0
LINE
  8
0
 10
-91.6943
 20
-234.405
 11
-88.1546
 21
-237.944
  0
LINE
  8
0
 10
-88.1546
 20
-237.944
 11
-83.6943
 21
-240.217
  0
LINE
  8
0
 10
-83.6943
 20
-240.217
 11
-78.75
 21
-241
  0
LINE
  8
0
 10
-78.75
 20
-241
 11
-73.8057
 21
-240.217
  0
LINE
  8
0
 10
-21.3057
 20
-240.217
 11
-16.8454
 21
-237.944
  0
LINE
  8
0
 10
-16.8454
 20
-237.944
 11
-13.3057
 21
-234.405
  0
LINE
  8
0
 10
-13.3057
 20
-234.405
 11
-11.0331
 21
-229.944
  0
LINE
  8
0
 10
-11.0331
 20
-229.944
 11
-10.25
 21
-225
  0
LINE
  8
0
 10
-10.25
 20
-225
 11
-11.0331
 21
-220.056
  0
LINE
  8
0
 10
-11.0331
 20
-220.056
 11
-13.3057
 21
-215.595
  0
LINE
  8
0
 10
-13.3057
 20
-215.595
 11
-16.8454
 21
-212.056
  0
LINE
  8
0
 10
-16.8454
 20
-212.056
 11
-21.3057
 21
-209.783
  0
LINE
  8
0
 10
-21.3057
 20
-209.783
 11
-26.25
 21
-209
  0
LINE
  8
0
 10
-26.25
 20
-209
 11
-31.1943
 21
-209.783
  0
LINE
  8
0
 10
-31.1943
 20
-209.783
 11
-35.6546
 21
-212.056
  0
LINE
  8
0
 10
-35.6546
 20
-212.056
 11
-39.1943
 21
-215.595
  0
LINE
  8
0
 10
-39.1943
 20
-215.595
 11
-41.4669
 21
-220.056
  0
LINE
  8
0
 10
-41.4669
 20
-220.056
 11
-42.25
 21
-225
  0
LINE
  8
0
 10
-42.25
 20
-225
 11
-41.4669
 21
-229.944
  0
LINE
  8
0
 10
-41.4669
 20
-229.944
 11
-39.1943
 21
-234.405
  0
LINE
  8
0
 10
-39.1943
 20
-234.405
 11
-35.6546
 21
-237.944
  0
LINE
  8
0
 10
-35.6546
 20
-237.944
 11
-31.1943
 21
-240.217
  0
LINE
  8
0
 10
-31.1943
 20
-240.217
 11
-26.25
 21
-241
  0
LINE
  8
0
 10
-26.25
 20
-241
 11
-21.3057
 21
-240.217
  0
LINE
  8
0
 10
136.194
 20
-240.217
 11
140.655
 21
-237.944
  0
LINE
  8
0
 10
140.655
 20
-237.944
 11
144.194
 21
-234.405
  0
LINE
  8
0
 10
144.194
 20
-234.405
 11
146.467
 21
-229.944
  0
LINE
  8
0
 10
146.467
 20
-229.944
 11
147.25
 21
-225
  0
LINE
  8
0
 10
147.25
 20
-225
 11
146.467
 21
-220.056
  0
LINE
  8
0
 10
146.467
 20
-220.056
 11
144.194
 21
-215.595
  0
LINE
  8
0
 10
144.194
 20
-215.595
 11
140.655
 21
-212.056
  0
LINE
  8
0
 10
140.655
 20
-212.056
 11
136.194
 21
-209.783
  0
LINE
  8
0
 10
136.194
 20
-209.783
 11
131.25
 21
-209
  0
LINE
  8
0
 10
131.25
 20
-209
 11
126.306
 21
-209.783
  0
LINE
  8
0
 10
126.306
 20
-209.783
 11
121.845
 21
-212.056
  0
LINE
  8
0
 10
121.845
 20
-212.056
 11
118.306
 21
-215.595
  0
LINE
  8
0
 10
118.306
 20
-215.595
 11
116.033
 21
-220.056
  0
LINE
  8
0
 10
116.033
 20
-220.056
 11
115.25
 21
-225
  0
LINE
  8
0
 10
115.25
 20
-225
 11
116.033
 21
-229.944
  0
LINE
  8
0
 10
116.033
 20
-229.944
 11
118.306
 21
-234.405
  0
LINE
  8
0
 10
118.306
 20
-234.405
 11
121.845
 21
-237.944
  0
LINE
  8
0
 10
121.845
 20
-237.944
 11
126.306
 21
-240.217
  0
LINE
  8
0
 10
126.306
 20
-240.217
 11
131.25
 21
-241
  0
LINE
  8
0
 10
131.25
 20
-241
 11
136.194
 21
-240.217
  0
LINE
  8
0
 10
293.694
 20
-240.217
 11
298.155
 21
-237.944
  0
LINE
  8
0
 10
298.155
 20
-237.944
 11
301.694
 21
-234.405
  0
LINE
  8
0
 10
301.694
 20
-234.405
 11
303.967
 21
-229.944
  0
LINE
  8
0
 10
303.967
 20
-229.944
 11
304.75
 21
-225
  0
LINE
  8
0
 10
304.75
 20
-225
 11
303.967
 21
-220.056
  0
LINE
  8
0
 10
303.967
 20
-220.056
 11
301.694
 21
-215.595
  0
LINE
  8
0
 10
301.694
 20
-215.595
 11
298.155
 21
-212.056
  0
LINE
  8
0
 10
298.155
 20
-212.056
 11
293.694
 21
-209.783
  0
LINE
  8
0
 10
293.694
 20
-209.783
 11
288.75
 21
-209
  0
LINE
  8
0
 10
288.75
 20
-209
 11
283.806
 21
-209.783
  0
LINE
  8
0
 10
283.806
 20
-209.783
 11
279.345
 21
-212.056
  0
LINE
  8
0
 10
279.345
 20
-212.056
 11
275.806
 21
-215.595
  0
LINE
  8
0
 10
275.806
 20
-215.595
 11
273.533
 21
-220.056
  0
LINE
  8
0
 10
273.533
 20
-220.056
 11
272.75
 21
-225
  0
LINE
  8
0
 10
272.75
 20
-225
 11
273.533
 21
-229.944
  0
LINE
  8
0
 10
273.533
 20
-229.944
 11
275.806
 21
-234.405
  0
LINE
  8
0
 10
275.806
 20
-234.405
 11
279.345
 21
-237.944
  0
LINE
  8
0
 10
279.345
 20
-237.944
 11
283.806
 21
-240.217
  0
LINE
  8
0
 10
283.806
 20
-240.217
 11
288.75
 21
-241
  0
LINE
  8
0
 10
288.75
 20
-241
 11
293.694
 21
-240.217
  0
LINE
  8
0
 10
241.194
 20
-240.217
 11
245.655
 21
-237.944
  0
LINE
  8
0
 10
245.655
 20
-237.944
 11
249.194
 21
-234.405
  0
LINE
  8
0
 10
249.194
 20
-234.405
 11
251.467
 21
-229.944
  0
LINE
  8
0
 10
251.467
 20
-229.944
 11
252.25
 21
-225
  0
LINE
  8
0
 10
252.25
 20
-225
 11
251.467
 21
-220.056
  0
LINE
  8
0
 10
251.467
 20
-220.056
 11
249.194
 21
-215.595
  0
LINE
  8
0
 10
249.194
 20
-215.595
 11
245.655
 21
-212.056
  0
LINE
  8
0
 10
245.655
 20
-212.056
 11
241.194
 21
-209.783
  0
LINE
  8
0
 10
241.194
 20
-209.783
 11
236.25
 21
-209
  0
LINE
  8
0
 10
236.25
 20
-209
 11
231.306
 21
-209.783
  0
LINE
  8
0
 10
231.306
 20
-209.783
 11
226.845
 21
-212.056
  0
LINE
  8
0
 10
226.845
 20
-212.056
 11
223.306
 21
-215.595
  0
LINE
  8
0
 10
223.306
 20
-215.595
 11
221.033
 21
-220.056
  0
LINE
  8
0
 10
221.033
 20
-220.056
 11
220.25
 21
-225
  0
LINE
  8
0
 10
220.25
 20
-225
 11
221.033
 21
-229.944
  0
LINE
  8
0
 10
221.033
 20
-229.944
 11
223.306
 21
-234.405
  0
LINE
  8
0
 10
223.306
 20
-234.405
 11
226.845
 21
-237.944
  0
LINE
  8
0
 10
226.845
 20
-237.944
 11
231.306
 21
-240.217
  0
LINE
  8
0
 10
231.306
 20
-240.217
 11
236.25
 21
-241
  0
LINE
  8
0
 10
236.25
 20
-241
 11
241.194
 21
-240.217
  0
LINE
  8
0
 10
31.1943
 20
-240.217
 11
35.6546
 21
-237.944
  0
LINE
  8
0
 10
35.6546
 20
-237.944
 11
39.1943
 21
-234.405
  0
LINE
  8
0
 10
39.1943
 20
-234.405
 11
41.4669
 21
-229.944
  0
LINE
  8
0
 10
41.4669
 20
-229.944
 11
42.25
 21
-225
  0
LINE
  8
0
 10
42.25
 20
-225
 11
41.4669
 21
-220.056
  0
LINE
  8
0
 10
41.4669
 20
-220.056
 11
39.1943
 21
-215.595
  0
LINE
  8
0
 10
39.1943
 20
-215.595
 11
35.6546
 21
-212.056
  0
LINE
  8
0
 10
35.6546
 20
-212.056
 11
31.1943
 21
-209.783
  0
LINE
  8
0
 10
31.1943
 20
-209.783
 11
26.25
 21
-209
  0
LINE
  8
0
 10
26.25
 20
-209
 11
21.3057
 21
-209.783
  0
LINE
  8
0
 10
21.3057
 20
-209.783
 11
16.8454
 21
-212.056
  0
LINE
  8
0
 10
16.8454
 20
-212.056
 11
13.3057
 21
-215.595
  0
LINE
  8
0
 10
13.3057
 20
-215.595
 11
11.0331
 21
-220.056
  0
LINE
  8
0
 10
11.0331
 20
-220.056
 11
10.25
 21
-225
  0
LINE
  8
0
 10
10.25
 20
-225
 11
11.0331
 21
-229.944
  0
LINE
  8
0
 10
11.0331
 20
-229.944
 11
13.3057
 21
-234.405
  0
LINE
  8
0
 10
13.3057
 20
-234.405
 11
16.8454
 21
-237.944
  0
LINE
  8
0
 10
16.8454
 20
-237.944
 11
21.3057
 21
-240.217
  0
LINE
  8
0
 10
21.3057
 20
-240.217
 11
26.25
 21
-241
  0
LINE
  8
0
 10
26.25
 20
-241
 11
31.1943
 21
-240.217
  0
LINE
  8
0
 10
-126.306
 20
-240.217
 11
-121.845
 21
-237.944
  0
LINE
  8
0
 10
-121.845
 20
-237.944
 11
-118.306
 21
-234.405
  0
LINE
  8
0
 10
-118.306
 20
-234.405
 11
-116.033
 21
-229.944
  0
LINE
  8
0
 10
-116.033
 20
-229.944
 11
-115.25
 21
-225
  0
LINE
  8
0
 10
-115.25
 20
-225
 11
-116.033
 21
-220.056
  0
LINE
  8
0
 10
-116.033
 20
-220.056
 11
-118.306
 21
-215.595
  0
LINE
  8
0
 10
-118.306
 20
-215.595
 11
-121.845
 21
-212.056
  0
LINE
  8
0
 10
-121.845
 20
-212.056
 11
-126.306
 21
-209.783
  0
LINE
  8
0
 10
-126.306
 20
-209.783
 11
-131.25
 21
-209
  0
LINE
  8
0
 10
-131.25
 20
-209
 11
-136.194
 21
-209.783
  0
LINE
  8
0
 10
-136.194
 20
-209.783
 11
-140.655
 21
-212.056
  0
LINE
  8
0
 10
-140.655
 20
-212.056
 11
-144.194
 21
-215.595
  0
LINE
  8
0
 10
-144.194
 20
-215.595
 11
-146.467
 21
-220.056
  0
LINE
  8
0
 10
-146.467
 20
-220.056
 11
-147.25
 21
-225
  0
LINE
  8
0
 10
-147.25
 20
-225
 11
-146.467
 21
-229.944
  0
LINE
  8
0
 10
-146.467
 20
-229.944
 11
-144.194
 21
-234.405
  0
LINE
  8
0
 10
-144.194
 20
-234.405
 11
-140.655
 21
-237.944
  0
LINE
  8
0
 10
-140.655
 20
-237.944
 11
-136.194
 21
-240.217
  0
LINE
  8
0
 10
-136.194
 20
-240.217
 11
-131.25
 21
-241
  0
LINE
  8
0
 10
-131.25
 20
-241
 11
-126.306
 21
-240.217
  0
LINE
  8
0
 10
-178.806
 20
-240.217
 11
-174.345
 21
-237.944
  0
LINE
  8
0
 10
-174.345
 20
-237.944
 11
-170.806
 21
-234.405
  0
LINE
  8
0
 10
-170.806
 20
-234.405
 11
-168.533
 21
-229.944
  0
LINE
  8
0
 10
-168.533
 20
-229.944
 11
-167.75
 21
-225
  0
LINE
  8
0
 10
-167.75
 20
-225
 11
-168.533
 21
-220.056
  0
LINE
  8
0
 10
-168.533
 20
-220.056
 11
-170.806
 21
-215.595
  0
LINE
  8
0
 10
-170.806
 20
-215.595
 11
-174.345
 21
-212.056
  0
LINE
  8
0
 10
-174.345
 20
-212.056
 11
-178.806
 21
-209.783
  0
LINE
  8
0
 10
-178.806
 20
-209.783
 11
-183.75
 21
-209
  0
LINE
  8
0
 10
-183.75
 20
-209
 11
-188.694
 21
-209.783
  0
LINE
  8
0
 10
-188.694
 20
-209.783
 11
-193.155
 21
-212.056
  0
LINE
  8
0
 10
-193.155
 20
-212.056
 11
-196.694
 21
-215.595
  0
LINE
  8
0
 10
-196.694
 20
-215.595
 11
-198.967
 21
-220.056
  0
LINE
  8
0
 10
-198.967
 20
-220.056
 11
-199.75
 21
-225
  0
LINE
  8
0
 10
-199.75
 20
-225
 11
-198.967
 21
-229.944
  0
LINE
  8
0
 10
-198.967
 20
-229.944
 11
-196.694
 21
-234.405
  0
LINE
  8
0
 10
-196.694
 20
-234.405
 11
-193.155
 21
-237.944
  0
LINE
  8
0
 10
-193.155
 20
-237.944
 11
-188.694
 21
-240.217
  0
LINE
  8
0
 10
-188.694
 20
-240.217
 11
-183.75
 21
-241
  0
LINE
  8
0
 10
-183.75
 20
-241
 11
-178.806
 21
-240.217
  0
LINE
  8
0
 10
188.694
 20
-240.217
 11
193.155
 21
-237.944
  0
LINE
  8
0
 10
193.155
 20
-237.944
 11
196.694
 21
-234.405
  0
LINE
  8
0
 10
196.694
 20
-234.405
 11
198.967
 21
-229.944
  0
LINE
  8
0
 10
198.967
 20
-229.944
 11
199.75
 21
-225
  0
LINE
  8
0
 10
199.75
 20
-225
 11
198.967
 21
-220.056
  0
LINE
  8
0
 10
198.967
 20
-220.056
 11
196.694
 21
-215.595
  0
LINE
  8
0
 10
196.694
 20
-215.595
 11
193.155
 21
-212.056
  0
LINE
  8
0
 10
193.155
 20
-212.056
 11
188.694
 21
-209.783
  0
LINE
  8
0
 10
188.694
 20
-209.783
 11
183.75
 21
-209
  0
LINE
  8
0
 10
183.75
 20
-209
 11
178.806
 21
-209.783
  0
LINE
  8
0
 10
178.806
 20
-209.783
 11
174.345
 21
-212.056
  0
LINE
  8
0
 10
174.345
 20
-212.056
 11
170.806
 21
-215.595
  0
LINE
  8
0
 10
170.806
 20
-215.595
 11
168.533
 21
-220.056
  0
LINE
  8
0
 10
168.533
 20
-220.056
 11
167.75
 21
-225
  0
LINE
  8
0
 10
167.75
 20
-225
 11
168.533
 21
-229.944
  0
LINE
  8
0
 10
168.533
 20
-229.944
 11
170.806
 21
-234.405
  0
LINE
  8
0
 10
170.806
 20
-234.405
 11
174.345
 21
-237.944
  0
LINE
  8
0
 10
174.345
 20
-237.944
 11
178.806
 21
-240.217
  0
LINE
  8
0
 10
178.806
 20
-240.217
 11
183.75
 21
-241
  0
LINE
  8
0
 10
183.75
 20
-241
 11
188.694
 21
-240.217
  0
LINE
  8
0
 10
83.6943
 20
-240.217
 11
88.1546
 21
-237.944
  0
LINE
  8
0
 10
88.1546
 20
-237.944
 11
91.6943
 21
-234.405
  0
LINE
  8
0
 10
91.6943
 20
-234.405
 11
93.9669
 21
-229.944
  0
LINE
  8
0
 10
93.9669
 20
-229.944
 11
94.75
 21
-225
  0
LINE
  8
0
 10
94.75
 20
-225
 11
93.9669
 21
-220.056
  0
LINE
  8
0
 10
93.9669
 20
-220.056
 11
91.6943
 21
-215.595
  0
LINE
  8
0
 10
91.6943
 20
-215.595
 11
88.1546
 21
-212.056
  0
LINE
  8
0
 10
88.1546
 20
-212.056
 11
83.6943
 21
-209.783
  0
LINE
  8
0
 10
83.6943
 20
-209.783
 11
78.75
 21
-209
  0
LINE
  8
0
 10
78.75
 20
-209
 11
73.8057
 21
-209.783
  0
LINE
  8
0
 10
73.8057
 20
-209.783
 11
69.3454
 21
-212.056
  0
LINE
  8
0
 10
69.3454
 20
-212.056
 11
65.8057
 21
-215.595
  0
LINE
  8
0
 10
65.8057
 20
-215.595
 11
63.5331
 21
-220.056
  0
LINE
  8
0
 10
63.5331
 20
-220.056
 11
62.75
 21
-225
  0
LINE
  8
0
 10
62.75
 20
-225
 11
63.5331
 21
-229.944
  0
LINE
  8
0
 10
63.5331
 20
-229.944
 11
65.8057
 21
-234.405
  0
LINE
  8
0
 10
65.8057
 20
-234.405
 11
69.3454
 21
-237.944
  0
LINE
  8
0
 10
69.3454
 20
-237.944
 11
73.8057
 21
-240.217
  0
LINE
  8
0
 10
73.8057
 20
-240.217
 11
78.75
 21
-241
  0
LINE
  8
0
 10
78.75
 20
-241
 11
83.6943
 21
-240.217
  0
LINE
  8
0
 10
-283.806
 20
-240.217
 11
-279.345
 21
-237.944
  0
LINE
  8
0
 10
-279.345
 20
-237.944
 11
-275.806
 21
-234.405
  0
LINE
  8
0
 10
-275.806
 20
-234.405
 11
-273.533
 21
-229.944
  0
LINE
  8
0
 10
-273.533
 20
-229.944
 11
-272.75
 21
-225
  0
LINE
  8
0
 10
-272.75
 20
-225
 11
-273.533
 21
-220.056
  0
LINE
  8
0
 10
-273.533
 20
-220.056
 11
-275.806
 21
-215.595
  0
LINE
  8
0
 10
-275.806
 20
-215.595
 11
-279.345
 21
-212.056
  0
LINE
  8
0
 10
-279.345
 20
-212.056
 11
-283.806
 21
-209.783
  0
LINE
  8
0
 10
-283.806
 20
-209.783
 11
-288.75
 21
-209
  0
LINE
  8
0
 10
-288.75
 20
-209
 11
-293.694
 21
-209.783
  0
LINE
  8
0
 10
-293.694
 20
-209.783
 11
-298.155
 21
-212.056
  0
LINE
  8
0
 10
-298.155
 20
-212.056
 11
-301.694
 21
-215.595
  0
LINE
  8
0
 10
-301.694
 20
-215.595
 11
-303.967
 21
-220.056
  0
LINE
  8
0
 10
-303.967
 20
-220.056
 11
-304.75
 21
-225
  0
LINE
  8
0
 10
-304.75
 20
-225
 11
-303.967
 21
-229.944
  0
LINE
  8
0
 10
-303.967
 20
-229.944
 11
-301.694
 21
-234.405
  0
LINE
  8
0
 10
-301.694
 20
-234.405
 11
-298.155
 21
-237.944
  0
LINE
  8
0
 10
-298.155
 20
-237.944
 11
-293.694
 21
-240.217
  0
LINE
  8
0
 10
-293.694
 20
-240.217
 11
-288.75
 21
-241
  0
LINE
  8
0
 10
-288.75
 20
-241
 11
-283.806
 21
-240.217
  0
LINE
  8
0
 10
-231.306
 20
-240.217
 11
-226.845
 21
-237.944
  0
LINE
  8
0
 10
-226.845
 20
-237.944
 11
-223.306
 21
-234.405
  0
LINE
  8
0
 10
-223.306
 20
-234.405
 11
-221.033
 21
-229.944
  0
LINE
  8
0
 10
-221.033
 20
-229.944
 11
-220.25
 21
-225
  0
LINE
  8
0
 10
-220.25
 20
-225
 11
-221.033
 21
-220.056
  0
LINE
  8
0
 10
-221.033
 20
-220.056
 11
-223.306
 21
-215.595
  0
LINE
  8
0
 10
-223.306
 20
-215.595
 11
-226.845
 21
-212.056
  0
LINE
  8
0
 10
-226.845
 20
-212.056
 11
-231.306
 21
-209.783
  0
LINE
  8
0
 10
-231.306
 20
-209.783
 11
-236.25
 21
-209
  0
LINE
  8
0
 10
-236.25
 20
-209
 11
-241.194
 21
-209.783
  0
LINE
  8
0
 10
-241.194
 20
-209.783
 11
-245.655
 21
-212.056
  0
LINE
  8
0
 10
-245.655
 20
-212.056
 11
-249.194
 21
-215.595
  0
LINE
  8
0
 10
-249.194
 20
-215.595
 11
-251.467
 21
-220.056
  0
LINE
  8
0
 10
-251.467
 20
-220.056
 11
-252.25
 21
-225
  0
LINE
  8
0
 10
-252.25
 20
-225
 11
-251.467
 21
-229.944
  0
LINE
  8
0
 10
-251.467
 20
-229.944
 11
-249.194
 21
-234.405
  0
LINE
  8
0
 10
-249.194
 20
-234.405
 11
-245.655
 21
-237.944
  0
LINE
  8
0
 10
-245.655
 20
-237.944
 11
-241.194
 21
-240.217
  0
LINE
  8
0
 10
-241.194
 20
-240.217
 11
-236.25
 21
-241
  0
LINE
  8
0
 10
-236.25
 20
-241
 11
-231.306
 21
-240.217
  0
ENDSEC
  0
SECTION
  2
OBJECTS
  0
DICTIONARY
  0
ENDSEC
  0
EOF
