<?xml version="1.0" encoding="UTF-8" standalone="no"?>
<svg
   xmlns:dc="http://purl.org/dc/elements/1.1/"
   xmlns:cc="http://creativecommons.org/ns#"
   xmlns:rdf="http://www.w3.org/1999/02/22-rdf-syntax-ns#"
   xmlns:svg="http://www.w3.org/2000/svg"
   xmlns="http://www.w3.org/2000/svg"
   xmlns:sodipodi="http://sodipodi.sourceforge.net/DTD/sodipodi-0.dtd"
   xmlns:inkscape="http://www.inkscape.org/namespaces/inkscape"
   width="744.094488189"
   height="1052.36220472"
   id="svg2"
   version="1.1"
   inkscape:version="0.91 r13725"
   sodipodi:docname="lidCutOptimized.svg">
  <metadata
     id="metadata4822">
    <rdf:RDF>
      <cc:Work
         rdf:about="">
        <dc:format>image/svg+xml</dc:format>
        <dc:type
           rdf:resource="http://purl.org/dc/dcmitype/StillImage" />
        <dc:title></dc:title>
      </cc:Work>
    </rdf:RDF>
  </metadata>
  <sodipodi:namedview
     pagecolor="#ffffff"
     bordercolor="#666666"
     borderopacity="1"
     objecttolerance="10"
     gridtolerance="10"
     guidetolerance="10"
     inkscape:pageopacity="0"
     inkscape:pageshadow="2"
     inkscape:window-width="1920"
     inkscape:window-height="1017"
     id="namedview4820"
     showgrid="false"
     inkscape:zoom="0.22425739"
     inkscape:cx="372.04724"
     inkscape:cy="-676.63087"
     inkscape:window-x="-8"
     inkscape:window-y="-8"
     inkscape:window-maximized="1"
     inkscape:current-layer="g18" />
  <desc
     id="desc4">C:\Users\Moritz\Documents\GitHub\MyOpenSCADLibrary\propagator\lidCut.dxf - scale = 1.000000, origin = (0.000000, 0.000000), auto = False</desc>
  <defs
     id="defs6">
    <marker
       refY="0.0"
       refX="0.0"
       style="overflow:visible"
       id="DistanceX"
       orient="auto">
      <path
         style="stroke:#000000; stroke-width:0.5"
         d="M 3,-3 L -3,3 M 0,-5 L  0,5"
         id="path9" />
    </marker>
    <pattern
       height="8"
       width="8"
       patternUnits="userSpaceOnUse"
       y="0"
       x="0"
       id="Hatch">
      <path
         linecap="square"
         stroke="#000000"
         stroke-width="0.25"
         d="M8 4 l-4,4"
         id="path12" />
      <path
         linecap="square"
         stroke="#000000"
         stroke-width="0.25"
         d="M6 2 l-4,4"
         id="path14" />
      <path
         linecap="square"
         stroke="#000000"
         stroke-width="0.25"
         d="M4 0 l-4,4"
         id="path16" />
    </pattern>
  </defs>
  <g
     inkscape:label="0"
     inkscape:groupmode="layer"
     id="g18">
    <path
       style="fill:none;stroke:#000000"
       d="m -1040.648,309.03661 c 63.12991,24.33338 105.1042,-77.00207 43.25452,-104.42822 -58.54232,-33.91754 -115.85342,59.60303 -59.06122,96.37429 l 7.5883,4.64515 8.2184,3.40878 z"
       id="path54"
       inkscape:connector-curvature="0" />
    <path
       style="fill:none;stroke:#000000"
       d="m -447.54095,201.19961 c -63.12992,-24.33339 -105.10424,77.00206 -43.25454,104.42822 58.54234,33.91753 115.8534,-59.60299 59.06124,-96.37429 l -7.58836,-4.64515 -8.21834,-3.40878 0,0 z"
       id="path74"
       inkscape:connector-curvature="0" />
    <path
       style="fill:none;stroke:#000000"
       d="m -597.16417,237.6 c -17.41863,-65.37743 -124.07542,-39.77399 -109.90931,26.38567 6.9704,67.29903 116.31926,58.69302 112.68372,-8.86756 l -0.70211,-8.86756 -2.0723,-8.65055 0,0 z"
       id="path108"
       inkscape:connector-curvature="0" />
    <path
       style="fill:none;stroke:#000000"
       d="m -222.34252,255.11811 c 3.63586,-67.5606 -105.71378,-76.16662 -112.68349,-8.86755 -14.16697,66.15963 92.4911,91.76313 109.90873,26.38566 l 2.07243,-8.65056 0.70233,-8.86755 0,0 z"
       id="path146"
       inkscape:connector-curvature="0" />
    <path
       style="fill:none;stroke:#000000"
       d="m -75.492638,201.19961 c -63.130012,-24.33424 -105.106242,77.00203 -43.255352,104.42806 58.542215,33.91895 115.8542921,-59.60564 59.059565,-96.37413 l -7.587206,-4.64499 -8.217007,-3.40894 0,0 z"
       id="path194"
       inkscape:connector-curvature="0" />
    <path
       style="fill:none;stroke:#000000"
       d="M 47.146181,288.44291 C 83.919099,345.2342 177.43793,287.92535 143.52195,229.38165 116.0954,167.53232 14.759629,209.50598 39.093661,272.63622 l 3.408014,8.21835 4.644506,7.58834 0,0 z"
       id="path250"
       inkscape:connector-curvature="0" />
    <path
       style="fill:none;stroke:#000000"
       d="m 332.95358,237.6 c -17.41762,-65.37747 -124.0757,-39.77397 -109.90873,26.38566 6.96972,67.29907 116.31934,58.69305 112.6835,-8.86755 l -0.70234,-8.86755 -2.07243,-8.65056 0,0 z"
       id="path268"
       inkscape:connector-curvature="0" />
    <path
       style="fill:none;stroke:#000000"
       d="m -819.58819,309.03661 c 65.37743,-17.41862 39.77399,-124.07542 -26.38567,-109.9093 -67.29903,6.97039 -58.69302,116.31926 8.86756,112.68371 l 8.86756,-0.70211 8.65055,-2.0723 z"
       id="path338"
       inkscape:connector-curvature="0" />
    <path
       style="stroke:#000000;fill:none"
       d="M 411.140551,237.600000 408.366142,255.118110"
       id="path366" />
    <path
       style="stroke:#000000;fill:none"
       d="M 408.366142,255.118110 411.140551,272.636220"
       id="path368" />
    <path
       style="fill:none;stroke:#000000"
       d="m 419.19449,288.44291 c 36.64814,56.79853 130.34394,-0.49837 96.37429,-59.06124 -27.83432,-61.34216 -126.98008,-20.9446 -102.49809,42.94685 l 2.50644,8.30975 3.61736,7.80464 z"
       id="path370"
       inkscape:connector-curvature="0" />
    <path
       style="fill:none;stroke:#000000"
       d="m 696.94724,221.79331 c -36.77128,-56.79217 -130.29183,0.5189 -96.37429,59.06124 27.42617,61.84969 128.76162,19.87537 104.42823,-43.25455 l -3.40878,-8.21833 -4.64516,-7.58836 0,0 z"
       id="path390"
       inkscape:connector-curvature="0" />
    <path
       style="fill:none;stroke:#000000"
       d="m 819.58819,309.03661 c 63.12993,24.33339 105.10424,-77.00206 43.25455,-104.42823 -58.54236,-33.91752 -115.8534,59.60301 -59.06124,96.3743 l 7.58836,4.64516 8.21833,3.40877 z"
       id="path454"
       inkscape:connector-curvature="0" />
    <path
       style="fill:none;stroke:#000000"
       d="m 1056.4547,209.25354 c -40.7023,-32.49945 -106.55494,13.33741 -87.24328,63.38268 13.6885,51.48418 94.11018,50.64476 107.83698,0 8.2728,-22.37654 -1.3824,-49.80327 -20.5937,-63.38268 z"
       id="path472"
       inkscape:connector-curvature="0" />
    <path
       style="stroke:#000000;fill:none"
       d="M 411.140551,414.765354 408.366142,432.283465"
       id="path526" />
    <path
       style="stroke:#000000;fill:none"
       d="M 408.366142,432.283465 411.140551,449.801575"
       id="path528" />
    <path
       style="fill:none;stroke:#000000"
       d="m 419.19449,465.60827 c 36.64815,56.79853 130.34393,-0.49838 96.37429,-59.06125 -27.83433,-61.34216 -126.98007,-20.9446 -102.49809,42.94686 l 2.50644,8.30975 3.61736,7.80464 0,0 z"
       id="path530"
       inkscape:connector-curvature="0" />
    <path
       style="fill:none;stroke:#000000"
       d="m 296.55461,486.20197 c 65.37681,-17.42073 39.77186,-124.07537 -26.3873,-109.90941 -67.29864,6.97156 -58.69208,116.3191 8.86812,112.68382 l 8.86812,-0.70201 8.65106,-2.0724 z"
       id="path578"
       inkscape:connector-curvature="0" />
    <path
       style="fill:none;stroke:#000000"
       d="m 597.16417,449.80157 c 17.41862,65.37744 124.07542,39.774 109.90931,-26.38567 -6.9704,-67.29903 -116.31925,-58.69302 -112.68372,8.86756 l 0.70211,8.86757 2.0723,8.65054 z"
       id="path608"
       inkscape:connector-curvature="0" />
    <path
       style="fill:none;stroke:#000000"
       d="m 36.318898,432.28346 c -3.635862,67.56061 105.713792,76.16663 112.683492,8.86755 14.16697,-66.15963 -92.491102,-91.76312 -109.908729,-26.38566 l -2.072428,8.65057 -0.702335,8.86754 0,0 z"
       id="path646"
       inkscape:connector-curvature="0" />
    <path
       style="fill:none;stroke:#000000"
       d="m -146.92996,449.80157 c 17.41761,65.37747 124.075703,39.77398 109.908727,-26.38565 -6.969708,-67.29907 -116.319347,-58.69306 -112.683487,8.86754 l 0.70233,8.86755 2.07243,8.65056 z"
       id="path688"
       inkscape:connector-curvature="0" />
    <path
       style="fill:none;stroke:#000000"
       d="m 819.58819,486.20197 c 63.12992,24.33339 105.10424,-77.00207 43.25455,-104.42823 -58.54235,-33.91753 -115.85341,59.60301 -59.06124,96.37429 l 7.58836,4.64516 8.21833,3.40878 z"
       id="path734"
       inkscape:connector-curvature="0" />
    <path
       style="fill:none;stroke:#000000"
       d="m -233.1698,398.95866 c -36.77293,-56.79129 -130.29176,0.51757 -96.37577,59.06127 27.42656,61.84933 128.76232,19.87566 104.42829,-43.25458 l -3.40802,-8.21835 -4.6445,-7.58834 0,0 z"
       id="path750"
       inkscape:connector-curvature="0" />
    <path
       style="fill:none;stroke:#000000"
       d="m -419.19449,398.95866 c -36.77129,-56.79217 -130.29182,0.5189 -96.37429,59.06124 27.42617,61.8497 128.76162,19.87537 104.42823,-43.25455 l -3.40878,-8.21833 -4.64516,-7.58836 z"
       id="path790"
       inkscape:connector-curvature="0" />
    <path
       style="fill:none;stroke:#000000"
       d="m 1079.8228,432.28346 c 3.5263,-67.44932 -105.60687,-76.27339 -112.68368,-8.86756 -14.05725,66.13302 92.31938,91.82464 109.90928,26.38567 l 2.3939,-8.51784 0.3805,-9.00027 z"
       id="path826"
       inkscape:connector-curvature="0" />
    <path
       style="fill:none;stroke:#000000"
       d="m -1056.4547,386.4189 c -56.7922,36.77125 0.5189,130.29183 59.06122,96.37429 61.84968,-27.42615 19.87539,-128.7616 -43.25452,-104.42823 l -8.2184,3.40878 -7.5883,4.64516 z"
       id="path880"
       inkscape:connector-curvature="0" />
    <path
       style="fill:none;stroke:#000000"
       d="m -870.4311,478.14803 c 52.52039,42.65391 123.75853,-40.75143 73.4099,-85.94966 -45.19823,-50.34864 -128.60356,20.88949 -85.94967,73.4099 l 5.77947,6.76029 6.7603,5.77947 z"
       id="path932"
       inkscape:connector-curvature="0" />
    <path
       style="fill:none;stroke:#000000"
       d="m -651.08268,375.59055 c -67.56058,-3.63554 -76.16659,105.71331 -8.86756,112.68372 66.15967,14.16611 91.76312,-92.49069 26.38567,-109.90931 l -8.65054,-2.0723 -8.86757,-0.70211 z"
       id="path956"
       inkscape:connector-curvature="0" />
    <path
       style="fill:none;stroke:#000000"
       d="m -696.94724,576.12402 c -42.65391,52.52039 40.75144,123.75854 85.94966,73.40989 50.34865,-45.19822 -20.8895,-128.60356 -73.4099,-85.94966 l -6.76029,5.77947 -5.77947,6.7603 z"
       id="path1002"
       inkscape:connector-curvature="0" />
    <path
       style="fill:none;stroke:#000000"
       d="m -110.53098,555.53031 c -65.37682,17.42072 -39.77188,124.07538 26.387288,109.90941 67.298645,-6.97154 58.692088,-116.31912 -8.868119,-112.68381 l -8.868119,0.70201 -8.65105,2.07239 0,0 z"
       id="path1038"
       inkscape:connector-curvature="0" />
    <path
       style="fill:none;stroke:#000000"
       d="m -225.11728,626.96693 c 24.33403,-63.13024 -77.00173,-105.10391 -104.42829,-43.25457 -33.91599,58.54369 59.60285,115.85256 96.37577,59.06126 l 4.6445,-7.58834 3.40802,-8.21835 z"
       id="path1064"
       inkscape:connector-curvature="0" />
    <path
       style="fill:none;stroke:#000000"
       d="M 110.53098,555.53031 C 47.400966,531.19609 5.4247481,632.53235 67.27563,659.95838 c 58.54221,33.91894 115.85429,-59.60564 59.05957,-96.37413 l -7.58721,-4.64499 -8.21701,-3.40895 0,0 z"
       id="path1114"
       inkscape:connector-curvature="0" />
    <path
       style="fill:none;stroke:#000000"
       d="m -893.79921,609.44882 c -3.63555,67.56058 105.71332,76.16659 112.68371,8.86756 14.16612,-66.15966 -92.49068,-91.76311 -109.9093,-26.38567 l -2.0723,8.65054 -0.70211,8.86757 z"
       id="path1166"
       inkscape:connector-curvature="0" />
    <path
       style="fill:none;stroke:#000000"
       d="m 335.72835,609.44882 c 3.63584,-67.5606 -105.71378,-76.16662 -112.6835,-8.86755 -14.16697,66.15963 92.49111,91.76313 109.90873,26.38566 l 2.07243,-8.65056 0.70234,-8.86755 z"
       id="path1186"
       inkscape:connector-curvature="0" />
    <path
       style="stroke:#000000;fill:none"
       d="M 411.140551,591.930709 408.366142,609.448819"
       id="path1246" />
    <path
       style="stroke:#000000;fill:none"
       d="M 408.366142,609.448819 411.140551,626.966929"
       id="path1248" />
    <path
       style="fill:none;stroke:#000000"
       d="m 419.19449,642.77362 c 36.64814,56.79853 130.34394,-0.49837 96.37429,-59.06124 -27.83432,-61.34217 -126.98008,-20.9446 -102.49809,42.94685 l 2.50644,8.30975 3.61736,7.80464 z"
       id="path1250"
       inkscape:connector-curvature="0" />
    <path
       style="fill:none;stroke:#000000"
       d="m 605.21811,642.77362 c 36.77129,56.79217 130.29182,-0.51889 96.37429,-59.06124 -27.42616,-61.8497 -128.76162,-19.87537 -104.42823,43.25455 l 3.40878,8.21833 4.64516,7.58836 z"
       id="path1290"
       inkscape:connector-curvature="0" />
    <path
       style="fill:none;stroke:#000000"
       d="m -431.73425,655.31339 c 56.79216,-36.7713 -0.5189,-130.29182 -59.06124,-96.3743 -61.8497,27.42617 -19.87538,128.76162 43.25454,104.42823 l 8.21834,-3.40878 7.58836,-4.64515 z"
       id="path1300"
       inkscape:connector-curvature="0" />
    <path
       style="fill:none;stroke:#000000"
       d="M 854.62441,663.36732 C 920.00184,645.9487 894.3984,539.2919 828.23874,553.45801 c -67.29903,6.9704 -58.69303,116.31927 8.86756,112.68372 l 8.86756,-0.70211 8.65055,-2.0723 z"
       id="path1378"
       inkscape:connector-curvature="0" />
    <path
       style="fill:none;stroke:#000000"
       d="m -1068.9945,576.12402 c -42.6538,52.52042 40.7514,123.75852 85.94968,73.40989 50.34863,-45.19821 -20.88948,-128.60356 -73.40988,-85.94966 l -6.7603,5.77947 -5.7795,6.7603 z"
       id="path1402"
       inkscape:connector-curvature="0" />
    <path
       style="fill:none;stroke:#000000"
       d="m 1056.4547,563.58425 c -40.8043,-32.59365 -106.47784,13.40911 -87.24328,63.38268 13.6885,51.48418 94.11018,50.64476 107.83698,0 8.2739,-22.39189 -1.3842,-49.79628 -20.5937,-63.38268 z"
       id="path1432"
       inkscape:connector-curvature="0" />
    <path
       style="fill:none;stroke:#000000"
       d="m 668.60079,840.53232 c 65.37746,-17.41762 39.77397,-124.0757 -26.38566,-109.90873 -67.29908,6.96971 -58.69306,116.31935 8.86755,112.6835 l 8.86754,-0.70234 8.65057,-2.07243 z"
       id="path1498"
       inkscape:connector-curvature="0" />
    <path
       style="stroke:#000000;fill:none"
       d="M 411.140551,769.095000 408.366142,786.614173"
       id="path1526" />
    <path
       style="stroke:#000000;fill:none"
       d="M 408.366142,786.614173 411.140551,804.133346"
       id="path1528" />
    <path
       style="fill:none;stroke:#000000"
       d="m 419.19449,819.93756 c 36.64528,56.80109 130.34522,-0.49684 96.37412,-59.05957 -27.83345,-61.34251 -126.97914,-20.94516 -102.49767,42.94577 l 2.50647,8.30938 3.61708,7.80442 z"
       id="path1530"
       inkscape:connector-curvature="0" />
    <path
       style="fill:none;stroke:#000000"
       d="m 261.51626,732.69602 c -65.37685,17.41972 -39.77185,124.07566 26.38727,109.90883 67.29869,-6.97086 58.69212,-116.31921 -8.8681,-112.68359 l -8.8681,0.70224 -8.65107,2.07252 z"
       id="path1558"
       inkscape:connector-curvature="0" />
    <path
       style="fill:none;stroke:#000000"
       d="m 819.58819,840.53232 c 63.13024,24.33404 105.1039,-77.00174 43.25457,-104.42829 -58.5437,-33.91598 -115.85255,59.60286 -59.06126,96.37577 l 7.58834,4.64451 8.21835,3.40801 z"
       id="path1614"
       inkscape:connector-curvature="0" />
    <path
       style="fill:none;stroke:#000000"
       d="m -966.43701,786.61417 c 3.63531,-67.5602 -105.71229,-76.16677 -112.68379,-8.86812 -14.166,66.15917 92.48867,91.76411 109.90938,26.3873 l 2.0724,-8.65106 0.70201,-8.86812 0,0 z"
       id="path1626"
       inkscape:connector-curvature="0" />
    <path
       style="fill:none;stroke:#000000"
       d="M 75.492638,732.69602 C 10.11579,750.11574 35.720789,856.77168 101.87991,842.60485 169.1786,835.63399 160.57203,726.28565 93.011811,729.92126 l -8.868101,0.70224 -8.651072,2.07252 0,0 z"
       id="path1678"
       inkscape:connector-curvature="0" />
    <path
       style="fill:none;stroke:#000000"
       d="m 1056.4547,740.74854 c -40.8062,-32.59114 -106.47781,13.41049 -87.24328,63.38481 17.62751,66.57051 126.97068,38.35308 109.22418,-28.49595 -1.8525,-13.96575 -10.4506,-26.98141 -21.9809,-34.88886 z"
       id="path1712"
       inkscape:connector-curvature="0" />
    <path
       style="fill:none;stroke:#000000"
       d="m -783.1878,804.13335 c 24.33424,-63.13001 -77.00203,-105.10625 -104.42806,-43.25536 -33.91895,58.54222 59.60564,115.8543 96.37413,59.05957 l 4.64499,-7.58721 3.40894,-8.217 z"
       id="path1744"
       inkscape:connector-curvature="0" />
    <path
       style="fill:none;stroke:#000000"
       d="m -138.87744,753.29079 c -42.65168,52.5209 40.753371,123.75639 85.950656,73.40841 50.3479805,-45.19728 -20.887508,-128.60234 -73.408416,-85.95066 l -6.76164,5.78061 -5.7806,6.76164 z"
       id="path1802"
       inkscape:connector-curvature="0" />
    <path
       style="fill:none;stroke:#000000"
       d="m -705.00118,804.13335 c 17.42073,65.37682 124.07537,39.77186 109.90941,-26.3873 -6.97156,-67.29864 -116.31911,-58.69209 -112.68382,8.86812 l 0.70201,8.86812 2.0724,8.65106 z"
       id="path1848"
       inkscape:connector-curvature="0" />
    <path
       style="fill:none;stroke:#000000"
       d="m -245.71205,740.74854 c -52.52091,-42.65168 -123.75639,40.75338 -73.40841,85.95066 45.19728,50.34798 128.60234,-20.8875 85.95066,-73.40841 l -5.78061,-6.76164 -6.76164,-5.78061 0,0 z"
       id="path1872"
       inkscape:connector-curvature="0" />
    <path
       style="fill:none;stroke:#000000"
       d="m -419.19449,753.29079 c -36.76847,-56.79474 -130.29309,0.51736 -96.37412,59.05956 27.42603,61.85089 128.76229,19.87465 104.42806,-43.25535 l -3.40895,-8.21701 -4.64499,-7.5872 z"
       id="path1910"
       inkscape:connector-curvature="0" />
    <path
       style="fill:none;stroke:#000000"
       d="m 261.51626,1017.6977 c 63.13035,24.3348 105.10589,-77.00171 43.25538,-104.42814 -58.54358,-33.91741 -115.85344,59.60549 -59.05959,96.37564 l 7.58718,4.6443 8.21703,3.4082 z"
       id="path1974"
       inkscape:connector-curvature="0" />
    <path
       style="fill:none;stroke:#000000"
       d="M 75.492638,1017.6977 C 138.62299,1042.0325 180.59852,940.69598 118.74802,913.26956 60.204431,879.35215 2.8945827,972.87504 59.688425,1009.6452 l 7.587179,4.6443 8.217034,3.4082 0,0 z"
       id="path2014"
       inkscape:connector-curvature="0" />
    <path
       style="fill:none;stroke:#000000"
       d="m -870.4311,1009.6452 c 52.52156,42.6511 123.75796,-40.7518 73.40996,-85.95063 -45.19669,-50.34861 -128.60414,20.88855 -85.94973,73.40834 l 5.77941,6.76159 6.76036,5.7807 z"
       id="path2052"
       inkscape:connector-curvature="0" />
    <path
       style="fill:none;stroke:#000000"
       d="m -668.60079,909.86138 c -65.37745,17.41762 -39.77398,124.07572 26.38566,109.90872 67.29908,-6.9697 58.69305,-116.31935 -8.86755,-112.68349 l -8.86754,0.70234 -8.65057,2.07243 z"
       id="path2078"
       inkscape:connector-curvature="0" />
    <path
       style="fill:none;stroke:#000000"
       d="m 1079.8228,963.77953 c 3.5623,-67.60435 -105.51666,-76.22457 -112.68378,-8.86812 -14.10027,66.24739 92.32468,91.72349 109.90938,26.38729 l 2.3939,-8.51793 0.3805,-9.00124 z"
       id="path2106"
       inkscape:connector-curvature="0" />
    <path
       style="fill:none;stroke:#000000"
       d="m 684.40748,917.9139 c -52.52152,-42.65117 -123.75799,40.75178 -73.40996,85.9506 45.19671,50.3486 128.60415,-20.88856 85.94972,-73.40836 l -5.7794,-6.76157 -6.76036,-5.78067 z"
       id="path2152"
       inkscape:connector-curvature="0" />
    <path
       style="fill:none;stroke:#000000"
       d="m -39.093661,981.2987 c 24.334878,-63.13032 -77.001709,-105.1059 -104.428119,-43.25538 -33.91743,58.54356 59.605508,115.85348 96.375599,59.05959 l 4.64434,-7.58718 3.40818,-8.21703 0,0 z"
       id="path2184"
       inkscape:connector-curvature="0" />
    <path
       style="fill:none;stroke:#000000"
       d="m -222.34252,963.77953 c 3.63561,-67.56022 -105.71273,-76.16679 -112.68359,-8.8681 -14.16684,66.15917 92.48913,91.76417 109.90883,26.38727 l 2.07252,-8.65107 0.70224,-8.8681 z"
       id="path2226"
       inkscape:connector-curvature="0" />
    <path
       style="fill:none;stroke:#000000"
       d="m 819.58819,1017.6977 c 63.10557,24.5395 105.05568,-77.02412 43.25457,-104.42831 -58.50463,-33.91379 -115.93857,59.63081 -59.06126,96.37581 l 7.72147,4.3231 8.08522,3.7294 z"
       id="path2294"
       inkscape:connector-curvature="0" />
    <path
       style="fill:none;stroke:#000000"
       d="m -969.21142,946.26035 c -17.42071,-65.37681 -124.07538,-39.77187 -109.90938,26.3873 6.9715,67.29865 116.31913,58.69205 112.68379,-8.86812 l -0.70201,-8.86812 -2.0724,-8.65106 0,0 z"
       id="path2308"
       inkscape:connector-curvature="0" />
    <path
       style="fill:none;stroke:#000000"
       d="m -431.73425,917.9139 c -52.52152,-42.65117 -123.75799,40.75178 -73.40996,85.9506 45.19671,50.3486 128.60415,-20.88856 85.94972,-73.40836 l -5.77941,-6.76157 -6.76035,-5.78067 z"
       id="path2352"
       inkscape:connector-curvature="0" />
    <path
       style="stroke:#000000;fill:none"
       d="M 411.140551,946.260354 408.366142,963.779528"
       id="path2406" />
    <path
       style="stroke:#000000;fill:none"
       d="M 408.366142,963.779528 411.140551,981.298701"
       id="path2408" />
    <path
       style="fill:none;stroke:#000000"
       d="m 419.19449,997.10291 c 36.64525,56.80109 130.34524,-0.49682 96.37412,-59.05956 -27.83345,-61.34251 -126.97914,-20.94517 -102.49767,42.94576 l 2.50647,8.30938 3.61708,7.80442 z"
       id="path2410"
       inkscape:connector-curvature="0" />
    <path
       style="fill:none;stroke:#000000"
       d="m -1068.9945,1107.6215 c -42.6544,52.5198 40.7531,123.7569 85.94974,73.4083 50.34806,-45.1987 -20.88854,-128.6018 -73.40994,-85.9505 l -6.7604,5.7806 -5.7794,6.7616 z"
       id="path2442"
       inkscape:connector-curvature="0" />
    <path
       style="fill:none;stroke:#000000"
       d="m 783.1878,1123.4257 c -18.09212,48.4856 45.48883,97.3914 87.2433,63.3848 44.00594,-28.6555 19.92531,-105.5394 -33.3248,-102.5585 -24.23601,-0.599 -46.47252,16.4308 -53.9185,39.1737 z"
       id="path2484"
       inkscape:connector-curvature="0" />
    <path
       style="fill:none;stroke:#000000"
       d="m 93.011811,1084.252 c -67.560204,-3.6357 -76.166811,105.7127 -8.868101,112.6836 66.15916,14.1668 91.76409,-92.4891 26.38727,-109.9089 l -8.65107,-2.0725 -8.868099,-0.7022 0,0 z"
       id="path2516"
       inkscape:connector-curvature="0" />
    <path
       style="fill:none;stroke:#000000"
       d="m 324.90106,1107.6215 c -36.77013,-56.7939 -130.29302,0.5161 -96.3756,59.0596 27.42646,61.8505 128.76303,19.8749 104.42812,-43.2554 l -3.40818,-8.217 -4.64434,-7.5872 z"
       id="path2550"
       inkscape:connector-curvature="0" />
    <path
       style="fill:none;stroke:#000000"
       d="m 594.38976,1140.9449 c -3.63528,67.5602 105.71224,76.1667 112.68382,8.8681 14.16599,-66.1591 -92.48867,-91.7641 -109.90941,-26.3873 l -2.0724,8.6511 -0.70201,8.8681 z"
       id="path2606"
       inkscape:connector-curvature="0" />
    <path
       style="fill:none;stroke:#000000"
       d="m -696.94724,1107.6215 c -42.65445,52.5198 40.75306,123.7569 85.94972,73.4083 50.34808,-45.1988 -20.88854,-128.6018 -73.40996,-85.9505 l -6.76035,5.7806 -5.77941,6.7616 z"
       id="path2642"
       inkscape:connector-curvature="0" />
    <path
       style="fill:none;stroke:#000000"
       d="m 969.21142,1123.4257 c -18.14543,48.4896 45.64558,97.451 87.24328,63.3848 36.8646,-25.0152 27.3493,-87.4666 -15.8067,-99.7838 -27.96,-10.2432 -63.14085,7.7924 -71.43658,36.399 z"
       id="path2684"
       inkscape:connector-curvature="0" />
    <path
       style="fill:none;stroke:#000000"
       d="m -59.688425,1186.8105 c 56.7938805,-36.7701 -0.516047,-130.293 -59.059595,-96.3756 -61.85051,27.4265 -19.87495,128.763 43.255382,104.4281 l 8.217031,-3.4081 7.587182,-4.6444 0,0 z"
       id="path2700"
       inkscape:connector-curvature="0" />
    <path
       style="fill:none;stroke:#000000"
       d="m -312.35882,1095.0793 c -56.79388,36.7701 0.51604,130.293 59.05959,96.3756 61.85054,-27.4265 19.87495,-128.763 -43.25538,-104.4282 l -8.21703,3.4082 -7.58718,4.6444 z"
       id="path2760"
       inkscape:connector-curvature="0" />
    <path
       style="fill:none;stroke:#000000"
       d="m -870.4311,1095.0793 c -56.79133,36.7729 0.51759,130.2917 59.06126,96.3757 61.84933,-27.4266 19.87568,-128.7623 -43.25457,-104.4283 l -8.21835,3.408 -7.58834,4.6446 z"
       id="path2800"
       inkscape:connector-curvature="0" />
    <path
       style="fill:none;stroke:#000000"
       d="m -431.73425,1186.8105 c 56.79131,-36.7729 -0.51759,-130.2917 -59.06127,-96.3758 -61.84934,27.4266 -19.87566,128.7624 43.25457,104.4283 l 8.21836,-3.408 7.58834,-4.6445 z"
       id="path2820"
       inkscape:connector-curvature="0" />
    <path
       style="stroke:#000000;fill:none"
       d="M 411.140551,1123.425709 408.366142,1140.944882"
       id="path2886" />
    <path
       style="stroke:#000000;fill:none"
       d="M 408.366142,1140.944882 411.140551,1158.464055"
       id="path2888" />
    <path
       style="fill:none;stroke:#000000"
       d="m 419.19449,1174.2683 c 36.64535,56.801 130.34522,-0.4969 96.37412,-59.0596 -27.8335,-61.3425 -126.97912,-20.9451 -102.49767,42.9458 l 2.50647,8.3094 3.61708,7.8044 z"
       id="path2890"
       inkscape:connector-curvature="0" />
    <path
       style="fill:none;stroke:#000000"
       d="m 594.38976,1318.1102 c -3.63532,67.5603 105.7123,76.1669 112.68382,8.8681 14.16591,-66.1591 -92.48872,-91.7641 -109.90941,-26.3872 l -2.0724,8.651 -0.70201,8.8681 z"
       id="path2926"
       inkscape:connector-curvature="0" />
    <path
       style="stroke:#000000;fill:none"
       d="M 411.140551,1300.591063 408.366142,1318.110236"
       id="path2966" />
    <path
       style="stroke:#000000;fill:none"
       d="M 408.366142,1318.110236 411.140551,1335.629409"
       id="path2968" />
    <path
       style="fill:none;stroke:#000000"
       d="m 419.19449,1351.4336 c 36.64521,56.8012 130.34522,-0.4968 96.37412,-59.0595 -27.83345,-61.3426 -126.97915,-20.9452 -102.49767,42.9458 l 2.50647,8.3093 3.61708,7.8044 z"
       id="path2970"
       inkscape:connector-curvature="0" />
    <path
       style="fill:none;stroke:#000000"
       d="m 225.11728,1300.5911 c -24.33484,63.1303 77.00174,105.1059 104.42812,43.2553 33.91742,-58.5435 -59.60557,-115.8535 -96.3756,-59.0595 l -4.64434,7.5872 -3.40818,8.217 z"
       id="path3004"
       inkscape:connector-curvature="0" />
    <path
       style="fill:none;stroke:#000000"
       d="m 59.688425,1363.9759 c 52.520935,42.6516 123.756355,-40.7534 73.408415,-85.9507 -45.197255,-50.348 -128.6023327,20.8875 -85.950659,73.4084 l 5.780603,6.7616 6.761641,5.7807 0,0 z"
       id="path3052"
       inkscape:connector-curvature="0" />
    <path
       style="fill:none;stroke:#000000"
       d="m -431.73425,1272.2446 c -52.52151,-42.6512 -123.75798,40.7518 -73.40996,85.9506 45.19665,50.3486 128.60414,-20.8885 85.94972,-73.4083 l -5.77941,-6.7616 -6.76035,-5.7807 z"
       id="path3072"
       inkscape:connector-curvature="0" />
    <path
       style="fill:none;stroke:#000000"
       d="m 819.58819,1372.0284 c 63.29741,24.3035 105.06373,-77.056 43.25455,-104.4282 -58.58319,-34.0193 -115.77597,59.7227 -59.06124,96.3757 l 7.50714,4.9827 8.29955,3.0698 z"
       id="path3134"
       inkscape:connector-curvature="0" />
    <path
       style="fill:none;stroke:#000000"
       d="m -989.80512,1363.9759 c 56.79127,-36.773 -0.51755,-130.2918 -59.06128,-96.3758 -61.8493,27.4266 -19.8756,128.7624 43.2546,104.4283 l 8.21834,-3.408 7.58834,-4.6445 0,0 z"
       id="path3140"
       inkscape:connector-curvature="0" />
    <path
       style="fill:none;stroke:#000000"
       d="m -605.21811,1284.7869 c -36.76841,-56.7948 -130.29309,0.5173 -96.37412,59.0595 27.42601,61.8509 128.76226,19.8747 104.42806,-43.2553 l -3.40895,-8.217 -4.64499,-7.5872 z"
       id="path3190"
       inkscape:connector-curvature="0" />
    <path
       style="fill:none;stroke:#000000"
       d="m -146.92996,1300.5911 c -24.33484,63.1303 77.001739,105.1059 104.428119,43.2553 33.9174143,-58.5435 -59.605569,-115.8535 -96.375599,-59.0595 l -4.64434,7.5872 -3.40818,8.217 z"
       id="path3244"
       inkscape:connector-curvature="0" />
    <path
       style="fill:none;stroke:#000000"
       d="m -780.41339,1318.1102 c 3.63522,-67.5602 -105.71219,-76.1667 -112.68381,-8.8681 -14.166,66.1592 92.48869,91.7642 109.9094,26.3873 l 2.0724,-8.6511 0.70201,-8.8681 z"
       id="path3266"
       inkscape:connector-curvature="0" />
    <path
       style="fill:none;stroke:#000000"
       d="m 1040.648,1372.0284 c 51.2148,-13.4429 51.3151,-94.4037 0,-107.8363 -63.11096,-24.4174 -105.07607,77.1025 -43.25453,104.4282 13.21743,6.8086 29.13323,8.0505 43.25453,3.4081 z"
       id="path3338"
       inkscape:connector-curvature="0" />
    <path
       style="fill:none;stroke:#000000"
       d="m -245.71205,1363.9759 c 56.79386,-36.7701 -0.51604,-130.2931 -59.05959,-96.3756 -61.85051,27.4264 -19.87493,128.763 43.25538,104.4281 l 8.21703,-3.4082 7.58718,-4.6443 0,0 z"
       id="path3340"
       inkscape:connector-curvature="0" />
    <path
       style="fill:none;stroke:#000000"
       d="m -1077.0484,1512.7937 c 17.4186,65.3775 124.07542,39.774 109.90928,-26.3857 -6.97036,-67.299 -116.31928,-58.693 -112.68368,8.8676 l 0.7021,8.8675 2.0723,8.6506 z"
       id="path3408"
       inkscape:connector-curvature="0" />
    <path
       style="fill:none;stroke:#000000"
       d="m -324.90106,1461.9508 c -42.65118,52.5215 40.75177,123.758 85.95059,73.41 50.34859,-45.1967 -20.88851,-128.6042 -73.40835,-85.9498 l -6.76157,5.7794 -5.78067,6.7604 z"
       id="path3442"
       inkscape:connector-curvature="0" />
    <path
       style="fill:none;stroke:#000000"
       d="m 668.60079,1441.3571 c -63.12996,-24.3334 -105.10423,77.0021 -43.25455,104.4282 58.54239,33.9175 115.85337,-59.603 59.06124,-96.3743 l -7.58836,-4.6451 -8.21833,-3.4088 z"
       id="path3474"
       inkscape:connector-curvature="0" />
    <path
       style="fill:none;stroke:#000000"
       d="m 780.41339,1495.2756 c -3.76272,67.4753 105.84609,76.1683 112.68371,8.8675 14.1164,-66.3052 -92.55387,-91.6147 -109.9093,-26.3856 l -2.0723,8.6506 -0.70211,8.8675 z"
       id="path3526"
       inkscape:connector-curvature="0" />
    <path
       style="fill:none;stroke:#000000"
       d="m -605.21811,1461.9508 c -36.77126,-56.7922 -130.29183,0.5189 -96.37429,59.0612 27.42611,61.8497 128.76162,19.8754 104.42823,-43.2545 l -3.40878,-8.2183 -4.64516,-7.5884 z"
       id="path3550"
       inkscape:connector-curvature="0" />
    <path
       style="fill:none;stroke:#000000"
       d="m 1056.4547,1449.411 c -52.5741,-42.5211 -123.37345,40.2232 -73.70652,86.1315 45.77292,49.968 128.79982,-21.0141 86.24632,-73.5917 -4.1799,-4.1799 -8.3599,-8.3599 -12.5398,-12.5398 z"
       id="path3592"
       inkscape:connector-curvature="0" />
    <path
       style="fill:none;stroke:#000000"
       d="m 146.92996,1512.7937 c 24.33403,-63.1302 -77.001711,-105.1039 -104.428285,-43.2546 -33.9160075,58.5437 59.602835,115.8526 96.375765,59.0613 l 4.64451,-7.5883 3.40801,-8.2184 z"
       id="path3624"
       inkscape:connector-curvature="0" />
    <path
       style="stroke:#000000;fill:none"
       d="M 411.140551,1477.757480 408.366142,1495.275591"
       id="path3686" />
    <path
       style="stroke:#000000;fill:none"
       d="M 408.366142,1495.275591 411.140551,1512.793701"
       id="path3688" />
    <path
       style="fill:none;stroke:#000000"
       d="m 419.19449,1528.6004 c 36.64814,56.7985 130.34394,-0.4984 96.37429,-59.0613 -27.83433,-61.3421 -126.9801,-20.9445 -102.49809,42.9469 l 2.50644,8.3098 3.61736,7.8046 z"
       id="path3690"
       inkscape:connector-curvature="0" />
    <path
       style="fill:none;stroke:#000000"
       d="m -783.1878,1512.7937 c 24.3334,-63.1299 -77.00206,-105.1042 -104.42822,-43.2546 -33.91753,58.5424 59.603,115.8535 96.37429,59.0613 l 4.64516,-7.5884 3.40877,-8.2183 z"
       id="path3704"
       inkscape:connector-curvature="0" />
    <path
       style="fill:none;stroke:#000000"
       d="m -59.688425,1541.1402 c 56.7947019,-36.7685 -0.517295,-130.2931 -59.059565,-96.3742 -61.85087,27.4261 -19.87469,128.7623 43.255352,104.4281 l 8.217007,-3.4089 7.587206,-4.645 0,0 z"
       id="path3740"
       inkscape:connector-curvature="0" />
    <path
       style="fill:none;stroke:#000000"
       d="m 324.90106,1461.9508 c -36.77292,-56.7913 -130.29178,0.5176 -96.37576,59.0613 27.42657,61.8493 128.76232,19.8756 104.42828,-43.2546 l -3.40801,-8.2184 -4.64451,-7.5883 z"
       id="path3790"
       inkscape:connector-curvature="0" />
    <path
       style="fill:none;stroke:#000000"
       d="m -408.36614,1495.2756 c 3.63557,-67.5606 -105.71333,-76.1666 -112.68372,-8.8676 -14.16612,66.1597 92.4907,91.7632 109.90931,26.3857 l 2.0723,-8.6506 0.70211,-8.8675 z"
       id="path3826"
       inkscape:connector-curvature="0" />
    <path
       style="fill:none;stroke:#000000"
       d="m -891.0248,1654.9228 c -24.33339,63.1299 77.00199,105.1043 104.42823,43.2546 33.91751,-58.5423 -59.60293,-115.8534 -96.3743,-59.0613 l -4.64515,7.5884 -3.40878,8.2183 z"
       id="path3884"
       inkscape:connector-curvature="0" />
    <path
       style="fill:none;stroke:#000000"
       d="m 791.24173,1639.1161 c -42.67331,52.6403 40.72539,123.6972 85.94973,73.41 50.24429,-44.915 -20.97988,-128.9818 -73.40996,-85.9497 l -4.96692,4.4765 -7.57285,8.0632 z"
       id="path3922"
       inkscape:connector-curvature="0" />
    <path
       style="fill:none;stroke:#000000"
       d="m 126.3352,1626.5764 c -52.519751,-42.6545 -123.7569754,40.753 -73.408355,85.9497 45.198852,50.348 128.601755,-20.8885 85.950595,-73.41 l -5.78066,-6.7603 -6.76158,-5.7794 0,0 z"
       id="path3952"
       inkscape:connector-curvature="0" />
    <path
       style="fill:none;stroke:#000000"
       d="m -39.093661,1654.9228 c -17.417669,-65.3774 -124.075699,-39.7739 -109.908729,26.3857 6.96973,67.2991 116.319384,58.693 112.683492,-8.8676 l -0.702335,-8.8675 -2.072428,-8.6506 0,0 z"
       id="path3988"
       inkscape:connector-curvature="0" />
    <path
       style="fill:none;stroke:#000000"
       d="m -498.38386,1718.3055 c 52.52037,42.6539 123.75857,-40.7515 73.4099,-85.9496 -45.19816,-50.3487 -128.6036,20.8895 -85.94966,73.4098 l 5.77947,6.7603 6.76029,5.7795 z"
       id="path4052"
       inkscape:connector-curvature="0" />
    <path
       style="fill:none;stroke:#000000"
       d="m -651.08268,1729.1339 c 67.56059,3.6354 76.16661,-105.7133 8.86757,-112.6838 -66.15964,-14.1661 -91.76314,92.4907 -26.38568,109.9093 l 8.65055,2.0724 8.86756,0.7021 z"
       id="path4096"
       inkscape:connector-curvature="0" />
    <path
       style="fill:none;stroke:#000000"
       d="m 633.56457,1618.5224 c -65.37745,17.4187 -39.77399,124.0754 26.38567,109.9094 67.29903,-6.9705 58.69302,-116.3192 -8.86756,-112.6838 l -8.86757,0.7021 -8.65054,2.0723 z"
       id="path4118"
       inkscape:connector-curvature="0" />
    <path
       style="fill:none;stroke:#000000"
       d="m 261.51626,1618.5224 c -65.37682,17.4208 -39.77186,124.0754 26.38729,109.9095 67.29865,-6.9717 58.69208,-116.3191 -8.86812,-112.6839 l -8.86812,0.702 -8.65105,2.0724 z"
       id="path4158"
       inkscape:connector-curvature="0" />
    <path
       style="fill:none;stroke:#000000"
       d="m -233.1698,1639.1161 c -36.77299,-56.7912 -130.29174,0.5176 -96.37577,59.0613 27.42658,61.8493 128.76232,19.8756 104.42829,-43.2546 l -3.40802,-8.2183 -4.6445,-7.5884 0,0 z"
       id="path4190"
       inkscape:connector-curvature="0" />
    <path
       style="fill:none;stroke:#000000"
       d="m 977.26535,1639.1161 c -42.6733,52.6403 40.72535,123.6972 85.94975,73.41 38.5653,-35.033 3.3692,-107.4088 -48.9527,-96.0761 -14.0866,2.7864 -28.99751,10.3061 -36.99705,22.6661 z"
       id="path4242"
       inkscape:connector-curvature="0" />
    <path
       style="fill:none;stroke:#000000"
       d="m -1056.4547,1626.5764 c -56.7922,36.7712 0.5189,130.2919 59.06122,96.3742 61.8497,-27.4261 19.87538,-128.7615 -43.25452,-104.4282 l -8.2184,3.4088 -7.5883,4.6452 z"
       id="path4280"
       inkscape:connector-curvature="0" />
    <path
       style="stroke:#000000;fill:none"
       d="M 411.140551,1654.922835 408.366142,1672.440945"
       id="path4326" />
    <path
       style="stroke:#000000;fill:none"
       d="M 408.366142,1672.440945 411.140551,1689.959055"
       id="path4328" />
    <path
       style="fill:none;stroke:#000000"
       d="m 419.19449,1705.7657 c 36.6481,56.7986 130.34396,-0.4984 96.37429,-59.0612 -27.83435,-61.3422 -126.98004,-20.9446 -102.49809,42.9468 l 2.50644,8.3098 3.61736,7.8046 0,0 z"
       id="path4330"
       inkscape:connector-curvature="0" />
    <path
       style="fill:none;stroke:#000000"
       d="m -296.55461,1903.5248 c 63.13004,24.3343 105.10623,-77.002 43.25536,-104.4281 -58.54227,-33.9189 -115.85427,59.6057 -59.05957,96.3742 l 7.58721,4.645 8.217,3.4089 z"
       id="path4374"
       inkscape:connector-curvature="0" />
    <path
       style="fill:none;stroke:#000000"
       d="m -39.093661,1867.1244 c 24.334032,-63.1302 -77.001709,-105.1039 -104.428289,-43.2546 -33.916,58.5437 59.602846,115.8526 96.375769,59.0613 l 4.644506,-7.5883 3.408014,-8.2184 0,0 z"
       id="path4384"
       inkscape:connector-curvature="0" />
    <path
       style="stroke:#000000;fill:none"
       d="M 411.140551,1832.088189 408.366142,1849.606299"
       id="path4446" />
    <path
       style="stroke:#000000;fill:none"
       d="M 408.366142,1849.606299 411.140551,1867.124409"
       id="path4448" />
    <path
       style="fill:none;stroke:#000000"
       d="m 419.19449,1882.9311 c 36.64812,56.7985 130.34393,-0.4984 96.37429,-59.0612 -27.83428,-61.3422 -126.98011,-20.9446 -102.49809,42.9468 l 2.50644,8.3098 3.61736,7.8046 z"
       id="path4450"
       inkscape:connector-curvature="0" />
    <path
       style="fill:none;stroke:#000000"
       d="m 1056.4547,1803.7417 c -52.7344,-42.462 -123.2954,40.2299 -73.70652,86.1315 45.63692,49.8051 128.90842,-20.7234 86.24632,-73.5917 l -5.7794,-6.7604 -6.7604,-5.7794 z"
       id="path4472"
       inkscape:connector-curvature="0" />
    <path
       style="fill:none;stroke:#000000"
       d="m 780.41339,1849.6063 c -3.69827,67.6404 105.78458,76.0819 112.68371,8.8675 14.09997,-66.1811 -92.43521,-91.7121 -109.9093,-26.3856 l -2.0723,8.6506 -0.70211,8.8675 z"
       id="path4526"
       inkscape:connector-curvature="0" />
    <path
       style="fill:none;stroke:#000000"
       d="m 93.011811,1906.2992 c 67.560219,3.6354 76.166769,-105.7123 8.868119,-112.6838 -66.159173,-14.166 -91.764108,92.4887 -26.387292,109.9094 l 8.651054,2.0724 8.868119,0.702 0,0 z"
       id="path4576"
       inkscape:connector-curvature="0" />
    <path
       style="fill:none;stroke:#000000"
       d="m -411.14055,1867.1244 c 24.33339,-63.1299 -77.00211,-105.1042 -104.42823,-43.2545 -33.91752,58.5423 59.60302,115.8534 96.37429,59.0612 l 4.64516,-7.5884 3.40878,-8.2183 0,0 z"
       id="path4584"
       inkscape:connector-curvature="0" />
    <path
       style="fill:none;stroke:#000000"
       d="m -684.40748,1895.4709 c 52.52044,42.6538 123.75852,-40.7514 73.4099,-85.9497 -45.19821,-50.3486 -128.60357,20.8895 -85.94966,73.4099 l 5.77947,6.7603 6.76029,5.7795 z"
       id="path4652"
       inkscape:connector-curvature="0" />
    <path
       style="fill:none;stroke:#000000"
       d="m 597.16417,1832.0882 c -24.33339,63.1299 77.00211,105.1042 104.42823,43.2545 33.91752,-58.5423 -59.60302,-115.8534 -96.37429,-59.0612 l -4.64516,7.5884 -3.40878,8.2183 z"
       id="path4684"
       inkscape:connector-curvature="0" />
    <path
       style="fill:none;stroke:#000000"
       d="m 222.34252,1849.6063 c -3.63588,67.5606 105.71381,76.1666 112.68349,8.8675 14.16699,-66.1596 -92.49114,-91.7631 -109.90873,-26.3856 l -2.07243,8.6505 -0.70233,8.8676 z"
       id="path4726"
       inkscape:connector-curvature="0" />
    <path
       style="fill:none;stroke:#000000"
       d="m -1040.648,1795.6878 c -65.3774,17.4186 -39.774,124.0754 26.3856,109.9093 67.29906,-6.9703 58.69308,-116.3193 -8.8675,-112.6837 l -8.8676,0.7021 -8.6505,2.0723 z"
       id="path4758"
       inkscape:connector-curvature="0" />
    <path
       style="fill:none;stroke:#000000"
       d="m -837.1063,1906.2992 c 67.56058,3.6356 76.16659,-105.7133 8.86756,-112.6837 -66.15966,-14.1662 -91.7631,92.4907 -26.38567,109.9093 l 8.65055,2.0723 8.86756,0.7021 z"
       id="path4816"
       inkscape:connector-curvature="0" />
  </g>
</svg>
