  0
SECTION
  2
BLOCKS
  0
ENDSEC
  0
SECTION
  2
ENTITIES
  0
LINE
  8
0
 10
30
 20
0
 11
29.9408
 21
1.88372
  0
LINE
  8
0
 10
29.9408
 20
1.88372
 11
29.7634
 21
3.76
  0
LINE
  8
0
 10
29.7634
 20
3.76
 11
29.4686
 21
5.62144
  0
LINE
  8
0
 10
29.4686
 20
5.62144
 11
29.0575
 21
7.4607
  0
LINE
  8
0
 10
29.0575
 20
7.4607
 11
28.5317
 21
9.27051
  0
LINE
  8
0
 10
28.5317
 20
9.27051
 11
27.8933
 21
11.0437
  0
LINE
  8
0
 10
27.8933
 20
11.0437
 11
27.1448
 21
12.7734
  0
LINE
  8
0
 10
27.1448
 20
12.7734
 11
26.2892
 21
14.4526
  0
LINE
  8
0
 10
26.2892
 20
14.4526
 11
25.3298
 21
16.0748
  0
LINE
  8
0
 10
25.3298
 20
16.0748
 11
24.2705
 21
17.6336
  0
LINE
  8
0
 10
24.2705
 20
17.6336
 11
23.1154
 21
19.1227
  0
LINE
  8
0
 10
23.1154
 20
19.1227
 11
21.8691
 21
20.5364
  0
LINE
  8
0
 10
21.8691
 20
20.5364
 11
20.5364
 21
21.8691
  0
LINE
  8
0
 10
20.5364
 20
21.8691
 11
19.1227
 21
23.1154
  0
LINE
  8
0
 10
19.1227
 20
23.1154
 11
17.6336
 21
24.2705
  0
LINE
  8
0
 10
17.6336
 20
24.2705
 11
16.0748
 21
25.3298
  0
LINE
  8
0
 10
16.0748
 20
25.3298
 11
14.4526
 21
26.2892
  0
LINE
  8
0
 10
14.4526
 20
26.2892
 11
12.7734
 21
27.1448
  0
LINE
  8
0
 10
12.7734
 20
27.1448
 11
11.0437
 21
27.8933
  0
LINE
  8
0
 10
11.0437
 20
27.8933
 11
9.27051
 21
28.5317
  0
LINE
  8
0
 10
9.27051
 20
28.5317
 11
7.4607
 21
29.0575
  0
LINE
  8
0
 10
7.4607
 20
29.0575
 11
5.62144
 21
29.4686
  0
LINE
  8
0
 10
5.62144
 20
29.4686
 11
3.76
 21
29.7634
  0
LINE
  8
0
 10
3.76
 20
29.7634
 11
1.88372
 21
29.9408
  0
LINE
  8
0
 10
1.88372
 20
29.9408
 11
1.83691e-015
 21
30
  0
LINE
  8
0
 10
1.83691e-015
 20
30
 11
-1.88372
 21
29.9408
  0
LINE
  8
0
 10
-1.88372
 20
29.9408
 11
-3.76
 21
29.7634
  0
LINE
  8
0
 10
-3.76
 20
29.7634
 11
-5.62144
 21
29.4686
  0
LINE
  8
0
 10
-5.62144
 20
29.4686
 11
-7.4607
 21
29.0575
  0
LINE
  8
0
 10
-7.4607
 20
29.0575
 11
-9.27051
 21
28.5317
  0
LINE
  8
0
 10
-9.27051
 20
28.5317
 11
-11.0437
 21
27.8933
  0
LINE
  8
0
 10
-11.0437
 20
27.8933
 11
-12.7734
 21
27.1448
  0
LINE
  8
0
 10
-12.7734
 20
27.1448
 11
-14.4526
 21
26.2892
  0
LINE
  8
0
 10
-14.4526
 20
26.2892
 11
-16.0748
 21
25.3298
  0
LINE
  8
0
 10
-16.0748
 20
25.3298
 11
-17.6336
 21
24.2705
  0
LINE
  8
0
 10
-17.6336
 20
24.2705
 11
-19.1227
 21
23.1154
  0
LINE
  8
0
 10
-19.1227
 20
23.1154
 11
-20.5364
 21
21.8691
  0
LINE
  8
0
 10
-20.5364
 20
21.8691
 11
-21.8691
 21
20.5364
  0
LINE
  8
0
 10
-21.8691
 20
20.5364
 11
-23.1154
 21
19.1227
  0
LINE
  8
0
 10
-23.1154
 20
19.1227
 11
-24.2705
 21
17.6336
  0
LINE
  8
0
 10
-24.2705
 20
17.6336
 11
-25.3298
 21
16.0748
  0
LINE
  8
0
 10
-25.3298
 20
16.0748
 11
-26.2892
 21
14.4526
  0
LINE
  8
0
 10
-26.2892
 20
14.4526
 11
-27.1448
 21
12.7734
  0
LINE
  8
0
 10
-27.1448
 20
12.7734
 11
-27.8933
 21
11.0437
  0
LINE
  8
0
 10
-27.8933
 20
11.0437
 11
-28.5317
 21
9.27051
  0
LINE
  8
0
 10
-28.5317
 20
9.27051
 11
-29.0575
 21
7.4607
  0
LINE
  8
0
 10
-29.0575
 20
7.4607
 11
-29.4686
 21
5.62144
  0
LINE
  8
0
 10
-29.4686
 20
5.62144
 11
-29.7634
 21
3.76
  0
LINE
  8
0
 10
-29.7634
 20
3.76
 11
-29.9408
 21
1.88372
  0
LINE
  8
0
 10
-29.9408
 20
1.88372
 11
-30
 21
3.67382e-015
  0
LINE
  8
0
 10
-30
 20
3.67382e-015
 11
-29.9408
 21
-1.88372
  0
LINE
  8
0
 10
-29.9408
 20
-1.88372
 11
-29.7634
 21
-3.76
  0
LINE
  8
0
 10
-29.7634
 20
-3.76
 11
-29.4686
 21
-5.62144
  0
LINE
  8
0
 10
-29.4686
 20
-5.62144
 11
-29.0575
 21
-7.4607
  0
LINE
  8
0
 10
-29.0575
 20
-7.4607
 11
-28.5317
 21
-9.27051
  0
LINE
  8
0
 10
-28.5317
 20
-9.27051
 11
-27.8933
 21
-11.0437
  0
LINE
  8
0
 10
-27.8933
 20
-11.0437
 11
-27.1448
 21
-12.7734
  0
LINE
  8
0
 10
-27.1448
 20
-12.7734
 11
-26.2892
 21
-14.4526
  0
LINE
  8
0
 10
-26.2892
 20
-14.4526
 11
-25.3298
 21
-16.0748
  0
LINE
  8
0
 10
-25.3298
 20
-16.0748
 11
-24.2705
 21
-17.6336
  0
LINE
  8
0
 10
-24.2705
 20
-17.6336
 11
-23.1154
 21
-19.1227
  0
LINE
  8
0
 10
-23.1154
 20
-19.1227
 11
-21.8691
 21
-20.5364
  0
LINE
  8
0
 10
-21.8691
 20
-20.5364
 11
-20.5364
 21
-21.8691
  0
LINE
  8
0
 10
-20.5364
 20
-21.8691
 11
-19.1227
 21
-23.1154
  0
LINE
  8
0
 10
-19.1227
 20
-23.1154
 11
-17.6336
 21
-24.2705
  0
LINE
  8
0
 10
-17.6336
 20
-24.2705
 11
-16.0748
 21
-25.3298
  0
LINE
  8
0
 10
-16.0748
 20
-25.3298
 11
-14.4526
 21
-26.2892
  0
LINE
  8
0
 10
-14.4526
 20
-26.2892
 11
-12.7734
 21
-27.1448
  0
LINE
  8
0
 10
-12.7734
 20
-27.1448
 11
-11.0437
 21
-27.8933
  0
LINE
  8
0
 10
-11.0437
 20
-27.8933
 11
-9.27051
 21
-28.5317
  0
LINE
  8
0
 10
-9.27051
 20
-28.5317
 11
-7.4607
 21
-29.0575
  0
LINE
  8
0
 10
-7.4607
 20
-29.0575
 11
-5.62144
 21
-29.4686
  0
LINE
  8
0
 10
-5.62144
 20
-29.4686
 11
-3.76
 21
-29.7634
  0
LINE
  8
0
 10
-3.76
 20
-29.7634
 11
-1.88372
 21
-29.9408
  0
LINE
  8
0
 10
-1.88372
 20
-29.9408
 11
-5.51073e-015
 21
-30
  0
LINE
  8
0
 10
-5.51073e-015
 20
-30
 11
1.88372
 21
-29.9408
  0
LINE
  8
0
 10
1.88372
 20
-29.9408
 11
3.76
 21
-29.7634
  0
LINE
  8
0
 10
3.76
 20
-29.7634
 11
5.62144
 21
-29.4686
  0
LINE
  8
0
 10
5.62144
 20
-29.4686
 11
7.4607
 21
-29.0575
  0
LINE
  8
0
 10
7.4607
 20
-29.0575
 11
9.27051
 21
-28.5317
  0
LINE
  8
0
 10
9.27051
 20
-28.5317
 11
11.0437
 21
-27.8933
  0
LINE
  8
0
 10
11.0437
 20
-27.8933
 11
12.7734
 21
-27.1448
  0
LINE
  8
0
 10
12.7734
 20
-27.1448
 11
14.4526
 21
-26.2892
  0
LINE
  8
0
 10
14.4526
 20
-26.2892
 11
16.0748
 21
-25.3298
  0
LINE
  8
0
 10
16.0748
 20
-25.3298
 11
17.6336
 21
-24.2705
  0
LINE
  8
0
 10
17.6336
 20
-24.2705
 11
19.1227
 21
-23.1154
  0
LINE
  8
0
 10
19.1227
 20
-23.1154
 11
20.5364
 21
-21.8691
  0
LINE
  8
0
 10
20.5364
 20
-21.8691
 11
21.8691
 21
-20.5364
  0
LINE
  8
0
 10
21.8691
 20
-20.5364
 11
23.1154
 21
-19.1227
  0
LINE
  8
0
 10
23.1154
 20
-19.1227
 11
24.2705
 21
-17.6336
  0
LINE
  8
0
 10
24.2705
 20
-17.6336
 11
25.3298
 21
-16.0748
  0
LINE
  8
0
 10
25.3298
 20
-16.0748
 11
26.2892
 21
-14.4526
  0
LINE
  8
0
 10
26.2892
 20
-14.4526
 11
27.1448
 21
-12.7734
  0
LINE
  8
0
 10
27.1448
 20
-12.7734
 11
27.8933
 21
-11.0437
  0
LINE
  8
0
 10
27.8933
 20
-11.0437
 11
28.5317
 21
-9.27051
  0
LINE
  8
0
 10
28.5317
 20
-9.27051
 11
29.0575
 21
-7.4607
  0
LINE
  8
0
 10
29.0575
 20
-7.4607
 11
29.4686
 21
-5.62144
  0
LINE
  8
0
 10
29.4686
 20
-5.62144
 11
29.7634
 21
-3.76
  0
LINE
  8
0
 10
29.7634
 20
-3.76
 11
29.9408
 21
-1.88372
  0
LINE
  8
0
 10
29.9408
 20
-1.88372
 11
30
 21
0
  0
ENDSEC
  0
SECTION
  2
OBJECTS
  0
DICTIONARY
  0
ENDSEC
  0
EOF
