  0
SECTION
  2
BLOCKS
  0
ENDSEC
  0
SECTION
  2
ENTITIES
  0
LINE
  8
0
 10
0.941849
 20
-14.9704
 11
1.87999
 21
-14.8817
  0
LINE
  8
0
 10
1.87999
 20
-14.8817
 11
2.81071
 21
-14.7343
  0
LINE
  8
0
 10
2.81071
 20
-14.7343
 11
3.73035
 21
-14.5287
  0
LINE
  8
0
 10
3.73035
 20
-14.5287
 11
4.63525
 21
-14.2658
  0
LINE
  8
0
 10
4.63525
 20
-14.2658
 11
5.52187
 21
-13.9466
  0
LINE
  8
0
 10
5.52187
 20
-13.9466
 11
6.38669
 21
-13.5724
  0
LINE
  8
0
 10
6.38669
 20
-13.5724
 11
7.2263
 21
-13.1446
  0
LINE
  8
0
 10
7.2263
 20
-13.1446
 11
8.0374
 21
-12.6649
  0
LINE
  8
0
 10
8.0374
 20
-12.6649
 11
8.81677
 21
-12.1353
  0
LINE
  8
0
 10
8.81677
 20
-12.1353
 11
9.56136
 21
-11.5577
  0
LINE
  8
0
 10
9.56136
 20
-11.5577
 11
10.2682
 21
-10.9345
  0
LINE
  8
0
 10
10.2682
 20
-10.9345
 11
10.9345
 21
-10.2682
  0
LINE
  8
0
 10
10.9345
 20
-10.2682
 11
11.5577
 21
-9.56136
  0
LINE
  8
0
 10
11.5577
 20
-9.56136
 11
12.1353
 21
-8.81677
  0
LINE
  8
0
 10
12.1353
 20
-8.81677
 11
12.6649
 21
-8.0374
  0
LINE
  8
0
 10
12.6649
 20
-8.0374
 11
13.1446
 21
-7.2263
  0
LINE
  8
0
 10
13.1446
 20
-7.2263
 11
13.5724
 21
-6.38669
  0
LINE
  8
0
 10
13.5724
 20
-6.38669
 11
13.9466
 21
-5.52187
  0
LINE
  8
0
 10
13.9466
 20
-5.52187
 11
14.2658
 21
-4.63525
  0
LINE
  8
0
 10
14.2658
 20
-4.63525
 11
14.5287
 21
-3.73035
  0
LINE
  8
0
 10
14.5287
 20
-3.73035
 11
14.7343
 21
-2.81071
  0
LINE
  8
0
 10
14.7343
 20
-2.81071
 11
14.8817
 21
-1.87999
  0
LINE
  8
0
 10
14.8817
 20
-1.87999
 11
14.9704
 21
-0.941849
  0
LINE
  8
0
 10
14.9704
 20
-0.941849
 11
15
 21
0
  0
LINE
  8
0
 10
15
 20
0
 11
14.9704
 21
0.941849
  0
LINE
  8
0
 10
14.9704
 20
0.941849
 11
14.8817
 21
1.87999
  0
LINE
  8
0
 10
14.8817
 20
1.87999
 11
14.7343
 21
2.81071
  0
LINE
  8
0
 10
14.7343
 20
2.81071
 11
14.5287
 21
3.73035
  0
LINE
  8
0
 10
14.5287
 20
3.73035
 11
14.2658
 21
4.63525
  0
LINE
  8
0
 10
14.2658
 20
4.63525
 11
13.9466
 21
5.52187
  0
LINE
  8
0
 10
13.9466
 20
5.52187
 11
13.5724
 21
6.38669
  0
LINE
  8
0
 10
13.5724
 20
6.38669
 11
13.1446
 21
7.2263
  0
LINE
  8
0
 10
13.1446
 20
7.2263
 11
12.6649
 21
8.0374
  0
LINE
  8
0
 10
12.6649
 20
8.0374
 11
12.1353
 21
8.81677
  0
LINE
  8
0
 10
12.1353
 20
8.81677
 11
11.5577
 21
9.56136
  0
LINE
  8
0
 10
11.5577
 20
9.56136
 11
10.9345
 21
10.2682
  0
LINE
  8
0
 10
10.9345
 20
10.2682
 11
10.2682
 21
10.9345
  0
LINE
  8
0
 10
10.2682
 20
10.9345
 11
9.56136
 21
11.5577
  0
LINE
  8
0
 10
9.56136
 20
11.5577
 11
8.81677
 21
12.1353
  0
LINE
  8
0
 10
8.81677
 20
12.1353
 11
8.0374
 21
12.6649
  0
LINE
  8
0
 10
8.0374
 20
12.6649
 11
7.2263
 21
13.1446
  0
LINE
  8
0
 10
7.2263
 20
13.1446
 11
6.38669
 21
13.5724
  0
LINE
  8
0
 10
6.38669
 20
13.5724
 11
5.52187
 21
13.9466
  0
LINE
  8
0
 10
5.52187
 20
13.9466
 11
4.63525
 21
14.2658
  0
LINE
  8
0
 10
4.63525
 20
14.2658
 11
3.73035
 21
14.5287
  0
LINE
  8
0
 10
3.73035
 20
14.5287
 11
2.81071
 21
14.7343
  0
LINE
  8
0
 10
2.81071
 20
14.7343
 11
1.87999
 21
14.8817
  0
LINE
  8
0
 10
1.87999
 20
14.8817
 11
0.941849
 21
14.9704
  0
LINE
  8
0
 10
0.941849
 20
14.9704
 11
0
 21
15
  0
LINE
  8
0
 10
0
 20
15
 11
-0.941849
 21
14.9704
  0
LINE
  8
0
 10
-0.941849
 20
14.9704
 11
-1.87999
 21
14.8817
  0
LINE
  8
0
 10
-1.87999
 20
14.8817
 11
-2.81071
 21
14.7343
  0
LINE
  8
0
 10
-2.81071
 20
14.7343
 11
-3.73035
 21
14.5287
  0
LINE
  8
0
 10
-3.73035
 20
14.5287
 11
-4.63525
 21
14.2658
  0
LINE
  8
0
 10
-4.63525
 20
14.2658
 11
-5.52187
 21
13.9466
  0
LINE
  8
0
 10
-5.52187
 20
13.9466
 11
-6.38669
 21
13.5724
  0
LINE
  8
0
 10
-6.38669
 20
13.5724
 11
-7.2263
 21
13.1446
  0
LINE
  8
0
 10
-7.2263
 20
13.1446
 11
-8.0374
 21
12.6649
  0
LINE
  8
0
 10
-8.0374
 20
12.6649
 11
-8.81677
 21
12.1353
  0
LINE
  8
0
 10
-8.81677
 20
12.1353
 11
-9.56136
 21
11.5577
  0
LINE
  8
0
 10
-9.56136
 20
11.5577
 11
-10.2682
 21
10.9345
  0
LINE
  8
0
 10
-10.2682
 20
10.9345
 11
-10.9345
 21
10.2682
  0
LINE
  8
0
 10
-10.9345
 20
10.2682
 11
-11.5577
 21
9.56136
  0
LINE
  8
0
 10
-11.5577
 20
9.56136
 11
-12.1353
 21
8.81677
  0
LINE
  8
0
 10
-12.1353
 20
8.81677
 11
-12.6649
 21
8.0374
  0
LINE
  8
0
 10
-12.6649
 20
8.0374
 11
-13.1446
 21
7.2263
  0
LINE
  8
0
 10
-13.1446
 20
7.2263
 11
-13.5724
 21
6.38669
  0
LINE
  8
0
 10
-13.5724
 20
6.38669
 11
-13.9466
 21
5.52187
  0
LINE
  8
0
 10
-13.9466
 20
5.52187
 11
-14.2658
 21
4.63525
  0
LINE
  8
0
 10
-14.2658
 20
4.63525
 11
-14.5287
 21
3.73035
  0
LINE
  8
0
 10
-14.5287
 20
3.73035
 11
-14.7343
 21
2.81071
  0
LINE
  8
0
 10
-14.7343
 20
2.81071
 11
-14.8817
 21
1.87999
  0
LINE
  8
0
 10
-14.8817
 20
1.87999
 11
-14.9704
 21
0.941849
  0
LINE
  8
0
 10
-14.9704
 20
0.941849
 11
-15
 21
0
  0
LINE
  8
0
 10
-15
 20
0
 11
-14.9704
 21
-0.941849
  0
LINE
  8
0
 10
-14.9704
 20
-0.941849
 11
-14.8817
 21
-1.87999
  0
LINE
  8
0
 10
-14.8817
 20
-1.87999
 11
-14.7343
 21
-2.81071
  0
LINE
  8
0
 10
-14.7343
 20
-2.81071
 11
-14.5287
 21
-3.73035
  0
LINE
  8
0
 10
-14.5287
 20
-3.73035
 11
-14.2658
 21
-4.63525
  0
LINE
  8
0
 10
-14.2658
 20
-4.63525
 11
-13.9466
 21
-5.52187
  0
LINE
  8
0
 10
-13.9466
 20
-5.52187
 11
-13.5724
 21
-6.38669
  0
LINE
  8
0
 10
-13.5724
 20
-6.38669
 11
-13.1446
 21
-7.2263
  0
LINE
  8
0
 10
-13.1446
 20
-7.2263
 11
-12.6649
 21
-8.0374
  0
LINE
  8
0
 10
-12.6649
 20
-8.0374
 11
-12.1353
 21
-8.81677
  0
LINE
  8
0
 10
-12.1353
 20
-8.81677
 11
-11.5577
 21
-9.56136
  0
LINE
  8
0
 10
-11.5577
 20
-9.56136
 11
-10.9345
 21
-10.2682
  0
LINE
  8
0
 10
-10.9345
 20
-10.2682
 11
-10.2682
 21
-10.9345
  0
LINE
  8
0
 10
-10.2682
 20
-10.9345
 11
-9.56136
 21
-11.5577
  0
LINE
  8
0
 10
-9.56136
 20
-11.5577
 11
-8.81677
 21
-12.1353
  0
LINE
  8
0
 10
-8.81677
 20
-12.1353
 11
-8.0374
 21
-12.6649
  0
LINE
  8
0
 10
-8.0374
 20
-12.6649
 11
-7.2263
 21
-13.1446
  0
LINE
  8
0
 10
-7.2263
 20
-13.1446
 11
-6.38669
 21
-13.5724
  0
LINE
  8
0
 10
-6.38669
 20
-13.5724
 11
-5.52187
 21
-13.9466
  0
LINE
  8
0
 10
-5.52187
 20
-13.9466
 11
-4.63525
 21
-14.2658
  0
LINE
  8
0
 10
-4.63525
 20
-14.2658
 11
-3.73035
 21
-14.5287
  0
LINE
  8
0
 10
-3.73035
 20
-14.5287
 11
-2.81071
 21
-14.7343
  0
LINE
  8
0
 10
-2.81071
 20
-14.7343
 11
-1.87999
 21
-14.8817
  0
LINE
  8
0
 10
-1.87999
 20
-14.8817
 11
-0.941849
 21
-14.9704
  0
LINE
  8
0
 10
-0.941849
 20
-14.9704
 11
0
 21
-15
  0
LINE
  8
0
 10
0
 20
-15
 11
0.941849
 21
-14.9704
  0
LINE
  8
0
 10
-0.0941772
 20
-1.49704
 11
-0.187988
 21
-1.48816
  0
LINE
  8
0
 10
-0.187988
 20
-1.48816
 11
-0.281067
 21
-1.47342
  0
LINE
  8
0
 10
-0.281067
 20
-1.47342
 11
-0.373032
 21
-1.45287
  0
LINE
  8
0
 10
-0.373032
 20
-1.45287
 11
-0.463516
 21
-1.42657
  0
LINE
  8
0
 10
-0.463516
 20
-1.42657
 11
-0.552185
 21
-1.39465
  0
LINE
  8
0
 10
-0.552185
 20
-1.39465
 11
-0.638657
 21
-1.35724
  0
LINE
  8
0
 10
-0.638657
 20
-1.35724
 11
-0.722626
 21
-1.31445
  0
LINE
  8
0
 10
-0.722626
 20
-1.31445
 11
-0.803726
 21
-1.26648
  0
LINE
  8
0
 10
-0.803726
 20
-1.26648
 11
-0.881668
 21
-1.21352
  0
LINE
  8
0
 10
-0.881668
 20
-1.21352
 11
-0.956131
 21
-1.15576
  0
LINE
  8
0
 10
-0.956131
 20
-1.15576
 11
-1.02681
 21
-1.09344
  0
LINE
  8
0
 10
-1.02681
 20
-1.09344
 11
-1.09344
 21
-1.02681
  0
LINE
  8
0
 10
-1.09344
 20
-1.02681
 11
-1.15576
 21
-0.956131
  0
LINE
  8
0
 10
-1.15576
 20
-0.956131
 11
-1.21352
 21
-0.881668
  0
LINE
  8
0
 10
-1.21352
 20
-0.881668
 11
-1.26648
 21
-0.803726
  0
LINE
  8
0
 10
-1.26648
 20
-0.803726
 11
-1.31445
 21
-0.722626
  0
LINE
  8
0
 10
-1.31445
 20
-0.722626
 11
-1.35724
 21
-0.638657
  0
LINE
  8
0
 10
-1.35724
 20
-0.638657
 11
-1.39465
 21
-0.552185
  0
LINE
  8
0
 10
-1.39465
 20
-0.552185
 11
-1.42657
 21
-0.463516
  0
LINE
  8
0
 10
-1.42657
 20
-0.463516
 11
-1.45287
 21
-0.373032
  0
LINE
  8
0
 10
-1.45287
 20
-0.373032
 11
-1.47342
 21
-0.281067
  0
LINE
  8
0
 10
-1.47342
 20
-0.281067
 11
-1.48816
 21
-0.187988
  0
LINE
  8
0
 10
-1.48816
 20
-0.187988
 11
-1.49704
 21
-0.0941772
  0
LINE
  8
0
 10
-1.49704
 20
-0.0941772
 11
-1.5
 21
0
  0
LINE
  8
0
 10
-1.5
 20
0
 11
-1.49704
 21
0.0941772
  0
LINE
  8
0
 10
-1.49704
 20
0.0941772
 11
-1.48816
 21
0.187988
  0
LINE
  8
0
 10
-1.48816
 20
0.187988
 11
-1.47342
 21
0.281067
  0
LINE
  8
0
 10
-1.47342
 20
0.281067
 11
-1.45287
 21
0.373032
  0
LINE
  8
0
 10
-1.45287
 20
0.373032
 11
-1.42657
 21
0.463516
  0
LINE
  8
0
 10
-1.42657
 20
0.463516
 11
-1.39465
 21
0.552185
  0
LINE
  8
0
 10
-1.39465
 20
0.552185
 11
-1.35724
 21
0.638657
  0
LINE
  8
0
 10
-1.35724
 20
0.638657
 11
-1.31445
 21
0.722626
  0
LINE
  8
0
 10
-1.31445
 20
0.722626
 11
-1.26648
 21
0.803726
  0
LINE
  8
0
 10
-1.26648
 20
0.803726
 11
-1.21352
 21
0.881668
  0
LINE
  8
0
 10
-1.21352
 20
0.881668
 11
-1.15576
 21
0.956131
  0
LINE
  8
0
 10
-1.15576
 20
0.956131
 11
-1.09344
 21
1.02681
  0
LINE
  8
0
 10
-1.09344
 20
1.02681
 11
-1.02681
 21
1.09344
  0
LINE
  8
0
 10
-1.02681
 20
1.09344
 11
-0.956131
 21
1.15576
  0
LINE
  8
0
 10
-0.956131
 20
1.15576
 11
-0.881668
 21
1.21352
  0
LINE
  8
0
 10
-0.881668
 20
1.21352
 11
-0.803726
 21
1.26648
  0
LINE
  8
0
 10
-0.803726
 20
1.26648
 11
-0.722626
 21
1.31445
  0
LINE
  8
0
 10
-0.722626
 20
1.31445
 11
-0.638657
 21
1.35724
  0
LINE
  8
0
 10
-0.638657
 20
1.35724
 11
-0.552185
 21
1.39465
  0
LINE
  8
0
 10
-0.552185
 20
1.39465
 11
-0.463516
 21
1.42657
  0
LINE
  8
0
 10
-0.463516
 20
1.42657
 11
-0.373032
 21
1.45287
  0
LINE
  8
0
 10
-0.373032
 20
1.45287
 11
-0.281067
 21
1.47342
  0
LINE
  8
0
 10
-0.281067
 20
1.47342
 11
-0.187988
 21
1.48816
  0
LINE
  8
0
 10
-0.187988
 20
1.48816
 11
-0.0941772
 21
1.49704
  0
LINE
  8
0
 10
-0.0941772
 20
1.49704
 11
0
 21
1.5
  0
LINE
  8
0
 10
0
 20
1.5
 11
0.0941772
 21
1.49704
  0
LINE
  8
0
 10
0.0941772
 20
1.49704
 11
0.187988
 21
1.48816
  0
LINE
  8
0
 10
0.187988
 20
1.48816
 11
0.281067
 21
1.47342
  0
LINE
  8
0
 10
0.281067
 20
1.47342
 11
0.373032
 21
1.45287
  0
LINE
  8
0
 10
0.373032
 20
1.45287
 11
0.463516
 21
1.42657
  0
LINE
  8
0
 10
0.463516
 20
1.42657
 11
0.552185
 21
1.39465
  0
LINE
  8
0
 10
0.552185
 20
1.39465
 11
0.638657
 21
1.35724
  0
LINE
  8
0
 10
0.638657
 20
1.35724
 11
0.722626
 21
1.31445
  0
LINE
  8
0
 10
0.722626
 20
1.31445
 11
0.803726
 21
1.26648
  0
LINE
  8
0
 10
0.803726
 20
1.26648
 11
0.881668
 21
1.21352
  0
LINE
  8
0
 10
0.881668
 20
1.21352
 11
0.956131
 21
1.15576
  0
LINE
  8
0
 10
0.956131
 20
1.15576
 11
1.02681
 21
1.09344
  0
LINE
  8
0
 10
1.02681
 20
1.09344
 11
1.09344
 21
1.02681
  0
LINE
  8
0
 10
1.09344
 20
1.02681
 11
1.15576
 21
0.956131
  0
LINE
  8
0
 10
1.15576
 20
0.956131
 11
1.21352
 21
0.881668
  0
LINE
  8
0
 10
1.21352
 20
0.881668
 11
1.26648
 21
0.803726
  0
LINE
  8
0
 10
1.26648
 20
0.803726
 11
1.31445
 21
0.722626
  0
LINE
  8
0
 10
1.31445
 20
0.722626
 11
1.35724
 21
0.638657
  0
LINE
  8
0
 10
1.35724
 20
0.638657
 11
1.39465
 21
0.552185
  0
LINE
  8
0
 10
1.39465
 20
0.552185
 11
1.42657
 21
0.463516
  0
LINE
  8
0
 10
1.42657
 20
0.463516
 11
1.45287
 21
0.373032
  0
LINE
  8
0
 10
1.45287
 20
0.373032
 11
1.47342
 21
0.281067
  0
LINE
  8
0
 10
1.47342
 20
0.281067
 11
1.48816
 21
0.187988
  0
LINE
  8
0
 10
1.48816
 20
0.187988
 11
1.49704
 21
0.0941772
  0
LINE
  8
0
 10
1.49704
 20
0.0941772
 11
1.5
 21
0
  0
LINE
  8
0
 10
1.5
 20
0
 11
1.49704
 21
-0.0941772
  0
LINE
  8
0
 10
1.49704
 20
-0.0941772
 11
1.48816
 21
-0.187988
  0
LINE
  8
0
 10
1.48816
 20
-0.187988
 11
1.47342
 21
-0.281067
  0
LINE
  8
0
 10
1.47342
 20
-0.281067
 11
1.45287
 21
-0.373032
  0
LINE
  8
0
 10
1.45287
 20
-0.373032
 11
1.42657
 21
-0.463516
  0
LINE
  8
0
 10
1.42657
 20
-0.463516
 11
1.39465
 21
-0.552185
  0
LINE
  8
0
 10
1.39465
 20
-0.552185
 11
1.35724
 21
-0.638657
  0
LINE
  8
0
 10
1.35724
 20
-0.638657
 11
1.31445
 21
-0.722626
  0
LINE
  8
0
 10
1.31445
 20
-0.722626
 11
1.26648
 21
-0.803726
  0
LINE
  8
0
 10
1.26648
 20
-0.803726
 11
1.21352
 21
-0.881668
  0
LINE
  8
0
 10
1.21352
 20
-0.881668
 11
1.15576
 21
-0.956131
  0
LINE
  8
0
 10
1.15576
 20
-0.956131
 11
1.09344
 21
-1.02681
  0
LINE
  8
0
 10
1.09344
 20
-1.02681
 11
1.02681
 21
-1.09344
  0
LINE
  8
0
 10
1.02681
 20
-1.09344
 11
0.956131
 21
-1.15576
  0
LINE
  8
0
 10
0.956131
 20
-1.15576
 11
0.881668
 21
-1.21352
  0
LINE
  8
0
 10
0.881668
 20
-1.21352
 11
0.803726
 21
-1.26648
  0
LINE
  8
0
 10
0.803726
 20
-1.26648
 11
0.722626
 21
-1.31445
  0
LINE
  8
0
 10
0.722626
 20
-1.31445
 11
0.638657
 21
-1.35724
  0
LINE
  8
0
 10
0.638657
 20
-1.35724
 11
0.552185
 21
-1.39465
  0
LINE
  8
0
 10
0.552185
 20
-1.39465
 11
0.463516
 21
-1.42657
  0
LINE
  8
0
 10
0.463516
 20
-1.42657
 11
0.373032
 21
-1.45287
  0
LINE
  8
0
 10
0.373032
 20
-1.45287
 11
0.281067
 21
-1.47342
  0
LINE
  8
0
 10
0.281067
 20
-1.47342
 11
0.187988
 21
-1.48816
  0
LINE
  8
0
 10
0.187988
 20
-1.48816
 11
0.0941772
 21
-1.49704
  0
LINE
  8
0
 10
0.0941772
 20
-1.49704
 11
0
 21
-1.5
  0
LINE
  8
0
 10
0
 20
-1.5
 11
-0.0941772
 21
-1.49704
  0
ENDSEC
  0
SECTION
  2
OBJECTS
  0
DICTIONARY
  0
ENDSEC
  0
EOF
