  0
SECTION
  2
BLOCKS
  0
ENDSEC
  0
SECTION
  2
ENTITIES
  0
LINE
  8
0
 10
0.470917
 20
-7.4852
 11
0.939987
 21
-7.44086
  0
LINE
  8
0
 10
0.939987
 20
-7.44086
 11
1.40535
 21
-7.36714
  0
LINE
  8
0
 10
1.40535
 20
-7.36714
 11
1.86517
 21
-7.26436
  0
LINE
  8
0
 10
1.86517
 20
-7.26436
 11
2.31763
 21
-7.13292
  0
LINE
  8
0
 10
2.31763
 20
-7.13292
 11
2.76093
 21
-6.97331
  0
LINE
  8
0
 10
2.76093
 20
-6.97331
 11
3.19334
 21
-6.78619
  0
LINE
  8
0
 10
3.19334
 20
-6.78619
 11
3.61314
 21
-6.5723
  0
LINE
  8
0
 10
3.61314
 20
-6.5723
 11
4.01869
 21
-6.33246
  0
LINE
  8
0
 10
4.01869
 20
-6.33246
 11
4.40839
 21
-6.06763
  0
LINE
  8
0
 10
4.40839
 20
-6.06763
 11
4.78067
 21
-5.77884
  0
LINE
  8
0
 10
4.78067
 20
-5.77884
 11
5.13409
 21
-5.46725
  0
LINE
  8
0
 10
5.13409
 20
-5.46725
 11
5.46725
 21
-5.13409
  0
LINE
  8
0
 10
5.46725
 20
-5.13409
 11
5.77884
 21
-4.78067
  0
LINE
  8
0
 10
5.77884
 20
-4.78067
 11
6.06763
 21
-4.40839
  0
LINE
  8
0
 10
6.06763
 20
-4.40839
 11
6.33246
 21
-4.01869
  0
LINE
  8
0
 10
6.33246
 20
-4.01869
 11
6.5723
 21
-3.61314
  0
LINE
  8
0
 10
6.5723
 20
-3.61314
 11
6.78619
 21
-3.19334
  0
LINE
  8
0
 10
6.78619
 20
-3.19334
 11
6.97331
 21
-2.76093
  0
LINE
  8
0
 10
6.97331
 20
-2.76093
 11
7.13292
 21
-2.31763
  0
LINE
  8
0
 10
7.13292
 20
-2.31763
 11
7.26436
 21
-1.86517
  0
LINE
  8
0
 10
7.26436
 20
-1.86517
 11
7.36714
 21
-1.40535
  0
LINE
  8
0
 10
7.36714
 20
-1.40535
 11
7.44086
 21
-0.939987
  0
LINE
  8
0
 10
7.44086
 20
-0.939987
 11
7.4852
 21
-0.470917
  0
LINE
  8
0
 10
7.4852
 20
-0.470917
 11
7.5
 21
0
  0
LINE
  8
0
 10
7.5
 20
0
 11
7.4852
 21
0.470917
  0
LINE
  8
0
 10
7.4852
 20
0.470917
 11
7.44086
 21
0.939987
  0
LINE
  8
0
 10
7.44086
 20
0.939987
 11
7.36714
 21
1.40535
  0
LINE
  8
0
 10
7.36714
 20
1.40535
 11
7.26436
 21
1.86517
  0
LINE
  8
0
 10
7.26436
 20
1.86517
 11
7.13292
 21
2.31763
  0
LINE
  8
0
 10
7.13292
 20
2.31763
 11
6.97331
 21
2.76093
  0
LINE
  8
0
 10
6.97331
 20
2.76093
 11
6.78619
 21
3.19334
  0
LINE
  8
0
 10
6.78619
 20
3.19334
 11
6.5723
 21
3.61314
  0
LINE
  8
0
 10
6.5723
 20
3.61314
 11
6.33246
 21
4.01869
  0
LINE
  8
0
 10
6.33246
 20
4.01869
 11
6.06763
 21
4.40839
  0
LINE
  8
0
 10
6.06763
 20
4.40839
 11
5.77884
 21
4.78067
  0
LINE
  8
0
 10
5.77884
 20
4.78067
 11
5.46725
 21
5.13409
  0
LINE
  8
0
 10
5.46725
 20
5.13409
 11
5.13409
 21
5.46725
  0
LINE
  8
0
 10
5.13409
 20
5.46725
 11
4.78067
 21
5.77884
  0
LINE
  8
0
 10
4.78067
 20
5.77884
 11
4.40839
 21
6.06763
  0
LINE
  8
0
 10
4.40839
 20
6.06763
 11
4.01869
 21
6.33246
  0
LINE
  8
0
 10
4.01869
 20
6.33246
 11
3.61314
 21
6.5723
  0
LINE
  8
0
 10
3.61314
 20
6.5723
 11
3.19334
 21
6.78619
  0
LINE
  8
0
 10
3.19334
 20
6.78619
 11
2.76093
 21
6.97331
  0
LINE
  8
0
 10
2.76093
 20
6.97331
 11
2.31763
 21
7.13292
  0
LINE
  8
0
 10
2.31763
 20
7.13292
 11
1.86517
 21
7.26436
  0
LINE
  8
0
 10
1.86517
 20
7.26436
 11
1.40535
 21
7.36714
  0
LINE
  8
0
 10
1.40535
 20
7.36714
 11
0.939987
 21
7.44086
  0
LINE
  8
0
 10
0.939987
 20
7.44086
 11
0.470917
 21
7.4852
  0
LINE
  8
0
 10
0.470917
 20
7.4852
 11
0
 21
7.5
  0
LINE
  8
0
 10
0
 20
7.5
 11
-0.470917
 21
7.4852
  0
LINE
  8
0
 10
-0.470917
 20
7.4852
 11
-0.939987
 21
7.44086
  0
LINE
  8
0
 10
-0.939987
 20
7.44086
 11
-1.40535
 21
7.36714
  0
LINE
  8
0
 10
-1.40535
 20
7.36714
 11
-1.86517
 21
7.26436
  0
LINE
  8
0
 10
-1.86517
 20
7.26436
 11
-2.31763
 21
7.13292
  0
LINE
  8
0
 10
-2.31763
 20
7.13292
 11
-2.76093
 21
6.97331
  0
LINE
  8
0
 10
-2.76093
 20
6.97331
 11
-3.19334
 21
6.78619
  0
LINE
  8
0
 10
-3.19334
 20
6.78619
 11
-3.61314
 21
6.5723
  0
LINE
  8
0
 10
-3.61314
 20
6.5723
 11
-4.01869
 21
6.33246
  0
LINE
  8
0
 10
-4.01869
 20
6.33246
 11
-4.40839
 21
6.06763
  0
LINE
  8
0
 10
-4.40839
 20
6.06763
 11
-4.78067
 21
5.77884
  0
LINE
  8
0
 10
-4.78067
 20
5.77884
 11
-5.13409
 21
5.46725
  0
LINE
  8
0
 10
-5.13409
 20
5.46725
 11
-5.46725
 21
5.13409
  0
LINE
  8
0
 10
-5.46725
 20
5.13409
 11
-5.77884
 21
4.78067
  0
LINE
  8
0
 10
-5.77884
 20
4.78067
 11
-6.06763
 21
4.40839
  0
LINE
  8
0
 10
-6.06763
 20
4.40839
 11
-6.33246
 21
4.01869
  0
LINE
  8
0
 10
-6.33246
 20
4.01869
 11
-6.5723
 21
3.61314
  0
LINE
  8
0
 10
-6.5723
 20
3.61314
 11
-6.78619
 21
3.19334
  0
LINE
  8
0
 10
-6.78619
 20
3.19334
 11
-6.97331
 21
2.76093
  0
LINE
  8
0
 10
-6.97331
 20
2.76093
 11
-7.13292
 21
2.31763
  0
LINE
  8
0
 10
-7.13292
 20
2.31763
 11
-7.26436
 21
1.86517
  0
LINE
  8
0
 10
-7.26436
 20
1.86517
 11
-7.36714
 21
1.40535
  0
LINE
  8
0
 10
-7.36714
 20
1.40535
 11
-7.44086
 21
0.939987
  0
LINE
  8
0
 10
-7.44086
 20
0.939987
 11
-7.4852
 21
0.470917
  0
LINE
  8
0
 10
-7.4852
 20
0.470917
 11
-7.5
 21
0
  0
LINE
  8
0
 10
-7.5
 20
0
 11
-7.4852
 21
-0.470917
  0
LINE
  8
0
 10
-7.4852
 20
-0.470917
 11
-7.44086
 21
-0.939987
  0
LINE
  8
0
 10
-7.44086
 20
-0.939987
 11
-7.36714
 21
-1.40535
  0
LINE
  8
0
 10
-7.36714
 20
-1.40535
 11
-7.26436
 21
-1.86517
  0
LINE
  8
0
 10
-7.26436
 20
-1.86517
 11
-7.13292
 21
-2.31763
  0
LINE
  8
0
 10
-7.13292
 20
-2.31763
 11
-6.97331
 21
-2.76093
  0
LINE
  8
0
 10
-6.97331
 20
-2.76093
 11
-6.78619
 21
-3.19334
  0
LINE
  8
0
 10
-6.78619
 20
-3.19334
 11
-6.5723
 21
-3.61314
  0
LINE
  8
0
 10
-6.5723
 20
-3.61314
 11
-6.33246
 21
-4.01869
  0
LINE
  8
0
 10
-6.33246
 20
-4.01869
 11
-6.06763
 21
-4.40839
  0
LINE
  8
0
 10
-6.06763
 20
-4.40839
 11
-5.77884
 21
-4.78067
  0
LINE
  8
0
 10
-5.77884
 20
-4.78067
 11
-5.46725
 21
-5.13409
  0
LINE
  8
0
 10
-5.46725
 20
-5.13409
 11
-5.13409
 21
-5.46725
  0
LINE
  8
0
 10
-5.13409
 20
-5.46725
 11
-4.78067
 21
-5.77884
  0
LINE
  8
0
 10
-4.78067
 20
-5.77884
 11
-4.40839
 21
-6.06763
  0
LINE
  8
0
 10
-4.40839
 20
-6.06763
 11
-4.01869
 21
-6.33246
  0
LINE
  8
0
 10
-4.01869
 20
-6.33246
 11
-3.61314
 21
-6.5723
  0
LINE
  8
0
 10
-3.61314
 20
-6.5723
 11
-3.19334
 21
-6.78619
  0
LINE
  8
0
 10
-3.19334
 20
-6.78619
 11
-2.76093
 21
-6.97331
  0
LINE
  8
0
 10
-2.76093
 20
-6.97331
 11
-2.31763
 21
-7.13292
  0
LINE
  8
0
 10
-2.31763
 20
-7.13292
 11
-1.86517
 21
-7.26436
  0
LINE
  8
0
 10
-1.86517
 20
-7.26436
 11
-1.40535
 21
-7.36714
  0
LINE
  8
0
 10
-1.40535
 20
-7.36714
 11
-0.939987
 21
-7.44086
  0
LINE
  8
0
 10
-0.939987
 20
-7.44086
 11
-0.470917
 21
-7.4852
  0
LINE
  8
0
 10
-0.470917
 20
-7.4852
 11
0
 21
-7.5
  0
LINE
  8
0
 10
0
 20
-7.5
 11
0.470917
 21
-7.4852
  0
LINE
  8
0
 10
-0.0941772
 20
2.75294
 11
-0.187988
 21
2.76183
  0
LINE
  8
0
 10
-0.187988
 20
2.76183
 11
-0.281067
 21
2.77657
  0
LINE
  8
0
 10
-0.281067
 20
2.77657
 11
-0.373032
 21
2.79712
  0
LINE
  8
0
 10
-0.373032
 20
2.79712
 11
-0.463516
 21
2.82341
  0
LINE
  8
0
 10
-0.463516
 20
2.82341
 11
-0.552185
 21
2.85533
  0
LINE
  8
0
 10
-0.552185
 20
2.85533
 11
-0.638657
 21
2.89275
  0
LINE
  8
0
 10
-0.638657
 20
2.89275
 11
-0.722626
 21
2.93553
  0
LINE
  8
0
 10
-0.722626
 20
2.93553
 11
-0.803726
 21
2.98351
  0
LINE
  8
0
 10
-0.803726
 20
2.98351
 11
-0.881668
 21
3.03647
  0
LINE
  8
0
 10
-0.881668
 20
3.03647
 11
-0.956131
 21
3.09422
  0
LINE
  8
0
 10
-0.956131
 20
3.09422
 11
-1.02681
 21
3.15654
  0
LINE
  8
0
 10
-1.02681
 20
3.15654
 11
-1.09344
 21
3.22318
  0
LINE
  8
0
 10
-1.09344
 20
3.22318
 11
-1.15576
 21
3.29385
  0
LINE
  8
0
 10
-1.15576
 20
3.29385
 11
-1.21352
 21
3.36832
  0
LINE
  8
0
 10
-1.21352
 20
3.36832
 11
-1.26648
 21
3.44626
  0
LINE
  8
0
 10
-1.26648
 20
3.44626
 11
-1.31445
 21
3.52736
  0
LINE
  8
0
 10
-1.31445
 20
3.52736
 11
-1.35724
 21
3.61133
  0
LINE
  8
0
 10
-1.35724
 20
3.61133
 11
-1.39465
 21
3.6978
  0
LINE
  8
0
 10
-1.39465
 20
3.6978
 11
-1.42657
 21
3.78647
  0
LINE
  8
0
 10
-1.42657
 20
3.78647
 11
-1.45287
 21
3.87695
  0
LINE
  8
0
 10
-1.45287
 20
3.87695
 11
-1.47342
 21
3.96892
  0
LINE
  8
0
 10
-1.47342
 20
3.96892
 11
-1.48816
 21
4.062
  0
LINE
  8
0
 10
-1.48816
 20
4.062
 11
-1.49704
 21
4.15581
  0
LINE
  8
0
 10
-1.49704
 20
4.15581
 11
-1.5
 21
4.25
  0
LINE
  8
0
 10
-1.5
 20
4.25
 11
-1.49704
 21
4.34418
  0
LINE
  8
0
 10
-1.49704
 20
4.34418
 11
-1.48816
 21
4.43799
  0
LINE
  8
0
 10
-1.48816
 20
4.43799
 11
-1.47342
 21
4.53107
  0
LINE
  8
0
 10
-1.47342
 20
4.53107
 11
-1.45287
 21
4.62303
  0
LINE
  8
0
 10
-1.45287
 20
4.62303
 11
-1.42657
 21
4.71352
  0
LINE
  8
0
 10
-1.42657
 20
4.71352
 11
-1.39465
 21
4.80219
  0
LINE
  8
0
 10
-1.39465
 20
4.80219
 11
-1.35724
 21
4.88866
  0
LINE
  8
0
 10
-1.35724
 20
4.88866
 11
-1.31445
 21
4.97263
  0
LINE
  8
0
 10
-1.31445
 20
4.97263
 11
-1.26648
 21
5.05373
  0
LINE
  8
0
 10
-1.26648
 20
5.05373
 11
-1.21352
 21
5.13167
  0
LINE
  8
0
 10
-1.21352
 20
5.13167
 11
-1.15576
 21
5.20613
  0
LINE
  8
0
 10
-1.15576
 20
5.20613
 11
-1.09344
 21
5.27681
  0
LINE
  8
0
 10
-1.09344
 20
5.27681
 11
-1.02681
 21
5.34344
  0
LINE
  8
0
 10
-1.02681
 20
5.34344
 11
-0.956131
 21
5.40576
  0
LINE
  8
0
 10
-0.956131
 20
5.40576
 11
-0.881668
 21
5.46352
  0
LINE
  8
0
 10
-0.881668
 20
5.46352
 11
-0.803726
 21
5.51648
  0
LINE
  8
0
 10
-0.803726
 20
5.51648
 11
-0.722626
 21
5.56445
  0
LINE
  8
0
 10
-0.722626
 20
5.56445
 11
-0.638657
 21
5.60724
  0
LINE
  8
0
 10
-0.638657
 20
5.60724
 11
-0.552185
 21
5.64465
  0
LINE
  8
0
 10
-0.552185
 20
5.64465
 11
-0.463516
 21
5.67657
  0
LINE
  8
0
 10
-0.463516
 20
5.67657
 11
-0.373032
 21
5.70287
  0
LINE
  8
0
 10
-0.373032
 20
5.70287
 11
-0.281067
 21
5.72342
  0
LINE
  8
0
 10
-0.281067
 20
5.72342
 11
-0.187988
 21
5.73816
  0
LINE
  8
0
 10
-0.187988
 20
5.73816
 11
-0.0941772
 21
5.74704
  0
LINE
  8
0
 10
-0.0941772
 20
5.74704
 11
0
 21
5.75
  0
LINE
  8
0
 10
0
 20
5.75
 11
0.0941772
 21
5.74704
  0
LINE
  8
0
 10
0.0941772
 20
5.74704
 11
0.187988
 21
5.73816
  0
LINE
  8
0
 10
0.187988
 20
5.73816
 11
0.281067
 21
5.72342
  0
LINE
  8
0
 10
0.281067
 20
5.72342
 11
0.373032
 21
5.70287
  0
LINE
  8
0
 10
0.373032
 20
5.70287
 11
0.463516
 21
5.67657
  0
LINE
  8
0
 10
0.463516
 20
5.67657
 11
0.552185
 21
5.64465
  0
LINE
  8
0
 10
0.552185
 20
5.64465
 11
0.638657
 21
5.60724
  0
LINE
  8
0
 10
0.638657
 20
5.60724
 11
0.722626
 21
5.56445
  0
LINE
  8
0
 10
0.722626
 20
5.56445
 11
0.803726
 21
5.51648
  0
LINE
  8
0
 10
0.803726
 20
5.51648
 11
0.881668
 21
5.46352
  0
LINE
  8
0
 10
0.881668
 20
5.46352
 11
0.956131
 21
5.40576
  0
LINE
  8
0
 10
0.956131
 20
5.40576
 11
1.02681
 21
5.34344
  0
LINE
  8
0
 10
1.02681
 20
5.34344
 11
1.09344
 21
5.27681
  0
LINE
  8
0
 10
1.09344
 20
5.27681
 11
1.15576
 21
5.20613
  0
LINE
  8
0
 10
1.15576
 20
5.20613
 11
1.21352
 21
5.13167
  0
LINE
  8
0
 10
1.21352
 20
5.13167
 11
1.26648
 21
5.05373
  0
LINE
  8
0
 10
1.26648
 20
5.05373
 11
1.31445
 21
4.97263
  0
LINE
  8
0
 10
1.31445
 20
4.97263
 11
1.35724
 21
4.88866
  0
LINE
  8
0
 10
1.35724
 20
4.88866
 11
1.39465
 21
4.80219
  0
LINE
  8
0
 10
1.39465
 20
4.80219
 11
1.42657
 21
4.71352
  0
LINE
  8
0
 10
1.42657
 20
4.71352
 11
1.45287
 21
4.62303
  0
LINE
  8
0
 10
1.45287
 20
4.62303
 11
1.47342
 21
4.53107
  0
LINE
  8
0
 10
1.47342
 20
4.53107
 11
1.48816
 21
4.43799
  0
LINE
  8
0
 10
1.48816
 20
4.43799
 11
1.49704
 21
4.34418
  0
LINE
  8
0
 10
1.49704
 20
4.34418
 11
1.5
 21
4.25
  0
LINE
  8
0
 10
1.5
 20
4.25
 11
1.49704
 21
4.15581
  0
LINE
  8
0
 10
1.49704
 20
4.15581
 11
1.48816
 21
4.062
  0
LINE
  8
0
 10
1.48816
 20
4.062
 11
1.47342
 21
3.96892
  0
LINE
  8
0
 10
1.47342
 20
3.96892
 11
1.45287
 21
3.87695
  0
LINE
  8
0
 10
1.45287
 20
3.87695
 11
1.42657
 21
3.78647
  0
LINE
  8
0
 10
1.42657
 20
3.78647
 11
1.39465
 21
3.6978
  0
LINE
  8
0
 10
1.39465
 20
3.6978
 11
1.35724
 21
3.61133
  0
LINE
  8
0
 10
1.35724
 20
3.61133
 11
1.31445
 21
3.52736
  0
LINE
  8
0
 10
1.31445
 20
3.52736
 11
1.26648
 21
3.44626
  0
LINE
  8
0
 10
1.26648
 20
3.44626
 11
1.21352
 21
3.36832
  0
LINE
  8
0
 10
1.21352
 20
3.36832
 11
1.15576
 21
3.29385
  0
LINE
  8
0
 10
1.15576
 20
3.29385
 11
1.09344
 21
3.22318
  0
LINE
  8
0
 10
1.09344
 20
3.22318
 11
1.02681
 21
3.15654
  0
LINE
  8
0
 10
1.02681
 20
3.15654
 11
0.956131
 21
3.09422
  0
LINE
  8
0
 10
0.956131
 20
3.09422
 11
0.881668
 21
3.03647
  0
LINE
  8
0
 10
0.881668
 20
3.03647
 11
0.803726
 21
2.98351
  0
LINE
  8
0
 10
0.803726
 20
2.98351
 11
0.722626
 21
2.93553
  0
LINE
  8
0
 10
0.722626
 20
2.93553
 11
0.638657
 21
2.89275
  0
LINE
  8
0
 10
0.638657
 20
2.89275
 11
0.552185
 21
2.85533
  0
LINE
  8
0
 10
0.552185
 20
2.85533
 11
0.463516
 21
2.82341
  0
LINE
  8
0
 10
0.463516
 20
2.82341
 11
0.373032
 21
2.79712
  0
LINE
  8
0
 10
0.373032
 20
2.79712
 11
0.281067
 21
2.77657
  0
LINE
  8
0
 10
0.281067
 20
2.77657
 11
0.187988
 21
2.76183
  0
LINE
  8
0
 10
0.187988
 20
2.76183
 11
0.0941772
 21
2.75294
  0
LINE
  8
0
 10
0.0941772
 20
2.75294
 11
0
 21
2.75
  0
LINE
  8
0
 10
0
 20
2.75
 11
-0.0941772
 21
2.75294
  0
LINE
  8
0
 10
-0.0941772
 20
-5.74704
 11
-0.187988
 21
-5.73816
  0
LINE
  8
0
 10
-0.187988
 20
-5.73816
 11
-0.281067
 21
-5.72342
  0
LINE
  8
0
 10
-0.281067
 20
-5.72342
 11
-0.373032
 21
-5.70287
  0
LINE
  8
0
 10
-0.373032
 20
-5.70287
 11
-0.463516
 21
-5.67657
  0
LINE
  8
0
 10
-0.463516
 20
-5.67657
 11
-0.552185
 21
-5.64465
  0
LINE
  8
0
 10
-0.552185
 20
-5.64465
 11
-0.638657
 21
-5.60724
  0
LINE
  8
0
 10
-0.638657
 20
-5.60724
 11
-0.722626
 21
-5.56445
  0
LINE
  8
0
 10
-0.722626
 20
-5.56445
 11
-0.803726
 21
-5.51648
  0
LINE
  8
0
 10
-0.803726
 20
-5.51648
 11
-0.881668
 21
-5.46352
  0
LINE
  8
0
 10
-0.881668
 20
-5.46352
 11
-0.956131
 21
-5.40576
  0
LINE
  8
0
 10
-0.956131
 20
-5.40576
 11
-1.02681
 21
-5.34344
  0
LINE
  8
0
 10
-1.02681
 20
-5.34344
 11
-1.09344
 21
-5.27681
  0
LINE
  8
0
 10
-1.09344
 20
-5.27681
 11
-1.15576
 21
-5.20613
  0
LINE
  8
0
 10
-1.15576
 20
-5.20613
 11
-1.21352
 21
-5.13167
  0
LINE
  8
0
 10
-1.21352
 20
-5.13167
 11
-1.26648
 21
-5.05373
  0
LINE
  8
0
 10
-1.26648
 20
-5.05373
 11
-1.31445
 21
-4.97263
  0
LINE
  8
0
 10
-1.31445
 20
-4.97263
 11
-1.35724
 21
-4.88866
  0
LINE
  8
0
 10
-1.35724
 20
-4.88866
 11
-1.39465
 21
-4.80219
  0
LINE
  8
0
 10
-1.39465
 20
-4.80219
 11
-1.42657
 21
-4.71352
  0
LINE
  8
0
 10
-1.42657
 20
-4.71352
 11
-1.45287
 21
-4.62303
  0
LINE
  8
0
 10
-1.45287
 20
-4.62303
 11
-1.47342
 21
-4.53107
  0
LINE
  8
0
 10
-1.47342
 20
-4.53107
 11
-1.48816
 21
-4.43799
  0
LINE
  8
0
 10
-1.48816
 20
-4.43799
 11
-1.49704
 21
-4.34418
  0
LINE
  8
0
 10
-1.49704
 20
-4.34418
 11
-1.5
 21
-4.25
  0
LINE
  8
0
 10
-1.5
 20
-4.25
 11
-1.49704
 21
-4.15581
  0
LINE
  8
0
 10
-1.49704
 20
-4.15581
 11
-1.48816
 21
-4.062
  0
LINE
  8
0
 10
-1.48816
 20
-4.062
 11
-1.47342
 21
-3.96892
  0
LINE
  8
0
 10
-1.47342
 20
-3.96892
 11
-1.45287
 21
-3.87695
  0
LINE
  8
0
 10
-1.45287
 20
-3.87695
 11
-1.42657
 21
-3.78647
  0
LINE
  8
0
 10
-1.42657
 20
-3.78647
 11
-1.39465
 21
-3.6978
  0
LINE
  8
0
 10
-1.39465
 20
-3.6978
 11
-1.35724
 21
-3.61133
  0
LINE
  8
0
 10
-1.35724
 20
-3.61133
 11
-1.31445
 21
-3.52736
  0
LINE
  8
0
 10
-1.31445
 20
-3.52736
 11
-1.26648
 21
-3.44626
  0
LINE
  8
0
 10
-1.26648
 20
-3.44626
 11
-1.21352
 21
-3.36832
  0
LINE
  8
0
 10
-1.21352
 20
-3.36832
 11
-1.15576
 21
-3.29385
  0
LINE
  8
0
 10
-1.15576
 20
-3.29385
 11
-1.09344
 21
-3.22318
  0
LINE
  8
0
 10
-1.09344
 20
-3.22318
 11
-1.02681
 21
-3.15654
  0
LINE
  8
0
 10
-1.02681
 20
-3.15654
 11
-0.956131
 21
-3.09422
  0
LINE
  8
0
 10
-0.956131
 20
-3.09422
 11
-0.881668
 21
-3.03647
  0
LINE
  8
0
 10
-0.881668
 20
-3.03647
 11
-0.803726
 21
-2.98351
  0
LINE
  8
0
 10
-0.803726
 20
-2.98351
 11
-0.722626
 21
-2.93553
  0
LINE
  8
0
 10
-0.722626
 20
-2.93553
 11
-0.638657
 21
-2.89275
  0
LINE
  8
0
 10
-0.638657
 20
-2.89275
 11
-0.552185
 21
-2.85533
  0
LINE
  8
0
 10
-0.552185
 20
-2.85533
 11
-0.463516
 21
-2.82341
  0
LINE
  8
0
 10
-0.463516
 20
-2.82341
 11
-0.373032
 21
-2.79712
  0
LINE
  8
0
 10
-0.373032
 20
-2.79712
 11
-0.281067
 21
-2.77657
  0
LINE
  8
0
 10
-0.281067
 20
-2.77657
 11
-0.187988
 21
-2.76183
  0
LINE
  8
0
 10
-0.187988
 20
-2.76183
 11
-0.0941772
 21
-2.75294
  0
LINE
  8
0
 10
-0.0941772
 20
-2.75294
 11
0
 21
-2.75
  0
LINE
  8
0
 10
0
 20
-2.75
 11
0.0941772
 21
-2.75294
  0
LINE
  8
0
 10
0.0941772
 20
-2.75294
 11
0.187988
 21
-2.76183
  0
LINE
  8
0
 10
0.187988
 20
-2.76183
 11
0.281067
 21
-2.77657
  0
LINE
  8
0
 10
0.281067
 20
-2.77657
 11
0.373032
 21
-2.79712
  0
LINE
  8
0
 10
0.373032
 20
-2.79712
 11
0.463516
 21
-2.82341
  0
LINE
  8
0
 10
0.463516
 20
-2.82341
 11
0.552185
 21
-2.85533
  0
LINE
  8
0
 10
0.552185
 20
-2.85533
 11
0.638657
 21
-2.89275
  0
LINE
  8
0
 10
0.638657
 20
-2.89275
 11
0.722626
 21
-2.93553
  0
LINE
  8
0
 10
0.722626
 20
-2.93553
 11
0.803726
 21
-2.98351
  0
LINE
  8
0
 10
0.803726
 20
-2.98351
 11
0.881668
 21
-3.03647
  0
LINE
  8
0
 10
0.881668
 20
-3.03647
 11
0.956131
 21
-3.09422
  0
LINE
  8
0
 10
0.956131
 20
-3.09422
 11
1.02681
 21
-3.15654
  0
LINE
  8
0
 10
1.02681
 20
-3.15654
 11
1.09344
 21
-3.22318
  0
LINE
  8
0
 10
1.09344
 20
-3.22318
 11
1.15576
 21
-3.29385
  0
LINE
  8
0
 10
1.15576
 20
-3.29385
 11
1.21352
 21
-3.36832
  0
LINE
  8
0
 10
1.21352
 20
-3.36832
 11
1.26648
 21
-3.44626
  0
LINE
  8
0
 10
1.26648
 20
-3.44626
 11
1.31445
 21
-3.52736
  0
LINE
  8
0
 10
1.31445
 20
-3.52736
 11
1.35724
 21
-3.61133
  0
LINE
  8
0
 10
1.35724
 20
-3.61133
 11
1.39465
 21
-3.6978
  0
LINE
  8
0
 10
1.39465
 20
-3.6978
 11
1.42657
 21
-3.78647
  0
LINE
  8
0
 10
1.42657
 20
-3.78647
 11
1.45287
 21
-3.87695
  0
LINE
  8
0
 10
1.45287
 20
-3.87695
 11
1.47342
 21
-3.96892
  0
LINE
  8
0
 10
1.47342
 20
-3.96892
 11
1.48816
 21
-4.062
  0
LINE
  8
0
 10
1.48816
 20
-4.062
 11
1.49704
 21
-4.15581
  0
LINE
  8
0
 10
1.49704
 20
-4.15581
 11
1.5
 21
-4.25
  0
LINE
  8
0
 10
1.5
 20
-4.25
 11
1.49704
 21
-4.34418
  0
LINE
  8
0
 10
1.49704
 20
-4.34418
 11
1.48816
 21
-4.43799
  0
LINE
  8
0
 10
1.48816
 20
-4.43799
 11
1.47342
 21
-4.53107
  0
LINE
  8
0
 10
1.47342
 20
-4.53107
 11
1.45287
 21
-4.62303
  0
LINE
  8
0
 10
1.45287
 20
-4.62303
 11
1.42657
 21
-4.71352
  0
LINE
  8
0
 10
1.42657
 20
-4.71352
 11
1.39465
 21
-4.80219
  0
LINE
  8
0
 10
1.39465
 20
-4.80219
 11
1.35724
 21
-4.88866
  0
LINE
  8
0
 10
1.35724
 20
-4.88866
 11
1.31445
 21
-4.97263
  0
LINE
  8
0
 10
1.31445
 20
-4.97263
 11
1.26648
 21
-5.05373
  0
LINE
  8
0
 10
1.26648
 20
-5.05373
 11
1.21352
 21
-5.13167
  0
LINE
  8
0
 10
1.21352
 20
-5.13167
 11
1.15576
 21
-5.20613
  0
LINE
  8
0
 10
1.15576
 20
-5.20613
 11
1.09344
 21
-5.27681
  0
LINE
  8
0
 10
1.09344
 20
-5.27681
 11
1.02681
 21
-5.34344
  0
LINE
  8
0
 10
1.02681
 20
-5.34344
 11
0.956131
 21
-5.40576
  0
LINE
  8
0
 10
0.956131
 20
-5.40576
 11
0.881668
 21
-5.46352
  0
LINE
  8
0
 10
0.881668
 20
-5.46352
 11
0.803726
 21
-5.51648
  0
LINE
  8
0
 10
0.803726
 20
-5.51648
 11
0.722626
 21
-5.56445
  0
LINE
  8
0
 10
0.722626
 20
-5.56445
 11
0.638657
 21
-5.60724
  0
LINE
  8
0
 10
0.638657
 20
-5.60724
 11
0.552185
 21
-5.64465
  0
LINE
  8
0
 10
0.552185
 20
-5.64465
 11
0.463516
 21
-5.67657
  0
LINE
  8
0
 10
0.463516
 20
-5.67657
 11
0.373032
 21
-5.70287
  0
LINE
  8
0
 10
0.373032
 20
-5.70287
 11
0.281067
 21
-5.72342
  0
LINE
  8
0
 10
0.281067
 20
-5.72342
 11
0.187988
 21
-5.73816
  0
LINE
  8
0
 10
0.187988
 20
-5.73816
 11
0.0941772
 21
-5.74704
  0
LINE
  8
0
 10
0.0941772
 20
-5.74704
 11
0
 21
-5.75
  0
LINE
  8
0
 10
0
 20
-5.75
 11
-0.0941772
 21
-5.74704
  0
ENDSEC
  0
SECTION
  2
OBJECTS
  0
DICTIONARY
  0
ENDSEC
  0
EOF
